<?xml version="1.0" encoding="utf-8" standalone="no"?>
<!DOCTYPE svg PUBLIC "-//W3C//DTD SVG 1.1//EN"
  "http://www.w3.org/Graphics/SVG/1.1/DTD/svg11.dtd">
<svg xmlns:xlink="http://www.w3.org/1999/xlink" width="1152pt" height="720pt" viewBox="0 0 1152 720" xmlns="http://www.w3.org/2000/svg" version="1.1">
 <metadata>
  <rdf:RDF xmlns:dc="http://purl.org/dc/elements/1.1/" xmlns:cc="http://creativecommons.org/ns#" xmlns:rdf="http://www.w3.org/1999/02/22-rdf-syntax-ns#">
   <cc:Work>
    <dc:type rdf:resource="http://purl.org/dc/dcmitype/StillImage"/>
    <dc:date>2024-09-22T12:35:42.936733</dc:date>
    <dc:format>image/svg+xml</dc:format>
    <dc:creator>
     <cc:Agent>
      <dc:title>Matplotlib v3.8.4, https://matplotlib.org/</dc:title>
     </cc:Agent>
    </dc:creator>
   </cc:Work>
  </rdf:RDF>
 </metadata>
 <defs>
  <style type="text/css">*{stroke-linejoin: round; stroke-linecap: butt}</style>
 </defs>
 <g id="figure_1">
  <g id="patch_1">
   <path d="M 0 720 
L 1152 720 
L 1152 0 
L 0 0 
z
" style="fill: #ffffff"/>
  </g>
  <g id="axes_1">
   <g id="patch_2">
    <path d="M 144 640.8 
L 858.24 640.8 
L 858.24 43.2 
L 144 43.2 
z
" style="fill: #ffffff"/>
   </g>
   <g id="QuadContourSet_1">
    <path d="M 858.24 640.8 
L 858.24 639.281128 
L 856.873142 640.8 
z
" clip-path="url(#p81ebf809b9)" style="fill: #16078a"/>
    <path d="M 858.24 639.281128 
L 858.24 631.150563 
L 849.556311 640.8 
L 856.873142 640.8 
z
" clip-path="url(#p81ebf809b9)" style="fill: #240691"/>
    <path d="M 858.24 631.150563 
L 858.24 623.019998 
L 842.23948 640.8 
L 849.556311 640.8 
z
" clip-path="url(#p81ebf809b9)" style="fill: #2f0596"/>
    <path d="M 858.24 623.019998 
L 858.24 614.889433 
L 834.92265 640.8 
L 842.23948 640.8 
z
" clip-path="url(#p81ebf809b9)" style="fill: #3a049a"/>
    <path d="M 858.24 614.889433 
L 858.24 606.758868 
L 827.605819 640.8 
L 834.92265 640.8 
z
" clip-path="url(#p81ebf809b9)" style="fill: #44039e"/>
    <path d="M 858.24 606.758868 
L 858.24 598.628303 
L 820.288988 640.8 
L 827.605819 640.8 
z
" clip-path="url(#p81ebf809b9)" style="fill: #4e02a2"/>
    <path d="M 858.24 598.628303 
L 858.24 598.114286 
L 858.24 590.005431 
L 850.84318 598.114286 
L 812.972157 640.8 
L 820.288988 640.8 
z
" clip-path="url(#p81ebf809b9)" style="fill: #5801a4"/>
    <path d="M 850.84318 598.114286 
L 858.24 590.005431 
L 858.24 581.349334 
L 842.947172 598.114286 
L 805.655327 640.8 
L 812.972157 640.8 
z
" clip-path="url(#p81ebf809b9)" style="fill: #6100a7"/>
    <path d="M 842.947172 598.114286 
L 858.24 581.349334 
L 858.24 572.693238 
L 835.051164 598.114286 
L 798.338496 640.8 
L 805.655327 640.8 
z
" clip-path="url(#p81ebf809b9)" style="fill: #6a00a8"/>
    <path d="M 835.051164 598.114286 
L 858.24 572.693238 
L 858.24 564.037142 
L 827.155156 598.114286 
L 791.021665 640.8 
L 798.338496 640.8 
z
" clip-path="url(#p81ebf809b9)" style="fill: #7401a8"/>
    <path d="M 786.816 640.8 
L 791.021665 640.8 
L 827.155156 598.114286 
L 858.24 564.037142 
L 858.24 555.428571 
L 858.24 555.377251 
L 858.192935 555.428571 
L 819.259148 598.114286 
L 786.816 636.796866 
L 783.311511 640.8 
z
" clip-path="url(#p81ebf809b9)" style="fill: #7d03a8"/>
    <path d="M 786.816 636.796866 
L 819.259148 598.114286 
L 858.192935 555.428571 
L 858.24 555.377251 
L 858.24 546.030048 
L 849.62085 555.428571 
L 811.36314 598.114286 
L 786.816 627.382306 
L 775.069662 640.8 
L 783.311511 640.8 
z
" clip-path="url(#p81ebf809b9)" style="fill: #8707a6"/>
    <path d="M 786.816 627.382306 
L 811.36314 598.114286 
L 849.62085 555.428571 
L 858.24 546.030048 
L 858.24 536.682846 
L 841.048766 555.428571 
L 803.467131 598.114286 
L 786.816 617.967745 
L 766.827813 640.8 
L 775.069662 640.8 
z
" clip-path="url(#p81ebf809b9)" style="fill: #8f0da4"/>
    <path d="M 786.816 617.967745 
L 803.467131 598.114286 
L 841.048766 555.428571 
L 858.24 536.682846 
L 858.24 527.335644 
L 832.476681 555.428571 
L 795.571123 598.114286 
L 786.816 608.553185 
L 758.585964 640.8 
L 766.827813 640.8 
z
" clip-path="url(#p81ebf809b9)" style="fill: #9814a0"/>
    <path d="M 786.816 608.553185 
L 795.571123 598.114286 
L 832.476681 555.428571 
L 858.24 527.335644 
L 858.24 517.988442 
L 823.904597 555.428571 
L 787.675115 598.114286 
L 786.816 599.138625 
L 750.344116 640.8 
L 758.585964 640.8 
z
" clip-path="url(#p81ebf809b9)" style="fill: #a01a9c"/>
    <path d="M 786.816 599.138625 
L 787.675115 598.114286 
L 823.904597 555.428571 
L 858.24 517.988442 
L 858.24 512.742857 
L 858.24 508.212175 
L 854.101402 512.742857 
L 815.332512 555.428571 
L 786.816 589.095192 
L 778.774404 598.114286 
L 742.102267 640.8 
L 750.344116 640.8 
z
" clip-path="url(#p81ebf809b9)" style="fill: #a72197"/>
    <path d="M 778.774404 598.114286 
L 786.816 589.095192 
L 815.332512 555.428571 
L 854.101402 512.742857 
L 858.24 508.212175 
L 858.24 497.887175 
L 844.669924 512.742857 
L 806.760428 555.428571 
L 786.816 578.974981 
L 769.751031 598.114286 
L 733.860418 640.8 
L 742.102267 640.8 
z
M 152.546121 43.2 
L 144 43.2 
L 144 58.715822 
z
" clip-path="url(#p81ebf809b9)" style="fill: #ae2892"/>
    <path d="M 769.751031 598.114286 
L 786.816 578.974981 
L 806.760428 555.428571 
L 844.669924 512.742857 
L 858.24 497.887175 
L 858.24 487.562175 
L 835.238446 512.742857 
L 798.188343 555.428571 
L 786.816 568.85477 
L 760.727657 598.114286 
L 725.618569 640.8 
L 733.860418 640.8 
z
M 167.198916 43.2 
L 152.546121 43.2 
L 144 58.715822 
L 144 85.31855 
z
" clip-path="url(#p81ebf809b9)" style="fill: #b52f8c"/>
    <path d="M 760.727657 598.114286 
L 786.816 568.85477 
L 798.188343 555.428571 
L 835.238446 512.742857 
L 858.24 487.562175 
L 858.24 477.237175 
L 825.806968 512.742857 
L 789.616259 555.428571 
L 786.816 558.734559 
L 751.704284 598.114286 
L 717.37672 640.8 
L 725.618569 640.8 
z
M 157.078927 85.885714 
L 181.851711 43.2 
L 167.198916 43.2 
L 144 85.31855 
L 144 85.885714 
L 144 115.589889 
z
" clip-path="url(#p81ebf809b9)" style="fill: #bc3587"/>
    <path d="M 715.392 640.8 
L 717.37672 640.8 
L 751.704284 598.114286 
L 786.816 558.734559 
L 789.616259 555.428571 
L 825.806968 512.742857 
L 858.24 477.237175 
L 858.24 470.057143 
L 858.24 466.479997 
L 855.034107 470.057143 
L 816.37549 512.742857 
L 786.816 547.879839 
L 780.068048 555.428571 
L 742.680911 598.114286 
L 715.392 632.234624 
L 708.06295 640.8 
z
M 151.051283 128.571429 
L 170.442768 85.885714 
L 196.504505 43.2 
L 181.851711 43.2 
L 157.078927 85.885714 
L 144 115.589889 
L 144 128.571429 
L 144 148.576845 
z
" clip-path="url(#p81ebf809b9)" style="fill: #c23c81"/>
    <path d="M 715.392 632.234624 
L 742.680911 598.114286 
L 780.068048 555.428571 
L 786.816 547.879839 
L 816.37549 512.742857 
L 855.034107 470.057143 
L 858.24 466.479997 
L 858.24 454.736147 
L 844.509089 470.057143 
L 806.944012 512.742857 
L 786.816 536.668763 
L 770.046261 555.428571 
L 733.657538 598.114286 
L 715.392 620.952366 
L 698.409172 640.8 
L 708.06295 640.8 
z
M 147.956558 171.257143 
L 163.372458 128.571429 
L 183.806608 85.885714 
L 211.1573 43.2 
L 196.504505 43.2 
L 170.442768 85.885714 
L 151.051283 128.571429 
L 144 148.576845 
L 144 171.257143 
L 144 185.435965 
z
" clip-path="url(#p81ebf809b9)" style="fill: #c8437b"/>
    <path d="M 144 633.77094 
L 144 640.8 
L 145.622163 640.8 
z
M 715.392 620.952366 
L 733.657538 598.114286 
L 770.046261 555.428571 
L 786.816 536.668763 
L 806.944012 512.742857 
L 844.509089 470.057143 
L 858.24 454.736147 
L 858.24 442.992298 
L 833.98407 470.057143 
L 797.512534 512.742857 
L 786.816 525.457688 
L 760.024474 555.428571 
L 724.634165 598.114286 
L 715.392 609.670108 
L 688.755394 640.8 
L 698.409172 640.8 
z
M 147.032344 213.942857 
L 159.22269 171.257143 
L 175.693632 128.571429 
L 197.170449 85.885714 
L 215.424 57.783379 
L 230.575798 43.2 
L 215.424 43.2 
L 211.1573 43.2 
L 183.806608 85.885714 
L 163.372458 128.571429 
L 147.956558 171.257143 
L 144 185.435965 
L 144 213.942857 
L 144 228.274145 
z
" clip-path="url(#p81ebf809b9)" style="fill: #ce4b75"/>
    <path d="M 144 606.285633 
L 144 633.77094 
L 145.622163 640.8 
L 151.965207 640.8 
z
M 715.392 609.670108 
L 724.634165 598.114286 
L 760.024474 555.428571 
L 786.816 525.457688 
L 797.512534 512.742857 
L 833.98407 470.057143 
L 858.24 442.992298 
L 858.24 431.248449 
L 823.459052 470.057143 
L 788.081056 512.742857 
L 786.816 514.246613 
L 750.002686 555.428571 
L 715.610792 598.114286 
L 715.392 598.387849 
L 679.101617 640.8 
L 688.755394 640.8 
z
M 148.061109 256.628571 
L 157.349162 213.942857 
L 170.488822 171.257143 
L 188.014807 128.571429 
L 210.53429 85.885714 
L 215.424 78.357739 
L 251.95209 43.2 
L 230.575798 43.2 
L 215.424 57.783379 
L 197.170449 85.885714 
L 175.693632 128.571429 
L 159.22269 171.257143 
L 147.032344 213.942857 
L 144 228.274145 
L 144 256.628571 
L 144 278.997363 
z
" clip-path="url(#p81ebf809b9)" style="fill: #d45270"/>
    <path d="M 149.046252 598.114286 
L 144 575.640788 
L 144 598.114286 
L 144 606.285633 
L 151.965207 640.8 
L 158.308251 640.8 
z
M 715.392 598.387849 
L 715.610792 598.114286 
L 750.002686 555.428571 
L 786.816 514.246613 
L 788.081056 512.742857 
L 823.459052 470.057143 
L 858.24 431.248449 
L 858.24 427.371429 
L 858.24 418.013476 
L 850.288227 427.371429 
L 812.934034 470.057143 
L 786.816 501.701344 
L 777.079975 512.742857 
L 739.980899 555.428571 
L 715.392 585.968734 
L 704.856946 598.114286 
L 669.447839 640.8 
L 679.101617 640.8 
z
M 149.731337 299.314286 
L 157.765651 256.628571 
L 167.665979 213.942857 
L 181.754953 171.257143 
L 200.335981 128.571429 
L 215.424 100.448496 
L 228.204212 85.885714 
L 273.328382 43.2 
L 251.95209 43.2 
L 215.424 78.357739 
L 210.53429 85.885714 
L 188.014807 128.571429 
L 170.488822 171.257143 
L 157.349162 213.942857 
L 148.061109 256.628571 
L 144 278.997363 
L 144 299.314286 
L 144 335.084332 
z
" clip-path="url(#p81ebf809b9)" style="fill: #d9586a"/>
    <path d="M 156.22747 598.114286 
L 146.961274 555.428571 
L 145.541284 512.742857 
L 145.636245 470.057143 
L 145.375677 427.371429 
L 147.520972 384.685714 
L 151.928932 342 
L 158.976752 299.314286 
L 167.470193 256.628571 
L 177.982797 213.942857 
L 193.021085 171.257143 
L 212.657155 128.571429 
L 215.424 123.414238 
L 248.358813 85.885714 
L 286.848 50.089383 
L 295.488799 43.2 
L 286.848 43.2 
L 273.328382 43.2 
L 228.204212 85.885714 
L 215.424 100.448496 
L 200.335981 128.571429 
L 181.754953 171.257143 
L 167.665979 213.942857 
L 157.765651 256.628571 
L 149.731337 299.314286 
L 144 335.084332 
L 144 342 
L 144 384.685714 
L 144 427.371429 
L 144 470.057143 
L 144 512.742857 
L 144 555.428571 
L 144 575.640788 
L 149.046252 598.114286 
L 158.308251 640.8 
L 164.651296 640.8 
z
M 704.856946 598.114286 
L 715.392 585.968734 
L 739.980899 555.428571 
L 777.079975 512.742857 
L 786.816 501.701344 
L 812.934034 470.057143 
L 850.288227 427.371429 
L 858.24 418.013476 
L 858.24 404.043629 
L 838.417571 427.371429 
L 802.409016 470.057143 
L 786.816 488.949397 
L 765.835748 512.742857 
L 729.959111 555.428571 
L 715.392 573.521368 
L 694.060098 598.114286 
L 659.794061 640.8 
L 669.447839 640.8 
z
" clip-path="url(#p81ebf809b9)" style="fill: #de5f65"/>
    <path d="M 163.408689 598.114286 
L 155.008115 555.428571 
L 153.557532 512.742857 
L 153.699017 470.057143 
L 153.862399 427.371429 
L 156.333054 384.685714 
L 160.937563 342 
L 168.222167 299.314286 
L 177.174735 256.628571 
L 188.299614 213.942857 
L 204.287217 171.257143 
L 215.424 147.336156 
L 229.95917 128.571429 
L 268.513414 85.885714 
L 286.848 68.833888 
L 318.998524 43.2 
L 295.488799 43.2 
L 286.848 50.089383 
L 248.358813 85.885714 
L 215.424 123.414238 
L 212.657155 128.571429 
L 193.021085 171.257143 
L 177.982797 213.942857 
L 167.470193 256.628571 
L 158.976752 299.314286 
L 151.928932 342 
L 147.520972 384.685714 
L 145.375677 427.371429 
L 145.636245 470.057143 
L 145.541284 512.742857 
L 146.961274 555.428571 
L 156.22747 598.114286 
L 164.651296 640.8 
L 170.99434 640.8 
z
M 694.060098 598.114286 
L 715.392 573.521368 
L 729.959111 555.428571 
L 765.835748 512.742857 
L 786.816 488.949397 
L 802.409016 470.057143 
L 838.417571 427.371429 
L 858.24 404.043629 
L 858.24 390.073783 
L 826.546915 427.371429 
L 791.883998 470.057143 
L 786.816 476.19745 
L 754.591522 512.742857 
L 719.937324 555.428571 
L 715.392 561.074002 
L 683.26325 598.114286 
L 650.140284 640.8 
L 659.794061 640.8 
z
M 858.24 52.025015 
L 858.24 43.2 
L 841.131104 43.2 
z
" clip-path="url(#p81ebf809b9)" style="fill: #e26660"/>
    <path d="M 170.589908 598.114286 
L 163.054956 555.428571 
L 161.573781 512.742857 
L 161.761789 470.057143 
L 162.349121 427.371429 
L 165.145135 384.685714 
L 169.946195 342 
L 177.467582 299.314286 
L 186.879277 256.628571 
L 198.616432 213.942857 
L 215.424 171.555859 
L 215.627941 171.257143 
L 248.703589 128.571429 
L 286.848 87.699424 
L 288.971066 85.885714 
L 342.508249 43.2 
L 318.998524 43.2 
L 286.848 68.833888 
L 268.513414 85.885714 
L 229.95917 128.571429 
L 215.424 147.336156 
L 204.287217 171.257143 
L 188.299614 213.942857 
L 177.174735 256.628571 
L 168.222167 299.314286 
L 160.937563 342 
L 156.333054 384.685714 
L 153.862399 427.371429 
L 153.699017 470.057143 
L 153.557532 512.742857 
L 155.008115 555.428571 
L 163.408689 598.114286 
L 170.99434 640.8 
L 177.337384 640.8 
z
M 643.968 640.8 
L 650.140284 640.8 
L 683.26325 598.114286 
L 715.392 561.074002 
L 719.937324 555.428571 
L 754.591522 512.742857 
L 786.816 476.19745 
L 791.883998 470.057143 
L 826.546915 427.371429 
L 858.24 390.073783 
L 858.24 384.685714 
L 858.24 373.840274 
L 849.932235 384.685714 
L 814.676259 427.371429 
L 786.816 462.33354 
L 780.243031 470.057143 
L 743.347295 512.742857 
L 715.392 547.736988 
L 708.740014 555.428571 
L 672.466402 598.114286 
L 643.968 635.668924 
L 639.098963 640.8 
z
M 858.24 66.153347 
L 858.24 52.025015 
L 841.131104 43.2 
L 813.740762 43.2 
z
" clip-path="url(#p81ebf809b9)" style="fill: #e76e5b"/>
    <path d="M 177.771127 598.114286 
L 171.101798 555.428571 
L 169.59003 512.742857 
L 169.824561 470.057143 
L 170.835843 427.371429 
L 173.957216 384.685714 
L 178.954827 342 
L 186.712998 299.314286 
L 196.583818 256.628571 
L 208.93325 213.942857 
L 215.424 197.573837 
L 233.39103 171.257143 
L 267.448009 128.571429 
L 286.848 107.784201 
L 312.481618 85.885714 
L 358.272 49.376221 
L 368.432177 43.2 
L 358.272 43.2 
L 342.508249 43.2 
L 288.971066 85.885714 
L 286.848 87.699424 
L 248.703589 128.571429 
L 215.627941 171.257143 
L 215.424 171.555859 
L 198.616432 213.942857 
L 186.879277 256.628571 
L 177.467582 299.314286 
L 169.946195 342 
L 165.145135 384.685714 
L 162.349121 427.371429 
L 161.761789 470.057143 
L 161.573781 512.742857 
L 163.054956 555.428571 
L 170.589908 598.114286 
L 177.337384 640.8 
L 183.680428 640.8 
z
M 643.968 635.668924 
L 672.466402 598.114286 
L 708.740014 555.428571 
L 715.392 547.736988 
L 743.347295 512.742857 
L 780.243031 470.057143 
L 786.816 462.33354 
L 814.676259 427.371429 
L 849.932235 384.685714 
L 858.24 373.840274 
L 858.24 356.185524 
L 836.40844 384.685714 
L 802.805602 427.371429 
L 786.816 447.436937 
L 767.565669 470.057143 
L 732.103068 512.742857 
L 715.392 533.661588 
L 696.56705 555.428571 
L 661.669554 598.114286 
L 643.968 621.441049 
L 625.59769 640.8 
L 639.098963 640.8 
z
M 786.816 43.438014 
L 858.24 80.281679 
L 858.24 66.153347 
L 813.740762 43.2 
L 786.816 43.2 
L 786.188181 43.2 
z
" clip-path="url(#p81ebf809b9)" style="fill: #eb7556"/>
    <path d="M 184.952346 598.114286 
L 179.148639 555.428571 
L 177.606278 512.742857 
L 177.887333 470.057143 
L 179.322565 427.371429 
L 182.769298 384.685714 
L 187.963458 342 
L 195.958413 299.314286 
L 206.28836 256.628571 
L 215.424 226.006481 
L 221.843842 213.942857 
L 251.15412 171.257143 
L 286.192428 128.571429 
L 286.848 127.868979 
L 335.99217 85.885714 
L 358.272 68.121606 
L 399.269228 43.2 
L 368.432177 43.2 
L 358.272 49.376221 
L 312.481618 85.885714 
L 286.848 107.784201 
L 267.448009 128.571429 
L 233.39103 171.257143 
L 215.424 197.573837 
L 208.93325 213.942857 
L 196.583818 256.628571 
L 186.712998 299.314286 
L 178.954827 342 
L 173.957216 384.685714 
L 170.835843 427.371429 
L 169.824561 470.057143 
L 169.59003 512.742857 
L 171.101798 555.428571 
L 177.771127 598.114286 
L 183.680428 640.8 
L 190.023473 640.8 
z
M 643.968 621.441049 
L 661.669554 598.114286 
L 696.56705 555.428571 
L 715.392 533.661588 
L 732.103068 512.742857 
L 767.565669 470.057143 
L 786.816 447.436937 
L 802.805602 427.371429 
L 836.40844 384.685714 
L 858.24 356.185524 
L 858.24 342 
L 858.24 337.224885 
L 855.181923 342 
L 822.884646 384.685714 
L 790.934946 427.371429 
L 786.816 432.540334 
L 754.888308 470.057143 
L 720.858841 512.742857 
L 715.392 519.586189 
L 684.394087 555.428571 
L 650.872706 598.114286 
L 643.968 607.213173 
L 612.096417 640.8 
L 625.59769 640.8 
z
M 858.24 98.653268 
L 858.24 85.885714 
L 858.24 80.281679 
L 786.816 43.438014 
L 786.188181 43.2 
L 749.253197 43.2 
L 786.816 57.440493 
L 841.884422 85.885714 
z
" clip-path="url(#p81ebf809b9)" style="fill: #ef7c51"/>
    <path d="M 192.133565 598.114286 
L 187.195481 555.428571 
L 185.622527 512.742857 
L 185.950105 470.057143 
L 187.809287 427.371429 
L 191.581379 384.685714 
L 196.97209 342 
L 205.203828 299.314286 
L 215.424 258.778244 
L 216.39011 256.628571 
L 239.154657 213.942857 
L 268.917209 171.257143 
L 286.848 149.434182 
L 309.34165 128.571429 
L 358.272 86.924259 
L 359.679562 85.885714 
L 429.696 43.416993 
L 430.451079 43.2 
L 429.696 43.2 
L 399.269228 43.2 
L 358.272 68.121606 
L 335.99217 85.885714 
L 286.848 127.868979 
L 286.192428 128.571429 
L 251.15412 171.257143 
L 221.843842 213.942857 
L 215.424 226.006481 
L 206.28836 256.628571 
L 195.958413 299.314286 
L 187.963458 342 
L 182.769298 384.685714 
L 179.322565 427.371429 
L 177.887333 470.057143 
L 177.606278 512.742857 
L 179.148639 555.428571 
L 184.952346 598.114286 
L 190.023473 640.8 
L 196.366517 640.8 
z
M 643.968 607.213173 
L 650.872706 598.114286 
L 684.394087 555.428571 
L 715.392 519.586189 
L 720.858841 512.742857 
L 754.888308 470.057143 
L 786.816 432.540334 
L 790.934946 427.371429 
L 822.884646 384.685714 
L 855.181923 342 
L 858.24 337.224885 
L 858.24 312.924521 
L 839.619496 342 
L 809.360851 384.685714 
L 786.816 415.356943 
L 777.405033 427.371429 
L 742.210946 470.057143 
L 715.392 504.401382 
L 708.232022 512.742857 
L 672.221124 555.428571 
L 643.968 592.375731 
L 638.45326 598.114286 
L 598.595144 640.8 
L 612.096417 640.8 
z
M 858.24 119.814456 
L 858.24 98.653268 
L 841.884422 85.885714 
L 786.816 57.440493 
L 749.253197 43.2 
L 715.392 43.2 
L 710.66102 43.2 
L 715.392 44.374301 
L 786.816 71.442972 
L 814.776373 85.885714 
z
" clip-path="url(#p81ebf809b9)" style="fill: #f2844b"/>
    <path d="M 199.314784 598.114286 
L 195.242322 555.428571 
L 193.638776 512.742857 
L 194.012877 470.057143 
L 196.296009 427.371429 
L 200.39346 384.685714 
L 205.980721 342 
L 214.449243 299.314286 
L 215.424 295.448129 
L 232.870371 256.628571 
L 256.465472 213.942857 
L 286.680299 171.257143 
L 286.848 171.053039 
L 332.650511 128.571429 
L 358.272 106.763644 
L 386.56831 85.885714 
L 429.696 59.726459 
L 487.203837 43.2 
L 430.451079 43.2 
L 429.696 43.416993 
L 359.679562 85.885714 
L 358.272 86.924259 
L 309.34165 128.571429 
L 286.848 149.434182 
L 268.917209 171.257143 
L 239.154657 213.942857 
L 216.39011 256.628571 
L 215.424 258.778244 
L 205.203828 299.314286 
L 196.97209 342 
L 191.581379 384.685714 
L 187.809287 427.371429 
L 185.950105 470.057143 
L 185.622527 512.742857 
L 187.195481 555.428571 
L 192.133565 598.114286 
L 196.366517 640.8 
L 202.709561 640.8 
z
M 638.45326 598.114286 
L 643.968 592.375731 
L 672.221124 555.428571 
L 708.232022 512.742857 
L 715.392 504.401382 
L 742.210946 470.057143 
L 777.405033 427.371429 
L 786.816 415.356943 
L 809.360851 384.685714 
L 839.619496 342 
L 858.24 312.924521 
L 858.24 299.314286 
L 858.24 281.668196 
L 850.349321 299.314286 
L 824.057069 342 
L 795.837056 384.685714 
L 786.816 396.958444 
L 762.993458 427.371429 
L 729.533585 470.057143 
L 715.392 488.166802 
L 694.296927 512.742857 
L 660.04816 555.428571 
L 643.968 576.45691 
L 623.155305 598.114286 
L 585.093871 640.8 
L 598.595144 640.8 
z
M 858.24 148.486023 
L 858.24 128.571429 
L 858.24 119.814456 
L 814.776373 85.885714 
L 786.816 71.442972 
L 715.392 44.374301 
L 710.66102 43.2 
L 653.813018 43.2 
L 715.392 58.484831 
L 786.816 85.445452 
L 787.668324 85.885714 
L 843.075051 128.571429 
z
" clip-path="url(#p81ebf809b9)" style="fill: #f58c46"/>
    <path d="M 206.496003 598.114286 
L 203.289164 555.428571 
L 201.655024 512.742857 
L 202.075649 470.057143 
L 204.782731 427.371429 
L 209.205542 384.685714 
L 214.989353 342 
L 215.424 339.815594 
L 229.607648 299.314286 
L 249.350631 256.628571 
L 273.776286 213.942857 
L 286.848 195.478525 
L 310.419818 171.257143 
L 355.959371 128.571429 
L 358.272 126.60303 
L 413.457058 85.885714 
L 429.696 76.035926 
L 501.12 54.936227 
L 572.544 47.56985 
L 643.968 55.013599 
L 715.392 72.595362 
L 750.605201 85.885714 
L 786.816 105.176624 
L 817.204142 128.571429 
L 849.76826 171.257143 
L 858.24 204.716613 
L 858.24 171.257143 
L 858.24 148.486023 
L 843.075051 128.571429 
L 787.668324 85.885714 
L 786.816 85.445452 
L 715.392 58.484831 
L 653.813018 43.2 
L 643.968 43.2 
L 572.544 43.2 
L 501.12 43.2 
L 487.203837 43.2 
L 429.696 59.726459 
L 386.56831 85.885714 
L 358.272 106.763644 
L 332.650511 128.571429 
L 286.848 171.053039 
L 286.680299 171.257143 
L 256.465472 213.942857 
L 232.870371 256.628571 
L 215.424 295.448129 
L 214.449243 299.314286 
L 205.980721 342 
L 200.39346 384.685714 
L 196.296009 427.371429 
L 194.012877 470.057143 
L 193.638776 512.742857 
L 195.242322 555.428571 
L 199.314784 598.114286 
L 202.709561 640.8 
L 209.052605 640.8 
z
M 572.544 640.8 
L 585.093871 640.8 
L 623.155305 598.114286 
L 643.968 576.45691 
L 660.04816 555.428571 
L 694.296927 512.742857 
L 715.392 488.166802 
L 729.533585 470.057143 
L 762.993458 427.371429 
L 786.816 396.958444 
L 795.837056 384.685714 
L 824.057069 342 
L 850.349321 299.314286 
L 858.24 281.668196 
L 858.24 256.628571 
L 858.24 222.259277 
L 850.526928 256.628571 
L 832.412554 299.314286 
L 808.494641 342 
L 786.816 376.451355 
L 781.345006 384.685714 
L 748.581883 427.371429 
L 716.856223 470.057143 
L 715.392 471.932222 
L 680.361832 512.742857 
L 647.875197 555.428571 
L 643.968 560.538089 
L 607.857349 598.114286 
L 572.544 639.535535 
L 571.388077 640.8 
z
" clip-path="url(#p81ebf809b9)" style="fill: #f89540"/>
    <path d="M 213.677222 598.114286 
L 211.336005 555.428571 
L 209.671273 512.742857 
L 210.138421 470.057143 
L 213.269453 427.371429 
L 215.424 407.603524 
L 219.521956 384.685714 
L 229.744685 342 
L 245.462942 299.314286 
L 265.830891 256.628571 
L 286.848 220.819021 
L 292.812548 213.942857 
L 334.216299 171.257143 
L 358.272 148.684967 
L 381.164682 128.571429 
L 429.696 93.218246 
L 450.09867 85.885714 
L 501.12 70.485157 
L 572.544 62.611253 
L 643.968 69.301617 
L 711.985817 85.885714 
L 715.392 86.988835 
L 786.816 125.093764 
L 791.333232 128.571429 
L 824.076212 171.257143 
L 836.712892 213.942857 
L 830.000501 256.628571 
L 814.475786 299.314286 
L 792.932214 342 
L 786.816 351.719791 
L 764.913096 384.685714 
L 734.170308 427.371429 
L 715.392 452.797483 
L 701.055072 470.057143 
L 666.426738 512.742857 
L 643.968 542.775316 
L 632.47402 555.428571 
L 592.559394 598.114286 
L 572.544 621.5916 
L 554.984463 640.8 
L 571.388077 640.8 
L 572.544 639.535535 
L 607.857349 598.114286 
L 643.968 560.538089 
L 647.875197 555.428571 
L 680.361832 512.742857 
L 715.392 471.932222 
L 716.856223 470.057143 
L 748.581883 427.371429 
L 781.345006 384.685714 
L 786.816 376.451355 
L 808.494641 342 
L 832.412554 299.314286 
L 850.526928 256.628571 
L 858.24 222.259277 
L 858.24 213.942857 
L 858.24 204.716613 
L 849.76826 171.257143 
L 817.204142 128.571429 
L 786.816 105.176624 
L 750.605201 85.885714 
L 715.392 72.595362 
L 643.968 55.013599 
L 572.544 47.56985 
L 501.12 54.936227 
L 429.696 76.035926 
L 413.457058 85.885714 
L 358.272 126.60303 
L 355.959371 128.571429 
L 310.419818 171.257143 
L 286.848 195.478525 
L 273.776286 213.942857 
L 249.350631 256.628571 
L 229.607648 299.314286 
L 215.424 339.815594 
L 214.989353 342 
L 209.205542 384.685714 
L 204.782731 427.371429 
L 202.075649 470.057143 
L 201.655024 512.742857 
L 203.289164 555.428571 
L 206.496003 598.114286 
L 209.052605 640.8 
L 215.39565 640.8 
z
" clip-path="url(#p81ebf809b9)" style="fill: #fa9e3b"/>
    <path d="M 215.424 640.8 
L 227.709365 640.8 
L 224.205228 598.114286 
L 221.241097 555.428571 
L 218.936345 512.742857 
L 219.83644 470.057143 
L 225.265667 427.371429 
L 233.44515 384.685714 
L 244.791338 342 
L 261.318236 299.314286 
L 282.311151 256.628571 
L 286.848 248.898559 
L 317.169411 213.942857 
L 358.01278 171.257143 
L 358.272 171.013909 
L 406.578877 128.571429 
L 429.696 111.731501 
L 501.12 86.05939 
L 502.343832 85.885714 
L 572.544 77.652656 
L 643.968 83.589635 
L 653.385112 85.885714 
L 715.392 105.967168 
L 757.580012 128.571429 
L 786.816 156.19056 
L 798.384164 171.257143 
L 813.032679 213.942857 
L 809.474074 256.628571 
L 796.539019 299.314286 
L 786.816 319.451373 
L 775.235635 342 
L 748.481186 384.685714 
L 719.758734 427.371429 
L 715.392 433.284038 
L 684.846013 470.057143 
L 652.491643 512.742857 
L 643.968 524.140914 
L 615.546877 555.428571 
L 577.261438 598.114286 
L 572.544 603.647666 
L 538.580849 640.8 
L 554.984463 640.8 
L 572.544 621.5916 
L 592.559394 598.114286 
L 632.47402 555.428571 
L 643.968 542.775316 
L 666.426738 512.742857 
L 701.055072 470.057143 
L 715.392 452.797483 
L 734.170308 427.371429 
L 764.913096 384.685714 
L 786.816 351.719791 
L 792.932214 342 
L 814.475786 299.314286 
L 830.000501 256.628571 
L 836.712892 213.942857 
L 824.076212 171.257143 
L 791.333232 128.571429 
L 786.816 125.093764 
L 715.392 86.988835 
L 711.985817 85.885714 
L 643.968 69.301617 
L 572.544 62.611253 
L 501.12 70.485157 
L 450.09867 85.885714 
L 429.696 93.218246 
L 381.164682 128.571429 
L 358.272 148.684967 
L 334.216299 171.257143 
L 292.812548 213.942857 
L 286.848 220.819021 
L 265.830891 256.628571 
L 245.462942 299.314286 
L 229.744685 342 
L 219.521956 384.685714 
L 215.424 407.603524 
L 213.269453 427.371429 
L 210.138421 470.057143 
L 209.671273 512.742857 
L 211.336005 555.428571 
L 213.677222 598.114286 
L 215.39565 640.8 
z
" clip-path="url(#p81ebf809b9)" style="fill: #fca636"/>
    <path d="M 235.808982 598.114286 
L 233.065061 555.428571 
L 231.375295 512.742857 
L 232.646676 470.057143 
L 238.455998 427.371429 
L 247.368345 384.685714 
L 259.837991 342 
L 277.17353 299.314286 
L 286.848 279.802715 
L 304.696319 256.628571 
L 341.526273 213.942857 
L 358.272 196.439156 
L 383.224713 171.257143 
L 429.696 130.567921 
L 434.222631 128.571429 
L 501.12 104.259814 
L 572.544 94.131573 
L 643.968 101.031038 
L 715.392 124.9455 
L 722.159339 128.571429 
L 769.043549 171.257143 
L 786.816 206.982059 
L 789.352465 213.942857 
L 788.947646 256.628571 
L 786.816 264.519361 
L 776.542343 299.314286 
L 756.15724 342 
L 732.049276 384.685714 
L 715.392 409.979932 
L 701.94911 427.371429 
L 668.636954 470.057143 
L 643.968 504.065355 
L 636.498982 512.742857 
L 598.619735 555.428571 
L 572.544 584.887853 
L 558.038524 598.114286 
L 522.177234 640.8 
L 538.580849 640.8 
L 572.544 603.647666 
L 577.261438 598.114286 
L 615.546877 555.428571 
L 643.968 524.140914 
L 652.491643 512.742857 
L 684.846013 470.057143 
L 715.392 433.284038 
L 719.758734 427.371429 
L 748.481186 384.685714 
L 775.235635 342 
L 786.816 319.451373 
L 796.539019 299.314286 
L 809.474074 256.628571 
L 813.032679 213.942857 
L 798.384164 171.257143 
L 786.816 156.19056 
L 757.580012 128.571429 
L 715.392 105.967168 
L 653.385112 85.885714 
L 643.968 83.589635 
L 572.544 77.652656 
L 502.343832 85.885714 
L 501.12 86.05939 
L 429.696 111.731501 
L 406.578877 128.571429 
L 358.272 171.013909 
L 358.01278 171.257143 
L 317.169411 213.942857 
L 286.848 248.898559 
L 282.311151 256.628571 
L 261.318236 299.314286 
L 244.791338 342 
L 233.44515 384.685714 
L 225.265667 427.371429 
L 219.83644 470.057143 
L 218.936345 512.742857 
L 221.241097 555.428571 
L 224.205228 598.114286 
L 227.709365 640.8 
L 240.049887 640.8 
z
" clip-path="url(#p81ebf809b9)" style="fill: #fdaf31"/>
    <path d="M 247.412737 598.114286 
L 244.889025 555.428571 
L 243.814246 512.742857 
L 245.456913 470.057143 
L 251.646329 427.371429 
L 261.29154 384.685714 
L 274.884644 342 
L 286.848 313.357573 
L 296.770411 299.314286 
L 329.324536 256.628571 
L 358.272 222.907809 
L 366.952119 213.942857 
L 408.452234 171.257143 
L 429.696 152.656576 
L 484.304063 128.571429 
L 501.12 122.460238 
L 572.544 112.348819 
L 643.968 119.076216 
L 672.116972 128.571429 
L 715.392 152.085551 
L 736.714575 171.257143 
L 759.890432 213.942857 
L 763.560181 256.628571 
L 754.107252 299.314286 
L 737.078845 342 
L 715.617367 384.685714 
L 715.392 385.027936 
L 682.662274 427.371429 
L 652.427894 470.057143 
L 643.968 481.719813 
L 617.265423 512.742857 
L 581.692593 555.428571 
L 572.544 565.764272 
L 537.065625 598.114286 
L 505.77362 640.8 
L 522.177234 640.8 
L 558.038524 598.114286 
L 572.544 584.887853 
L 598.619735 555.428571 
L 636.498982 512.742857 
L 643.968 504.065355 
L 668.636954 470.057143 
L 701.94911 427.371429 
L 715.392 409.979932 
L 732.049276 384.685714 
L 756.15724 342 
L 776.542343 299.314286 
L 786.816 264.519361 
L 788.947646 256.628571 
L 789.352465 213.942857 
L 786.816 206.982059 
L 769.043549 171.257143 
L 722.159339 128.571429 
L 715.392 124.9455 
L 643.968 101.031038 
L 572.544 94.131573 
L 501.12 104.259814 
L 434.222631 128.571429 
L 429.696 130.567921 
L 383.224713 171.257143 
L 358.272 196.439156 
L 341.526273 213.942857 
L 304.696319 256.628571 
L 286.848 279.802715 
L 277.17353 299.314286 
L 259.837991 342 
L 247.368345 384.685714 
L 238.455998 427.371429 
L 232.646676 470.057143 
L 231.375295 512.742857 
L 233.065061 555.428571 
L 235.808982 598.114286 
L 240.049887 640.8 
L 252.390409 640.8 
z
" clip-path="url(#p81ebf809b9)" style="fill: #feb82c"/>
    <path d="M 259.016492 598.114286 
L 256.712988 555.428571 
L 256.253196 512.742857 
L 258.267149 470.057143 
L 264.836659 427.371429 
L 275.214734 384.685714 
L 286.848 350.406941 
L 292.436807 342 
L 322.223771 299.314286 
L 353.952754 256.628571 
L 358.272 251.597102 
L 394.729901 213.942857 
L 429.696 176.01515 
L 437.42207 171.257143 
L 501.12 142.992026 
L 572.544 131.103785 
L 643.968 140.245354 
L 700.185982 171.257143 
L 715.392 189.064744 
L 729.734796 213.942857 
L 737.609402 256.628571 
L 731.672162 299.314286 
L 718.00045 342 
L 715.392 347.196855 
L 692.315725 384.685714 
L 663.375438 427.371429 
L 643.968 456.30883 
L 632.760886 470.057143 
L 598.031865 512.742857 
L 572.544 544.437745 
L 558.882412 555.428571 
L 516.092726 598.114286 
L 501.12 619.421373 
L 483.942997 640.8 
L 501.12 640.8 
L 505.77362 640.8 
L 537.065625 598.114286 
L 572.544 565.764272 
L 581.692593 555.428571 
L 617.265423 512.742857 
L 643.968 481.719813 
L 652.427894 470.057143 
L 682.662274 427.371429 
L 715.392 385.027936 
L 715.617367 384.685714 
L 737.078845 342 
L 754.107252 299.314286 
L 763.560181 256.628571 
L 759.890432 213.942857 
L 736.714575 171.257143 
L 715.392 152.085551 
L 672.116972 128.571429 
L 643.968 119.076216 
L 572.544 112.348819 
L 501.12 122.460238 
L 484.304063 128.571429 
L 429.696 152.656576 
L 408.452234 171.257143 
L 366.952119 213.942857 
L 358.272 222.907809 
L 329.324536 256.628571 
L 296.770411 299.314286 
L 286.848 313.357573 
L 274.884644 342 
L 261.29154 384.685714 
L 251.646329 427.371429 
L 245.456913 470.057143 
L 243.814246 512.742857 
L 244.889025 555.428571 
L 247.412737 598.114286 
L 252.390409 640.8 
L 264.73093 640.8 
z
" clip-path="url(#p81ebf809b9)" style="fill: #fdc229"/>
    <path d="M 270.620246 598.114286 
L 268.536952 555.428571 
L 268.692147 512.742857 
L 271.077386 470.057143 
L 278.02699 427.371429 
L 286.848 393.111446 
L 291.907797 384.685714 
L 319.710483 342 
L 347.677131 299.314286 
L 358.272 284.995464 
L 385.07769 256.628571 
L 422.507682 213.942857 
L 429.696 206.145693 
L 486.34816 171.257143 
L 501.12 164.702334 
L 572.544 154.232085 
L 643.968 164.883825 
L 655.521511 171.257143 
L 694.586599 213.942857 
L 709.922885 256.628571 
L 706.437364 299.314286 
L 691.178283 342 
L 668.918554 384.685714 
L 644.088602 427.371429 
L 643.968 427.551251 
L 609.318777 470.057143 
L 578.798306 512.742857 
L 572.544 520.520265 
L 529.153007 555.428571 
L 501.12 588.177973 
L 492.23813 598.114286 
L 459.962991 640.8 
L 483.942997 640.8 
L 501.12 619.421373 
L 516.092726 598.114286 
L 558.882412 555.428571 
L 572.544 544.437745 
L 598.031865 512.742857 
L 632.760886 470.057143 
L 643.968 456.30883 
L 663.375438 427.371429 
L 692.315725 384.685714 
L 715.392 347.196855 
L 718.00045 342 
L 731.672162 299.314286 
L 737.609402 256.628571 
L 729.734796 213.942857 
L 715.392 189.064744 
L 700.185982 171.257143 
L 643.968 140.245354 
L 572.544 131.103785 
L 501.12 142.992026 
L 437.42207 171.257143 
L 429.696 176.01515 
L 394.729901 213.942857 
L 358.272 251.597102 
L 353.952754 256.628571 
L 322.223771 299.314286 
L 292.436807 342 
L 286.848 350.406941 
L 275.214734 384.685714 
L 264.836659 427.371429 
L 258.267149 470.057143 
L 256.253196 512.742857 
L 256.712988 555.428571 
L 259.016492 598.114286 
L 264.73093 640.8 
L 277.071452 640.8 
z
" clip-path="url(#p81ebf809b9)" style="fill: #fdcb26"/>
    <path d="M 286.848 640.8 
L 295.772623 640.8 
L 286.848 626.171376 
L 282.224001 598.114286 
L 280.360916 555.428571 
L 281.131097 512.742857 
L 283.887622 470.057143 
L 286.848 452.515571 
L 298.608088 427.371429 
L 322.672308 384.685714 
L 346.98416 342 
L 358.272 324.291505 
L 381.023179 299.314286 
L 417.584327 256.628571 
L 429.696 242.3494 
L 463.845274 213.942857 
L 501.12 191.028377 
L 572.544 179.853666 
L 643.968 202.369013 
L 654.909977 213.942857 
L 671.906947 256.628571 
L 673.797172 299.314286 
L 663.129686 342 
L 645.521383 384.685714 
L 643.968 387.358936 
L 614.946821 427.371429 
L 585.876668 470.057143 
L 572.544 489.57949 
L 542.487034 512.742857 
L 501.12 552.957814 
L 498.603292 555.428571 
L 461.192602 598.114286 
L 435.982984 640.8 
L 459.962991 640.8 
L 492.23813 598.114286 
L 501.12 588.177973 
L 529.153007 555.428571 
L 572.544 520.520265 
L 578.798306 512.742857 
L 609.318777 470.057143 
L 643.968 427.551251 
L 644.088602 427.371429 
L 668.918554 384.685714 
L 691.178283 342 
L 706.437364 299.314286 
L 709.922885 256.628571 
L 694.586599 213.942857 
L 655.521511 171.257143 
L 643.968 164.883825 
L 572.544 154.232085 
L 501.12 164.702334 
L 486.34816 171.257143 
L 429.696 206.145693 
L 422.507682 213.942857 
L 385.07769 256.628571 
L 358.272 284.995464 
L 347.677131 299.314286 
L 319.710483 342 
L 291.907797 384.685714 
L 286.848 393.111446 
L 278.02699 427.371429 
L 271.077386 470.057143 
L 268.692147 512.742857 
L 268.536952 555.428571 
L 270.620246 598.114286 
L 277.071452 640.8 
z
" clip-path="url(#p81ebf809b9)" style="fill: #fbd524"/>
    <path d="M 286.848 626.171376 
L 295.772623 640.8 
L 338.727237 640.8 
L 321.113522 598.114286 
L 313.016676 555.428571 
L 311.958749 512.742857 
L 318.399922 470.057143 
L 334.110046 427.371429 
L 353.436818 384.685714 
L 358.272 375.65994 
L 387.078242 342 
L 419.997118 299.314286 
L 429.696 287.19172 
L 459.684176 256.628571 
L 501.12 221.647527 
L 558.573005 213.942857 
L 572.544 212.430276 
L 576.847266 213.942857 
L 626.38162 256.628571 
L 638.467953 299.314286 
L 628.484198 342 
L 608.884516 384.685714 
L 585.74303 427.371429 
L 572.544 449.21478 
L 543.661296 470.057143 
L 501.12 508.43772 
L 495.747459 512.742857 
L 454.497966 555.428571 
L 430.147074 598.114286 
L 429.696 598.938631 
L 385.516881 640.8 
L 429.696 640.8 
L 435.982984 640.8 
L 461.192602 598.114286 
L 498.603292 555.428571 
L 501.12 552.957814 
L 542.487034 512.742857 
L 572.544 489.57949 
L 585.876668 470.057143 
L 614.946821 427.371429 
L 643.968 387.358936 
L 645.521383 384.685714 
L 663.129686 342 
L 673.797172 299.314286 
L 671.906947 256.628571 
L 654.909977 213.942857 
L 643.968 202.369013 
L 572.544 179.853666 
L 501.12 191.028377 
L 463.845274 213.942857 
L 429.696 242.3494 
L 417.584327 256.628571 
L 381.023179 299.314286 
L 358.272 324.291505 
L 346.98416 342 
L 322.672308 384.685714 
L 298.608088 427.371429 
L 286.848 452.515571 
L 283.887622 470.057143 
L 281.131097 512.742857 
L 280.360916 555.428571 
L 282.224001 598.114286 
z
" clip-path="url(#p81ebf809b9)" style="fill: #f8df25"/>
    <path d="M 358.272 640.8 
L 385.516881 640.8 
L 429.696 598.938631 
L 430.147074 598.114286 
L 454.497966 555.428571 
L 495.747459 512.742857 
L 501.12 508.43772 
L 543.661296 470.057143 
L 572.544 449.21478 
L 585.74303 427.371429 
L 608.884516 384.685714 
L 628.484198 342 
L 638.467953 299.314286 
L 626.38162 256.628571 
L 576.847266 213.942857 
L 572.544 212.430276 
L 558.573005 213.942857 
L 501.12 221.647527 
L 459.684176 256.628571 
L 429.696 287.19172 
L 419.997118 299.314286 
L 387.078242 342 
L 358.272 375.65994 
L 353.436818 384.685714 
L 334.110046 427.371429 
L 318.399922 470.057143 
L 311.958749 512.742857 
L 313.016676 555.428571 
L 321.113522 598.114286 
L 338.727237 640.8 
z
M 412.815478 427.371429 
L 420.923213 384.685714 
L 429.696 364.604451 
L 440.746723 342 
L 472.647365 299.314286 
L 501.12 265.631126 
L 572.544 293.077755 
L 574.604071 299.314286 
L 579.614697 342 
L 572.544 376.769607 
L 568.092856 384.685714 
L 515.435861 427.371429 
L 501.12 439.048713 
L 429.696 457.321192 
z
" clip-path="url(#p81ebf809b9)" style="fill: #f5e926"/>
    <path d="M 429.696 457.321192 
L 501.12 439.048713 
L 515.435861 427.371429 
L 568.092856 384.685714 
L 572.544 376.769607 
L 579.614697 342 
L 574.604071 299.314286 
L 572.544 293.077755 
L 501.12 265.631126 
L 472.647365 299.314286 
L 440.746723 342 
L 429.696 364.604451 
L 420.923213 384.685714 
L 412.815478 427.371429 
z
" clip-path="url(#p81ebf809b9)" style="fill: #f1f426"/>
   </g>
   <g id="matplotlib.axis_1">
    <g id="xtick_1">
     <g id="line2d_1">
      <defs>
       <path id="m7423b9024c" d="M 0 0 
L 0 3.5 
" style="stroke: #000000; stroke-width: 0.8"/>
      </defs>
      <g>
       <use xlink:href="#m7423b9024c" x="144" y="640.8" style="stroke: #000000; stroke-width: 0.8"/>
      </g>
     </g>
     <g id="text_1">
      <!-- $\mathdefault{5}$ -->
      <g transform="translate(139.887857 661.7533) scale(0.18 -0.18)">
       <defs>
        <path id="CMR17-35" d="M 730 3692 
C 794 3666 1056 3584 1325 3584 
C 1920 3584 2246 3911 2432 4100 
C 2432 4157 2432 4192 2394 4192 
C 2387 4192 2374 4192 2323 4163 
C 2099 4058 1837 3973 1517 3973 
C 1325 3973 1037 3999 723 4139 
C 653 4171 640 4171 634 4171 
C 602 4171 595 4164 595 4037 
L 595 2203 
C 595 2089 595 2057 659 2057 
C 691 2057 704 2070 736 2114 
C 941 2401 1222 2522 1542 2522 
C 1766 2522 2246 2382 2246 1289 
C 2246 1085 2246 715 2054 421 
C 1894 159 1645 25 1370 25 
C 947 25 518 320 403 814 
C 429 807 480 795 506 795 
C 589 795 749 840 749 1038 
C 749 1210 627 1280 506 1280 
C 358 1280 262 1190 262 1011 
C 262 454 704 -128 1382 -128 
C 2042 -128 2669 440 2669 1264 
C 2669 2030 2170 2624 1549 2624 
C 1222 2624 947 2503 730 2274 
L 730 3692 
z
" transform="scale(0.015625)"/>
       </defs>
       <use xlink:href="#CMR17-35" transform="scale(0.996264)"/>
      </g>
     </g>
    </g>
    <g id="xtick_2">
     <g id="line2d_2">
      <g>
       <use xlink:href="#m7423b9024c" x="286.848" y="640.8" style="stroke: #000000; stroke-width: 0.8"/>
      </g>
     </g>
     <g id="text_2">
      <!-- $\mathdefault{6}$ -->
      <g transform="translate(282.735857 661.7533) scale(0.18 -0.18)">
       <defs>
        <path id="CMR17-36" d="M 678 2176 
C 678 3690 1395 4032 1811 4032 
C 1946 4032 2272 4009 2400 3776 
C 2298 3776 2106 3776 2106 3553 
C 2106 3381 2246 3323 2336 3323 
C 2394 3323 2566 3348 2566 3560 
C 2566 3954 2246 4179 1805 4179 
C 1043 4179 243 3390 243 1984 
C 243 253 966 -128 1478 -128 
C 2099 -128 2688 427 2688 1283 
C 2688 2081 2170 2662 1517 2662 
C 1126 2662 838 2407 678 1960 
L 678 2176 
z
M 1478 25 
C 691 25 691 1200 691 1436 
C 691 1896 909 2560 1504 2560 
C 1613 2560 1926 2560 2138 2120 
C 2253 1870 2253 1609 2253 1289 
C 2253 944 2253 690 2118 434 
C 1978 171 1773 25 1478 25 
z
" transform="scale(0.015625)"/>
       </defs>
       <use xlink:href="#CMR17-36" transform="scale(0.996264)"/>
      </g>
     </g>
    </g>
    <g id="xtick_3">
     <g id="line2d_3">
      <g>
       <use xlink:href="#m7423b9024c" x="429.696" y="640.8" style="stroke: #000000; stroke-width: 0.8"/>
      </g>
     </g>
     <g id="text_3">
      <!-- $\mathdefault{7}$ -->
      <g transform="translate(425.583857 661.7533) scale(0.18 -0.18)">
       <defs>
        <path id="CMR17-37" d="M 2886 3941 
L 2886 4081 
L 1382 4081 
C 634 4081 621 4165 595 4288 
L 480 4288 
L 294 3094 
L 410 3094 
C 429 3215 474 3540 550 3661 
C 589 3712 1062 3712 1171 3712 
L 2579 3712 
L 1869 2661 
C 1395 1954 1069 999 1069 165 
C 1069 89 1069 -128 1299 -128 
C 1530 -128 1530 89 1530 171 
L 1530 465 
C 1530 1508 1709 2196 2003 2636 
L 2886 3941 
z
" transform="scale(0.015625)"/>
       </defs>
       <use xlink:href="#CMR17-37" transform="scale(0.996264)"/>
      </g>
     </g>
    </g>
    <g id="xtick_4">
     <g id="line2d_4">
      <g>
       <use xlink:href="#m7423b9024c" x="572.544" y="640.8" style="stroke: #000000; stroke-width: 0.8"/>
      </g>
     </g>
     <g id="text_4">
      <!-- $\mathdefault{8}$ -->
      <g transform="translate(568.431857 661.7533) scale(0.18 -0.18)">
       <defs>
        <path id="CMR17-38" d="M 1741 2264 
C 2144 2467 2554 2773 2554 3263 
C 2554 3841 1990 4179 1472 4179 
C 890 4179 378 3759 378 3180 
C 378 3021 416 2747 666 2505 
C 730 2442 998 2251 1171 2130 
C 883 1983 211 1634 211 934 
C 211 279 838 -128 1459 -128 
C 2144 -128 2720 362 2720 1010 
C 2720 1590 2330 1857 2074 2029 
L 1741 2264 
z
M 902 2822 
C 851 2854 595 3051 595 3351 
C 595 3739 998 4032 1459 4032 
C 1965 4032 2336 3676 2336 3262 
C 2336 2669 1670 2331 1638 2331 
C 1632 2331 1626 2331 1574 2370 
L 902 2822 
z
M 2080 1519 
C 2176 1449 2483 1240 2483 851 
C 2483 381 2010 25 1472 25 
C 890 25 448 438 448 940 
C 448 1443 838 1862 1280 2060 
L 2080 1519 
z
" transform="scale(0.015625)"/>
       </defs>
       <use xlink:href="#CMR17-38" transform="scale(0.996264)"/>
      </g>
     </g>
    </g>
    <g id="xtick_5">
     <g id="line2d_5">
      <g>
       <use xlink:href="#m7423b9024c" x="715.392" y="640.8" style="stroke: #000000; stroke-width: 0.8"/>
      </g>
     </g>
     <g id="text_5">
      <!-- $\mathdefault{9}$ -->
      <g transform="translate(711.279857 661.7533) scale(0.18 -0.18)">
       <defs>
        <path id="CMR17-39" d="M 2253 1864 
C 2253 464 1670 31 1190 31 
C 1043 31 685 31 538 294 
C 704 268 826 357 826 518 
C 826 692 685 749 595 749 
C 538 749 365 723 365 506 
C 365 71 742 -128 1203 -128 
C 1939 -128 2688 674 2688 2073 
C 2688 3817 1971 4179 1485 4179 
C 851 4179 243 3628 243 2778 
C 243 1991 762 1408 1414 1408 
C 1952 1408 2189 1903 2253 2112 
L 2253 1864 
z
M 1427 1510 
C 1254 1510 1011 1542 813 1922 
C 678 2169 678 2461 678 2771 
C 678 3146 678 3405 858 3684 
C 947 3817 1114 4032 1485 4032 
C 2240 4032 2240 2885 2240 2632 
C 2240 2182 2035 1510 1427 1510 
z
" transform="scale(0.015625)"/>
       </defs>
       <use xlink:href="#CMR17-39" transform="scale(0.996264)"/>
      </g>
     </g>
    </g>
    <g id="xtick_6">
     <g id="line2d_6">
      <g>
       <use xlink:href="#m7423b9024c" x="858.24" y="640.8" style="stroke: #000000; stroke-width: 0.8"/>
      </g>
     </g>
     <g id="text_6">
      <!-- $\mathdefault{10}$ -->
      <g transform="translate(850.015714 661.7533) scale(0.18 -0.18)">
       <defs>
        <path id="CMR17-31" d="M 1702 4058 
C 1702 4192 1696 4192 1606 4192 
C 1357 3916 979 3827 621 3827 
C 602 3827 570 3827 563 3808 
C 557 3795 557 3782 557 3648 
C 755 3648 1088 3686 1344 3839 
L 1344 461 
C 1344 236 1331 160 781 160 
L 589 160 
L 589 0 
C 896 0 1216 0 1523 0 
C 1830 0 2150 0 2458 0 
L 2458 160 
L 2266 160 
C 1715 160 1702 230 1702 458 
L 1702 4058 
z
" transform="scale(0.015625)"/>
        <path id="CMR17-30" d="M 2688 2025 
C 2688 2416 2682 3080 2413 3591 
C 2176 4039 1798 4198 1466 4198 
C 1158 4198 768 4058 525 3597 
C 269 3118 243 2524 243 2025 
C 243 1661 250 1106 448 619 
C 723 -39 1216 -128 1466 -128 
C 1760 -128 2208 -7 2470 600 
C 2662 1042 2688 1559 2688 2025 
z
M 1466 -26 
C 1056 -26 813 325 723 812 
C 653 1188 653 1738 653 2096 
C 653 2588 653 2997 736 3387 
C 858 3929 1216 4096 1466 4096 
C 1728 4096 2067 3923 2189 3400 
C 2272 3036 2278 2607 2278 2096 
C 2278 1680 2278 1169 2202 792 
C 2067 95 1690 -26 1466 -26 
z
" transform="scale(0.015625)"/>
       </defs>
       <use xlink:href="#CMR17-31" transform="scale(0.996264)"/>
       <use xlink:href="#CMR17-30" transform="translate(45.690477 0) scale(0.996264)"/>
      </g>
     </g>
    </g>
    <g id="text_7">
     <!-- $\lambda$ -->
     <g transform="translate(495.429593 699.078361) scale(0.2 -0.2)">
      <defs>
       <path id="CMMI12-15" d="M 1978 3965 
C 1818 4416 1312 4416 1229 4416 
C 1190 4416 1120 4416 1120 4352 
C 1120 4302 1158 4295 1190 4289 
C 1286 4276 1363 4263 1466 4080 
C 1530 3959 2189 2059 2189 2046 
C 2189 2040 2182 2033 2131 1982 
L 467 311 
C 390 234 339 183 339 102 
C 339 12 416 -64 518 -64 
C 544 -64 614 -51 653 -13 
C 755 82 1670 1194 2253 1881 
C 2419 1383 2624 797 2822 261 
C 2854 166 2886 76 2976 -6 
C 3040 -64 3053 -64 3232 -64 
L 3354 -64 
C 3379 -64 3424 -64 3424 -13 
C 3424 13 3418 19 3392 45 
C 3334 115 3290 229 3264 306 
L 1978 3965 
z
" transform="scale(0.015625)"/>
      </defs>
      <use xlink:href="#CMMI12-15" transform="scale(0.996264)"/>
     </g>
    </g>
   </g>
   <g id="matplotlib.axis_2">
    <g id="ytick_1">
     <g id="line2d_7">
      <defs>
       <path id="m17c3fd853f" d="M 0 0 
L -3.5 0 
" style="stroke: #000000; stroke-width: 0.8"/>
      </defs>
      <g>
       <use xlink:href="#m17c3fd853f" x="144" y="640.8" style="stroke: #000000; stroke-width: 0.8"/>
      </g>
     </g>
     <g id="text_8">
      <!-- $\mathdefault{−3}$ -->
      <g transform="translate(113.327972 647.02665) scale(0.18 -0.18)">
       <defs>
        <path id="CMSY10-0" d="M 4218 1472 
C 4326 1472 4442 1472 4442 1600 
C 4442 1728 4326 1728 4218 1728 
L 755 1728 
C 646 1728 531 1728 531 1600 
C 531 1472 646 1472 755 1472 
L 4218 1472 
z
" transform="scale(0.015625)"/>
        <path id="CMR17-33" d="M 1414 2157 
C 1984 2157 2234 1662 2234 1090 
C 2234 320 1824 25 1453 25 
C 1114 25 563 194 390 693 
C 422 680 454 680 486 680 
C 640 680 755 782 755 948 
C 755 1133 614 1216 486 1216 
C 378 1216 211 1165 211 926 
C 211 335 787 -128 1466 -128 
C 2176 -128 2720 430 2720 1085 
C 2720 1707 2208 2157 1600 2227 
C 2086 2328 2554 2756 2554 3329 
C 2554 3820 2048 4179 1472 4179 
C 890 4179 378 3829 378 3329 
C 378 3110 544 3072 627 3072 
C 762 3072 877 3155 877 3321 
C 877 3486 762 3569 627 3569 
C 602 3569 570 3569 544 3557 
C 730 3959 1235 4032 1459 4032 
C 1683 4032 2106 3925 2106 3320 
C 2106 3143 2080 2828 1862 2550 
C 1670 2304 1453 2304 1242 2284 
C 1210 2284 1062 2269 1037 2269 
C 992 2263 966 2257 966 2208 
C 966 2163 973 2157 1101 2157 
L 1414 2157 
z
" transform="scale(0.015625)"/>
       </defs>
       <use xlink:href="#CMSY10-0" transform="scale(0.996264)"/>
       <use xlink:href="#CMR17-33" transform="translate(77.487468 0) scale(0.996264)"/>
      </g>
     </g>
    </g>
    <g id="ytick_2">
     <g id="line2d_8">
      <g>
       <use xlink:href="#m17c3fd853f" x="144" y="555.428571" style="stroke: #000000; stroke-width: 0.8"/>
      </g>
     </g>
     <g id="text_9">
      <!-- $\mathdefault{−2}$ -->
      <g transform="translate(113.327972 561.655221) scale(0.18 -0.18)">
       <defs>
        <path id="CMR17-32" d="M 2669 989 
L 2554 989 
C 2490 536 2438 459 2413 420 
C 2381 369 1920 369 1830 369 
L 602 369 
C 832 619 1280 1072 1824 1597 
C 2214 1967 2669 2402 2669 3035 
C 2669 3790 2067 4224 1395 4224 
C 691 4224 262 3604 262 3030 
C 262 2780 448 2748 525 2748 
C 589 2748 781 2787 781 3010 
C 781 3207 614 3264 525 3264 
C 486 3264 448 3258 422 3245 
C 544 3790 915 4058 1306 4058 
C 1862 4058 2227 3617 2227 3035 
C 2227 2479 1901 2000 1536 1584 
L 262 146 
L 262 0 
L 2515 0 
L 2669 989 
z
" transform="scale(0.015625)"/>
       </defs>
       <use xlink:href="#CMSY10-0" transform="scale(0.996264)"/>
       <use xlink:href="#CMR17-32" transform="translate(77.487468 0) scale(0.996264)"/>
      </g>
     </g>
    </g>
    <g id="ytick_3">
     <g id="line2d_9">
      <g>
       <use xlink:href="#m17c3fd853f" x="144" y="470.057143" style="stroke: #000000; stroke-width: 0.8"/>
      </g>
     </g>
     <g id="text_10">
      <!-- $\mathdefault{−1}$ -->
      <g transform="translate(113.327972 476.283793) scale(0.18 -0.18)">
       <use xlink:href="#CMSY10-0" transform="scale(0.996264)"/>
       <use xlink:href="#CMR17-31" transform="translate(77.487468 0) scale(0.996264)"/>
      </g>
     </g>
    </g>
    <g id="ytick_4">
     <g id="line2d_10">
      <g>
       <use xlink:href="#m17c3fd853f" x="144" y="384.685714" style="stroke: #000000; stroke-width: 0.8"/>
      </g>
     </g>
     <g id="text_11">
      <!-- $\mathdefault{0}$ -->
      <g transform="translate(127.275714 390.912364) scale(0.18 -0.18)">
       <use xlink:href="#CMR17-30" transform="scale(0.996264)"/>
      </g>
     </g>
    </g>
    <g id="ytick_5">
     <g id="line2d_11">
      <g>
       <use xlink:href="#m17c3fd853f" x="144" y="299.314286" style="stroke: #000000; stroke-width: 0.8"/>
      </g>
     </g>
     <g id="text_12">
      <!-- $\mathdefault{1}$ -->
      <g transform="translate(127.275714 305.540936) scale(0.18 -0.18)">
       <use xlink:href="#CMR17-31" transform="scale(0.996264)"/>
      </g>
     </g>
    </g>
    <g id="ytick_6">
     <g id="line2d_12">
      <g>
       <use xlink:href="#m17c3fd853f" x="144" y="213.942857" style="stroke: #000000; stroke-width: 0.8"/>
      </g>
     </g>
     <g id="text_13">
      <!-- $\mathdefault{2}$ -->
      <g transform="translate(127.275714 220.169507) scale(0.18 -0.18)">
       <use xlink:href="#CMR17-32" transform="scale(0.996264)"/>
      </g>
     </g>
    </g>
    <g id="ytick_7">
     <g id="line2d_13">
      <g>
       <use xlink:href="#m17c3fd853f" x="144" y="128.571429" style="stroke: #000000; stroke-width: 0.8"/>
      </g>
     </g>
     <g id="text_14">
      <!-- $\mathdefault{3}$ -->
      <g transform="translate(127.275714 134.798079) scale(0.18 -0.18)">
       <use xlink:href="#CMR17-33" transform="scale(0.996264)"/>
      </g>
     </g>
    </g>
    <g id="ytick_8">
     <g id="line2d_14">
      <g>
       <use xlink:href="#m17c3fd853f" x="144" y="43.2" style="stroke: #000000; stroke-width: 0.8"/>
      </g>
     </g>
     <g id="text_15">
      <!-- $\mathdefault{4}$ -->
      <g transform="translate(127.275714 49.42665) scale(0.18 -0.18)">
       <defs>
        <path id="CMR17-34" d="M 2150 4122 
C 2150 4256 2144 4256 2029 4256 
L 128 1254 
L 128 1088 
L 1779 1088 
L 1779 457 
C 1779 224 1766 160 1318 160 
L 1197 160 
L 1197 0 
C 1402 0 1747 0 1965 0 
C 2182 0 2528 0 2733 0 
L 2733 160 
L 2611 160 
C 2163 160 2150 224 2150 457 
L 2150 1088 
L 2803 1088 
L 2803 1254 
L 2150 1254 
L 2150 4122 
z
M 1798 3703 
L 1798 1254 
L 256 1254 
L 1798 3703 
z
" transform="scale(0.015625)"/>
       </defs>
       <use xlink:href="#CMR17-34" transform="scale(0.996264)"/>
      </g>
     </g>
    </g>
    <g id="text_16">
     <!-- $\theta_p$ -->
     <g transform="translate(87.627167 349.97313) rotate(-90) scale(0.2 -0.2)">
      <defs>
       <path id="CMMI12-12" d="M 2835 3200 
C 2835 3850 2630 4480 2106 4480 
C 1210 4480 256 2615 256 1216 
C 256 923 320 -64 992 -64 
C 1862 -64 2835 1756 2835 3200 
z
M 896 2304 
C 992 2679 1126 3214 1382 3665 
C 1594 4047 1818 4352 2099 4352 
C 2310 4352 2451 4174 2451 3564 
C 2451 3334 2432 3017 2246 2304 
L 896 2304 
z
M 2202 2113 
C 2042 1490 1907 1088 1677 687 
C 1491 363 1267 64 998 64 
C 800 64 640 217 640 846 
C 640 1260 742 1693 845 2113 
L 2202 2113 
z
" transform="scale(0.015625)"/>
       <path id="CMMI12-70" d="M 275 -789 
C 230 -980 205 -1031 -58 -1031 
C -134 -1031 -198 -1031 -198 -1152 
C -198 -1165 -192 -1216 -122 -1216 
C -38 -1216 51 -1216 134 -1216 
L 410 -1216 
C 544 -1216 870 -1216 1005 -1216 
C 1043 -1216 1120 -1216 1120 -1101 
C 1120 -1031 1075 -1031 966 -1031 
C 672 -1031 653 -987 653 -937 
C 653 -861 941 219 979 364 
C 1050 185 1222 -64 1555 -64 
C 2278 -64 3059 875 3059 1814 
C 3059 2401 2726 2816 2246 2816 
C 1837 2816 1491 2420 1421 2331 
C 1370 2650 1120 2816 864 2816 
C 678 2816 531 2727 410 2484 
C 294 2254 205 1865 205 1839 
C 205 1814 230 1782 275 1782 
C 326 1782 333 1788 371 1935 
C 467 2312 589 2689 845 2689 
C 992 2689 1043 2587 1043 2397 
C 1043 2245 1024 2181 998 2067 
L 275 -789 
z
M 1382 1993 
C 1427 2171 1606 2357 1709 2446 
C 1779 2510 1990 2689 2234 2689 
C 2515 2689 2643 2408 2643 2076 
C 2643 1769 2464 1047 2304 715 
C 2144 370 1850 64 1555 64 
C 1120 64 1050 613 1050 639 
C 1050 658 1062 709 1069 741 
L 1382 1993 
z
" transform="scale(0.015625)"/>
      </defs>
      <use xlink:href="#CMMI12-12" transform="scale(0.996264)"/>
      <use xlink:href="#CMMI12-70" transform="translate(45.45979 -14.943915) scale(0.697382)"/>
     </g>
    </g>
   </g>
   <g id="patch_3">
    <path d="M 144 640.8 
L 144 43.2 
" style="fill: none; stroke: #000000; stroke-width: 0.8; stroke-linejoin: miter; stroke-linecap: square"/>
   </g>
   <g id="patch_4">
    <path d="M 858.24 640.8 
L 858.24 43.2 
" style="fill: none; stroke: #000000; stroke-width: 0.8; stroke-linejoin: miter; stroke-linecap: square"/>
   </g>
   <g id="patch_5">
    <path d="M 144 640.8 
L 858.24 640.8 
" style="fill: none; stroke: #000000; stroke-width: 0.8; stroke-linejoin: miter; stroke-linecap: square"/>
   </g>
   <g id="patch_6">
    <path d="M 144 43.2 
L 858.24 43.2 
" style="fill: none; stroke: #000000; stroke-width: 0.8; stroke-linejoin: miter; stroke-linecap: square"/>
   </g>
  </g>
  <g id="axes_2">
   <g id="patch_7">
    <path d="M 902.88 640.8 
L 932.76 640.8 
L 932.76 43.2 
L 902.88 43.2 
z
" style="fill: #ffffff"/>
   </g>
   <g id="QuadMesh_1">
    <path d="M 902.88 640.8 
L 932.76 640.8 
L 932.76 626.571429 
L 902.88 626.571429 
L 902.88 640.8 
" clip-path="url(#p06d8e6bb5e)" style="fill: #16078a"/>
    <path d="M 902.88 626.571429 
L 932.76 626.571429 
L 932.76 612.342857 
L 902.88 612.342857 
L 902.88 626.571429 
" clip-path="url(#p06d8e6bb5e)" style="fill: #240691"/>
    <path d="M 902.88 612.342857 
L 932.76 612.342857 
L 932.76 598.114286 
L 902.88 598.114286 
L 902.88 612.342857 
" clip-path="url(#p06d8e6bb5e)" style="fill: #2f0596"/>
    <path d="M 902.88 598.114286 
L 932.76 598.114286 
L 932.76 583.885714 
L 902.88 583.885714 
L 902.88 598.114286 
" clip-path="url(#p06d8e6bb5e)" style="fill: #3a049a"/>
    <path d="M 902.88 583.885714 
L 932.76 583.885714 
L 932.76 569.657143 
L 902.88 569.657143 
L 902.88 583.885714 
" clip-path="url(#p06d8e6bb5e)" style="fill: #44039e"/>
    <path d="M 902.88 569.657143 
L 932.76 569.657143 
L 932.76 555.428571 
L 902.88 555.428571 
L 902.88 569.657143 
" clip-path="url(#p06d8e6bb5e)" style="fill: #4e02a2"/>
    <path d="M 902.88 555.428571 
L 932.76 555.428571 
L 932.76 541.2 
L 902.88 541.2 
L 902.88 555.428571 
" clip-path="url(#p06d8e6bb5e)" style="fill: #5801a4"/>
    <path d="M 902.88 541.2 
L 932.76 541.2 
L 932.76 526.971429 
L 902.88 526.971429 
L 902.88 541.2 
" clip-path="url(#p06d8e6bb5e)" style="fill: #6100a7"/>
    <path d="M 902.88 526.971429 
L 932.76 526.971429 
L 932.76 512.742857 
L 902.88 512.742857 
L 902.88 526.971429 
" clip-path="url(#p06d8e6bb5e)" style="fill: #6a00a8"/>
    <path d="M 902.88 512.742857 
L 932.76 512.742857 
L 932.76 498.514286 
L 902.88 498.514286 
L 902.88 512.742857 
" clip-path="url(#p06d8e6bb5e)" style="fill: #7401a8"/>
    <path d="M 902.88 498.514286 
L 932.76 498.514286 
L 932.76 484.285714 
L 902.88 484.285714 
L 902.88 498.514286 
" clip-path="url(#p06d8e6bb5e)" style="fill: #7d03a8"/>
    <path d="M 902.88 484.285714 
L 932.76 484.285714 
L 932.76 470.057143 
L 902.88 470.057143 
L 902.88 484.285714 
" clip-path="url(#p06d8e6bb5e)" style="fill: #8707a6"/>
    <path d="M 902.88 470.057143 
L 932.76 470.057143 
L 932.76 455.828571 
L 902.88 455.828571 
L 902.88 470.057143 
" clip-path="url(#p06d8e6bb5e)" style="fill: #8f0da4"/>
    <path d="M 902.88 455.828571 
L 932.76 455.828571 
L 932.76 441.6 
L 902.88 441.6 
L 902.88 455.828571 
" clip-path="url(#p06d8e6bb5e)" style="fill: #9814a0"/>
    <path d="M 902.88 441.6 
L 932.76 441.6 
L 932.76 427.371429 
L 902.88 427.371429 
L 902.88 441.6 
" clip-path="url(#p06d8e6bb5e)" style="fill: #a01a9c"/>
    <path d="M 902.88 427.371429 
L 932.76 427.371429 
L 932.76 413.142857 
L 902.88 413.142857 
L 902.88 427.371429 
" clip-path="url(#p06d8e6bb5e)" style="fill: #a72197"/>
    <path d="M 902.88 413.142857 
L 932.76 413.142857 
L 932.76 398.914286 
L 902.88 398.914286 
L 902.88 413.142857 
" clip-path="url(#p06d8e6bb5e)" style="fill: #ae2892"/>
    <path d="M 902.88 398.914286 
L 932.76 398.914286 
L 932.76 384.685714 
L 902.88 384.685714 
L 902.88 398.914286 
" clip-path="url(#p06d8e6bb5e)" style="fill: #b52f8c"/>
    <path d="M 902.88 384.685714 
L 932.76 384.685714 
L 932.76 370.457143 
L 902.88 370.457143 
L 902.88 384.685714 
" clip-path="url(#p06d8e6bb5e)" style="fill: #bc3587"/>
    <path d="M 902.88 370.457143 
L 932.76 370.457143 
L 932.76 356.228571 
L 902.88 356.228571 
L 902.88 370.457143 
" clip-path="url(#p06d8e6bb5e)" style="fill: #c23c81"/>
    <path d="M 902.88 356.228571 
L 932.76 356.228571 
L 932.76 342 
L 902.88 342 
L 902.88 356.228571 
" clip-path="url(#p06d8e6bb5e)" style="fill: #c8437b"/>
    <path d="M 902.88 342 
L 932.76 342 
L 932.76 327.771429 
L 902.88 327.771429 
L 902.88 342 
" clip-path="url(#p06d8e6bb5e)" style="fill: #ce4b75"/>
    <path d="M 902.88 327.771429 
L 932.76 327.771429 
L 932.76 313.542857 
L 902.88 313.542857 
L 902.88 327.771429 
" clip-path="url(#p06d8e6bb5e)" style="fill: #d45270"/>
    <path d="M 902.88 313.542857 
L 932.76 313.542857 
L 932.76 299.314286 
L 902.88 299.314286 
L 902.88 313.542857 
" clip-path="url(#p06d8e6bb5e)" style="fill: #d9586a"/>
    <path d="M 902.88 299.314286 
L 932.76 299.314286 
L 932.76 285.085714 
L 902.88 285.085714 
L 902.88 299.314286 
" clip-path="url(#p06d8e6bb5e)" style="fill: #de5f65"/>
    <path d="M 902.88 285.085714 
L 932.76 285.085714 
L 932.76 270.857143 
L 902.88 270.857143 
L 902.88 285.085714 
" clip-path="url(#p06d8e6bb5e)" style="fill: #e26660"/>
    <path d="M 902.88 270.857143 
L 932.76 270.857143 
L 932.76 256.628571 
L 902.88 256.628571 
L 902.88 270.857143 
" clip-path="url(#p06d8e6bb5e)" style="fill: #e76e5b"/>
    <path d="M 902.88 256.628571 
L 932.76 256.628571 
L 932.76 242.4 
L 902.88 242.4 
L 902.88 256.628571 
" clip-path="url(#p06d8e6bb5e)" style="fill: #eb7556"/>
    <path d="M 902.88 242.4 
L 932.76 242.4 
L 932.76 228.171429 
L 902.88 228.171429 
L 902.88 242.4 
" clip-path="url(#p06d8e6bb5e)" style="fill: #ef7c51"/>
    <path d="M 902.88 228.171429 
L 932.76 228.171429 
L 932.76 213.942857 
L 902.88 213.942857 
L 902.88 228.171429 
" clip-path="url(#p06d8e6bb5e)" style="fill: #f2844b"/>
    <path d="M 902.88 213.942857 
L 932.76 213.942857 
L 932.76 199.714286 
L 902.88 199.714286 
L 902.88 213.942857 
" clip-path="url(#p06d8e6bb5e)" style="fill: #f58c46"/>
    <path d="M 902.88 199.714286 
L 932.76 199.714286 
L 932.76 185.485714 
L 902.88 185.485714 
L 902.88 199.714286 
" clip-path="url(#p06d8e6bb5e)" style="fill: #f89540"/>
    <path d="M 902.88 185.485714 
L 932.76 185.485714 
L 932.76 171.257143 
L 902.88 171.257143 
L 902.88 185.485714 
" clip-path="url(#p06d8e6bb5e)" style="fill: #fa9e3b"/>
    <path d="M 902.88 171.257143 
L 932.76 171.257143 
L 932.76 157.028571 
L 902.88 157.028571 
L 902.88 171.257143 
" clip-path="url(#p06d8e6bb5e)" style="fill: #fca636"/>
    <path d="M 902.88 157.028571 
L 932.76 157.028571 
L 932.76 142.8 
L 902.88 142.8 
L 902.88 157.028571 
" clip-path="url(#p06d8e6bb5e)" style="fill: #fdaf31"/>
    <path d="M 902.88 142.8 
L 932.76 142.8 
L 932.76 128.571429 
L 902.88 128.571429 
L 902.88 142.8 
" clip-path="url(#p06d8e6bb5e)" style="fill: #feb82c"/>
    <path d="M 902.88 128.571429 
L 932.76 128.571429 
L 932.76 114.342857 
L 902.88 114.342857 
L 902.88 128.571429 
" clip-path="url(#p06d8e6bb5e)" style="fill: #fdc229"/>
    <path d="M 902.88 114.342857 
L 932.76 114.342857 
L 932.76 100.114286 
L 902.88 100.114286 
L 902.88 114.342857 
" clip-path="url(#p06d8e6bb5e)" style="fill: #fdcb26"/>
    <path d="M 902.88 100.114286 
L 932.76 100.114286 
L 932.76 85.885714 
L 902.88 85.885714 
L 902.88 100.114286 
" clip-path="url(#p06d8e6bb5e)" style="fill: #fbd524"/>
    <path d="M 902.88 85.885714 
L 932.76 85.885714 
L 932.76 71.657143 
L 902.88 71.657143 
L 902.88 85.885714 
" clip-path="url(#p06d8e6bb5e)" style="fill: #f8df25"/>
    <path d="M 902.88 71.657143 
L 932.76 71.657143 
L 932.76 57.428571 
L 902.88 57.428571 
L 902.88 71.657143 
" clip-path="url(#p06d8e6bb5e)" style="fill: #f5e926"/>
    <path d="M 902.88 57.428571 
L 932.76 57.428571 
L 932.76 43.2 
L 902.88 43.2 
L 902.88 57.428571 
" clip-path="url(#p06d8e6bb5e)" style="fill: #f1f426"/>
   </g>
   <g id="matplotlib.axis_3"/>
   <g id="matplotlib.axis_4">
    <g id="ytick_9">
     <g id="line2d_15">
      <defs>
       <path id="me00ded1f4b" d="M 0 0 
L 3.5 0 
" style="stroke: #000000; stroke-width: 0.8"/>
      </defs>
      <g>
       <use xlink:href="#me00ded1f4b" x="932.76" y="640.8" style="stroke: #000000; stroke-width: 0.8"/>
      </g>
     </g>
     <g id="text_17">
      <!-- $\mathdefault{0.332}$ -->
      <g transform="translate(941.26 647.02665) scale(0.18 -0.18)">
       <defs>
        <path id="CMMI12-3a" d="M 1178 307 
C 1178 492 1024 619 870 619 
C 685 619 557 466 557 313 
C 557 128 710 0 864 0 
C 1050 0 1178 153 1178 307 
z
" transform="scale(0.015625)"/>
       </defs>
       <use xlink:href="#CMR17-30" transform="scale(0.996264)"/>
       <use xlink:href="#CMMI12-3a" transform="translate(45.690477 0) scale(0.996264)"/>
       <use xlink:href="#CMR17-33" transform="translate(72.787654 0) scale(0.996264)"/>
       <use xlink:href="#CMR17-33" transform="translate(118.478131 0) scale(0.996264)"/>
       <use xlink:href="#CMR17-32" transform="translate(164.168608 0) scale(0.996264)"/>
      </g>
     </g>
    </g>
    <g id="ytick_10">
     <g id="line2d_16">
      <g>
       <use xlink:href="#me00ded1f4b" x="932.76" y="569.657143" style="stroke: #000000; stroke-width: 0.8"/>
      </g>
     </g>
     <g id="text_18">
      <!-- $\mathdefault{0.352}$ -->
      <g transform="translate(941.26 575.883793) scale(0.18 -0.18)">
       <use xlink:href="#CMR17-30" transform="scale(0.996264)"/>
       <use xlink:href="#CMMI12-3a" transform="translate(45.690477 0) scale(0.996264)"/>
       <use xlink:href="#CMR17-33" transform="translate(72.787654 0) scale(0.996264)"/>
       <use xlink:href="#CMR17-35" transform="translate(118.478131 0) scale(0.996264)"/>
       <use xlink:href="#CMR17-32" transform="translate(164.168608 0) scale(0.996264)"/>
      </g>
     </g>
    </g>
    <g id="ytick_11">
     <g id="line2d_17">
      <g>
       <use xlink:href="#me00ded1f4b" x="932.76" y="498.514286" style="stroke: #000000; stroke-width: 0.8"/>
      </g>
     </g>
     <g id="text_19">
      <!-- $\mathdefault{0.372}$ -->
      <g transform="translate(941.26 504.740936) scale(0.18 -0.18)">
       <use xlink:href="#CMR17-30" transform="scale(0.996264)"/>
       <use xlink:href="#CMMI12-3a" transform="translate(45.690477 0) scale(0.996264)"/>
       <use xlink:href="#CMR17-33" transform="translate(72.787654 0) scale(0.996264)"/>
       <use xlink:href="#CMR17-37" transform="translate(118.478131 0) scale(0.996264)"/>
       <use xlink:href="#CMR17-32" transform="translate(164.168608 0) scale(0.996264)"/>
      </g>
     </g>
    </g>
    <g id="ytick_12">
     <g id="line2d_18">
      <g>
       <use xlink:href="#me00ded1f4b" x="932.76" y="427.371429" style="stroke: #000000; stroke-width: 0.8"/>
      </g>
     </g>
     <g id="text_20">
      <!-- $\mathdefault{0.392}$ -->
      <g transform="translate(941.26 433.598079) scale(0.18 -0.18)">
       <use xlink:href="#CMR17-30" transform="scale(0.996264)"/>
       <use xlink:href="#CMMI12-3a" transform="translate(45.690477 0) scale(0.996264)"/>
       <use xlink:href="#CMR17-33" transform="translate(72.787654 0) scale(0.996264)"/>
       <use xlink:href="#CMR17-39" transform="translate(118.478131 0) scale(0.996264)"/>
       <use xlink:href="#CMR17-32" transform="translate(164.168608 0) scale(0.996264)"/>
      </g>
     </g>
    </g>
    <g id="ytick_13">
     <g id="line2d_19">
      <g>
       <use xlink:href="#me00ded1f4b" x="932.76" y="356.228571" style="stroke: #000000; stroke-width: 0.8"/>
      </g>
     </g>
     <g id="text_21">
      <!-- $\mathdefault{0.412}$ -->
      <g transform="translate(941.26 362.455221) scale(0.18 -0.18)">
       <use xlink:href="#CMR17-30" transform="scale(0.996264)"/>
       <use xlink:href="#CMMI12-3a" transform="translate(45.690477 0) scale(0.996264)"/>
       <use xlink:href="#CMR17-34" transform="translate(72.787654 0) scale(0.996264)"/>
       <use xlink:href="#CMR17-31" transform="translate(118.478131 0) scale(0.996264)"/>
       <use xlink:href="#CMR17-32" transform="translate(164.168608 0) scale(0.996264)"/>
      </g>
     </g>
    </g>
    <g id="ytick_14">
     <g id="line2d_20">
      <g>
       <use xlink:href="#me00ded1f4b" x="932.76" y="285.085714" style="stroke: #000000; stroke-width: 0.8"/>
      </g>
     </g>
     <g id="text_22">
      <!-- $\mathdefault{0.432}$ -->
      <g transform="translate(941.26 291.312364) scale(0.18 -0.18)">
       <use xlink:href="#CMR17-30" transform="scale(0.996264)"/>
       <use xlink:href="#CMMI12-3a" transform="translate(45.690477 0) scale(0.996264)"/>
       <use xlink:href="#CMR17-34" transform="translate(72.787654 0) scale(0.996264)"/>
       <use xlink:href="#CMR17-33" transform="translate(118.478131 0) scale(0.996264)"/>
       <use xlink:href="#CMR17-32" transform="translate(164.168608 0) scale(0.996264)"/>
      </g>
     </g>
    </g>
    <g id="ytick_15">
     <g id="line2d_21">
      <g>
       <use xlink:href="#me00ded1f4b" x="932.76" y="213.942857" style="stroke: #000000; stroke-width: 0.8"/>
      </g>
     </g>
     <g id="text_23">
      <!-- $\mathdefault{0.452}$ -->
      <g transform="translate(941.26 220.169507) scale(0.18 -0.18)">
       <use xlink:href="#CMR17-30" transform="scale(0.996264)"/>
       <use xlink:href="#CMMI12-3a" transform="translate(45.690477 0) scale(0.996264)"/>
       <use xlink:href="#CMR17-34" transform="translate(72.787654 0) scale(0.996264)"/>
       <use xlink:href="#CMR17-35" transform="translate(118.478131 0) scale(0.996264)"/>
       <use xlink:href="#CMR17-32" transform="translate(164.168608 0) scale(0.996264)"/>
      </g>
     </g>
    </g>
    <g id="ytick_16">
     <g id="line2d_22">
      <g>
       <use xlink:href="#me00ded1f4b" x="932.76" y="142.8" style="stroke: #000000; stroke-width: 0.8"/>
      </g>
     </g>
     <g id="text_24">
      <!-- $\mathdefault{0.472}$ -->
      <g transform="translate(941.26 149.02665) scale(0.18 -0.18)">
       <use xlink:href="#CMR17-30" transform="scale(0.996264)"/>
       <use xlink:href="#CMMI12-3a" transform="translate(45.690477 0) scale(0.996264)"/>
       <use xlink:href="#CMR17-34" transform="translate(72.787654 0) scale(0.996264)"/>
       <use xlink:href="#CMR17-37" transform="translate(118.478131 0) scale(0.996264)"/>
       <use xlink:href="#CMR17-32" transform="translate(164.168608 0) scale(0.996264)"/>
      </g>
     </g>
    </g>
    <g id="ytick_17">
     <g id="line2d_23">
      <g>
       <use xlink:href="#me00ded1f4b" x="932.76" y="71.657143" style="stroke: #000000; stroke-width: 0.8"/>
      </g>
     </g>
     <g id="text_25">
      <!-- $\mathdefault{0.492}$ -->
      <g transform="translate(941.26 77.883793) scale(0.18 -0.18)">
       <use xlink:href="#CMR17-30" transform="scale(0.996264)"/>
       <use xlink:href="#CMMI12-3a" transform="translate(45.690477 0) scale(0.996264)"/>
       <use xlink:href="#CMR17-34" transform="translate(72.787654 0) scale(0.996264)"/>
       <use xlink:href="#CMR17-39" transform="translate(118.478131 0) scale(0.996264)"/>
       <use xlink:href="#CMR17-32" transform="translate(164.168608 0) scale(0.996264)"/>
      </g>
     </g>
    </g>
    <g id="text_26">
     <!-- $C_p$ -->
     <g transform="translate(1012.650233 352.40635) rotate(-90) scale(0.2 -0.2)">
      <defs>
       <path id="CMMI12-43" d="M 4781 4423 
C 4781 4480 4736 4480 4723 4480 
C 4710 4480 4685 4480 4634 4416 
L 4192 3882 
C 3968 4264 3616 4480 3136 4480 
C 1754 4480 320 3088 320 1595 
C 320 533 1069 -128 2003 -128 
C 2515 -128 2963 88 3334 400 
C 3891 863 4058 1481 4058 1531 
C 4058 1588 4006 1588 3987 1588 
C 3930 1588 3923 1550 3910 1524 
C 3616 534 2752 57 2112 57 
C 1434 57 845 489 845 1391 
C 845 1595 909 2700 1632 3532 
C 1984 3939 2586 4295 3194 4295 
C 3898 4295 4211 3717 4211 3068 
C 4211 2903 4192 2764 4192 2738 
C 4192 2681 4256 2681 4275 2681 
C 4346 2681 4352 2687 4378 2801 
L 4781 4423 
z
" transform="scale(0.015625)"/>
      </defs>
      <use xlink:href="#CMMI12-43" transform="scale(0.996264)"/>
      <use xlink:href="#CMMI12-70" transform="translate(69.792037 -14.943915) scale(0.697382)"/>
     </g>
    </g>
   </g>
   <g id="LineCollection_1"/>
   <g id="patch_8">
    <path d="M 902.88 640.8 
L 917.82 640.8 
L 932.76 640.8 
L 932.76 43.2 
L 917.82 43.2 
L 902.88 43.2 
L 902.88 640.8 
z
" style="fill: none; stroke: #000000; stroke-width: 0.8; stroke-linejoin: miter; stroke-linecap: square"/>
   </g>
  </g>
 </g>
 <defs>
  <clipPath id="p81ebf809b9">
   <rect x="144" y="43.2" width="714.24" height="597.6"/>
  </clipPath>
  <clipPath id="p06d8e6bb5e">
   <rect x="902.88" y="43.2" width="29.88" height="597.6"/>
  </clipPath>
 </defs>
</svg>
