<?xml version="1.0" encoding="utf-8" standalone="no"?>
<!DOCTYPE svg PUBLIC "-//W3C//DTD SVG 1.1//EN"
  "http://www.w3.org/Graphics/SVG/1.1/DTD/svg11.dtd">
<svg xmlns:xlink="http://www.w3.org/1999/xlink" width="720pt" height="720pt" viewBox="0 0 720 720" xmlns="http://www.w3.org/2000/svg" version="1.1">
 <metadata>
  <rdf:RDF xmlns:dc="http://purl.org/dc/elements/1.1/" xmlns:cc="http://creativecommons.org/ns#" xmlns:rdf="http://www.w3.org/1999/02/22-rdf-syntax-ns#">
   <cc:Work>
    <dc:type rdf:resource="http://purl.org/dc/dcmitype/StillImage"/>
    <dc:date>2024-09-19T17:19:38.142865</dc:date>
    <dc:format>image/svg+xml</dc:format>
    <dc:creator>
     <cc:Agent>
      <dc:title>Matplotlib v3.8.4, https://matplotlib.org/</dc:title>
     </cc:Agent>
    </dc:creator>
   </cc:Work>
  </rdf:RDF>
 </metadata>
 <defs>
  <style type="text/css">*{stroke-linejoin: round; stroke-linecap: butt}</style>
 </defs>
 <g id="figure_1">
  <g id="patch_1">
   <path d="M 0 720 
L 720 720 
L 720 0 
L 0 0 
z
" style="fill: #ffffff"/>
  </g>
  <g id="patch_2">
   <path d="M 90 621 
L 648 621 
L 648 63 
L 90 63 
z
" style="fill: #ffffff"/>
  </g>
  <g id="pane3d_1">
   <g id="patch_3">
    <path d="M 132.132848 483.415082 
L 316.402672 328.956463 
L 313.841145 106.199521 
L 120.75306 247.10641 
" style="fill: #f2f2f2; opacity: 0.5; stroke: #f2f2f2; stroke-linejoin: miter"/>
   </g>
  </g>
  <g id="pane3d_2">
   <g id="patch_4">
    <path d="M 316.402672 328.956463 
L 612.08999 414.901093 
L 622.642028 184.471543 
L 313.841145 106.199521 
" style="fill: #e6e6e6; opacity: 0.5; stroke: #e6e6e6; stroke-linejoin: miter"/>
   </g>
  </g>
  <g id="pane3d_3">
   <g id="patch_5">
    <path d="M 132.132848 483.415082 
L 445.575848 585.785566 
L 612.08999 414.901093 
L 316.402672 328.956463 
" style="fill: #ececec; opacity: 0.5; stroke: #ececec; stroke-linejoin: miter"/>
   </g>
  </g>
  <g id="grid3d_1">
   <g id="Line3DCollection_1">
    <path d="M 151.116601 489.615176 
L 334.385469 334.183352 
L 332.584268 110.950356 
" style="fill: none; stroke: #b0b0b0; stroke-width: 0.8"/>
    <path d="M 203.831331 506.831807 
L 384.270221 348.68288 
L 384.603364 124.135681 
" style="fill: none; stroke: #b0b0b0; stroke-width: 0.8"/>
    <path d="M 257.511893 524.363878 
L 434.992793 363.425929 
L 437.534109 137.552082 
" style="fill: none; stroke: #b0b0b0; stroke-width: 0.8"/>
    <path d="M 312.185078 542.22014 
L 486.574469 378.418686 
L 491.400682 151.205688 
" style="fill: none; stroke: #b0b0b0; stroke-width: 0.8"/>
    <path d="M 367.878674 560.409669 
L 539.037264 393.667549 
L 546.228123 165.102846 
" style="fill: none; stroke: #b0b0b0; stroke-width: 0.8"/>
    <path d="M 424.621517 578.941881 
L 592.403948 409.179137 
L 602.042372 179.250131 
" style="fill: none; stroke: #b0b0b0; stroke-width: 0.8"/>
   </g>
  </g>
  <g id="grid3d_2">
   <g id="Line3DCollection_2">
    <path d="M 134.105579 237.36235 
L 144.830596 472.771578 
L 457.097338 573.961683 
" style="fill: none; stroke: #b0b0b0; stroke-width: 0.8"/>
    <path d="M 159.814785 218.600943 
L 169.297852 452.26264 
L 479.27827 551.19859 
" style="fill: none; stroke: #b0b0b0; stroke-width: 0.8"/>
    <path d="M 184.943932 200.262836 
L 193.236964 432.196401 
L 500.955222 528.952705 
" style="fill: none; stroke: #b0b0b0; stroke-width: 0.8"/>
    <path d="M 209.512433 182.333863 
L 216.664852 412.558681 
L 522.145178 507.206597 
" style="fill: none; stroke: #b0b0b0; stroke-width: 0.8"/>
    <path d="M 233.538844 164.800482 
L 239.597718 393.335898 
L 542.864367 485.943612 
" style="fill: none; stroke: #b0b0b0; stroke-width: 0.8"/>
    <path d="M 257.04091 147.649745 
L 262.051087 374.515038 
L 563.128305 465.147827 
" style="fill: none; stroke: #b0b0b0; stroke-width: 0.8"/>
    <path d="M 280.03561 130.86926 
L 284.039843 356.083627 
L 582.951833 444.80401 
" style="fill: none; stroke: #b0b0b0; stroke-width: 0.8"/>
    <path d="M 302.539199 114.447166 
L 305.578259 338.0297 
L 602.349155 424.897586 
" style="fill: none; stroke: #b0b0b0; stroke-width: 0.8"/>
   </g>
  </g>
  <g id="grid3d_3">
   <g id="Line3DCollection_3">
    <path d="M 612.583786 404.117856 
L 316.28256 318.511279 
L 131.601172 472.374485 
" style="fill: none; stroke: #b0b0b0; stroke-width: 0.8"/>
    <path d="M 613.779415 378.008366 
L 315.991833 293.228872 
L 130.313476 445.634632 
" style="fill: none; stroke: #b0b0b0; stroke-width: 0.8"/>
    <path d="M 614.987219 351.633025 
L 315.698286 267.701321 
L 129.012168 418.612141 
" style="fill: none; stroke: #b0b0b0; stroke-width: 0.8"/>
    <path d="M 616.207383 324.987752 
L 315.40188 241.925045 
L 127.697033 391.302504 
" style="fill: none; stroke: #b0b0b0; stroke-width: 0.8"/>
    <path d="M 617.440099 298.068381 
L 315.102571 215.896388 
L 126.367848 363.701121 
" style="fill: none; stroke: #b0b0b0; stroke-width: 0.8"/>
    <path d="M 618.685562 270.87066 
L 314.800317 189.611628 
L 125.024387 335.803293 
" style="fill: none; stroke: #b0b0b0; stroke-width: 0.8"/>
    <path d="M 619.94397 243.390252 
L 314.495075 163.066965 
L 123.66642 307.604216 
" style="fill: none; stroke: #b0b0b0; stroke-width: 0.8"/>
    <path d="M 621.215525 215.622724 
L 314.186799 136.258526 
L 122.293709 279.098986 
" style="fill: none; stroke: #b0b0b0; stroke-width: 0.8"/>
   </g>
  </g>
  <g id="axis3d_1">
   <g id="line2d_1">
    <path d="M 132.132848 483.415082 
L 445.575848 585.785566 
" style="fill: none; stroke: #000000; stroke-width: 0.8; stroke-linecap: square"/>
   </g>
   <g id="xtick_1">
    <g id="line2d_2">
     <path d="M 152.712496 488.261685 
L 147.917963 492.327967 
" style="fill: none; stroke: #000000; stroke-width: 0.8; stroke-linecap: square"/>
    </g>
    <g id="text_1">
     <!-- $\mathdefault{5}$ -->
     <g transform="translate(138.507915 519.798036) scale(0.18 -0.18)">
      <defs>
       <path id="CMR17-35" d="M 730 3692 
C 794 3666 1056 3584 1325 3584 
C 1920 3584 2246 3911 2432 4100 
C 2432 4157 2432 4192 2394 4192 
C 2387 4192 2374 4192 2323 4163 
C 2099 4058 1837 3973 1517 3973 
C 1325 3973 1037 3999 723 4139 
C 653 4171 640 4171 634 4171 
C 602 4171 595 4164 595 4037 
L 595 2203 
C 595 2089 595 2057 659 2057 
C 691 2057 704 2070 736 2114 
C 941 2401 1222 2522 1542 2522 
C 1766 2522 2246 2382 2246 1289 
C 2246 1085 2246 715 2054 421 
C 1894 159 1645 25 1370 25 
C 947 25 518 320 403 814 
C 429 807 480 795 506 795 
C 589 795 749 840 749 1038 
C 749 1210 627 1280 506 1280 
C 358 1280 262 1190 262 1011 
C 262 454 704 -128 1382 -128 
C 2042 -128 2669 440 2669 1264 
C 2669 2030 2170 2624 1549 2624 
C 1222 2624 947 2503 730 2274 
L 730 3692 
z
" transform="scale(0.015625)"/>
      </defs>
      <use xlink:href="#CMR17-35" transform="scale(0.996264)"/>
     </g>
    </g>
   </g>
   <g id="xtick_2">
    <g id="line2d_3">
     <path d="M 205.403741 505.453639 
L 200.679701 509.594109 
" style="fill: none; stroke: #000000; stroke-width: 0.8; stroke-linecap: square"/>
    </g>
    <g id="text_2">
     <!-- $\mathdefault{6}$ -->
     <g transform="translate(191.251779 537.210693) scale(0.18 -0.18)">
      <defs>
       <path id="CMR17-36" d="M 678 2176 
C 678 3690 1395 4032 1811 4032 
C 1946 4032 2272 4009 2400 3776 
C 2298 3776 2106 3776 2106 3553 
C 2106 3381 2246 3323 2336 3323 
C 2394 3323 2566 3348 2566 3560 
C 2566 3954 2246 4179 1805 4179 
C 1043 4179 243 3390 243 1984 
C 243 253 966 -128 1478 -128 
C 2099 -128 2688 427 2688 1283 
C 2688 2081 2170 2662 1517 2662 
C 1126 2662 838 2407 678 1960 
L 678 2176 
z
M 1478 25 
C 691 25 691 1200 691 1436 
C 691 1896 909 2560 1504 2560 
C 1613 2560 1926 2560 2138 2120 
C 2253 1870 2253 1609 2253 1289 
C 2253 944 2253 690 2118 434 
C 1978 171 1773 25 1478 25 
z
" transform="scale(0.015625)"/>
      </defs>
      <use xlink:href="#CMR17-36" transform="scale(0.996264)"/>
     </g>
    </g>
   </g>
   <g id="xtick_3">
    <g id="line2d_4">
     <path d="M 259.059687 522.960354 
L 254.409542 527.177061 
" style="fill: none; stroke: #000000; stroke-width: 0.8; stroke-linecap: square"/>
    </g>
    <g id="text_3">
     <!-- $\mathdefault{7}$ -->
     <g transform="translate(244.963978 554.943032) scale(0.18 -0.18)">
      <defs>
       <path id="CMR17-37" d="M 2886 3941 
L 2886 4081 
L 1382 4081 
C 634 4081 621 4165 595 4288 
L 480 4288 
L 294 3094 
L 410 3094 
C 429 3215 474 3540 550 3661 
C 589 3712 1062 3712 1171 3712 
L 2579 3712 
L 1869 2661 
C 1395 1954 1069 999 1069 165 
C 1069 89 1069 -128 1299 -128 
C 1530 -128 1530 89 1530 171 
L 1530 465 
C 1530 1508 1709 2196 2003 2636 
L 2886 3941 
z
" transform="scale(0.015625)"/>
      </defs>
      <use xlink:href="#CMR17-37" transform="scale(0.996264)"/>
     </g>
    </g>
   </g>
   <g id="xtick_4">
    <g id="line2d_5">
     <path d="M 313.707073 540.790553 
L 309.134376 545.085621 
" style="fill: none; stroke: #000000; stroke-width: 0.8; stroke-linecap: square"/>
    </g>
    <g id="text_4">
     <!-- $\mathdefault{8}$ -->
     <g transform="translate(299.671426 573.00394) scale(0.18 -0.18)">
      <defs>
       <path id="CMR17-38" d="M 1741 2264 
C 2144 2467 2554 2773 2554 3263 
C 2554 3841 1990 4179 1472 4179 
C 890 4179 378 3759 378 3180 
C 378 3021 416 2747 666 2505 
C 730 2442 998 2251 1171 2130 
C 883 1983 211 1634 211 934 
C 211 279 838 -128 1459 -128 
C 2144 -128 2720 362 2720 1010 
C 2720 1590 2330 1857 2074 2029 
L 1741 2264 
z
M 902 2822 
C 851 2854 595 3051 595 3351 
C 595 3739 998 4032 1459 4032 
C 1965 4032 2336 3676 2336 3262 
C 2336 2669 1670 2331 1638 2331 
C 1632 2331 1626 2331 1574 2370 
L 902 2822 
z
M 2080 1519 
C 2176 1449 2483 1240 2483 851 
C 2483 381 2010 25 1472 25 
C 890 25 448 438 448 940 
C 448 1443 838 1862 1280 2060 
L 2080 1519 
z
" transform="scale(0.015625)"/>
      </defs>
      <use xlink:href="#CMR17-38" transform="scale(0.996264)"/>
     </g>
    </g>
   </g>
   <g id="xtick_5">
    <g id="line2d_6">
     <path d="M 369.373633 558.953285 
L 364.882101 563.32892 
" style="fill: none; stroke: #000000; stroke-width: 0.8; stroke-linecap: square"/>
    </g>
    <g id="text_5">
     <!-- $\mathdefault{9}$ -->
     <g transform="translate(355.402044 591.402632) scale(0.18 -0.18)">
      <defs>
       <path id="CMR17-39" d="M 2253 1864 
C 2253 464 1670 31 1190 31 
C 1043 31 685 31 538 294 
C 704 268 826 357 826 518 
C 826 692 685 749 595 749 
C 538 749 365 723 365 506 
C 365 71 742 -128 1203 -128 
C 1939 -128 2688 674 2688 2073 
C 2688 3817 1971 4179 1485 4179 
C 851 4179 243 3628 243 2778 
C 243 1991 762 1408 1414 1408 
C 1952 1408 2189 1903 2253 2112 
L 2253 1864 
z
M 1427 1510 
C 1254 1510 1011 1542 813 1922 
C 678 2169 678 2461 678 2771 
C 678 3146 678 3405 858 3684 
C 947 3817 1114 4032 1485 4032 
C 2240 4032 2240 2885 2240 2632 
C 2240 2182 2035 1510 1427 1510 
z
" transform="scale(0.015625)"/>
      </defs>
      <use xlink:href="#CMR17-39" transform="scale(0.996264)"/>
     </g>
    </g>
   </g>
   <g id="xtick_6">
    <g id="line2d_7">
     <path d="M 426.088147 577.45794 
L 421.681666 581.91643 
" style="fill: none; stroke: #000000; stroke-width: 0.8; stroke-linecap: square"/>
    </g>
    <g id="text_6">
     <!-- $\mathdefault{10}$ -->
     <g transform="translate(408.072663 610.148676) scale(0.18 -0.18)">
      <defs>
       <path id="CMR17-31" d="M 1702 4058 
C 1702 4192 1696 4192 1606 4192 
C 1357 3916 979 3827 621 3827 
C 602 3827 570 3827 563 3808 
C 557 3795 557 3782 557 3648 
C 755 3648 1088 3686 1344 3839 
L 1344 461 
C 1344 236 1331 160 781 160 
L 589 160 
L 589 0 
C 896 0 1216 0 1523 0 
C 1830 0 2150 0 2458 0 
L 2458 160 
L 2266 160 
C 1715 160 1702 230 1702 458 
L 1702 4058 
z
" transform="scale(0.015625)"/>
       <path id="CMR17-30" d="M 2688 2025 
C 2688 2416 2682 3080 2413 3591 
C 2176 4039 1798 4198 1466 4198 
C 1158 4198 768 4058 525 3597 
C 269 3118 243 2524 243 2025 
C 243 1661 250 1106 448 619 
C 723 -39 1216 -128 1466 -128 
C 1760 -128 2208 -7 2470 600 
C 2662 1042 2688 1559 2688 2025 
z
M 1466 -26 
C 1056 -26 813 325 723 812 
C 653 1188 653 1738 653 2096 
C 653 2588 653 2997 736 3387 
C 858 3929 1216 4096 1466 4096 
C 1728 4096 2067 3923 2189 3400 
C 2272 3036 2278 2607 2278 2096 
C 2278 1680 2278 1169 2202 792 
C 2067 95 1690 -26 1466 -26 
z
" transform="scale(0.015625)"/>
      </defs>
      <use xlink:href="#CMR17-31" transform="scale(0.996264)"/>
      <use xlink:href="#CMR17-30" transform="translate(45.690477 0) scale(0.996264)"/>
     </g>
    </g>
   </g>
   <g id="text_7">
    <!-- $\lambda$ -->
    <g transform="translate(251.097438 593.960493) rotate(-341.912962) scale(0.2 -0.2)">
     <defs>
      <path id="CMMI12-15" d="M 1978 3965 
C 1818 4416 1312 4416 1229 4416 
C 1190 4416 1120 4416 1120 4352 
C 1120 4302 1158 4295 1190 4289 
C 1286 4276 1363 4263 1466 4080 
C 1530 3959 2189 2059 2189 2046 
C 2189 2040 2182 2033 2131 1982 
L 467 311 
C 390 234 339 183 339 102 
C 339 12 416 -64 518 -64 
C 544 -64 614 -51 653 -13 
C 755 82 1670 1194 2253 1881 
C 2419 1383 2624 797 2822 261 
C 2854 166 2886 76 2976 -6 
C 3040 -64 3053 -64 3232 -64 
L 3354 -64 
C 3379 -64 3424 -64 3424 -13 
C 3424 13 3418 19 3392 45 
C 3334 115 3290 229 3264 306 
L 1978 3965 
z
" transform="scale(0.015625)"/>
     </defs>
     <use xlink:href="#CMMI12-15" transform="scale(0.996264)"/>
    </g>
   </g>
  </g>
  <g id="axis3d_2">
   <g id="line2d_8">
    <path d="M 612.08999 414.901093 
L 445.575848 585.785566 
" style="fill: none; stroke: #000000; stroke-width: 0.8; stroke-linecap: square"/>
   </g>
   <g id="xtick_7">
    <g id="line2d_9">
     <path d="M 454.465857 573.108951 
L 462.367106 575.669352 
" style="fill: none; stroke: #000000; stroke-width: 0.8; stroke-linecap: square"/>
    </g>
    <g id="text_8">
     <!-- $\mathdefault{−3}$ -->
     <g transform="translate(460.568024 601.584953) scale(0.18 -0.18)">
      <defs>
       <path id="CMSY10-0" d="M 4218 1472 
C 4326 1472 4442 1472 4442 1600 
C 4442 1728 4326 1728 4218 1728 
L 755 1728 
C 646 1728 531 1728 531 1600 
C 531 1472 646 1472 755 1472 
L 4218 1472 
z
" transform="scale(0.015625)"/>
       <path id="CMR17-33" d="M 1414 2157 
C 1984 2157 2234 1662 2234 1090 
C 2234 320 1824 25 1453 25 
C 1114 25 563 194 390 693 
C 422 680 454 680 486 680 
C 640 680 755 782 755 948 
C 755 1133 614 1216 486 1216 
C 378 1216 211 1165 211 926 
C 211 335 787 -128 1466 -128 
C 2176 -128 2720 430 2720 1085 
C 2720 1707 2208 2157 1600 2227 
C 2086 2328 2554 2756 2554 3329 
C 2554 3820 2048 4179 1472 4179 
C 890 4179 378 3829 378 3329 
C 378 3110 544 3072 627 3072 
C 762 3072 877 3155 877 3321 
C 877 3486 762 3569 627 3569 
C 602 3569 570 3569 544 3557 
C 730 3959 1235 4032 1459 4032 
C 1683 4032 2106 3925 2106 3320 
C 2106 3143 2080 2828 1862 2550 
C 1670 2304 1453 2304 1242 2284 
C 1210 2284 1062 2269 1037 2269 
C 992 2263 966 2257 966 2208 
C 966 2163 973 2157 1101 2157 
L 1414 2157 
z
" transform="scale(0.015625)"/>
      </defs>
      <use xlink:href="#CMSY10-0" transform="scale(0.996264)"/>
      <use xlink:href="#CMR17-33" transform="translate(77.487468 0) scale(0.996264)"/>
     </g>
    </g>
   </g>
   <g id="xtick_8">
    <g id="line2d_10">
     <path d="M 476.667576 550.365339 
L 484.506331 552.867222 
" style="fill: none; stroke: #000000; stroke-width: 0.8; stroke-linecap: square"/>
    </g>
    <g id="text_9">
     <!-- $\mathdefault{−2}$ -->
     <g transform="translate(482.588704 578.640222) scale(0.18 -0.18)">
      <defs>
       <path id="CMR17-32" d="M 2669 989 
L 2554 989 
C 2490 536 2438 459 2413 420 
C 2381 369 1920 369 1830 369 
L 602 369 
C 832 619 1280 1072 1824 1597 
C 2214 1967 2669 2402 2669 3035 
C 2669 3790 2067 4224 1395 4224 
C 691 4224 262 3604 262 3030 
C 262 2780 448 2748 525 2748 
C 589 2748 781 2787 781 3010 
C 781 3207 614 3264 525 3264 
C 486 3264 448 3258 422 3245 
C 544 3790 915 4058 1306 4058 
C 1862 4058 2227 3617 2227 3035 
C 2227 2479 1901 2000 1536 1584 
L 262 146 
L 262 0 
L 2515 0 
L 2669 989 
z
" transform="scale(0.015625)"/>
      </defs>
      <use xlink:href="#CMSY10-0" transform="scale(0.996264)"/>
      <use xlink:href="#CMR17-32" transform="translate(77.487468 0) scale(0.996264)"/>
     </g>
    </g>
   </g>
   <g id="xtick_9">
    <g id="line2d_11">
     <path d="M 498.365055 528.138275 
L 506.142101 530.583623 
" style="fill: none; stroke: #000000; stroke-width: 0.8; stroke-linecap: square"/>
    </g>
    <g id="text_10">
     <!-- $\mathdefault{−1}$ -->
     <g transform="translate(504.108888 556.21699) scale(0.18 -0.18)">
      <use xlink:href="#CMSY10-0" transform="scale(0.996264)"/>
      <use xlink:href="#CMR17-31" transform="translate(77.487468 0) scale(0.996264)"/>
     </g>
    </g>
   </g>
   <g id="xtick_10">
    <g id="line2d_12">
     <path d="M 519.57528 506.410358 
L 527.291395 508.801066 
" style="fill: none; stroke: #000000; stroke-width: 0.8; stroke-linecap: square"/>
    </g>
    <g id="text_11">
     <!-- $\mathdefault{0}$ -->
     <g transform="translate(532.119318 534.297677) scale(0.18 -0.18)">
      <use xlink:href="#CMR17-30" transform="scale(0.996264)"/>
     </g>
    </g>
   </g>
   <g id="xtick_11">
    <g id="line2d_13">
     <path d="M 540.314481 485.164961 
L 547.970438 487.50284 
" style="fill: none; stroke: #000000; stroke-width: 0.8; stroke-linecap: square"/>
    </g>
    <g id="text_12">
     <!-- $\mathdefault{1}$ -->
     <g transform="translate(552.688373 512.865485) scale(0.18 -0.18)">
      <use xlink:href="#CMR17-31" transform="scale(0.996264)"/>
     </g>
    </g>
   </g>
   <g id="xtick_12">
    <g id="line2d_14">
     <path d="M 560.598177 464.386187 
L 568.194743 466.672969 
" style="fill: none; stroke: #000000; stroke-width: 0.8; stroke-linecap: square"/>
    </g>
    <g id="text_13">
     <!-- $\mathdefault{2}$ -->
     <g transform="translate(572.805339 491.904354) scale(0.18 -0.18)">
      <use xlink:href="#CMR17-32" transform="scale(0.996264)"/>
     </g>
    </g>
   </g>
   <g id="xtick_13">
    <g id="line2d_15">
     <path d="M 580.441212 444.05883 
L 587.979144 446.296172 
" style="fill: none; stroke: #000000; stroke-width: 0.8; stroke-linecap: square"/>
    </g>
    <g id="text_14">
     <!-- $\mathdefault{3}$ -->
     <g transform="translate(592.484958 471.398923) scale(0.18 -0.18)">
      <use xlink:href="#CMR17-33" transform="scale(0.996264)"/>
     </g>
    </g>
   </g>
   <g id="xtick_14">
    <g id="line2d_16">
     <path d="M 599.85779 424.168338 
L 607.337842 426.357826 
" style="fill: none; stroke: #000000; stroke-width: 0.8; stroke-linecap: square"/>
    </g>
    <g id="text_15">
     <!-- $\mathdefault{4}$ -->
     <g transform="translate(611.741338 451.33449) scale(0.18 -0.18)">
      <defs>
       <path id="CMR17-34" d="M 2150 4122 
C 2150 4256 2144 4256 2029 4256 
L 128 1254 
L 128 1088 
L 1779 1088 
L 1779 457 
C 1779 224 1766 160 1318 160 
L 1197 160 
L 1197 0 
C 1402 0 1747 0 1965 0 
C 2182 0 2528 0 2733 0 
L 2733 160 
L 2611 160 
C 2163 160 2150 224 2150 457 
L 2150 1088 
L 2803 1088 
L 2803 1254 
L 2150 1254 
L 2150 4122 
z
M 1798 3703 
L 1798 1254 
L 256 1254 
L 1798 3703 
z
" transform="scale(0.015625)"/>
      </defs>
      <use xlink:href="#CMR17-34" transform="scale(0.996264)"/>
     </g>
    </g>
   </g>
   <g id="text_16">
    <!-- $\theta_p$ -->
    <g transform="translate(574.129348 550.992807) rotate(-45.742112) scale(0.2 -0.2)">
     <defs>
      <path id="CMMI12-12" d="M 2835 3200 
C 2835 3850 2630 4480 2106 4480 
C 1210 4480 256 2615 256 1216 
C 256 923 320 -64 992 -64 
C 1862 -64 2835 1756 2835 3200 
z
M 896 2304 
C 992 2679 1126 3214 1382 3665 
C 1594 4047 1818 4352 2099 4352 
C 2310 4352 2451 4174 2451 3564 
C 2451 3334 2432 3017 2246 2304 
L 896 2304 
z
M 2202 2113 
C 2042 1490 1907 1088 1677 687 
C 1491 363 1267 64 998 64 
C 800 64 640 217 640 846 
C 640 1260 742 1693 845 2113 
L 2202 2113 
z
" transform="scale(0.015625)"/>
      <path id="CMMI12-70" d="M 275 -789 
C 230 -980 205 -1031 -58 -1031 
C -134 -1031 -198 -1031 -198 -1152 
C -198 -1165 -192 -1216 -122 -1216 
C -38 -1216 51 -1216 134 -1216 
L 410 -1216 
C 544 -1216 870 -1216 1005 -1216 
C 1043 -1216 1120 -1216 1120 -1101 
C 1120 -1031 1075 -1031 966 -1031 
C 672 -1031 653 -987 653 -937 
C 653 -861 941 219 979 364 
C 1050 185 1222 -64 1555 -64 
C 2278 -64 3059 875 3059 1814 
C 3059 2401 2726 2816 2246 2816 
C 1837 2816 1491 2420 1421 2331 
C 1370 2650 1120 2816 864 2816 
C 678 2816 531 2727 410 2484 
C 294 2254 205 1865 205 1839 
C 205 1814 230 1782 275 1782 
C 326 1782 333 1788 371 1935 
C 467 2312 589 2689 845 2689 
C 992 2689 1043 2587 1043 2397 
C 1043 2245 1024 2181 998 2067 
L 275 -789 
z
M 1382 1993 
C 1427 2171 1606 2357 1709 2446 
C 1779 2510 1990 2689 2234 2689 
C 2515 2689 2643 2408 2643 2076 
C 2643 1769 2464 1047 2304 715 
C 2144 370 1850 64 1555 64 
C 1120 64 1050 613 1050 639 
C 1050 658 1062 709 1069 741 
L 1382 1993 
z
" transform="scale(0.015625)"/>
     </defs>
     <use xlink:href="#CMMI12-12" transform="scale(0.996264)"/>
     <use xlink:href="#CMMI12-70" transform="translate(45.45979 -14.943915) scale(0.697382)"/>
    </g>
   </g>
  </g>
  <g id="axis3d_3">
   <g id="line2d_17">
    <path d="M 612.08999 414.901093 
L 622.642028 184.471543 
" style="fill: none; stroke: #000000; stroke-width: 0.8; stroke-linecap: square"/>
   </g>
   <g id="xtick_15">
    <g id="line2d_18">
     <path d="M 610.096759 403.399311 
L 617.563768 405.556659 
" style="fill: none; stroke: #000000; stroke-width: 0.8; stroke-linecap: square"/>
    </g>
    <g id="text_17">
     <!-- $\mathdefault{0.34}$ -->
     <g transform="translate(618.508488 413.63362) scale(0.18 -0.18)">
      <defs>
       <path id="CMMI12-3a" d="M 1178 307 
C 1178 492 1024 619 870 619 
C 685 619 557 466 557 313 
C 557 128 710 0 864 0 
C 1050 0 1178 153 1178 307 
z
" transform="scale(0.015625)"/>
      </defs>
      <use xlink:href="#CMR17-30" transform="scale(0.996264)"/>
      <use xlink:href="#CMMI12-3a" transform="translate(45.690477 0) scale(0.996264)"/>
      <use xlink:href="#CMR17-33" transform="translate(72.787654 0) scale(0.996264)"/>
      <use xlink:href="#CMR17-34" transform="translate(118.478131 0) scale(0.996264)"/>
     </g>
    </g>
   </g>
   <g id="xtick_16">
    <g id="line2d_19">
     <path d="M 611.279319 377.296594 
L 618.785597 379.433616 
" style="fill: none; stroke: #000000; stroke-width: 0.8; stroke-linecap: square"/>
    </g>
    <g id="text_18">
     <!-- $\mathdefault{0.36}$ -->
     <g transform="translate(619.806848 387.551839) scale(0.18 -0.18)">
      <use xlink:href="#CMR17-30" transform="scale(0.996264)"/>
      <use xlink:href="#CMMI12-3a" transform="translate(45.690477 0) scale(0.996264)"/>
      <use xlink:href="#CMR17-33" transform="translate(72.787654 0) scale(0.996264)"/>
      <use xlink:href="#CMR17-36" transform="translate(118.478131 0) scale(0.996264)"/>
     </g>
    </g>
   </g>
   <g id="xtick_17">
    <g id="line2d_20">
     <path d="M 612.473915 350.928202 
L 620.019877 353.044369 
" style="fill: none; stroke: #000000; stroke-width: 0.8; stroke-linecap: square"/>
    </g>
    <g id="text_19">
     <!-- $\mathdefault{0.38}$ -->
     <g transform="translate(621.118407 361.204923) scale(0.18 -0.18)">
      <use xlink:href="#CMR17-30" transform="scale(0.996264)"/>
      <use xlink:href="#CMMI12-3a" transform="translate(45.690477 0) scale(0.996264)"/>
      <use xlink:href="#CMR17-33" transform="translate(72.787654 0) scale(0.996264)"/>
      <use xlink:href="#CMR17-38" transform="translate(118.478131 0) scale(0.996264)"/>
     </g>
    </g>
   </g>
   <g id="xtick_18">
    <g id="line2d_21">
     <path d="M 613.680732 324.290057 
L 621.2668 326.38483 
" style="fill: none; stroke: #000000; stroke-width: 0.8; stroke-linecap: square"/>
    </g>
    <g id="text_20">
     <!-- $\mathdefault{0.40}$ -->
     <g transform="translate(622.443366 334.58881) scale(0.18 -0.18)">
      <use xlink:href="#CMR17-30" transform="scale(0.996264)"/>
      <use xlink:href="#CMMI12-3a" transform="translate(45.690477 0) scale(0.996264)"/>
      <use xlink:href="#CMR17-34" transform="translate(72.787654 0) scale(0.996264)"/>
      <use xlink:href="#CMR17-30" transform="translate(118.478131 0) scale(0.996264)"/>
     </g>
    </g>
   </g>
   <g id="xtick_19">
    <g id="line2d_22">
     <path d="M 614.899959 297.377998 
L 622.526559 299.450824 
" style="fill: none; stroke: #000000; stroke-width: 0.8; stroke-linecap: square"/>
    </g>
    <g id="text_21">
     <!-- $\mathdefault{0.42}$ -->
     <g transform="translate(623.781933 307.699352) scale(0.18 -0.18)">
      <use xlink:href="#CMR17-30" transform="scale(0.996264)"/>
      <use xlink:href="#CMMI12-3a" transform="translate(45.690477 0) scale(0.996264)"/>
      <use xlink:href="#CMR17-34" transform="translate(72.787654 0) scale(0.996264)"/>
      <use xlink:href="#CMR17-32" transform="translate(118.478131 0) scale(0.996264)"/>
     </g>
    </g>
   </g>
   <g id="xtick_20">
    <g id="line2d_23">
     <path d="M 616.131787 270.18778 
L 623.799356 272.238091 
" style="fill: none; stroke: #000000; stroke-width: 0.8; stroke-linecap: square"/>
    </g>
    <g id="text_22">
     <!-- $\mathdefault{0.44}$ -->
     <g transform="translate(625.134318 280.532318) scale(0.18 -0.18)">
      <use xlink:href="#CMR17-30" transform="scale(0.996264)"/>
      <use xlink:href="#CMMI12-3a" transform="translate(45.690477 0) scale(0.996264)"/>
      <use xlink:href="#CMR17-34" transform="translate(72.787654 0) scale(0.996264)"/>
      <use xlink:href="#CMR17-34" transform="translate(118.478131 0) scale(0.996264)"/>
     </g>
    </g>
   </g>
   <g id="xtick_21">
    <g id="line2d_24">
     <path d="M 617.376414 242.715067 
L 625.085392 244.742281 
" style="fill: none; stroke: #000000; stroke-width: 0.8; stroke-linecap: square"/>
    </g>
    <g id="text_23">
     <!-- $\mathdefault{0.46}$ -->
     <g transform="translate(626.500735 253.083386) scale(0.18 -0.18)">
      <use xlink:href="#CMR17-30" transform="scale(0.996264)"/>
      <use xlink:href="#CMMI12-3a" transform="translate(45.690477 0) scale(0.996264)"/>
      <use xlink:href="#CMR17-34" transform="translate(72.787654 0) scale(0.996264)"/>
      <use xlink:href="#CMR17-36" transform="translate(118.478131 0) scale(0.996264)"/>
     </g>
    </g>
   </g>
   <g id="xtick_22">
    <g id="line2d_25">
     <path d="M 618.634039 214.955433 
L 626.384876 216.958955 
" style="fill: none; stroke: #000000; stroke-width: 0.8; stroke-linecap: square"/>
    </g>
    <g id="text_24">
     <!-- $\mathdefault{0.48}$ -->
     <g transform="translate(627.881405 225.348146) scale(0.18 -0.18)">
      <use xlink:href="#CMR17-30" transform="scale(0.996264)"/>
      <use xlink:href="#CMMI12-3a" transform="translate(45.690477 0) scale(0.996264)"/>
      <use xlink:href="#CMR17-34" transform="translate(72.787654 0) scale(0.996264)"/>
      <use xlink:href="#CMR17-38" transform="translate(118.478131 0) scale(0.996264)"/>
     </g>
    </g>
   </g>
   <g id="text_25">
    <!-- $C_p$ -->
    <g transform="translate(687.039836 303.902787) rotate(-87.378092) scale(0.2 -0.2)">
     <defs>
      <path id="CMMI12-43" d="M 4781 4423 
C 4781 4480 4736 4480 4723 4480 
C 4710 4480 4685 4480 4634 4416 
L 4192 3882 
C 3968 4264 3616 4480 3136 4480 
C 1754 4480 320 3088 320 1595 
C 320 533 1069 -128 2003 -128 
C 2515 -128 2963 88 3334 400 
C 3891 863 4058 1481 4058 1531 
C 4058 1588 4006 1588 3987 1588 
C 3930 1588 3923 1550 3910 1524 
C 3616 534 2752 57 2112 57 
C 1434 57 845 489 845 1391 
C 845 1595 909 2700 1632 3532 
C 1984 3939 2586 4295 3194 4295 
C 3898 4295 4211 3717 4211 3068 
C 4211 2903 4192 2764 4192 2738 
C 4192 2681 4256 2681 4275 2681 
C 4346 2681 4352 2687 4378 2801 
L 4781 4423 
z
" transform="scale(0.015625)"/>
     </defs>
     <use xlink:href="#CMMI12-43" transform="scale(0.996264)"/>
     <use xlink:href="#CMMI12-70" transform="translate(69.792037 -14.943915) scale(0.697382)"/>
    </g>
   </g>
  </g>
  <g id="axes_1">
   <g id="Poly3DCollection_1">
    <path d="M 311.833862 259.353522 
L 337.077936 238.267662 
L 347.955896 240.554519 
L 322.767127 259.002422 
z
" clip-path="url(#pe181d80b7a)" style="fill: #a11b9b"/>
    <path d="M 300.764817 260.745093 
L 326.049211 237.100727 
L 337.077936 238.267662 
L 311.833862 259.353522 
z
" clip-path="url(#pe181d80b7a)" style="fill: #b22b8f"/>
    <path d="M 337.077936 238.267662 
L 362.836996 226.432476 
L 373.610516 229.894743 
L 347.955896 240.554519 
z
" clip-path="url(#pe181d80b7a)" style="fill: #c6417d"/>
    <path d="M 289.5626 263.125417 
L 314.866267 236.441144 
L 326.049211 237.100727 
L 300.764817 260.745093 
z
" clip-path="url(#pe181d80b7a)" style="fill: #bf3984"/>
    <path d="M 326.049211 237.100727 
L 351.901478 223.752881 
L 362.836996 226.432476 
L 337.077936 238.267662 
z
" clip-path="url(#pe181d80b7a)" style="fill: #d5536f"/>
    <path d="M 362.836996 226.432476 
L 388.998935 217.169995 
L 399.652096 220.715963 
L 373.610516 229.894743 
z
" clip-path="url(#pe181d80b7a)" style="fill: #dc5d67"/>
    <path d="M 278.229125 266.424028 
L 303.531036 236.441738 
L 314.866267 236.441144 
L 289.5626 263.125417 
z
" clip-path="url(#pe181d80b7a)" style="fill: #ca457a"/>
    <path d="M 388.998935 217.169995 
L 415.536877 209.878537 
L 426.043998 215.328506 
L 399.652096 220.715963 
z
" clip-path="url(#pe181d80b7a)" style="fill: #eb7655"/>
    <path d="M 314.866267 236.441144 
L 340.805331 221.857416 
L 351.901478 223.752881 
L 326.049211 237.100727 
z
" clip-path="url(#pe181d80b7a)" style="fill: #e16462"/>
    <path d="M 351.901478 223.752881 
L 378.180381 214.260579 
L 388.998935 217.169995 
L 362.836996 226.432476 
z
" clip-path="url(#pe181d80b7a)" style="fill: #e97158"/>
    <path d="M 266.769121 270.731455 
L 292.062454 238.243386 
L 303.531036 236.441738 
L 278.229125 266.424028 
z
" clip-path="url(#pe181d80b7a)" style="fill: #d24f71"/>
    <path d="M 415.536877 209.878537 
L 442.368026 209.422743 
L 452.708811 215.642984 
L 426.043998 215.328506 
z
" clip-path="url(#pe181d80b7a)" style="fill: #f48948"/>
    <path d="M 303.531036 236.441738 
L 329.553853 221.188342 
L 340.805331 221.857416 
L 314.866267 236.441144 
z
" clip-path="url(#pe181d80b7a)" style="fill: #eb7556"/>
    <path d="M 378.180381 214.260579 
L 404.849479 206.013988 
L 415.536877 209.878537 
L 388.998935 217.169995 
z
" clip-path="url(#pe181d80b7a)" style="fill: #f68d45"/>
    <path d="M 340.805331 221.857416 
L 367.197953 212.633567 
L 378.180381 214.260579 
L 351.901478 223.752881 
z
" clip-path="url(#pe181d80b7a)" style="fill: #f3854b"/>
    <path d="M 255.174235 275.530167 
L 280.451474 240.883744 
L 292.062454 238.243386 
L 266.769121 270.731455 
z
" clip-path="url(#pe181d80b7a)" style="fill: #d9586a"/>
    <path d="M 442.368026 209.422743 
L 469.433514 213.579992 
L 479.592812 220.284541 
L 452.708811 215.642984 
z
" clip-path="url(#pe181d80b7a)" style="fill: #f79342"/>
    <path d="M 404.849479 206.013988 
L 431.831339 205.353369 
L 442.368026 209.422743 
L 415.536877 209.878537 
z
" clip-path="url(#pe181d80b7a)" style="fill: #fca338"/>
    <path d="M 292.062454 238.243386 
L 318.150929 221.709008 
L 329.553853 221.188342 
L 303.531036 236.441738 
z
" clip-path="url(#pe181d80b7a)" style="fill: #f2844b"/>
    <path d="M 329.553853 221.188342 
L 356.055878 212.232539 
L 367.197953 212.633567 
L 340.805331 221.857416 
z
" clip-path="url(#pe181d80b7a)" style="fill: #f9983e"/>
    <path d="M 367.197953 212.633567 
L 393.986337 204.173949 
L 404.849479 206.013988 
L 378.180381 214.260579 
z
" clip-path="url(#pe181d80b7a)" style="fill: #fca338"/>
    <path d="M 469.433514 213.579992 
L 496.653321 222.993365 
L 506.605662 230.452945 
L 479.592812 220.284541 
z
" clip-path="url(#pe181d80b7a)" style="fill: #f79342"/>
    <path d="M 243.441423 280.693558 
L 268.708433 244.765253 
L 280.451474 240.883744 
L 255.174235 275.530167 
z
" clip-path="url(#pe181d80b7a)" style="fill: #de6164"/>
    <path d="M 496.653321 222.993365 
L 523.965644 237.110971 
L 533.708349 244.726505 
L 506.605662 230.452945 
z
" clip-path="url(#pe181d80b7a)" style="fill: #f48948"/>
    <path d="M 431.831339 205.353369 
L 459.05937 209.516871 
L 469.433514 213.579992 
L 442.368026 209.422743 
z
" clip-path="url(#pe181d80b7a)" style="fill: #fdaf31"/>
    <path d="M 280.451474 240.883744 
L 306.599225 223.304966 
L 318.150929 221.709008 
L 292.062454 238.243386 
z
" clip-path="url(#pe181d80b7a)" style="fill: #f79143"/>
    <path d="M 393.986337 204.173949 
L 421.108861 203.324153 
L 431.831339 205.353369 
L 404.849479 206.013988 
z
" clip-path="url(#pe181d80b7a)" style="fill: #febd2a"/>
    <path d="M 523.965644 237.110971 
L 551.322465 255.259628 
L 560.853525 262.722587 
L 533.708349 244.726505 
z
" clip-path="url(#pe181d80b7a)" style="fill: #ed7a52"/>
    <path d="M 318.150929 221.709008 
L 344.757737 212.951507 
L 356.055878 212.232539 
L 329.553853 221.188342 
z
" clip-path="url(#pe181d80b7a)" style="fill: #fca934"/>
    <path d="M 356.055878 212.232539 
L 382.955245 205.238773 
L 393.986337 204.173949 
L 367.197953 212.633567 
z
" clip-path="url(#pe181d80b7a)" style="fill: #feb82c"/>
    <path d="M 231.60015 287.319053 
L 256.847029 250.275732 
L 268.708433 244.765253 
L 243.441423 280.693558 
z
" clip-path="url(#pe181d80b7a)" style="fill: #e26660"/>
    <path d="M 459.05937 209.516871 
L 486.456322 218.904392 
L 496.653321 222.993365 
L 469.433514 213.579992 
z
" clip-path="url(#pe181d80b7a)" style="fill: #fdaf31"/>
    <path d="M 551.322465 255.259628 
L 578.668425 277.288404 
L 587.983538 284.481921 
L 560.853525 262.722587 
z
" clip-path="url(#pe181d80b7a)" style="fill: #e16462"/>
    <path d="M 421.108861 203.324153 
L 448.480415 208.234777 
L 459.05937 209.516871 
L 431.831339 205.353369 
z
" clip-path="url(#pe181d80b7a)" style="fill: #fdc827"/>
    <path d="M 486.456322 218.904392 
L 513.932752 234.001833 
L 523.965644 237.110971 
L 496.653321 222.993365 
z
" clip-path="url(#pe181d80b7a)" style="fill: #fca636"/>
    <path d="M 268.708433 244.765253 
L 294.8996 225.801317 
L 306.599225 223.304966 
L 280.451474 240.883744 
z
" clip-path="url(#pe181d80b7a)" style="fill: #fa9e3b"/>
    <path d="M 382.955245 205.238773 
L 410.205828 203.898649 
L 421.108861 203.324153 
L 393.986337 204.173949 
z
" clip-path="url(#pe181d80b7a)" style="fill: #fcd225"/>
    <path d="M 219.656102 295.366732 
L 244.852288 256.499712 
L 256.847029 250.275732 
L 231.60015 287.319053 
z
" clip-path="url(#pe181d80b7a)" style="fill: #e56b5d"/>
    <path d="M 306.599225 223.304966 
L 333.308966 215.011058 
L 344.757737 212.951507 
L 318.150929 221.709008 
z
" clip-path="url(#pe181d80b7a)" style="fill: #feba2c"/>
    <path d="M 344.757737 212.951507 
L 371.769761 208.012428 
L 382.955245 205.238773 
L 356.055878 212.232539 
z
" clip-path="url(#pe181d80b7a)" style="fill: #fdca26"/>
    <path d="M 513.932752 234.001833 
L 541.475172 252.462807 
L 551.322465 255.259628 
L 523.965644 237.110971 
z
" clip-path="url(#pe181d80b7a)" style="fill: #f89441"/>
    <path d="M 448.480415 208.234777 
L 476.024293 218.524511 
L 486.456322 218.904392 
L 459.05937 209.516871 
z
" clip-path="url(#pe181d80b7a)" style="fill: #fdc827"/>
    <path d="M 541.475172 252.462807 
L 568.99445 275.337726 
L 578.668425 277.288404 
L 551.322465 255.259628 
z
" clip-path="url(#pe181d80b7a)" style="fill: #ef7c51"/>
    <path d="M 256.847029 250.275732 
L 283.052833 229.101898 
L 294.8996 225.801317 
L 268.708433 244.765253 
z
" clip-path="url(#pe181d80b7a)" style="fill: #fca835"/>
    <path d="M 410.205828 203.898649 
L 437.704957 210.152655 
L 448.480415 208.234777 
L 421.108861 203.324153 
z
" clip-path="url(#pe181d80b7a)" style="fill: #f9dd25"/>
    <path d="M 207.622875 305.047891 
L 232.731271 263.637737 
L 244.852288 256.499712 
L 219.656102 295.366732 
z
" clip-path="url(#pe181d80b7a)" style="fill: #e76e5b"/>
    <path d="M 476.024293 218.524511 
L 503.651203 234.591115 
L 513.932752 234.001833 
L 486.456322 218.904392 
z
" clip-path="url(#pe181d80b7a)" style="fill: #febd2a"/>
    <path d="M 371.769761 208.012428 
L 399.134527 207.134034 
L 410.205828 203.898649 
L 382.955245 205.238773 
z
" clip-path="url(#pe181d80b7a)" style="fill: #f8e125"/>
    <path d="M 294.8996 225.801317 
L 321.716219 218.552568 
L 333.308966 215.011058 
L 306.599225 223.304966 
z
" clip-path="url(#pe181d80b7a)" style="fill: #fdc827"/>
    <path d="M 333.308966 215.011058 
L 360.436356 212.17137 
L 371.769761 208.012428 
L 344.757737 212.951507 
z
" clip-path="url(#pe181d80b7a)" style="fill: #fad824"/>
    <path d="M 503.651203 234.591115 
L 531.331766 254.424645 
L 541.475172 252.462807 
L 513.932752 234.001833 
z
" clip-path="url(#pe181d80b7a)" style="fill: #fca835"/>
    <path d="M 437.704957 210.152655 
L 465.382321 221.453079 
L 476.024293 218.524511 
L 448.480415 208.234777 
z
" clip-path="url(#pe181d80b7a)" style="fill: #fada24"/>
    <path d="M 531.331766 254.424645 
L 559.022215 277.62016 
L 568.99445 275.337726 
L 541.475172 252.462807 
z
" clip-path="url(#pe181d80b7a)" style="fill: #f68d45"/>
    <path d="M 195.445951 314.537441 
L 220.517399 272.717749 
L 232.731271 263.637737 
L 207.622875 305.047891 
z
" clip-path="url(#pe181d80b7a)" style="fill: #e76f5a"/>
    <path d="M 244.852288 256.499712 
L 271.06911 233.625694 
L 283.052833 229.101898 
L 256.847029 250.275732 
z
" clip-path="url(#pe181d80b7a)" style="fill: #fdb130"/>
    <path d="M 399.134527 207.134034 
L 426.756722 214.453594 
L 437.704957 210.152655 
L 410.205828 203.898649 
z
" clip-path="url(#pe181d80b7a)" style="fill: #f4ed27"/>
    <path d="M 465.382321 221.453079 
L 493.134319 239.099417 
L 503.651203 234.591115 
L 476.024293 218.524511 
z
" clip-path="url(#pe181d80b7a)" style="fill: #fccd25"/>
    <path d="M 360.436356 212.17137 
L 387.909829 212.270941 
L 399.134527 207.134034 
L 371.769761 208.012428 
z
" clip-path="url(#pe181d80b7a)" style="fill: #f3ee27"/>
    <path d="M 283.052833 229.101898 
L 309.985043 223.51664 
L 321.716219 218.552568 
L 294.8996 225.801317 
z
" clip-path="url(#pe181d80b7a)" style="fill: #fbd524"/>
    <path d="M 321.716219 218.552568 
L 348.96111 217.812835 
L 360.436356 212.17137 
L 333.308966 215.011058 
z
" clip-path="url(#pe181d80b7a)" style="fill: #f7e425"/>
    <path d="M 493.134319 239.099417 
L 520.945773 260.062884 
L 531.331766 254.424645 
L 503.651203 234.591115 
z
" clip-path="url(#pe181d80b7a)" style="fill: #fdb42f"/>
    <path d="M 426.756722 214.453594 
L 454.542638 227.984515 
L 465.382321 221.453079 
L 437.704957 210.152655 
z
" clip-path="url(#pe181d80b7a)" style="fill: #f6e826"/>
    <path d="M 183.168805 325.132722 
L 208.211311 283.429042 
L 220.517399 272.717749 
L 195.445951 314.537441 
z
" clip-path="url(#pe181d80b7a)" style="fill: #e76f5a"/>
    <path d="M 520.945773 260.062884 
L 548.752751 284.738912 
L 559.022215 277.62016 
L 531.331766 254.424645 
z
" clip-path="url(#pe181d80b7a)" style="fill: #f9973f"/>
    <path d="M 232.731271 263.637737 
L 258.962298 239.781334 
L 271.06911 233.625694 
L 244.852288 256.499712 
z
" clip-path="url(#pe181d80b7a)" style="fill: #feb82c"/>
    <path d="M 387.909829 212.270941 
L 415.638631 222.302113 
L 426.756722 214.453594 
L 399.134527 207.134034 
z
" clip-path="url(#pe181d80b7a)" style="fill: #f1f525"/>
    <path d="M 454.542638 227.984515 
L 482.428499 246.20283 
L 493.134319 239.099417 
L 465.382321 221.453079 
z
" clip-path="url(#pe181d80b7a)" style="fill: #fbd524"/>
    <path d="M 348.96111 217.812835 
L 376.540541 220.060049 
L 387.909829 212.270941 
L 360.436356 212.17137 
z
" clip-path="url(#pe181d80b7a)" style="fill: #f1f525"/>
    <path d="M 271.06911 233.625694 
L 298.120227 229.815623 
L 309.985043 223.51664 
L 283.052833 229.101898 
z
" clip-path="url(#pe181d80b7a)" style="fill: #f8df25"/>
    <path d="M 309.985043 223.51664 
L 337.353047 225.296974 
L 348.96111 217.812835 
L 321.716219 218.552568 
z
" clip-path="url(#pe181d80b7a)" style="fill: #f4ed27"/>
    <path d="M 482.428499 246.20283 
L 510.333615 269.455587 
L 520.945773 260.062884 
L 493.134319 239.099417 
z
" clip-path="url(#pe181d80b7a)" style="fill: #feba2c"/>
    <path d="M 171.0111 342.283344 
L 195.781977 294.617293 
L 208.211311 283.429042 
L 183.168805 325.132722 
z
" clip-path="url(#pe181d80b7a)" style="fill: #e56a5d"/>
    <path d="M 415.638631 222.302113 
L 443.548089 236.212141 
L 454.542638 227.984515 
L 426.756722 214.453594 
z
" clip-path="url(#pe181d80b7a)" style="fill: #f4ed27"/>
    <path d="M 510.333615 269.455587 
L 538.203316 296.94076 
L 548.752751 284.738912 
L 520.945773 260.062884 
z
" clip-path="url(#pe181d80b7a)" style="fill: #f99a3e"/>
    <path d="M 220.517399 272.717749 
L 246.747361 247.860394 
L 258.962298 239.781334 
L 232.731271 263.637737 
z
" clip-path="url(#pe181d80b7a)" style="fill: #febb2b"/>
    <path d="M 376.540541 220.060049 
L 404.3844 230.907599 
L 415.638631 222.302113 
L 387.909829 212.270941 
z
" clip-path="url(#pe181d80b7a)" style="fill: #f0f921"/>
    <path d="M 443.548089 236.212141 
L 471.538187 256.356786 
L 482.428499 246.20283 
L 454.542638 227.984515 
z
" clip-path="url(#pe181d80b7a)" style="fill: #fad824"/>
    <path d="M 337.353047 225.296974 
L 365.040922 230.654762 
L 376.540541 220.060049 
L 348.96111 217.812835 
z
" clip-path="url(#pe181d80b7a)" style="fill: #f0f921"/>
    <path d="M 298.120227 229.815623 
L 325.62172 234.685311 
L 337.353047 225.296974 
L 309.985043 223.51664 
z
" clip-path="url(#pe181d80b7a)" style="fill: #f2f227"/>
    <path d="M 258.962298 239.781334 
L 286.124176 237.25782 
L 298.120227 229.815623 
L 271.06911 233.625694 
z
" clip-path="url(#pe181d80b7a)" style="fill: #f6e626"/>
    <path d="M 158.801866 360.814652 
L 183.211438 305.785566 
L 195.781977 294.617293 
L 171.0111 342.283344 
z
" clip-path="url(#pe181d80b7a)" style="fill: #df6263"/>
    <path d="M 471.538187 256.356786 
L 499.523622 282.2203 
L 510.333615 269.455587 
L 482.428499 246.20283 
z
" clip-path="url(#pe181d80b7a)" style="fill: #feb82c"/>
    <path d="M 404.3844 230.907599 
L 432.398096 246.908216 
L 443.548089 236.212141 
L 415.638631 222.302113 
z
" clip-path="url(#pe181d80b7a)" style="fill: #f3ee27"/>
    <path d="M 499.523622 282.2203 
L 527.445804 312.66663 
L 538.203316 296.94076 
L 510.333615 269.455587 
z
" clip-path="url(#pe181d80b7a)" style="fill: #f89441"/>
    <path d="M 208.211311 283.429042 
L 234.408191 256.883458 
L 246.747361 247.860394 
L 220.517399 272.717749 
z
" clip-path="url(#pe181d80b7a)" style="fill: #febd2a"/>
    <path d="M 365.040922 230.654762 
L 392.992596 241.334295 
L 404.3844 230.907599 
L 376.540541 220.060049 
z
" clip-path="url(#pe181d80b7a)" style="fill: #f0f921"/>
    <path d="M 432.398096 246.908216 
L 460.484155 269.24699 
L 471.538187 256.356786 
L 443.548089 236.212141 
z
" clip-path="url(#pe181d80b7a)" style="fill: #fbd524"/>
    <path d="M 325.62172 234.685311 
L 353.417956 242.129274 
L 365.040922 230.654762 
L 337.353047 225.296974 
z
" clip-path="url(#pe181d80b7a)" style="fill: #f0f921"/>
    <path d="M 286.124176 237.25782 
L 313.764676 244.953173 
L 325.62172 234.685311 
L 298.120227 229.815623 
z
" clip-path="url(#pe181d80b7a)" style="fill: #f1f426"/>
    <path d="M 246.747361 247.860394 
L 274.014457 246.520002 
L 286.124176 237.25782 
L 258.962298 239.781334 
z
" clip-path="url(#pe181d80b7a)" style="fill: #f5e926"/>
    <path d="M 460.484155 269.24699 
L 488.531247 298.462207 
L 499.523622 282.2203 
L 471.538187 256.356786 
z
" clip-path="url(#pe181d80b7a)" style="fill: #fdb22f"/>
    <path d="M 488.531247 298.462207 
L 516.483504 332.487338 
L 527.445804 312.66663 
L 499.523622 282.2203 
z
" clip-path="url(#pe181d80b7a)" style="fill: #f48849"/>
    <path d="M 392.992596 241.334295 
L 421.106202 259.966678 
L 432.398096 246.908216 
L 404.3844 230.907599 
z
" clip-path="url(#pe181d80b7a)" style="fill: #f5eb27"/>
    <path d="M 195.781977 294.617293 
L 221.960674 267.278222 
L 234.408191 256.883458 
L 208.211311 283.429042 
z
" clip-path="url(#pe181d80b7a)" style="fill: #febb2b"/>
    <path d="M 353.417956 242.129274 
L 381.471839 253.804617 
L 392.992596 241.334295 
L 365.040922 230.654762 
z
" clip-path="url(#pe181d80b7a)" style="fill: #f1f525"/>
    <path d="M 421.106202 259.966678 
L 449.27454 285.320591 
L 460.484155 269.24699 
L 432.398096 246.908216 
z
" clip-path="url(#pe181d80b7a)" style="fill: #fccd25"/>
    <path d="M 477.376871 318.103175 
L 505.345017 356.160578 
L 516.483504 332.487338 
L 488.531247 298.462207 
z
" clip-path="url(#pe181d80b7a)" style="fill: #eb7655"/>
    <path d="M 313.764676 244.953173 
L 341.675062 254.551301 
L 353.417956 242.129274 
L 325.62172 234.685311 
z
" clip-path="url(#pe181d80b7a)" style="fill: #f1f525"/>
    <path d="M 449.27454 285.320591 
L 477.376871 318.103175 
L 488.531247 298.462207 
L 460.484155 269.24699 
z
" clip-path="url(#pe181d80b7a)" style="fill: #fca537"/>
    <path d="M 274.014457 246.520002 
L 301.76913 254.986441 
L 313.764676 244.953173 
L 286.124176 237.25782 
z
" clip-path="url(#pe181d80b7a)" style="fill: #f1f525"/>
    <path d="M 234.408191 256.883458 
L 261.794807 257.340385 
L 274.014457 246.520002 
L 246.747361 247.860394 
z
" clip-path="url(#pe181d80b7a)" style="fill: #f5eb27"/>
    <path d="M 381.471839 253.804617 
L 409.682732 275.710925 
L 421.106202 259.966678 
L 392.992596 241.334295 
z
" clip-path="url(#pe181d80b7a)" style="fill: #f7e225"/>
    <path d="M 466.076836 341.296868 
L 494.054674 383.575654 
L 505.345017 356.160578 
L 477.376871 318.103175 
z
" clip-path="url(#pe181d80b7a)" style="fill: #de6164"/>
    <path d="M 409.682732 275.710925 
L 437.923108 304.903247 
L 449.27454 285.320591 
L 421.106202 259.966678 
z
" clip-path="url(#pe181d80b7a)" style="fill: #fec029"/>
    <path d="M 183.211438 305.785566 
L 209.454877 280.416928 
L 221.960674 267.278222 
L 195.781977 294.617293 
z
" clip-path="url(#pe181d80b7a)" style="fill: #feb72d"/>
    <path d="M 437.923108 304.903247 
L 466.076836 341.296868 
L 477.376871 318.103175 
L 449.27454 285.320591 
z
" clip-path="url(#pe181d80b7a)" style="fill: #f79342"/>
    <path d="M 341.675062 254.551301 
L 369.832961 268.533347 
L 381.471839 253.804617 
L 353.417956 242.129274 
z
" clip-path="url(#pe181d80b7a)" style="fill: #f3ee27"/>
    <path d="M 301.76913 254.986441 
L 329.818999 268.287243 
L 341.675062 254.551301 
L 313.764676 244.953173 
z
" clip-path="url(#pe181d80b7a)" style="fill: #f3f027"/>
    <path d="M 454.656665 367.712029 
L 482.641767 414.369563 
L 494.054674 383.575654 
L 466.076836 341.296868 
z
" clip-path="url(#pe181d80b7a)" style="fill: #cb4679"/>
    <path d="M 261.794807 257.340385 
L 289.657898 266.4635 
L 301.76913 254.986441 
L 274.014457 246.520002 
z
" clip-path="url(#pe181d80b7a)" style="fill: #f2f227"/>
    <path d="M 369.832961 268.533347 
L 398.14295 294.037828 
L 409.682732 275.710925 
L 381.471839 253.804617 
z
" clip-path="url(#pe181d80b7a)" style="fill: #fbd724"/>
    <path d="M 221.960674 267.278222 
L 249.426762 267.792497 
L 261.794807 257.340385 
L 234.408191 256.883458 
z
" clip-path="url(#pe181d80b7a)" style="fill: #f5e926"/>
    <path d="M 426.455852 327.388819 
L 454.656665 367.712029 
L 466.076836 341.296868 
L 437.923108 304.903247 
z
" clip-path="url(#pe181d80b7a)" style="fill: #ee7b51"/>
    <path d="M 443.13994 396.997573 
L 471.135151 448.074364 
L 482.641767 414.369563 
L 454.656665 367.712029 
z
" clip-path="url(#pe181d80b7a)" style="fill: #ae2892"/>
    <path d="M 398.14295 294.037828 
L 426.455852 327.388819 
L 437.923108 304.903247 
L 409.682732 275.710925 
z
" clip-path="url(#pe181d80b7a)" style="fill: #fdac33"/>
    <path d="M 329.818999 268.287243 
L 358.0882 285.495349 
L 369.832961 268.533347 
L 341.675062 254.551301 
z
" clip-path="url(#pe181d80b7a)" style="fill: #f7e225"/>
    <path d="M 431.545576 429.008482 
L 459.559576 484.266175 
L 471.135151 448.074364 
L 443.13994 396.997573 
z
" clip-path="url(#pe181d80b7a)" style="fill: #8707a6"/>
    <path d="M 419.893241 463.425117 
L 447.936499 522.532836 
L 459.559576 484.266175 
L 431.545576 429.008482 
z
" clip-path="url(#pe181d80b7a)" style="fill: #5302a3"/>
    <path d="M 414.891297 352.554483 
L 443.13994 396.997573 
L 454.656665 367.712029 
L 426.455852 327.388819 
z
" clip-path="url(#pe181d80b7a)" style="fill: #df6263"/>
    <path d="M 289.657898 266.4635 
L 317.860861 283.781179 
L 329.818999 268.287243 
L 301.76913 254.986441 
z
" clip-path="url(#pe181d80b7a)" style="fill: #f5e926"/>
    <path d="M 408.20171 499.697576 
L 436.283094 562.556312 
L 447.936499 522.532836 
L 419.893241 463.425117 
z
" clip-path="url(#pe181d80b7a)" style="fill: #0d0887"/>
    <path d="M 358.0882 285.495349 
L 386.501425 314.973682 
L 398.14295 294.037828 
L 369.832961 268.533347 
z
" clip-path="url(#pe181d80b7a)" style="fill: #fdc527"/>
    <path d="M 386.501425 314.973682 
L 414.891297 352.554483 
L 426.455852 327.388819 
L 398.14295 294.037828 
z
" clip-path="url(#pe181d80b7a)" style="fill: #f9973f"/>
    <path d="M 249.426762 267.792497 
L 277.438873 279.433401 
L 289.657898 266.4635 
L 261.794807 257.340385 
z
" clip-path="url(#pe181d80b7a)" style="fill: #f3ee27"/>
    <path d="M 403.246593 380.164924 
L 431.545576 429.008482 
L 443.13994 396.997573 
L 414.891297 352.554483 
z
" clip-path="url(#pe181d80b7a)" style="fill: #ca457a"/>
    <path d="M 209.454877 280.416928 
L 236.927355 278.743805 
L 249.426762 267.792497 
L 221.960674 267.278222 
z
" clip-path="url(#pe181d80b7a)" style="fill: #f6e626"/>
    <path d="M 317.860861 283.781179 
L 346.256108 305.734064 
L 358.0882 285.495349 
L 329.818999 268.287243 
z
" clip-path="url(#pe181d80b7a)" style="fill: #fbd324"/>
    <path d="M 391.536784 410.15567 
L 419.893241 463.425117 
L 431.545576 429.008482 
L 403.246593 380.164924 
z
" clip-path="url(#pe181d80b7a)" style="fill: #ad2793"/>
    <path d="M 374.773316 338.249284 
L 403.246593 380.164924 
L 414.891297 352.554483 
L 386.501425 314.973682 
z
" clip-path="url(#pe181d80b7a)" style="fill: #ef7e50"/>
    <path d="M 346.256108 305.734064 
L 374.773316 338.249284 
L 386.501425 314.973682 
L 358.0882 285.495349 
z
" clip-path="url(#pe181d80b7a)" style="fill: #fdaf31"/>
    <path d="M 277.438873 279.433401 
L 305.807524 300.841973 
L 317.860861 283.781179 
L 289.657898 266.4635 
z
" clip-path="url(#pe181d80b7a)" style="fill: #f8df25"/>
    <path d="M 379.776916 442.282528 
L 408.20171 499.697576 
L 419.893241 463.425117 
L 391.536784 410.15567 
z
" clip-path="url(#pe181d80b7a)" style="fill: #8405a7"/>
    <path d="M 362.972694 363.931661 
L 391.536784 410.15567 
L 403.246593 380.164924 
L 374.773316 338.249284 
z
" clip-path="url(#pe181d80b7a)" style="fill: #e06363"/>
    <path d="M 236.927355 278.743805 
L 265.116187 293.735123 
L 277.438873 279.433401 
L 249.426762 267.792497 
z
" clip-path="url(#pe181d80b7a)" style="fill: #f5e926"/>
    <path d="M 305.807524 300.841973 
L 334.35256 328.721867 
L 346.256108 305.734064 
L 317.860861 283.781179 
z
" clip-path="url(#pe181d80b7a)" style="fill: #fec029"/>
    <path d="M 334.35256 328.721867 
L 362.972694 363.931661 
L 374.773316 338.249284 
L 346.256108 305.734064 
z
" clip-path="url(#pe181d80b7a)" style="fill: #f9973f"/>
    <path d="M 351.112194 391.581042 
L 379.776916 442.282528 
L 391.536784 410.15567 
L 362.972694 363.931661 
z
" clip-path="url(#pe181d80b7a)" style="fill: #cb4679"/>
    <path d="M 265.116187 293.735123 
L 293.663477 319.223286 
L 305.807524 300.841973 
L 277.438873 279.433401 
z
" clip-path="url(#pe181d80b7a)" style="fill: #fcd225"/>
    <path d="M 322.376542 352.720935 
L 351.112194 391.581042 
L 362.972694 363.931661 
L 334.35256 328.721867 
z
" clip-path="url(#pe181d80b7a)" style="fill: #ef7c51"/>
    <path d="M 293.663477 319.223286 
L 322.376542 352.720935 
L 334.35256 328.721867 
L 305.807524 300.841973 
z
" clip-path="url(#pe181d80b7a)" style="fill: #fdab33"/>
   </g>
  </g>
 </g>
 <defs>
  <clipPath id="pe181d80b7a">
   <rect x="90" y="63" width="558" height="558"/>
  </clipPath>
 </defs>
</svg>
