<?xml version="1.0" encoding="utf-8" standalone="no"?>
<!DOCTYPE svg PUBLIC "-//W3C//DTD SVG 1.1//EN"
  "http://www.w3.org/Graphics/SVG/1.1/DTD/svg11.dtd">
<svg xmlns:xlink="http://www.w3.org/1999/xlink" width="720pt" height="720pt" viewBox="0 0 720 720" xmlns="http://www.w3.org/2000/svg" version="1.1">
 <metadata>
  <rdf:RDF xmlns:dc="http://purl.org/dc/elements/1.1/" xmlns:cc="http://creativecommons.org/ns#" xmlns:rdf="http://www.w3.org/1999/02/22-rdf-syntax-ns#">
   <cc:Work>
    <dc:type rdf:resource="http://purl.org/dc/dcmitype/StillImage"/>
    <dc:date>2024-09-30T15:20:42.172072</dc:date>
    <dc:format>image/svg+xml</dc:format>
    <dc:creator>
     <cc:Agent>
      <dc:title>Matplotlib v3.8.4, https://matplotlib.org/</dc:title>
     </cc:Agent>
    </dc:creator>
   </cc:Work>
  </rdf:RDF>
 </metadata>
 <defs>
  <style type="text/css">*{stroke-linejoin: round; stroke-linecap: butt}</style>
 </defs>
 <g id="figure_1">
  <g id="patch_1">
   <path d="M 0 720 
L 720 720 
L 720 0 
L 0 0 
z
" style="fill: #ffffff"/>
  </g>
  <g id="patch_2">
   <path d="M 90 621 
L 648 621 
L 648 63 
L 90 63 
z
" style="fill: #ffffff"/>
  </g>
  <g id="pane3d_1">
   <g id="patch_3">
    <path d="M 376.540541 325.019272 
L 624.90001 448.525829 
L 636.240625 215.184579 
L 376.540541 102.621726 
" style="fill: #f2f2f2; opacity: 0.5; stroke: #f2f2f2; stroke-linejoin: miter"/>
   </g>
  </g>
  <g id="pane3d_2">
   <g id="patch_4">
    <path d="M 376.540541 325.019272 
L 128.181071 448.525829 
L 116.840456 215.184579 
L 376.540541 102.621726 
" style="fill: #e6e6e6; opacity: 0.5; stroke: #e6e6e6; stroke-linejoin: miter"/>
   </g>
  </g>
  <g id="pane3d_3">
   <g id="patch_5">
    <path d="M 376.540541 325.019272 
L 128.181071 448.525829 
L 376.540541 590.999359 
L 624.90001 448.525829 
" style="fill: #ececec; opacity: 0.5; stroke: #ececec; stroke-linejoin: miter"/>
   </g>
  </g>
  <g id="grid3d_1">
   <g id="Line3DCollection_1">
    <path d="M 610.155436 456.98418 
L 361.725101 332.386834 
L 361.092749 109.317325 
" style="fill: none; stroke: #b0b0b0; stroke-width: 0.8"/>
    <path d="M 569.014408 480.585082 
L 320.433831 352.92055 
L 318.009591 127.991031 
" style="fill: none; stroke: #b0b0b0; stroke-width: 0.8"/>
    <path d="M 526.818176 504.791311 
L 278.155989 373.944877 
L 273.852017 147.130426 
" style="fill: none; stroke: #b0b0b0; stroke-width: 0.8"/>
    <path d="M 483.525617 529.626457 
L 234.855789 395.477612 
L 228.579326 166.753151 
" style="fill: none; stroke: #b0b0b0; stroke-width: 0.8"/>
    <path d="M 439.093441 555.115354 
L 190.495694 417.537421 
L 182.14874 186.877747 
" style="fill: none; stroke: #b0b0b0; stroke-width: 0.8"/>
    <path d="M 393.476049 581.28416 
L 145.036306 440.143898 
L 134.51526 207.523718 
" style="fill: none; stroke: #b0b0b0; stroke-width: 0.8"/>
   </g>
  </g>
  <g id="grid3d_2">
   <g id="Line3DCollection_2">
    <path d="M 413.398075 118.597035 
L 411.880464 342.593445 
L 163.366748 468.710393 
" style="fill: none; stroke: #b0b0b0; stroke-width: 0.8"/>
    <path d="M 457.013479 137.501436 
L 453.660653 363.370295 
L 205.030367 492.611084 
" style="fill: none; stroke: #b0b0b0; stroke-width: 0.8"/>
    <path d="M 501.723397 156.880235 
L 496.445094 384.646548 
L 247.76949 517.128747 
" style="fill: none; stroke: #b0b0b0; stroke-width: 0.8"/>
    <path d="M 547.569553 176.751519 
L 540.270435 406.44043 
L 291.626306 542.287584 
" style="fill: none; stroke: #b0b0b0; stroke-width: 0.8"/>
    <path d="M 594.595817 197.134303 
L 585.175131 428.771064 
L 336.64524 568.113079 
" style="fill: none; stroke: #b0b0b0; stroke-width: 0.8"/>
   </g>
  </g>
  <g id="grid3d_3">
   <g id="Line3DCollection_3">
    <path d="M 127.926032 443.278221 
L 376.540541 320.002917 
L 625.155049 443.278221 
" style="fill: none; stroke: #b0b0b0; stroke-width: 0.8"/>
    <path d="M 126.129718 406.317775 
L 376.540541 284.690676 
L 626.951363 406.317775 
" style="fill: none; stroke: #b0b0b0; stroke-width: 0.8"/>
    <path d="M 124.307257 368.819341 
L 376.540541 248.899148 
L 628.773824 368.819341 
" style="fill: none; stroke: #b0b0b0; stroke-width: 0.8"/>
    <path d="M 122.458074 330.771087 
L 376.540541 212.61851 
L 630.623007 330.771087 
" style="fill: none; stroke: #b0b0b0; stroke-width: 0.8"/>
    <path d="M 120.581578 292.160831 
L 376.540541 175.838667 
L 632.499503 292.160831 
" style="fill: none; stroke: #b0b0b0; stroke-width: 0.8"/>
    <path d="M 118.677158 252.976029 
L 376.540541 138.549244 
L 634.403923 252.976029 
" style="fill: none; stroke: #b0b0b0; stroke-width: 0.8"/>
   </g>
  </g>
  <g id="axis3d_1">
   <g id="line2d_1">
    <path d="M 624.90001 448.525829 
L 376.540541 590.999359 
" style="fill: none; stroke: #000000; stroke-width: 0.8; stroke-linecap: square"/>
   </g>
   <g id="xtick_1">
    <g id="line2d_2">
     <path d="M 608.026843 455.916609 
L 614.419949 459.122997 
" style="fill: none; stroke: #000000; stroke-width: 0.8; stroke-linecap: square"/>
    </g>
    <g id="text_1">
     <!-- $\mathdefault{7.2}$ -->
     <g transform="translate(610.956868 485.440737) scale(0.18 -0.18)">
      <defs>
       <path id="CMR17-37" d="M 2886 3941 
L 2886 4081 
L 1382 4081 
C 634 4081 621 4165 595 4288 
L 480 4288 
L 294 3094 
L 410 3094 
C 429 3215 474 3540 550 3661 
C 589 3712 1062 3712 1171 3712 
L 2579 3712 
L 1869 2661 
C 1395 1954 1069 999 1069 165 
C 1069 89 1069 -128 1299 -128 
C 1530 -128 1530 89 1530 171 
L 1530 465 
C 1530 1508 1709 2196 2003 2636 
L 2886 3941 
z
" transform="scale(0.015625)"/>
       <path id="CMMI12-3a" d="M 1178 307 
C 1178 492 1024 619 870 619 
C 685 619 557 466 557 313 
C 557 128 710 0 864 0 
C 1050 0 1178 153 1178 307 
z
" transform="scale(0.015625)"/>
       <path id="CMR17-32" d="M 2669 989 
L 2554 989 
C 2490 536 2438 459 2413 420 
C 2381 369 1920 369 1830 369 
L 602 369 
C 832 619 1280 1072 1824 1597 
C 2214 1967 2669 2402 2669 3035 
C 2669 3790 2067 4224 1395 4224 
C 691 4224 262 3604 262 3030 
C 262 2780 448 2748 525 2748 
C 589 2748 781 2787 781 3010 
C 781 3207 614 3264 525 3264 
C 486 3264 448 3258 422 3245 
C 544 3790 915 4058 1306 4058 
C 1862 4058 2227 3617 2227 3035 
C 2227 2479 1901 2000 1536 1584 
L 262 146 
L 262 0 
L 2515 0 
L 2669 989 
z
" transform="scale(0.015625)"/>
      </defs>
      <use xlink:href="#CMR17-37" transform="scale(0.996264)"/>
      <use xlink:href="#CMMI12-3a" transform="translate(45.690477 0) scale(0.996264)"/>
      <use xlink:href="#CMR17-32" transform="translate(72.787654 0) scale(0.996264)"/>
     </g>
    </g>
   </g>
   <g id="xtick_2">
    <g id="line2d_3">
     <path d="M 566.882741 479.490313 
L 573.285174 482.778437 
" style="fill: none; stroke: #000000; stroke-width: 0.8; stroke-linecap: square"/>
    </g>
    <g id="text_2">
     <!-- $\mathdefault{7.3}$ -->
     <g transform="translate(569.909372 509.274248) scale(0.18 -0.18)">
      <defs>
       <path id="CMR17-33" d="M 1414 2157 
C 1984 2157 2234 1662 2234 1090 
C 2234 320 1824 25 1453 25 
C 1114 25 563 194 390 693 
C 422 680 454 680 486 680 
C 640 680 755 782 755 948 
C 755 1133 614 1216 486 1216 
C 378 1216 211 1165 211 926 
C 211 335 787 -128 1466 -128 
C 2176 -128 2720 430 2720 1085 
C 2720 1707 2208 2157 1600 2227 
C 2086 2328 2554 2756 2554 3329 
C 2554 3820 2048 4179 1472 4179 
C 890 4179 378 3829 378 3329 
C 378 3110 544 3072 627 3072 
C 762 3072 877 3155 877 3321 
C 877 3486 762 3569 627 3569 
C 602 3569 570 3569 544 3557 
C 730 3959 1235 4032 1459 4032 
C 1683 4032 2106 3925 2106 3320 
C 2106 3143 2080 2828 1862 2550 
C 1670 2304 1453 2304 1242 2284 
C 1210 2284 1062 2269 1037 2269 
C 992 2263 966 2257 966 2208 
C 966 2163 973 2157 1101 2157 
L 1414 2157 
z
" transform="scale(0.015625)"/>
      </defs>
      <use xlink:href="#CMR17-37" transform="scale(0.996264)"/>
      <use xlink:href="#CMMI12-3a" transform="translate(45.690477 0) scale(0.996264)"/>
      <use xlink:href="#CMR17-33" transform="translate(72.787654 0) scale(0.996264)"/>
     </g>
    </g>
   </g>
   <g id="xtick_3">
    <g id="line2d_4">
     <path d="M 524.683975 503.668291 
L 531.094114 507.041316 
" style="fill: none; stroke: #000000; stroke-width: 0.8; stroke-linecap: square"/>
    </g>
    <g id="text_3">
     <!-- $\mathdefault{7.4}$ -->
     <g transform="translate(527.807727 533.719831) scale(0.18 -0.18)">
      <defs>
       <path id="CMR17-34" d="M 2150 4122 
C 2150 4256 2144 4256 2029 4256 
L 128 1254 
L 128 1088 
L 1779 1088 
L 1779 457 
C 1779 224 1766 160 1318 160 
L 1197 160 
L 1197 0 
C 1402 0 1747 0 1965 0 
C 2182 0 2528 0 2733 0 
L 2733 160 
L 2611 160 
C 2163 160 2150 224 2150 457 
L 2150 1088 
L 2803 1088 
L 2803 1254 
L 2150 1254 
L 2150 4122 
z
M 1798 3703 
L 1798 1254 
L 256 1254 
L 1798 3703 
z
" transform="scale(0.015625)"/>
      </defs>
      <use xlink:href="#CMR17-37" transform="scale(0.996264)"/>
      <use xlink:href="#CMMI12-3a" transform="translate(45.690477 0) scale(0.996264)"/>
      <use xlink:href="#CMR17-34" transform="translate(72.787654 0) scale(0.996264)"/>
     </g>
    </g>
   </g>
   <g id="xtick_4">
    <g id="line2d_5">
     <path d="M 481.389469 528.474078 
L 487.805553 531.935336 
" style="fill: none; stroke: #000000; stroke-width: 0.8; stroke-linecap: square"/>
    </g>
    <g id="text_4">
     <!-- $\mathdefault{7.5}$ -->
     <g transform="translate(484.6108 558.801371) scale(0.18 -0.18)">
      <defs>
       <path id="CMR17-35" d="M 730 3692 
C 794 3666 1056 3584 1325 3584 
C 1920 3584 2246 3911 2432 4100 
C 2432 4157 2432 4192 2394 4192 
C 2387 4192 2374 4192 2323 4163 
C 2099 4058 1837 3973 1517 3973 
C 1325 3973 1037 3999 723 4139 
C 653 4171 640 4171 634 4171 
C 602 4171 595 4164 595 4037 
L 595 2203 
C 595 2089 595 2057 659 2057 
C 691 2057 704 2070 736 2114 
C 941 2401 1222 2522 1542 2522 
C 1766 2522 2246 2382 2246 1289 
C 2246 1085 2246 715 2054 421 
C 1894 159 1645 25 1370 25 
C 947 25 518 320 403 814 
C 429 807 480 795 506 795 
C 589 795 749 840 749 1038 
C 749 1210 627 1280 506 1280 
C 358 1280 262 1190 262 1011 
C 262 454 704 -128 1382 -128 
C 2042 -128 2669 440 2669 1264 
C 2669 2030 2170 2624 1549 2624 
C 1222 2624 947 2503 730 2274 
L 730 3692 
z
" transform="scale(0.015625)"/>
      </defs>
      <use xlink:href="#CMR17-37" transform="scale(0.996264)"/>
      <use xlink:href="#CMMI12-3a" transform="translate(45.690477 0) scale(0.996264)"/>
      <use xlink:href="#CMR17-35" transform="translate(72.787654 0) scale(0.996264)"/>
     </g>
    </g>
   </g>
   <g id="xtick_5">
    <g id="line2d_6">
     <path d="M 436.955982 553.93245 
L 443.376105 557.485448 
" style="fill: none; stroke: #000000; stroke-width: 0.8; stroke-linecap: square"/>
    </g>
    <g id="text_5">
     <!-- $\mathdefault{7.6}$ -->
     <g transform="translate(440.275284 584.544013) scale(0.18 -0.18)">
      <defs>
       <path id="CMR17-36" d="M 678 2176 
C 678 3690 1395 4032 1811 4032 
C 1946 4032 2272 4009 2400 3776 
C 2298 3776 2106 3776 2106 3553 
C 2106 3381 2246 3323 2336 3323 
C 2394 3323 2566 3348 2566 3560 
C 2566 3954 2246 4179 1805 4179 
C 1043 4179 243 3390 243 1984 
C 243 253 966 -128 1478 -128 
C 2099 -128 2688 427 2688 1283 
C 2688 2081 2170 2662 1517 2662 
C 1126 2662 838 2407 678 1960 
L 678 2176 
z
M 1478 25 
C 691 25 691 1200 691 1436 
C 691 1896 909 2560 1504 2560 
C 1613 2560 1926 2560 2138 2120 
C 2253 1870 2253 1609 2253 1289 
C 2253 944 2253 690 2118 434 
C 1978 171 1773 25 1478 25 
z
" transform="scale(0.015625)"/>
      </defs>
      <use xlink:href="#CMR17-37" transform="scale(0.996264)"/>
      <use xlink:href="#CMMI12-3a" transform="translate(45.690477 0) scale(0.996264)"/>
      <use xlink:href="#CMR17-36" transform="translate(72.787654 0) scale(0.996264)"/>
     </g>
    </g>
   </g>
   <g id="xtick_6">
    <g id="line2d_7">
     <path d="M 391.337968 580.069502 
L 397.760063 583.717936 
" style="fill: none; stroke: #000000; stroke-width: 0.8; stroke-linecap: square"/>
    </g>
    <g id="text_6">
     <!-- $\mathdefault{7.7}$ -->
     <g transform="translate(394.755562 610.974242) scale(0.18 -0.18)">
      <use xlink:href="#CMR17-37" transform="scale(0.996264)"/>
      <use xlink:href="#CMMI12-3a" transform="translate(45.690477 0) scale(0.996264)"/>
      <use xlink:href="#CMR17-37" transform="translate(72.787654 0) scale(0.996264)"/>
     </g>
    </g>
   </g>
   <g id="text_7">
    <!-- $\lambda\:[-]$ -->
    <g transform="translate(526.900872 584.204249) rotate(-29.841106) scale(0.2 -0.2)">
     <defs>
      <path id="CMMI12-15" d="M 1978 3965 
C 1818 4416 1312 4416 1229 4416 
C 1190 4416 1120 4416 1120 4352 
C 1120 4302 1158 4295 1190 4289 
C 1286 4276 1363 4263 1466 4080 
C 1530 3959 2189 2059 2189 2046 
C 2189 2040 2182 2033 2131 1982 
L 467 311 
C 390 234 339 183 339 102 
C 339 12 416 -64 518 -64 
C 544 -64 614 -51 653 -13 
C 755 82 1670 1194 2253 1881 
C 2419 1383 2624 797 2822 261 
C 2854 166 2886 76 2976 -6 
C 3040 -64 3053 -64 3232 -64 
L 3354 -64 
C 3379 -64 3424 -64 3424 -13 
C 3424 13 3418 19 3392 45 
C 3334 115 3290 229 3264 306 
L 1978 3965 
z
" transform="scale(0.015625)"/>
      <path id="CMR17-5b" d="M 1504 -1600 
L 1504 -1377 
L 902 -1377 
L 902 4544 
L 1504 4544 
L 1504 4767 
L 678 4767 
L 678 -1600 
L 1504 -1600 
z
" transform="scale(0.015625)"/>
      <path id="CMSY10-0" d="M 4218 1472 
C 4326 1472 4442 1472 4442 1600 
C 4442 1728 4326 1728 4218 1728 
L 755 1728 
C 646 1728 531 1728 531 1600 
C 531 1472 646 1472 755 1472 
L 4218 1472 
z
" transform="scale(0.015625)"/>
      <path id="CMR17-5d" d="M 915 4767 
L 90 4767 
L 90 4544 
L 691 4544 
L 691 -1377 
L 90 -1377 
L 90 -1600 
L 915 -1600 
L 915 4767 
z
" transform="scale(0.015625)"/>
     </defs>
     <use xlink:href="#CMMI12-15" transform="scale(0.996264)"/>
     <use xlink:href="#CMR17-5b" transform="translate(79.043279 0) scale(0.996264)"/>
     <use xlink:href="#CMSY10-0" transform="translate(103.914337 0) scale(0.996264)"/>
     <use xlink:href="#CMR17-5d" transform="translate(181.401805 0) scale(0.996264)"/>
    </g>
   </g>
  </g>
  <g id="axis3d_2">
   <g id="line2d_8">
    <path d="M 128.181071 448.525829 
L 376.540541 590.999359 
" style="fill: none; stroke: #000000; stroke-width: 0.8; stroke-linecap: square"/>
   </g>
   <g id="xtick_7">
    <g id="line2d_9">
     <path d="M 165.496943 467.629352 
L 159.098979 470.876222 
" style="fill: none; stroke: #000000; stroke-width: 0.8; stroke-linecap: square"/>
    </g>
    <g id="text_8">
     <!-- $\mathdefault{0.0}$ -->
     <g transform="translate(141.192619 497.282429) scale(0.18 -0.18)">
      <defs>
       <path id="CMR17-30" d="M 2688 2025 
C 2688 2416 2682 3080 2413 3591 
C 2176 4039 1798 4198 1466 4198 
C 1158 4198 768 4058 525 3597 
C 269 3118 243 2524 243 2025 
C 243 1661 250 1106 448 619 
C 723 -39 1216 -128 1466 -128 
C 1760 -128 2208 -7 2470 600 
C 2662 1042 2688 1559 2688 2025 
z
M 1466 -26 
C 1056 -26 813 325 723 812 
C 653 1188 653 1738 653 2096 
C 653 2588 653 2997 736 3387 
C 858 3929 1216 4096 1466 4096 
C 1728 4096 2067 3923 2189 3400 
C 2272 3036 2278 2607 2278 2096 
C 2278 1680 2278 1169 2202 792 
C 2067 95 1690 -26 1466 -26 
z
" transform="scale(0.015625)"/>
      </defs>
      <use xlink:href="#CMR17-30" transform="scale(0.996264)"/>
      <use xlink:href="#CMMI12-3a" transform="translate(45.690477 0) scale(0.996264)"/>
      <use xlink:href="#CMR17-30" transform="translate(72.787654 0) scale(0.996264)"/>
     </g>
    </g>
   </g>
   <g id="xtick_8">
    <g id="line2d_10">
     <path d="M 207.163372 491.502325 
L 200.756875 494.832493 
" style="fill: none; stroke: #000000; stroke-width: 0.8; stroke-linecap: square"/>
    </g>
    <g id="text_9">
     <!-- $\mathdefault{0.2}$ -->
     <g transform="translate(182.762178 521.419066) scale(0.18 -0.18)">
      <use xlink:href="#CMR17-30" transform="scale(0.996264)"/>
      <use xlink:href="#CMMI12-3a" transform="translate(45.690477 0) scale(0.996264)"/>
      <use xlink:href="#CMR17-32" transform="translate(72.787654 0) scale(0.996264)"/>
     </g>
    </g>
   </g>
   <g id="xtick_9">
    <g id="line2d_11">
     <path d="M 249.904741 515.99119 
L 243.491401 519.407904 
" style="fill: none; stroke: #000000; stroke-width: 0.8; stroke-linecap: square"/>
    </g>
    <g id="text_10">
     <!-- $\mathdefault{0.4}$ -->
     <g transform="translate(225.406189 546.179565) scale(0.18 -0.18)">
      <use xlink:href="#CMR17-30" transform="scale(0.996264)"/>
      <use xlink:href="#CMMI12-3a" transform="translate(45.690477 0) scale(0.996264)"/>
      <use xlink:href="#CMR17-34" transform="translate(72.787654 0) scale(0.996264)"/>
     </g>
    </g>
   </g>
   <g id="xtick_10">
    <g id="line2d_12">
     <path d="M 293.763192 541.120092 
L 287.344841 544.62677 
" style="fill: none; stroke: #000000; stroke-width: 0.8; stroke-linecap: square"/>
    </g>
    <g id="text_11">
     <!-- $\mathdefault{0.6}$ -->
     <g transform="translate(269.166857 571.588431) scale(0.18 -0.18)">
      <use xlink:href="#CMR17-30" transform="scale(0.996264)"/>
      <use xlink:href="#CMMI12-3a" transform="translate(45.690477 0) scale(0.996264)"/>
      <use xlink:href="#CMR17-36" transform="translate(72.787654 0) scale(0.996264)"/>
     </g>
    </g>
   </g>
   <g id="xtick_11">
    <g id="line2d_13">
     <path d="M 338.7831 566.914456 
L 332.361722 570.514698 
" style="fill: none; stroke: #000000; stroke-width: 0.8; stroke-linecap: square"/>
    </g>
    <g id="text_12">
     <!-- $\mathdefault{0.8}$ -->
     <g transform="translate(314.088623 597.671469) scale(0.18 -0.18)">
      <defs>
       <path id="CMR17-38" d="M 1741 2264 
C 2144 2467 2554 2773 2554 3263 
C 2554 3841 1990 4179 1472 4179 
C 890 4179 378 3759 378 3180 
C 378 3021 416 2747 666 2505 
C 730 2442 998 2251 1171 2130 
C 883 1983 211 1634 211 934 
C 211 279 838 -128 1459 -128 
C 2144 -128 2720 362 2720 1010 
C 2720 1590 2330 1857 2074 2029 
L 1741 2264 
z
M 902 2822 
C 851 2854 595 3051 595 3351 
C 595 3739 998 4032 1459 4032 
C 1965 4032 2336 3676 2336 3262 
C 2336 2669 1670 2331 1638 2331 
C 1632 2331 1626 2331 1574 2370 
L 902 2822 
z
M 2080 1519 
C 2176 1449 2483 1240 2483 851 
C 2483 381 2010 25 1472 25 
C 890 25 448 438 448 940 
C 448 1443 838 1862 1280 2060 
L 2080 1519 
z
" transform="scale(0.015625)"/>
      </defs>
      <use xlink:href="#CMR17-30" transform="scale(0.996264)"/>
      <use xlink:href="#CMMI12-3a" transform="translate(45.690477 0) scale(0.996264)"/>
      <use xlink:href="#CMR17-38" transform="translate(72.787654 0) scale(0.996264)"/>
     </g>
    </g>
   </g>
   <g id="text_13">
    <!-- $\theta_p\:[^{\circ}]$ -->
    <g transform="translate(191.863457 564.093806) rotate(-330.158894) scale(0.2 -0.2)">
     <defs>
      <path id="CMMI12-12" d="M 2835 3200 
C 2835 3850 2630 4480 2106 4480 
C 1210 4480 256 2615 256 1216 
C 256 923 320 -64 992 -64 
C 1862 -64 2835 1756 2835 3200 
z
M 896 2304 
C 992 2679 1126 3214 1382 3665 
C 1594 4047 1818 4352 2099 4352 
C 2310 4352 2451 4174 2451 3564 
C 2451 3334 2432 3017 2246 2304 
L 896 2304 
z
M 2202 2113 
C 2042 1490 1907 1088 1677 687 
C 1491 363 1267 64 998 64 
C 800 64 640 217 640 846 
C 640 1260 742 1693 845 2113 
L 2202 2113 
z
" transform="scale(0.015625)"/>
      <path id="CMMI12-70" d="M 275 -789 
C 230 -980 205 -1031 -58 -1031 
C -134 -1031 -198 -1031 -198 -1152 
C -198 -1165 -192 -1216 -122 -1216 
C -38 -1216 51 -1216 134 -1216 
L 410 -1216 
C 544 -1216 870 -1216 1005 -1216 
C 1043 -1216 1120 -1216 1120 -1101 
C 1120 -1031 1075 -1031 966 -1031 
C 672 -1031 653 -987 653 -937 
C 653 -861 941 219 979 364 
C 1050 185 1222 -64 1555 -64 
C 2278 -64 3059 875 3059 1814 
C 3059 2401 2726 2816 2246 2816 
C 1837 2816 1491 2420 1421 2331 
C 1370 2650 1120 2816 864 2816 
C 678 2816 531 2727 410 2484 
C 294 2254 205 1865 205 1839 
C 205 1814 230 1782 275 1782 
C 326 1782 333 1788 371 1935 
C 467 2312 589 2689 845 2689 
C 992 2689 1043 2587 1043 2397 
C 1043 2245 1024 2181 998 2067 
L 275 -789 
z
M 1382 1993 
C 1427 2171 1606 2357 1709 2446 
C 1779 2510 1990 2689 2234 2689 
C 2515 2689 2643 2408 2643 2076 
C 2643 1769 2464 1047 2304 715 
C 2144 370 1850 64 1555 64 
C 1120 64 1050 613 1050 639 
C 1050 658 1062 709 1069 741 
L 1382 1993 
z
" transform="scale(0.015625)"/>
      <path id="CMSY10-e" d="M 2842 1600 
C 2842 2277 2272 2828 1600 2828 
C 909 2828 352 2264 352 1600 
C 352 930 909 372 1600 372 
C 2272 372 2842 923 2842 1600 
z
M 1600 628 
C 1043 628 608 1070 608 1600 
C 608 2130 1050 2572 1600 2572 
C 2131 2572 2586 2142 2586 1600 
C 2586 1058 2131 628 1600 628 
z
" transform="scale(0.015625)"/>
     </defs>
     <use xlink:href="#CMMI12-12" transform="scale(0.996264)"/>
     <use xlink:href="#CMMI12-70" transform="translate(45.45979 -14.943915) scale(0.697382)"/>
     <use xlink:href="#CMR17-5b" transform="translate(102.368635 0) scale(0.996264)"/>
     <use xlink:href="#CMSY10-e" transform="translate(127.239694 36.153639) scale(0.697382)"/>
     <use xlink:href="#CMR17-5d" transform="translate(162.607036 0) scale(0.996264)"/>
    </g>
   </g>
  </g>
  <g id="axis3d_3">
   <g id="line2d_14">
    <path d="M 128.181071 448.525829 
L 116.840456 215.184579 
" style="fill: none; stroke: #000000; stroke-width: 0.8; stroke-linecap: square"/>
   </g>
   <g id="xtick_12">
    <g id="line2d_15">
     <path d="M 130.055707 442.222223 
L 123.659377 445.393838 
" style="fill: none; stroke: #000000; stroke-width: 0.8; stroke-linecap: square"/>
    </g>
    <g id="text_14">
     <!-- $\mathdefault{0.4960}$ -->
     <g transform="translate(82.684929 455.731521) scale(0.18 -0.18)">
      <defs>
       <path id="CMR17-39" d="M 2253 1864 
C 2253 464 1670 31 1190 31 
C 1043 31 685 31 538 294 
C 704 268 826 357 826 518 
C 826 692 685 749 595 749 
C 538 749 365 723 365 506 
C 365 71 742 -128 1203 -128 
C 1939 -128 2688 674 2688 2073 
C 2688 3817 1971 4179 1485 4179 
C 851 4179 243 3628 243 2778 
C 243 1991 762 1408 1414 1408 
C 1952 1408 2189 1903 2253 2112 
L 2253 1864 
z
M 1427 1510 
C 1254 1510 1011 1542 813 1922 
C 678 2169 678 2461 678 2771 
C 678 3146 678 3405 858 3684 
C 947 3817 1114 4032 1485 4032 
C 2240 4032 2240 2885 2240 2632 
C 2240 2182 2035 1510 1427 1510 
z
" transform="scale(0.015625)"/>
      </defs>
      <use xlink:href="#CMR17-30" transform="scale(0.996264)"/>
      <use xlink:href="#CMMI12-3a" transform="translate(45.690477 0) scale(0.996264)"/>
      <use xlink:href="#CMR17-34" transform="translate(72.787654 0) scale(0.996264)"/>
      <use xlink:href="#CMR17-39" transform="translate(118.478131 0) scale(0.996264)"/>
      <use xlink:href="#CMR17-36" transform="translate(164.168608 0) scale(0.996264)"/>
      <use xlink:href="#CMR17-30" transform="translate(209.859086 0) scale(0.996264)"/>
     </g>
    </g>
   </g>
   <g id="xtick_13">
    <g id="line2d_16">
     <path d="M 128.275804 405.275399 
L 121.830131 408.406128 
" style="fill: none; stroke: #000000; stroke-width: 0.8; stroke-linecap: square"/>
    </g>
    <g id="text_15">
     <!-- $\mathdefault{0.4965}$ -->
     <g transform="translate(80.727913 418.771075) scale(0.18 -0.18)">
      <use xlink:href="#CMR17-30" transform="scale(0.996264)"/>
      <use xlink:href="#CMMI12-3a" transform="translate(45.690477 0) scale(0.996264)"/>
      <use xlink:href="#CMR17-34" transform="translate(72.787654 0) scale(0.996264)"/>
      <use xlink:href="#CMR17-39" transform="translate(118.478131 0) scale(0.996264)"/>
      <use xlink:href="#CMR17-36" transform="translate(164.168608 0) scale(0.996264)"/>
      <use xlink:href="#CMR17-35" transform="translate(209.859086 0) scale(0.996264)"/>
     </g>
    </g>
   </g>
   <g id="xtick_14">
    <g id="line2d_17">
     <path d="M 126.470008 367.791096 
L 119.974228 370.879409 
" style="fill: none; stroke: #000000; stroke-width: 0.8; stroke-linecap: square"/>
    </g>
    <g id="text_16">
     <!-- $\mathdefault{0.4970}$ -->
     <g transform="translate(78.74241 381.272641) scale(0.18 -0.18)">
      <use xlink:href="#CMR17-30" transform="scale(0.996264)"/>
      <use xlink:href="#CMMI12-3a" transform="translate(45.690477 0) scale(0.996264)"/>
      <use xlink:href="#CMR17-34" transform="translate(72.787654 0) scale(0.996264)"/>
      <use xlink:href="#CMR17-39" transform="translate(118.478131 0) scale(0.996264)"/>
      <use xlink:href="#CMR17-37" transform="translate(164.168608 0) scale(0.996264)"/>
      <use xlink:href="#CMR17-30" transform="translate(209.859086 0) scale(0.996264)"/>
     </g>
    </g>
   </g>
   <g id="xtick_15">
    <g id="line2d_18">
     <path d="M 124.63775 329.757501 
L 118.09108 332.801812 
" style="fill: none; stroke: #000000; stroke-width: 0.8; stroke-linecap: square"/>
    </g>
    <g id="text_17">
     <!-- $\mathdefault{0.4975}$ -->
     <g transform="translate(76.727795 343.224387) scale(0.18 -0.18)">
      <use xlink:href="#CMR17-30" transform="scale(0.996264)"/>
      <use xlink:href="#CMMI12-3a" transform="translate(45.690477 0) scale(0.996264)"/>
      <use xlink:href="#CMR17-34" transform="translate(72.787654 0) scale(0.996264)"/>
      <use xlink:href="#CMR17-39" transform="translate(118.478131 0) scale(0.996264)"/>
      <use xlink:href="#CMR17-37" transform="translate(164.168608 0) scale(0.996264)"/>
      <use xlink:href="#CMR17-35" transform="translate(209.859086 0) scale(0.996264)"/>
     </g>
    </g>
   </g>
   <g id="xtick_16">
    <g id="line2d_19">
     <path d="M 122.778445 291.162451 
L 116.180085 294.161117 
" style="fill: none; stroke: #000000; stroke-width: 0.8; stroke-linecap: square"/>
    </g>
    <g id="text_18">
     <!-- $\mathdefault{0.4980}$ -->
     <g transform="translate(74.683423 304.614131) scale(0.18 -0.18)">
      <use xlink:href="#CMR17-30" transform="scale(0.996264)"/>
      <use xlink:href="#CMMI12-3a" transform="translate(45.690477 0) scale(0.996264)"/>
      <use xlink:href="#CMR17-34" transform="translate(72.787654 0) scale(0.996264)"/>
      <use xlink:href="#CMR17-39" transform="translate(118.478131 0) scale(0.996264)"/>
      <use xlink:href="#CMR17-38" transform="translate(164.168608 0) scale(0.996264)"/>
      <use xlink:href="#CMR17-30" transform="translate(209.859086 0) scale(0.996264)"/>
     </g>
    </g>
   </g>
   <g id="xtick_17">
    <g id="line2d_20">
     <path d="M 120.891488 251.993421 
L 114.240619 254.944742 
" style="fill: none; stroke: #000000; stroke-width: 0.8; stroke-linecap: square"/>
    </g>
    <g id="text_19">
     <!-- $\mathdefault{0.4985}$ -->
     <g transform="translate(72.608629 265.429329) scale(0.18 -0.18)">
      <use xlink:href="#CMR17-30" transform="scale(0.996264)"/>
      <use xlink:href="#CMMI12-3a" transform="translate(45.690477 0) scale(0.996264)"/>
      <use xlink:href="#CMR17-34" transform="translate(72.787654 0) scale(0.996264)"/>
      <use xlink:href="#CMR17-39" transform="translate(118.478131 0) scale(0.996264)"/>
      <use xlink:href="#CMR17-38" transform="translate(164.168608 0) scale(0.996264)"/>
      <use xlink:href="#CMR17-35" transform="translate(209.859086 0) scale(0.996264)"/>
     </g>
    </g>
   </g>
   <g id="text_20">
    <!-- $C_p$ -->
    <g transform="translate(46.540513 324.257485) rotate(-272.782442) scale(0.2 -0.2)">
     <defs>
      <path id="CMMI12-43" d="M 4781 4423 
C 4781 4480 4736 4480 4723 4480 
C 4710 4480 4685 4480 4634 4416 
L 4192 3882 
C 3968 4264 3616 4480 3136 4480 
C 1754 4480 320 3088 320 1595 
C 320 533 1069 -128 2003 -128 
C 2515 -128 2963 88 3334 400 
C 3891 863 4058 1481 4058 1531 
C 4058 1588 4006 1588 3987 1588 
C 3930 1588 3923 1550 3910 1524 
C 3616 534 2752 57 2112 57 
C 1434 57 845 489 845 1391 
C 845 1595 909 2700 1632 3532 
C 1984 3939 2586 4295 3194 4295 
C 3898 4295 4211 3717 4211 3068 
C 4211 2903 4192 2764 4192 2738 
C 4192 2681 4256 2681 4275 2681 
C 4346 2681 4352 2687 4378 2801 
L 4781 4423 
z
" transform="scale(0.015625)"/>
     </defs>
     <use xlink:href="#CMMI12-43" transform="scale(0.996264)"/>
     <use xlink:href="#CMMI12-70" transform="translate(69.792037 -14.943915) scale(0.697382)"/>
    </g>
   </g>
  </g>
  <g id="axes_1">
   <g id="Poly3DCollection_1">
    <path d="M 376.540541 271.308624 
L 334.772594 300.879361 
L 355.467569 295.442537 
L 397.373553 272.043474 
z
" clip-path="url(#pbcaac1af6c)" style="fill: #3c049b"/>
    <path d="M 397.373553 272.043474 
L 355.467569 295.442537 
L 376.540541 292.181786 
L 418.488566 278.21065 
z
" clip-path="url(#pbcaac1af6c)" style="fill: #5b01a5"/>
    <path d="M 334.772594 300.879361 
L 291.547093 294.133083 
L 312.266102 293.264583 
L 355.467569 295.442537 
z
" clip-path="url(#pbcaac1af6c)" style="fill: #5801a4"/>
    <path d="M 418.488566 278.21065 
L 376.540541 292.181786 
L 397.99212 286.686373 
L 439.827202 289.802202 
z
" clip-path="url(#pbcaac1af6c)" style="fill: #7100a8"/>
    <path d="M 439.827202 289.802202 
L 397.99212 286.686373 
L 419.795456 286.716816 
L 461.335568 306.423415 
z
" clip-path="url(#pbcaac1af6c)" style="fill: #7e03a8"/>
    <path d="M 355.467569 295.442537 
L 312.266102 293.264583 
L 333.277524 285.729516 
L 376.540541 292.181786 
z
" clip-path="url(#pbcaac1af6c)" style="fill: #8004a8"/>
    <path d="M 461.335568 306.423415 
L 419.795456 286.716816 
L 441.89982 291.538907 
L 483.021173 324.891017 
z
" clip-path="url(#pbcaac1af6c)" style="fill: #7e03a8"/>
    <path d="M 376.540541 292.181786 
L 333.277524 285.729516 
L 354.661065 269.043044 
L 397.99212 286.686373 
z
" clip-path="url(#pbcaac1af6c)" style="fill: #ac2694"/>
    <path d="M 291.547093 294.133083 
L 246.354748 269.610899 
L 266.985599 261.424435 
L 312.266102 293.264583 
z
" clip-path="url(#pbcaac1af6c)" style="fill: #b32c8e"/>
    <path d="M 483.021173 324.891017 
L 441.89982 291.538907 
L 464.24052 301.888179 
L 504.826225 346.807042 
z
" clip-path="url(#pbcaac1af6c)" style="fill: #7501a8"/>
    <path d="M 504.826225 346.807042 
L 464.24052 301.888179 
L 486.911026 310.287105 
L 526.988272 362.591604 
z
" clip-path="url(#pbcaac1af6c)" style="fill: #6c00a8"/>
    <path d="M 397.99212 286.686373 
L 354.661065 269.043044 
L 376.540541 261.280795 
L 419.795456 286.716816 
z
" clip-path="url(#pbcaac1af6c)" style="fill: #cc4977"/>
    <path d="M 312.266102 293.264583 
L 266.985599 261.424435 
L 288.10962 258.074925 
L 333.277524 285.729516 
z
" clip-path="url(#pbcaac1af6c)" style="fill: #ce4b75"/>
    <path d="M 526.988272 362.591604 
L 486.911026 310.287105 
L 509.72181 325.488002 
L 549.164446 385.087644 
z
" clip-path="url(#pbcaac1af6c)" style="fill: #6001a6"/>
    <path d="M 549.164446 385.087644 
L 509.72181 325.488002 
L 532.628123 346.190334 
L 571.349873 412.196234 
z
" clip-path="url(#pbcaac1af6c)" style="fill: #43039e"/>
    <path d="M 419.795456 286.716816 
L 376.540541 261.280795 
L 398.840823 256.50853 
L 441.89982 291.538907 
z
" clip-path="url(#pbcaac1af6c)" style="fill: #de6164"/>
    <path d="M 333.277524 285.729516 
L 288.10962 258.074925 
L 309.669272 258.852737 
L 354.661065 269.043044 
z
" clip-path="url(#pbcaac1af6c)" style="fill: #e76e5b"/>
    <path d="M 571.349873 412.196234 
L 532.628123 346.190334 
L 555.565305 372.275971 
L 593.48009 444.058895 
z
" clip-path="url(#pbcaac1af6c)" style="fill: #0d0887"/>
    <path d="M 246.354748 269.610899 
L 199.228502 244.582333 
L 219.938245 239.514605 
L 266.985599 261.424435 
z
" clip-path="url(#pbcaac1af6c)" style="fill: #f58c46"/>
    <path d="M 441.89982 291.538907 
L 398.840823 256.50853 
L 421.505787 258.119778 
L 464.24052 301.888179 
z
" clip-path="url(#pbcaac1af6c)" style="fill: #e87059"/>
    <path d="M 354.661065 269.043044 
L 309.669272 258.852737 
L 331.46649 245.293823 
L 376.540541 261.280795 
z
" clip-path="url(#pbcaac1af6c)" style="fill: #f99a3e"/>
    <path d="M 266.985599 261.424435 
L 219.938245 239.514605 
L 241.377341 247.610216 
L 288.10962 258.074925 
z
" clip-path="url(#pbcaac1af6c)" style="fill: #fdab33"/>
    <path d="M 464.24052 301.888179 
L 421.505787 258.119778 
L 444.472843 265.337493 
L 486.911026 310.287105 
z
" clip-path="url(#pbcaac1af6c)" style="fill: #ed7953"/>
    <path d="M 199.228502 244.582333 
L 153.134149 291.594441 
L 173.859865 294.33017 
L 219.938245 239.514605 
z
" clip-path="url(#pbcaac1af6c)" style="fill: #fa9e3b"/>
    <path d="M 288.10962 258.074925 
L 241.377341 247.610216 
L 263.194835 259.483995 
L 309.669272 258.852737 
z
" clip-path="url(#pbcaac1af6c)" style="fill: #feba2c"/>
    <path d="M 376.540541 261.280795 
L 331.46649 245.293823 
L 353.748299 230.70752 
L 398.840823 256.50853 
z
" clip-path="url(#pbcaac1af6c)" style="fill: #fcce25"/>
    <path d="M 486.911026 310.287105 
L 444.472843 265.337493 
L 467.792951 271.45727 
L 509.72181 325.488002 
z
" clip-path="url(#pbcaac1af6c)" style="fill: #ef7c51"/>
    <path d="M 219.938245 239.514605 
L 173.859865 294.33017 
L 195.077717 301.644357 
L 241.377341 247.610216 
z
" clip-path="url(#pbcaac1af6c)" style="fill: #fdb130"/>
    <path d="M 509.72181 325.488002 
L 467.792951 271.45727 
L 491.260045 287.030818 
L 532.628123 346.190334 
z
" clip-path="url(#pbcaac1af6c)" style="fill: #eb7556"/>
    <path d="M 309.669272 258.852737 
L 263.194835 259.483995 
L 285.369983 276.199888 
L 331.46649 245.293823 
z
" clip-path="url(#pbcaac1af6c)" style="fill: #fccd25"/>
    <path d="M 398.840823 256.50853 
L 353.748299 230.70752 
L 376.540541 242.399216 
L 421.505787 258.119778 
z
" clip-path="url(#pbcaac1af6c)" style="fill: #f3f027"/>
    <path d="M 532.628123 346.190334 
L 491.260045 287.030818 
L 514.618805 317.170342 
L 555.565305 372.275971 
z
" clip-path="url(#pbcaac1af6c)" style="fill: #dc5d67"/>
    <path d="M 241.377341 247.610216 
L 195.077717 301.644357 
L 216.755671 314.02593 
L 263.194835 259.483995 
z
" clip-path="url(#pbcaac1af6c)" style="fill: #fdb42f"/>
    <path d="M 331.46649 245.293823 
L 285.369983 276.199888 
L 307.855554 298.267462 
L 353.748299 230.70752 
z
" clip-path="url(#pbcaac1af6c)" style="fill: #f7e425"/>
    <path d="M 421.505787 258.119778 
L 376.540541 242.399216 
L 399.612871 257.52247 
L 444.472843 265.337493 
z
" clip-path="url(#pbcaac1af6c)" style="fill: #f1f525"/>
    <path d="M 263.194835 259.483995 
L 216.755671 314.02593 
L 238.545247 320.319953 
L 285.369983 276.199888 
z
" clip-path="url(#pbcaac1af6c)" style="fill: #fdb130"/>
    <path d="M 444.472843 265.337493 
L 399.612871 257.52247 
L 422.891647 280.156725 
L 467.792951 271.45727 
z
" clip-path="url(#pbcaac1af6c)" style="fill: #f2f227"/>
    <path d="M 353.748299 230.70752 
L 307.855554 298.267462 
L 330.372651 301.021776 
L 376.540541 242.399216 
z
" clip-path="url(#pbcaac1af6c)" style="fill: #f1f426"/>
    <path d="M 285.369983 276.199888 
L 238.545247 320.319953 
L 260.884777 336.531818 
L 307.855554 298.267462 
z
" clip-path="url(#pbcaac1af6c)" style="fill: #fca835"/>
    <path d="M 467.792951 271.45727 
L 422.891647 280.156725 
L 446.382763 302.760292 
L 491.260045 287.030818 
z
" clip-path="url(#pbcaac1af6c)" style="fill: #f8e125"/>
    <path d="M 307.855554 298.267462 
L 260.884777 336.531818 
L 283.566148 357.632929 
L 330.372651 301.021776 
z
" clip-path="url(#pbcaac1af6c)" style="fill: #fa9e3b"/>
    <path d="M 376.540541 242.399216 
L 330.372651 301.021776 
L 353.275203 306.237738 
L 399.612871 257.52247 
z
" clip-path="url(#pbcaac1af6c)" style="fill: #f0f921"/>
    <path d="M 491.260045 287.030818 
L 446.382763 302.760292 
L 469.925918 334.642116 
L 514.618805 317.170342 
z
" clip-path="url(#pbcaac1af6c)" style="fill: #febd2a"/>
    <path d="M 399.612871 257.52247 
L 353.275203 306.237738 
L 376.540541 322.756499 
L 422.891647 280.156725 
z
" clip-path="url(#pbcaac1af6c)" style="fill: #f3f027"/>
    <path d="M 330.372651 301.021776 
L 283.566148 357.632929 
L 306.35152 370.24755 
L 353.275203 306.237738 
z
" clip-path="url(#pbcaac1af6c)" style="fill: #fba139"/>
    <path d="M 422.891647 280.156725 
L 376.540541 322.756499 
L 400.06311 342.254435 
L 446.382763 302.760292 
z
" clip-path="url(#pbcaac1af6c)" style="fill: #fbd724"/>
    <path d="M 353.275203 306.237738 
L 306.35152 370.24755 
L 329.382382 376.880894 
L 376.540541 322.756499 
z
" clip-path="url(#pbcaac1af6c)" style="fill: #fca338"/>
    <path d="M 446.382763 302.760292 
L 400.06311 342.254435 
L 423.823491 363.168501 
L 469.925918 334.642116 
z
" clip-path="url(#pbcaac1af6c)" style="fill: #feb72d"/>
    <path d="M 376.540541 322.756499 
L 329.382382 376.880894 
L 352.810593 391.185396 
L 400.06311 342.254435 
z
" clip-path="url(#pbcaac1af6c)" style="fill: #fa9e3b"/>
    <path d="M 400.06311 342.254435 
L 352.810593 391.185396 
L 376.540541 406.724809 
L 423.823491 363.168501 
z
" clip-path="url(#pbcaac1af6c)" style="fill: #f79143"/>
   </g>
  </g>
 </g>
 <defs>
  <clipPath id="pbcaac1af6c">
   <rect x="90" y="63" width="558" height="558"/>
  </clipPath>
 </defs>
</svg>
