<?xml version="1.0" encoding="utf-8" standalone="no"?>
<!DOCTYPE svg PUBLIC "-//W3C//DTD SVG 1.1//EN"
  "http://www.w3.org/Graphics/SVG/1.1/DTD/svg11.dtd">
<svg xmlns:xlink="http://www.w3.org/1999/xlink" width="851.4pt" height="851.4pt" viewBox="0 0 851.4 851.4" xmlns="http://www.w3.org/2000/svg" version="1.1">
 <metadata>
  <rdf:RDF xmlns:dc="http://purl.org/dc/elements/1.1/" xmlns:cc="http://creativecommons.org/ns#" xmlns:rdf="http://www.w3.org/1999/02/22-rdf-syntax-ns#">
   <cc:Work>
    <dc:type rdf:resource="http://purl.org/dc/dcmitype/StillImage"/>
    <dc:date>2024-10-04T21:20:13.965028</dc:date>
    <dc:format>image/svg+xml</dc:format>
    <dc:creator>
     <cc:Agent>
      <dc:title>Matplotlib v3.8.4, https://matplotlib.org/</dc:title>
     </cc:Agent>
    </dc:creator>
   </cc:Work>
  </rdf:RDF>
 </metadata>
 <defs>
  <style type="text/css">*{stroke-linejoin: round; stroke-linecap: butt}</style>
 </defs>
 <g id="figure_1">
  <g id="patch_1">
   <path d="M 0 851.4 
L 851.4 851.4 
L 851.4 0 
L 0 0 
z
" style="fill: #ffffff"/>
  </g>
  <g id="patch_2">
   <path d="M 7.2 844.2 
L 844.2 844.2 
L 844.2 7.2 
L 7.2 7.2 
z
" style="fill: #ffffff"/>
  </g>
  <g id="pane3d_1">
   <g id="patch_3">
    <path d="M 437.010811 476.8238 
L 761.722012 643.060007 
L 781.847176 171.545661 
L 437.010811 24.840422 
" style="fill: #f2f2f2; opacity: 0.5; stroke: #f2f2f2; stroke-linejoin: miter"/>
   </g>
  </g>
  <g id="pane3d_2">
   <g id="patch_4">
    <path d="M 437.010811 476.8238 
L 112.29961 643.060007 
L 92.174445 171.545661 
L 437.010811 24.840422 
" style="fill: #e6e6e6; opacity: 0.5; stroke: #e6e6e6; stroke-linejoin: miter"/>
   </g>
  </g>
  <g id="pane3d_3">
   <g id="patch_5">
    <path d="M 437.010811 476.8238 
L 112.29961 643.060007 
L 437.010811 831.33048 
L 761.722012 643.060007 
" style="fill: #ececec; opacity: 0.5; stroke: #ececec; stroke-linejoin: miter"/>
   </g>
  </g>
  <g id="grid3d_1">
   <g id="Line3DCollection_1">
    <path d="M 742.265948 654.340808 
L 417.48383 486.820656 
L 416.344021 33.632784 
" style="fill: none; stroke: #b0b0b0; stroke-width: 0.8"/>
    <path d="M 682.00655 689.279748 
L 357.062315 517.753508 
L 352.338696 60.862849 
" style="fill: none; stroke: #b0b0b0; stroke-width: 0.8"/>
    <path d="M 620.252441 725.085335 
L 295.23215 549.40752 
L 286.751915 88.765719 
" style="fill: none; stroke: #b0b0b0; stroke-width: 0.8"/>
    <path d="M 556.94731 761.79022 
L 231.943492 581.808208 
L 219.524334 117.366642 
" style="fill: none; stroke: #b0b0b0; stroke-width: 0.8"/>
    <path d="M 492.031979 799.428712 
L 167.144121 614.982307 
L 150.5936 146.692146 
" style="fill: none; stroke: #b0b0b0; stroke-width: 0.8"/>
   </g>
  </g>
  <g id="grid3d_2">
   <g id="Line3DCollection_2">
    <path d="M 486.287969 45.804618 
L 483.556247 500.65278 
L 158.690921 669.958106 
" style="fill: none; stroke: #b0b0b0; stroke-width: 0.8"/>
    <path d="M 544.455432 70.551056 
L 538.437128 528.749099 
L 213.456162 701.711485 
" style="fill: none; stroke: #b0b0b0; stroke-width: 0.8"/>
    <path d="M 603.920394 95.849494 
L 594.472905 557.436668 
L 269.447793 734.175936 
" style="fill: none; stroke: #b0b0b0; stroke-width: 0.8"/>
    <path d="M 664.726757 121.71861 
L 651.700418 586.734348 
L 326.707476 767.375615 
" style="fill: none; stroke: #b0b0b0; stroke-width: 0.8"/>
    <path d="M 726.920428 148.177935 
L 710.158096 616.661811 
L 385.27878 801.335783 
" style="fill: none; stroke: #b0b0b0; stroke-width: 0.8"/>
   </g>
  </g>
  <g id="grid3d_3">
   <g id="Line3DCollection_3">
    <path d="M 110.53434 601.701329 
L 437.010811 437.047139 
L 763.487282 601.701329 
" style="fill: none; stroke: #b0b0b0; stroke-width: 0.8"/>
    <path d="M 106.447765 505.95659 
L 437.010811 345.061751 
L 767.573857 505.95659 
" style="fill: none; stroke: #b0b0b0; stroke-width: 0.8"/>
    <path d="M 102.257588 407.784553 
L 437.010811 250.884801 
L 771.764033 407.784553 
" style="fill: none; stroke: #b0b0b0; stroke-width: 0.8"/>
    <path d="M 97.959819 307.09173 
L 437.010811 154.437022 
L 776.061802 307.09173 
" style="fill: none; stroke: #b0b0b0; stroke-width: 0.8"/>
    <path d="M 93.550261 203.779768 
L 437.010811 55.635281 
L 780.471361 203.779768 
" style="fill: none; stroke: #b0b0b0; stroke-width: 0.8"/>
   </g>
  </g>
  <g id="axis3d_1">
   <g id="line2d_1">
    <path d="M 761.722012 643.060007 
L 437.010811 831.33048 
" style="fill: none; stroke: #000000; stroke-width: 0.8; stroke-linecap: square"/>
   </g>
   <g id="xtick_1">
    <g id="line2d_2">
     <path d="M 739.506933 652.917729 
L 747.79225 657.191232 
" style="fill: none; stroke: #000000; stroke-width: 0.8; stroke-linecap: square"/>
    </g>
    <g id="text_1">
     <!-- $\mathdefault{7.4}$ -->
     <g transform="translate(740.175505 686.760409) scale(0.2 -0.2)">
      <defs>
       <path id="CMR17-37" d="M 2886 3941 
L 2886 4081 
L 1382 4081 
C 634 4081 621 4165 595 4288 
L 480 4288 
L 294 3094 
L 410 3094 
C 429 3215 474 3540 550 3661 
C 589 3712 1062 3712 1171 3712 
L 2579 3712 
L 1869 2661 
C 1395 1954 1069 999 1069 165 
C 1069 89 1069 -128 1299 -128 
C 1530 -128 1530 89 1530 171 
L 1530 465 
C 1530 1508 1709 2196 2003 2636 
L 2886 3941 
z
" transform="scale(0.015625)"/>
       <path id="CMMI12-3a" d="M 1178 307 
C 1178 492 1024 619 870 619 
C 685 619 557 466 557 313 
C 557 128 710 0 864 0 
C 1050 0 1178 153 1178 307 
z
" transform="scale(0.015625)"/>
       <path id="CMR17-34" d="M 2150 4122 
C 2150 4256 2144 4256 2029 4256 
L 128 1254 
L 128 1088 
L 1779 1088 
L 1779 457 
C 1779 224 1766 160 1318 160 
L 1197 160 
L 1197 0 
C 1402 0 1747 0 1965 0 
C 2182 0 2528 0 2733 0 
L 2733 160 
L 2611 160 
C 2163 160 2150 224 2150 457 
L 2150 1088 
L 2803 1088 
L 2803 1254 
L 2150 1254 
L 2150 4122 
z
M 1798 3703 
L 1798 1254 
L 256 1254 
L 1798 3703 
z
" transform="scale(0.015625)"/>
      </defs>
      <use xlink:href="#CMR17-37" transform="scale(0.996264)"/>
      <use xlink:href="#CMMI12-3a" transform="translate(45.690477 0) scale(0.996264)"/>
      <use xlink:href="#CMR17-34" transform="translate(72.787654 0) scale(0.996264)"/>
     </g>
    </g>
   </g>
   <g id="xtick_2">
    <g id="line2d_3">
     <path d="M 679.244189 687.821598 
L 687.539657 692.200474 
" style="fill: none; stroke: #000000; stroke-width: 0.8; stroke-linecap: square"/>
    </g>
    <g id="text_2">
     <!-- $\mathdefault{7.6}$ -->
     <g transform="translate(680.028725 721.931036) scale(0.2 -0.2)">
      <defs>
       <path id="CMR17-36" d="M 678 2176 
C 678 3690 1395 4032 1811 4032 
C 1946 4032 2272 4009 2400 3776 
C 2298 3776 2106 3776 2106 3553 
C 2106 3381 2246 3323 2336 3323 
C 2394 3323 2566 3348 2566 3560 
C 2566 3954 2246 4179 1805 4179 
C 1043 4179 243 3390 243 1984 
C 243 253 966 -128 1478 -128 
C 2099 -128 2688 427 2688 1283 
C 2688 2081 2170 2662 1517 2662 
C 1126 2662 838 2407 678 1960 
L 678 2176 
z
M 1478 25 
C 691 25 691 1200 691 1436 
C 691 1896 909 2560 1504 2560 
C 1613 2560 1926 2560 2138 2120 
C 2253 1870 2253 1609 2253 1289 
C 2253 944 2253 690 2118 434 
C 1978 171 1773 25 1478 25 
z
" transform="scale(0.015625)"/>
      </defs>
      <use xlink:href="#CMR17-37" transform="scale(0.996264)"/>
      <use xlink:href="#CMMI12-3a" transform="translate(45.690477 0) scale(0.996264)"/>
      <use xlink:href="#CMR17-36" transform="translate(72.787654 0) scale(0.996264)"/>
     </g>
    </g>
   </g>
   <g id="xtick_3">
    <g id="line2d_4">
     <path d="M 617.487415 723.590801 
L 625.790991 728.078995 
" style="fill: none; stroke: #000000; stroke-width: 0.8; stroke-linecap: square"/>
    </g>
    <g id="text_3">
     <!-- $\mathdefault{7.8}$ -->
     <g transform="translate(618.389853 757.974159) scale(0.2 -0.2)">
      <defs>
       <path id="CMR17-38" d="M 1741 2264 
C 2144 2467 2554 2773 2554 3263 
C 2554 3841 1990 4179 1472 4179 
C 890 4179 378 3759 378 3180 
C 378 3021 416 2747 666 2505 
C 730 2442 998 2251 1171 2130 
C 883 1983 211 1634 211 934 
C 211 279 838 -128 1459 -128 
C 2144 -128 2720 362 2720 1010 
C 2720 1590 2330 1857 2074 2029 
L 1741 2264 
z
M 902 2822 
C 851 2854 595 3051 595 3351 
C 595 3739 998 4032 1459 4032 
C 1965 4032 2336 3676 2336 3262 
C 2336 2669 1670 2331 1638 2331 
C 1632 2331 1626 2331 1574 2370 
L 902 2822 
z
M 2080 1519 
C 2176 1449 2483 1240 2483 851 
C 2483 381 2010 25 1472 25 
C 890 25 448 438 448 940 
C 448 1443 838 1862 1280 2060 
L 2080 1519 
z
" transform="scale(0.015625)"/>
      </defs>
      <use xlink:href="#CMR17-37" transform="scale(0.996264)"/>
      <use xlink:href="#CMMI12-3a" transform="translate(45.690477 0) scale(0.996264)"/>
      <use xlink:href="#CMR17-38" transform="translate(72.787654 0) scale(0.996264)"/>
     </g>
    </g>
   </g>
   <g id="xtick_4">
    <g id="line2d_5">
     <path d="M 554.180354 760.257923 
L 562.48983 764.85958 
" style="fill: none; stroke: #000000; stroke-width: 0.8; stroke-linecap: square"/>
    </g>
    <g id="text_4">
     <!-- $\mathdefault{8.0}$ -->
     <g transform="translate(555.20267 794.922651) scale(0.2 -0.2)">
      <defs>
       <path id="CMR17-30" d="M 2688 2025 
C 2688 2416 2682 3080 2413 3591 
C 2176 4039 1798 4198 1466 4198 
C 1158 4198 768 4058 525 3597 
C 269 3118 243 2524 243 2025 
C 243 1661 250 1106 448 619 
C 723 -39 1216 -128 1466 -128 
C 1760 -128 2208 -7 2470 600 
C 2662 1042 2688 1559 2688 2025 
z
M 1466 -26 
C 1056 -26 813 325 723 812 
C 653 1188 653 1738 653 2096 
C 653 2588 653 2997 736 3387 
C 858 3929 1216 4096 1466 4096 
C 1728 4096 2067 3923 2189 3400 
C 2272 3036 2278 2607 2278 2096 
C 2278 1680 2278 1169 2202 792 
C 2067 95 1690 -26 1466 -26 
z
" transform="scale(0.015625)"/>
      </defs>
      <use xlink:href="#CMR17-38" transform="scale(0.996264)"/>
      <use xlink:href="#CMMI12-3a" transform="translate(45.690477 0) scale(0.996264)"/>
      <use xlink:href="#CMR17-30" transform="translate(72.787654 0) scale(0.996264)"/>
     </g>
    </g>
   </g>
   <g id="xtick_5">
    <g id="line2d_6">
     <path d="M 489.263889 797.857203 
L 497.57688 802.576682 
" style="fill: none; stroke: #000000; stroke-width: 0.8; stroke-linecap: square"/>
    </g>
    <g id="text_5">
     <!-- $\mathdefault{8.2}$ -->
     <g transform="translate(490.408096 832.811061) scale(0.2 -0.2)">
      <defs>
       <path id="CMR17-32" d="M 2669 989 
L 2554 989 
C 2490 536 2438 459 2413 420 
C 2381 369 1920 369 1830 369 
L 602 369 
C 832 619 1280 1072 1824 1597 
C 2214 1967 2669 2402 2669 3035 
C 2669 3790 2067 4224 1395 4224 
C 691 4224 262 3604 262 3030 
C 262 2780 448 2748 525 2748 
C 589 2748 781 2787 781 3010 
C 781 3207 614 3264 525 3264 
C 486 3264 448 3258 422 3245 
C 544 3790 915 4058 1306 4058 
C 1862 4058 2227 3617 2227 3035 
C 2227 2479 1901 2000 1536 1584 
L 262 146 
L 262 0 
L 2515 0 
L 2669 989 
z
" transform="scale(0.015625)"/>
      </defs>
      <use xlink:href="#CMR17-38" transform="scale(0.996264)"/>
      <use xlink:href="#CMMI12-3a" transform="translate(45.690477 0) scale(0.996264)"/>
      <use xlink:href="#CMR17-32" transform="translate(72.787654 0) scale(0.996264)"/>
     </g>
    </g>
   </g>
   <g id="text_6">
    <!-- $\lambda$ -->
    <g transform="translate(633.135195 803.421735) rotate(-30.105543) scale(0.25 -0.25)">
     <defs>
      <path id="CMMI12-15" d="M 1978 3965 
C 1818 4416 1312 4416 1229 4416 
C 1190 4416 1120 4416 1120 4352 
C 1120 4302 1158 4295 1190 4289 
C 1286 4276 1363 4263 1466 4080 
C 1530 3959 2189 2059 2189 2046 
C 2189 2040 2182 2033 2131 1982 
L 467 311 
C 390 234 339 183 339 102 
C 339 12 416 -64 518 -64 
C 544 -64 614 -51 653 -13 
C 755 82 1670 1194 2253 1881 
C 2419 1383 2624 797 2822 261 
C 2854 166 2886 76 2976 -6 
C 3040 -64 3053 -64 3232 -64 
L 3354 -64 
C 3379 -64 3424 -64 3424 -13 
C 3424 13 3418 19 3392 45 
C 3334 115 3290 229 3264 306 
L 1978 3965 
z
" transform="scale(0.015625)"/>
     </defs>
     <use xlink:href="#CMMI12-15" transform="scale(0.996264)"/>
    </g>
   </g>
  </g>
  <g id="axis3d_2">
   <g id="line2d_7">
    <path d="M 112.29961 643.060007 
L 437.010811 831.33048 
" style="fill: none; stroke: #000000; stroke-width: 0.8; stroke-linecap: square"/>
   </g>
   <g id="xtick_6">
    <g id="line2d_8">
     <path d="M 161.451523 668.519403 
L 153.161395 672.839848 
" style="fill: none; stroke: #000000; stroke-width: 0.8; stroke-linecap: square"/>
    </g>
    <g id="text_7">
     <!-- $\mathdefault{−0.4}$ -->
     <g transform="translate(129.286634 702.481257) scale(0.2 -0.2)">
      <defs>
       <path id="CMSY10-0" d="M 4218 1472 
C 4326 1472 4442 1472 4442 1600 
C 4442 1728 4326 1728 4218 1728 
L 755 1728 
C 646 1728 531 1728 531 1600 
C 531 1472 646 1472 755 1472 
L 4218 1472 
z
" transform="scale(0.015625)"/>
      </defs>
      <use xlink:href="#CMSY10-0" transform="scale(0.996264)"/>
      <use xlink:href="#CMR17-30" transform="translate(77.487468 0) scale(0.996264)"/>
      <use xlink:href="#CMMI12-3a" transform="translate(123.177945 0) scale(0.996264)"/>
      <use xlink:href="#CMR17-34" transform="translate(150.275122 0) scale(0.996264)"/>
     </g>
    </g>
   </g>
   <g id="xtick_7">
    <g id="line2d_9">
     <path d="M 216.219537 700.240753 
L 207.92099 704.657432 
" style="fill: none; stroke: #000000; stroke-width: 0.8; stroke-linecap: square"/>
    </g>
    <g id="text_8">
     <!-- $\mathdefault{−0.2}$ -->
     <g transform="translate(183.949587 734.445234) scale(0.2 -0.2)">
      <use xlink:href="#CMSY10-0" transform="scale(0.996264)"/>
      <use xlink:href="#CMR17-30" transform="translate(77.487468 0) scale(0.996264)"/>
      <use xlink:href="#CMMI12-3a" transform="translate(123.177945 0) scale(0.996264)"/>
      <use xlink:href="#CMR17-32" transform="translate(150.275122 0) scale(0.996264)"/>
     </g>
    </g>
   </g>
   <g id="xtick_8">
    <g id="line2d_10">
     <path d="M 272.213373 732.672093 
L 263.908109 737.188256 
" style="fill: none; stroke: #000000; stroke-width: 0.8; stroke-linecap: square"/>
    </g>
    <g id="text_9">
     <!-- $\mathdefault{0.0}$ -->
     <g transform="translate(247.585526 767.125084) scale(0.2 -0.2)">
      <use xlink:href="#CMR17-30" transform="scale(0.996264)"/>
      <use xlink:href="#CMMI12-3a" transform="translate(45.690477 0) scale(0.996264)"/>
      <use xlink:href="#CMR17-30" transform="translate(72.787654 0) scale(0.996264)"/>
     </g>
    </g>
   </g>
   <g id="xtick_9">
    <g id="line2d_11">
     <path d="M 329.474654 765.83753 
L 321.164494 770.456578 
" style="fill: none; stroke: #000000; stroke-width: 0.8; stroke-linecap: square"/>
    </g>
    <g id="text_10">
     <!-- $\mathdefault{0.2}$ -->
     <g transform="translate(304.738557 800.545126) scale(0.2 -0.2)">
      <use xlink:href="#CMR17-30" transform="scale(0.996264)"/>
      <use xlink:href="#CMMI12-3a" transform="translate(45.690477 0) scale(0.996264)"/>
      <use xlink:href="#CMR17-32" transform="translate(72.787654 0) scale(0.996264)"/>
     </g>
    </g>
   </g>
   <g id="xtick_10">
    <g id="line2d_12">
     <path d="M 388.046904 799.762274 
L 379.733804 804.487762 
" style="fill: none; stroke: #000000; stroke-width: 0.8; stroke-linecap: square"/>
    </g>
    <g id="text_11">
     <!-- $\mathdefault{0.4}$ -->
     <g transform="translate(363.200923 834.730798) scale(0.2 -0.2)">
      <use xlink:href="#CMR17-30" transform="scale(0.996264)"/>
      <use xlink:href="#CMMI12-3a" transform="translate(45.690477 0) scale(0.996264)"/>
      <use xlink:href="#CMR17-34" transform="translate(72.787654 0) scale(0.996264)"/>
     </g>
    </g>
   </g>
   <g id="text_12">
    <!-- $\theta_p\:\unit{[\degree]}$ -->
    <g transform="translate(214.367063 787.513729) rotate(-329.894457) scale(0.25 -0.25)">
     <defs>
      <path id="CMMI12-12" d="M 2835 3200 
C 2835 3850 2630 4480 2106 4480 
C 1210 4480 256 2615 256 1216 
C 256 923 320 -64 992 -64 
C 1862 -64 2835 1756 2835 3200 
z
M 896 2304 
C 992 2679 1126 3214 1382 3665 
C 1594 4047 1818 4352 2099 4352 
C 2310 4352 2451 4174 2451 3564 
C 2451 3334 2432 3017 2246 2304 
L 896 2304 
z
M 2202 2113 
C 2042 1490 1907 1088 1677 687 
C 1491 363 1267 64 998 64 
C 800 64 640 217 640 846 
C 640 1260 742 1693 845 2113 
L 2202 2113 
z
" transform="scale(0.015625)"/>
      <path id="CMMI12-70" d="M 275 -789 
C 230 -980 205 -1031 -58 -1031 
C -134 -1031 -198 -1031 -198 -1152 
C -198 -1165 -192 -1216 -122 -1216 
C -38 -1216 51 -1216 134 -1216 
L 410 -1216 
C 544 -1216 870 -1216 1005 -1216 
C 1043 -1216 1120 -1216 1120 -1101 
C 1120 -1031 1075 -1031 966 -1031 
C 672 -1031 653 -987 653 -937 
C 653 -861 941 219 979 364 
C 1050 185 1222 -64 1555 -64 
C 2278 -64 3059 875 3059 1814 
C 3059 2401 2726 2816 2246 2816 
C 1837 2816 1491 2420 1421 2331 
C 1370 2650 1120 2816 864 2816 
C 678 2816 531 2727 410 2484 
C 294 2254 205 1865 205 1839 
C 205 1814 230 1782 275 1782 
C 326 1782 333 1788 371 1935 
C 467 2312 589 2689 845 2689 
C 992 2689 1043 2587 1043 2397 
C 1043 2245 1024 2181 998 2067 
L 275 -789 
z
M 1382 1993 
C 1427 2171 1606 2357 1709 2446 
C 1779 2510 1990 2689 2234 2689 
C 2515 2689 2643 2408 2643 2076 
C 2643 1769 2464 1047 2304 715 
C 2144 370 1850 64 1555 64 
C 1120 64 1050 613 1050 639 
C 1050 658 1062 709 1069 741 
L 1382 1993 
z
" transform="scale(0.015625)"/>
      <path id="CMR17-5b" d="M 1504 -1600 
L 1504 -1377 
L 902 -1377 
L 902 4544 
L 1504 4544 
L 1504 4767 
L 678 4767 
L 678 -1600 
L 1504 -1600 
z
" transform="scale(0.015625)"/>
      <path id="CMSY10-e" d="M 2842 1600 
C 2842 2277 2272 2828 1600 2828 
C 909 2828 352 2264 352 1600 
C 352 930 909 372 1600 372 
C 2272 372 2842 923 2842 1600 
z
M 1600 628 
C 1043 628 608 1070 608 1600 
C 608 2130 1050 2572 1600 2572 
C 2131 2572 2586 2142 2586 1600 
C 2586 1058 2131 628 1600 628 
z
" transform="scale(0.015625)"/>
      <path id="CMR17-5d" d="M 915 4767 
L 90 4767 
L 90 4544 
L 691 4544 
L 691 -1377 
L 90 -1377 
L 90 -1600 
L 915 -1600 
L 915 4767 
z
" transform="scale(0.015625)"/>
     </defs>
     <use xlink:href="#CMMI12-12" transform="scale(0.996264)"/>
     <use xlink:href="#CMMI12-70" transform="translate(45.45979 -14.943915) scale(0.697382)"/>
     <use xlink:href="#CMR17-5b" transform="translate(102.368635 0) scale(0.996264)"/>
     <use xlink:href="#CMSY10-e" transform="translate(127.239694 36.153639) scale(0.697382)"/>
     <use xlink:href="#CMR17-5d" transform="translate(162.607036 0) scale(0.996264)"/>
    </g>
   </g>
  </g>
  <g id="axis3d_3">
   <g id="line2d_13">
    <path d="M 112.29961 643.060007 
L 92.174445 171.545661 
" style="fill: none; stroke: #000000; stroke-width: 0.8; stroke-linecap: square"/>
   </g>
   <g id="xtick_11">
    <g id="line2d_14">
     <path d="M 113.307984 600.302477 
L 104.978723 604.503232 
" style="fill: none; stroke: #000000; stroke-width: 0.8; stroke-linecap: square"/>
    </g>
    <g id="text_13">
     <!-- $\mathdefault{0.462}$ -->
     <g transform="translate(55.098727 615.538326) scale(0.2 -0.2)">
      <use xlink:href="#CMR17-30" transform="scale(0.996264)"/>
      <use xlink:href="#CMMI12-3a" transform="translate(45.690477 0) scale(0.996264)"/>
      <use xlink:href="#CMR17-34" transform="translate(72.787654 0) scale(0.996264)"/>
      <use xlink:href="#CMR17-36" transform="translate(118.478131 0) scale(0.996264)"/>
      <use xlink:href="#CMR17-32" transform="translate(164.168608 0) scale(0.996264)"/>
     </g>
    </g>
   </g>
   <g id="xtick_12">
    <g id="line2d_15">
     <path d="M 109.258177 504.588679 
L 100.818396 508.696571 
" style="fill: none; stroke: #000000; stroke-width: 0.8; stroke-linecap: square"/>
    </g>
    <g id="text_14">
     <!-- $\mathdefault{0.463}$ -->
     <g transform="translate(50.580938 519.793587) scale(0.2 -0.2)">
      <defs>
       <path id="CMR17-33" d="M 1414 2157 
C 1984 2157 2234 1662 2234 1090 
C 2234 320 1824 25 1453 25 
C 1114 25 563 194 390 693 
C 422 680 454 680 486 680 
C 640 680 755 782 755 948 
C 755 1133 614 1216 486 1216 
C 378 1216 211 1165 211 926 
C 211 335 787 -128 1466 -128 
C 2176 -128 2720 430 2720 1085 
C 2720 1707 2208 2157 1600 2227 
C 2086 2328 2554 2756 2554 3329 
C 2554 3820 2048 4179 1472 4179 
C 890 4179 378 3829 378 3329 
C 378 3110 544 3072 627 3072 
C 762 3072 877 3155 877 3321 
C 877 3486 762 3569 627 3569 
C 602 3569 570 3569 544 3557 
C 730 3959 1235 4032 1459 4032 
C 1683 4032 2106 3925 2106 3320 
C 2106 3143 2080 2828 1862 2550 
C 1670 2304 1453 2304 1242 2284 
C 1210 2284 1062 2269 1037 2269 
C 992 2263 966 2257 966 2208 
C 966 2163 973 2157 1101 2157 
L 1414 2157 
z
" transform="scale(0.015625)"/>
      </defs>
      <use xlink:href="#CMR17-30" transform="scale(0.996264)"/>
      <use xlink:href="#CMMI12-3a" transform="translate(45.690477 0) scale(0.996264)"/>
      <use xlink:href="#CMR17-34" transform="translate(72.787654 0) scale(0.996264)"/>
      <use xlink:href="#CMR17-36" transform="translate(118.478131 0) scale(0.996264)"/>
      <use xlink:href="#CMR17-33" transform="translate(164.168608 0) scale(0.996264)"/>
     </g>
    </g>
   </g>
   <g id="xtick_13">
    <g id="line2d_16">
     <path d="M 105.105754 406.44961 
L 96.552488 410.458549 
" style="fill: none; stroke: #000000; stroke-width: 0.8; stroke-linecap: square"/>
    </g>
    <g id="text_15">
     <!-- $\mathdefault{0.464}$ -->
     <g transform="translate(45.948616 421.62155) scale(0.2 -0.2)">
      <use xlink:href="#CMR17-30" transform="scale(0.996264)"/>
      <use xlink:href="#CMMI12-3a" transform="translate(45.690477 0) scale(0.996264)"/>
      <use xlink:href="#CMR17-34" transform="translate(72.787654 0) scale(0.996264)"/>
      <use xlink:href="#CMR17-36" transform="translate(118.478131 0) scale(0.996264)"/>
      <use xlink:href="#CMR17-34" transform="translate(164.168608 0) scale(0.996264)"/>
     </g>
    </g>
   </g>
   <g id="xtick_14">
    <g id="line2d_17">
     <path d="M 100.846763 305.79191 
L 92.17693 309.695425 
" style="fill: none; stroke: #000000; stroke-width: 0.8; stroke-linecap: square"/>
    </g>
    <g id="text_16">
     <!-- $\mathdefault{0.465}$ -->
     <g transform="translate(41.197347 320.928727) scale(0.2 -0.2)">
      <defs>
       <path id="CMR17-35" d="M 730 3692 
C 794 3666 1056 3584 1325 3584 
C 1920 3584 2246 3911 2432 4100 
C 2432 4157 2432 4192 2394 4192 
C 2387 4192 2374 4192 2323 4163 
C 2099 4058 1837 3973 1517 3973 
C 1325 3973 1037 3999 723 4139 
C 653 4171 640 4171 634 4171 
C 602 4171 595 4164 595 4037 
L 595 2203 
C 595 2089 595 2057 659 2057 
C 691 2057 704 2070 736 2114 
C 941 2401 1222 2522 1542 2522 
C 1766 2522 2246 2382 2246 1289 
C 2246 1085 2246 715 2054 421 
C 1894 159 1645 25 1370 25 
C 947 25 518 320 403 814 
C 429 807 480 795 506 795 
C 589 795 749 840 749 1038 
C 749 1210 627 1280 506 1280 
C 358 1280 262 1190 262 1011 
C 262 454 704 -128 1382 -128 
C 2042 -128 2669 440 2669 1264 
C 2669 2030 2170 2624 1549 2624 
C 1222 2624 947 2503 730 2274 
L 730 3692 
z
" transform="scale(0.015625)"/>
      </defs>
      <use xlink:href="#CMR17-30" transform="scale(0.996264)"/>
      <use xlink:href="#CMMI12-3a" transform="translate(45.690477 0) scale(0.996264)"/>
      <use xlink:href="#CMR17-34" transform="translate(72.787654 0) scale(0.996264)"/>
      <use xlink:href="#CMR17-36" transform="translate(118.478131 0) scale(0.996264)"/>
      <use xlink:href="#CMR17-35" transform="translate(164.168608 0) scale(0.996264)"/>
     </g>
    </g>
   </g>
   <g id="xtick_15">
    <g id="line2d_18">
     <path d="M 96.477048 202.517359 
L 87.687439 206.308572 
" style="fill: none; stroke: #000000; stroke-width: 0.8; stroke-linecap: square"/>
    </g>
    <g id="text_17">
     <!-- $\mathdefault{0.466}$ -->
     <g transform="translate(36.322493 217.616764) scale(0.2 -0.2)">
      <use xlink:href="#CMR17-30" transform="scale(0.996264)"/>
      <use xlink:href="#CMMI12-3a" transform="translate(45.690477 0) scale(0.996264)"/>
      <use xlink:href="#CMR17-34" transform="translate(72.787654 0) scale(0.996264)"/>
      <use xlink:href="#CMR17-36" transform="translate(118.478131 0) scale(0.996264)"/>
      <use xlink:href="#CMR17-36" transform="translate(164.168608 0) scale(0.996264)"/>
     </g>
    </g>
   </g>
   <g id="text_18">
    <!-- $C_p$ -->
    <g transform="translate(11.110979 401.60403) rotate(-272.444014) scale(0.25 -0.25)">
     <defs>
      <path id="CMMI12-43" d="M 4781 4423 
C 4781 4480 4736 4480 4723 4480 
C 4710 4480 4685 4480 4634 4416 
L 4192 3882 
C 3968 4264 3616 4480 3136 4480 
C 1754 4480 320 3088 320 1595 
C 320 533 1069 -128 2003 -128 
C 2515 -128 2963 88 3334 400 
C 3891 863 4058 1481 4058 1531 
C 4058 1588 4006 1588 3987 1588 
C 3930 1588 3923 1550 3910 1524 
C 3616 534 2752 57 2112 57 
C 1434 57 845 489 845 1391 
C 845 1595 909 2700 1632 3532 
C 1984 3939 2586 4295 3194 4295 
C 3898 4295 4211 3717 4211 3068 
C 4211 2903 4192 2764 4192 2738 
C 4192 2681 4256 2681 4275 2681 
C 4346 2681 4352 2687 4378 2801 
L 4781 4423 
z
" transform="scale(0.015625)"/>
     </defs>
     <use xlink:href="#CMMI12-43" transform="scale(0.996264)"/>
     <use xlink:href="#CMMI12-70" transform="translate(69.792037 -14.943915) scale(0.697382)"/>
    </g>
   </g>
  </g>
  <g id="axes_1">
   <g id="Poly3DCollection_1">
    <path d="M 437.010811 464.582537 
L 406.382482 360.507917 
L 433.92872 366.375973 
L 464.130764 482.011708 
z
" clip-path="url(#pdb30288b33)" style="fill: #1b068d"/>
    <path d="M 464.130764 482.011708 
L 433.92872 366.375973 
L 461.833462 369.168746 
L 491.495517 501.433968 
z
" clip-path="url(#pdb30288b33)" style="fill: #20068f"/>
    <path d="M 491.495517 501.433968 
L 461.833462 369.168746 
L 490.064471 379.691579 
L 519.123293 519.629989 
z
" clip-path="url(#pdb30288b33)" style="fill: #220690"/>
    <path d="M 519.123293 519.629989 
L 490.064471 379.691579 
L 518.566796 395.88744 
L 547.078061 533.428853 
z
" clip-path="url(#pdb30288b33)" style="fill: #20068f"/>
    <path d="M 547.078061 533.428853 
L 518.566796 395.88744 
L 547.402181 409.412642 
L 575.188671 555.392942 
z
" clip-path="url(#pdb30288b33)" style="fill: #1b068d"/>
    <path d="M 406.382482 360.507917 
L 374.364312 244.134114 
L 402.299596 241.529803 
L 433.92872 366.375973 
z
" clip-path="url(#pdb30288b33)" style="fill: #b02991"/>
    <path d="M 575.188671 555.392942 
L 547.402181 409.412642 
L 576.4484 429.170973 
L 603.705001 570.081934 
z
" clip-path="url(#pdb30288b33)" style="fill: #16078a"/>
    <path d="M 433.92872 366.375973 
L 402.299596 241.529803 
L 430.656632 244.086322 
L 461.833462 369.168746 
z
" clip-path="url(#pdb30288b33)" style="fill: #b83289"/>
    <path d="M 603.705001 570.081934 
L 576.4484 429.170973 
L 605.66463 454.089049 
L 632.810782 573.757717 
z
" clip-path="url(#pdb30288b33)" style="fill: #130789"/>
    <path d="M 461.833462 369.168746 
L 430.656632 244.086322 
L 459.408377 244.818292 
L 490.064471 379.691579 
z
" clip-path="url(#pdb30288b33)" style="fill: #bf3984"/>
    <path d="M 632.810782 573.757717 
L 605.66463 454.089049 
L 635.553714 462.342484 
L 661.986149 588.697543 
z
" clip-path="url(#pdb30288b33)" style="fill: #19068c"/>
    <path d="M 490.064471 379.691579 
L 459.408377 244.818292 
L 488.525681 252.662253 
L 518.566796 395.88744 
z
" clip-path="url(#pdb30288b33)" style="fill: #c33d80"/>
    <path d="M 661.986149 588.697543 
L 635.553714 462.342484 
L 665.850213 469.805678 
L 691.341427 607.877757 
z
" clip-path="url(#pdb30288b33)" style="fill: #1b068d"/>
    <path d="M 374.364312 244.134114 
L 340.999745 134.212764 
L 369.326394 134.661436 
L 402.299596 241.529803 
z
" clip-path="url(#pdb30288b33)" style="fill: #f89540"/>
    <path d="M 518.566796 395.88744 
L 488.525681 252.662253 
L 517.900915 271.34387 
L 547.402181 409.412642 
z
" clip-path="url(#pdb30288b33)" style="fill: #c33d80"/>
    <path d="M 691.341427 607.877757 
L 665.850213 469.805678 
L 695.475029 509.34106 
L 720.726293 634.169708 
z
" clip-path="url(#pdb30288b33)" style="fill: #0d0887"/>
    <path d="M 402.299596 241.529803 
L 369.326394 134.661436 
L 398.14794 153.912001 
L 430.656632 244.086322 
z
" clip-path="url(#pdb30288b33)" style="fill: #fa9e3b"/>
    <path d="M 547.402181 409.412642 
L 517.900915 271.34387 
L 547.342661 306.449384 
L 576.4484 429.170973 
z
" clip-path="url(#pdb30288b33)" style="fill: #bd3786"/>
    <path d="M 576.4484 429.170973 
L 547.342661 306.449384 
L 576.87468 346.406698 
L 605.66463 454.089049 
z
" clip-path="url(#pdb30288b33)" style="fill: #b12a90"/>
    <path d="M 430.656632 244.086322 
L 398.14794 153.912001 
L 427.25403 178.23207 
L 459.408377 244.818292 
z
" clip-path="url(#pdb30288b33)" style="fill: #fb9f3a"/>
    <path d="M 605.66463 454.089049 
L 576.87468 346.406698 
L 606.428028 391.988522 
L 635.553714 462.342484 
z
" clip-path="url(#pdb30288b33)" style="fill: #a51f99"/>
    <path d="M 340.999745 134.212764 
L 307.909522 129.87375 
L 336.302392 135.192779 
L 369.326394 134.661436 
z
" clip-path="url(#pdb30288b33)" style="fill: #f8df25"/>
    <path d="M 459.408377 244.818292 
L 427.25403 178.23207 
L 456.61539 199.392481 
L 488.525681 252.662253 
z
" clip-path="url(#pdb30288b33)" style="fill: #fb9f3a"/>
    <path d="M 635.553714 462.342484 
L 606.428028 391.988522 
L 635.92612 443.72998 
L 665.850213 469.805678 
z
" clip-path="url(#pdb30288b33)" style="fill: #9814a0"/>
    <path d="M 178.096685 366.408571 
L 147.728551 484.724923 
L 173.543176 450.398589 
L 204.756289 340.600821 
z
" clip-path="url(#pdb30288b33)" style="fill: #b12a90"/>
    <path d="M 369.326394 134.661436 
L 336.302392 135.192779 
L 365.11641 145.88003 
L 398.14794 153.912001 
z
" clip-path="url(#pdb30288b33)" style="fill: #f7e425"/>
    <path d="M 307.909522 129.87375 
L 274.89074 157.308987 
L 303.048329 153.778083 
L 336.302392 135.192779 
z
" clip-path="url(#pdb30288b33)" style="fill: #f7e425"/>
    <path d="M 665.850213 469.805678 
L 635.92612 443.72998 
L 666.153299 472.58831 
L 695.475029 509.34106 
z
" clip-path="url(#pdb30288b33)" style="fill: #8707a6"/>
    <path d="M 488.525681 252.662253 
L 456.61539 199.392481 
L 486.204961 228.412242 
L 517.900915 271.34387 
z
" clip-path="url(#pdb30288b33)" style="fill: #f99a3e"/>
    <path d="M 209.630172 272.530071 
L 178.096685 366.408571 
L 204.756289 340.600821 
L 236.885642 251.892884 
z
" clip-path="url(#pdb30288b33)" style="fill: #e76f5a"/>
    <path d="M 274.89074 157.308987 
L 242.046881 204.830544 
L 269.837906 193.260049 
L 303.048329 153.778083 
z
" clip-path="url(#pdb30288b33)" style="fill: #fcce25"/>
    <path d="M 398.14794 153.912001 
L 365.11641 145.88003 
L 394.302072 161.959484 
L 427.25403 178.23207 
z
" clip-path="url(#pdb30288b33)" style="fill: #f8df25"/>
    <path d="M 517.900915 271.34387 
L 486.204961 228.412242 
L 515.961674 263.141352 
L 547.342661 306.449384 
z
" clip-path="url(#pdb30288b33)" style="fill: #f58c46"/>
    <path d="M 242.046881 204.830544 
L 209.630172 272.530071 
L 236.885642 251.892884 
L 269.837906 193.260049 
z
" clip-path="url(#pdb30288b33)" style="fill: #fca636"/>
    <path d="M 336.302392 135.192779 
L 303.048329 153.778083 
L 331.72496 156.487206 
L 365.11641 145.88003 
z
" clip-path="url(#pdb30288b33)" style="fill: #f3ee27"/>
    <path d="M 547.342661 306.449384 
L 515.961674 263.141352 
L 545.816262 304.240988 
L 576.87468 346.406698 
z
" clip-path="url(#pdb30288b33)" style="fill: #eb7655"/>
    <path d="M 427.25403 178.23207 
L 394.302072 161.959484 
L 423.809096 184.088153 
L 456.61539 199.392481 
z
" clip-path="url(#pdb30288b33)" style="fill: #fbd724"/>
    <path d="M 576.87468 346.406698 
L 545.816262 304.240988 
L 575.95094 337.363526 
L 606.428028 391.988522 
z
" clip-path="url(#pdb30288b33)" style="fill: #df6263"/>
    <path d="M 204.756289 340.600821 
L 173.543176 450.398589 
L 200.191873 422.155535 
L 232.153145 320.361047 
z
" clip-path="url(#pdb30288b33)" style="fill: #ce4b75"/>
    <path d="M 303.048329 153.778083 
L 269.837906 193.260049 
L 298.220762 187.294203 
L 331.72496 156.487206 
z
" clip-path="url(#pdb30288b33)" style="fill: #f7e225"/>
    <path d="M 606.428028 391.988522 
L 575.95094 337.363526 
L 606.028845 382.710175 
L 635.92612 443.72998 
z
" clip-path="url(#pdb30288b33)" style="fill: #cd4a76"/>
    <path d="M 365.11641 145.88003 
L 331.72496 156.487206 
L 360.856855 164.770862 
L 394.302072 161.959484 
z
" clip-path="url(#pdb30288b33)" style="fill: #f1f426"/>
    <path d="M 456.61539 199.392481 
L 423.809096 184.088153 
L 453.596965 202.731706 
L 486.204961 228.412242 
z
" clip-path="url(#pdb30288b33)" style="fill: #fccd25"/>
    <path d="M 635.92612 443.72998 
L 606.028845 382.710175 
L 636.069456 433.964038 
L 666.153299 472.58831 
z
" clip-path="url(#pdb30288b33)" style="fill: #ba3388"/>
    <path d="M 236.885642 251.892884 
L 204.756289 340.600821 
L 232.153145 320.361047 
L 264.819839 236.831372 
z
" clip-path="url(#pdb30288b33)" style="fill: #f68d45"/>
    <path d="M 269.837906 193.260049 
L 236.885642 251.892884 
L 264.819839 236.831372 
L 298.220762 187.294203 
z
" clip-path="url(#pdb30288b33)" style="fill: #fdc328"/>
    <path d="M 486.204961 228.412242 
L 453.596965 202.731706 
L 483.638213 230.418653 
L 515.961674 263.141352 
z
" clip-path="url(#pdb30288b33)" style="fill: #febd2a"/>
    <path d="M 394.302072 161.959484 
L 360.856855 164.770862 
L 390.394511 179.052737 
L 423.809096 184.088153 
z
" clip-path="url(#pdb30288b33)" style="fill: #f2f227"/>
    <path d="M 331.72496 156.487206 
L 298.220762 187.294203 
L 327.148569 187.10938 
L 360.856855 164.770862 
z
" clip-path="url(#pdb30288b33)" style="fill: #f2f227"/>
    <path d="M 232.153145 320.361047 
L 200.191873 422.155535 
L 227.675261 401.911149 
L 260.246494 305.942603 
z
" clip-path="url(#pdb30288b33)" style="fill: #e26660"/>
    <path d="M 515.961674 263.141352 
L 483.638213 230.418653 
L 513.865976 264.076376 
L 545.816262 304.240988 
z
" clip-path="url(#pdb30288b33)" style="fill: #fca934"/>
    <path d="M 298.220762 187.294203 
L 264.819839 236.831372 
L 293.454785 231.224555 
L 327.148569 187.10938 
z
" clip-path="url(#pdb30288b33)" style="fill: #fad824"/>
    <path d="M 264.819839 236.831372 
L 232.153145 320.361047 
L 260.246494 305.942603 
L 293.454785 231.224555 
z
" clip-path="url(#pdb30288b33)" style="fill: #fca835"/>
    <path d="M 423.809096 184.088153 
L 390.394511 179.052737 
L 420.279766 199.3511 
L 453.596965 202.731706 
z
" clip-path="url(#pdb30288b33)" style="fill: #f5eb27"/>
    <path d="M 545.816262 304.240988 
L 513.865976 264.076376 
L 544.214215 303.877133 
L 575.95094 337.363526 
z
" clip-path="url(#pdb30288b33)" style="fill: #f79342"/>
    <path d="M 360.856855 164.770862 
L 327.148569 187.10938 
L 356.569883 192.829698 
L 390.394511 179.052737 
z
" clip-path="url(#pdb30288b33)" style="fill: #f0f921"/>
    <path d="M 575.95094 337.363526 
L 544.214215 303.877133 
L 574.852336 336.207216 
L 606.028845 382.710175 
z
" clip-path="url(#pdb30288b33)" style="fill: #f07f4f"/>
    <path d="M 453.596965 202.731706 
L 420.279766 199.3511 
L 450.470646 214.806086 
L 483.638213 230.418653 
z
" clip-path="url(#pdb30288b33)" style="fill: #f7e425"/>
    <path d="M 606.028845 382.710175 
L 574.852336 336.207216 
L 605.448802 380.904179 
L 636.069456 433.964038 
z
" clip-path="url(#pdb30288b33)" style="fill: #e26660"/>
    <path d="M 260.246494 305.942603 
L 227.675261 401.911149 
L 255.876052 387.73866 
L 289.001677 298.200627 
z
" clip-path="url(#pdb30288b33)" style="fill: #f07f4f"/>
    <path d="M 327.148569 187.10938 
L 293.454785 231.224555 
L 322.652588 231.798277 
L 356.569883 192.829698 
z
" clip-path="url(#pdb30288b33)" style="fill: #f6e826"/>
    <path d="M 390.394511 179.052737 
L 356.569883 192.829698 
L 386.429864 204.584138 
L 420.279766 199.3511 
z
" clip-path="url(#pdb30288b33)" style="fill: #f0f921"/>
    <path d="M 293.454785 231.224555 
L 260.246494 305.942603 
L 289.001677 298.200627 
L 322.652588 231.798277 
z
" clip-path="url(#pdb30288b33)" style="fill: #febd2a"/>
    <path d="M 483.638213 230.418653 
L 450.470646 214.806086 
L 480.944506 240.875272 
L 513.865976 264.076376 
z
" clip-path="url(#pdb30288b33)" style="fill: #fbd724"/>
    <path d="M 513.865976 264.076376 
L 480.944506 240.875272 
L 511.626525 273.226108 
L 544.214215 303.877133 
z
" clip-path="url(#pdb30288b33)" style="fill: #fdc229"/>
    <path d="M 420.279766 199.3511 
L 386.429864 204.584138 
L 416.669905 222.446879 
L 450.470646 214.806086 
z
" clip-path="url(#pdb30288b33)" style="fill: #f0f724"/>
    <path d="M 356.569883 192.829698 
L 322.652588 231.798277 
L 352.355585 238.554379 
L 386.429864 204.584138 
z
" clip-path="url(#pdb30288b33)" style="fill: #f2f227"/>
    <path d="M 289.001677 298.200627 
L 255.876052 387.73866 
L 284.745649 379.908205 
L 318.355238 297.010926 
z
" clip-path="url(#pdb30288b33)" style="fill: #f79342"/>
    <path d="M 322.652588 231.798277 
L 289.001677 298.200627 
L 318.355238 297.010926 
L 352.355585 238.554379 
z
" clip-path="url(#pdb30288b33)" style="fill: #fdcb26"/>
    <path d="M 544.214215 303.877133 
L 511.626525 273.226108 
L 542.448099 311.915627 
L 574.852336 336.207216 
z
" clip-path="url(#pdb30288b33)" style="fill: #fdac33"/>
    <path d="M 450.470646 214.806086 
L 416.669905 222.446879 
L 447.240934 236.725379 
L 480.944506 240.875272 
z
" clip-path="url(#pdb30288b33)" style="fill: #f2f227"/>
    <path d="M 574.852336 336.207216 
L 542.448099 311.915627 
L 573.577429 343.114224 
L 605.448802 380.904179 
z
" clip-path="url(#pdb30288b33)" style="fill: #f9983e"/>
    <path d="M 386.429864 204.584138 
L 352.355585 238.554379 
L 382.509019 252.184438 
L 416.669905 222.446879 
z
" clip-path="url(#pdb30288b33)" style="fill: #f1f426"/>
    <path d="M 352.355585 238.554379 
L 318.355238 297.010926 
L 348.259485 303.664354 
L 382.509019 252.184438 
z
" clip-path="url(#pdb30288b33)" style="fill: #fbd524"/>
    <path d="M 318.355238 297.010926 
L 284.745649 379.908205 
L 314.227529 378.549226 
L 348.259485 303.664354 
z
" clip-path="url(#pdb30288b33)" style="fill: #fba139"/>
    <path d="M 480.944506 240.875272 
L 447.240934 236.725379 
L 478.100959 265.134724 
L 511.626525 273.226108 
z
" clip-path="url(#pdb30288b33)" style="fill: #f6e626"/>
    <path d="M 416.669905 222.446879 
L 382.509019 252.184438 
L 413.020647 265.022539 
L 447.240934 236.725379 
z
" clip-path="url(#pdb30288b33)" style="fill: #f2f227"/>
    <path d="M 511.626525 273.226108 
L 478.100959 265.134724 
L 509.153465 300.885354 
L 542.448099 311.915627 
z
" clip-path="url(#pdb30288b33)" style="fill: #fcd025"/>
    <path d="M 382.509019 252.184438 
L 348.259485 303.664354 
L 378.63243 317.727176 
L 413.020647 265.022539 
z
" clip-path="url(#pdb30288b33)" style="fill: #fbd724"/>
    <path d="M 348.259485 303.664354 
L 314.227529 378.549226 
L 344.262757 383.909798 
L 378.63243 317.727176 
z
" clip-path="url(#pdb30288b33)" style="fill: #fca934"/>
    <path d="M 542.448099 311.915627 
L 509.153465 300.885354 
L 540.325566 343.295108 
L 573.577429 343.114224 
z
" clip-path="url(#pdb30288b33)" style="fill: #feba2c"/>
    <path d="M 447.240934 236.725379 
L 413.020647 265.022539 
L 443.90077 285.524464 
L 478.100959 265.134724 
z
" clip-path="url(#pdb30288b33)" style="fill: #f4ed27"/>
    <path d="M 413.020647 265.022539 
L 378.63243 317.727176 
L 409.361293 328.729343 
L 443.90077 285.524464 
z
" clip-path="url(#pdb30288b33)" style="fill: #fbd724"/>
    <path d="M 478.100959 265.134724 
L 443.90077 285.524464 
L 475.069174 313.417144 
L 509.153465 300.885354 
z
" clip-path="url(#pdb30288b33)" style="fill: #f8df25"/>
    <path d="M 378.63243 317.727176 
L 344.262757 383.909798 
L 374.785461 396.094189 
L 409.361293 328.729343 
z
" clip-path="url(#pdb30288b33)" style="fill: #fdae32"/>
    <path d="M 509.153465 300.885354 
L 475.069174 313.417144 
L 506.433397 350.023998 
L 540.325566 343.295108 
z
" clip-path="url(#pdb30288b33)" style="fill: #fdc827"/>
    <path d="M 443.90077 285.524464 
L 409.361293 328.729343 
L 440.48512 349.735908 
L 475.069174 313.417144 
z
" clip-path="url(#pdb30288b33)" style="fill: #fcd225"/>
    <path d="M 409.361293 328.729343 
L 374.785461 396.094189 
L 405.677577 403.078675 
L 440.48512 349.735908 
z
" clip-path="url(#pdb30288b33)" style="fill: #fdaf31"/>
    <path d="M 475.069174 313.417144 
L 440.48512 349.735908 
L 471.905712 378.022231 
L 506.433397 350.023998 
z
" clip-path="url(#pdb30288b33)" style="fill: #fdc328"/>
    <path d="M 440.48512 349.735908 
L 405.677577 403.078675 
L 437.010811 423.41596 
L 471.905712 378.022231 
z
" clip-path="url(#pdb30288b33)" style="fill: #fdac33"/>
   </g>
  </g>
 </g>
 <defs>
  <clipPath id="pdb30288b33">
   <rect x="7.2" y="7.2" width="837" height="837"/>
  </clipPath>
 </defs>
</svg>
