<?xml version="1.0" encoding="utf-8" standalone="no"?>
<!DOCTYPE svg PUBLIC "-//W3C//DTD SVG 1.1//EN"
  "http://www.w3.org/Graphics/SVG/1.1/DTD/svg11.dtd">
<svg xmlns:xlink="http://www.w3.org/1999/xlink" width="1152pt" height="720pt" viewBox="0 0 1152 720" xmlns="http://www.w3.org/2000/svg" version="1.1">
 <metadata>
  <rdf:RDF xmlns:dc="http://purl.org/dc/elements/1.1/" xmlns:cc="http://creativecommons.org/ns#" xmlns:rdf="http://www.w3.org/1999/02/22-rdf-syntax-ns#">
   <cc:Work>
    <dc:type rdf:resource="http://purl.org/dc/dcmitype/StillImage"/>
    <dc:date>2024-09-30T15:20:42.062208</dc:date>
    <dc:format>image/svg+xml</dc:format>
    <dc:creator>
     <cc:Agent>
      <dc:title>Matplotlib v3.8.4, https://matplotlib.org/</dc:title>
     </cc:Agent>
    </dc:creator>
   </cc:Work>
  </rdf:RDF>
 </metadata>
 <defs>
  <style type="text/css">*{stroke-linejoin: round; stroke-linecap: butt}</style>
 </defs>
 <g id="figure_1">
  <g id="patch_1">
   <path d="M 0 720 
L 1152 720 
L 1152 0 
L 0 0 
z
" style="fill: #ffffff"/>
  </g>
  <g id="axes_1">
   <g id="patch_2">
    <path d="M 144 640.8 
L 858.24 640.8 
L 858.24 43.2 
L 144 43.2 
z
" style="fill: #ffffff"/>
   </g>
   <g id="QuadContourSet_1">
    <path d="M 149.000868 43.2 
L 144 43.2 
L 144 47.810352 
z
" clip-path="url(#pa78c66dd5c)" style="fill: #16078a"/>
    <path d="M 181.189274 43.2 
L 149.000868 43.2 
L 144 47.810352 
L 144 77.485174 
z
" clip-path="url(#pa78c66dd5c)" style="fill: #240691"/>
    <path d="M 148.526291 102.96 
L 213.377679 43.2 
L 181.189274 43.2 
L 144 77.485174 
L 144 102.96 
L 144 107.181911 
z
" clip-path="url(#pa78c66dd5c)" style="fill: #2f0596"/>
    <path d="M 180.506532 102.96 
L 245.566085 43.2 
L 213.377679 43.2 
L 148.526291 102.96 
L 144 107.181911 
L 144 137.011576 
z
" clip-path="url(#pa78c66dd5c)" style="fill: #3a049a"/>
    <path d="M 148.390895 162.72 
L 212.486773 102.96 
L 277.754491 43.2 
L 245.566085 43.2 
L 180.506532 102.96 
L 144 137.011576 
L 144 162.72 
L 144 166.86418 
z
" clip-path="url(#pa78c66dd5c)" style="fill: #44039e"/>
    <path d="M 180.172318 162.72 
L 244.467014 102.96 
L 286.848 64.190332 
L 310.366376 43.2 
L 286.848 43.2 
L 277.754491 43.2 
L 212.486773 102.96 
L 148.390895 162.72 
L 144 166.86418 
L 144 196.859875 
z
" clip-path="url(#pa78c66dd5c)" style="fill: #4e02a2"/>
    <path d="M 148.610059 222.48 
L 211.953741 162.72 
L 276.447255 102.96 
L 286.848 93.445511 
L 343.145005 43.2 
L 310.366376 43.2 
L 286.848 64.190332 
L 244.467014 102.96 
L 180.172318 162.72 
L 144 196.859875 
L 144 222.48 
L 144 226.853293 
z
" clip-path="url(#pa78c66dd5c)" style="fill: #5801a4"/>
    <path d="M 180.213234 222.48 
L 243.735164 162.72 
L 286.848 122.811451 
L 308.401782 102.96 
L 375.923633 43.2 
L 343.145005 43.2 
L 286.848 93.445511 
L 276.447255 102.96 
L 211.953741 162.72 
L 148.610059 222.48 
L 144 226.853293 
L 144 256.83338 
z
" clip-path="url(#pa78c66dd5c)" style="fill: #6100a7"/>
    <path d="M 148.811948 282.24 
L 211.816409 222.48 
L 275.516587 162.72 
L 286.848 152.230775 
L 340.343915 102.96 
L 408.702262 43.2 
L 375.923633 43.2 
L 308.401782 102.96 
L 286.848 122.811451 
L 243.735164 162.72 
L 180.213234 222.48 
L 144 256.83338 
L 144 282.24 
L 144 286.789833 
z
" clip-path="url(#pa78c66dd5c)" style="fill: #6a00a8"/>
    <path d="M 180.35533 282.24 
L 243.419584 222.48 
L 286.848 181.778459 
L 307.364267 162.72 
L 372.286049 102.96 
L 429.696 53.161558 
L 442.898661 43.2 
L 429.696 43.2 
L 408.702262 43.2 
L 340.343915 102.96 
L 286.848 152.230775 
L 275.516587 162.72 
L 211.816409 222.48 
L 148.811948 282.24 
L 144 286.789833 
L 144 316.614996 
z
" clip-path="url(#pa78c66dd5c)" style="fill: #7401a8"/>
    <path d="M 148.742538 342 
L 211.898712 282.24 
L 275.022759 222.48 
L 286.848 211.397267 
L 339.248659 162.72 
L 404.228182 102.96 
L 429.696 80.868749 
L 479.620691 43.2 
L 442.898661 43.2 
L 429.696 53.161558 
L 372.286049 102.96 
L 307.364267 162.72 
L 286.848 181.778459 
L 243.419584 222.48 
L 180.35533 282.24 
L 144 316.614996 
L 144 342 
L 144 346.411533 
z
" clip-path="url(#pa78c66dd5c)" style="fill: #7e03a8"/>
    <path d="M 180.598825 342 
L 243.442095 282.24 
L 286.848 241.161869 
L 306.720465 222.48 
L 371.133051 162.72 
L 429.696 108.89929 
L 437.048624 102.96 
L 516.342722 43.2 
L 479.620691 43.2 
L 429.696 80.868749 
L 404.228182 102.96 
L 339.248659 162.72 
L 286.848 211.397267 
L 275.022759 222.48 
L 211.898712 282.24 
L 148.742538 342 
L 144 346.411533 
L 144 376.044411 
z
" clip-path="url(#pa78c66dd5c)" style="fill: #8707a6"/>
    <path d="M 148.279194 401.76 
L 212.455112 342 
L 274.985477 282.24 
L 286.848 271.013641 
L 338.474691 222.48 
L 403.017443 162.72 
L 429.696 138.201787 
L 473.324044 102.96 
L 553.064752 43.2 
L 516.342722 43.2 
L 437.048624 102.96 
L 429.696 108.89929 
L 371.133051 162.72 
L 306.720465 222.48 
L 286.848 241.161869 
L 243.442095 282.24 
L 180.598825 342 
L 144 376.044411 
L 144 401.76 
L 144 405.758445 
z
" clip-path="url(#pa78c66dd5c)" style="fill: #8f0da4"/>
    <path d="M 180.649744 401.76 
L 244.311399 342 
L 286.848 301.271308 
L 306.698041 282.24 
L 370.228918 222.48 
L 429.696 167.512308 
L 435.381957 162.72 
L 509.599463 102.96 
L 572.544 55.92727 
L 590.047959 43.2 
L 572.544 43.2 
L 553.064752 43.2 
L 473.324044 102.96 
L 429.696 138.201787 
L 403.017443 162.72 
L 338.474691 222.48 
L 286.848 271.013641 
L 274.985477 282.24 
L 212.455112 342 
L 148.279194 401.76 
L 144 405.758445 
L 144 436.005229 
z
" clip-path="url(#pa78c66dd5c)" style="fill: #9814a0"/>
    <path d="M 149.115776 461.52 
L 213.020293 401.76 
L 276.167686 342 
L 286.848 331.773625 
L 338.512578 282.24 
L 401.983144 222.48 
L 429.696 196.86395 
L 470.206971 162.72 
L 545.874882 102.96 
L 572.544 83.032593 
L 627.326219 43.2 
L 590.047959 43.2 
L 572.544 55.92727 
L 509.599463 102.96 
L 435.381957 162.72 
L 429.696 167.512308 
L 370.228918 222.48 
L 306.698041 282.24 
L 286.848 301.271308 
L 244.311399 342 
L 180.649744 401.76 
L 144 436.005229 
L 144 461.52 
L 144 466.305734 
z
" clip-path="url(#pa78c66dd5c)" style="fill: #a01a9c"/>
    <path d="M 181.815559 461.52 
L 245.390843 401.76 
L 286.848 362.4193 
L 307.904526 342 
L 370.327116 282.24 
L 429.696 226.295498 
L 434.000436 222.48 
L 505.031984 162.72 
L 572.544 110.142184 
L 582.316856 102.96 
L 664.604478 43.2 
L 627.326219 43.2 
L 572.544 83.032593 
L 545.874882 102.96 
L 470.206971 162.72 
L 429.696 196.86395 
L 401.983144 222.48 
L 338.512578 282.24 
L 286.848 331.773625 
L 276.167686 342 
L 213.020293 401.76 
L 149.115776 461.52 
L 144 466.305734 
L 144 496.895907 
z
" clip-path="url(#pa78c66dd5c)" style="fill: #a72197"/>
    <path d="M 150.688721 521.28 
L 214.515342 461.52 
L 277.761393 401.76 
L 286.848 393.137279 
L 339.581123 342 
L 402.141653 282.24 
L 429.696 256.274981 
L 467.821644 222.48 
L 539.856998 162.72 
L 572.544 137.263625 
L 619.221221 102.96 
L 701.882738 43.2 
L 664.604478 43.2 
L 582.316856 102.96 
L 572.544 110.142184 
L 505.031984 162.72 
L 434.000436 222.48 
L 429.696 226.295498 
L 370.327116 282.24 
L 307.904526 342 
L 286.848 362.4193 
L 245.390843 401.76 
L 181.815559 461.52 
L 144 496.895907 
L 144 521.28 
L 144 527.557866 
z
" clip-path="url(#pa78c66dd5c)" style="fill: #ae2892"/>
    <path d="M 183.657868 521.28 
L 247.215126 461.52 
L 286.848 424.016843 
L 309.528467 401.76 
L 371.25772 342 
L 429.696 286.284115 
L 434.072047 282.24 
L 501.642853 222.48 
L 572.544 164.420315 
L 574.807554 162.72 
L 656.125586 102.96 
L 715.392 60.183566 
L 739.508892 43.2 
L 715.392 43.2 
L 701.882738 43.2 
L 619.221221 102.96 
L 572.544 137.263625 
L 539.856998 162.72 
L 467.821644 222.48 
L 429.696 256.274981 
L 402.141653 282.24 
L 339.581123 342 
L 286.848 393.137279 
L 277.761393 401.76 
L 214.515342 461.52 
L 150.688721 521.28 
L 144 527.557866 
L 144 558.501877 
z
" clip-path="url(#pa78c66dd5c)" style="fill: #b52f8c"/>
    <path d="M 152.979917 581.04 
L 216.627014 521.28 
L 279.914909 461.52 
L 286.848 454.959466 
L 341.060033 401.76 
L 402.934316 342 
L 429.696 316.485032 
L 466.751783 282.24 
L 535.464061 222.48 
L 572.544 192.115899 
L 611.677459 162.72 
L 693.029951 102.96 
L 715.392 86.819852 
L 777.332774 43.2 
L 739.508892 43.2 
L 715.392 60.183566 
L 656.125586 102.96 
L 574.807554 162.72 
L 572.544 164.420315 
L 501.642853 222.48 
L 434.072047 282.24 
L 429.696 286.284115 
L 371.25772 342 
L 309.528467 401.76 
L 286.848 424.016843 
L 247.215126 461.52 
L 183.657868 521.28 
L 144 558.501877 
L 144 581.04 
L 144 589.500057 
z
" clip-path="url(#pa78c66dd5c)" style="fill: #bc3587"/>
    <path d="M 186.037058 581.04 
L 249.596161 521.28 
L 286.848 486.072941 
L 311.707001 461.52 
L 372.591599 401.76 
L 429.696 346.715895 
L 434.626174 342 
L 499.431519 282.24 
L 569.28527 222.48 
L 572.544 219.811484 
L 648.547364 162.72 
L 715.392 113.629797 
L 730.232548 102.96 
L 815.156657 43.2 
L 777.332774 43.2 
L 715.392 86.819852 
L 693.029951 102.96 
L 611.677459 162.72 
L 572.544 192.115899 
L 535.464061 222.48 
L 466.751783 282.24 
L 429.696 316.485032 
L 402.934316 342 
L 341.060033 401.76 
L 286.848 454.959466 
L 279.914909 461.52 
L 216.627014 521.28 
L 152.979917 581.04 
L 144 589.500057 
L 144 620.643471 
z
" clip-path="url(#pa78c66dd5c)" style="fill: #c23c81"/>
    <path d="M 219.0942 581.04 
L 282.565307 521.28 
L 286.848 517.232387 
L 343.25486 461.52 
L 404.123166 401.76 
L 429.696 377.10982 
L 466.401128 342 
L 532.111255 282.24 
L 572.544 247.704095 
L 605.78528 222.48 
L 685.41727 162.72 
L 715.392 140.706781 
L 767.893743 102.96 
L 852.98054 43.2 
L 815.156657 43.2 
L 730.232548 102.96 
L 715.392 113.629797 
L 648.547364 162.72 
L 572.544 219.811484 
L 569.28527 222.48 
L 499.431519 282.24 
L 434.626174 342 
L 429.696 346.715895 
L 372.591599 401.76 
L 311.707001 461.52 
L 286.848 486.072941 
L 249.596161 521.28 
L 186.037058 581.04 
L 144 620.643471 
L 144 640.8 
L 155.622398 640.8 
z
" clip-path="url(#pa78c66dd5c)" style="fill: #c8437b"/>
    <path d="M 252.151341 581.04 
L 286.848 548.366144 
L 314.180067 521.28 
L 374.802719 461.52 
L 429.696 407.614528 
L 435.685901 401.76 
L 498.176082 342 
L 564.790991 282.24 
L 572.544 275.617715 
L 642.570918 222.48 
L 715.392 167.878235 
L 722.418147 162.72 
L 805.554939 102.96 
L 858.24 65.966923 
L 858.24 43.2 
L 852.98054 43.2 
L 767.893743 102.96 
L 715.392 140.706781 
L 685.41727 162.72 
L 605.78528 222.48 
L 572.544 247.704095 
L 532.111255 282.24 
L 466.401128 342 
L 429.696 377.10982 
L 404.123166 401.76 
L 343.25486 461.52 
L 286.848 517.232387 
L 282.565307 521.28 
L 219.0942 581.04 
L 155.622398 640.8 
L 188.567235 640.8 
z
" clip-path="url(#pa78c66dd5c)" style="fill: #ce4b75"/>
    <path d="M 285.208482 581.04 
L 286.848 579.496065 
L 345.592627 521.28 
L 406.350578 461.52 
L 429.696 438.59468 
L 467.382401 401.76 
L 529.951036 342 
L 572.544 303.912731 
L 600.334396 282.24 
L 679.356556 222.48 
L 715.392 195.460368 
L 759.988389 162.72 
L 843.216134 102.96 
L 858.24 92.410918 
L 858.24 65.966923 
L 805.554939 102.96 
L 722.418147 162.72 
L 715.392 167.878235 
L 642.570918 222.48 
L 572.544 275.617715 
L 564.790991 282.24 
L 498.176082 342 
L 435.685901 401.76 
L 429.696 407.614528 
L 374.802719 461.52 
L 314.180067 521.28 
L 286.848 548.366144 
L 252.151341 581.04 
L 188.567235 640.8 
L 221.512072 640.8 
z
" clip-path="url(#pa78c66dd5c)" style="fill: #d45270"/>
    <path d="M 286.848 610.413321 
L 317.254977 581.04 
L 377.005186 521.28 
L 429.696 469.539896 
L 437.953061 461.52 
L 499.078901 401.76 
L 561.72599 342 
L 572.544 332.326373 
L 636.768493 282.24 
L 715.392 223.03947 
L 716.152366 222.48 
L 797.55863 162.72 
L 858.24 119.167956 
L 858.24 102.96 
L 858.24 92.410918 
L 843.216134 102.96 
L 759.988389 162.72 
L 715.392 195.460368 
L 679.356556 222.48 
L 600.334396 282.24 
L 572.544 303.912731 
L 529.951036 342 
L 467.382401 401.76 
L 429.696 438.59468 
L 406.350578 461.52 
L 345.592627 521.28 
L 286.848 579.496065 
L 285.208482 581.04 
L 221.512072 640.8 
L 254.456909 640.8 
z
" clip-path="url(#pa78c66dd5c)" style="fill: #d9586a"/>
    <path d="M 286.848 640.8 
L 287.410884 640.8 
L 349.248733 581.04 
L 408.417746 521.28 
L 429.696 500.385673 
L 469.711014 461.52 
L 530.775401 401.76 
L 572.544 361.933286 
L 596.372142 342 
L 673.20259 282.24 
L 715.392 250.472968 
L 753.436803 222.48 
L 835.128871 162.72 
L 858.24 146.132752 
L 858.24 119.167956 
L 797.55863 162.72 
L 716.152366 222.48 
L 715.392 223.03947 
L 636.768493 282.24 
L 572.544 332.326373 
L 561.72599 342 
L 499.078901 401.76 
L 437.953061 461.52 
L 429.696 469.539896 
L 377.005186 521.28 
L 317.254977 581.04 
L 286.848 610.413321 
L 254.456909 640.8 
z
" clip-path="url(#pa78c66dd5c)" style="fill: #de5f65"/>
    <path d="M 381.242488 581.04 
L 429.696 531.774734 
L 440.308532 521.28 
L 501.468966 461.52 
L 562.4719 401.76 
L 572.544 392.156168 
L 632.500412 342 
L 709.636686 282.24 
L 715.392 277.906466 
L 790.721239 222.48 
L 858.24 173.194234 
L 858.24 162.72 
L 858.24 146.132752 
L 835.128871 162.72 
L 753.436803 222.48 
L 715.392 250.472968 
L 673.20259 282.24 
L 596.372142 342 
L 572.544 361.933286 
L 530.775401 401.76 
L 469.711014 461.52 
L 429.696 500.385673 
L 408.417746 521.28 
L 349.248733 581.04 
L 287.410884 640.8 
L 320.899412 640.8 
z
" clip-path="url(#pa78c66dd5c)" style="fill: #e26660"/>
    <path d="M 413.236243 581.04 
L 429.696 564.304489 
L 473.203415 521.28 
L 533.226919 461.52 
L 572.544 422.991671 
L 597.282227 401.76 
L 668.628681 342 
L 715.392 305.7936 
L 747.448965 282.24 
L 828.005676 222.48 
L 858.24 200.410255 
L 858.24 173.194234 
L 790.721239 222.48 
L 715.392 277.906466 
L 709.636686 282.24 
L 632.500412 342 
L 572.544 392.156168 
L 562.4719 401.76 
L 501.468966 461.52 
L 440.308532 521.28 
L 429.696 531.774734 
L 381.242488 581.04 
L 320.899412 640.8 
L 354.387939 640.8 
z
" clip-path="url(#pa78c66dd5c)" style="fill: #e76e5b"/>
    <path d="M 429.696 597.770286 
L 445.958872 581.04 
L 506.098298 521.28 
L 564.984871 461.52 
L 572.544 454.112517 
L 633.542896 401.76 
L 704.75695 342 
L 715.392 333.765835 
L 785.519789 282.24 
L 858.24 227.86296 
L 858.24 222.48 
L 858.24 200.410255 
L 828.005676 222.48 
L 747.448965 282.24 
L 715.392 305.7936 
L 668.628681 342 
L 597.282227 401.76 
L 572.544 422.991671 
L 533.226919 461.52 
L 473.203415 521.28 
L 429.696 564.304489 
L 413.236243 581.04 
L 354.387939 640.8 
L 387.876467 640.8 
z
" clip-path="url(#pa78c66dd5c)" style="fill: #eb7556"/>
    <path d="M 429.696 632.227911 
L 479.453813 581.04 
L 538.993181 521.28 
L 572.544 487.07435 
L 600.076922 461.52 
L 669.803564 401.76 
L 715.392 363.483051 
L 743.313106 342 
L 823.590614 282.24 
L 858.24 256.330682 
L 858.24 227.86296 
L 785.519789 282.24 
L 715.392 333.765835 
L 704.75695 342 
L 633.542896 401.76 
L 572.544 454.112517 
L 564.984871 461.52 
L 506.098298 521.28 
L 445.958872 581.04 
L 429.696 597.770286 
L 387.876467 640.8 
L 421.364995 640.8 
z
" clip-path="url(#pa78c66dd5c)" style="fill: #ef7c51"/>
    <path d="M 429.696 640.8 
L 454.869097 640.8 
L 512.948753 581.04 
L 571.888064 521.28 
L 572.544 520.611262 
L 636.210464 461.52 
L 706.064233 401.76 
L 715.392 393.928223 
L 782.882108 342 
L 858.24 284.932949 
L 858.24 282.24 
L 858.24 256.330682 
L 823.590614 282.24 
L 743.313106 342 
L 715.392 363.483051 
L 669.803564 401.76 
L 600.076922 461.52 
L 572.544 487.07435 
L 538.993181 521.28 
L 479.453813 581.04 
L 429.696 632.227911 
L 421.364995 640.8 
z
" clip-path="url(#pa78c66dd5c)" style="fill: #f2844b"/>
    <path d="M 546.443693 581.04 
L 572.544 554.570891 
L 606.854903 521.28 
L 672.344005 461.52 
L 715.392 424.709612 
L 744.7411 401.76 
L 822.45111 342 
L 858.24 314.897777 
L 858.24 284.932949 
L 782.882108 342 
L 715.392 393.928223 
L 706.064233 401.76 
L 636.210464 461.52 
L 572.544 520.611262 
L 571.888064 521.28 
L 512.948753 581.04 
L 454.869097 640.8 
L 488.378357 640.8 
z
" clip-path="url(#pa78c66dd5c)" style="fill: #f58c46"/>
    <path d="M 572.544 588.655166 
L 580.051021 581.04 
L 641.863899 521.28 
L 708.477547 461.52 
L 715.392 455.607444 
L 784.254777 401.76 
L 858.24 344.901022 
L 858.24 342 
L 858.24 314.897777 
L 822.45111 342 
L 744.7411 401.76 
L 715.392 424.709612 
L 672.344005 461.52 
L 606.854903 521.28 
L 572.544 554.570891 
L 546.443693 581.04 
L 488.378357 640.8 
L 521.887616 640.8 
z
" clip-path="url(#pa78c66dd5c)" style="fill: #f89540"/>
    <path d="M 572.544 623.149038 
L 614.055034 581.04 
L 676.872894 521.28 
L 715.392 486.835264 
L 747.075674 461.52 
L 823.768455 401.76 
L 858.24 375.267996 
L 858.24 344.901022 
L 784.254777 401.76 
L 715.392 455.607444 
L 708.477547 461.52 
L 641.863899 521.28 
L 580.051021 581.04 
L 572.544 588.655166 
L 521.887616 640.8 
L 555.396876 640.8 
z
" clip-path="url(#pa78c66dd5c)" style="fill: #fa9e3b"/>
    <path d="M 572.544 640.8 
L 589.18233 640.8 
L 648.059048 581.04 
L 711.88189 521.28 
L 715.392 518.141173 
L 786.257025 461.52 
L 858.24 405.641179 
L 858.24 401.76 
L 858.24 375.267996 
L 823.768455 401.76 
L 747.075674 461.52 
L 715.392 486.835264 
L 676.872894 521.28 
L 614.055034 581.04 
L 572.544 623.149038 
L 555.396876 640.8 
z
" clip-path="url(#pa78c66dd5c)" style="fill: #fca636"/>
    <path d="M 682.063062 581.04 
L 715.392 549.881911 
L 750.890943 521.28 
L 825.438376 461.52 
L 858.24 436.056811 
L 858.24 405.641179 
L 786.257025 461.52 
L 715.392 518.141173 
L 711.88189 521.28 
L 648.059048 581.04 
L 589.18233 640.8 
L 623.257229 640.8 
z
" clip-path="url(#pa78c66dd5c)" style="fill: #fdaf31"/>
    <path d="M 715.392 581.728273 
L 716.18199 581.04 
L 790.345746 521.28 
L 858.24 466.685783 
L 858.24 461.52 
L 858.24 436.056811 
L 825.438376 461.52 
L 750.890943 521.28 
L 715.392 549.881911 
L 682.063062 581.04 
L 623.257229 640.8 
L 657.332129 640.8 
z
" clip-path="url(#pa78c66dd5c)" style="fill: #feb82c"/>
    <path d="M 715.392 616.397022 
L 755.974302 581.04 
L 829.800549 521.28 
L 858.24 498.41165 
L 858.24 466.685783 
L 790.345746 521.28 
L 716.18199 581.04 
L 715.392 581.728273 
L 657.332129 640.8 
L 691.407028 640.8 
z
" clip-path="url(#pa78c66dd5c)" style="fill: #fdc229"/>
    <path d="M 715.392 640.8 
L 726.868572 640.8 
L 795.766614 581.04 
L 858.24 530.302585 
L 858.24 521.28 
L 858.24 498.41165 
L 829.800549 521.28 
L 755.974302 581.04 
L 715.392 616.397022 
L 691.407028 640.8 
z
" clip-path="url(#pa78c66dd5c)" style="fill: #fdcb26"/>
    <path d="M 835.558926 581.04 
L 858.24 562.619691 
L 858.24 530.302585 
L 795.766614 581.04 
L 726.868572 640.8 
L 765.62634 640.8 
z
" clip-path="url(#pa78c66dd5c)" style="fill: #fbd524"/>
    <path d="M 858.24 595.162948 
L 858.24 581.04 
L 858.24 562.619691 
L 835.558926 581.04 
L 765.62634 640.8 
L 804.384108 640.8 
z
" clip-path="url(#pa78c66dd5c)" style="fill: #f8df25"/>
    <path d="M 858.24 628.00597 
L 858.24 595.162948 
L 804.384108 640.8 
L 843.141876 640.8 
z
" clip-path="url(#pa78c66dd5c)" style="fill: #f5e926"/>
    <path d="M 858.24 640.8 
L 858.24 628.00597 
L 843.141876 640.8 
z
" clip-path="url(#pa78c66dd5c)" style="fill: #f1f426"/>
   </g>
   <g id="matplotlib.axis_1">
    <g id="xtick_1">
     <g id="line2d_1">
      <defs>
       <path id="mc52a40edd7" d="M 0 0 
L 0 3.5 
" style="stroke: #000000; stroke-width: 0.8"/>
      </defs>
      <g>
       <use xlink:href="#mc52a40edd7" x="144" y="640.8" style="stroke: #000000; stroke-width: 0.8"/>
      </g>
     </g>
     <g id="text_1">
      <!-- $\mathdefault{7.2}$ -->
      <g transform="translate(133.336968 661.7533) scale(0.18 -0.18)">
       <defs>
        <path id="CMR17-37" d="M 2886 3941 
L 2886 4081 
L 1382 4081 
C 634 4081 621 4165 595 4288 
L 480 4288 
L 294 3094 
L 410 3094 
C 429 3215 474 3540 550 3661 
C 589 3712 1062 3712 1171 3712 
L 2579 3712 
L 1869 2661 
C 1395 1954 1069 999 1069 165 
C 1069 89 1069 -128 1299 -128 
C 1530 -128 1530 89 1530 171 
L 1530 465 
C 1530 1508 1709 2196 2003 2636 
L 2886 3941 
z
" transform="scale(0.015625)"/>
        <path id="CMMI12-3a" d="M 1178 307 
C 1178 492 1024 619 870 619 
C 685 619 557 466 557 313 
C 557 128 710 0 864 0 
C 1050 0 1178 153 1178 307 
z
" transform="scale(0.015625)"/>
        <path id="CMR17-32" d="M 2669 989 
L 2554 989 
C 2490 536 2438 459 2413 420 
C 2381 369 1920 369 1830 369 
L 602 369 
C 832 619 1280 1072 1824 1597 
C 2214 1967 2669 2402 2669 3035 
C 2669 3790 2067 4224 1395 4224 
C 691 4224 262 3604 262 3030 
C 262 2780 448 2748 525 2748 
C 589 2748 781 2787 781 3010 
C 781 3207 614 3264 525 3264 
C 486 3264 448 3258 422 3245 
C 544 3790 915 4058 1306 4058 
C 1862 4058 2227 3617 2227 3035 
C 2227 2479 1901 2000 1536 1584 
L 262 146 
L 262 0 
L 2515 0 
L 2669 989 
z
" transform="scale(0.015625)"/>
       </defs>
       <use xlink:href="#CMR17-37" transform="scale(0.996264)"/>
       <use xlink:href="#CMMI12-3a" transform="translate(45.690477 0) scale(0.996264)"/>
       <use xlink:href="#CMR17-32" transform="translate(72.787654 0) scale(0.996264)"/>
      </g>
     </g>
    </g>
    <g id="xtick_2">
     <g id="line2d_2">
      <g>
       <use xlink:href="#mc52a40edd7" x="286.848" y="640.8" style="stroke: #000000; stroke-width: 0.8"/>
      </g>
     </g>
     <g id="text_2">
      <!-- $\mathdefault{7.3}$ -->
      <g transform="translate(276.184968 661.7533) scale(0.18 -0.18)">
       <defs>
        <path id="CMR17-33" d="M 1414 2157 
C 1984 2157 2234 1662 2234 1090 
C 2234 320 1824 25 1453 25 
C 1114 25 563 194 390 693 
C 422 680 454 680 486 680 
C 640 680 755 782 755 948 
C 755 1133 614 1216 486 1216 
C 378 1216 211 1165 211 926 
C 211 335 787 -128 1466 -128 
C 2176 -128 2720 430 2720 1085 
C 2720 1707 2208 2157 1600 2227 
C 2086 2328 2554 2756 2554 3329 
C 2554 3820 2048 4179 1472 4179 
C 890 4179 378 3829 378 3329 
C 378 3110 544 3072 627 3072 
C 762 3072 877 3155 877 3321 
C 877 3486 762 3569 627 3569 
C 602 3569 570 3569 544 3557 
C 730 3959 1235 4032 1459 4032 
C 1683 4032 2106 3925 2106 3320 
C 2106 3143 2080 2828 1862 2550 
C 1670 2304 1453 2304 1242 2284 
C 1210 2284 1062 2269 1037 2269 
C 992 2263 966 2257 966 2208 
C 966 2163 973 2157 1101 2157 
L 1414 2157 
z
" transform="scale(0.015625)"/>
       </defs>
       <use xlink:href="#CMR17-37" transform="scale(0.996264)"/>
       <use xlink:href="#CMMI12-3a" transform="translate(45.690477 0) scale(0.996264)"/>
       <use xlink:href="#CMR17-33" transform="translate(72.787654 0) scale(0.996264)"/>
      </g>
     </g>
    </g>
    <g id="xtick_3">
     <g id="line2d_3">
      <g>
       <use xlink:href="#mc52a40edd7" x="429.696" y="640.8" style="stroke: #000000; stroke-width: 0.8"/>
      </g>
     </g>
     <g id="text_3">
      <!-- $\mathdefault{7.4}$ -->
      <g transform="translate(419.032968 661.7533) scale(0.18 -0.18)">
       <defs>
        <path id="CMR17-34" d="M 2150 4122 
C 2150 4256 2144 4256 2029 4256 
L 128 1254 
L 128 1088 
L 1779 1088 
L 1779 457 
C 1779 224 1766 160 1318 160 
L 1197 160 
L 1197 0 
C 1402 0 1747 0 1965 0 
C 2182 0 2528 0 2733 0 
L 2733 160 
L 2611 160 
C 2163 160 2150 224 2150 457 
L 2150 1088 
L 2803 1088 
L 2803 1254 
L 2150 1254 
L 2150 4122 
z
M 1798 3703 
L 1798 1254 
L 256 1254 
L 1798 3703 
z
" transform="scale(0.015625)"/>
       </defs>
       <use xlink:href="#CMR17-37" transform="scale(0.996264)"/>
       <use xlink:href="#CMMI12-3a" transform="translate(45.690477 0) scale(0.996264)"/>
       <use xlink:href="#CMR17-34" transform="translate(72.787654 0) scale(0.996264)"/>
      </g>
     </g>
    </g>
    <g id="xtick_4">
     <g id="line2d_4">
      <g>
       <use xlink:href="#mc52a40edd7" x="572.544" y="640.8" style="stroke: #000000; stroke-width: 0.8"/>
      </g>
     </g>
     <g id="text_4">
      <!-- $\mathdefault{7.5}$ -->
      <g transform="translate(561.880968 661.7533) scale(0.18 -0.18)">
       <defs>
        <path id="CMR17-35" d="M 730 3692 
C 794 3666 1056 3584 1325 3584 
C 1920 3584 2246 3911 2432 4100 
C 2432 4157 2432 4192 2394 4192 
C 2387 4192 2374 4192 2323 4163 
C 2099 4058 1837 3973 1517 3973 
C 1325 3973 1037 3999 723 4139 
C 653 4171 640 4171 634 4171 
C 602 4171 595 4164 595 4037 
L 595 2203 
C 595 2089 595 2057 659 2057 
C 691 2057 704 2070 736 2114 
C 941 2401 1222 2522 1542 2522 
C 1766 2522 2246 2382 2246 1289 
C 2246 1085 2246 715 2054 421 
C 1894 159 1645 25 1370 25 
C 947 25 518 320 403 814 
C 429 807 480 795 506 795 
C 589 795 749 840 749 1038 
C 749 1210 627 1280 506 1280 
C 358 1280 262 1190 262 1011 
C 262 454 704 -128 1382 -128 
C 2042 -128 2669 440 2669 1264 
C 2669 2030 2170 2624 1549 2624 
C 1222 2624 947 2503 730 2274 
L 730 3692 
z
" transform="scale(0.015625)"/>
       </defs>
       <use xlink:href="#CMR17-37" transform="scale(0.996264)"/>
       <use xlink:href="#CMMI12-3a" transform="translate(45.690477 0) scale(0.996264)"/>
       <use xlink:href="#CMR17-35" transform="translate(72.787654 0) scale(0.996264)"/>
      </g>
     </g>
    </g>
    <g id="xtick_5">
     <g id="line2d_5">
      <g>
       <use xlink:href="#mc52a40edd7" x="715.392" y="640.8" style="stroke: #000000; stroke-width: 0.8"/>
      </g>
     </g>
     <g id="text_5">
      <!-- $\mathdefault{7.6}$ -->
      <g transform="translate(704.728968 661.7533) scale(0.18 -0.18)">
       <defs>
        <path id="CMR17-36" d="M 678 2176 
C 678 3690 1395 4032 1811 4032 
C 1946 4032 2272 4009 2400 3776 
C 2298 3776 2106 3776 2106 3553 
C 2106 3381 2246 3323 2336 3323 
C 2394 3323 2566 3348 2566 3560 
C 2566 3954 2246 4179 1805 4179 
C 1043 4179 243 3390 243 1984 
C 243 253 966 -128 1478 -128 
C 2099 -128 2688 427 2688 1283 
C 2688 2081 2170 2662 1517 2662 
C 1126 2662 838 2407 678 1960 
L 678 2176 
z
M 1478 25 
C 691 25 691 1200 691 1436 
C 691 1896 909 2560 1504 2560 
C 1613 2560 1926 2560 2138 2120 
C 2253 1870 2253 1609 2253 1289 
C 2253 944 2253 690 2118 434 
C 1978 171 1773 25 1478 25 
z
" transform="scale(0.015625)"/>
       </defs>
       <use xlink:href="#CMR17-37" transform="scale(0.996264)"/>
       <use xlink:href="#CMMI12-3a" transform="translate(45.690477 0) scale(0.996264)"/>
       <use xlink:href="#CMR17-36" transform="translate(72.787654 0) scale(0.996264)"/>
      </g>
     </g>
    </g>
    <g id="xtick_6">
     <g id="line2d_6">
      <g>
       <use xlink:href="#mc52a40edd7" x="858.24" y="640.8" style="stroke: #000000; stroke-width: 0.8"/>
      </g>
     </g>
     <g id="text_6">
      <!-- $\mathdefault{7.7}$ -->
      <g transform="translate(847.576968 661.7533) scale(0.18 -0.18)">
       <use xlink:href="#CMR17-37" transform="scale(0.996264)"/>
       <use xlink:href="#CMMI12-3a" transform="translate(45.690477 0) scale(0.996264)"/>
       <use xlink:href="#CMR17-37" transform="translate(72.787654 0) scale(0.996264)"/>
      </g>
     </g>
    </g>
    <g id="text_7">
     <!-- $\lambda\:[-]$ -->
     <g transform="translate(480.492747 700.167386) scale(0.2 -0.2)">
      <defs>
       <path id="CMMI12-15" d="M 1978 3965 
C 1818 4416 1312 4416 1229 4416 
C 1190 4416 1120 4416 1120 4352 
C 1120 4302 1158 4295 1190 4289 
C 1286 4276 1363 4263 1466 4080 
C 1530 3959 2189 2059 2189 2046 
C 2189 2040 2182 2033 2131 1982 
L 467 311 
C 390 234 339 183 339 102 
C 339 12 416 -64 518 -64 
C 544 -64 614 -51 653 -13 
C 755 82 1670 1194 2253 1881 
C 2419 1383 2624 797 2822 261 
C 2854 166 2886 76 2976 -6 
C 3040 -64 3053 -64 3232 -64 
L 3354 -64 
C 3379 -64 3424 -64 3424 -13 
C 3424 13 3418 19 3392 45 
C 3334 115 3290 229 3264 306 
L 1978 3965 
z
" transform="scale(0.015625)"/>
       <path id="CMR17-5b" d="M 1504 -1600 
L 1504 -1377 
L 902 -1377 
L 902 4544 
L 1504 4544 
L 1504 4767 
L 678 4767 
L 678 -1600 
L 1504 -1600 
z
" transform="scale(0.015625)"/>
       <path id="CMSY10-0" d="M 4218 1472 
C 4326 1472 4442 1472 4442 1600 
C 4442 1728 4326 1728 4218 1728 
L 755 1728 
C 646 1728 531 1728 531 1600 
C 531 1472 646 1472 755 1472 
L 4218 1472 
z
" transform="scale(0.015625)"/>
       <path id="CMR17-5d" d="M 915 4767 
L 90 4767 
L 90 4544 
L 691 4544 
L 691 -1377 
L 90 -1377 
L 90 -1600 
L 915 -1600 
L 915 4767 
z
" transform="scale(0.015625)"/>
      </defs>
      <use xlink:href="#CMMI12-15" transform="scale(0.996264)"/>
      <use xlink:href="#CMR17-5b" transform="translate(79.043279 0) scale(0.996264)"/>
      <use xlink:href="#CMSY10-0" transform="translate(103.914337 0) scale(0.996264)"/>
      <use xlink:href="#CMR17-5d" transform="translate(181.401805 0) scale(0.996264)"/>
     </g>
    </g>
   </g>
   <g id="matplotlib.axis_2">
    <g id="ytick_1">
     <g id="line2d_7">
      <defs>
       <path id="mfd1bb81389" d="M 0 0 
L -3.5 0 
" style="stroke: #000000; stroke-width: 0.8"/>
      </defs>
      <g>
       <use xlink:href="#mfd1bb81389" x="144" y="581.04" style="stroke: #000000; stroke-width: 0.8"/>
      </g>
     </g>
     <g id="text_8">
      <!-- $\mathdefault{0.0}$ -->
      <g transform="translate(114.173936 587.26665) scale(0.18 -0.18)">
       <defs>
        <path id="CMR17-30" d="M 2688 2025 
C 2688 2416 2682 3080 2413 3591 
C 2176 4039 1798 4198 1466 4198 
C 1158 4198 768 4058 525 3597 
C 269 3118 243 2524 243 2025 
C 243 1661 250 1106 448 619 
C 723 -39 1216 -128 1466 -128 
C 1760 -128 2208 -7 2470 600 
C 2662 1042 2688 1559 2688 2025 
z
M 1466 -26 
C 1056 -26 813 325 723 812 
C 653 1188 653 1738 653 2096 
C 653 2588 653 2997 736 3387 
C 858 3929 1216 4096 1466 4096 
C 1728 4096 2067 3923 2189 3400 
C 2272 3036 2278 2607 2278 2096 
C 2278 1680 2278 1169 2202 792 
C 2067 95 1690 -26 1466 -26 
z
" transform="scale(0.015625)"/>
       </defs>
       <use xlink:href="#CMR17-30" transform="scale(0.996264)"/>
       <use xlink:href="#CMMI12-3a" transform="translate(45.690477 0) scale(0.996264)"/>
       <use xlink:href="#CMR17-30" transform="translate(72.787654 0) scale(0.996264)"/>
      </g>
     </g>
    </g>
    <g id="ytick_2">
     <g id="line2d_8">
      <g>
       <use xlink:href="#mfd1bb81389" x="144" y="461.52" style="stroke: #000000; stroke-width: 0.8"/>
      </g>
     </g>
     <g id="text_9">
      <!-- $\mathdefault{0.2}$ -->
      <g transform="translate(114.173936 467.74665) scale(0.18 -0.18)">
       <use xlink:href="#CMR17-30" transform="scale(0.996264)"/>
       <use xlink:href="#CMMI12-3a" transform="translate(45.690477 0) scale(0.996264)"/>
       <use xlink:href="#CMR17-32" transform="translate(72.787654 0) scale(0.996264)"/>
      </g>
     </g>
    </g>
    <g id="ytick_3">
     <g id="line2d_9">
      <g>
       <use xlink:href="#mfd1bb81389" x="144" y="342" style="stroke: #000000; stroke-width: 0.8"/>
      </g>
     </g>
     <g id="text_10">
      <!-- $\mathdefault{0.4}$ -->
      <g transform="translate(114.173936 348.22665) scale(0.18 -0.18)">
       <use xlink:href="#CMR17-30" transform="scale(0.996264)"/>
       <use xlink:href="#CMMI12-3a" transform="translate(45.690477 0) scale(0.996264)"/>
       <use xlink:href="#CMR17-34" transform="translate(72.787654 0) scale(0.996264)"/>
      </g>
     </g>
    </g>
    <g id="ytick_4">
     <g id="line2d_10">
      <g>
       <use xlink:href="#mfd1bb81389" x="144" y="222.48" style="stroke: #000000; stroke-width: 0.8"/>
      </g>
     </g>
     <g id="text_11">
      <!-- $\mathdefault{0.6}$ -->
      <g transform="translate(114.173936 228.70665) scale(0.18 -0.18)">
       <use xlink:href="#CMR17-30" transform="scale(0.996264)"/>
       <use xlink:href="#CMMI12-3a" transform="translate(45.690477 0) scale(0.996264)"/>
       <use xlink:href="#CMR17-36" transform="translate(72.787654 0) scale(0.996264)"/>
      </g>
     </g>
    </g>
    <g id="ytick_5">
     <g id="line2d_11">
      <g>
       <use xlink:href="#mfd1bb81389" x="144" y="102.96" style="stroke: #000000; stroke-width: 0.8"/>
      </g>
     </g>
     <g id="text_12">
      <!-- $\mathdefault{0.8}$ -->
      <g transform="translate(114.173936 109.18665) scale(0.18 -0.18)">
       <defs>
        <path id="CMR17-38" d="M 1741 2264 
C 2144 2467 2554 2773 2554 3263 
C 2554 3841 1990 4179 1472 4179 
C 890 4179 378 3759 378 3180 
C 378 3021 416 2747 666 2505 
C 730 2442 998 2251 1171 2130 
C 883 1983 211 1634 211 934 
C 211 279 838 -128 1459 -128 
C 2144 -128 2720 362 2720 1010 
C 2720 1590 2330 1857 2074 2029 
L 1741 2264 
z
M 902 2822 
C 851 2854 595 3051 595 3351 
C 595 3739 998 4032 1459 4032 
C 1965 4032 2336 3676 2336 3262 
C 2336 2669 1670 2331 1638 2331 
C 1632 2331 1626 2331 1574 2370 
L 902 2822 
z
M 2080 1519 
C 2176 1449 2483 1240 2483 851 
C 2483 381 2010 25 1472 25 
C 890 25 448 438 448 940 
C 448 1443 838 1862 1280 2060 
L 2080 1519 
z
" transform="scale(0.015625)"/>
       </defs>
       <use xlink:href="#CMR17-30" transform="scale(0.996264)"/>
       <use xlink:href="#CMMI12-3a" transform="translate(45.690477 0) scale(0.996264)"/>
       <use xlink:href="#CMR17-38" transform="translate(72.787654 0) scale(0.996264)"/>
      </g>
     </g>
    </g>
    <g id="text_13">
     <!-- $\theta_p\:[^{\circ}]$ -->
     <g transform="translate(88.473131 361.14628) rotate(-90) scale(0.2 -0.2)">
      <defs>
       <path id="CMMI12-12" d="M 2835 3200 
C 2835 3850 2630 4480 2106 4480 
C 1210 4480 256 2615 256 1216 
C 256 923 320 -64 992 -64 
C 1862 -64 2835 1756 2835 3200 
z
M 896 2304 
C 992 2679 1126 3214 1382 3665 
C 1594 4047 1818 4352 2099 4352 
C 2310 4352 2451 4174 2451 3564 
C 2451 3334 2432 3017 2246 2304 
L 896 2304 
z
M 2202 2113 
C 2042 1490 1907 1088 1677 687 
C 1491 363 1267 64 998 64 
C 800 64 640 217 640 846 
C 640 1260 742 1693 845 2113 
L 2202 2113 
z
" transform="scale(0.015625)"/>
       <path id="CMMI12-70" d="M 275 -789 
C 230 -980 205 -1031 -58 -1031 
C -134 -1031 -198 -1031 -198 -1152 
C -198 -1165 -192 -1216 -122 -1216 
C -38 -1216 51 -1216 134 -1216 
L 410 -1216 
C 544 -1216 870 -1216 1005 -1216 
C 1043 -1216 1120 -1216 1120 -1101 
C 1120 -1031 1075 -1031 966 -1031 
C 672 -1031 653 -987 653 -937 
C 653 -861 941 219 979 364 
C 1050 185 1222 -64 1555 -64 
C 2278 -64 3059 875 3059 1814 
C 3059 2401 2726 2816 2246 2816 
C 1837 2816 1491 2420 1421 2331 
C 1370 2650 1120 2816 864 2816 
C 678 2816 531 2727 410 2484 
C 294 2254 205 1865 205 1839 
C 205 1814 230 1782 275 1782 
C 326 1782 333 1788 371 1935 
C 467 2312 589 2689 845 2689 
C 992 2689 1043 2587 1043 2397 
C 1043 2245 1024 2181 998 2067 
L 275 -789 
z
M 1382 1993 
C 1427 2171 1606 2357 1709 2446 
C 1779 2510 1990 2689 2234 2689 
C 2515 2689 2643 2408 2643 2076 
C 2643 1769 2464 1047 2304 715 
C 2144 370 1850 64 1555 64 
C 1120 64 1050 613 1050 639 
C 1050 658 1062 709 1069 741 
L 1382 1993 
z
" transform="scale(0.015625)"/>
       <path id="CMSY10-e" d="M 2842 1600 
C 2842 2277 2272 2828 1600 2828 
C 909 2828 352 2264 352 1600 
C 352 930 909 372 1600 372 
C 2272 372 2842 923 2842 1600 
z
M 1600 628 
C 1043 628 608 1070 608 1600 
C 608 2130 1050 2572 1600 2572 
C 2131 2572 2586 2142 2586 1600 
C 2586 1058 2131 628 1600 628 
z
" transform="scale(0.015625)"/>
      </defs>
      <use xlink:href="#CMMI12-12" transform="scale(0.996264)"/>
      <use xlink:href="#CMMI12-70" transform="translate(45.45979 -14.943915) scale(0.697382)"/>
      <use xlink:href="#CMR17-5b" transform="translate(102.368635 0) scale(0.996264)"/>
      <use xlink:href="#CMSY10-e" transform="translate(127.239694 36.153639) scale(0.697382)"/>
      <use xlink:href="#CMR17-5d" transform="translate(162.607036 0) scale(0.996264)"/>
     </g>
    </g>
   </g>
   <g id="patch_3">
    <path d="M 144 640.8 
L 144 43.2 
" style="fill: none; stroke: #000000; stroke-width: 0.8; stroke-linejoin: miter; stroke-linecap: square"/>
   </g>
   <g id="patch_4">
    <path d="M 858.24 640.8 
L 858.24 43.2 
" style="fill: none; stroke: #000000; stroke-width: 0.8; stroke-linejoin: miter; stroke-linecap: square"/>
   </g>
   <g id="patch_5">
    <path d="M 144 640.8 
L 858.24 640.8 
" style="fill: none; stroke: #000000; stroke-width: 0.8; stroke-linejoin: miter; stroke-linecap: square"/>
   </g>
   <g id="patch_6">
    <path d="M 144 43.2 
L 858.24 43.2 
" style="fill: none; stroke: #000000; stroke-width: 0.8; stroke-linejoin: miter; stroke-linecap: square"/>
   </g>
  </g>
  <g id="axes_2">
   <g id="patch_7">
    <path d="M 902.88 640.8 
L 932.76 640.8 
L 932.76 43.2 
L 902.88 43.2 
z
" style="fill: #ffffff"/>
   </g>
   <g id="QuadMesh_1">
    <path d="M 902.88 640.8 
L 932.76 640.8 
L 932.76 626.571429 
L 902.88 626.571429 
L 902.88 640.8 
" clip-path="url(#pc06a215a5e)" style="fill: #16078a"/>
    <path d="M 902.88 626.571429 
L 932.76 626.571429 
L 932.76 612.342857 
L 902.88 612.342857 
L 902.88 626.571429 
" clip-path="url(#pc06a215a5e)" style="fill: #240691"/>
    <path d="M 902.88 612.342857 
L 932.76 612.342857 
L 932.76 598.114286 
L 902.88 598.114286 
L 902.88 612.342857 
" clip-path="url(#pc06a215a5e)" style="fill: #2f0596"/>
    <path d="M 902.88 598.114286 
L 932.76 598.114286 
L 932.76 583.885714 
L 902.88 583.885714 
L 902.88 598.114286 
" clip-path="url(#pc06a215a5e)" style="fill: #3a049a"/>
    <path d="M 902.88 583.885714 
L 932.76 583.885714 
L 932.76 569.657143 
L 902.88 569.657143 
L 902.88 583.885714 
" clip-path="url(#pc06a215a5e)" style="fill: #44039e"/>
    <path d="M 902.88 569.657143 
L 932.76 569.657143 
L 932.76 555.428571 
L 902.88 555.428571 
L 902.88 569.657143 
" clip-path="url(#pc06a215a5e)" style="fill: #4e02a2"/>
    <path d="M 902.88 555.428571 
L 932.76 555.428571 
L 932.76 541.2 
L 902.88 541.2 
L 902.88 555.428571 
" clip-path="url(#pc06a215a5e)" style="fill: #5801a4"/>
    <path d="M 902.88 541.2 
L 932.76 541.2 
L 932.76 526.971429 
L 902.88 526.971429 
L 902.88 541.2 
" clip-path="url(#pc06a215a5e)" style="fill: #6100a7"/>
    <path d="M 902.88 526.971429 
L 932.76 526.971429 
L 932.76 512.742857 
L 902.88 512.742857 
L 902.88 526.971429 
" clip-path="url(#pc06a215a5e)" style="fill: #6a00a8"/>
    <path d="M 902.88 512.742857 
L 932.76 512.742857 
L 932.76 498.514286 
L 902.88 498.514286 
L 902.88 512.742857 
" clip-path="url(#pc06a215a5e)" style="fill: #7401a8"/>
    <path d="M 902.88 498.514286 
L 932.76 498.514286 
L 932.76 484.285714 
L 902.88 484.285714 
L 902.88 498.514286 
" clip-path="url(#pc06a215a5e)" style="fill: #7e03a8"/>
    <path d="M 902.88 484.285714 
L 932.76 484.285714 
L 932.76 470.057143 
L 902.88 470.057143 
L 902.88 484.285714 
" clip-path="url(#pc06a215a5e)" style="fill: #8707a6"/>
    <path d="M 902.88 470.057143 
L 932.76 470.057143 
L 932.76 455.828571 
L 902.88 455.828571 
L 902.88 470.057143 
" clip-path="url(#pc06a215a5e)" style="fill: #8f0da4"/>
    <path d="M 902.88 455.828571 
L 932.76 455.828571 
L 932.76 441.6 
L 902.88 441.6 
L 902.88 455.828571 
" clip-path="url(#pc06a215a5e)" style="fill: #9814a0"/>
    <path d="M 902.88 441.6 
L 932.76 441.6 
L 932.76 427.371429 
L 902.88 427.371429 
L 902.88 441.6 
" clip-path="url(#pc06a215a5e)" style="fill: #a01a9c"/>
    <path d="M 902.88 427.371429 
L 932.76 427.371429 
L 932.76 413.142857 
L 902.88 413.142857 
L 902.88 427.371429 
" clip-path="url(#pc06a215a5e)" style="fill: #a72197"/>
    <path d="M 902.88 413.142857 
L 932.76 413.142857 
L 932.76 398.914286 
L 902.88 398.914286 
L 902.88 413.142857 
" clip-path="url(#pc06a215a5e)" style="fill: #ae2892"/>
    <path d="M 902.88 398.914286 
L 932.76 398.914286 
L 932.76 384.685714 
L 902.88 384.685714 
L 902.88 398.914286 
" clip-path="url(#pc06a215a5e)" style="fill: #b52f8c"/>
    <path d="M 902.88 384.685714 
L 932.76 384.685714 
L 932.76 370.457143 
L 902.88 370.457143 
L 902.88 384.685714 
" clip-path="url(#pc06a215a5e)" style="fill: #bc3587"/>
    <path d="M 902.88 370.457143 
L 932.76 370.457143 
L 932.76 356.228571 
L 902.88 356.228571 
L 902.88 370.457143 
" clip-path="url(#pc06a215a5e)" style="fill: #c23c81"/>
    <path d="M 902.88 356.228571 
L 932.76 356.228571 
L 932.76 342 
L 902.88 342 
L 902.88 356.228571 
" clip-path="url(#pc06a215a5e)" style="fill: #c8437b"/>
    <path d="M 902.88 342 
L 932.76 342 
L 932.76 327.771429 
L 902.88 327.771429 
L 902.88 342 
" clip-path="url(#pc06a215a5e)" style="fill: #ce4b75"/>
    <path d="M 902.88 327.771429 
L 932.76 327.771429 
L 932.76 313.542857 
L 902.88 313.542857 
L 902.88 327.771429 
" clip-path="url(#pc06a215a5e)" style="fill: #d45270"/>
    <path d="M 902.88 313.542857 
L 932.76 313.542857 
L 932.76 299.314286 
L 902.88 299.314286 
L 902.88 313.542857 
" clip-path="url(#pc06a215a5e)" style="fill: #d9586a"/>
    <path d="M 902.88 299.314286 
L 932.76 299.314286 
L 932.76 285.085714 
L 902.88 285.085714 
L 902.88 299.314286 
" clip-path="url(#pc06a215a5e)" style="fill: #de5f65"/>
    <path d="M 902.88 285.085714 
L 932.76 285.085714 
L 932.76 270.857143 
L 902.88 270.857143 
L 902.88 285.085714 
" clip-path="url(#pc06a215a5e)" style="fill: #e26660"/>
    <path d="M 902.88 270.857143 
L 932.76 270.857143 
L 932.76 256.628571 
L 902.88 256.628571 
L 902.88 270.857143 
" clip-path="url(#pc06a215a5e)" style="fill: #e76e5b"/>
    <path d="M 902.88 256.628571 
L 932.76 256.628571 
L 932.76 242.4 
L 902.88 242.4 
L 902.88 256.628571 
" clip-path="url(#pc06a215a5e)" style="fill: #eb7556"/>
    <path d="M 902.88 242.4 
L 932.76 242.4 
L 932.76 228.171429 
L 902.88 228.171429 
L 902.88 242.4 
" clip-path="url(#pc06a215a5e)" style="fill: #ef7c51"/>
    <path d="M 902.88 228.171429 
L 932.76 228.171429 
L 932.76 213.942857 
L 902.88 213.942857 
L 902.88 228.171429 
" clip-path="url(#pc06a215a5e)" style="fill: #f2844b"/>
    <path d="M 902.88 213.942857 
L 932.76 213.942857 
L 932.76 199.714286 
L 902.88 199.714286 
L 902.88 213.942857 
" clip-path="url(#pc06a215a5e)" style="fill: #f58c46"/>
    <path d="M 902.88 199.714286 
L 932.76 199.714286 
L 932.76 185.485714 
L 902.88 185.485714 
L 902.88 199.714286 
" clip-path="url(#pc06a215a5e)" style="fill: #f89540"/>
    <path d="M 902.88 185.485714 
L 932.76 185.485714 
L 932.76 171.257143 
L 902.88 171.257143 
L 902.88 185.485714 
" clip-path="url(#pc06a215a5e)" style="fill: #fa9e3b"/>
    <path d="M 902.88 171.257143 
L 932.76 171.257143 
L 932.76 157.028571 
L 902.88 157.028571 
L 902.88 171.257143 
" clip-path="url(#pc06a215a5e)" style="fill: #fca636"/>
    <path d="M 902.88 157.028571 
L 932.76 157.028571 
L 932.76 142.8 
L 902.88 142.8 
L 902.88 157.028571 
" clip-path="url(#pc06a215a5e)" style="fill: #fdaf31"/>
    <path d="M 902.88 142.8 
L 932.76 142.8 
L 932.76 128.571429 
L 902.88 128.571429 
L 902.88 142.8 
" clip-path="url(#pc06a215a5e)" style="fill: #feb82c"/>
    <path d="M 902.88 128.571429 
L 932.76 128.571429 
L 932.76 114.342857 
L 902.88 114.342857 
L 902.88 128.571429 
" clip-path="url(#pc06a215a5e)" style="fill: #fdc229"/>
    <path d="M 902.88 114.342857 
L 932.76 114.342857 
L 932.76 100.114286 
L 902.88 100.114286 
L 902.88 114.342857 
" clip-path="url(#pc06a215a5e)" style="fill: #fdcb26"/>
    <path d="M 902.88 100.114286 
L 932.76 100.114286 
L 932.76 85.885714 
L 902.88 85.885714 
L 902.88 100.114286 
" clip-path="url(#pc06a215a5e)" style="fill: #fbd524"/>
    <path d="M 902.88 85.885714 
L 932.76 85.885714 
L 932.76 71.657143 
L 902.88 71.657143 
L 902.88 85.885714 
" clip-path="url(#pc06a215a5e)" style="fill: #f8df25"/>
    <path d="M 902.88 71.657143 
L 932.76 71.657143 
L 932.76 57.428571 
L 902.88 57.428571 
L 902.88 71.657143 
" clip-path="url(#pc06a215a5e)" style="fill: #f5e926"/>
    <path d="M 902.88 57.428571 
L 932.76 57.428571 
L 932.76 43.2 
L 902.88 43.2 
L 902.88 57.428571 
" clip-path="url(#pc06a215a5e)" style="fill: #f1f426"/>
   </g>
   <g id="matplotlib.axis_3"/>
   <g id="matplotlib.axis_4">
    <g id="ytick_6">
     <g id="line2d_12">
      <defs>
       <path id="m77eac6c79d" d="M 0 0 
L 3.5 0 
" style="stroke: #000000; stroke-width: 0.8"/>
      </defs>
      <g>
       <use xlink:href="#m77eac6c79d" x="932.76" y="640.8" style="stroke: #000000; stroke-width: 0.8"/>
      </g>
     </g>
     <g id="text_14">
      <!-- $\mathdefault{0.728}$ -->
      <g transform="translate(941.26 647.02665) scale(0.18 -0.18)">
       <use xlink:href="#CMR17-30" transform="scale(0.996264)"/>
       <use xlink:href="#CMMI12-3a" transform="translate(45.690477 0) scale(0.996264)"/>
       <use xlink:href="#CMR17-37" transform="translate(72.787654 0) scale(0.996264)"/>
       <use xlink:href="#CMR17-32" transform="translate(118.478131 0) scale(0.996264)"/>
       <use xlink:href="#CMR17-38" transform="translate(164.168608 0) scale(0.996264)"/>
      </g>
     </g>
    </g>
    <g id="ytick_7">
     <g id="line2d_13">
      <g>
       <use xlink:href="#m77eac6c79d" x="932.76" y="569.657143" style="stroke: #000000; stroke-width: 0.8"/>
      </g>
     </g>
     <g id="text_15">
      <!-- $\mathdefault{0.738}$ -->
      <g transform="translate(941.26 575.883793) scale(0.18 -0.18)">
       <use xlink:href="#CMR17-30" transform="scale(0.996264)"/>
       <use xlink:href="#CMMI12-3a" transform="translate(45.690477 0) scale(0.996264)"/>
       <use xlink:href="#CMR17-37" transform="translate(72.787654 0) scale(0.996264)"/>
       <use xlink:href="#CMR17-33" transform="translate(118.478131 0) scale(0.996264)"/>
       <use xlink:href="#CMR17-38" transform="translate(164.168608 0) scale(0.996264)"/>
      </g>
     </g>
    </g>
    <g id="ytick_8">
     <g id="line2d_14">
      <g>
       <use xlink:href="#m77eac6c79d" x="932.76" y="498.514286" style="stroke: #000000; stroke-width: 0.8"/>
      </g>
     </g>
     <g id="text_16">
      <!-- $\mathdefault{0.748}$ -->
      <g transform="translate(941.26 504.740936) scale(0.18 -0.18)">
       <use xlink:href="#CMR17-30" transform="scale(0.996264)"/>
       <use xlink:href="#CMMI12-3a" transform="translate(45.690477 0) scale(0.996264)"/>
       <use xlink:href="#CMR17-37" transform="translate(72.787654 0) scale(0.996264)"/>
       <use xlink:href="#CMR17-34" transform="translate(118.478131 0) scale(0.996264)"/>
       <use xlink:href="#CMR17-38" transform="translate(164.168608 0) scale(0.996264)"/>
      </g>
     </g>
    </g>
    <g id="ytick_9">
     <g id="line2d_15">
      <g>
       <use xlink:href="#m77eac6c79d" x="932.76" y="427.371429" style="stroke: #000000; stroke-width: 0.8"/>
      </g>
     </g>
     <g id="text_17">
      <!-- $\mathdefault{0.758}$ -->
      <g transform="translate(941.26 433.598079) scale(0.18 -0.18)">
       <use xlink:href="#CMR17-30" transform="scale(0.996264)"/>
       <use xlink:href="#CMMI12-3a" transform="translate(45.690477 0) scale(0.996264)"/>
       <use xlink:href="#CMR17-37" transform="translate(72.787654 0) scale(0.996264)"/>
       <use xlink:href="#CMR17-35" transform="translate(118.478131 0) scale(0.996264)"/>
       <use xlink:href="#CMR17-38" transform="translate(164.168608 0) scale(0.996264)"/>
      </g>
     </g>
    </g>
    <g id="ytick_10">
     <g id="line2d_16">
      <g>
       <use xlink:href="#m77eac6c79d" x="932.76" y="356.228571" style="stroke: #000000; stroke-width: 0.8"/>
      </g>
     </g>
     <g id="text_18">
      <!-- $\mathdefault{0.768}$ -->
      <g transform="translate(941.26 362.455221) scale(0.18 -0.18)">
       <use xlink:href="#CMR17-30" transform="scale(0.996264)"/>
       <use xlink:href="#CMMI12-3a" transform="translate(45.690477 0) scale(0.996264)"/>
       <use xlink:href="#CMR17-37" transform="translate(72.787654 0) scale(0.996264)"/>
       <use xlink:href="#CMR17-36" transform="translate(118.478131 0) scale(0.996264)"/>
       <use xlink:href="#CMR17-38" transform="translate(164.168608 0) scale(0.996264)"/>
      </g>
     </g>
    </g>
    <g id="ytick_11">
     <g id="line2d_17">
      <g>
       <use xlink:href="#m77eac6c79d" x="932.76" y="285.085714" style="stroke: #000000; stroke-width: 0.8"/>
      </g>
     </g>
     <g id="text_19">
      <!-- $\mathdefault{0.778}$ -->
      <g transform="translate(941.26 291.312364) scale(0.18 -0.18)">
       <use xlink:href="#CMR17-30" transform="scale(0.996264)"/>
       <use xlink:href="#CMMI12-3a" transform="translate(45.690477 0) scale(0.996264)"/>
       <use xlink:href="#CMR17-37" transform="translate(72.787654 0) scale(0.996264)"/>
       <use xlink:href="#CMR17-37" transform="translate(118.478131 0) scale(0.996264)"/>
       <use xlink:href="#CMR17-38" transform="translate(164.168608 0) scale(0.996264)"/>
      </g>
     </g>
    </g>
    <g id="ytick_12">
     <g id="line2d_18">
      <g>
       <use xlink:href="#m77eac6c79d" x="932.76" y="213.942857" style="stroke: #000000; stroke-width: 0.8"/>
      </g>
     </g>
     <g id="text_20">
      <!-- $\mathdefault{0.788}$ -->
      <g transform="translate(941.26 220.169507) scale(0.18 -0.18)">
       <use xlink:href="#CMR17-30" transform="scale(0.996264)"/>
       <use xlink:href="#CMMI12-3a" transform="translate(45.690477 0) scale(0.996264)"/>
       <use xlink:href="#CMR17-37" transform="translate(72.787654 0) scale(0.996264)"/>
       <use xlink:href="#CMR17-38" transform="translate(118.478131 0) scale(0.996264)"/>
       <use xlink:href="#CMR17-38" transform="translate(164.168608 0) scale(0.996264)"/>
      </g>
     </g>
    </g>
    <g id="ytick_13">
     <g id="line2d_19">
      <g>
       <use xlink:href="#m77eac6c79d" x="932.76" y="142.8" style="stroke: #000000; stroke-width: 0.8"/>
      </g>
     </g>
     <g id="text_21">
      <!-- $\mathdefault{0.798}$ -->
      <g transform="translate(941.26 149.02665) scale(0.18 -0.18)">
       <defs>
        <path id="CMR17-39" d="M 2253 1864 
C 2253 464 1670 31 1190 31 
C 1043 31 685 31 538 294 
C 704 268 826 357 826 518 
C 826 692 685 749 595 749 
C 538 749 365 723 365 506 
C 365 71 742 -128 1203 -128 
C 1939 -128 2688 674 2688 2073 
C 2688 3817 1971 4179 1485 4179 
C 851 4179 243 3628 243 2778 
C 243 1991 762 1408 1414 1408 
C 1952 1408 2189 1903 2253 2112 
L 2253 1864 
z
M 1427 1510 
C 1254 1510 1011 1542 813 1922 
C 678 2169 678 2461 678 2771 
C 678 3146 678 3405 858 3684 
C 947 3817 1114 4032 1485 4032 
C 2240 4032 2240 2885 2240 2632 
C 2240 2182 2035 1510 1427 1510 
z
" transform="scale(0.015625)"/>
       </defs>
       <use xlink:href="#CMR17-30" transform="scale(0.996264)"/>
       <use xlink:href="#CMMI12-3a" transform="translate(45.690477 0) scale(0.996264)"/>
       <use xlink:href="#CMR17-37" transform="translate(72.787654 0) scale(0.996264)"/>
       <use xlink:href="#CMR17-39" transform="translate(118.478131 0) scale(0.996264)"/>
       <use xlink:href="#CMR17-38" transform="translate(164.168608 0) scale(0.996264)"/>
      </g>
     </g>
    </g>
    <g id="ytick_14">
     <g id="line2d_20">
      <g>
       <use xlink:href="#m77eac6c79d" x="932.76" y="71.657143" style="stroke: #000000; stroke-width: 0.8"/>
      </g>
     </g>
     <g id="text_22">
      <!-- $\mathdefault{0.808}$ -->
      <g transform="translate(941.26 77.883793) scale(0.18 -0.18)">
       <use xlink:href="#CMR17-30" transform="scale(0.996264)"/>
       <use xlink:href="#CMMI12-3a" transform="translate(45.690477 0) scale(0.996264)"/>
       <use xlink:href="#CMR17-38" transform="translate(72.787654 0) scale(0.996264)"/>
       <use xlink:href="#CMR17-30" transform="translate(118.478131 0) scale(0.996264)"/>
       <use xlink:href="#CMR17-38" transform="translate(164.168608 0) scale(0.996264)"/>
      </g>
     </g>
    </g>
    <g id="text_23">
     <!-- $C_T$ -->
     <g transform="translate(1012.871632 352.981433) rotate(-90) scale(0.2 -0.2)">
      <defs>
       <path id="CMMI12-43" d="M 4781 4423 
C 4781 4480 4736 4480 4723 4480 
C 4710 4480 4685 4480 4634 4416 
L 4192 3882 
C 3968 4264 3616 4480 3136 4480 
C 1754 4480 320 3088 320 1595 
C 320 533 1069 -128 2003 -128 
C 2515 -128 2963 88 3334 400 
C 3891 863 4058 1481 4058 1531 
C 4058 1588 4006 1588 3987 1588 
C 3930 1588 3923 1550 3910 1524 
C 3616 534 2752 57 2112 57 
C 1434 57 845 489 845 1391 
C 845 1595 909 2700 1632 3532 
C 1984 3939 2586 4295 3194 4295 
C 3898 4295 4211 3717 4211 3068 
C 4211 2903 4192 2764 4192 2738 
C 4192 2681 4256 2681 4275 2681 
C 4346 2681 4352 2687 4378 2801 
L 4781 4423 
z
" transform="scale(0.015625)"/>
       <path id="CMMI12-54" d="M 2669 3910 
C 2707 4064 2720 4121 2816 4147 
C 2867 4160 3078 4160 3213 4160 
C 3853 4160 4154 4134 4154 3634 
C 4154 3537 4128 3295 4090 3057 
L 4083 2980 
C 4083 2954 4109 2916 4147 2916 
C 4211 2916 4211 2948 4230 3050 
L 4416 4184 
C 4429 4243 4429 4256 4429 4275 
C 4429 4345 4390 4345 4262 4345 
L 762 4345 
C 614 4345 608 4339 570 4224 
L 179 3070 
C 173 3056 154 2986 154 2980 
C 154 2948 179 2916 218 2916 
C 269 2916 282 2941 307 3024 
C 576 3801 710 4160 1562 4160 
L 1990 4160 
C 2144 4160 2208 4160 2208 4089 
C 2208 4069 2208 4057 2176 3941 
L 1318 499 
C 1254 249 1242 185 563 185 
C 403 185 358 185 358 64 
C 358 0 429 0 461 0 
C 621 0 787 0 947 0 
L 1946 0 
C 2106 0 2278 0 2438 0 
C 2509 0 2573 0 2573 121 
C 2573 185 2528 185 2362 185 
C 1786 185 1786 243 1786 339 
C 1786 346 1786 391 1811 494 
L 2669 3910 
z
" transform="scale(0.015625)"/>
      </defs>
      <use xlink:href="#CMMI12-43" transform="scale(0.996264)"/>
      <use xlink:href="#CMMI12-54" transform="translate(69.792037 -14.943915) scale(0.697382)"/>
     </g>
    </g>
   </g>
   <g id="LineCollection_1"/>
   <g id="patch_8">
    <path d="M 902.88 640.8 
L 917.82 640.8 
L 932.76 640.8 
L 932.76 43.2 
L 917.82 43.2 
L 902.88 43.2 
L 902.88 640.8 
z
" style="fill: none; stroke: #000000; stroke-width: 0.8; stroke-linejoin: miter; stroke-linecap: square"/>
   </g>
  </g>
 </g>
 <defs>
  <clipPath id="pa78c66dd5c">
   <rect x="144" y="43.2" width="714.24" height="597.6"/>
  </clipPath>
  <clipPath id="pc06a215a5e">
   <rect x="902.88" y="43.2" width="29.88" height="597.6"/>
  </clipPath>
 </defs>
</svg>
