<?xml version="1.0" encoding="utf-8" standalone="no"?>
<!DOCTYPE svg PUBLIC "-//W3C//DTD SVG 1.1//EN"
  "http://www.w3.org/Graphics/SVG/1.1/DTD/svg11.dtd">
<svg xmlns:xlink="http://www.w3.org/1999/xlink" width="720pt" height="720pt" viewBox="0 0 720 720" xmlns="http://www.w3.org/2000/svg" version="1.1">
 <metadata>
  <rdf:RDF xmlns:dc="http://purl.org/dc/elements/1.1/" xmlns:cc="http://creativecommons.org/ns#" xmlns:rdf="http://www.w3.org/1999/02/22-rdf-syntax-ns#">
   <cc:Work>
    <dc:type rdf:resource="http://purl.org/dc/dcmitype/StillImage"/>
    <dc:date>2024-09-23T14:13:02.453351</dc:date>
    <dc:format>image/svg+xml</dc:format>
    <dc:creator>
     <cc:Agent>
      <dc:title>Matplotlib v3.8.4, https://matplotlib.org/</dc:title>
     </cc:Agent>
    </dc:creator>
   </cc:Work>
  </rdf:RDF>
 </metadata>
 <defs>
  <style type="text/css">*{stroke-linejoin: round; stroke-linecap: butt}</style>
 </defs>
 <g id="figure_1">
  <g id="patch_1">
   <path d="M 0 720 
L 720 720 
L 720 0 
L 0 0 
z
" style="fill: #ffffff"/>
  </g>
  <g id="patch_2">
   <path d="M 90 621 
L 648 621 
L 648 63 
L 90 63 
z
" style="fill: #ffffff"/>
  </g>
  <g id="pane3d_1">
   <g id="patch_3">
    <path d="M 376.540541 325.019272 
L 624.90001 448.525829 
L 636.240625 215.184579 
L 376.540541 102.621726 
" style="fill: #f2f2f2; opacity: 0.5; stroke: #f2f2f2; stroke-linejoin: miter"/>
   </g>
  </g>
  <g id="pane3d_2">
   <g id="patch_4">
    <path d="M 376.540541 325.019272 
L 128.181071 448.525829 
L 116.840456 215.184579 
L 376.540541 102.621726 
" style="fill: #e6e6e6; opacity: 0.5; stroke: #e6e6e6; stroke-linejoin: miter"/>
   </g>
  </g>
  <g id="pane3d_3">
   <g id="patch_5">
    <path d="M 376.540541 325.019272 
L 128.181071 448.525829 
L 376.540541 590.999359 
L 624.90001 448.525829 
" style="fill: #ececec; opacity: 0.5; stroke: #ececec; stroke-linejoin: miter"/>
   </g>
  </g>
  <g id="grid3d_1">
   <g id="Line3DCollection_1">
    <path d="M 610.155436 456.98418 
L 361.725101 332.386834 
L 361.092749 109.317325 
" style="fill: none; stroke: #b0b0b0; stroke-width: 0.8"/>
    <path d="M 569.014408 480.585082 
L 320.433831 352.92055 
L 318.009591 127.991031 
" style="fill: none; stroke: #b0b0b0; stroke-width: 0.8"/>
    <path d="M 526.818176 504.791311 
L 278.155989 373.944877 
L 273.852017 147.130426 
" style="fill: none; stroke: #b0b0b0; stroke-width: 0.8"/>
    <path d="M 483.525617 529.626457 
L 234.855789 395.477612 
L 228.579326 166.753151 
" style="fill: none; stroke: #b0b0b0; stroke-width: 0.8"/>
    <path d="M 439.093441 555.115354 
L 190.495694 417.537421 
L 182.14874 186.877747 
" style="fill: none; stroke: #b0b0b0; stroke-width: 0.8"/>
    <path d="M 393.476049 581.28416 
L 145.036306 440.143898 
L 134.51526 207.523718 
" style="fill: none; stroke: #b0b0b0; stroke-width: 0.8"/>
   </g>
  </g>
  <g id="grid3d_2">
   <g id="Line3DCollection_2">
    <path d="M 391.988332 109.317325 
L 391.35598 332.386834 
L 142.925645 456.98418 
" style="fill: none; stroke: #b0b0b0; stroke-width: 0.8"/>
    <path d="M 422.654112 122.608917 
L 420.750597 347.004469 
L 172.206166 473.781201 
" style="fill: none; stroke: #b0b0b0; stroke-width: 0.8"/>
    <path d="M 453.862276 136.135597 
L 450.643473 361.869883 
L 202.019214 490.88371 
" style="fill: none; stroke: #b0b0b0; stroke-width: 0.8"/>
    <path d="M 485.627345 149.903659 
L 481.047386 376.989429 
L 232.379448 508.300118 
" style="fill: none; stroke: #b0b0b0; stroke-width: 0.8"/>
    <path d="M 517.964357 163.91962 
L 511.975553 392.369682 
L 263.302074 526.039146 
" style="fill: none; stroke: #b0b0b0; stroke-width: 0.8"/>
    <path d="M 550.888902 178.190238 
L 543.441652 408.017443 
L 294.802864 544.109843 
" style="fill: none; stroke: #b0b0b0; stroke-width: 0.8"/>
    <path d="M 584.417138 192.722516 
L 575.45984 423.939752 
L 326.898186 562.521599 
" style="fill: none; stroke: #b0b0b0; stroke-width: 0.8"/>
    <path d="M 618.565821 207.523718 
L 608.044775 440.143898 
L 359.605032 581.28416 
" style="fill: none; stroke: #b0b0b0; stroke-width: 0.8"/>
   </g>
  </g>
  <g id="grid3d_3">
   <g id="Line3DCollection_3">
    <path d="M 126.795561 420.017982 
L 376.540541 297.775976 
L 626.28552 420.017982 
" style="fill: none; stroke: #b0b0b0; stroke-width: 0.8"/>
    <path d="M 124.492756 372.636116 
L 376.540541 252.540589 
L 628.588325 372.636116 
" style="fill: none; stroke: #b0b0b0; stroke-width: 0.8"/>
    <path d="M 122.147089 324.372336 
L 376.540541 206.520554 
L 630.933992 324.372336 
" style="fill: none; stroke: #b0b0b0; stroke-width: 0.8"/>
    <path d="M 119.757352 275.20179 
L 376.540541 159.695277 
L 633.32373 275.20179 
" style="fill: none; stroke: #b0b0b0; stroke-width: 0.8"/>
    <path d="M 117.322291 225.09868 
L 376.540541 112.043436 
L 635.75879 225.09868 
" style="fill: none; stroke: #b0b0b0; stroke-width: 0.8"/>
   </g>
  </g>
  <g id="axis3d_1">
   <g id="line2d_1">
    <path d="M 624.90001 448.525829 
L 376.540541 590.999359 
" style="fill: none; stroke: #000000; stroke-width: 0.8; stroke-linecap: square"/>
   </g>
   <g id="xtick_1">
    <g id="line2d_2">
     <path d="M 608.026843 455.916609 
L 614.419949 459.122997 
" style="fill: none; stroke: #000000; stroke-width: 0.8; stroke-linecap: square"/>
    </g>
    <g id="text_1">
     <!-- $\mathdefault{5}$ -->
     <g transform="translate(617.507757 485.440737) scale(0.18 -0.18)">
      <defs>
       <path id="CMR17-35" d="M 730 3692 
C 794 3666 1056 3584 1325 3584 
C 1920 3584 2246 3911 2432 4100 
C 2432 4157 2432 4192 2394 4192 
C 2387 4192 2374 4192 2323 4163 
C 2099 4058 1837 3973 1517 3973 
C 1325 3973 1037 3999 723 4139 
C 653 4171 640 4171 634 4171 
C 602 4171 595 4164 595 4037 
L 595 2203 
C 595 2089 595 2057 659 2057 
C 691 2057 704 2070 736 2114 
C 941 2401 1222 2522 1542 2522 
C 1766 2522 2246 2382 2246 1289 
C 2246 1085 2246 715 2054 421 
C 1894 159 1645 25 1370 25 
C 947 25 518 320 403 814 
C 429 807 480 795 506 795 
C 589 795 749 840 749 1038 
C 749 1210 627 1280 506 1280 
C 358 1280 262 1190 262 1011 
C 262 454 704 -128 1382 -128 
C 2042 -128 2669 440 2669 1264 
C 2669 2030 2170 2624 1549 2624 
C 1222 2624 947 2503 730 2274 
L 730 3692 
z
" transform="scale(0.015625)"/>
      </defs>
      <use xlink:href="#CMR17-35" transform="scale(0.996264)"/>
     </g>
    </g>
   </g>
   <g id="xtick_2">
    <g id="line2d_3">
     <path d="M 566.882741 479.490313 
L 573.285174 482.778437 
" style="fill: none; stroke: #000000; stroke-width: 0.8; stroke-linecap: square"/>
    </g>
    <g id="text_2">
     <!-- $\mathdefault{6}$ -->
     <g transform="translate(576.460261 509.274248) scale(0.18 -0.18)">
      <defs>
       <path id="CMR17-36" d="M 678 2176 
C 678 3690 1395 4032 1811 4032 
C 1946 4032 2272 4009 2400 3776 
C 2298 3776 2106 3776 2106 3553 
C 2106 3381 2246 3323 2336 3323 
C 2394 3323 2566 3348 2566 3560 
C 2566 3954 2246 4179 1805 4179 
C 1043 4179 243 3390 243 1984 
C 243 253 966 -128 1478 -128 
C 2099 -128 2688 427 2688 1283 
C 2688 2081 2170 2662 1517 2662 
C 1126 2662 838 2407 678 1960 
L 678 2176 
z
M 1478 25 
C 691 25 691 1200 691 1436 
C 691 1896 909 2560 1504 2560 
C 1613 2560 1926 2560 2138 2120 
C 2253 1870 2253 1609 2253 1289 
C 2253 944 2253 690 2118 434 
C 1978 171 1773 25 1478 25 
z
" transform="scale(0.015625)"/>
      </defs>
      <use xlink:href="#CMR17-36" transform="scale(0.996264)"/>
     </g>
    </g>
   </g>
   <g id="xtick_3">
    <g id="line2d_4">
     <path d="M 524.683975 503.668291 
L 531.094114 507.041316 
" style="fill: none; stroke: #000000; stroke-width: 0.8; stroke-linecap: square"/>
    </g>
    <g id="text_3">
     <!-- $\mathdefault{7}$ -->
     <g transform="translate(534.358616 533.719831) scale(0.18 -0.18)">
      <defs>
       <path id="CMR17-37" d="M 2886 3941 
L 2886 4081 
L 1382 4081 
C 634 4081 621 4165 595 4288 
L 480 4288 
L 294 3094 
L 410 3094 
C 429 3215 474 3540 550 3661 
C 589 3712 1062 3712 1171 3712 
L 2579 3712 
L 1869 2661 
C 1395 1954 1069 999 1069 165 
C 1069 89 1069 -128 1299 -128 
C 1530 -128 1530 89 1530 171 
L 1530 465 
C 1530 1508 1709 2196 2003 2636 
L 2886 3941 
z
" transform="scale(0.015625)"/>
      </defs>
      <use xlink:href="#CMR17-37" transform="scale(0.996264)"/>
     </g>
    </g>
   </g>
   <g id="xtick_4">
    <g id="line2d_5">
     <path d="M 481.389469 528.474078 
L 487.805553 531.935336 
" style="fill: none; stroke: #000000; stroke-width: 0.8; stroke-linecap: square"/>
    </g>
    <g id="text_4">
     <!-- $\mathdefault{8}$ -->
     <g transform="translate(491.161688 558.801371) scale(0.18 -0.18)">
      <defs>
       <path id="CMR17-38" d="M 1741 2264 
C 2144 2467 2554 2773 2554 3263 
C 2554 3841 1990 4179 1472 4179 
C 890 4179 378 3759 378 3180 
C 378 3021 416 2747 666 2505 
C 730 2442 998 2251 1171 2130 
C 883 1983 211 1634 211 934 
C 211 279 838 -128 1459 -128 
C 2144 -128 2720 362 2720 1010 
C 2720 1590 2330 1857 2074 2029 
L 1741 2264 
z
M 902 2822 
C 851 2854 595 3051 595 3351 
C 595 3739 998 4032 1459 4032 
C 1965 4032 2336 3676 2336 3262 
C 2336 2669 1670 2331 1638 2331 
C 1632 2331 1626 2331 1574 2370 
L 902 2822 
z
M 2080 1519 
C 2176 1449 2483 1240 2483 851 
C 2483 381 2010 25 1472 25 
C 890 25 448 438 448 940 
C 448 1443 838 1862 1280 2060 
L 2080 1519 
z
" transform="scale(0.015625)"/>
      </defs>
      <use xlink:href="#CMR17-38" transform="scale(0.996264)"/>
     </g>
    </g>
   </g>
   <g id="xtick_5">
    <g id="line2d_6">
     <path d="M 436.955982 553.93245 
L 443.376105 557.485448 
" style="fill: none; stroke: #000000; stroke-width: 0.8; stroke-linecap: square"/>
    </g>
    <g id="text_5">
     <!-- $\mathdefault{9}$ -->
     <g transform="translate(446.826173 584.544013) scale(0.18 -0.18)">
      <defs>
       <path id="CMR17-39" d="M 2253 1864 
C 2253 464 1670 31 1190 31 
C 1043 31 685 31 538 294 
C 704 268 826 357 826 518 
C 826 692 685 749 595 749 
C 538 749 365 723 365 506 
C 365 71 742 -128 1203 -128 
C 1939 -128 2688 674 2688 2073 
C 2688 3817 1971 4179 1485 4179 
C 851 4179 243 3628 243 2778 
C 243 1991 762 1408 1414 1408 
C 1952 1408 2189 1903 2253 2112 
L 2253 1864 
z
M 1427 1510 
C 1254 1510 1011 1542 813 1922 
C 678 2169 678 2461 678 2771 
C 678 3146 678 3405 858 3684 
C 947 3817 1114 4032 1485 4032 
C 2240 4032 2240 2885 2240 2632 
C 2240 2182 2035 1510 1427 1510 
z
" transform="scale(0.015625)"/>
      </defs>
      <use xlink:href="#CMR17-39" transform="scale(0.996264)"/>
     </g>
    </g>
   </g>
   <g id="xtick_6">
    <g id="line2d_7">
     <path d="M 391.337968 580.069502 
L 397.760063 583.717936 
" style="fill: none; stroke: #000000; stroke-width: 0.8; stroke-linecap: square"/>
    </g>
    <g id="text_6">
     <!-- $\mathdefault{10}$ -->
     <g transform="translate(397.194308 610.974242) scale(0.18 -0.18)">
      <defs>
       <path id="CMR17-31" d="M 1702 4058 
C 1702 4192 1696 4192 1606 4192 
C 1357 3916 979 3827 621 3827 
C 602 3827 570 3827 563 3808 
C 557 3795 557 3782 557 3648 
C 755 3648 1088 3686 1344 3839 
L 1344 461 
C 1344 236 1331 160 781 160 
L 589 160 
L 589 0 
C 896 0 1216 0 1523 0 
C 1830 0 2150 0 2458 0 
L 2458 160 
L 2266 160 
C 1715 160 1702 230 1702 458 
L 1702 4058 
z
" transform="scale(0.015625)"/>
       <path id="CMR17-30" d="M 2688 2025 
C 2688 2416 2682 3080 2413 3591 
C 2176 4039 1798 4198 1466 4198 
C 1158 4198 768 4058 525 3597 
C 269 3118 243 2524 243 2025 
C 243 1661 250 1106 448 619 
C 723 -39 1216 -128 1466 -128 
C 1760 -128 2208 -7 2470 600 
C 2662 1042 2688 1559 2688 2025 
z
M 1466 -26 
C 1056 -26 813 325 723 812 
C 653 1188 653 1738 653 2096 
C 653 2588 653 2997 736 3387 
C 858 3929 1216 4096 1466 4096 
C 1728 4096 2067 3923 2189 3400 
C 2272 3036 2278 2607 2278 2096 
C 2278 1680 2278 1169 2202 792 
C 2067 95 1690 -26 1466 -26 
z
" transform="scale(0.015625)"/>
      </defs>
      <use xlink:href="#CMR17-31" transform="scale(0.996264)"/>
      <use xlink:href="#CMR17-30" transform="translate(45.690477 0) scale(0.996264)"/>
     </g>
    </g>
   </g>
   <g id="text_7">
    <!-- $\lambda\:[-]$ -->
    <g transform="translate(526.900872 584.204249) rotate(-29.841106) scale(0.2 -0.2)">
     <defs>
      <path id="CMMI12-15" d="M 1978 3965 
C 1818 4416 1312 4416 1229 4416 
C 1190 4416 1120 4416 1120 4352 
C 1120 4302 1158 4295 1190 4289 
C 1286 4276 1363 4263 1466 4080 
C 1530 3959 2189 2059 2189 2046 
C 2189 2040 2182 2033 2131 1982 
L 467 311 
C 390 234 339 183 339 102 
C 339 12 416 -64 518 -64 
C 544 -64 614 -51 653 -13 
C 755 82 1670 1194 2253 1881 
C 2419 1383 2624 797 2822 261 
C 2854 166 2886 76 2976 -6 
C 3040 -64 3053 -64 3232 -64 
L 3354 -64 
C 3379 -64 3424 -64 3424 -13 
C 3424 13 3418 19 3392 45 
C 3334 115 3290 229 3264 306 
L 1978 3965 
z
" transform="scale(0.015625)"/>
      <path id="CMR17-5b" d="M 1504 -1600 
L 1504 -1377 
L 902 -1377 
L 902 4544 
L 1504 4544 
L 1504 4767 
L 678 4767 
L 678 -1600 
L 1504 -1600 
z
" transform="scale(0.015625)"/>
      <path id="CMSY10-0" d="M 4218 1472 
C 4326 1472 4442 1472 4442 1600 
C 4442 1728 4326 1728 4218 1728 
L 755 1728 
C 646 1728 531 1728 531 1600 
C 531 1472 646 1472 755 1472 
L 4218 1472 
z
" transform="scale(0.015625)"/>
      <path id="CMR17-5d" d="M 915 4767 
L 90 4767 
L 90 4544 
L 691 4544 
L 691 -1377 
L 90 -1377 
L 90 -1600 
L 915 -1600 
L 915 4767 
z
" transform="scale(0.015625)"/>
     </defs>
     <use xlink:href="#CMMI12-15" transform="scale(0.996264)"/>
     <use xlink:href="#CMR17-5b" transform="translate(79.043279 0) scale(0.996264)"/>
     <use xlink:href="#CMSY10-0" transform="translate(103.914337 0) scale(0.996264)"/>
     <use xlink:href="#CMR17-5d" transform="translate(181.401805 0) scale(0.996264)"/>
    </g>
   </g>
  </g>
  <g id="axis3d_2">
   <g id="line2d_8">
    <path d="M 128.181071 448.525829 
L 376.540541 590.999359 
" style="fill: none; stroke: #000000; stroke-width: 0.8; stroke-linecap: square"/>
   </g>
   <g id="xtick_7">
    <g id="line2d_9">
     <path d="M 145.054238 455.916609 
L 138.661132 459.122997 
" style="fill: none; stroke: #000000; stroke-width: 0.8; stroke-linecap: square"/>
    </g>
    <g id="text_8">
     <!-- $\mathdefault{−3}$ -->
     <g transform="translate(120.375167 485.440737) scale(0.18 -0.18)">
      <defs>
       <path id="CMR17-33" d="M 1414 2157 
C 1984 2157 2234 1662 2234 1090 
C 2234 320 1824 25 1453 25 
C 1114 25 563 194 390 693 
C 422 680 454 680 486 680 
C 640 680 755 782 755 948 
C 755 1133 614 1216 486 1216 
C 378 1216 211 1165 211 926 
C 211 335 787 -128 1466 -128 
C 2176 -128 2720 430 2720 1085 
C 2720 1707 2208 2157 1600 2227 
C 2086 2328 2554 2756 2554 3329 
C 2554 3820 2048 4179 1472 4179 
C 890 4179 378 3829 378 3329 
C 378 3110 544 3072 627 3072 
C 762 3072 877 3155 877 3321 
C 877 3486 762 3569 627 3569 
C 602 3569 570 3569 544 3557 
C 730 3959 1235 4032 1459 4032 
C 1683 4032 2106 3925 2106 3320 
C 2106 3143 2080 2828 1862 2550 
C 1670 2304 1453 2304 1242 2284 
C 1210 2284 1062 2269 1037 2269 
C 992 2263 966 2257 966 2208 
C 966 2163 973 2157 1101 2157 
L 1414 2157 
z
" transform="scale(0.015625)"/>
      </defs>
      <use xlink:href="#CMSY10-0" transform="scale(0.996264)"/>
      <use xlink:href="#CMR17-33" transform="translate(77.487468 0) scale(0.996264)"/>
     </g>
    </g>
   </g>
   <g id="xtick_8">
    <g id="line2d_10">
     <path d="M 174.337009 472.694308 
L 167.93708 475.958763 
" style="fill: none; stroke: #000000; stroke-width: 0.8; stroke-linecap: square"/>
    </g>
    <g id="text_9">
     <!-- $\mathdefault{−2}$ -->
     <g transform="translate(149.588989 502.403231) scale(0.18 -0.18)">
      <defs>
       <path id="CMR17-32" d="M 2669 989 
L 2554 989 
C 2490 536 2438 459 2413 420 
C 2381 369 1920 369 1830 369 
L 602 369 
C 832 619 1280 1072 1824 1597 
C 2214 1967 2669 2402 2669 3035 
C 2669 3790 2067 4224 1395 4224 
C 691 4224 262 3604 262 3030 
C 262 2780 448 2748 525 2748 
C 589 2748 781 2787 781 3010 
C 781 3207 614 3264 525 3264 
C 486 3264 448 3258 422 3245 
C 544 3790 915 4058 1306 4058 
C 1862 4058 2227 3617 2227 3035 
C 2227 2479 1901 2000 1536 1584 
L 262 146 
L 262 0 
L 2515 0 
L 2669 989 
z
" transform="scale(0.015625)"/>
      </defs>
      <use xlink:href="#CMSY10-0" transform="scale(0.996264)"/>
      <use xlink:href="#CMR17-32" transform="translate(77.487468 0) scale(0.996264)"/>
     </g>
    </g>
   </g>
   <g id="xtick_9">
    <g id="line2d_11">
     <path d="M 204.152036 489.776966 
L 197.746094 493.101079 
" style="fill: none; stroke: #000000; stroke-width: 0.8; stroke-linecap: square"/>
    </g>
    <g id="text_10">
     <!-- $\mathdefault{−1}$ -->
     <g transform="translate(179.334796 519.674614) scale(0.18 -0.18)">
      <use xlink:href="#CMSY10-0" transform="scale(0.996264)"/>
      <use xlink:href="#CMR17-31" transform="translate(77.487468 0) scale(0.996264)"/>
     </g>
    </g>
   </g>
   <g id="xtick_10">
    <g id="line2d_12">
     <path d="M 234.513965 507.172973 
L 228.102866 510.558395 
" style="fill: none; stroke: #000000; stroke-width: 0.8; stroke-linecap: square"/>
    </g>
    <g id="text_11">
     <!-- $\mathdefault{0}$ -->
     <g transform="translate(216.601124 537.263399) scale(0.18 -0.18)">
      <use xlink:href="#CMR17-30" transform="scale(0.996264)"/>
     </g>
    </g>
   </g>
   <g id="xtick_11">
    <g id="line2d_13">
     <path d="M 265.437982 524.891032 
L 259.022634 528.339474 
" style="fill: none; stroke: #000000; stroke-width: 0.8; stroke-linecap: square"/>
    </g>
    <g id="text_12">
     <!-- $\mathdefault{1}$ -->
     <g transform="translate(247.455442 555.178419) scale(0.18 -0.18)">
      <use xlink:href="#CMR17-31" transform="scale(0.996264)"/>
     </g>
    </g>
   </g>
   <g id="xtick_12">
    <g id="line2d_14">
     <path d="M 296.939843 542.940169 
L 290.521207 546.453408 
" style="fill: none; stroke: #000000; stroke-width: 0.8; stroke-linecap: square"/>
    </g>
    <g id="text_13">
     <!-- $\mathdefault{2}$ -->
     <g transform="translate(278.887397 573.428834) scale(0.18 -0.18)">
      <use xlink:href="#CMR17-32" transform="scale(0.996264)"/>
     </g>
    </g>
   </g>
   <g id="xtick_13">
    <g id="line2d_15">
     <path d="M 329.035896 561.329751 
L 322.614991 564.90963 
" style="fill: none; stroke: #000000; stroke-width: 0.8; stroke-linecap: square"/>
    </g>
    <g id="text_14">
     <!-- $\mathdefault{3}$ -->
     <g transform="translate(310.913365 592.024151) scale(0.18 -0.18)">
      <use xlink:href="#CMR17-33" transform="scale(0.996264)"/>
     </g>
    </g>
   </g>
   <g id="xtick_14">
    <g id="line2d_16">
     <path d="M 361.743113 580.069502 
L 355.321018 583.717936 
" style="fill: none; stroke: #000000; stroke-width: 0.8; stroke-linecap: square"/>
    </g>
    <g id="text_15">
     <!-- $\mathdefault{4}$ -->
     <g transform="translate(343.550344 610.974242) scale(0.18 -0.18)">
      <defs>
       <path id="CMR17-34" d="M 2150 4122 
C 2150 4256 2144 4256 2029 4256 
L 128 1254 
L 128 1088 
L 1779 1088 
L 1779 457 
C 1779 224 1766 160 1318 160 
L 1197 160 
L 1197 0 
C 1402 0 1747 0 1965 0 
C 2182 0 2528 0 2733 0 
L 2733 160 
L 2611 160 
C 2163 160 2150 224 2150 457 
L 2150 1088 
L 2803 1088 
L 2803 1254 
L 2150 1254 
L 2150 4122 
z
M 1798 3703 
L 1798 1254 
L 256 1254 
L 1798 3703 
z
" transform="scale(0.015625)"/>
      </defs>
      <use xlink:href="#CMR17-34" transform="scale(0.996264)"/>
     </g>
    </g>
   </g>
   <g id="text_16">
    <!-- $\theta_p\:[^{\circ}]$ -->
    <g transform="translate(191.863457 564.093806) rotate(-330.158894) scale(0.2 -0.2)">
     <defs>
      <path id="CMMI12-12" d="M 2835 3200 
C 2835 3850 2630 4480 2106 4480 
C 1210 4480 256 2615 256 1216 
C 256 923 320 -64 992 -64 
C 1862 -64 2835 1756 2835 3200 
z
M 896 2304 
C 992 2679 1126 3214 1382 3665 
C 1594 4047 1818 4352 2099 4352 
C 2310 4352 2451 4174 2451 3564 
C 2451 3334 2432 3017 2246 2304 
L 896 2304 
z
M 2202 2113 
C 2042 1490 1907 1088 1677 687 
C 1491 363 1267 64 998 64 
C 800 64 640 217 640 846 
C 640 1260 742 1693 845 2113 
L 2202 2113 
z
" transform="scale(0.015625)"/>
      <path id="CMMI12-70" d="M 275 -789 
C 230 -980 205 -1031 -58 -1031 
C -134 -1031 -198 -1031 -198 -1152 
C -198 -1165 -192 -1216 -122 -1216 
C -38 -1216 51 -1216 134 -1216 
L 410 -1216 
C 544 -1216 870 -1216 1005 -1216 
C 1043 -1216 1120 -1216 1120 -1101 
C 1120 -1031 1075 -1031 966 -1031 
C 672 -1031 653 -987 653 -937 
C 653 -861 941 219 979 364 
C 1050 185 1222 -64 1555 -64 
C 2278 -64 3059 875 3059 1814 
C 3059 2401 2726 2816 2246 2816 
C 1837 2816 1491 2420 1421 2331 
C 1370 2650 1120 2816 864 2816 
C 678 2816 531 2727 410 2484 
C 294 2254 205 1865 205 1839 
C 205 1814 230 1782 275 1782 
C 326 1782 333 1788 371 1935 
C 467 2312 589 2689 845 2689 
C 992 2689 1043 2587 1043 2397 
C 1043 2245 1024 2181 998 2067 
L 275 -789 
z
M 1382 1993 
C 1427 2171 1606 2357 1709 2446 
C 1779 2510 1990 2689 2234 2689 
C 2515 2689 2643 2408 2643 2076 
C 2643 1769 2464 1047 2304 715 
C 2144 370 1850 64 1555 64 
C 1120 64 1050 613 1050 639 
C 1050 658 1062 709 1069 741 
L 1382 1993 
z
" transform="scale(0.015625)"/>
      <path id="CMSY10-e" d="M 2842 1600 
C 2842 2277 2272 2828 1600 2828 
C 909 2828 352 2264 352 1600 
C 352 930 909 372 1600 372 
C 2272 372 2842 923 2842 1600 
z
M 1600 628 
C 1043 628 608 1070 608 1600 
C 608 2130 1050 2572 1600 2572 
C 2131 2572 2586 2142 2586 1600 
C 2586 1058 2131 628 1600 628 
z
" transform="scale(0.015625)"/>
     </defs>
     <use xlink:href="#CMMI12-12" transform="scale(0.996264)"/>
     <use xlink:href="#CMMI12-70" transform="translate(45.45979 -14.943915) scale(0.697382)"/>
     <use xlink:href="#CMR17-5b" transform="translate(102.368635 0) scale(0.996264)"/>
     <use xlink:href="#CMSY10-e" transform="translate(127.239694 36.153639) scale(0.697382)"/>
     <use xlink:href="#CMR17-5d" transform="translate(162.607036 0) scale(0.996264)"/>
    </g>
   </g>
  </g>
  <g id="axis3d_3">
   <g id="line2d_17">
    <path d="M 128.181071 448.525829 
L 116.840456 215.184579 
" style="fill: none; stroke: #000000; stroke-width: 0.8; stroke-linecap: square"/>
   </g>
   <g id="xtick_15">
    <g id="line2d_18">
     <path d="M 128.935562 418.970522 
L 122.508185 422.116513 
" style="fill: none; stroke: #000000; stroke-width: 0.8; stroke-linecap: square"/>
    </g>
    <g id="text_17">
     <!-- $\mathdefault{0.5}$ -->
     <g transform="translate(93.789753 432.471282) scale(0.18 -0.18)">
      <defs>
       <path id="CMMI12-3a" d="M 1178 307 
C 1178 492 1024 619 870 619 
C 685 619 557 466 557 313 
C 557 128 710 0 864 0 
C 1050 0 1178 153 1178 307 
z
" transform="scale(0.015625)"/>
      </defs>
      <use xlink:href="#CMR17-30" transform="scale(0.996264)"/>
      <use xlink:href="#CMMI12-3a" transform="translate(45.690477 0) scale(0.996264)"/>
      <use xlink:href="#CMR17-35" transform="translate(72.787654 0) scale(0.996264)"/>
     </g>
    </g>
   </g>
   <g id="xtick_16">
    <g id="line2d_19">
     <path d="M 126.65381 371.606418 
L 120.163132 374.699091 
" style="fill: none; stroke: #000000; stroke-width: 0.8; stroke-linecap: square"/>
    </g>
    <g id="text_18">
     <!-- $\mathdefault{0.6}$ -->
     <g transform="translate(91.280933 385.089416) scale(0.18 -0.18)">
      <use xlink:href="#CMR17-30" transform="scale(0.996264)"/>
      <use xlink:href="#CMMI12-3a" transform="translate(45.690477 0) scale(0.996264)"/>
      <use xlink:href="#CMR17-36" transform="translate(72.787654 0) scale(0.996264)"/>
     </g>
    </g>
   </g>
   <g id="xtick_17">
    <g id="line2d_20">
     <path d="M 124.329613 323.361247 
L 117.77438 326.398062 
" style="fill: none; stroke: #000000; stroke-width: 0.8; stroke-linecap: square"/>
    </g>
    <g id="text_19">
     <!-- $\mathdefault{0.7}$ -->
     <g transform="translate(88.725417 336.825636) scale(0.18 -0.18)">
      <use xlink:href="#CMR17-30" transform="scale(0.996264)"/>
      <use xlink:href="#CMMI12-3a" transform="translate(45.690477 0) scale(0.996264)"/>
      <use xlink:href="#CMR17-37" transform="translate(72.787654 0) scale(0.996264)"/>
     </g>
    </g>
   </g>
   <g id="xtick_18">
    <g id="line2d_21">
     <path d="M 121.961775 274.210193 
L 115.340695 277.188495 
" style="fill: none; stroke: #000000; stroke-width: 0.8; stroke-linecap: square"/>
    </g>
    <g id="text_20">
     <!-- $\mathdefault{0.8}$ -->
     <g transform="translate(86.121888 287.65509) scale(0.18 -0.18)">
      <use xlink:href="#CMR17-30" transform="scale(0.996264)"/>
      <use xlink:href="#CMMI12-3a" transform="translate(45.690477 0) scale(0.996264)"/>
      <use xlink:href="#CMR17-38" transform="translate(72.787654 0) scale(0.996264)"/>
     </g>
    </g>
   </g>
   <g id="xtick_19">
    <g id="line2d_22">
     <path d="M 119.549055 224.127501 
L 112.860798 227.044512 
" style="fill: none; stroke: #000000; stroke-width: 0.8; stroke-linecap: square"/>
    </g>
    <g id="text_21">
     <!-- $\mathdefault{0.9}$ -->
     <g transform="translate(83.468981 237.55198) scale(0.18 -0.18)">
      <use xlink:href="#CMR17-30" transform="scale(0.996264)"/>
      <use xlink:href="#CMMI12-3a" transform="translate(45.690477 0) scale(0.996264)"/>
      <use xlink:href="#CMR17-39" transform="translate(72.787654 0) scale(0.996264)"/>
     </g>
    </g>
   </g>
   <g id="text_22">
    <!-- $C_T$ -->
    <g transform="translate(45.490517 323.732753) rotate(-272.782442) scale(0.2 -0.2)">
     <defs>
      <path id="CMMI12-43" d="M 4781 4423 
C 4781 4480 4736 4480 4723 4480 
C 4710 4480 4685 4480 4634 4416 
L 4192 3882 
C 3968 4264 3616 4480 3136 4480 
C 1754 4480 320 3088 320 1595 
C 320 533 1069 -128 2003 -128 
C 2515 -128 2963 88 3334 400 
C 3891 863 4058 1481 4058 1531 
C 4058 1588 4006 1588 3987 1588 
C 3930 1588 3923 1550 3910 1524 
C 3616 534 2752 57 2112 57 
C 1434 57 845 489 845 1391 
C 845 1595 909 2700 1632 3532 
C 1984 3939 2586 4295 3194 4295 
C 3898 4295 4211 3717 4211 3068 
C 4211 2903 4192 2764 4192 2738 
C 4192 2681 4256 2681 4275 2681 
C 4346 2681 4352 2687 4378 2801 
L 4781 4423 
z
" transform="scale(0.015625)"/>
      <path id="CMMI12-54" d="M 2669 3910 
C 2707 4064 2720 4121 2816 4147 
C 2867 4160 3078 4160 3213 4160 
C 3853 4160 4154 4134 4154 3634 
C 4154 3537 4128 3295 4090 3057 
L 4083 2980 
C 4083 2954 4109 2916 4147 2916 
C 4211 2916 4211 2948 4230 3050 
L 4416 4184 
C 4429 4243 4429 4256 4429 4275 
C 4429 4345 4390 4345 4262 4345 
L 762 4345 
C 614 4345 608 4339 570 4224 
L 179 3070 
C 173 3056 154 2986 154 2980 
C 154 2948 179 2916 218 2916 
C 269 2916 282 2941 307 3024 
C 576 3801 710 4160 1562 4160 
L 1990 4160 
C 2144 4160 2208 4160 2208 4089 
C 2208 4069 2208 4057 2176 3941 
L 1318 499 
C 1254 249 1242 185 563 185 
C 403 185 358 185 358 64 
C 358 0 429 0 461 0 
C 621 0 787 0 947 0 
L 1946 0 
C 2106 0 2278 0 2438 0 
C 2509 0 2573 0 2573 121 
C 2573 185 2528 185 2362 185 
C 1786 185 1786 243 1786 339 
C 1786 346 1786 391 1811 494 
L 2669 3910 
z
" transform="scale(0.015625)"/>
     </defs>
     <use xlink:href="#CMMI12-43" transform="scale(0.996264)"/>
     <use xlink:href="#CMMI12-54" transform="translate(69.792037 -14.943915) scale(0.697382)"/>
    </g>
   </g>
  </g>
  <g id="axes_1">
   <g id="Poly3DCollection_1">
    <path d="M 376.540541 293.104792 
L 355.650769 257.639964 
L 370.550214 268.21183 
L 391.310134 299.708727 
z
" clip-path="url(#p4ab185aa65)" style="fill: #8405a7"/>
    <path d="M 391.310134 299.708727 
L 370.550214 268.21183 
L 385.559265 278.706073 
L 406.206955 306.724084 
z
" clip-path="url(#p4ab185aa65)" style="fill: #8104a7"/>
    <path d="M 406.206955 306.724084 
L 385.559265 278.706073 
L 400.679295 289.379029 
L 421.212634 316.149993 
z
" clip-path="url(#p4ab185aa65)" style="fill: #7e03a8"/>
    <path d="M 421.212634 316.149993 
L 400.679295 289.379029 
L 415.906086 300.84404 
L 436.330836 326.020809 
z
" clip-path="url(#p4ab185aa65)" style="fill: #7801a8"/>
    <path d="M 355.650769 257.639964 
L 334.196513 228.361263 
L 349.223046 239.850292 
L 370.550214 268.21183 
z
" clip-path="url(#p4ab185aa65)" style="fill: #c5407e"/>
    <path d="M 436.330836 326.020809 
L 415.906086 300.84404 
L 431.235388 313.026609 
L 451.566452 335.864285 
z
" clip-path="url(#p4ab185aa65)" style="fill: #7201a8"/>
    <path d="M 370.550214 268.21183 
L 349.223046 239.850292 
L 364.358659 252.443058 
L 385.559265 278.706073 
z
" clip-path="url(#p4ab185aa65)" style="fill: #bf3984"/>
    <path d="M 451.566452 335.864285 
L 431.235388 313.026609 
L 446.669179 325.444933 
L 466.90947 346.388931 
z
" clip-path="url(#p4ab185aa65)" style="fill: #6a00a8"/>
    <path d="M 385.559265 278.706073 
L 364.358659 252.443058 
L 379.596061 265.487442 
L 400.679295 289.379029 
z
" clip-path="url(#p4ab185aa65)" style="fill: #ba3388"/>
    <path d="M 466.90947 346.388931 
L 446.669179 325.444933 
L 462.208824 338.001441 
L 482.358222 357.476849 
z
" clip-path="url(#p4ab185aa65)" style="fill: #6300a7"/>
    <path d="M 400.679295 289.379029 
L 379.596061 265.487442 
L 394.933971 278.731032 
L 415.906086 300.84404 
z
" clip-path="url(#p4ab185aa65)" style="fill: #b32c8e"/>
    <path d="M 482.358222 357.476849 
L 462.208824 338.001441 
L 477.847324 351.089323 
L 497.908277 369.185597 
z
" clip-path="url(#p4ab185aa65)" style="fill: #5901a5"/>
    <path d="M 334.196513 228.361263 
L 312.253097 206.482675 
L 327.397393 219.469089 
L 349.223046 239.850292 
z
" clip-path="url(#p4ab185aa65)" style="fill: #e97158"/>
    <path d="M 415.906086 300.84404 
L 394.933971 278.731032 
L 410.368471 292.78613 
L 431.235388 313.026609 
z
" clip-path="url(#p4ab185aa65)" style="fill: #ab2494"/>
    <path d="M 497.908277 369.185597 
L 477.847324 351.089323 
L 493.583842 364.614072 
L 513.569107 381.017818 
z
" clip-path="url(#p4ab185aa65)" style="fill: #5002a2"/>
    <path d="M 349.223046 239.850292 
L 327.397393 219.469089 
L 342.645891 233.098808 
L 364.358659 252.443058 
z
" clip-path="url(#p4ab185aa65)" style="fill: #e4695e"/>
    <path d="M 431.235388 313.026609 
L 410.368471 292.78613 
L 425.896283 307.421787 
L 446.669179 325.444933 
z
" clip-path="url(#p4ab185aa65)" style="fill: #a21d9a"/>
    <path d="M 513.569107 381.017818 
L 493.583842 364.614072 
L 509.421576 378.366926 
L 529.341244 392.985041 
z
" clip-path="url(#p4ab185aa65)" style="fill: #46039f"/>
    <path d="M 364.358659 252.443058 
L 342.645891 233.098808 
L 357.995664 247.620444 
L 379.596061 265.487442 
z
" clip-path="url(#p4ab185aa65)" style="fill: #de6164"/>
    <path d="M 446.669179 325.444933 
L 425.896283 307.421787 
L 441.5162 322.454033 
L 462.208824 338.001441 
z
" clip-path="url(#p4ab185aa65)" style="fill: #9814a0"/>
    <path d="M 379.596061 265.487442 
L 357.995664 247.620444 
L 373.44041 262.611471 
L 394.933971 278.731032 
z
" clip-path="url(#p4ab185aa65)" style="fill: #d8576b"/>
    <path d="M 529.341244 392.985041 
L 509.421576 378.366926 
L 525.34518 392.872638 
L 545.219478 405.270245 
z
" clip-path="url(#p4ab185aa65)" style="fill: #3a049a"/>
    <path d="M 462.208824 338.001441 
L 441.5162 322.454033 
L 457.22991 337.651007 
L 477.847324 351.089323 
z
" clip-path="url(#p4ab185aa65)" style="fill: #8e0ca4"/>
    <path d="M 312.253097 206.482675 
L 289.945575 194.933674 
L 305.166358 207.672132 
L 327.397393 219.469089 
z
" clip-path="url(#p4ab185aa65)" style="fill: #fa9c3c"/>
    <path d="M 394.933971 278.731032 
L 373.44041 262.611471 
L 388.977255 278.245062 
L 410.368471 292.78613 
z
" clip-path="url(#p4ab185aa65)" style="fill: #d04d73"/>
    <path d="M 545.219478 405.270245 
L 525.34518 392.872638 
L 541.366702 407.590222 
L 561.203746 417.848808 
z
" clip-path="url(#p4ab185aa65)" style="fill: #2e0595"/>
    <path d="M 477.847324 351.089323 
L 457.22991 337.651007 
L 473.037775 353.004254 
L 493.583842 364.614072 
z
" clip-path="url(#p4ab185aa65)" style="fill: #8104a7"/>
    <path d="M 327.397393 219.469089 
L 305.166358 207.672132 
L 320.497317 221.06878 
L 342.645891 233.098808 
z
" clip-path="url(#p4ab185aa65)" style="fill: #f79143"/>
    <path d="M 410.368471 292.78613 
L 388.977255 278.245062 
L 404.604191 294.133975 
L 425.896283 307.421787 
z
" clip-path="url(#p4ab185aa65)" style="fill: #c8437b"/>
    <path d="M 561.203746 417.848808 
L 541.366702 407.590222 
L 557.489541 422.419051 
L 577.291112 430.776912 
z
" clip-path="url(#p4ab185aa65)" style="fill: #20068f"/>
    <path d="M 493.583842 364.614072 
L 473.037775 353.004254 
L 488.937294 368.642624 
L 509.421576 378.366926 
z
" clip-path="url(#p4ab185aa65)" style="fill: #7501a8"/>
    <path d="M 342.645891 233.098808 
L 320.497317 221.06878 
L 335.935058 235.183945 
L 357.995664 247.620444 
z
" clip-path="url(#p4ab185aa65)" style="fill: #f3874a"/>
    <path d="M 425.896283 307.421787 
L 404.604191 294.133975 
L 420.320179 310.322039 
L 441.5162 322.454033 
z
" clip-path="url(#p4ab185aa65)" style="fill: #be3885"/>
    <path d="M 577.291112 430.776912 
L 557.489541 422.419051 
L 573.704303 437.624877 
L 593.48009 444.058895 
z
" clip-path="url(#p4ab185aa65)" style="fill: #0d0887"/>
    <path d="M 509.421576 378.366926 
L 488.937294 368.642624 
L 504.924912 384.67217 
L 525.34518 392.872638 
z
" clip-path="url(#p4ab185aa65)" style="fill: #6700a8"/>
    <path d="M 357.995664 247.620444 
L 335.935058 235.183945 
L 351.47479 249.949686 
L 373.44041 262.611471 
z
" clip-path="url(#p4ab185aa65)" style="fill: #ee7b51"/>
    <path d="M 289.945575 194.933674 
L 267.28704 188.597126 
L 282.553978 200.388318 
L 305.166358 207.672132 
z
" clip-path="url(#p4ab185aa65)" style="fill: #febe2a"/>
    <path d="M 441.5162 322.454033 
L 420.320179 310.322039 
L 436.123764 326.841521 
L 457.22991 337.651007 
z
" clip-path="url(#p4ab185aa65)" style="fill: #b32c8e"/>
    <path d="M 525.34518 392.872638 
L 504.924912 384.67217 
L 520.999842 401.050836 
L 541.366702 407.590222 
z
" clip-path="url(#p4ab185aa65)" style="fill: #5901a5"/>
    <path d="M 373.44041 262.611471 
L 351.47479 249.949686 
L 367.113368 265.833175 
L 388.977255 278.245062 
z
" clip-path="url(#p4ab185aa65)" style="fill: #e87059"/>
    <path d="M 305.166358 207.672132 
L 282.553978 200.388318 
L 297.943736 213.035931 
L 320.497317 221.06878 
z
" clip-path="url(#p4ab185aa65)" style="fill: #fdb52e"/>
    <path d="M 457.22991 337.651007 
L 436.123764 326.841521 
L 452.013443 343.698636 
L 473.037775 353.004254 
z
" clip-path="url(#p4ab185aa65)" style="fill: #a72197"/>
    <path d="M 541.366702 407.590222 
L 520.999842 401.050836 
L 537.165532 417.616955 
L 557.489541 422.419051 
z
" clip-path="url(#p4ab185aa65)" style="fill: #4b03a1"/>
    <path d="M 388.977255 278.245062 
L 367.113368 265.833175 
L 382.843021 282.439669 
L 404.604191 294.133975 
z
" clip-path="url(#p4ab185aa65)" style="fill: #e16462"/>
    <path d="M 473.037775 353.004254 
L 452.013443 343.698636 
L 467.987772 360.88995 
L 488.937294 368.642624 
z
" clip-path="url(#p4ab185aa65)" style="fill: #9a169f"/>
    <path d="M 320.497317 221.06878 
L 297.943736 213.035931 
L 313.450876 226.538332 
L 335.935058 235.183945 
z
" clip-path="url(#p4ab185aa65)" style="fill: #fca934"/>
    <path d="M 404.604191 294.133975 
L 382.843021 282.439669 
L 398.659728 299.566153 
L 420.320179 310.322039 
z
" clip-path="url(#p4ab185aa65)" style="fill: #d8576b"/>
    <path d="M 557.489541 422.419051 
L 537.165532 417.616955 
L 553.423126 434.335792 
L 573.704303 437.624877 
z
" clip-path="url(#p4ab185aa65)" style="fill: #3a049a"/>
    <path d="M 267.28704 188.597126 
L 244.337268 187.646279 
L 259.597124 197.179499 
L 282.553978 200.388318 
z
" clip-path="url(#p4ab185aa65)" style="fill: #f9dc24"/>
    <path d="M 488.937294 368.642624 
L 467.987772 360.88995 
L 484.049368 378.216484 
L 504.924912 384.67217 
z
" clip-path="url(#p4ab185aa65)" style="fill: #8b0aa5"/>
    <path d="M 335.935058 235.183945 
L 313.450876 226.538332 
L 329.069906 240.900354 
L 351.47479 249.949686 
z
" clip-path="url(#p4ab185aa65)" style="fill: #fa9e3b"/>
    <path d="M 420.320179 310.322039 
L 398.659728 299.566153 
L 414.560611 317.177205 
L 436.123764 326.841521 
z
" clip-path="url(#p4ab185aa65)" style="fill: #ce4b75"/>
    <path d="M 504.924912 384.67217 
L 484.049368 378.216484 
L 500.19613 395.781209 
L 520.999842 401.050836 
z
" clip-path="url(#p4ab185aa65)" style="fill: #7b02a8"/>
    <path d="M 282.553978 200.388318 
L 259.597124 197.179499 
L 274.999378 207.658522 
L 297.943736 213.035931 
z
" clip-path="url(#p4ab185aa65)" style="fill: #fbd324"/>
    <path d="M 351.47479 249.949686 
L 329.069906 240.900354 
L 344.793868 255.913658 
L 367.113368 265.833175 
z
" clip-path="url(#p4ab185aa65)" style="fill: #f79143"/>
    <path d="M 436.123764 326.841521 
L 414.560611 317.177205 
L 430.545283 335.03101 
L 452.013443 343.698636 
z
" clip-path="url(#p4ab185aa65)" style="fill: #c33d80"/>
    <path d="M 520.999842 401.050836 
L 500.19613 395.781209 
L 516.427109 413.595807 
L 537.165532 417.616955 
z
" clip-path="url(#p4ab185aa65)" style="fill: #6a00a8"/>
    <path d="M 367.113368 265.833175 
L 344.793868 255.913658 
L 360.619078 271.679234 
L 382.843021 282.439669 
z
" clip-path="url(#p4ab185aa65)" style="fill: #f2844b"/>
    <path d="M 297.943736 213.035931 
L 274.999378 207.658522 
L 290.54778 219.683504 
L 313.450876 226.538332 
z
" clip-path="url(#p4ab185aa65)" style="fill: #fdca26"/>
    <path d="M 452.013443 343.698636 
L 430.545283 335.03101 
L 446.614583 353.014161 
L 467.987772 360.88995 
z
" clip-path="url(#p4ab185aa65)" style="fill: #b7318a"/>
    <path d="M 244.337268 187.646279 
L 221.138494 191.481307 
L 236.356382 198.746077 
L 259.597124 197.179499 
z
" clip-path="url(#p4ab185aa65)" style="fill: #f3ee27"/>
    <path d="M 537.165532 417.616955 
L 516.427109 413.595807 
L 532.747837 431.453831 
L 553.423126 434.335792 
z
" clip-path="url(#p4ab185aa65)" style="fill: #5901a5"/>
    <path d="M 382.843021 282.439669 
L 360.619078 271.679234 
L 376.540541 288.828143 
L 398.659728 299.566153 
z
" clip-path="url(#p4ab185aa65)" style="fill: #eb7655"/>
    <path d="M 467.987772 360.88995 
L 446.614583 353.014161 
L 462.765032 371.358061 
L 484.049368 378.216484 
z
" clip-path="url(#p4ab185aa65)" style="fill: #aa2395"/>
    <path d="M 313.450876 226.538332 
L 290.54778 219.683504 
L 306.233545 233.44377 
L 329.069906 240.900354 
z
" clip-path="url(#p4ab185aa65)" style="fill: #febe2a"/>
    <path d="M 259.597124 197.179499 
L 236.356382 198.746077 
L 251.753106 207.738139 
L 274.999378 207.658522 
z
" clip-path="url(#p4ab185aa65)" style="fill: #f5eb27"/>
    <path d="M 398.659728 299.566153 
L 376.540541 288.828143 
L 392.547124 307.439626 
L 414.560611 317.177205 
z
" clip-path="url(#p4ab185aa65)" style="fill: #e3685f"/>
    <path d="M 484.049368 378.216484 
L 462.765032 371.358061 
L 478.987923 390.408937 
L 500.19613 395.781209 
z
" clip-path="url(#p4ab185aa65)" style="fill: #9a169f"/>
    <path d="M 329.069906 240.900354 
L 306.233545 233.44377 
L 322.038254 248.43336 
L 344.793868 255.913658 
z
" clip-path="url(#p4ab185aa65)" style="fill: #fdb22f"/>
    <path d="M 221.138494 191.481307 
L 197.881555 204.213763 
L 212.980137 208.209579 
L 236.356382 198.746077 
z
" clip-path="url(#p4ab185aa65)" style="fill: #f1f525"/>
    <path d="M 414.560611 317.177205 
L 392.547124 307.439626 
L 408.632442 326.616251 
L 430.545283 335.03101 
z
" clip-path="url(#p4ab185aa65)" style="fill: #da5a6a"/>
    <path d="M 500.19613 395.781209 
L 478.987923 390.408937 
L 495.284966 409.864804 
L 516.427109 413.595807 
z
" clip-path="url(#p4ab185aa65)" style="fill: #8808a6"/>
    <path d="M 274.999378 207.658522 
L 251.753106 207.738139 
L 267.31819 218.549571 
L 290.54778 219.683504 
z
" clip-path="url(#p4ab185aa65)" style="fill: #f7e425"/>
    <path d="M 344.793868 255.913658 
L 322.038254 248.43336 
L 337.952154 264.55362 
L 360.619078 271.679234 
z
" clip-path="url(#p4ab185aa65)" style="fill: #fca338"/>
    <path d="M 430.545283 335.03101 
L 408.632442 326.616251 
L 424.793231 346.302928 
L 446.614583 353.014161 
z
" clip-path="url(#p4ab185aa65)" style="fill: #ce4b75"/>
    <path d="M 516.427109 413.595807 
L 495.284966 409.864804 
L 511.65679 429.610077 
L 532.747837 431.453831 
z
" clip-path="url(#p4ab185aa65)" style="fill: #7701a8"/>
    <path d="M 236.356382 198.746077 
L 212.980137 208.209579 
L 228.296116 214.346825 
L 251.753106 207.738139 
z
" clip-path="url(#p4ab185aa65)" style="fill: #f0f724"/>
    <path d="M 290.54778 219.683504 
L 267.31819 218.549571 
L 283.035627 231.035196 
L 306.233545 233.44377 
z
" clip-path="url(#p4ab185aa65)" style="fill: #f9dc24"/>
    <path d="M 360.619078 271.679234 
L 337.952154 264.55362 
L 353.96724 281.888065 
L 376.540541 288.828143 
z
" clip-path="url(#p4ab185aa65)" style="fill: #f89540"/>
    <path d="M 446.614583 353.014161 
L 424.793231 346.302928 
L 441.026369 366.481805 
L 462.765032 371.358061 
z
" clip-path="url(#p4ab185aa65)" style="fill: #c23c81"/>
    <path d="M 197.881555 204.213763 
L 174.623737 224.429962 
L 189.530072 224.568277 
L 212.980137 208.209579 
z
" clip-path="url(#p4ab185aa65)" style="fill: #f4ed27"/>
    <path d="M 462.765032 371.358061 
L 441.026369 366.481805 
L 457.328104 387.184402 
L 478.987923 390.408937 
z
" clip-path="url(#p4ab185aa65)" style="fill: #b32c8e"/>
    <path d="M 376.540541 288.828143 
L 353.96724 281.888065 
L 370.07419 300.445031 
L 392.547124 307.439626 
z
" clip-path="url(#p4ab185aa65)" style="fill: #f3854b"/>
    <path d="M 306.233545 233.44377 
L 283.035627 231.035196 
L 298.892115 245.140741 
L 322.038254 248.43336 
z
" clip-path="url(#p4ab185aa65)" style="fill: #fcce25"/>
    <path d="M 251.753106 207.738139 
L 228.296116 214.346825 
L 243.814413 222.643642 
L 267.31819 218.549571 
z
" clip-path="url(#p4ab185aa65)" style="fill: #f1f525"/>
    <path d="M 478.987923 390.408937 
L 457.328104 387.184402 
L 473.69837 408.221087 
L 495.284966 409.864804 
z
" clip-path="url(#p4ab185aa65)" style="fill: #a21d9a"/>
    <path d="M 174.623737 224.429962 
L 151.434731 251.528375 
L 166.083394 247.590633 
L 189.530072 224.568277 
z
" clip-path="url(#p4ab185aa65)" style="fill: #fbd724"/>
    <path d="M 392.547124 307.439626 
L 370.07419 300.445031 
L 386.262714 320.574508 
L 408.632442 326.616251 
z
" clip-path="url(#p4ab185aa65)" style="fill: #ea7457"/>
    <path d="M 212.980137 208.209579 
L 189.530072 224.568277 
L 204.694035 227.100683 
L 228.296116 214.346825 
z
" clip-path="url(#p4ab185aa65)" style="fill: #f1f525"/>
    <path d="M 322.038254 248.43336 
L 298.892115 245.140741 
L 314.873891 260.742995 
L 337.952154 264.55362 
z
" clip-path="url(#p4ab185aa65)" style="fill: #fec029"/>
    <path d="M 495.284966 409.864804 
L 473.69837 408.221087 
L 490.135021 429.604237 
L 511.65679 429.610077 
z
" clip-path="url(#p4ab185aa65)" style="fill: #8e0ca4"/>
    <path d="M 408.632442 326.616251 
L 386.262714 320.574508 
L 402.523631 341.477395 
L 424.793231 346.302928 
z
" clip-path="url(#p4ab185aa65)" style="fill: #e06363"/>
    <path d="M 267.31819 218.549571 
L 243.814413 222.643642 
L 259.517944 233.053757 
L 283.035627 231.035196 
z
" clip-path="url(#p4ab185aa65)" style="fill: #f3ee27"/>
    <path d="M 337.952154 264.55362 
L 314.873891 260.742995 
L 330.969343 277.831585 
L 353.96724 281.888065 
z
" clip-path="url(#p4ab185aa65)" style="fill: #fdb130"/>
    <path d="M 424.793231 346.302928 
L 402.523631 341.477395 
L 418.852041 363.030133 
L 441.026369 366.481805 
z
" clip-path="url(#p4ab185aa65)" style="fill: #d45270"/>
    <path d="M 228.296116 214.346825 
L 204.694035 227.100683 
L 220.104632 232.239974 
L 243.814413 222.643642 
z
" clip-path="url(#p4ab185aa65)" style="fill: #f0f921"/>
    <path d="M 189.530072 224.568277 
L 166.083394 247.590633 
L 181.03025 246.216309 
L 204.694035 227.100683 
z
" clip-path="url(#p4ab185aa65)" style="fill: #f6e826"/>
    <path d="M 441.026369 366.481805 
L 418.852041 363.030133 
L 435.243886 385.161251 
L 457.328104 387.184402 
z
" clip-path="url(#p4ab185aa65)" style="fill: #c6417d"/>
    <path d="M 283.035627 231.035196 
L 259.517944 233.053757 
L 275.38947 245.515018 
L 298.892115 245.140741 
z
" clip-path="url(#p4ab185aa65)" style="fill: #f6e626"/>
    <path d="M 353.96724 281.888065 
L 330.969343 277.831585 
L 347.166516 296.363157 
L 370.07419 300.445031 
z
" clip-path="url(#p4ab185aa65)" style="fill: #fb9f3a"/>
    <path d="M 457.328104 387.184402 
L 435.243886 385.161251 
L 451.696316 407.771632 
L 473.69837 408.221087 
z
" clip-path="url(#p4ab185aa65)" style="fill: #b52f8c"/>
    <path d="M 370.07419 300.445031 
L 347.166516 296.363157 
L 363.453866 316.3617 
L 386.262714 320.574508 
z
" clip-path="url(#p4ab185aa65)" style="fill: #f68d45"/>
    <path d="M 298.892115 245.140741 
L 275.38947 245.515018 
L 291.411859 259.950503 
L 314.873891 260.742995 
z
" clip-path="url(#p4ab185aa65)" style="fill: #fad824"/>
    <path d="M 243.814413 222.643642 
L 220.104632 232.239974 
L 235.743405 240.02614 
L 259.517944 233.053757 
z
" clip-path="url(#p4ab185aa65)" style="fill: #f0f921"/>
    <path d="M 473.69837 408.221087 
L 451.696316 407.771632 
L 468.206456 430.83027 
L 490.135021 429.604237 
z
" clip-path="url(#p4ab185aa65)" style="fill: #a21d9a"/>
    <path d="M 204.694035 227.100683 
L 181.03025 246.216309 
L 196.26586 247.66383 
L 220.104632 232.239974 
z
" clip-path="url(#p4ab185aa65)" style="fill: #f2f227"/>
    <path d="M 386.262714 320.574508 
L 363.453866 316.3617 
L 379.819171 337.992802 
L 402.523631 341.477395 
z
" clip-path="url(#p4ab185aa65)" style="fill: #ed7a52"/>
    <path d="M 314.873891 260.742995 
L 291.411859 259.950503 
L 307.570511 276.436636 
L 330.969343 277.831585 
z
" clip-path="url(#p4ab185aa65)" style="fill: #fdca26"/>
    <path d="M 402.523631 341.477395 
L 379.819171 337.992802 
L 396.250089 360.819244 
L 418.852041 363.030133 
z
" clip-path="url(#p4ab185aa65)" style="fill: #e26660"/>
    <path d="M 259.517944 233.053757 
L 235.743405 240.02614 
L 251.588763 250.406644 
L 275.38947 245.515018 
z
" clip-path="url(#p4ab185aa65)" style="fill: #f1f426"/>
    <path d="M 418.852041 363.030133 
L 396.250089 360.819244 
L 412.738116 384.605526 
L 435.243886 385.161251 
z
" clip-path="url(#p4ab185aa65)" style="fill: #d5536f"/>
    <path d="M 330.969343 277.831585 
L 307.570511 276.436636 
L 323.848322 294.931962 
L 347.166516 296.363157 
z
" clip-path="url(#p4ab185aa65)" style="fill: #feb82c"/>
    <path d="M 220.104632 232.239974 
L 196.26586 247.66383 
L 211.773326 252.062247 
L 235.743405 240.02614 
z
" clip-path="url(#p4ab185aa65)" style="fill: #f0f921"/>
    <path d="M 435.243886 385.161251 
L 412.738116 384.605526 
L 429.278455 409.027414 
L 451.696316 407.771632 
z
" clip-path="url(#p4ab185aa65)" style="fill: #c5407e"/>
    <path d="M 275.38947 245.515018 
L 251.588763 250.406644 
L 267.619134 263.324222 
L 291.411859 259.950503 
z
" clip-path="url(#p4ab185aa65)" style="fill: #f5eb27"/>
    <path d="M 347.166516 296.363157 
L 323.848322 294.931962 
L 340.227219 315.241325 
L 363.453866 316.3617 
z
" clip-path="url(#p4ab185aa65)" style="fill: #fca338"/>
    <path d="M 451.696316 407.771632 
L 429.278455 409.027414 
L 445.866617 434.037349 
L 468.206456 430.83027 
z
" clip-path="url(#p4ab185aa65)" style="fill: #b22b8f"/>
    <path d="M 363.453866 316.3617 
L 340.227219 315.241325 
L 356.691242 337.196715 
L 379.819171 337.992802 
z
" clip-path="url(#p4ab185aa65)" style="fill: #f68f44"/>
    <path d="M 235.743405 240.02614 
L 211.773326 252.062247 
L 227.533129 259.519765 
L 251.588763 250.406644 
z
" clip-path="url(#p4ab185aa65)" style="fill: #f0f921"/>
    <path d="M 291.411859 259.950503 
L 267.619134 263.324222 
L 283.812575 278.690327 
L 307.570511 276.436636 
z
" clip-path="url(#p4ab185aa65)" style="fill: #f9dd25"/>
    <path d="M 379.819171 337.992802 
L 356.691242 337.196715 
L 373.22634 360.894093 
L 396.250089 360.819244 
z
" clip-path="url(#p4ab185aa65)" style="fill: #ed7a52"/>
    <path d="M 396.250089 360.819244 
L 373.22634 360.894093 
L 389.818203 385.908817 
L 412.738116 384.605526 
z
" clip-path="url(#p4ab185aa65)" style="fill: #e06363"/>
    <path d="M 307.570511 276.436636 
L 283.812575 278.690327 
L 300.147522 296.403603 
L 323.848322 294.931962 
z
" clip-path="url(#p4ab185aa65)" style="fill: #fdcb26"/>
    <path d="M 251.588763 250.406644 
L 227.533129 259.519765 
L 243.521883 270.064573 
L 267.619134 263.324222 
z
" clip-path="url(#p4ab185aa65)" style="fill: #f1f426"/>
    <path d="M 412.738116 384.605526 
L 389.818203 385.908817 
L 406.457602 411.822091 
L 429.278455 409.027414 
z
" clip-path="url(#p4ab185aa65)" style="fill: #d04d73"/>
    <path d="M 323.848322 294.931962 
L 300.147522 296.403603 
L 316.603049 316.354001 
L 340.227219 315.241325 
z
" clip-path="url(#p4ab185aa65)" style="fill: #feb72d"/>
    <path d="M 429.278455 409.027414 
L 406.457602 411.822091 
L 423.138154 438.47452 
L 445.866617 434.037349 
z
" clip-path="url(#p4ab185aa65)" style="fill: #bd3786"/>
    <path d="M 267.619134 263.324222 
L 243.521883 270.064573 
L 259.713025 283.624059 
L 283.812575 278.690327 
z
" clip-path="url(#p4ab185aa65)" style="fill: #f5eb27"/>
    <path d="M 340.227219 315.241325 
L 316.603049 316.354001 
L 333.159084 338.429252 
L 356.691242 337.196715 
z
" clip-path="url(#p4ab185aa65)" style="fill: #fba238"/>
    <path d="M 356.691242 337.196715 
L 333.159084 338.429252 
L 349.795807 362.385654 
L 373.22634 360.894093 
z
" clip-path="url(#p4ab185aa65)" style="fill: #f58b47"/>
    <path d="M 283.812575 278.690327 
L 259.713025 283.624059 
L 276.07965 300.094933 
L 300.147522 296.403603 
z
" clip-path="url(#p4ab185aa65)" style="fill: #f9dc24"/>
    <path d="M 373.22634 360.894093 
L 349.795807 362.385654 
L 366.496734 388.335897 
L 389.818203 385.908817 
z
" clip-path="url(#p4ab185aa65)" style="fill: #e97257"/>
    <path d="M 389.818203 385.908817 
L 366.496734 388.335897 
L 383.244317 415.750837 
L 406.457602 411.822091 
z
" clip-path="url(#p4ab185aa65)" style="fill: #da5a6a"/>
    <path d="M 300.147522 296.403603 
L 276.07965 300.094933 
L 292.595873 319.397827 
L 316.603049 316.354001 
z
" clip-path="url(#p4ab185aa65)" style="fill: #fdc827"/>
    <path d="M 406.457602 411.822091 
L 383.244317 415.750837 
L 400.027172 444.170817 
L 423.138154 438.47452 
z
" clip-path="url(#p4ab185aa65)" style="fill: #c7427c"/>
    <path d="M 316.603049 316.354001 
L 292.595873 319.397827 
L 309.23578 341.42355 
L 333.159084 338.429252 
z
" clip-path="url(#p4ab185aa65)" style="fill: #fdb22f"/>
    <path d="M 333.159084 338.429252 
L 309.23578 341.42355 
L 325.971432 365.778663 
L 349.795807 362.385654 
z
" clip-path="url(#p4ab185aa65)" style="fill: #f99a3e"/>
    <path d="M 349.795807 362.385654 
L 325.971432 365.778663 
L 342.781012 392.331009 
L 366.496734 388.335897 
z
" clip-path="url(#p4ab185aa65)" style="fill: #f07f4f"/>
    <path d="M 366.496734 388.335897 
L 342.781012 392.331009 
L 359.643879 420.952549 
L 383.244317 415.750837 
z
" clip-path="url(#p4ab185aa65)" style="fill: #e26561"/>
    <path d="M 383.244317 415.750837 
L 359.643879 420.952549 
L 376.540541 450.929854 
L 400.027172 444.170817 
z
" clip-path="url(#p4ab185aa65)" style="fill: #ce4b75"/>
   </g>
  </g>
 </g>
 <defs>
  <clipPath id="p4ab185aa65">
   <rect x="90" y="63" width="558" height="558"/>
  </clipPath>
 </defs>
</svg>
