<?xml version="1.0" encoding="utf-8" standalone="no"?>
<!DOCTYPE svg PUBLIC "-//W3C//DTD SVG 1.1//EN"
  "http://www.w3.org/Graphics/SVG/1.1/DTD/svg11.dtd">
<svg xmlns:xlink="http://www.w3.org/1999/xlink" width="1152pt" height="720pt" viewBox="0 0 1152 720" xmlns="http://www.w3.org/2000/svg" version="1.1">
 <metadata>
  <rdf:RDF xmlns:dc="http://purl.org/dc/elements/1.1/" xmlns:cc="http://creativecommons.org/ns#" xmlns:rdf="http://www.w3.org/1999/02/22-rdf-syntax-ns#">
   <cc:Work>
    <dc:type rdf:resource="http://purl.org/dc/dcmitype/StillImage"/>
    <dc:date>2024-09-22T13:35:24.238364</dc:date>
    <dc:format>image/svg+xml</dc:format>
    <dc:creator>
     <cc:Agent>
      <dc:title>Matplotlib v3.8.4, https://matplotlib.org/</dc:title>
     </cc:Agent>
    </dc:creator>
   </cc:Work>
  </rdf:RDF>
 </metadata>
 <defs>
  <style type="text/css">*{stroke-linejoin: round; stroke-linecap: butt}</style>
 </defs>
 <g id="figure_1">
  <g id="patch_1">
   <path d="M 0 720 
L 1152 720 
L 1152 0 
L 0 0 
z
" style="fill: #ffffff"/>
  </g>
  <g id="axes_1">
   <g id="patch_2">
    <path d="M 144 640.8 
L 858.24 640.8 
L 858.24 43.2 
L 144 43.2 
z
" style="fill: #ffffff"/>
   </g>
   <g id="QuadContourSet_1">
    <path d="M 146.685573 43.2 
L 144 43.2 
L 144 48.842002 
z
" clip-path="url(#pc55c097047)" style="fill: #130789"/>
    <path d="M 144.840387 85.885714 
L 165.243006 43.2 
L 146.685573 43.2 
L 144 48.842002 
L 144 85.885714 
L 144 87.934398 
z
" clip-path="url(#pc55c097047)" style="fill: #220690"/>
    <path d="M 144.178544 128.571429 
L 161.704734 85.885714 
L 183.80044 43.2 
L 165.243006 43.2 
L 144.840387 85.885714 
L 144 87.934398 
L 144 128.571429 
L 144 129.073107 
z
" clip-path="url(#pc55c097047)" style="fill: #2c0594"/>
    <path d="M 144.413922 171.257143 
L 159.644495 128.571429 
L 178.56908 85.885714 
L 202.357874 43.2 
L 183.80044 43.2 
L 161.704734 85.885714 
L 144.178544 128.571429 
L 144 129.073107 
L 144 171.257143 
L 144 172.589887 
z
" clip-path="url(#pc55c097047)" style="fill: #370499"/>
    <path d="M 145.184178 213.942857 
L 158.547864 171.257143 
L 175.110446 128.571429 
L 195.433426 85.885714 
L 215.424 51.727115 
L 222.111899 43.2 
L 215.424 43.2 
L 202.357874 43.2 
L 178.56908 85.885714 
L 159.644495 128.571429 
L 144.413922 171.257143 
L 144 172.589887 
L 144 213.942857 
L 144 218.332142 
z
" clip-path="url(#pc55c097047)" style="fill: #3f049c"/>
    <path d="M 146.473365 256.628571 
L 158.152635 213.942857 
L 172.681806 171.257143 
L 190.576397 128.571429 
L 212.297772 85.885714 
L 215.424 80.543818 
L 244.713117 43.2 
L 222.111899 43.2 
L 215.424 51.727115 
L 195.433426 85.885714 
L 175.110446 128.571429 
L 158.547864 171.257143 
L 145.184178 213.942857 
L 144 218.332142 
L 144 256.628571 
L 144 266.520878 
z
" clip-path="url(#pc55c097047)" style="fill: #48039f"/>
    <path d="M 147.746653 299.314286 
L 158.639286 256.628571 
L 171.121092 213.942857 
L 186.815748 171.257143 
L 206.042348 128.571429 
L 215.424 110.352524 
L 232.282511 85.885714 
L 267.314336 43.2 
L 244.713117 43.2 
L 215.424 80.543818 
L 212.297772 85.885714 
L 190.576397 128.571429 
L 172.681806 171.257143 
L 158.152635 213.942857 
L 146.473365 256.628571 
L 144 266.520878 
L 144 299.314286 
L 144 315.33393 
z
" clip-path="url(#pc55c097047)" style="fill: #5102a3"/>
    <path d="M 149.028948 342 
L 159.23794 299.314286 
L 170.805206 256.628571 
L 184.089549 213.942857 
L 200.949689 171.257143 
L 215.424 140.418177 
L 222.83665 128.571429 
L 252.977322 85.885714 
L 286.848 46.468747 
L 290.013439 43.2 
L 286.848 43.2 
L 267.314336 43.2 
L 232.282511 85.885714 
L 215.424 110.352524 
L 206.042348 128.571429 
L 186.815748 171.257143 
L 171.121092 213.942857 
L 158.639286 256.628571 
L 147.746653 299.314286 
L 144 315.33393 
L 144 342 
L 144 367.952547 
z
" clip-path="url(#pc55c097047)" style="fill: #5901a5"/>
    <path d="M 144.575616 427.371429 
L 151.411827 384.685714 
L 160.026626 342 
L 170.729228 299.314286 
L 182.971127 256.628571 
L 197.058006 213.942857 
L 215.083631 171.257143 
L 215.424 170.531953 
L 241.679197 128.571429 
L 273.672132 85.885714 
L 286.848 70.552312 
L 313.335851 43.2 
L 290.013439 43.2 
L 286.848 46.468747 
L 252.977322 85.885714 
L 222.83665 128.571429 
L 215.424 140.418177 
L 200.949689 171.257143 
L 184.089549 213.942857 
L 170.805206 256.628571 
L 159.23794 299.314286 
L 149.028948 342 
L 144 367.952547 
L 144 384.685714 
L 144 427.371429 
L 144 432.165632 
z
" clip-path="url(#pc55c097047)" style="fill: #6300a7"/>
    <path d="M 144.032999 512.742857 
L 149.038495 470.057143 
L 154.509483 427.371429 
L 161.922549 384.685714 
L 171.024303 342 
L 182.220516 299.314286 
L 195.137047 256.628571 
L 210.026463 213.942857 
L 215.424 201.181051 
L 232.366247 171.257143 
L 260.521743 128.571429 
L 286.848 94.695044 
L 294.785296 85.885714 
L 336.658264 43.2 
L 313.335851 43.2 
L 286.848 70.552312 
L 273.672132 85.885714 
L 241.679197 128.571429 
L 215.424 170.531953 
L 215.083631 171.257143 
L 197.058006 213.942857 
L 182.971127 256.628571 
L 170.729228 299.314286 
L 160.026626 342 
L 151.411827 384.685714 
L 144.575616 427.371429 
L 144 432.165632 
L 144 470.057143 
L 144 512.742857 
L 144 513.088621 
z
" clip-path="url(#pc55c097047)" style="fill: #6a00a8"/>
    <path d="M 148.754792 598.114286 
L 148.711091 555.428571 
L 152.939865 512.742857 
L 158.334156 470.057143 
L 164.44335 427.371429 
L 172.433272 384.685714 
L 182.02198 342 
L 193.711804 299.314286 
L 207.302968 256.628571 
L 215.424 233.857623 
L 224.879786 213.942857 
L 249.726559 171.257143 
L 279.364289 128.571429 
L 286.848 118.941459 
L 316.631562 85.885714 
L 358.272 44.779976 
L 360.116508 43.2 
L 358.272 43.2 
L 336.658264 43.2 
L 294.785296 85.885714 
L 286.848 94.695044 
L 260.521743 128.571429 
L 232.366247 171.257143 
L 215.424 201.181051 
L 210.026463 213.942857 
L 195.137047 256.628571 
L 182.220516 299.314286 
L 171.024303 342 
L 161.922549 384.685714 
L 154.509483 427.371429 
L 149.038495 470.057143 
L 144.032999 512.742857 
L 144 513.088621 
L 144 555.428571 
L 144 598.114286 
L 144 640.8 
L 149.29606 640.8 
z
" clip-path="url(#pc55c097047)" style="fill: #7401a8"/>
    <path d="M 156.657785 598.114286 
L 157.334326 555.428571 
L 161.84673 512.742857 
L 167.629816 470.057143 
L 174.377217 427.371429 
L 182.943994 384.685714 
L 193.019657 342 
L 205.203092 299.314286 
L 215.424 268.243041 
L 220.388402 256.628571 
L 241.076885 213.942857 
L 267.086871 171.257143 
L 286.848 143.35051 
L 299.152175 128.571429 
L 338.477828 85.885714 
L 358.272 66.345717 
L 385.292955 43.2 
L 360.116508 43.2 
L 358.272 44.779976 
L 316.631562 85.885714 
L 286.848 118.941459 
L 279.364289 128.571429 
L 249.726559 171.257143 
L 224.879786 213.942857 
L 215.424 233.857623 
L 207.302968 256.628571 
L 193.711804 299.314286 
L 182.02198 342 
L 172.433272 384.685714 
L 164.44335 427.371429 
L 158.334156 470.057143 
L 152.939865 512.742857 
L 148.711091 555.428571 
L 148.754792 598.114286 
L 149.29606 640.8 
L 156.508339 640.8 
z
" clip-path="url(#pc55c097047)" style="fill: #7b02a8"/>
    <path d="M 164.560778 598.114286 
L 165.957561 555.428571 
L 170.753596 512.742857 
L 176.925477 470.057143 
L 184.311083 427.371429 
L 193.454716 384.685714 
L 204.017334 342 
L 215.424 303.425818 
L 216.958352 299.314286 
L 235.319969 256.628571 
L 257.273985 213.942857 
L 284.447183 171.257143 
L 286.848 167.866713 
L 319.562893 128.571429 
L 358.272 87.900148 
L 360.372697 85.885714 
L 410.469401 43.2 
L 385.292955 43.2 
L 358.272 66.345717 
L 338.477828 85.885714 
L 299.152175 128.571429 
L 286.848 143.35051 
L 267.086871 171.257143 
L 241.076885 213.942857 
L 220.388402 256.628571 
L 215.424 268.243041 
L 205.203092 299.314286 
L 193.019657 342 
L 182.943994 384.685714 
L 174.377217 427.371429 
L 167.629816 470.057143 
L 161.84673 512.742857 
L 157.334326 555.428571 
L 156.657785 598.114286 
L 156.508339 640.8 
L 163.720618 640.8 
z
" clip-path="url(#pc55c097047)" style="fill: #8405a7"/>
    <path d="M 172.463771 598.114286 
L 174.580796 555.428571 
L 179.660462 512.742857 
L 186.221137 470.057143 
L 194.24495 427.371429 
L 203.965439 384.685714 
L 215.015011 342 
L 215.424 340.616914 
L 230.837421 299.314286 
L 250.251537 256.628571 
L 273.471085 213.942857 
L 286.848 193.053054 
L 303.407753 171.257143 
L 339.97361 128.571429 
L 358.272 109.345489 
L 382.73638 85.885714 
L 429.696 47.51812 
L 436.574741 43.2 
L 429.696 43.2 
L 410.469401 43.2 
L 360.372697 85.885714 
L 358.272 87.900148 
L 319.562893 128.571429 
L 286.848 167.866713 
L 284.447183 171.257143 
L 257.273985 213.942857 
L 235.319969 256.628571 
L 216.958352 299.314286 
L 215.424 303.425818 
L 204.017334 342 
L 193.454716 384.685714 
L 184.311083 427.371429 
L 176.925477 470.057143 
L 170.753596 512.742857 
L 165.957561 555.428571 
L 164.560778 598.114286 
L 163.720618 640.8 
L 170.932897 640.8 
z
" clip-path="url(#pc55c097047)" style="fill: #8b0aa5"/>
    <path d="M 180.366764 598.114286 
L 183.204031 555.428571 
L 188.567328 512.742857 
L 195.516798 470.057143 
L 204.178817 427.371429 
L 214.476161 384.685714 
L 215.424 381.030099 
L 227.77095 342 
L 244.71649 299.314286 
L 265.183104 256.628571 
L 286.848 218.5164 
L 289.990203 213.942857 
L 322.625146 171.257143 
L 358.272 130.827123 
L 360.384305 128.571429 
L 405.100064 85.885714 
L 429.696 65.790004 
L 465.681752 43.2 
L 436.574741 43.2 
L 429.696 47.51812 
L 382.73638 85.885714 
L 358.272 109.345489 
L 339.97361 128.571429 
L 303.407753 171.257143 
L 286.848 193.053054 
L 273.471085 213.942857 
L 250.251537 256.628571 
L 230.837421 299.314286 
L 215.424 340.616914 
L 215.015011 342 
L 203.965439 384.685714 
L 194.24495 427.371429 
L 186.221137 470.057143 
L 179.660462 512.742857 
L 174.580796 555.428571 
L 172.463771 598.114286 
L 170.932897 640.8 
L 178.145176 640.8 
z
" clip-path="url(#pc55c097047)" style="fill: #920fa3"/>
    <path d="M 188.269757 598.114286 
L 191.827266 555.428571 
L 197.474193 512.742857 
L 204.812459 470.057143 
L 214.112684 427.371429 
L 215.424 421.962935 
L 226.125397 384.685714 
L 240.594802 342 
L 258.595559 299.314286 
L 280.114671 256.628571 
L 286.848 244.783521 
L 308.036742 213.942857 
L 341.842538 171.257143 
L 358.272 152.623143 
L 380.7948 128.571429 
L 427.463747 85.885714 
L 429.696 84.061888 
L 494.788762 43.2 
L 465.681752 43.2 
L 429.696 65.790004 
L 405.100064 85.885714 
L 360.384305 128.571429 
L 358.272 130.827123 
L 322.625146 171.257143 
L 289.990203 213.942857 
L 286.848 218.5164 
L 265.183104 256.628571 
L 244.71649 299.314286 
L 227.77095 342 
L 215.424 381.030099 
L 214.476161 384.685714 
L 204.178817 427.371429 
L 195.516798 470.057143 
L 188.567328 512.742857 
L 183.204031 555.428571 
L 180.366764 598.114286 
L 178.145176 640.8 
L 185.357455 640.8 
z
" clip-path="url(#pc55c097047)" style="fill: #9a169f"/>
    <path d="M 196.17275 598.114286 
L 200.450501 555.428571 
L 206.381059 512.742857 
L 214.108119 470.057143 
L 215.424 464.071796 
L 224.929736 427.371429 
L 237.887478 384.685714 
L 253.418654 342 
L 272.474628 299.314286 
L 286.848 271.418263 
L 296.068651 256.628571 
L 326.083282 213.942857 
L 358.272 174.467845 
L 361.018141 171.257143 
L 401.205296 128.571429 
L 429.696 102.620838 
L 453.051151 85.885714 
L 501.12 55.874826 
L 526.479913 43.2 
L 501.12 43.2 
L 494.788762 43.2 
L 429.696 84.061888 
L 427.463747 85.885714 
L 380.7948 128.571429 
L 358.272 152.623143 
L 341.842538 171.257143 
L 308.036742 213.942857 
L 286.848 244.783521 
L 280.114671 256.628571 
L 258.595559 299.314286 
L 240.594802 342 
L 226.125397 384.685714 
L 215.424 421.962935 
L 214.112684 427.371429 
L 204.812459 470.057143 
L 197.474193 512.742857 
L 191.827266 555.428571 
L 188.269757 598.114286 
L 185.357455 640.8 
L 192.569734 640.8 
z
" clip-path="url(#pc55c097047)" style="fill: #a11b9b"/>
    <path d="M 204.075743 598.114286 
L 209.073736 555.428571 
L 215.287925 512.742857 
L 215.424 511.996469 
L 224.309527 470.057143 
L 235.881102 427.371429 
L 249.649559 384.685714 
L 266.242506 342 
L 286.353698 299.314286 
L 286.848 298.354937 
L 312.862352 256.628571 
L 344.129822 213.942857 
L 358.272 196.599431 
L 379.947471 171.257143 
L 421.615792 128.571429 
L 429.696 121.211619 
L 478.996013 85.885714 
L 501.12 72.073016 
L 558.889406 43.2 
L 526.479913 43.2 
L 501.12 55.874826 
L 453.051151 85.885714 
L 429.696 102.620838 
L 401.205296 128.571429 
L 361.018141 171.257143 
L 358.272 174.467845 
L 326.083282 213.942857 
L 296.068651 256.628571 
L 286.848 271.418263 
L 272.474628 299.314286 
L 253.418654 342 
L 237.887478 384.685714 
L 224.929736 427.371429 
L 215.424 464.071796 
L 214.108119 470.057143 
L 206.381059 512.742857 
L 200.450501 555.428571 
L 196.17275 598.114286 
L 192.569734 640.8 
L 199.782013 640.8 
z
" clip-path="url(#pc55c097047)" style="fill: #a82296"/>
    <path d="M 211.978736 598.114286 
L 215.424 571.512764 
L 217.852278 555.428571 
L 225.108697 512.742857 
L 234.660294 470.057143 
L 246.832469 427.371429 
L 261.41164 384.685714 
L 279.066357 342 
L 286.848 325.514383 
L 302.023905 299.314286 
L 329.656053 256.628571 
L 358.272 218.751974 
L 362.183166 213.942857 
L 398.876802 171.257143 
L 429.696 140.123571 
L 443.889162 128.571429 
L 501.12 88.319211 
L 505.318971 85.885714 
L 572.544 51.612075 
L 595.389371 43.2 
L 572.544 43.2 
L 558.889406 43.2 
L 501.12 72.073016 
L 478.996013 85.885714 
L 429.696 121.211619 
L 421.615792 128.571429 
L 379.947471 171.257143 
L 358.272 196.599431 
L 344.129822 213.942857 
L 312.862352 256.628571 
L 286.848 298.354937 
L 286.353698 299.314286 
L 266.242506 342 
L 249.649559 384.685714 
L 235.881102 427.371429 
L 224.309527 470.057143 
L 215.424 511.996469 
L 215.287925 512.742857 
L 209.073736 555.428571 
L 204.075743 598.114286 
L 199.782013 640.8 
L 206.994292 640.8 
z
" clip-path="url(#pc55c097047)" style="fill: #ae2892"/>
    <path d="M 215.424 630.968144 
L 220.34423 598.114286 
L 227.064717 555.428571 
L 234.943648 512.742857 
L 245.011061 470.057143 
L 257.783836 427.371429 
L 273.173721 384.685714 
L 286.848 352.788014 
L 292.714142 342 
L 317.76026 299.314286 
L 346.449754 256.628571 
L 358.272 240.980428 
L 380.261157 213.942857 
L 417.806132 171.257143 
L 429.696 159.245991 
L 467.383298 128.571429 
L 501.12 104.843363 
L 533.831215 85.885714 
L 572.544 66.1486 
L 634.867421 43.2 
L 595.389371 43.2 
L 572.544 51.612075 
L 505.318971 85.885714 
L 501.12 88.319211 
L 443.889162 128.571429 
L 429.696 140.123571 
L 398.876802 171.257143 
L 362.183166 213.942857 
L 358.272 218.751974 
L 329.656053 256.628571 
L 302.023905 299.314286 
L 286.848 325.514383 
L 279.066357 342 
L 261.41164 384.685714 
L 246.832469 427.371429 
L 234.660294 470.057143 
L 225.108697 512.742857 
L 217.852278 555.428571 
L 215.424 571.512764 
L 211.978736 598.114286 
L 206.994292 640.8 
L 214.206571 640.8 
z
" clip-path="url(#pc55c097047)" style="fill: #b52f8c"/>
    <path d="M 215.424 640.8 
L 222.513289 640.8 
L 229.06718 598.114286 
L 236.277157 555.428571 
L 244.7786 512.742857 
L 255.361828 470.057143 
L 268.735203 427.371429 
L 284.935802 384.685714 
L 286.848 380.225172 
L 307.633501 342 
L 333.496614 299.314286 
L 358.272 263.384374 
L 363.45116 256.628571 
L 398.339148 213.942857 
L 429.696 178.793184 
L 437.644229 171.257143 
L 490.877434 128.571429 
L 501.12 121.367515 
L 562.343458 85.885714 
L 572.544 80.685126 
L 643.968 53.188443 
L 678.88216 43.2 
L 643.968 43.2 
L 634.867421 43.2 
L 572.544 66.1486 
L 533.831215 85.885714 
L 501.12 104.843363 
L 467.383298 128.571429 
L 429.696 159.245991 
L 417.806132 171.257143 
L 380.261157 213.942857 
L 358.272 240.980428 
L 346.449754 256.628571 
L 317.76026 299.314286 
L 292.714142 342 
L 286.848 352.788014 
L 273.173721 384.685714 
L 257.783836 427.371429 
L 245.011061 470.057143 
L 234.943648 512.742857 
L 227.064717 555.428571 
L 220.34423 598.114286 
L 215.424 630.968144 
L 214.206571 640.8 
z
" clip-path="url(#pc55c097047)" style="fill: #bb3488"/>
    <path d="M 237.790129 598.114286 
L 245.489597 555.428571 
L 254.613551 512.742857 
L 265.712595 470.057143 
L 279.686569 427.371429 
L 286.848 408.654597 
L 298.806172 384.685714 
L 322.552861 342 
L 349.232969 299.314286 
L 358.272 286.205647 
L 380.946495 256.628571 
L 416.41714 213.942857 
L 429.696 199.05783 
L 459.01726 171.257143 
L 501.12 138.072979 
L 515.584531 128.571429 
L 572.544 95.45999 
L 593.769605 85.885714 
L 643.968 66.169255 
L 715.392 45.533645 
L 725.814542 43.2 
L 715.392 43.2 
L 678.88216 43.2 
L 643.968 53.188443 
L 572.544 80.685126 
L 562.343458 85.885714 
L 501.12 121.367515 
L 490.877434 128.571429 
L 437.644229 171.257143 
L 429.696 178.793184 
L 398.339148 213.942857 
L 363.45116 256.628571 
L 358.272 263.384374 
L 333.496614 299.314286 
L 307.633501 342 
L 286.848 380.225172 
L 284.935802 384.685714 
L 268.735203 427.371429 
L 255.361828 470.057143 
L 244.7786 512.742857 
L 236.277157 555.428571 
L 229.06718 598.114286 
L 222.513289 640.8 
L 231.042266 640.8 
z
" clip-path="url(#pc55c097047)" style="fill: #c13b82"/>
    <path d="M 246.513078 598.114286 
L 254.702036 555.428571 
L 264.448502 512.742857 
L 276.063362 470.057143 
L 286.848 438.014351 
L 291.56717 427.371429 
L 313.085831 384.685714 
L 337.47222 342 
L 358.272 309.297485 
L 365.412867 299.314286 
L 398.44183 256.628571 
L 429.696 219.465405 
L 434.846146 213.942857 
L 480.390292 171.257143 
L 501.12 154.918585 
L 541.229165 128.571429 
L 572.544 110.367621 
L 626.818945 85.885714 
L 643.968 79.150068 
L 715.392 57.479304 
L 779.166323 43.2 
L 725.814542 43.2 
L 715.392 45.533645 
L 643.968 66.169255 
L 593.769605 85.885714 
L 572.544 95.45999 
L 515.584531 128.571429 
L 501.12 138.072979 
L 459.01726 171.257143 
L 429.696 199.05783 
L 416.41714 213.942857 
L 380.946495 256.628571 
L 358.272 286.205647 
L 349.232969 299.314286 
L 322.552861 342 
L 298.806172 384.685714 
L 286.848 408.654597 
L 279.686569 427.371429 
L 265.712595 470.057143 
L 254.613551 512.742857 
L 245.489597 555.428571 
L 237.790129 598.114286 
L 231.042266 640.8 
L 239.571243 640.8 
z
" clip-path="url(#pc55c097047)" style="fill: #c6417d"/>
    <path d="M 255.236028 598.114286 
L 263.914476 555.428571 
L 274.283453 512.742857 
L 286.414129 470.057143 
L 286.848 468.768046 
L 305.203644 427.371429 
L 327.365491 384.685714 
L 352.391579 342 
L 358.272 332.754491 
L 382.191392 299.314286 
L 415.937165 256.628571 
L 429.696 240.268454 
L 454.246385 213.942857 
L 501.12 171.78237 
L 501.828203 171.257143 
L 566.873799 128.571429 
L 572.544 125.275251 
L 643.968 92.331169 
L 662.451701 85.885714 
L 715.392 69.424962 
L 786.816 52.626554 
L 840.140781 43.2 
L 786.816 43.2 
L 779.166323 43.2 
L 715.392 57.479304 
L 643.968 79.150068 
L 626.818945 85.885714 
L 572.544 110.367621 
L 541.229165 128.571429 
L 501.12 154.918585 
L 480.390292 171.257143 
L 434.846146 213.942857 
L 429.696 219.465405 
L 398.44183 256.628571 
L 365.412867 299.314286 
L 358.272 309.297485 
L 337.47222 342 
L 313.085831 384.685714 
L 291.56717 427.371429 
L 286.848 438.014351 
L 276.063362 470.057143 
L 264.448502 512.742857 
L 254.702036 555.428571 
L 246.513078 598.114286 
L 239.571243 640.8 
L 248.100219 640.8 
z
" clip-path="url(#pc55c097047)" style="fill: #cc4778"/>
    <path d="M 263.958977 598.114286 
L 273.126916 555.428571 
L 284.118404 512.742857 
L 286.848 503.154979 
L 299.193318 470.057143 
L 318.840118 427.371429 
L 341.645151 384.685714 
L 358.272 356.609021 
L 367.99281 342 
L 398.969917 299.314286 
L 429.696 261.086825 
L 433.514378 256.628571 
L 473.646624 213.942857 
L 501.12 189.231921 
L 525.356723 171.257143 
L 572.544 140.511981 
L 594.940259 128.571429 
L 643.968 105.728288 
L 700.870768 85.885714 
L 715.392 81.370621 
L 786.816 63.630937 
L 858.24 50.51424 
L 858.24 43.2 
L 840.140781 43.2 
L 786.816 52.626554 
L 715.392 69.424962 
L 662.451701 85.885714 
L 643.968 92.331169 
L 572.544 125.275251 
L 566.873799 128.571429 
L 501.828203 171.257143 
L 501.12 171.78237 
L 454.246385 213.942857 
L 429.696 240.268454 
L 415.937165 256.628571 
L 382.191392 299.314286 
L 358.272 332.754491 
L 352.391579 342 
L 327.365491 384.685714 
L 305.203644 427.371429 
L 286.848 468.768046 
L 286.414129 470.057143 
L 274.283453 512.742857 
L 263.914476 555.428571 
L 255.236028 598.114286 
L 248.100219 640.8 
L 256.629196 640.8 
z
" clip-path="url(#pc55c097047)" style="fill: #d04d73"/>
    <path d="M 272.681926 598.114286 
L 282.339355 555.428571 
L 286.848 538.190107 
L 295.614582 512.742857 
L 312.078752 470.057143 
L 332.476592 427.371429 
L 355.924811 384.685714 
L 358.272 380.722166 
L 384.037643 342 
L 415.748443 299.314286 
L 429.696 281.961611 
L 451.393091 256.628571 
L 493.046863 213.942857 
L 501.12 206.681472 
L 548.885243 171.257143 
L 572.544 155.842134 
L 623.694209 128.571429 
L 643.968 119.125408 
L 715.392 93.603748 
L 742.40993 85.885714 
L 786.816 74.63532 
L 858.24 60.826864 
L 858.24 50.51424 
L 786.816 63.630937 
L 715.392 81.370621 
L 700.870768 85.885714 
L 643.968 105.728288 
L 594.940259 128.571429 
L 572.544 140.511981 
L 525.356723 171.257143 
L 501.12 189.231921 
L 473.646624 213.942857 
L 433.514378 256.628571 
L 429.696 261.086825 
L 398.969917 299.314286 
L 367.99281 342 
L 358.272 356.609021 
L 341.645151 384.685714 
L 318.840118 427.371429 
L 299.193318 470.057143 
L 286.848 503.154979 
L 284.118404 512.742857 
L 273.126916 555.428571 
L 263.958977 598.114286 
L 256.629196 640.8 
L 265.158173 640.8 
z
" clip-path="url(#pc55c097047)" style="fill: #d5536f"/>
    <path d="M 281.404876 598.114286 
L 286.848 574.638092 
L 292.754664 555.428571 
L 307.748938 512.742857 
L 324.964186 470.057143 
L 346.113066 427.371429 
L 358.272 405.336357 
L 371.202898 384.685714 
L 400.082476 342 
L 429.696 302.889632 
L 432.544384 299.314286 
L 469.271803 256.628571 
L 501.12 224.480035 
L 513.851858 213.942857 
L 572.413763 171.257143 
L 572.544 171.172286 
L 643.968 132.664899 
L 653.936413 128.571429 
L 715.392 106.011551 
L 785.844979 85.885714 
L 786.816 85.639704 
L 858.24 71.139488 
L 858.24 60.826864 
L 786.816 74.63532 
L 742.40993 85.885714 
L 715.392 93.603748 
L 643.968 119.125408 
L 623.694209 128.571429 
L 572.544 155.842134 
L 548.885243 171.257143 
L 501.12 206.681472 
L 493.046863 213.942857 
L 451.393091 256.628571 
L 429.696 281.961611 
L 415.748443 299.314286 
L 384.037643 342 
L 358.272 380.722166 
L 355.924811 384.685714 
L 332.476592 427.371429 
L 312.078752 470.057143 
L 295.614582 512.742857 
L 286.848 538.190107 
L 282.339355 555.428571 
L 272.681926 598.114286 
L 265.158173 640.8 
L 273.687149 640.8 
z
" clip-path="url(#pc55c097047)" style="fill: #da5a6a"/>
    <path d="M 286.848 615.577297 
L 291.062222 598.114286 
L 304.322937 555.428571 
L 319.883293 512.742857 
L 337.84962 470.057143 
L 358.272 430.102877 
L 359.906334 427.371429 
L 386.677382 384.685714 
L 416.127308 342 
L 429.696 324.079927 
L 449.426132 299.314286 
L 487.150515 256.628571 
L 501.12 242.52735 
L 535.65806 213.942857 
L 572.544 187.061109 
L 598.140709 171.257143 
L 643.968 146.544762 
L 687.736633 128.571429 
L 715.392 118.419354 
L 786.816 97.188066 
L 836.424586 85.885714 
L 858.24 81.452113 
L 858.24 71.139488 
L 786.816 85.639704 
L 785.844979 85.885714 
L 715.392 106.011551 
L 653.936413 128.571429 
L 643.968 132.664899 
L 572.544 171.172286 
L 572.413763 171.257143 
L 513.851858 213.942857 
L 501.12 224.480035 
L 469.271803 256.628571 
L 432.544384 299.314286 
L 429.696 302.889632 
L 400.082476 342 
L 371.202898 384.685714 
L 358.272 405.336357 
L 346.113066 427.371429 
L 324.964186 470.057143 
L 307.748938 512.742857 
L 292.754664 555.428571 
L 286.848 574.638092 
L 281.404876 598.114286 
L 273.687149 640.8 
L 282.216126 640.8 
z
" clip-path="url(#pc55c097047)" style="fill: #de5f65"/>
    <path d="M 286.848 640.8 
L 291.740243 640.8 
L 302.270274 598.114286 
L 315.89121 555.428571 
L 332.017648 512.742857 
L 350.735054 470.057143 
L 358.272 455.311891 
L 374.989881 427.371429 
L 402.151867 384.685714 
L 429.696 345.405646 
L 432.200128 342 
L 466.30788 299.314286 
L 501.12 260.720764 
L 505.602643 256.628571 
L 557.464263 213.942857 
L 572.544 202.953041 
L 623.879892 171.257143 
L 643.968 160.424624 
L 715.392 130.939535 
L 722.238967 128.571429 
L 786.816 108.748868 
L 858.24 92.152481 
L 858.24 85.885714 
L 858.24 81.452113 
L 836.424586 85.885714 
L 786.816 97.188066 
L 715.392 118.419354 
L 687.736633 128.571429 
L 643.968 146.544762 
L 598.140709 171.257143 
L 572.544 187.061109 
L 535.65806 213.942857 
L 501.12 242.52735 
L 487.150515 256.628571 
L 449.426132 299.314286 
L 429.696 324.079927 
L 416.127308 342 
L 386.677382 384.685714 
L 359.906334 427.371429 
L 358.272 430.102877 
L 337.84962 470.057143 
L 319.883293 512.742857 
L 304.322937 555.428571 
L 291.062222 598.114286 
L 286.848 615.577297 
L 282.216126 640.8 
z
" clip-path="url(#pc55c097047)" style="fill: #e26660"/>
    <path d="M 313.478325 598.114286 
L 327.459483 555.428571 
L 344.152003 512.742857 
L 358.272 481.280169 
L 364.500568 470.057143 
L 390.073429 427.371429 
L 417.626351 384.685714 
L 429.696 367.47346 
L 448.42631 342 
L 483.189627 299.314286 
L 501.12 279.43626 
L 526.10385 256.628571 
L 572.544 219.058858 
L 579.913087 213.942857 
L 643.968 174.487817 
L 650.742552 171.257143 
L 715.392 143.965483 
L 759.901219 128.571429 
L 786.816 120.30967 
L 858.24 103.145264 
L 858.24 92.152481 
L 786.816 108.748868 
L 722.238967 128.571429 
L 715.392 130.939535 
L 643.968 160.424624 
L 623.879892 171.257143 
L 572.544 202.953041 
L 557.464263 213.942857 
L 505.602643 256.628571 
L 501.12 260.720764 
L 466.30788 299.314286 
L 432.200128 342 
L 429.696 345.405646 
L 402.151867 384.685714 
L 374.989881 427.371429 
L 358.272 455.311891 
L 350.735054 470.057143 
L 332.017648 512.742857 
L 315.89121 555.428571 
L 302.270274 598.114286 
L 291.740243 640.8 
L 302.447125 640.8 
z
" clip-path="url(#pc55c097047)" style="fill: #e66c5c"/>
    <path d="M 324.686376 598.114286 
L 339.027756 555.428571 
L 356.286359 512.742857 
L 358.272 508.318379 
L 379.506265 470.057143 
L 405.156977 427.371429 
L 429.696 389.771037 
L 433.287362 384.685714 
L 464.652493 342 
L 500.071375 299.314286 
L 501.12 298.151756 
L 546.605057 256.628571 
L 572.544 235.644172 
L 603.802572 213.942857 
L 643.968 189.202701 
L 681.598876 171.257143 
L 715.392 156.99143 
L 786.816 132.135544 
L 799.567809 128.571429 
L 858.24 114.138046 
L 858.24 103.145264 
L 786.816 120.30967 
L 759.901219 128.571429 
L 715.392 143.965483 
L 650.742552 171.257143 
L 643.968 174.487817 
L 579.913087 213.942857 
L 572.544 219.058858 
L 526.10385 256.628571 
L 501.12 279.43626 
L 483.189627 299.314286 
L 448.42631 342 
L 429.696 367.47346 
L 417.626351 384.685714 
L 390.073429 427.371429 
L 364.500568 470.057143 
L 358.272 481.280169 
L 344.152003 512.742857 
L 327.459483 555.428571 
L 313.478325 598.114286 
L 302.447125 640.8 
L 313.154008 640.8 
z
" clip-path="url(#pc55c097047)" style="fill: #ea7457"/>
    <path d="M 335.894428 598.114286 
L 350.596029 555.428571 
L 358.272 536.544942 
L 371.012185 512.742857 
L 394.511963 470.057143 
L 420.240525 427.371429 
L 429.696 412.883095 
L 449.609582 384.685714 
L 480.878675 342 
L 501.12 317.63381 
L 519.521896 299.314286 
L 567.106264 256.628571 
L 572.544 252.229486 
L 627.692057 213.942857 
L 643.968 203.917584 
L 712.4552 171.257143 
L 715.392 170.017378 
L 786.816 144.625236 
L 844.253842 128.571429 
L 858.24 125.130828 
L 858.24 114.138046 
L 799.567809 128.571429 
L 786.816 132.135544 
L 715.392 156.99143 
L 681.598876 171.257143 
L 643.968 189.202701 
L 603.802572 213.942857 
L 572.544 235.644172 
L 546.605057 256.628571 
L 501.12 298.151756 
L 500.071375 299.314286 
L 464.652493 342 
L 433.287362 384.685714 
L 429.696 389.771037 
L 405.156977 427.371429 
L 379.506265 470.057143 
L 358.272 508.318379 
L 356.286359 512.742857 
L 339.027756 555.428571 
L 324.686376 598.114286 
L 313.154008 640.8 
L 323.860891 640.8 
z
" clip-path="url(#pc55c097047)" style="fill: #ed7a52"/>
    <path d="M 347.102479 598.114286 
L 358.272 566.202697 
L 363.516804 555.428571 
L 386.245044 512.742857 
L 409.51766 470.057143 
L 429.696 436.643066 
L 436.076689 427.371429 
L 465.931802 384.685714 
L 497.104857 342 
L 501.12 337.166634 
L 539.142546 299.314286 
L 572.544 269.49775 
L 589.49042 256.628571 
L 643.968 219.017548 
L 653.27224 213.942857 
L 715.392 183.993033 
L 747.116029 171.257143 
L 786.816 157.114928 
L 858.24 136.970473 
L 858.24 128.571429 
L 858.24 125.130828 
L 844.253842 128.571429 
L 786.816 144.625236 
L 715.392 170.017378 
L 712.4552 171.257143 
L 643.968 203.917584 
L 627.692057 213.942857 
L 572.544 252.229486 
L 567.106264 256.628571 
L 519.521896 299.314286 
L 501.12 317.63381 
L 480.878675 342 
L 449.609582 384.685714 
L 429.696 412.883095 
L 420.240525 427.371429 
L 394.511963 470.057143 
L 371.012185 512.742857 
L 358.272 536.544942 
L 350.596029 555.428571 
L 335.894428 598.114286 
L 323.860891 640.8 
L 334.567774 640.8 
z
" clip-path="url(#pc55c097047)" style="fill: #f1814d"/>
    <path d="M 358.272 598.234828 
L 358.326407 598.114286 
L 379.104835 555.428571 
L 401.477903 512.742857 
L 424.523358 470.057143 
L 429.696 461.491569 
L 453.177289 427.371429 
L 482.254023 384.685714 
L 501.12 358.83255 
L 516.06757 342 
L 558.763195 299.314286 
L 572.544 287.01255 
L 612.554299 256.628571 
L 643.968 234.940724 
L 682.466737 213.942857 
L 715.392 198.068587 
L 782.177045 171.257143 
L 786.816 169.60462 
L 858.24 149.19593 
L 858.24 136.970473 
L 786.816 157.114928 
L 747.116029 171.257143 
L 715.392 183.993033 
L 653.27224 213.942857 
L 643.968 219.017548 
L 589.49042 256.628571 
L 572.544 269.49775 
L 539.142546 299.314286 
L 501.12 337.166634 
L 497.104857 342 
L 465.931802 384.685714 
L 436.076689 427.371429 
L 429.696 436.643066 
L 409.51766 470.057143 
L 386.245044 512.742857 
L 363.516804 555.428571 
L 358.272 566.202697 
L 347.102479 598.114286 
L 334.567774 640.8 
L 345.274656 640.8 
z
" clip-path="url(#pc55c097047)" style="fill: #f48849"/>
    <path d="M 358.272 633.29894 
L 374.15258 598.114286 
L 394.692866 555.428571 
L 416.710763 512.742857 
L 429.696 488.609077 
L 441.474861 470.057143 
L 470.277889 427.371429 
L 498.576243 384.685714 
L 501.12 381.199854 
L 535.930089 342 
L 572.544 305.248359 
L 579.549064 299.314286 
L 635.618178 256.628571 
L 643.968 250.8639 
L 711.661233 213.942857 
L 715.392 212.144141 
L 786.816 183.430999 
L 823.876811 171.257143 
L 858.24 161.421386 
L 858.24 149.19593 
L 786.816 169.60462 
L 782.177045 171.257143 
L 715.392 198.068587 
L 682.466737 213.942857 
L 643.968 234.940724 
L 612.554299 256.628571 
L 572.544 287.01255 
L 558.763195 299.314286 
L 516.06757 342 
L 501.12 358.83255 
L 482.254023 384.685714 
L 453.177289 427.371429 
L 429.696 461.491569 
L 424.523358 470.057143 
L 401.477903 512.742857 
L 379.104835 555.428571 
L 358.326407 598.114286 
L 358.272 598.234828 
L 345.274656 640.8 
L 355.981539 640.8 
z
" clip-path="url(#pc55c097047)" style="fill: #f68f44"/>
    <path d="M 358.272 640.8 
L 370.909614 640.8 
L 389.978754 598.114286 
L 410.280897 555.428571 
L 429.696 517.264052 
L 432.420945 512.742857 
L 459.449948 470.057143 
L 487.378489 427.371429 
L 501.12 406.554263 
L 517.853429 384.685714 
L 555.792607 342 
L 572.544 325.185594 
L 603.084605 299.314286 
L 643.968 268.094461 
L 662.39858 256.628571 
L 715.392 227.698642 
L 745.826127 213.942857 
L 786.816 197.461204 
L 858.24 173.96661 
L 858.24 171.257143 
L 858.24 161.421386 
L 823.876811 171.257143 
L 786.816 183.430999 
L 715.392 212.144141 
L 711.661233 213.942857 
L 643.968 250.8639 
L 635.618178 256.628571 
L 579.549064 299.314286 
L 572.544 305.248359 
L 535.930089 342 
L 501.12 381.199854 
L 498.576243 384.685714 
L 470.277889 427.371429 
L 441.474861 470.057143 
L 429.696 488.609077 
L 416.710763 512.742857 
L 394.692866 555.428571 
L 374.15258 598.114286 
L 358.272 633.29894 
L 355.981539 640.8 
z
" clip-path="url(#pc55c097047)" style="fill: #f9973f"/>
    <path d="M 405.804927 598.114286 
L 425.868927 555.428571 
L 429.696 547.905645 
L 450.88878 512.742857 
L 477.425034 470.057143 
L 501.12 432.907256 
L 504.966481 427.371429 
L 537.676156 384.685714 
L 572.544 345.490256 
L 576.276741 342 
L 626.620145 299.314286 
L 643.968 286.066928 
L 691.288006 256.628571 
L 715.392 243.469827 
L 780.719248 213.942857 
L 786.816 211.491409 
L 858.24 187.827958 
L 858.24 173.96661 
L 786.816 197.461204 
L 745.826127 213.942857 
L 715.392 227.698642 
L 662.39858 256.628571 
L 643.968 268.094461 
L 603.084605 299.314286 
L 572.544 325.185594 
L 555.792607 342 
L 517.853429 384.685714 
L 501.12 406.554263 
L 487.378489 427.371429 
L 459.449948 470.057143 
L 432.420945 512.742857 
L 429.696 517.264052 
L 410.280897 555.428571 
L 389.978754 598.114286 
L 370.909614 640.8 
L 386.986453 640.8 
z
" clip-path="url(#pc55c097047)" style="fill: #fa9e3b"/>
    <path d="M 421.631101 598.114286 
L 429.696 580.906247 
L 444.179805 555.428571 
L 469.356615 512.742857 
L 495.400121 470.057143 
L 501.12 461.089295 
L 524.548319 427.371429 
L 557.498884 384.685714 
L 572.544 367.773277 
L 600.107872 342 
L 643.968 304.649751 
L 651.483538 299.314286 
L 715.392 259.573131 
L 721.212796 256.628571 
L 786.816 227.027888 
L 821.300852 213.942857 
L 858.24 201.689307 
L 858.24 187.827958 
L 786.816 211.491409 
L 780.719248 213.942857 
L 715.392 243.469827 
L 691.288006 256.628571 
L 643.968 286.066928 
L 626.620145 299.314286 
L 576.276741 342 
L 572.544 345.490256 
L 537.676156 384.685714 
L 504.966481 427.371429 
L 501.12 432.907256 
L 477.425034 470.057143 
L 450.88878 512.742857 
L 429.696 547.905645 
L 425.868927 555.428571 
L 405.804927 598.114286 
L 386.986453 640.8 
L 403.063291 640.8 
z
" clip-path="url(#pc55c097047)" style="fill: #fca636"/>
    <path d="M 429.696 616.364908 
L 439.569481 598.114286 
L 463.376711 555.428571 
L 487.82445 512.742857 
L 501.12 490.819249 
L 514.579896 470.057143 
L 544.130157 427.371429 
L 572.544 390.765908 
L 578.442518 384.685714 
L 623.939002 342 
L 643.968 324.943779 
L 680.06971 299.314286 
L 715.392 277.349297 
L 756.352667 256.628571 
L 786.816 242.883275 
L 858.24 215.814564 
L 858.24 213.942857 
L 858.24 201.689307 
L 821.300852 213.942857 
L 786.816 227.027888 
L 721.212796 256.628571 
L 715.392 259.573131 
L 651.483538 299.314286 
L 643.968 304.649751 
L 600.107872 342 
L 572.544 367.773277 
L 557.498884 384.685714 
L 524.548319 427.371429 
L 501.12 461.089295 
L 495.400121 470.057143 
L 469.356615 512.742857 
L 444.179805 555.428571 
L 429.696 580.906247 
L 421.631101 598.114286 
L 403.063291 640.8 
L 419.14013 640.8 
z
" clip-path="url(#pc55c097047)" style="fill: #fdae32"/>
    <path d="M 429.696 640.8 
L 437.049698 640.8 
L 459.702697 598.114286 
L 482.573616 555.428571 
L 501.12 522.336137 
L 506.878133 512.742857 
L 534.321934 470.057143 
L 563.711995 427.371429 
L 572.544 415.993167 
L 602.915986 384.685714 
L 643.968 345.707379 
L 648.601395 342 
L 708.655881 299.314286 
L 715.392 295.125464 
L 786.816 259.102238 
L 792.533962 256.628571 
L 858.24 231.951146 
L 858.24 215.814564 
L 786.816 242.883275 
L 756.352667 256.628571 
L 715.392 277.349297 
L 680.06971 299.314286 
L 643.968 324.943779 
L 623.939002 342 
L 578.442518 384.685714 
L 572.544 390.765908 
L 544.130157 427.371429 
L 514.579896 470.057143 
L 501.12 490.819249 
L 487.82445 512.742857 
L 463.376711 555.428571 
L 439.569481 598.114286 
L 429.696 616.364908 
L 419.14013 640.8 
z
" clip-path="url(#pc55c097047)" style="fill: #feb72d"/>
    <path d="M 479.835914 598.114286 
L 501.12 556.754342 
L 501.886857 555.428571 
L 527.43776 512.742857 
L 554.063972 470.057143 
L 572.544 443.15086 
L 586.605641 427.371429 
L 627.389454 384.685714 
L 643.968 368.944608 
L 677.642737 342 
L 715.392 315.120455 
L 743.711488 299.314286 
L 786.816 277.689559 
L 835.499175 256.628571 
L 858.24 248.087728 
L 858.24 231.951146 
L 792.533962 256.628571 
L 786.816 259.102238 
L 715.392 295.125464 
L 708.655881 299.314286 
L 648.601395 342 
L 643.968 345.707379 
L 602.915986 384.685714 
L 572.544 415.993167 
L 563.711995 427.371429 
L 534.321934 470.057143 
L 506.878133 512.742857 
L 501.12 522.336137 
L 482.573616 555.428571 
L 459.702697 598.114286 
L 437.049698 640.8 
L 458.463375 640.8 
z
M 858.24 640.8 
L 858.24 636.151867 
L 852.777576 640.8 
z
" clip-path="url(#pc55c097047)" style="fill: #febe2a"/>
    <path d="M 499.96913 598.114286 
L 501.12 595.877877 
L 524.516841 555.428571 
L 547.997387 512.742857 
L 572.544 472.226472 
L 574.308185 470.057143 
L 612.22025 427.371429 
L 643.968 393.501184 
L 653.934393 384.685714 
L 706.684079 342 
L 715.392 335.799483 
L 780.761547 299.314286 
L 786.816 296.27688 
L 858.24 266.029137 
L 858.24 256.628571 
L 858.24 248.087728 
L 835.499175 256.628571 
L 786.816 277.689559 
L 743.711488 299.314286 
L 715.392 315.120455 
L 677.642737 342 
L 643.968 368.944608 
L 627.389454 384.685714 
L 586.605641 427.371429 
L 572.544 443.15086 
L 554.063972 470.057143 
L 527.43776 512.742857 
L 501.886857 555.428571 
L 501.12 556.754342 
L 479.835914 598.114286 
L 458.463375 640.8 
L 479.877051 640.8 
z
M 858.24 636.151867 
L 858.24 617.672472 
L 831.060836 640.8 
L 852.777576 640.8 
z
" clip-path="url(#pc55c097047)" style="fill: #fdc827"/>
    <path d="M 501.12 640.8 
L 501.375718 640.8 
L 526.057236 598.114286 
L 547.146824 555.428571 
L 568.557014 512.742857 
L 572.544 506.16198 
L 601.905891 470.057143 
L 637.834859 427.371429 
L 643.968 420.828257 
L 684.829215 384.685714 
L 715.392 359.690579 
L 744.068845 342 
L 786.816 318.306384 
L 826.564084 299.314286 
L 858.24 285.999942 
L 858.24 266.029137 
L 786.816 296.27688 
L 780.761547 299.314286 
L 715.392 335.799483 
L 706.684079 342 
L 653.934393 384.685714 
L 643.968 393.501184 
L 612.22025 427.371429 
L 574.308185 470.057143 
L 572.544 472.226472 
L 547.997387 512.742857 
L 524.516841 555.428571 
L 501.12 595.877877 
L 499.96913 598.114286 
L 479.877051 640.8 
z
M 858.24 617.672472 
L 858.24 599.193076 
L 809.344095 640.8 
L 831.060836 640.8 
z
" clip-path="url(#pc55c097047)" style="fill: #fcd025"/>
    <path d="M 552.506377 598.114286 
L 569.776807 555.428571 
L 572.544 549.806158 
L 597.443726 512.742857 
L 629.503597 470.057143 
L 643.968 452.642437 
L 670.387676 427.371429 
L 715.392 385.036899 
L 715.90464 384.685714 
L 785.026735 342 
L 786.816 341.008258 
L 858.24 308.152866 
L 858.24 299.314286 
L 858.24 285.999942 
L 826.564084 299.314286 
L 786.816 318.306384 
L 744.068845 342 
L 715.392 359.690579 
L 684.829215 384.685714 
L 643.968 420.828257 
L 637.834859 427.371429 
L 601.905891 470.057143 
L 572.544 506.16198 
L 568.557014 512.742857 
L 547.146824 555.428571 
L 526.057236 598.114286 
L 501.375718 640.8 
L 533.449568 640.8 
z
M 858.24 599.193076 
L 858.24 598.114286 
L 858.24 575.719834 
L 830.76554 598.114286 
L 787.627355 640.8 
L 809.344095 640.8 
z
" clip-path="url(#pc55c097047)" style="fill: #fad824"/>
    <path d="M 572.544 620.5454 
L 582.512673 598.114286 
L 603.110375 555.428571 
L 628.333737 512.742857 
L 643.968 490.742704 
L 663.860065 470.057143 
L 705.124773 427.371429 
L 715.392 417.713285 
L 763.603857 384.685714 
L 786.816 370.289935 
L 842.225214 342 
L 858.24 334.670496 
L 858.24 308.152866 
L 786.816 341.008258 
L 785.026735 342 
L 715.90464 384.685714 
L 715.392 385.036899 
L 670.387676 427.371429 
L 643.968 452.642437 
L 629.503597 470.057143 
L 597.443726 512.742857 
L 572.544 549.806158 
L 569.776807 555.428571 
L 552.506377 598.114286 
L 533.449568 640.8 
L 565.523417 640.8 
z
M 786.816 640.8 
L 787.627355 640.8 
L 830.76554 598.114286 
L 858.24 575.719834 
L 858.24 555.428571 
L 858.24 550.371514 
L 851.887057 555.428571 
L 801.587739 598.114286 
L 786.816 612.826151 
L 751.62226 640.8 
z
" clip-path="url(#pc55c097047)" style="fill: #f7e225"/>
    <path d="M 572.544 640.8 
L 616.601416 640.8 
L 623.635985 598.114286 
L 637.935117 555.428571 
L 643.968 544.343897 
L 671.571868 512.742857 
L 705.660317 470.057143 
L 715.392 459.4539 
L 758.17077 427.371429 
L 786.816 406.93138 
L 829.647823 384.685714 
L 858.24 370.96703 
L 858.24 342 
L 858.24 334.670496 
L 842.225214 342 
L 786.816 370.289935 
L 763.603857 384.685714 
L 715.392 417.713285 
L 705.124773 427.371429 
L 663.860065 470.057143 
L 643.968 490.742704 
L 628.333737 512.742857 
L 603.110375 555.428571 
L 582.512673 598.114286 
L 572.544 620.5454 
L 565.523417 640.8 
z
M 715.392 640.8 
L 751.62226 640.8 
L 786.816 612.826151 
L 801.587739 598.114286 
L 851.887057 555.428571 
L 858.24 550.371514 
L 858.24 515.925484 
L 808.614132 555.428571 
L 786.816 576.985449 
L 756.51743 598.114286 
L 715.392 640.233767 
L 714.089936 640.8 
z
" clip-path="url(#pc55c097047)" style="fill: #f5eb27"/>
    <path d="M 643.968 640.8 
L 714.089936 640.8 
L 715.392 640.233767 
L 756.51743 598.114286 
L 786.816 576.985449 
L 808.614132 555.428571 
L 858.24 515.925484 
L 858.24 512.742857 
L 858.24 470.057143 
L 858.24 427.371429 
L 858.24 384.685714 
L 858.24 370.96703 
L 829.647823 384.685714 
L 786.816 406.93138 
L 758.17077 427.371429 
L 715.392 459.4539 
L 705.660317 470.057143 
L 671.571868 512.742857 
L 643.968 544.343897 
L 637.935117 555.428571 
L 623.635985 598.114286 
L 616.601416 640.8 
z
" clip-path="url(#pc55c097047)" style="fill: #f1f525"/>
   </g>
   <g id="matplotlib.axis_1">
    <g id="xtick_1">
     <g id="line2d_1">
      <defs>
       <path id="m4435a51802" d="M 0 0 
L 0 3.5 
" style="stroke: #000000; stroke-width: 0.8"/>
      </defs>
      <g>
       <use xlink:href="#m4435a51802" x="144" y="640.8" style="stroke: #000000; stroke-width: 0.8"/>
      </g>
     </g>
     <g id="text_1">
      <!-- $\mathdefault{5}$ -->
      <g transform="translate(139.887857 661.7533) scale(0.18 -0.18)">
       <defs>
        <path id="CMR17-35" d="M 730 3692 
C 794 3666 1056 3584 1325 3584 
C 1920 3584 2246 3911 2432 4100 
C 2432 4157 2432 4192 2394 4192 
C 2387 4192 2374 4192 2323 4163 
C 2099 4058 1837 3973 1517 3973 
C 1325 3973 1037 3999 723 4139 
C 653 4171 640 4171 634 4171 
C 602 4171 595 4164 595 4037 
L 595 2203 
C 595 2089 595 2057 659 2057 
C 691 2057 704 2070 736 2114 
C 941 2401 1222 2522 1542 2522 
C 1766 2522 2246 2382 2246 1289 
C 2246 1085 2246 715 2054 421 
C 1894 159 1645 25 1370 25 
C 947 25 518 320 403 814 
C 429 807 480 795 506 795 
C 589 795 749 840 749 1038 
C 749 1210 627 1280 506 1280 
C 358 1280 262 1190 262 1011 
C 262 454 704 -128 1382 -128 
C 2042 -128 2669 440 2669 1264 
C 2669 2030 2170 2624 1549 2624 
C 1222 2624 947 2503 730 2274 
L 730 3692 
z
" transform="scale(0.015625)"/>
       </defs>
       <use xlink:href="#CMR17-35" transform="scale(0.996264)"/>
      </g>
     </g>
    </g>
    <g id="xtick_2">
     <g id="line2d_2">
      <g>
       <use xlink:href="#m4435a51802" x="286.848" y="640.8" style="stroke: #000000; stroke-width: 0.8"/>
      </g>
     </g>
     <g id="text_2">
      <!-- $\mathdefault{6}$ -->
      <g transform="translate(282.735857 661.7533) scale(0.18 -0.18)">
       <defs>
        <path id="CMR17-36" d="M 678 2176 
C 678 3690 1395 4032 1811 4032 
C 1946 4032 2272 4009 2400 3776 
C 2298 3776 2106 3776 2106 3553 
C 2106 3381 2246 3323 2336 3323 
C 2394 3323 2566 3348 2566 3560 
C 2566 3954 2246 4179 1805 4179 
C 1043 4179 243 3390 243 1984 
C 243 253 966 -128 1478 -128 
C 2099 -128 2688 427 2688 1283 
C 2688 2081 2170 2662 1517 2662 
C 1126 2662 838 2407 678 1960 
L 678 2176 
z
M 1478 25 
C 691 25 691 1200 691 1436 
C 691 1896 909 2560 1504 2560 
C 1613 2560 1926 2560 2138 2120 
C 2253 1870 2253 1609 2253 1289 
C 2253 944 2253 690 2118 434 
C 1978 171 1773 25 1478 25 
z
" transform="scale(0.015625)"/>
       </defs>
       <use xlink:href="#CMR17-36" transform="scale(0.996264)"/>
      </g>
     </g>
    </g>
    <g id="xtick_3">
     <g id="line2d_3">
      <g>
       <use xlink:href="#m4435a51802" x="429.696" y="640.8" style="stroke: #000000; stroke-width: 0.8"/>
      </g>
     </g>
     <g id="text_3">
      <!-- $\mathdefault{7}$ -->
      <g transform="translate(425.583857 661.7533) scale(0.18 -0.18)">
       <defs>
        <path id="CMR17-37" d="M 2886 3941 
L 2886 4081 
L 1382 4081 
C 634 4081 621 4165 595 4288 
L 480 4288 
L 294 3094 
L 410 3094 
C 429 3215 474 3540 550 3661 
C 589 3712 1062 3712 1171 3712 
L 2579 3712 
L 1869 2661 
C 1395 1954 1069 999 1069 165 
C 1069 89 1069 -128 1299 -128 
C 1530 -128 1530 89 1530 171 
L 1530 465 
C 1530 1508 1709 2196 2003 2636 
L 2886 3941 
z
" transform="scale(0.015625)"/>
       </defs>
       <use xlink:href="#CMR17-37" transform="scale(0.996264)"/>
      </g>
     </g>
    </g>
    <g id="xtick_4">
     <g id="line2d_4">
      <g>
       <use xlink:href="#m4435a51802" x="572.544" y="640.8" style="stroke: #000000; stroke-width: 0.8"/>
      </g>
     </g>
     <g id="text_4">
      <!-- $\mathdefault{8}$ -->
      <g transform="translate(568.431857 661.7533) scale(0.18 -0.18)">
       <defs>
        <path id="CMR17-38" d="M 1741 2264 
C 2144 2467 2554 2773 2554 3263 
C 2554 3841 1990 4179 1472 4179 
C 890 4179 378 3759 378 3180 
C 378 3021 416 2747 666 2505 
C 730 2442 998 2251 1171 2130 
C 883 1983 211 1634 211 934 
C 211 279 838 -128 1459 -128 
C 2144 -128 2720 362 2720 1010 
C 2720 1590 2330 1857 2074 2029 
L 1741 2264 
z
M 902 2822 
C 851 2854 595 3051 595 3351 
C 595 3739 998 4032 1459 4032 
C 1965 4032 2336 3676 2336 3262 
C 2336 2669 1670 2331 1638 2331 
C 1632 2331 1626 2331 1574 2370 
L 902 2822 
z
M 2080 1519 
C 2176 1449 2483 1240 2483 851 
C 2483 381 2010 25 1472 25 
C 890 25 448 438 448 940 
C 448 1443 838 1862 1280 2060 
L 2080 1519 
z
" transform="scale(0.015625)"/>
       </defs>
       <use xlink:href="#CMR17-38" transform="scale(0.996264)"/>
      </g>
     </g>
    </g>
    <g id="xtick_5">
     <g id="line2d_5">
      <g>
       <use xlink:href="#m4435a51802" x="715.392" y="640.8" style="stroke: #000000; stroke-width: 0.8"/>
      </g>
     </g>
     <g id="text_5">
      <!-- $\mathdefault{9}$ -->
      <g transform="translate(711.279857 661.7533) scale(0.18 -0.18)">
       <defs>
        <path id="CMR17-39" d="M 2253 1864 
C 2253 464 1670 31 1190 31 
C 1043 31 685 31 538 294 
C 704 268 826 357 826 518 
C 826 692 685 749 595 749 
C 538 749 365 723 365 506 
C 365 71 742 -128 1203 -128 
C 1939 -128 2688 674 2688 2073 
C 2688 3817 1971 4179 1485 4179 
C 851 4179 243 3628 243 2778 
C 243 1991 762 1408 1414 1408 
C 1952 1408 2189 1903 2253 2112 
L 2253 1864 
z
M 1427 1510 
C 1254 1510 1011 1542 813 1922 
C 678 2169 678 2461 678 2771 
C 678 3146 678 3405 858 3684 
C 947 3817 1114 4032 1485 4032 
C 2240 4032 2240 2885 2240 2632 
C 2240 2182 2035 1510 1427 1510 
z
" transform="scale(0.015625)"/>
       </defs>
       <use xlink:href="#CMR17-39" transform="scale(0.996264)"/>
      </g>
     </g>
    </g>
    <g id="xtick_6">
     <g id="line2d_6">
      <g>
       <use xlink:href="#m4435a51802" x="858.24" y="640.8" style="stroke: #000000; stroke-width: 0.8"/>
      </g>
     </g>
     <g id="text_6">
      <!-- $\mathdefault{10}$ -->
      <g transform="translate(850.015714 661.7533) scale(0.18 -0.18)">
       <defs>
        <path id="CMR17-31" d="M 1702 4058 
C 1702 4192 1696 4192 1606 4192 
C 1357 3916 979 3827 621 3827 
C 602 3827 570 3827 563 3808 
C 557 3795 557 3782 557 3648 
C 755 3648 1088 3686 1344 3839 
L 1344 461 
C 1344 236 1331 160 781 160 
L 589 160 
L 589 0 
C 896 0 1216 0 1523 0 
C 1830 0 2150 0 2458 0 
L 2458 160 
L 2266 160 
C 1715 160 1702 230 1702 458 
L 1702 4058 
z
" transform="scale(0.015625)"/>
        <path id="CMR17-30" d="M 2688 2025 
C 2688 2416 2682 3080 2413 3591 
C 2176 4039 1798 4198 1466 4198 
C 1158 4198 768 4058 525 3597 
C 269 3118 243 2524 243 2025 
C 243 1661 250 1106 448 619 
C 723 -39 1216 -128 1466 -128 
C 1760 -128 2208 -7 2470 600 
C 2662 1042 2688 1559 2688 2025 
z
M 1466 -26 
C 1056 -26 813 325 723 812 
C 653 1188 653 1738 653 2096 
C 653 2588 653 2997 736 3387 
C 858 3929 1216 4096 1466 4096 
C 1728 4096 2067 3923 2189 3400 
C 2272 3036 2278 2607 2278 2096 
C 2278 1680 2278 1169 2202 792 
C 2067 95 1690 -26 1466 -26 
z
" transform="scale(0.015625)"/>
       </defs>
       <use xlink:href="#CMR17-31" transform="scale(0.996264)"/>
       <use xlink:href="#CMR17-30" transform="translate(45.690477 0) scale(0.996264)"/>
      </g>
     </g>
    </g>
    <g id="text_7">
     <!-- $\lambda$ -->
     <g transform="translate(495.429593 699.078361) scale(0.2 -0.2)">
      <defs>
       <path id="CMMI12-15" d="M 1978 3965 
C 1818 4416 1312 4416 1229 4416 
C 1190 4416 1120 4416 1120 4352 
C 1120 4302 1158 4295 1190 4289 
C 1286 4276 1363 4263 1466 4080 
C 1530 3959 2189 2059 2189 2046 
C 2189 2040 2182 2033 2131 1982 
L 467 311 
C 390 234 339 183 339 102 
C 339 12 416 -64 518 -64 
C 544 -64 614 -51 653 -13 
C 755 82 1670 1194 2253 1881 
C 2419 1383 2624 797 2822 261 
C 2854 166 2886 76 2976 -6 
C 3040 -64 3053 -64 3232 -64 
L 3354 -64 
C 3379 -64 3424 -64 3424 -13 
C 3424 13 3418 19 3392 45 
C 3334 115 3290 229 3264 306 
L 1978 3965 
z
" transform="scale(0.015625)"/>
      </defs>
      <use xlink:href="#CMMI12-15" transform="scale(0.996264)"/>
     </g>
    </g>
   </g>
   <g id="matplotlib.axis_2">
    <g id="ytick_1">
     <g id="line2d_7">
      <defs>
       <path id="m3575950cc1" d="M 0 0 
L -3.5 0 
" style="stroke: #000000; stroke-width: 0.8"/>
      </defs>
      <g>
       <use xlink:href="#m3575950cc1" x="144" y="640.8" style="stroke: #000000; stroke-width: 0.8"/>
      </g>
     </g>
     <g id="text_8">
      <!-- $\mathdefault{−3}$ -->
      <g transform="translate(113.327972 647.02665) scale(0.18 -0.18)">
       <defs>
        <path id="CMSY10-0" d="M 4218 1472 
C 4326 1472 4442 1472 4442 1600 
C 4442 1728 4326 1728 4218 1728 
L 755 1728 
C 646 1728 531 1728 531 1600 
C 531 1472 646 1472 755 1472 
L 4218 1472 
z
" transform="scale(0.015625)"/>
        <path id="CMR17-33" d="M 1414 2157 
C 1984 2157 2234 1662 2234 1090 
C 2234 320 1824 25 1453 25 
C 1114 25 563 194 390 693 
C 422 680 454 680 486 680 
C 640 680 755 782 755 948 
C 755 1133 614 1216 486 1216 
C 378 1216 211 1165 211 926 
C 211 335 787 -128 1466 -128 
C 2176 -128 2720 430 2720 1085 
C 2720 1707 2208 2157 1600 2227 
C 2086 2328 2554 2756 2554 3329 
C 2554 3820 2048 4179 1472 4179 
C 890 4179 378 3829 378 3329 
C 378 3110 544 3072 627 3072 
C 762 3072 877 3155 877 3321 
C 877 3486 762 3569 627 3569 
C 602 3569 570 3569 544 3557 
C 730 3959 1235 4032 1459 4032 
C 1683 4032 2106 3925 2106 3320 
C 2106 3143 2080 2828 1862 2550 
C 1670 2304 1453 2304 1242 2284 
C 1210 2284 1062 2269 1037 2269 
C 992 2263 966 2257 966 2208 
C 966 2163 973 2157 1101 2157 
L 1414 2157 
z
" transform="scale(0.015625)"/>
       </defs>
       <use xlink:href="#CMSY10-0" transform="scale(0.996264)"/>
       <use xlink:href="#CMR17-33" transform="translate(77.487468 0) scale(0.996264)"/>
      </g>
     </g>
    </g>
    <g id="ytick_2">
     <g id="line2d_8">
      <g>
       <use xlink:href="#m3575950cc1" x="144" y="555.428571" style="stroke: #000000; stroke-width: 0.8"/>
      </g>
     </g>
     <g id="text_9">
      <!-- $\mathdefault{−2}$ -->
      <g transform="translate(113.327972 561.655221) scale(0.18 -0.18)">
       <defs>
        <path id="CMR17-32" d="M 2669 989 
L 2554 989 
C 2490 536 2438 459 2413 420 
C 2381 369 1920 369 1830 369 
L 602 369 
C 832 619 1280 1072 1824 1597 
C 2214 1967 2669 2402 2669 3035 
C 2669 3790 2067 4224 1395 4224 
C 691 4224 262 3604 262 3030 
C 262 2780 448 2748 525 2748 
C 589 2748 781 2787 781 3010 
C 781 3207 614 3264 525 3264 
C 486 3264 448 3258 422 3245 
C 544 3790 915 4058 1306 4058 
C 1862 4058 2227 3617 2227 3035 
C 2227 2479 1901 2000 1536 1584 
L 262 146 
L 262 0 
L 2515 0 
L 2669 989 
z
" transform="scale(0.015625)"/>
       </defs>
       <use xlink:href="#CMSY10-0" transform="scale(0.996264)"/>
       <use xlink:href="#CMR17-32" transform="translate(77.487468 0) scale(0.996264)"/>
      </g>
     </g>
    </g>
    <g id="ytick_3">
     <g id="line2d_9">
      <g>
       <use xlink:href="#m3575950cc1" x="144" y="470.057143" style="stroke: #000000; stroke-width: 0.8"/>
      </g>
     </g>
     <g id="text_10">
      <!-- $\mathdefault{−1}$ -->
      <g transform="translate(113.327972 476.283793) scale(0.18 -0.18)">
       <use xlink:href="#CMSY10-0" transform="scale(0.996264)"/>
       <use xlink:href="#CMR17-31" transform="translate(77.487468 0) scale(0.996264)"/>
      </g>
     </g>
    </g>
    <g id="ytick_4">
     <g id="line2d_10">
      <g>
       <use xlink:href="#m3575950cc1" x="144" y="384.685714" style="stroke: #000000; stroke-width: 0.8"/>
      </g>
     </g>
     <g id="text_11">
      <!-- $\mathdefault{0}$ -->
      <g transform="translate(127.275714 390.912364) scale(0.18 -0.18)">
       <use xlink:href="#CMR17-30" transform="scale(0.996264)"/>
      </g>
     </g>
    </g>
    <g id="ytick_5">
     <g id="line2d_11">
      <g>
       <use xlink:href="#m3575950cc1" x="144" y="299.314286" style="stroke: #000000; stroke-width: 0.8"/>
      </g>
     </g>
     <g id="text_12">
      <!-- $\mathdefault{1}$ -->
      <g transform="translate(127.275714 305.540936) scale(0.18 -0.18)">
       <use xlink:href="#CMR17-31" transform="scale(0.996264)"/>
      </g>
     </g>
    </g>
    <g id="ytick_6">
     <g id="line2d_12">
      <g>
       <use xlink:href="#m3575950cc1" x="144" y="213.942857" style="stroke: #000000; stroke-width: 0.8"/>
      </g>
     </g>
     <g id="text_13">
      <!-- $\mathdefault{2}$ -->
      <g transform="translate(127.275714 220.169507) scale(0.18 -0.18)">
       <use xlink:href="#CMR17-32" transform="scale(0.996264)"/>
      </g>
     </g>
    </g>
    <g id="ytick_7">
     <g id="line2d_13">
      <g>
       <use xlink:href="#m3575950cc1" x="144" y="128.571429" style="stroke: #000000; stroke-width: 0.8"/>
      </g>
     </g>
     <g id="text_14">
      <!-- $\mathdefault{3}$ -->
      <g transform="translate(127.275714 134.798079) scale(0.18 -0.18)">
       <use xlink:href="#CMR17-33" transform="scale(0.996264)"/>
      </g>
     </g>
    </g>
    <g id="ytick_8">
     <g id="line2d_14">
      <g>
       <use xlink:href="#m3575950cc1" x="144" y="43.2" style="stroke: #000000; stroke-width: 0.8"/>
      </g>
     </g>
     <g id="text_15">
      <!-- $\mathdefault{4}$ -->
      <g transform="translate(127.275714 49.42665) scale(0.18 -0.18)">
       <defs>
        <path id="CMR17-34" d="M 2150 4122 
C 2150 4256 2144 4256 2029 4256 
L 128 1254 
L 128 1088 
L 1779 1088 
L 1779 457 
C 1779 224 1766 160 1318 160 
L 1197 160 
L 1197 0 
C 1402 0 1747 0 1965 0 
C 2182 0 2528 0 2733 0 
L 2733 160 
L 2611 160 
C 2163 160 2150 224 2150 457 
L 2150 1088 
L 2803 1088 
L 2803 1254 
L 2150 1254 
L 2150 4122 
z
M 1798 3703 
L 1798 1254 
L 256 1254 
L 1798 3703 
z
" transform="scale(0.015625)"/>
       </defs>
       <use xlink:href="#CMR17-34" transform="scale(0.996264)"/>
      </g>
     </g>
    </g>
    <g id="text_16">
     <!-- $\theta_p$ -->
     <g transform="translate(87.627167 349.97313) rotate(-90) scale(0.2 -0.2)">
      <defs>
       <path id="CMMI12-12" d="M 2835 3200 
C 2835 3850 2630 4480 2106 4480 
C 1210 4480 256 2615 256 1216 
C 256 923 320 -64 992 -64 
C 1862 -64 2835 1756 2835 3200 
z
M 896 2304 
C 992 2679 1126 3214 1382 3665 
C 1594 4047 1818 4352 2099 4352 
C 2310 4352 2451 4174 2451 3564 
C 2451 3334 2432 3017 2246 2304 
L 896 2304 
z
M 2202 2113 
C 2042 1490 1907 1088 1677 687 
C 1491 363 1267 64 998 64 
C 800 64 640 217 640 846 
C 640 1260 742 1693 845 2113 
L 2202 2113 
z
" transform="scale(0.015625)"/>
       <path id="CMMI12-70" d="M 275 -789 
C 230 -980 205 -1031 -58 -1031 
C -134 -1031 -198 -1031 -198 -1152 
C -198 -1165 -192 -1216 -122 -1216 
C -38 -1216 51 -1216 134 -1216 
L 410 -1216 
C 544 -1216 870 -1216 1005 -1216 
C 1043 -1216 1120 -1216 1120 -1101 
C 1120 -1031 1075 -1031 966 -1031 
C 672 -1031 653 -987 653 -937 
C 653 -861 941 219 979 364 
C 1050 185 1222 -64 1555 -64 
C 2278 -64 3059 875 3059 1814 
C 3059 2401 2726 2816 2246 2816 
C 1837 2816 1491 2420 1421 2331 
C 1370 2650 1120 2816 864 2816 
C 678 2816 531 2727 410 2484 
C 294 2254 205 1865 205 1839 
C 205 1814 230 1782 275 1782 
C 326 1782 333 1788 371 1935 
C 467 2312 589 2689 845 2689 
C 992 2689 1043 2587 1043 2397 
C 1043 2245 1024 2181 998 2067 
L 275 -789 
z
M 1382 1993 
C 1427 2171 1606 2357 1709 2446 
C 1779 2510 1990 2689 2234 2689 
C 2515 2689 2643 2408 2643 2076 
C 2643 1769 2464 1047 2304 715 
C 2144 370 1850 64 1555 64 
C 1120 64 1050 613 1050 639 
C 1050 658 1062 709 1069 741 
L 1382 1993 
z
" transform="scale(0.015625)"/>
      </defs>
      <use xlink:href="#CMMI12-12" transform="scale(0.996264)"/>
      <use xlink:href="#CMMI12-70" transform="translate(45.45979 -14.943915) scale(0.697382)"/>
     </g>
    </g>
   </g>
   <g id="patch_3">
    <path d="M 144 640.8 
L 144 43.2 
" style="fill: none; stroke: #000000; stroke-width: 0.8; stroke-linejoin: miter; stroke-linecap: square"/>
   </g>
   <g id="patch_4">
    <path d="M 858.24 640.8 
L 858.24 43.2 
" style="fill: none; stroke: #000000; stroke-width: 0.8; stroke-linejoin: miter; stroke-linecap: square"/>
   </g>
   <g id="patch_5">
    <path d="M 144 640.8 
L 858.24 640.8 
" style="fill: none; stroke: #000000; stroke-width: 0.8; stroke-linejoin: miter; stroke-linecap: square"/>
   </g>
   <g id="patch_6">
    <path d="M 144 43.2 
L 858.24 43.2 
" style="fill: none; stroke: #000000; stroke-width: 0.8; stroke-linejoin: miter; stroke-linecap: square"/>
   </g>
  </g>
  <g id="axes_2">
   <g id="patch_7">
    <path d="M 902.88 640.8 
L 932.76 640.8 
L 932.76 43.2 
L 902.88 43.2 
z
" style="fill: #ffffff"/>
   </g>
   <g id="QuadMesh_1">
    <path d="M 902.88 640.8 
L 932.76 640.8 
L 932.76 628.085106 
L 902.88 628.085106 
L 902.88 640.8 
" clip-path="url(#p0c3cfbaf11)" style="fill: #130789"/>
    <path d="M 902.88 628.085106 
L 932.76 628.085106 
L 932.76 615.370213 
L 902.88 615.370213 
L 902.88 628.085106 
" clip-path="url(#p0c3cfbaf11)" style="fill: #220690"/>
    <path d="M 902.88 615.370213 
L 932.76 615.370213 
L 932.76 602.655319 
L 902.88 602.655319 
L 902.88 615.370213 
" clip-path="url(#p0c3cfbaf11)" style="fill: #2c0594"/>
    <path d="M 902.88 602.655319 
L 932.76 602.655319 
L 932.76 589.940426 
L 902.88 589.940426 
L 902.88 602.655319 
" clip-path="url(#p0c3cfbaf11)" style="fill: #370499"/>
    <path d="M 902.88 589.940426 
L 932.76 589.940426 
L 932.76 577.225532 
L 902.88 577.225532 
L 902.88 589.940426 
" clip-path="url(#p0c3cfbaf11)" style="fill: #3f049c"/>
    <path d="M 902.88 577.225532 
L 932.76 577.225532 
L 932.76 564.510638 
L 902.88 564.510638 
L 902.88 577.225532 
" clip-path="url(#p0c3cfbaf11)" style="fill: #48039f"/>
    <path d="M 902.88 564.510638 
L 932.76 564.510638 
L 932.76 551.795745 
L 902.88 551.795745 
L 902.88 564.510638 
" clip-path="url(#p0c3cfbaf11)" style="fill: #5102a3"/>
    <path d="M 902.88 551.795745 
L 932.76 551.795745 
L 932.76 539.080851 
L 902.88 539.080851 
L 902.88 551.795745 
" clip-path="url(#p0c3cfbaf11)" style="fill: #5901a5"/>
    <path d="M 902.88 539.080851 
L 932.76 539.080851 
L 932.76 526.365957 
L 902.88 526.365957 
L 902.88 539.080851 
" clip-path="url(#p0c3cfbaf11)" style="fill: #6300a7"/>
    <path d="M 902.88 526.365957 
L 932.76 526.365957 
L 932.76 513.651064 
L 902.88 513.651064 
L 902.88 526.365957 
" clip-path="url(#p0c3cfbaf11)" style="fill: #6a00a8"/>
    <path d="M 902.88 513.651064 
L 932.76 513.651064 
L 932.76 500.93617 
L 902.88 500.93617 
L 902.88 513.651064 
" clip-path="url(#p0c3cfbaf11)" style="fill: #7401a8"/>
    <path d="M 902.88 500.93617 
L 932.76 500.93617 
L 932.76 488.221277 
L 902.88 488.221277 
L 902.88 500.93617 
" clip-path="url(#p0c3cfbaf11)" style="fill: #7b02a8"/>
    <path d="M 902.88 488.221277 
L 932.76 488.221277 
L 932.76 475.506383 
L 902.88 475.506383 
L 902.88 488.221277 
" clip-path="url(#p0c3cfbaf11)" style="fill: #8405a7"/>
    <path d="M 902.88 475.506383 
L 932.76 475.506383 
L 932.76 462.791489 
L 902.88 462.791489 
L 902.88 475.506383 
" clip-path="url(#p0c3cfbaf11)" style="fill: #8b0aa5"/>
    <path d="M 902.88 462.791489 
L 932.76 462.791489 
L 932.76 450.076596 
L 902.88 450.076596 
L 902.88 462.791489 
" clip-path="url(#p0c3cfbaf11)" style="fill: #920fa3"/>
    <path d="M 902.88 450.076596 
L 932.76 450.076596 
L 932.76 437.361702 
L 902.88 437.361702 
L 902.88 450.076596 
" clip-path="url(#p0c3cfbaf11)" style="fill: #9a169f"/>
    <path d="M 902.88 437.361702 
L 932.76 437.361702 
L 932.76 424.646809 
L 902.88 424.646809 
L 902.88 437.361702 
" clip-path="url(#p0c3cfbaf11)" style="fill: #a11b9b"/>
    <path d="M 902.88 424.646809 
L 932.76 424.646809 
L 932.76 411.931915 
L 902.88 411.931915 
L 902.88 424.646809 
" clip-path="url(#p0c3cfbaf11)" style="fill: #a82296"/>
    <path d="M 902.88 411.931915 
L 932.76 411.931915 
L 932.76 399.217021 
L 902.88 399.217021 
L 902.88 411.931915 
" clip-path="url(#p0c3cfbaf11)" style="fill: #ae2892"/>
    <path d="M 902.88 399.217021 
L 932.76 399.217021 
L 932.76 386.502128 
L 902.88 386.502128 
L 902.88 399.217021 
" clip-path="url(#p0c3cfbaf11)" style="fill: #b52f8c"/>
    <path d="M 902.88 386.502128 
L 932.76 386.502128 
L 932.76 373.787234 
L 902.88 373.787234 
L 902.88 386.502128 
" clip-path="url(#p0c3cfbaf11)" style="fill: #bb3488"/>
    <path d="M 902.88 373.787234 
L 932.76 373.787234 
L 932.76 361.07234 
L 902.88 361.07234 
L 902.88 373.787234 
" clip-path="url(#p0c3cfbaf11)" style="fill: #c13b82"/>
    <path d="M 902.88 361.07234 
L 932.76 361.07234 
L 932.76 348.357447 
L 902.88 348.357447 
L 902.88 361.07234 
" clip-path="url(#p0c3cfbaf11)" style="fill: #c6417d"/>
    <path d="M 902.88 348.357447 
L 932.76 348.357447 
L 932.76 335.642553 
L 902.88 335.642553 
L 902.88 348.357447 
" clip-path="url(#p0c3cfbaf11)" style="fill: #cc4778"/>
    <path d="M 902.88 335.642553 
L 932.76 335.642553 
L 932.76 322.92766 
L 902.88 322.92766 
L 902.88 335.642553 
" clip-path="url(#p0c3cfbaf11)" style="fill: #d04d73"/>
    <path d="M 902.88 322.92766 
L 932.76 322.92766 
L 932.76 310.212766 
L 902.88 310.212766 
L 902.88 322.92766 
" clip-path="url(#p0c3cfbaf11)" style="fill: #d5536f"/>
    <path d="M 902.88 310.212766 
L 932.76 310.212766 
L 932.76 297.497872 
L 902.88 297.497872 
L 902.88 310.212766 
" clip-path="url(#p0c3cfbaf11)" style="fill: #da5a6a"/>
    <path d="M 902.88 297.497872 
L 932.76 297.497872 
L 932.76 284.782979 
L 902.88 284.782979 
L 902.88 297.497872 
" clip-path="url(#p0c3cfbaf11)" style="fill: #de5f65"/>
    <path d="M 902.88 284.782979 
L 932.76 284.782979 
L 932.76 272.068085 
L 902.88 272.068085 
L 902.88 284.782979 
" clip-path="url(#p0c3cfbaf11)" style="fill: #e26660"/>
    <path d="M 902.88 272.068085 
L 932.76 272.068085 
L 932.76 259.353191 
L 902.88 259.353191 
L 902.88 272.068085 
" clip-path="url(#p0c3cfbaf11)" style="fill: #e66c5c"/>
    <path d="M 902.88 259.353191 
L 932.76 259.353191 
L 932.76 246.638298 
L 902.88 246.638298 
L 902.88 259.353191 
" clip-path="url(#p0c3cfbaf11)" style="fill: #ea7457"/>
    <path d="M 902.88 246.638298 
L 932.76 246.638298 
L 932.76 233.923404 
L 902.88 233.923404 
L 902.88 246.638298 
" clip-path="url(#p0c3cfbaf11)" style="fill: #ed7a52"/>
    <path d="M 902.88 233.923404 
L 932.76 233.923404 
L 932.76 221.208511 
L 902.88 221.208511 
L 902.88 233.923404 
" clip-path="url(#p0c3cfbaf11)" style="fill: #f1814d"/>
    <path d="M 902.88 221.208511 
L 932.76 221.208511 
L 932.76 208.493617 
L 902.88 208.493617 
L 902.88 221.208511 
" clip-path="url(#p0c3cfbaf11)" style="fill: #f48849"/>
    <path d="M 902.88 208.493617 
L 932.76 208.493617 
L 932.76 195.778723 
L 902.88 195.778723 
L 902.88 208.493617 
" clip-path="url(#p0c3cfbaf11)" style="fill: #f68f44"/>
    <path d="M 902.88 195.778723 
L 932.76 195.778723 
L 932.76 183.06383 
L 902.88 183.06383 
L 902.88 195.778723 
" clip-path="url(#p0c3cfbaf11)" style="fill: #f9973f"/>
    <path d="M 902.88 183.06383 
L 932.76 183.06383 
L 932.76 170.348936 
L 902.88 170.348936 
L 902.88 183.06383 
" clip-path="url(#p0c3cfbaf11)" style="fill: #fa9e3b"/>
    <path d="M 902.88 170.348936 
L 932.76 170.348936 
L 932.76 157.634043 
L 902.88 157.634043 
L 902.88 170.348936 
" clip-path="url(#p0c3cfbaf11)" style="fill: #fca636"/>
    <path d="M 902.88 157.634043 
L 932.76 157.634043 
L 932.76 144.919149 
L 902.88 144.919149 
L 902.88 157.634043 
" clip-path="url(#p0c3cfbaf11)" style="fill: #fdae32"/>
    <path d="M 902.88 144.919149 
L 932.76 144.919149 
L 932.76 132.204255 
L 902.88 132.204255 
L 902.88 144.919149 
" clip-path="url(#p0c3cfbaf11)" style="fill: #feb72d"/>
    <path d="M 902.88 132.204255 
L 932.76 132.204255 
L 932.76 119.489362 
L 902.88 119.489362 
L 902.88 132.204255 
" clip-path="url(#p0c3cfbaf11)" style="fill: #febe2a"/>
    <path d="M 902.88 119.489362 
L 932.76 119.489362 
L 932.76 106.774468 
L 902.88 106.774468 
L 902.88 119.489362 
" clip-path="url(#p0c3cfbaf11)" style="fill: #fdc827"/>
    <path d="M 902.88 106.774468 
L 932.76 106.774468 
L 932.76 94.059574 
L 902.88 94.059574 
L 902.88 106.774468 
" clip-path="url(#p0c3cfbaf11)" style="fill: #fcd025"/>
    <path d="M 902.88 94.059574 
L 932.76 94.059574 
L 932.76 81.344681 
L 902.88 81.344681 
L 902.88 94.059574 
" clip-path="url(#p0c3cfbaf11)" style="fill: #fad824"/>
    <path d="M 902.88 81.344681 
L 932.76 81.344681 
L 932.76 68.629787 
L 902.88 68.629787 
L 902.88 81.344681 
" clip-path="url(#p0c3cfbaf11)" style="fill: #f7e225"/>
    <path d="M 902.88 68.629787 
L 932.76 68.629787 
L 932.76 55.914894 
L 902.88 55.914894 
L 902.88 68.629787 
" clip-path="url(#p0c3cfbaf11)" style="fill: #f5eb27"/>
    <path d="M 902.88 55.914894 
L 932.76 55.914894 
L 932.76 43.2 
L 902.88 43.2 
L 902.88 55.914894 
" clip-path="url(#p0c3cfbaf11)" style="fill: #f1f525"/>
   </g>
   <g id="matplotlib.axis_3"/>
   <g id="matplotlib.axis_4">
    <g id="ytick_9">
     <g id="line2d_15">
      <defs>
       <path id="mda58402d68" d="M 0 0 
L 3.5 0 
" style="stroke: #000000; stroke-width: 0.8"/>
      </defs>
      <g>
       <use xlink:href="#mda58402d68" x="932.76" y="640.8" style="stroke: #000000; stroke-width: 0.8"/>
      </g>
     </g>
     <g id="text_17">
      <!-- $\mathdefault{0.44}$ -->
      <g transform="translate(941.26 647.02665) scale(0.18 -0.18)">
       <defs>
        <path id="CMMI12-3a" d="M 1178 307 
C 1178 492 1024 619 870 619 
C 685 619 557 466 557 313 
C 557 128 710 0 864 0 
C 1050 0 1178 153 1178 307 
z
" transform="scale(0.015625)"/>
       </defs>
       <use xlink:href="#CMR17-30" transform="scale(0.996264)"/>
       <use xlink:href="#CMMI12-3a" transform="translate(45.690477 0) scale(0.996264)"/>
       <use xlink:href="#CMR17-34" transform="translate(72.787654 0) scale(0.996264)"/>
       <use xlink:href="#CMR17-34" transform="translate(118.478131 0) scale(0.996264)"/>
      </g>
     </g>
    </g>
    <g id="ytick_10">
     <g id="line2d_16">
      <g>
       <use xlink:href="#mda58402d68" x="932.76" y="577.225532" style="stroke: #000000; stroke-width: 0.8"/>
      </g>
     </g>
     <g id="text_18">
      <!-- $\mathdefault{0.49}$ -->
      <g transform="translate(941.26 583.452182) scale(0.18 -0.18)">
       <use xlink:href="#CMR17-30" transform="scale(0.996264)"/>
       <use xlink:href="#CMMI12-3a" transform="translate(45.690477 0) scale(0.996264)"/>
       <use xlink:href="#CMR17-34" transform="translate(72.787654 0) scale(0.996264)"/>
       <use xlink:href="#CMR17-39" transform="translate(118.478131 0) scale(0.996264)"/>
      </g>
     </g>
    </g>
    <g id="ytick_11">
     <g id="line2d_17">
      <g>
       <use xlink:href="#mda58402d68" x="932.76" y="513.651064" style="stroke: #000000; stroke-width: 0.8"/>
      </g>
     </g>
     <g id="text_19">
      <!-- $\mathdefault{0.54}$ -->
      <g transform="translate(941.26 519.877714) scale(0.18 -0.18)">
       <use xlink:href="#CMR17-30" transform="scale(0.996264)"/>
       <use xlink:href="#CMMI12-3a" transform="translate(45.690477 0) scale(0.996264)"/>
       <use xlink:href="#CMR17-35" transform="translate(72.787654 0) scale(0.996264)"/>
       <use xlink:href="#CMR17-34" transform="translate(118.478131 0) scale(0.996264)"/>
      </g>
     </g>
    </g>
    <g id="ytick_12">
     <g id="line2d_18">
      <g>
       <use xlink:href="#mda58402d68" x="932.76" y="450.076596" style="stroke: #000000; stroke-width: 0.8"/>
      </g>
     </g>
     <g id="text_20">
      <!-- $\mathdefault{0.59}$ -->
      <g transform="translate(941.26 456.303246) scale(0.18 -0.18)">
       <use xlink:href="#CMR17-30" transform="scale(0.996264)"/>
       <use xlink:href="#CMMI12-3a" transform="translate(45.690477 0) scale(0.996264)"/>
       <use xlink:href="#CMR17-35" transform="translate(72.787654 0) scale(0.996264)"/>
       <use xlink:href="#CMR17-39" transform="translate(118.478131 0) scale(0.996264)"/>
      </g>
     </g>
    </g>
    <g id="ytick_13">
     <g id="line2d_19">
      <g>
       <use xlink:href="#mda58402d68" x="932.76" y="386.502128" style="stroke: #000000; stroke-width: 0.8"/>
      </g>
     </g>
     <g id="text_21">
      <!-- $\mathdefault{0.64}$ -->
      <g transform="translate(941.26 392.728778) scale(0.18 -0.18)">
       <use xlink:href="#CMR17-30" transform="scale(0.996264)"/>
       <use xlink:href="#CMMI12-3a" transform="translate(45.690477 0) scale(0.996264)"/>
       <use xlink:href="#CMR17-36" transform="translate(72.787654 0) scale(0.996264)"/>
       <use xlink:href="#CMR17-34" transform="translate(118.478131 0) scale(0.996264)"/>
      </g>
     </g>
    </g>
    <g id="ytick_14">
     <g id="line2d_20">
      <g>
       <use xlink:href="#mda58402d68" x="932.76" y="322.92766" style="stroke: #000000; stroke-width: 0.8"/>
      </g>
     </g>
     <g id="text_22">
      <!-- $\mathdefault{0.69}$ -->
      <g transform="translate(941.26 329.15431) scale(0.18 -0.18)">
       <use xlink:href="#CMR17-30" transform="scale(0.996264)"/>
       <use xlink:href="#CMMI12-3a" transform="translate(45.690477 0) scale(0.996264)"/>
       <use xlink:href="#CMR17-36" transform="translate(72.787654 0) scale(0.996264)"/>
       <use xlink:href="#CMR17-39" transform="translate(118.478131 0) scale(0.996264)"/>
      </g>
     </g>
    </g>
    <g id="ytick_15">
     <g id="line2d_21">
      <g>
       <use xlink:href="#mda58402d68" x="932.76" y="259.353191" style="stroke: #000000; stroke-width: 0.8"/>
      </g>
     </g>
     <g id="text_23">
      <!-- $\mathdefault{0.74}$ -->
      <g transform="translate(941.26 265.579842) scale(0.18 -0.18)">
       <use xlink:href="#CMR17-30" transform="scale(0.996264)"/>
       <use xlink:href="#CMMI12-3a" transform="translate(45.690477 0) scale(0.996264)"/>
       <use xlink:href="#CMR17-37" transform="translate(72.787654 0) scale(0.996264)"/>
       <use xlink:href="#CMR17-34" transform="translate(118.478131 0) scale(0.996264)"/>
      </g>
     </g>
    </g>
    <g id="ytick_16">
     <g id="line2d_22">
      <g>
       <use xlink:href="#mda58402d68" x="932.76" y="195.778723" style="stroke: #000000; stroke-width: 0.8"/>
      </g>
     </g>
     <g id="text_24">
      <!-- $\mathdefault{0.79}$ -->
      <g transform="translate(941.26 202.005373) scale(0.18 -0.18)">
       <use xlink:href="#CMR17-30" transform="scale(0.996264)"/>
       <use xlink:href="#CMMI12-3a" transform="translate(45.690477 0) scale(0.996264)"/>
       <use xlink:href="#CMR17-37" transform="translate(72.787654 0) scale(0.996264)"/>
       <use xlink:href="#CMR17-39" transform="translate(118.478131 0) scale(0.996264)"/>
      </g>
     </g>
    </g>
    <g id="ytick_17">
     <g id="line2d_23">
      <g>
       <use xlink:href="#mda58402d68" x="932.76" y="132.204255" style="stroke: #000000; stroke-width: 0.8"/>
      </g>
     </g>
     <g id="text_25">
      <!-- $\mathdefault{0.84}$ -->
      <g transform="translate(941.26 138.430905) scale(0.18 -0.18)">
       <use xlink:href="#CMR17-30" transform="scale(0.996264)"/>
       <use xlink:href="#CMMI12-3a" transform="translate(45.690477 0) scale(0.996264)"/>
       <use xlink:href="#CMR17-38" transform="translate(72.787654 0) scale(0.996264)"/>
       <use xlink:href="#CMR17-34" transform="translate(118.478131 0) scale(0.996264)"/>
      </g>
     </g>
    </g>
    <g id="ytick_18">
     <g id="line2d_24">
      <g>
       <use xlink:href="#mda58402d68" x="932.76" y="68.629787" style="stroke: #000000; stroke-width: 0.8"/>
      </g>
     </g>
     <g id="text_26">
      <!-- $\mathdefault{0.89}$ -->
      <g transform="translate(941.26 74.856437) scale(0.18 -0.18)">
       <use xlink:href="#CMR17-30" transform="scale(0.996264)"/>
       <use xlink:href="#CMMI12-3a" transform="translate(45.690477 0) scale(0.996264)"/>
       <use xlink:href="#CMR17-38" transform="translate(72.787654 0) scale(0.996264)"/>
       <use xlink:href="#CMR17-39" transform="translate(118.478131 0) scale(0.996264)"/>
      </g>
     </g>
    </g>
    <g id="text_27">
     <!-- $C_T$ -->
     <g transform="translate(1004.647346 352.981433) rotate(-90) scale(0.2 -0.2)">
      <defs>
       <path id="CMMI12-43" d="M 4781 4423 
C 4781 4480 4736 4480 4723 4480 
C 4710 4480 4685 4480 4634 4416 
L 4192 3882 
C 3968 4264 3616 4480 3136 4480 
C 1754 4480 320 3088 320 1595 
C 320 533 1069 -128 2003 -128 
C 2515 -128 2963 88 3334 400 
C 3891 863 4058 1481 4058 1531 
C 4058 1588 4006 1588 3987 1588 
C 3930 1588 3923 1550 3910 1524 
C 3616 534 2752 57 2112 57 
C 1434 57 845 489 845 1391 
C 845 1595 909 2700 1632 3532 
C 1984 3939 2586 4295 3194 4295 
C 3898 4295 4211 3717 4211 3068 
C 4211 2903 4192 2764 4192 2738 
C 4192 2681 4256 2681 4275 2681 
C 4346 2681 4352 2687 4378 2801 
L 4781 4423 
z
" transform="scale(0.015625)"/>
       <path id="CMMI12-54" d="M 2669 3910 
C 2707 4064 2720 4121 2816 4147 
C 2867 4160 3078 4160 3213 4160 
C 3853 4160 4154 4134 4154 3634 
C 4154 3537 4128 3295 4090 3057 
L 4083 2980 
C 4083 2954 4109 2916 4147 2916 
C 4211 2916 4211 2948 4230 3050 
L 4416 4184 
C 4429 4243 4429 4256 4429 4275 
C 4429 4345 4390 4345 4262 4345 
L 762 4345 
C 614 4345 608 4339 570 4224 
L 179 3070 
C 173 3056 154 2986 154 2980 
C 154 2948 179 2916 218 2916 
C 269 2916 282 2941 307 3024 
C 576 3801 710 4160 1562 4160 
L 1990 4160 
C 2144 4160 2208 4160 2208 4089 
C 2208 4069 2208 4057 2176 3941 
L 1318 499 
C 1254 249 1242 185 563 185 
C 403 185 358 185 358 64 
C 358 0 429 0 461 0 
C 621 0 787 0 947 0 
L 1946 0 
C 2106 0 2278 0 2438 0 
C 2509 0 2573 0 2573 121 
C 2573 185 2528 185 2362 185 
C 1786 185 1786 243 1786 339 
C 1786 346 1786 391 1811 494 
L 2669 3910 
z
" transform="scale(0.015625)"/>
      </defs>
      <use xlink:href="#CMMI12-43" transform="scale(0.996264)"/>
      <use xlink:href="#CMMI12-54" transform="translate(69.792037 -14.943915) scale(0.697382)"/>
     </g>
    </g>
   </g>
   <g id="LineCollection_1"/>
   <g id="patch_8">
    <path d="M 902.88 640.8 
L 917.82 640.8 
L 932.76 640.8 
L 932.76 43.2 
L 917.82 43.2 
L 902.88 43.2 
L 902.88 640.8 
z
" style="fill: none; stroke: #000000; stroke-width: 0.8; stroke-linejoin: miter; stroke-linecap: square"/>
   </g>
  </g>
 </g>
 <defs>
  <clipPath id="pc55c097047">
   <rect x="144" y="43.2" width="714.24" height="597.6"/>
  </clipPath>
  <clipPath id="p0c3cfbaf11">
   <rect x="902.88" y="43.2" width="29.88" height="597.6"/>
  </clipPath>
 </defs>
</svg>
