<?xml version="1.0" encoding="utf-8" standalone="no"?>
<!DOCTYPE svg PUBLIC "-//W3C//DTD SVG 1.1//EN"
  "http://www.w3.org/Graphics/SVG/1.1/DTD/svg11.dtd">
<svg xmlns:xlink="http://www.w3.org/1999/xlink" width="851.4pt" height="863.194647pt" viewBox="0 0 851.4 863.194647" xmlns="http://www.w3.org/2000/svg" version="1.1">
 <metadata>
  <rdf:RDF xmlns:dc="http://purl.org/dc/elements/1.1/" xmlns:cc="http://creativecommons.org/ns#" xmlns:rdf="http://www.w3.org/1999/02/22-rdf-syntax-ns#">
   <cc:Work>
    <dc:type rdf:resource="http://purl.org/dc/dcmitype/StillImage"/>
    <dc:date>2024-10-03T19:23:05.733455</dc:date>
    <dc:format>image/svg+xml</dc:format>
    <dc:creator>
     <cc:Agent>
      <dc:title>Matplotlib v3.8.4, https://matplotlib.org/</dc:title>
     </cc:Agent>
    </dc:creator>
   </cc:Work>
  </rdf:RDF>
 </metadata>
 <defs>
  <style type="text/css">*{stroke-linejoin: round; stroke-linecap: butt}</style>
 </defs>
 <g id="figure_1">
  <g id="patch_1">
   <path d="M 0 863.194647 
L 851.4 863.194647 
L 851.4 0 
L 0 0 
z
" style="fill: #ffffff"/>
  </g>
  <g id="patch_2">
   <path d="M 7.2 844.2 
L 844.2 844.2 
L 844.2 7.2 
L 7.2 7.2 
z
" style="fill: #ffffff"/>
  </g>
  <g id="pane3d_1">
   <g id="patch_3">
    <path d="M 437.010811 476.8238 
L 761.722012 643.060007 
L 781.847176 171.545661 
L 437.010811 24.840422 
" style="fill: #f2f2f2; opacity: 0.5; stroke: #f2f2f2; stroke-linejoin: miter"/>
   </g>
  </g>
  <g id="pane3d_2">
   <g id="patch_4">
    <path d="M 437.010811 476.8238 
L 112.29961 643.060007 
L 92.174445 171.545661 
L 437.010811 24.840422 
" style="fill: #e6e6e6; opacity: 0.5; stroke: #e6e6e6; stroke-linejoin: miter"/>
   </g>
  </g>
  <g id="pane3d_3">
   <g id="patch_5">
    <path d="M 437.010811 476.8238 
L 112.29961 643.060007 
L 437.010811 831.33048 
L 761.722012 643.060007 
" style="fill: #ececec; opacity: 0.5; stroke: #ececec; stroke-linejoin: miter"/>
   </g>
  </g>
  <g id="grid3d_1">
   <g id="Line3DCollection_1">
    <path d="M 742.265948 654.340808 
L 417.48383 486.820656 
L 416.344021 33.632784 
" style="fill: none; stroke: #b0b0b0; stroke-width: 0.8"/>
    <path d="M 688.098847 685.74738 
L 363.167053 514.628182 
L 358.80944 58.109972 
" style="fill: none; stroke: #b0b0b0; stroke-width: 0.8"/>
    <path d="M 632.725503 717.853342 
L 307.713234 543.017817 
L 299.998594 83.130127 
" style="fill: none; stroke: #b0b0b0; stroke-width: 0.8"/>
    <path d="M 576.105171 750.68232 
L 251.086291 572.008034 
L 239.868542 108.711517 
" style="fill: none; stroke: #b0b0b0; stroke-width: 0.8"/>
    <path d="M 518.195247 784.259014 
L 193.248601 601.618094 
L 178.374393 134.873241 
" style="fill: none; stroke: #b0b0b0; stroke-width: 0.8"/>
    <path d="M 458.951167 818.609264 
L 134.160912 631.868092 
L 115.469195 161.635274 
" style="fill: none; stroke: #b0b0b0; stroke-width: 0.8"/>
   </g>
  </g>
  <g id="grid3d_2">
   <g id="Line3DCollection_2">
    <path d="M 457.6776 33.632784 
L 456.537792 486.820656 
L 131.755674 654.340808 
" style="fill: none; stroke: #b0b0b0; stroke-width: 0.8"/>
    <path d="M 498.64533 51.061864 
L 495.221005 506.624564 
L 170.325112 676.703714 
" style="fill: none; stroke: #b0b0b0; stroke-width: 0.8"/>
    <path d="M 540.258092 68.765363 
L 534.479192 526.72283 
L 209.50417 699.420085 
" style="fill: none; stroke: #b0b0b0; stroke-width: 0.8"/>
    <path d="M 582.531241 86.749814 
L 574.325267 547.122066 
L 249.307418 722.498366 
" style="fill: none; stroke: #b0b0b0; stroke-width: 0.8"/>
    <path d="M 625.480624 105.021957 
L 614.772535 567.829083 
L 289.749892 745.947275 
" style="fill: none; stroke: #b0b0b0; stroke-width: 0.8"/>
    <path d="M 669.122598 123.588752 
L 655.834705 588.8509 
L 330.847115 769.775814 
" style="fill: none; stroke: #b0b0b0; stroke-width: 0.8"/>
    <path d="M 713.474051 142.457384 
L 697.525908 610.194751 
L 372.615116 793.993277 
" style="fill: none; stroke: #b0b0b0; stroke-width: 0.8"/>
    <path d="M 758.552426 161.635274 
L 739.860709 631.868092 
L 415.070455 818.609264 
" style="fill: none; stroke: #b0b0b0; stroke-width: 0.8"/>
   </g>
  </g>
  <g id="grid3d_3">
   <g id="Line3DCollection_3">
    <path d="M 109.850668 585.683519 
L 437.010811 421.648824 
L 764.170954 585.683519 
" style="fill: none; stroke: #b0b0b0; stroke-width: 0.8"/>
    <path d="M 107.225338 524.174415 
L 437.010811 362.553838 
L 766.796284 524.174415 
" style="fill: none; stroke: #b0b0b0; stroke-width: 0.8"/>
    <path d="M 104.557532 461.670153 
L 437.010811 302.559955 
L 769.464089 461.670153 
" style="fill: none; stroke: #b0b0b0; stroke-width: 0.8"/>
    <path d="M 101.846212 398.146385 
L 437.010811 241.646508 
L 772.17541 398.146385 
" style="fill: none; stroke: #b0b0b0; stroke-width: 0.8"/>
    <path d="M 99.090304 333.577962 
L 437.010811 179.792191 
L 774.931317 333.577962 
" style="fill: none; stroke: #b0b0b0; stroke-width: 0.8"/>
    <path d="M 96.288699 267.938901 
L 437.010811 116.975037 
L 777.732922 267.938901 
" style="fill: none; stroke: #b0b0b0; stroke-width: 0.8"/>
    <path d="M 93.440251 201.202351 
L 437.010811 53.172386 
L 780.58137 201.202351 
" style="fill: none; stroke: #b0b0b0; stroke-width: 0.8"/>
   </g>
  </g>
  <g id="axis3d_1">
   <g id="line2d_1">
    <path d="M 761.722012 643.060007 
L 437.010811 831.33048 
" style="fill: none; stroke: #000000; stroke-width: 0.8; stroke-linecap: square"/>
   </g>
   <g id="xtick_1">
    <g id="line2d_2">
     <path d="M 739.506933 652.917729 
L 747.79225 657.191232 
" style="fill: none; stroke: #000000; stroke-width: 0.8; stroke-linecap: square"/>
    </g>
    <g id="text_1">
     <!-- $\mathdefault{5}$ -->
     <g transform="translate(747.454271 686.760409) scale(0.2 -0.2)">
      <defs>
       <path id="CMR17-35" d="M 730 3692 
C 794 3666 1056 3584 1325 3584 
C 1920 3584 2246 3911 2432 4100 
C 2432 4157 2432 4192 2394 4192 
C 2387 4192 2374 4192 2323 4163 
C 2099 4058 1837 3973 1517 3973 
C 1325 3973 1037 3999 723 4139 
C 653 4171 640 4171 634 4171 
C 602 4171 595 4164 595 4037 
L 595 2203 
C 595 2089 595 2057 659 2057 
C 691 2057 704 2070 736 2114 
C 941 2401 1222 2522 1542 2522 
C 1766 2522 2246 2382 2246 1289 
C 2246 1085 2246 715 2054 421 
C 1894 159 1645 25 1370 25 
C 947 25 518 320 403 814 
C 429 807 480 795 506 795 
C 589 795 749 840 749 1038 
C 749 1210 627 1280 506 1280 
C 358 1280 262 1190 262 1011 
C 262 454 704 -128 1382 -128 
C 2042 -128 2669 440 2669 1264 
C 2669 2030 2170 2624 1549 2624 
C 1222 2624 947 2503 730 2274 
L 730 3692 
z
" transform="scale(0.015625)"/>
      </defs>
      <use xlink:href="#CMR17-35" transform="scale(0.996264)"/>
     </g>
    </g>
   </g>
   <g id="xtick_2">
    <g id="line2d_3">
     <path d="M 685.33679 684.292795 
L 693.631332 688.660959 
" style="fill: none; stroke: #000000; stroke-width: 0.8; stroke-linecap: square"/>
    </g>
    <g id="text_2">
     <!-- $\mathdefault{6}$ -->
     <g transform="translate(693.388409 718.37524) scale(0.2 -0.2)">
      <defs>
       <path id="CMR17-36" d="M 678 2176 
C 678 3690 1395 4032 1811 4032 
C 1946 4032 2272 4009 2400 3776 
C 2298 3776 2106 3776 2106 3553 
C 2106 3381 2246 3323 2336 3323 
C 2394 3323 2566 3348 2566 3560 
C 2566 3954 2246 4179 1805 4179 
C 1043 4179 243 3390 243 1984 
C 243 253 966 -128 1478 -128 
C 2099 -128 2688 427 2688 1283 
C 2688 2081 2170 2662 1517 2662 
C 1126 2662 838 2407 678 1960 
L 678 2176 
z
M 1478 25 
C 691 25 691 1200 691 1436 
C 691 1896 909 2560 1504 2560 
C 1613 2560 1926 2560 2138 2120 
C 2253 1870 2253 1609 2253 1289 
C 2253 944 2253 690 2118 434 
C 1978 171 1773 25 1478 25 
z
" transform="scale(0.015625)"/>
      </defs>
      <use xlink:href="#CMR17-36" transform="scale(0.996264)"/>
     </g>
    </g>
   </g>
   <g id="xtick_3">
    <g id="line2d_4">
     <path d="M 629.960952 716.366193 
L 638.263078 720.832198 
" style="fill: none; stroke: #000000; stroke-width: 0.8; stroke-linecap: square"/>
    </g>
    <g id="text_3">
     <!-- $\mathdefault{7}$ -->
     <g transform="translate(638.118419 750.69418) scale(0.2 -0.2)">
      <defs>
       <path id="CMR17-37" d="M 2886 3941 
L 2886 4081 
L 1382 4081 
C 634 4081 621 4165 595 4288 
L 480 4288 
L 294 3094 
L 410 3094 
C 429 3215 474 3540 550 3661 
C 589 3712 1062 3712 1171 3712 
L 2579 3712 
L 1869 2661 
C 1395 1954 1069 999 1069 165 
C 1069 89 1069 -128 1299 -128 
C 1530 -128 1530 89 1530 171 
L 1530 465 
C 1530 1508 1709 2196 2003 2636 
L 2886 3941 
z
" transform="scale(0.015625)"/>
      </defs>
      <use xlink:href="#CMR17-37" transform="scale(0.996264)"/>
     </g>
    </g>
   </g>
   <g id="xtick_4">
    <g id="line2d_5">
     <path d="M 573.338713 749.161501 
L 581.646661 753.728671 
" style="fill: none; stroke: #000000; stroke-width: 0.8; stroke-linecap: square"/>
    </g>
    <g id="text_4">
     <!-- $\mathdefault{8}$ -->
     <g transform="translate(581.603621 783.741018) scale(0.2 -0.2)">
      <defs>
       <path id="CMR17-38" d="M 1741 2264 
C 2144 2467 2554 2773 2554 3263 
C 2554 3841 1990 4179 1472 4179 
C 890 4179 378 3759 378 3180 
C 378 3021 416 2747 666 2505 
C 730 2442 998 2251 1171 2130 
C 883 1983 211 1634 211 934 
C 211 279 838 -128 1459 -128 
C 2144 -128 2720 362 2720 1010 
C 2720 1590 2330 1857 2074 2029 
L 1741 2264 
z
M 902 2822 
C 851 2854 595 3051 595 3351 
C 595 3739 998 4032 1459 4032 
C 1965 4032 2336 3676 2336 3262 
C 2336 2669 1670 2331 1638 2331 
C 1632 2331 1626 2331 1574 2370 
L 902 2822 
z
M 2080 1519 
C 2176 1449 2483 1240 2483 851 
C 2483 381 2010 25 1472 25 
C 890 25 448 438 448 940 
C 448 1443 838 1862 1280 2060 
L 2080 1519 
z
" transform="scale(0.015625)"/>
      </defs>
      <use xlink:href="#CMR17-38" transform="scale(0.996264)"/>
     </g>
    </g>
   </g>
   <g id="xtick_5">
    <g id="line2d_6">
     <path d="M 515.427512 782.703369 
L 523.739394 787.375181 
" style="fill: none; stroke: #000000; stroke-width: 0.8; stroke-linecap: square"/>
    </g>
    <g id="text_5">
     <!-- $\mathdefault{9}$ -->
     <g transform="translate(523.801484 817.540623) scale(0.2 -0.2)">
      <defs>
       <path id="CMR17-39" d="M 2253 1864 
C 2253 464 1670 31 1190 31 
C 1043 31 685 31 538 294 
C 704 268 826 357 826 518 
C 826 692 685 749 595 749 
C 538 749 365 723 365 506 
C 365 71 742 -128 1203 -128 
C 1939 -128 2688 674 2688 2073 
C 2688 3817 1971 4179 1485 4179 
C 851 4179 243 3628 243 2778 
C 243 1991 762 1408 1414 1408 
C 1952 1408 2189 1903 2253 2112 
L 2253 1864 
z
M 1427 1510 
C 1254 1510 1011 1542 813 1922 
C 678 2169 678 2461 678 2771 
C 678 3146 678 3405 858 3684 
C 947 3817 1114 4032 1485 4032 
C 2240 4032 2240 2885 2240 2632 
C 2240 2182 2035 1510 1427 1510 
z
" transform="scale(0.015625)"/>
      </defs>
      <use xlink:href="#CMR17-39" transform="scale(0.996264)"/>
     </g>
    </g>
   </g>
   <g id="xtick_6">
    <g id="line2d_7">
     <path d="M 456.182829 817.017582 
L 464.496623 821.797675 
" style="fill: none; stroke: #000000; stroke-width: 0.8; stroke-linecap: square"/>
    </g>
    <g id="text_6">
     <!-- $\mathdefault{10}$ -->
     <g transform="translate(460.098465 852.119014) scale(0.2 -0.2)">
      <defs>
       <path id="CMR17-31" d="M 1702 4058 
C 1702 4192 1696 4192 1606 4192 
C 1357 3916 979 3827 621 3827 
C 602 3827 570 3827 563 3808 
C 557 3795 557 3782 557 3648 
C 755 3648 1088 3686 1344 3839 
L 1344 461 
C 1344 236 1331 160 781 160 
L 589 160 
L 589 0 
C 896 0 1216 0 1523 0 
C 1830 0 2150 0 2458 0 
L 2458 160 
L 2266 160 
C 1715 160 1702 230 1702 458 
L 1702 4058 
z
" transform="scale(0.015625)"/>
       <path id="CMR17-30" d="M 2688 2025 
C 2688 2416 2682 3080 2413 3591 
C 2176 4039 1798 4198 1466 4198 
C 1158 4198 768 4058 525 3597 
C 269 3118 243 2524 243 2025 
C 243 1661 250 1106 448 619 
C 723 -39 1216 -128 1466 -128 
C 1760 -128 2208 -7 2470 600 
C 2662 1042 2688 1559 2688 2025 
z
M 1466 -26 
C 1056 -26 813 325 723 812 
C 653 1188 653 1738 653 2096 
C 653 2588 653 2997 736 3387 
C 858 3929 1216 4096 1466 4096 
C 1728 4096 2067 3923 2189 3400 
C 2272 3036 2278 2607 2278 2096 
C 2278 1680 2278 1169 2202 792 
C 2067 95 1690 -26 1466 -26 
z
" transform="scale(0.015625)"/>
      </defs>
      <use xlink:href="#CMR17-31" transform="scale(0.996264)"/>
      <use xlink:href="#CMR17-30" transform="translate(45.690477 0) scale(0.996264)"/>
     </g>
    </g>
   </g>
   <g id="text_7">
    <!-- $\lambda$ -->
    <g transform="translate(633.135195 803.421735) rotate(-30.105543) scale(0.25 -0.25)">
     <defs>
      <path id="CMMI12-15" d="M 1978 3965 
C 1818 4416 1312 4416 1229 4416 
C 1190 4416 1120 4416 1120 4352 
C 1120 4302 1158 4295 1190 4289 
C 1286 4276 1363 4263 1466 4080 
C 1530 3959 2189 2059 2189 2046 
C 2189 2040 2182 2033 2131 1982 
L 467 311 
C 390 234 339 183 339 102 
C 339 12 416 -64 518 -64 
C 544 -64 614 -51 653 -13 
C 755 82 1670 1194 2253 1881 
C 2419 1383 2624 797 2822 261 
C 2854 166 2886 76 2976 -6 
C 3040 -64 3053 -64 3232 -64 
L 3354 -64 
C 3379 -64 3424 -64 3424 -13 
C 3424 13 3418 19 3392 45 
C 3334 115 3290 229 3264 306 
L 1978 3965 
z
" transform="scale(0.015625)"/>
     </defs>
     <use xlink:href="#CMMI12-15" transform="scale(0.996264)"/>
    </g>
   </g>
  </g>
  <g id="axis3d_2">
   <g id="line2d_8">
    <path d="M 112.29961 643.060007 
L 437.010811 831.33048 
" style="fill: none; stroke: #000000; stroke-width: 0.8; stroke-linecap: square"/>
   </g>
   <g id="xtick_7">
    <g id="line2d_9">
     <path d="M 134.514689 652.917729 
L 126.229372 657.191232 
" style="fill: none; stroke: #000000; stroke-width: 0.8; stroke-linecap: square"/>
    </g>
    <g id="text_8">
     <!-- $\mathdefault{−3}$ -->
     <g transform="translate(109.680512 686.760409) scale(0.2 -0.2)">
      <defs>
       <path id="CMSY10-0" d="M 4218 1472 
C 4326 1472 4442 1472 4442 1600 
C 4442 1728 4326 1728 4218 1728 
L 755 1728 
C 646 1728 531 1728 531 1600 
C 531 1472 646 1472 755 1472 
L 4218 1472 
z
" transform="scale(0.015625)"/>
       <path id="CMR17-33" d="M 1414 2157 
C 1984 2157 2234 1662 2234 1090 
C 2234 320 1824 25 1453 25 
C 1114 25 563 194 390 693 
C 422 680 454 680 486 680 
C 640 680 755 782 755 948 
C 755 1133 614 1216 486 1216 
C 378 1216 211 1165 211 926 
C 211 335 787 -128 1466 -128 
C 2176 -128 2720 430 2720 1085 
C 2720 1707 2208 2157 1600 2227 
C 2086 2328 2554 2756 2554 3329 
C 2554 3820 2048 4179 1472 4179 
C 890 4179 378 3829 378 3329 
C 378 3110 544 3072 627 3072 
C 762 3072 877 3155 877 3321 
C 877 3486 762 3569 627 3569 
C 602 3569 570 3569 544 3557 
C 730 3959 1235 4032 1459 4032 
C 1683 4032 2106 3925 2106 3320 
C 2106 3143 2080 2828 1862 2550 
C 1670 2304 1453 2304 1242 2284 
C 1210 2284 1062 2269 1037 2269 
C 992 2263 966 2257 966 2208 
C 966 2163 973 2157 1101 2157 
L 1414 2157 
z
" transform="scale(0.015625)"/>
      </defs>
      <use xlink:href="#CMSY10-0" transform="scale(0.996264)"/>
      <use xlink:href="#CMR17-33" transform="translate(77.487468 0) scale(0.996264)"/>
     </g>
    </g>
   </g>
   <g id="xtick_8">
    <g id="line2d_10">
     <path d="M 173.086353 675.258237 
L 164.794284 679.599037 
" style="fill: none; stroke: #000000; stroke-width: 0.8; stroke-linecap: square"/>
    </g>
    <g id="text_9">
     <!-- $\mathdefault{−2}$ -->
     <g transform="translate(148.177849 709.271597) scale(0.2 -0.2)">
      <defs>
       <path id="CMR17-32" d="M 2669 989 
L 2554 989 
C 2490 536 2438 459 2413 420 
C 2381 369 1920 369 1830 369 
L 602 369 
C 832 619 1280 1072 1824 1597 
C 2214 1967 2669 2402 2669 3035 
C 2669 3790 2067 4224 1395 4224 
C 691 4224 262 3604 262 3030 
C 262 2780 448 2748 525 2748 
C 589 2748 781 2787 781 3010 
C 781 3207 614 3264 525 3264 
C 486 3264 448 3258 422 3245 
C 544 3790 915 4058 1306 4058 
C 1862 4058 2227 3617 2227 3035 
C 2227 2479 1901 2000 1536 1584 
L 262 146 
L 262 0 
L 2515 0 
L 2669 989 
z
" transform="scale(0.015625)"/>
      </defs>
      <use xlink:href="#CMSY10-0" transform="scale(0.996264)"/>
      <use xlink:href="#CMR17-32" transform="translate(77.487468 0) scale(0.996264)"/>
     </g>
    </g>
   </g>
   <g id="xtick_9">
    <g id="line2d_11">
     <path d="M 212.267365 697.951676 
L 203.969365 702.361374 
" style="fill: none; stroke: #000000; stroke-width: 0.8; stroke-linecap: square"/>
    </g>
    <g id="text_10">
     <!-- $\mathdefault{−1}$ -->
     <g transform="translate(187.283737 732.138634) scale(0.2 -0.2)">
      <use xlink:href="#CMSY10-0" transform="scale(0.996264)"/>
      <use xlink:href="#CMR17-31" transform="translate(77.487468 0) scale(0.996264)"/>
     </g>
    </g>
   </g>
   <g id="xtick_10">
    <g id="line2d_12">
     <path d="M 252.072278 721.006475 
L 243.76921 725.486726 
" style="fill: none; stroke: #000000; stroke-width: 0.8; stroke-linecap: square"/>
    </g>
    <g id="text_11">
     <!-- $\mathdefault{0}$ -->
     <g transform="translate(234.761466 755.370024) scale(0.2 -0.2)">
      <use xlink:href="#CMR17-30" transform="scale(0.996264)"/>
     </g>
    </g>
   </g>
   <g id="xtick_11">
    <g id="line2d_13">
     <path d="M 292.516115 744.431336 
L 284.208886 748.983845 
" style="fill: none; stroke: #000000; stroke-width: 0.8; stroke-linecap: square"/>
    </g>
    <g id="text_12">
     <!-- $\mathdefault{1}$ -->
     <g transform="translate(275.128558 778.974545) scale(0.2 -0.2)">
      <use xlink:href="#CMR17-31" transform="scale(0.996264)"/>
     </g>
    </g>
   </g>
   <g id="xtick_12">
    <g id="line2d_14">
     <path d="M 333.614382 768.23524 
L 325.303946 772.86177 
" style="fill: none; stroke: #000000; stroke-width: 0.8; stroke-linecap: square"/>
    </g>
    <g id="text_13">
     <!-- $\mathdefault{2}$ -->
     <g transform="translate(316.149257 802.961261) scale(0.2 -0.2)">
      <use xlink:href="#CMR17-32" transform="scale(0.996264)"/>
     </g>
    </g>
   </g>
   <g id="xtick_13">
    <g id="line2d_15">
     <path d="M 375.383095 792.427462 
L 367.070453 797.129833 
" style="fill: none; stroke: #000000; stroke-width: 0.8; stroke-linecap: square"/>
    </g>
    <g id="text_14">
     <!-- $\mathdefault{3}$ -->
     <g transform="translate(357.839565 827.339528) scale(0.2 -0.2)">
      <use xlink:href="#CMR17-33" transform="scale(0.996264)"/>
     </g>
    </g>
   </g>
   <g id="xtick_14">
    <g id="line2d_16">
     <path d="M 417.838793 817.017582 
L 409.524999 821.797675 
" style="fill: none; stroke: #000000; stroke-width: 0.8; stroke-linecap: square"/>
    </g>
    <g id="text_15">
     <!-- $\mathdefault{4}$ -->
     <g transform="translate(400.216014 852.119014) scale(0.2 -0.2)">
      <defs>
       <path id="CMR17-34" d="M 2150 4122 
C 2150 4256 2144 4256 2029 4256 
L 128 1254 
L 128 1088 
L 1779 1088 
L 1779 457 
C 1779 224 1766 160 1318 160 
L 1197 160 
L 1197 0 
C 1402 0 1747 0 1965 0 
C 2182 0 2528 0 2733 0 
L 2733 160 
L 2611 160 
C 2163 160 2150 224 2150 457 
L 2150 1088 
L 2803 1088 
L 2803 1254 
L 2150 1254 
L 2150 4122 
z
M 1798 3703 
L 1798 1254 
L 256 1254 
L 1798 3703 
z
" transform="scale(0.015625)"/>
      </defs>
      <use xlink:href="#CMR17-34" transform="scale(0.996264)"/>
     </g>
    </g>
   </g>
   <g id="text_16">
    <!-- $\theta_p\:\unit{[\degree]}$ -->
    <g transform="translate(214.367063 787.513729) rotate(-329.894457) scale(0.25 -0.25)">
     <defs>
      <path id="CMMI12-12" d="M 2835 3200 
C 2835 3850 2630 4480 2106 4480 
C 1210 4480 256 2615 256 1216 
C 256 923 320 -64 992 -64 
C 1862 -64 2835 1756 2835 3200 
z
M 896 2304 
C 992 2679 1126 3214 1382 3665 
C 1594 4047 1818 4352 2099 4352 
C 2310 4352 2451 4174 2451 3564 
C 2451 3334 2432 3017 2246 2304 
L 896 2304 
z
M 2202 2113 
C 2042 1490 1907 1088 1677 687 
C 1491 363 1267 64 998 64 
C 800 64 640 217 640 846 
C 640 1260 742 1693 845 2113 
L 2202 2113 
z
" transform="scale(0.015625)"/>
      <path id="CMMI12-70" d="M 275 -789 
C 230 -980 205 -1031 -58 -1031 
C -134 -1031 -198 -1031 -198 -1152 
C -198 -1165 -192 -1216 -122 -1216 
C -38 -1216 51 -1216 134 -1216 
L 410 -1216 
C 544 -1216 870 -1216 1005 -1216 
C 1043 -1216 1120 -1216 1120 -1101 
C 1120 -1031 1075 -1031 966 -1031 
C 672 -1031 653 -987 653 -937 
C 653 -861 941 219 979 364 
C 1050 185 1222 -64 1555 -64 
C 2278 -64 3059 875 3059 1814 
C 3059 2401 2726 2816 2246 2816 
C 1837 2816 1491 2420 1421 2331 
C 1370 2650 1120 2816 864 2816 
C 678 2816 531 2727 410 2484 
C 294 2254 205 1865 205 1839 
C 205 1814 230 1782 275 1782 
C 326 1782 333 1788 371 1935 
C 467 2312 589 2689 845 2689 
C 992 2689 1043 2587 1043 2397 
C 1043 2245 1024 2181 998 2067 
L 275 -789 
z
M 1382 1993 
C 1427 2171 1606 2357 1709 2446 
C 1779 2510 1990 2689 2234 2689 
C 2515 2689 2643 2408 2643 2076 
C 2643 1769 2464 1047 2304 715 
C 2144 370 1850 64 1555 64 
C 1120 64 1050 613 1050 639 
C 1050 658 1062 709 1069 741 
L 1382 1993 
z
" transform="scale(0.015625)"/>
      <path id="CMR17-5b" d="M 1504 -1600 
L 1504 -1377 
L 902 -1377 
L 902 4544 
L 1504 4544 
L 1504 4767 
L 678 4767 
L 678 -1600 
L 1504 -1600 
z
" transform="scale(0.015625)"/>
      <path id="CMSY10-e" d="M 2842 1600 
C 2842 2277 2272 2828 1600 2828 
C 909 2828 352 2264 352 1600 
C 352 930 909 372 1600 372 
C 2272 372 2842 923 2842 1600 
z
M 1600 628 
C 1043 628 608 1070 608 1600 
C 608 2130 1050 2572 1600 2572 
C 2131 2572 2586 2142 2586 1600 
C 2586 1058 2131 628 1600 628 
z
" transform="scale(0.015625)"/>
      <path id="CMR17-5d" d="M 915 4767 
L 90 4767 
L 90 4544 
L 691 4544 
L 691 -1377 
L 90 -1377 
L 90 -1600 
L 915 -1600 
L 915 4767 
z
" transform="scale(0.015625)"/>
     </defs>
     <use xlink:href="#CMMI12-12" transform="scale(0.996264)"/>
     <use xlink:href="#CMMI12-70" transform="translate(45.45979 -14.943915) scale(0.697382)"/>
     <use xlink:href="#CMR17-5b" transform="translate(102.368635 0) scale(0.996264)"/>
     <use xlink:href="#CMSY10-e" transform="translate(127.239694 36.153639) scale(0.697382)"/>
     <use xlink:href="#CMR17-5d" transform="translate(162.607036 0) scale(0.996264)"/>
    </g>
   </g>
  </g>
  <g id="axis3d_3">
   <g id="line2d_17">
    <path d="M 112.29961 643.060007 
L 92.174445 171.545661 
" style="fill: none; stroke: #000000; stroke-width: 0.8; stroke-linecap: square"/>
   </g>
   <g id="xtick_15">
    <g id="line2d_18">
     <path d="M 112.63046 584.28976 
L 104.28272 588.47523 
" style="fill: none; stroke: #000000; stroke-width: 0.8; stroke-linecap: square"/>
    </g>
    <g id="text_17">
     <!-- $\mathdefault{0.5}$ -->
     <g transform="translate(63.48101 599.520516) scale(0.2 -0.2)">
      <defs>
       <path id="CMMI12-3a" d="M 1178 307 
C 1178 492 1024 619 870 619 
C 685 619 557 466 557 313 
C 557 128 710 0 864 0 
C 1050 0 1178 153 1178 307 
z
" transform="scale(0.015625)"/>
      </defs>
      <use xlink:href="#CMR17-30" transform="scale(0.996264)"/>
      <use xlink:href="#CMMI12-3a" transform="translate(45.690477 0) scale(0.996264)"/>
      <use xlink:href="#CMR17-35" transform="translate(72.787654 0) scale(0.996264)"/>
     </g>
    </g>
   </g>
   <g id="xtick_16">
    <g id="line2d_19">
     <path d="M 110.02875 522.800525 
L 101.61001 526.926363 
" style="fill: none; stroke: #000000; stroke-width: 0.8; stroke-linecap: square"/>
    </g>
    <g id="text_18">
     <!-- $\mathdefault{0.6}$ -->
     <g transform="translate(60.578656 538.011412) scale(0.2 -0.2)">
      <use xlink:href="#CMR17-30" transform="scale(0.996264)"/>
      <use xlink:href="#CMMI12-3a" transform="translate(45.690477 0) scale(0.996264)"/>
      <use xlink:href="#CMR17-36" transform="translate(72.787654 0) scale(0.996264)"/>
     </g>
    </g>
   </g>
   <g id="xtick_17">
    <g id="line2d_20">
     <path d="M 107.384969 460.316958 
L 98.894014 464.38068 
" style="fill: none; stroke: #000000; stroke-width: 0.8; stroke-linecap: square"/>
    </g>
    <g id="text_19">
     <!-- $\mathdefault{0.7}$ -->
     <g transform="translate(57.629344 475.50715) scale(0.2 -0.2)">
      <use xlink:href="#CMR17-30" transform="scale(0.996264)"/>
      <use xlink:href="#CMMI12-3a" transform="translate(45.690477 0) scale(0.996264)"/>
      <use xlink:href="#CMR17-37" transform="translate(72.787654 0) scale(0.996264)"/>
     </g>
    </g>
   </g>
   <g id="xtick_18">
    <g id="line2d_21">
     <path d="M 104.698087 396.814746 
L 96.133671 400.813767 
" style="fill: none; stroke: #000000; stroke-width: 0.8; stroke-linecap: square"/>
    </g>
    <g id="text_20">
     <!-- $\mathdefault{0.8}$ -->
     <g transform="translate(54.631927 411.983382) scale(0.2 -0.2)">
      <use xlink:href="#CMR17-30" transform="scale(0.996264)"/>
      <use xlink:href="#CMMI12-3a" transform="translate(45.690477 0) scale(0.996264)"/>
      <use xlink:href="#CMR17-38" transform="translate(72.787654 0) scale(0.996264)"/>
     </g>
    </g>
   </g>
   <g id="xtick_19">
    <g id="line2d_22">
     <path d="M 101.967042 332.268774 
L 93.327888 336.200406 
" style="fill: none; stroke: #000000; stroke-width: 0.8; stroke-linecap: square"/>
    </g>
    <g id="text_21">
     <!-- $\mathdefault{0.9}$ -->
     <g transform="translate(51.585216 347.414959) scale(0.2 -0.2)">
      <use xlink:href="#CMR17-30" transform="scale(0.996264)"/>
      <use xlink:href="#CMMI12-3a" transform="translate(45.690477 0) scale(0.996264)"/>
      <use xlink:href="#CMR17-39" transform="translate(72.787654 0) scale(0.996264)"/>
     </g>
    </g>
   </g>
   <g id="xtick_20">
    <g id="line2d_23">
     <path d="M 99.190736 266.653095 
L 90.475532 270.514543 
" style="fill: none; stroke: #000000; stroke-width: 0.8; stroke-linecap: square"/>
    </g>
    <g id="text_22">
     <!-- $\mathdefault{1.0}$ -->
     <g transform="translate(48.487987 281.775898) scale(0.2 -0.2)">
      <use xlink:href="#CMR17-31" transform="scale(0.996264)"/>
      <use xlink:href="#CMMI12-3a" transform="translate(45.690477 0) scale(0.996264)"/>
      <use xlink:href="#CMR17-30" transform="translate(72.787654 0) scale(0.996264)"/>
     </g>
    </g>
   </g>
   <g id="xtick_21">
    <g id="line2d_24">
     <path d="M 96.368034 199.940894 
L 87.575434 203.729252 
" style="fill: none; stroke: #000000; stroke-width: 0.8; stroke-linecap: square"/>
    </g>
    <g id="text_23">
     <!-- $\mathdefault{1.1}$ -->
     <g transform="translate(45.338971 215.039348) scale(0.2 -0.2)">
      <use xlink:href="#CMR17-31" transform="scale(0.996264)"/>
      <use xlink:href="#CMMI12-3a" transform="translate(45.690477 0) scale(0.996264)"/>
      <use xlink:href="#CMR17-31" transform="translate(72.787654 0) scale(0.996264)"/>
     </g>
    </g>
   </g>
   <g id="text_24">
    <!-- $\times\mathdefault{10^{13}}\mathdefault{}$ -->
    <g transform="translate(-1.479652 171.761614) rotate(-272.444014) scale(0.2 -0.2)">
     <defs>
      <path id="CMSY10-2" d="M 2490 1785 
L 1210 3059 
C 1133 3136 1120 3148 1069 3148 
C 1005 3148 941 3091 941 3020 
C 941 2976 954 2963 1024 2892 
L 2304 1606 
L 1024 320 
C 954 249 941 236 941 192 
C 941 121 1005 64 1069 64 
C 1120 64 1133 76 1210 153 
L 2483 1427 
L 3808 102 
C 3821 96 3866 64 3904 64 
C 3981 64 4032 121 4032 192 
C 4032 204 4032 230 4013 262 
C 4006 275 2989 1280 2669 1606 
L 3840 2777 
C 3872 2816 3968 2899 4000 2937 
C 4006 2950 4032 2976 4032 3020 
C 4032 3091 3981 3148 3904 3148 
C 3853 3148 3827 3123 3757 3052 
L 2490 1785 
z
" transform="scale(0.015625)"/>
     </defs>
     <use xlink:href="#CMSY10-2" transform="scale(0.996264)"/>
     <use xlink:href="#CMR17-31" transform="translate(77.487468 0) scale(0.996264)"/>
     <use xlink:href="#CMR17-30" transform="translate(123.177945 0) scale(0.996264)"/>
     <use xlink:href="#CMR17-31" transform="translate(168.868422 36.153639) scale(0.697382)"/>
     <use xlink:href="#CMR17-33" transform="translate(200.851604 36.153639) scale(0.697382)"/>
    </g>
   </g>
   <g id="text_25">
    <!-- $C_T$ -->
    <g transform="translate(9.80238 400.940374) rotate(-272.444014) scale(0.25 -0.25)">
     <defs>
      <path id="CMMI12-43" d="M 4781 4423 
C 4781 4480 4736 4480 4723 4480 
C 4710 4480 4685 4480 4634 4416 
L 4192 3882 
C 3968 4264 3616 4480 3136 4480 
C 1754 4480 320 3088 320 1595 
C 320 533 1069 -128 2003 -128 
C 2515 -128 2963 88 3334 400 
C 3891 863 4058 1481 4058 1531 
C 4058 1588 4006 1588 3987 1588 
C 3930 1588 3923 1550 3910 1524 
C 3616 534 2752 57 2112 57 
C 1434 57 845 489 845 1391 
C 845 1595 909 2700 1632 3532 
C 1984 3939 2586 4295 3194 4295 
C 3898 4295 4211 3717 4211 3068 
C 4211 2903 4192 2764 4192 2738 
C 4192 2681 4256 2681 4275 2681 
C 4346 2681 4352 2687 4378 2801 
L 4781 4423 
z
" transform="scale(0.015625)"/>
      <path id="CMMI12-54" d="M 2669 3910 
C 2707 4064 2720 4121 2816 4147 
C 2867 4160 3078 4160 3213 4160 
C 3853 4160 4154 4134 4154 3634 
C 4154 3537 4128 3295 4090 3057 
L 4083 2980 
C 4083 2954 4109 2916 4147 2916 
C 4211 2916 4211 2948 4230 3050 
L 4416 4184 
C 4429 4243 4429 4256 4429 4275 
C 4429 4345 4390 4345 4262 4345 
L 762 4345 
C 614 4345 608 4339 570 4224 
L 179 3070 
C 173 3056 154 2986 154 2980 
C 154 2948 179 2916 218 2916 
C 269 2916 282 2941 307 3024 
C 576 3801 710 4160 1562 4160 
L 1990 4160 
C 2144 4160 2208 4160 2208 4089 
C 2208 4069 2208 4057 2176 3941 
L 1318 499 
C 1254 249 1242 185 563 185 
C 403 185 358 185 358 64 
C 358 0 429 0 461 0 
C 621 0 787 0 947 0 
L 1946 0 
C 2106 0 2278 0 2438 0 
C 2509 0 2573 0 2573 121 
C 2573 185 2528 185 2362 185 
C 1786 185 1786 243 1786 339 
C 1786 346 1786 391 1811 494 
L 2669 3910 
z
" transform="scale(0.015625)"/>
     </defs>
     <use xlink:href="#CMMI12-43" transform="scale(0.996264)"/>
     <use xlink:href="#CMMI12-54" transform="translate(69.792037 -14.943915) scale(0.697382)"/>
    </g>
   </g>
  </g>
  <g id="axes_1">
   <g id="Poly3DCollection_1">
    <path d="M 437.010811 436.495976 
L 409.585879 394.648059 
L 429.149836 408.606746 
L 456.434322 445.571978 
z
" clip-path="url(#p7adeb28c7b)" style="fill: #5e01a6"/>
    <path d="M 456.434322 445.571978 
L 429.149836 408.606746 
L 448.840729 422.464383 
L 476.004256 455.146121 
z
" clip-path="url(#p7adeb28c7b)" style="fill: #5c01a6"/>
    <path d="M 476.004256 455.146121 
L 448.840729 422.464383 
L 468.659975 436.53674 
L 495.700743 467.648107 
z
" clip-path="url(#p7adeb28c7b)" style="fill: #5901a5"/>
    <path d="M 495.700743 467.648107 
L 468.659975 436.53674 
L 488.603203 451.532973 
L 515.527647 480.68944 
z
" clip-path="url(#p7adeb28c7b)" style="fill: #5601a4"/>
    <path d="M 409.585879 394.648059 
L 381.532587 360.126667 
L 401.235238 375.319105 
L 429.149836 408.606746 
z
" clip-path="url(#p7adeb28c7b)" style="fill: #8f0da4"/>
    <path d="M 515.527647 480.68944 
L 488.603203 451.532973 
L 508.665836 467.387072 
L 535.490182 493.692324 
z
" clip-path="url(#p7adeb28c7b)" style="fill: #5102a3"/>
    <path d="M 429.149836 408.606746 
L 401.235238 375.319105 
L 421.063417 391.839441 
L 448.840729 422.464383 
z
" clip-path="url(#p7adeb28c7b)" style="fill: #8b0aa5"/>
    <path d="M 535.490182 493.692324 
L 508.665836 467.387072 
L 528.849937 483.520741 
L 555.577557 507.51638 
z
" clip-path="url(#p7adeb28c7b)" style="fill: #4c02a1"/>
    <path d="M 448.840729 422.464383 
L 421.063417 391.839441 
L 441.00931 408.858904 
L 468.659975 436.53674 
z
" clip-path="url(#p7adeb28c7b)" style="fill: #8606a6"/>
    <path d="M 555.577557 507.51638 
L 528.849937 483.520741 
L 549.156958 499.81401 
L 575.787958 522.017665 
z
" clip-path="url(#p7adeb28c7b)" style="fill: #48039f"/>
    <path d="M 468.659975 436.53674 
L 441.00931 408.858904 
L 461.071806 426.079111 
L 488.603203 451.532973 
z
" clip-path="url(#p7adeb28c7b)" style="fill: #8004a8"/>
    <path d="M 381.532587 360.126667 
L 352.890187 330.557903 
L 372.748506 349.664386 
L 401.235238 375.319105 
z
" clip-path="url(#p7adeb28c7b)" style="fill: #b42e8d"/>
    <path d="M 575.787958 522.017665 
L 549.156958 499.81401 
L 569.579429 516.741967 
L 596.116601 537.26639 
z
" clip-path="url(#p7adeb28c7b)" style="fill: #41049d"/>
    <path d="M 488.603203 451.532973 
L 461.071806 426.079111 
L 481.246833 444.263328 
L 508.665836 467.387072 
z
" clip-path="url(#p7adeb28c7b)" style="fill: #7a02a8"/>
    <path d="M 401.235238 375.319105 
L 372.748506 349.664386 
L 392.713156 368.953834 
L 421.063417 391.839441 
z
" clip-path="url(#p7adeb28c7b)" style="fill: #ae2892"/>
    <path d="M 596.116601 537.26639 
L 569.579429 516.741967 
L 590.116455 534.190211 
L 616.573837 552.648583 
z
" clip-path="url(#p7adeb28c7b)" style="fill: #3a049a"/>
    <path d="M 508.665836 467.387072 
L 481.246833 444.263328 
L 501.53093 463.136267 
L 528.849937 483.520741 
z
" clip-path="url(#p7adeb28c7b)" style="fill: #7401a8"/>
    <path d="M 421.063417 391.839441 
L 392.713156 368.953834 
L 412.783467 388.13406 
L 441.00931 408.858904 
z
" clip-path="url(#p7adeb28c7b)" style="fill: #a82296"/>
    <path d="M 616.573837 552.648583 
L 590.116455 534.190211 
L 610.771449 551.906013 
L 637.160046 568.186642 
z
" clip-path="url(#p7adeb28c7b)" style="fill: #330597"/>
    <path d="M 528.849937 483.520741 
L 501.53093 463.136267 
L 521.92322 482.442132 
L 549.156958 499.81401 
z
" clip-path="url(#p7adeb28c7b)" style="fill: #6c00a8"/>
    <path d="M 441.00931 408.858904 
L 412.783467 388.13406 
L 432.962199 407.744009 
L 461.071806 426.079111 
z
" clip-path="url(#p7adeb28c7b)" style="fill: #a21d9a"/>
    <path d="M 637.160046 568.186642 
L 610.771449 551.906013 
L 631.528233 570.518277 
L 657.869571 584.1049 
z
" clip-path="url(#p7adeb28c7b)" style="fill: #2c0594"/>
    <path d="M 549.156958 499.81401 
L 521.92322 482.442132 
L 542.425471 501.926073 
L 569.579429 516.741967 
z
" clip-path="url(#p7adeb28c7b)" style="fill: #6400a7"/>
    <path d="M 352.890187 330.557903 
L 323.716656 307.175816 
L 343.714989 327.87102 
L 372.748506 349.664386 
z
" clip-path="url(#p7adeb28c7b)" style="fill: #cd4a76"/>
    <path d="M 461.071806 426.079111 
L 432.962199 407.744009 
L 453.247384 427.933427 
L 481.246833 444.263328 
z
" clip-path="url(#p7adeb28c7b)" style="fill: #9a169f"/>
    <path d="M 657.869571 584.1049 
L 631.528233 570.518277 
L 652.399746 589.37061 
L 678.702297 600.373507 
z
" clip-path="url(#p7adeb28c7b)" style="fill: #240691"/>
    <path d="M 569.579429 516.741967 
L 542.425471 501.926073 
L 563.037988 521.589558 
L 590.116455 534.190211 
z
" clip-path="url(#p7adeb28c7b)" style="fill: #5c01a6"/>
    <path d="M 372.748506 349.664386 
L 343.714989 327.87102 
L 363.815438 348.86719 
L 392.713156 368.953834 
z
" clip-path="url(#p7adeb28c7b)" style="fill: #c7427c"/>
    <path d="M 481.246833 444.263328 
L 453.247384 427.933427 
L 473.637593 448.395768 
L 501.53093 463.136267 
z
" clip-path="url(#p7adeb28c7b)" style="fill: #920fa3"/>
    <path d="M 392.713156 368.953834 
L 363.815438 348.86719 
L 384.01817 370.300915 
L 412.783467 388.13406 
z
" clip-path="url(#p7adeb28c7b)" style="fill: #c13b82"/>
    <path d="M 678.702297 600.373507 
L 652.399746 589.37061 
L 673.389348 608.35165 
L 699.655072 617.060159 
z
" clip-path="url(#p7adeb28c7b)" style="fill: #19068c"/>
    <path d="M 590.116455 534.190211 
L 563.037988 521.589558 
L 583.758143 541.587773 
L 610.771449 551.906013 
z
" clip-path="url(#p7adeb28c7b)" style="fill: #5302a3"/>
    <path d="M 501.53093 463.136267 
L 473.637593 448.395768 
L 494.132098 469.162939 
L 521.92322 482.442132 
z
" clip-path="url(#p7adeb28c7b)" style="fill: #8a09a5"/>
    <path d="M 412.783467 388.13406 
L 384.01817 370.300915 
L 404.320935 392.06806 
L 432.962199 407.744009 
z
" clip-path="url(#p7adeb28c7b)" style="fill: #ba3388"/>
    <path d="M 699.655072 617.060159 
L 673.389348 608.35165 
L 694.487055 627.782596 
L 720.726293 634.169708 
z
" clip-path="url(#p7adeb28c7b)" style="fill: #0d0887"/>
    <path d="M 610.771449 551.906013 
L 583.758143 541.587773 
L 604.5822 562.048405 
L 631.528233 570.518277 
z
" clip-path="url(#p7adeb28c7b)" style="fill: #4b03a1"/>
    <path d="M 521.92322 482.442132 
L 494.132098 469.162939 
L 514.729389 490.309616 
L 542.425471 501.926073 
z
" clip-path="url(#p7adeb28c7b)" style="fill: #8104a7"/>
    <path d="M 323.716656 307.175816 
L 293.981207 285.19121 
L 314.127493 307.536426 
L 343.714989 327.87102 
z
" clip-path="url(#p7adeb28c7b)" style="fill: #e06363"/>
    <path d="M 432.962199 407.744009 
L 404.320935 392.06806 
L 424.721901 413.666656 
L 453.247384 427.933427 
z
" clip-path="url(#p7adeb28c7b)" style="fill: #b22b8f"/>
    <path d="M 631.528233 570.518277 
L 604.5822 562.048405 
L 625.509362 582.920871 
L 652.399746 589.37061 
z
" clip-path="url(#p7adeb28c7b)" style="fill: #41049d"/>
    <path d="M 542.425471 501.926073 
L 514.729389 490.309616 
L 535.428316 511.817608 
L 563.037988 521.589558 
z
" clip-path="url(#p7adeb28c7b)" style="fill: #7701a8"/>
    <path d="M 343.714989 327.87102 
L 314.127493 307.536426 
L 334.369373 330.079535 
L 363.815438 348.86719 
z
" clip-path="url(#p7adeb28c7b)" style="fill: #da5b69"/>
    <path d="M 453.247384 427.933427 
L 424.721901 413.666656 
L 445.223634 435.391603 
L 473.637593 448.395768 
z
" clip-path="url(#p7adeb28c7b)" style="fill: #ab2494"/>
    <path d="M 652.399746 589.37061 
L 625.509362 582.920871 
L 646.543728 603.99508 
L 673.389348 608.35165 
z
" clip-path="url(#p7adeb28c7b)" style="fill: #370499"/>
    <path d="M 563.037988 521.589558 
L 535.428316 511.817608 
L 556.227553 533.690961 
L 583.758143 541.587773 
z
" clip-path="url(#p7adeb28c7b)" style="fill: #6e00a8"/>
    <path d="M 363.815438 348.86719 
L 334.369373 330.079535 
L 354.706941 352.834649 
L 384.01817 370.300915 
z
" clip-path="url(#p7adeb28c7b)" style="fill: #d45270"/>
    <path d="M 473.637593 448.395768 
L 445.223634 435.391603 
L 465.82601 457.437614 
L 494.132098 469.162939 
z
" clip-path="url(#p7adeb28c7b)" style="fill: #a21d9a"/>
    <path d="M 673.389348 608.35165 
L 646.543728 603.99508 
L 667.686246 625.243101 
L 694.487055 627.782596 
z
" clip-path="url(#p7adeb28c7b)" style="fill: #2c0594"/>
    <path d="M 583.758143 541.587773 
L 556.227553 533.690961 
L 577.129663 555.716229 
L 604.5822 562.048405 
z
" clip-path="url(#p7adeb28c7b)" style="fill: #6300a7"/>
    <path d="M 384.01817 370.300915 
L 354.706941 352.834649 
L 375.140554 375.867567 
L 404.320935 392.06806 
z
" clip-path="url(#p7adeb28c7b)" style="fill: #cd4a76"/>
    <path d="M 494.132098 469.162939 
L 465.82601 457.437614 
L 486.526808 480.003356 
L 514.729389 490.309616 
z
" clip-path="url(#p7adeb28c7b)" style="fill: #9814a0"/>
    <path d="M 604.5822 562.048405 
L 577.129663 555.716229 
L 598.1325 578.016353 
L 625.509362 582.920871 
z
" clip-path="url(#p7adeb28c7b)" style="fill: #5801a4"/>
    <path d="M 404.320935 392.06806 
L 375.140554 375.867567 
L 395.668608 399.002658 
L 424.721901 413.666656 
z
" clip-path="url(#p7adeb28c7b)" style="fill: #c6417d"/>
    <path d="M 293.981207 285.19121 
L 263.671786 263.911949 
L 283.961788 287.200812 
L 314.127493 307.536426 
z
" clip-path="url(#p7adeb28c7b)" style="fill: #ef7e50"/>
    <path d="M 514.729389 490.309616 
L 486.526808 480.003356 
L 507.326296 502.77459 
L 535.428316 511.817608 
z
" clip-path="url(#p7adeb28c7b)" style="fill: #8e0ca4"/>
    <path d="M 625.509362 582.920871 
L 598.1325 578.016353 
L 619.235075 600.607795 
L 646.543728 603.99508 
z
" clip-path="url(#p7adeb28c7b)" style="fill: #4c02a1"/>
    <path d="M 424.721901 413.666656 
L 395.668608 399.002658 
L 416.291507 422.131867 
L 445.223634 435.391603 
z
" clip-path="url(#p7adeb28c7b)" style="fill: #be3885"/>
    <path d="M 314.127493 307.536426 
L 283.961788 287.200812 
L 304.339101 310.311871 
L 334.369373 330.079535 
z
" clip-path="url(#p7adeb28c7b)" style="fill: #ea7457"/>
    <path d="M 535.428316 511.817608 
L 507.326296 502.77459 
L 528.225326 525.673488 
L 556.227553 533.690961 
z
" clip-path="url(#p7adeb28c7b)" style="fill: #8405a7"/>
    <path d="M 445.223634 435.391603 
L 416.291507 422.131867 
L 437.010811 445.401416 
L 465.82601 457.437614 
z
" clip-path="url(#p7adeb28c7b)" style="fill: #b6308b"/>
    <path d="M 646.543728 603.99508 
L 619.235075 600.607795 
L 640.443625 623.228623 
L 667.686246 625.243101 
z
" clip-path="url(#p7adeb28c7b)" style="fill: #41049d"/>
    <path d="M 334.369373 330.079535 
L 304.339101 310.311871 
L 324.818482 334.090454 
L 354.706941 352.834649 
z
" clip-path="url(#p7adeb28c7b)" style="fill: #e56a5d"/>
    <path d="M 556.227553 533.690961 
L 528.225326 525.673488 
L 549.221114 548.930857 
L 577.129663 555.716229 
z
" clip-path="url(#p7adeb28c7b)" style="fill: #7801a8"/>
    <path d="M 465.82601 457.437614 
L 437.010811 445.401416 
L 457.825202 469.461536 
L 486.526808 480.003356 
z
" clip-path="url(#p7adeb28c7b)" style="fill: #ad2793"/>
    <path d="M 354.706941 352.834649 
L 324.818482 334.090454 
L 345.400022 358.860504 
L 375.140554 375.867567 
z
" clip-path="url(#p7adeb28c7b)" style="fill: #de5f65"/>
    <path d="M 577.129663 555.716229 
L 549.221114 548.930857 
L 570.304095 573.020342 
L 598.1325 578.016353 
z
" clip-path="url(#p7adeb28c7b)" style="fill: #6e00a8"/>
    <path d="M 375.140554 375.867567 
L 345.400022 358.860504 
L 366.072713 384.095695 
L 395.668608 399.002658 
z
" clip-path="url(#p7adeb28c7b)" style="fill: #d7566c"/>
    <path d="M 486.526808 480.003356 
L 457.825202 469.461536 
L 478.731689 493.967845 
L 507.326296 502.77459 
z
" clip-path="url(#p7adeb28c7b)" style="fill: #a31e9a"/>
    <path d="M 263.671786 263.911949 
L 232.726692 241.108423 
L 253.195087 266.426812 
L 283.961788 287.200812 
z
" clip-path="url(#p7adeb28c7b)" style="fill: #fa9b3d"/>
    <path d="M 598.1325 578.016353 
L 570.304095 573.020342 
L 591.476114 597.583865 
L 619.235075 600.607795 
z
" clip-path="url(#p7adeb28c7b)" style="fill: #6100a7"/>
    <path d="M 395.668608 399.002658 
L 366.072713 384.095695 
L 386.833758 409.712679 
L 416.291507 422.131867 
z
" clip-path="url(#p7adeb28c7b)" style="fill: #cf4c74"/>
    <path d="M 507.326296 502.77459 
L 478.731689 493.967845 
L 499.727631 518.983846 
L 528.225326 525.673488 
z
" clip-path="url(#p7adeb28c7b)" style="fill: #9814a0"/>
    <path d="M 283.961788 287.200812 
L 253.195087 266.426812 
L 273.751736 292.042772 
L 304.339101 310.311871 
z
" clip-path="url(#p7adeb28c7b)" style="fill: #f68f44"/>
    <path d="M 619.235075 600.607795 
L 591.476114 597.583865 
L 612.737904 622.483948 
L 640.443625 623.228623 
z
" clip-path="url(#p7adeb28c7b)" style="fill: #5502a4"/>
    <path d="M 416.291507 422.131867 
L 386.833758 409.712679 
L 407.681152 435.616331 
L 437.010811 445.401416 
z
" clip-path="url(#p7adeb28c7b)" style="fill: #c7427c"/>
    <path d="M 528.225326 525.673488 
L 499.727631 518.983846 
L 520.810101 544.53061 
L 549.221114 548.930857 
z
" clip-path="url(#p7adeb28c7b)" style="fill: #8d0ba5"/>
    <path d="M 304.339101 310.311871 
L 273.751736 292.042772 
L 294.400079 318.201044 
L 324.818482 334.090454 
z
" clip-path="url(#p7adeb28c7b)" style="fill: #f1834c"/>
    <path d="M 437.010811 445.401416 
L 407.681152 435.616331 
L 428.613873 461.713659 
L 457.825202 469.461536 
z
" clip-path="url(#p7adeb28c7b)" style="fill: #be3885"/>
    <path d="M 549.221114 548.930857 
L 520.810101 544.53061 
L 541.975799 570.634955 
L 570.304095 573.020342 
z
" clip-path="url(#p7adeb28c7b)" style="fill: #8004a8"/>
    <path d="M 324.818482 334.090454 
L 294.400079 318.201044 
L 315.134857 344.746154 
L 345.400022 358.860504 
z
" clip-path="url(#p7adeb28c7b)" style="fill: #eb7655"/>
    <path d="M 457.825202 469.461536 
L 428.613873 461.713659 
L 449.632119 487.767025 
L 478.731689 493.967845 
z
" clip-path="url(#p7adeb28c7b)" style="fill: #b42e8d"/>
    <path d="M 570.304095 573.020342 
L 541.975799 570.634955 
L 563.224814 597.096029 
L 591.476114 597.583865 
z
" clip-path="url(#p7adeb28c7b)" style="fill: #7201a8"/>
    <path d="M 345.400022 358.860504 
L 315.134857 344.746154 
L 335.954368 371.67913 
L 366.072713 384.095695 
z
" clip-path="url(#p7adeb28c7b)" style="fill: #e56b5d"/>
    <path d="M 232.726692 241.108423 
L 201.235402 220.876367 
L 221.88663 248.093573 
L 253.195087 266.426812 
z
" clip-path="url(#p7adeb28c7b)" style="fill: #feba2c"/>
    <path d="M 478.731689 493.967845 
L 449.632119 487.767025 
L 470.734623 514.470499 
L 499.727631 518.983846 
z
" clip-path="url(#p7adeb28c7b)" style="fill: #aa2395"/>
    <path d="M 591.476114 597.583865 
L 563.224814 597.096029 
L 584.554686 623.959412 
L 612.737904 622.483948 
z
" clip-path="url(#p7adeb28c7b)" style="fill: #6400a7"/>
    <path d="M 366.072713 384.095695 
L 335.954368 371.67913 
L 356.856574 398.972771 
L 386.833758 409.712679 
z
" clip-path="url(#p7adeb28c7b)" style="fill: #de5f65"/>
    <path d="M 253.195087 266.426812 
L 221.88663 248.093573 
L 242.620186 275.626338 
L 273.751736 292.042772 
z
" clip-path="url(#p7adeb28c7b)" style="fill: #fdab33"/>
    <path d="M 499.727631 518.983846 
L 470.734623 514.470499 
L 491.917727 541.781935 
L 520.810101 544.53061 
z
" clip-path="url(#p7adeb28c7b)" style="fill: #9e199d"/>
    <path d="M 386.833758 409.712679 
L 356.856574 398.972771 
L 377.840179 426.664875 
L 407.681152 435.616331 
z
" clip-path="url(#p7adeb28c7b)" style="fill: #d5546e"/>
    <path d="M 273.751736 292.042772 
L 242.620186 275.626338 
L 263.436439 303.54684 
L 294.400079 318.201044 
z
" clip-path="url(#p7adeb28c7b)" style="fill: #fa9b3d"/>
    <path d="M 520.810101 544.53061 
L 491.917727 541.781935 
L 513.178015 569.673554 
L 541.975799 570.634955 
z
" clip-path="url(#p7adeb28c7b)" style="fill: #910ea3"/>
    <path d="M 407.681152 435.616331 
L 377.840179 426.664875 
L 398.90259 454.617874 
L 428.613873 461.713659 
z
" clip-path="url(#p7adeb28c7b)" style="fill: #cc4977"/>
    <path d="M 294.400079 318.201044 
L 263.436439 303.54684 
L 284.331327 331.73697 
L 315.134857 344.746154 
z
" clip-path="url(#p7adeb28c7b)" style="fill: #f68d45"/>
    <path d="M 541.975799 570.634955 
L 513.178015 569.673554 
L 534.513063 598.057873 
L 563.224814 597.096029 
z
" clip-path="url(#p7adeb28c7b)" style="fill: #8305a7"/>
    <path d="M 428.613873 461.713659 
L 398.90259 454.617874 
L 420.043137 482.911892 
L 449.632119 487.767025 
z
" clip-path="url(#p7adeb28c7b)" style="fill: #c33d80"/>
    <path d="M 315.134857 344.746154 
L 284.331327 331.73697 
L 305.305228 360.273832 
L 335.954368 371.67913 
z
" clip-path="url(#p7adeb28c7b)" style="fill: #f07f4f"/>
    <path d="M 563.224814 597.096029 
L 534.513063 598.057873 
L 555.920098 626.928804 
L 584.554686 623.959412 
z
" clip-path="url(#p7adeb28c7b)" style="fill: #7201a8"/>
    <path d="M 449.632119 487.767025 
L 420.043137 482.911892 
L 441.260416 511.331902 
L 470.734623 514.470499 
z
" clip-path="url(#p7adeb28c7b)" style="fill: #b83289"/>
    <path d="M 335.954368 371.67913 
L 305.305228 360.273832 
L 326.357317 389.207616 
L 356.856574 398.972771 
z
" clip-path="url(#p7adeb28c7b)" style="fill: #e97257"/>
    <path d="M 201.235402 220.876367 
L 169.140395 200.994208 
L 189.994286 230.341703 
L 221.88663 248.093573 
z
" clip-path="url(#p7adeb28c7b)" style="fill: #fad824"/>
    <path d="M 470.734623 514.470499 
L 441.260416 511.331902 
L 462.5529 540.407442 
L 491.917727 541.781935 
z
" clip-path="url(#p7adeb28c7b)" style="fill: #ac2694"/>
    <path d="M 356.856574 398.972771 
L 326.357317 389.207616 
L 347.489636 418.888788 
L 377.840179 426.664875 
z
" clip-path="url(#p7adeb28c7b)" style="fill: #e26561"/>
    <path d="M 221.88663 248.093573 
L 189.994286 230.341703 
L 210.917671 259.813249 
L 242.620186 275.626338 
z
" clip-path="url(#p7adeb28c7b)" style="fill: #fdc627"/>
    <path d="M 491.917727 541.781935 
L 462.5529 540.407442 
L 483.914686 570.416318 
L 513.178015 569.673554 
z
" clip-path="url(#p7adeb28c7b)" style="fill: #9e199d"/>
    <path d="M 377.840179 426.664875 
L 347.489636 418.888788 
L 368.695742 449.131793 
L 398.90259 454.617874 
z
" clip-path="url(#p7adeb28c7b)" style="fill: #d9586a"/>
    <path d="M 242.620186 275.626338 
L 210.917671 259.813249 
L 231.918241 289.702703 
L 263.436439 303.54684 
z
" clip-path="url(#p7adeb28c7b)" style="fill: #fdb52e"/>
    <path d="M 513.178015 569.673554 
L 483.914686 570.416318 
L 505.341883 601.049149 
L 534.513063 598.057873 
z
" clip-path="url(#p7adeb28c7b)" style="fill: #8f0da4"/>
    <path d="M 398.90259 454.617874 
L 368.695742 449.131793 
L 389.970244 479.610985 
L 420.043137 482.911892 
z
" clip-path="url(#p7adeb28c7b)" style="fill: #ce4b75"/>
    <path d="M 263.436439 303.54684 
L 231.918241 289.702703 
L 252.9938 320.007356 
L 284.331327 331.73697 
z
" clip-path="url(#p7adeb28c7b)" style="fill: #fca537"/>
    <path d="M 534.513063 598.057873 
L 505.341883 601.049149 
L 526.830587 632.284727 
L 555.920098 626.928804 
z
" clip-path="url(#p7adeb28c7b)" style="fill: #7e03a8"/>
    <path d="M 420.043137 482.911892 
L 389.970244 479.610985 
L 411.312673 510.433538 
L 441.260416 511.331902 
z
" clip-path="url(#p7adeb28c7b)" style="fill: #c43e7f"/>
    <path d="M 284.331327 331.73697 
L 252.9938 320.007356 
L 274.140742 350.656962 
L 305.305228 360.273832 
z
" clip-path="url(#p7adeb28c7b)" style="fill: #f89441"/>
    <path d="M 441.260416 511.331902 
L 411.312673 510.433538 
L 432.721259 541.529781 
L 462.5529 540.407442 
z
" clip-path="url(#p7adeb28c7b)" style="fill: #b7318a"/>
    <path d="M 305.305228 360.273832 
L 274.140742 350.656962 
L 295.359148 381.747964 
L 326.357317 389.207616 
z
" clip-path="url(#p7adeb28c7b)" style="fill: #f2844b"/>
    <path d="M 169.140395 200.994208 
L 136.435295 181.548026 
L 157.525352 213.57056 
L 189.994286 230.341703 
z
" clip-path="url(#p7adeb28c7b)" style="fill: #f0f921"/>
    <path d="M 462.5529 540.407442 
L 432.721259 541.529781 
L 454.193971 573.276257 
L 483.914686 570.416318 
z
" clip-path="url(#p7adeb28c7b)" style="fill: #aa2395"/>
    <path d="M 326.357317 389.207616 
L 295.359148 381.747964 
L 316.647735 413.356723 
L 347.489636 418.888788 
z
" clip-path="url(#p7adeb28c7b)" style="fill: #eb7556"/>
    <path d="M 189.994286 230.341703 
L 157.525352 213.57056 
L 178.670294 245.600851 
L 210.917671 259.813249 
z
" clip-path="url(#p7adeb28c7b)" style="fill: #f7e425"/>
    <path d="M 483.914686 570.416318 
L 454.193971 573.276257 
L 475.72564 605.824138 
L 505.341883 601.049149 
z
" clip-path="url(#p7adeb28c7b)" style="fill: #9a169f"/>
    <path d="M 347.489636 418.888788 
L 316.647735 413.356723 
L 338.001641 445.345993 
L 368.695742 449.131793 
z
" clip-path="url(#p7adeb28c7b)" style="fill: #e26660"/>
    <path d="M 210.917671 259.813249 
L 178.670294 245.600851 
L 199.870962 277.639417 
L 231.918241 289.702703 
z
" clip-path="url(#p7adeb28c7b)" style="fill: #fcd025"/>
    <path d="M 505.341883 601.049149 
L 475.72564 605.824138 
L 497.310898 639.118436 
L 526.830587 632.284727 
z
" clip-path="url(#p7adeb28c7b)" style="fill: #8808a6"/>
    <path d="M 368.695742 449.131793 
L 338.001641 445.345993 
L 359.418835 477.720606 
L 389.970244 479.610985 
z
" clip-path="url(#p7adeb28c7b)" style="fill: #d9586a"/>
    <path d="M 231.918241 289.702703 
L 199.870962 277.639417 
L 221.132726 309.852779 
L 252.9938 320.007356 
z
" clip-path="url(#p7adeb28c7b)" style="fill: #febb2b"/>
    <path d="M 389.970244 479.610985 
L 359.418835 477.720606 
L 380.896386 510.37481 
L 411.312673 510.433538 
z
" clip-path="url(#p7adeb28c7b)" style="fill: #cd4a76"/>
    <path d="M 252.9938 320.007356 
L 221.132726 309.852779 
L 242.457567 342.338985 
L 274.140742 350.656962 
z
" clip-path="url(#p7adeb28c7b)" style="fill: #fca934"/>
    <path d="M 411.312673 510.433538 
L 380.896386 510.37481 
L 402.43407 543.556583 
L 432.721259 541.529781 
z
" clip-path="url(#p7adeb28c7b)" style="fill: #c23c81"/>
    <path d="M 274.140742 350.656962 
L 242.457567 342.338985 
L 263.847063 375.224886 
L 295.359148 381.747964 
z
" clip-path="url(#p7adeb28c7b)" style="fill: #f9973f"/>
    <path d="M 432.721259 541.529781 
L 402.43407 543.556583 
L 424.028438 577.264559 
L 454.193971 573.276257 
z
" clip-path="url(#p7adeb28c7b)" style="fill: #b42e8d"/>
    <path d="M 295.359148 381.747964 
L 263.847063 375.224886 
L 285.300237 408.575823 
L 316.647735 413.356723 
z
" clip-path="url(#p7adeb28c7b)" style="fill: #f3854b"/>
    <path d="M 454.193971 573.276257 
L 424.028438 577.264559 
L 445.675541 611.88572 
L 475.72564 605.824138 
z
" clip-path="url(#p7adeb28c7b)" style="fill: #a31e9a"/>
    <path d="M 316.647735 413.356723 
L 285.300237 408.575823 
L 306.813946 442.372085 
L 338.001641 445.345993 
z
" clip-path="url(#p7adeb28c7b)" style="fill: #eb7556"/>
    <path d="M 475.72564 605.824138 
L 445.675541 611.88572 
L 467.36862 647.381952 
L 497.310898 639.118436 
z
" clip-path="url(#p7adeb28c7b)" style="fill: #910ea3"/>
    <path d="M 338.001641 445.345993 
L 306.813946 442.372085 
L 328.386567 476.692131 
L 359.418835 477.720606 
z
" clip-path="url(#p7adeb28c7b)" style="fill: #e26561"/>
    <path d="M 359.418835 477.720606 
L 328.386567 476.692131 
L 350.010938 511.203295 
L 380.896386 510.37481 
z
" clip-path="url(#p7adeb28c7b)" style="fill: #d6556d"/>
    <path d="M 380.896386 510.37481 
L 350.010938 511.203295 
L 371.69196 546.571165 
L 402.43407 543.556583 
z
" clip-path="url(#p7adeb28c7b)" style="fill: #ca457a"/>
    <path d="M 402.43407 543.556583 
L 371.69196 546.571165 
L 393.422476 582.651961 
L 424.028438 577.264559 
z
" clip-path="url(#p7adeb28c7b)" style="fill: #bc3587"/>
    <path d="M 424.028438 577.264559 
L 393.422476 582.651961 
L 415.196837 619.311123 
L 445.675541 611.88572 
z
" clip-path="url(#p7adeb28c7b)" style="fill: #ac2694"/>
    <path d="M 445.675541 611.88572 
L 415.196837 619.311123 
L 437.010811 656.908857 
L 467.36862 647.381952 
z
" clip-path="url(#p7adeb28c7b)" style="fill: #99159f"/>
   </g>
  </g>
 </g>
 <defs>
  <clipPath id="p7adeb28c7b">
   <rect x="7.2" y="7.2" width="837" height="837"/>
  </clipPath>
 </defs>
</svg>
