<?xml version="1.0" encoding="utf-8" standalone="no"?>
<!DOCTYPE svg PUBLIC "-//W3C//DTD SVG 1.1//EN"
  "http://www.w3.org/Graphics/SVG/1.1/DTD/svg11.dtd">
<svg xmlns:xlink="http://www.w3.org/1999/xlink" width="851.4pt" height="851.4pt" viewBox="0 0 851.4 851.4" xmlns="http://www.w3.org/2000/svg" version="1.1">
 <metadata>
  <rdf:RDF xmlns:dc="http://purl.org/dc/elements/1.1/" xmlns:cc="http://creativecommons.org/ns#" xmlns:rdf="http://www.w3.org/1999/02/22-rdf-syntax-ns#">
   <cc:Work>
    <dc:type rdf:resource="http://purl.org/dc/dcmitype/StillImage"/>
    <dc:date>2024-10-04T21:20:14.338625</dc:date>
    <dc:format>image/svg+xml</dc:format>
    <dc:creator>
     <cc:Agent>
      <dc:title>Matplotlib v3.8.4, https://matplotlib.org/</dc:title>
     </cc:Agent>
    </dc:creator>
   </cc:Work>
  </rdf:RDF>
 </metadata>
 <defs>
  <style type="text/css">*{stroke-linejoin: round; stroke-linecap: butt}</style>
 </defs>
 <g id="figure_1">
  <g id="patch_1">
   <path d="M 0 851.4 
L 851.4 851.4 
L 851.4 0 
L 0 0 
z
" style="fill: #ffffff"/>
  </g>
  <g id="patch_2">
   <path d="M 7.2 844.2 
L 844.2 844.2 
L 844.2 7.2 
L 7.2 7.2 
z
" style="fill: #ffffff"/>
  </g>
  <g id="pane3d_1">
   <g id="patch_3">
    <path d="M 437.010811 476.8238 
L 761.722012 643.060007 
L 781.847176 171.545661 
L 437.010811 24.840422 
" style="fill: #f2f2f2; opacity: 0.5; stroke: #f2f2f2; stroke-linejoin: miter"/>
   </g>
  </g>
  <g id="pane3d_2">
   <g id="patch_4">
    <path d="M 437.010811 476.8238 
L 112.29961 643.060007 
L 92.174445 171.545661 
L 437.010811 24.840422 
" style="fill: #e6e6e6; opacity: 0.5; stroke: #e6e6e6; stroke-linejoin: miter"/>
   </g>
  </g>
  <g id="pane3d_3">
   <g id="patch_5">
    <path d="M 437.010811 476.8238 
L 112.29961 643.060007 
L 437.010811 831.33048 
L 761.722012 643.060007 
" style="fill: #ececec; opacity: 0.5; stroke: #ececec; stroke-linejoin: miter"/>
   </g>
  </g>
  <g id="grid3d_1">
   <g id="Line3DCollection_1">
    <path d="M 742.265948 654.340808 
L 417.48383 486.820656 
L 416.344021 33.632784 
" style="fill: none; stroke: #b0b0b0; stroke-width: 0.8"/>
    <path d="M 682.00655 689.279748 
L 357.062315 517.753508 
L 352.338696 60.862849 
" style="fill: none; stroke: #b0b0b0; stroke-width: 0.8"/>
    <path d="M 620.252441 725.085335 
L 295.23215 549.40752 
L 286.751915 88.765719 
" style="fill: none; stroke: #b0b0b0; stroke-width: 0.8"/>
    <path d="M 556.94731 761.79022 
L 231.943492 581.808208 
L 219.524334 117.366642 
" style="fill: none; stroke: #b0b0b0; stroke-width: 0.8"/>
    <path d="M 492.031979 799.428712 
L 167.144121 614.982307 
L 150.5936 146.692146 
" style="fill: none; stroke: #b0b0b0; stroke-width: 0.8"/>
   </g>
  </g>
  <g id="grid3d_2">
   <g id="Line3DCollection_2">
    <path d="M 486.287969 45.804618 
L 483.556247 500.65278 
L 158.690921 669.958106 
" style="fill: none; stroke: #b0b0b0; stroke-width: 0.8"/>
    <path d="M 544.455432 70.551056 
L 538.437128 528.749099 
L 213.456162 701.711485 
" style="fill: none; stroke: #b0b0b0; stroke-width: 0.8"/>
    <path d="M 603.920394 95.849494 
L 594.472905 557.436668 
L 269.447793 734.175936 
" style="fill: none; stroke: #b0b0b0; stroke-width: 0.8"/>
    <path d="M 664.726757 121.71861 
L 651.700418 586.734348 
L 326.707476 767.375615 
" style="fill: none; stroke: #b0b0b0; stroke-width: 0.8"/>
    <path d="M 726.920428 148.177935 
L 710.158096 616.661811 
L 385.27878 801.335783 
" style="fill: none; stroke: #b0b0b0; stroke-width: 0.8"/>
   </g>
  </g>
  <g id="grid3d_3">
   <g id="Line3DCollection_3">
    <path d="M 111.500081 624.327767 
L 437.010811 458.804955 
L 762.521541 624.327767 
" style="fill: none; stroke: #b0b0b0; stroke-width: 0.8"/>
    <path d="M 108.433208 552.473728 
L 437.010811 389.735515 
L 765.588413 552.473728 
" style="fill: none; stroke: #b0b0b0; stroke-width: 0.8"/>
    <path d="M 105.307996 479.252834 
L 437.010811 319.430633 
L 768.713626 479.252834 
" style="fill: none; stroke: #b0b0b0; stroke-width: 0.8"/>
    <path d="M 102.122762 404.625706 
L 437.010811 247.85686 
L 771.898859 404.625706 
" style="fill: none; stroke: #b0b0b0; stroke-width: 0.8"/>
    <path d="M 98.875762 328.551443 
L 437.010811 174.979532 
L 775.145859 328.551443 
" style="fill: none; stroke: #b0b0b0; stroke-width: 0.8"/>
    <path d="M 95.565182 250.987538 
L 437.010811 100.762709 
L 778.45644 250.987538 
" style="fill: none; stroke: #b0b0b0; stroke-width: 0.8"/>
   </g>
  </g>
  <g id="axis3d_1">
   <g id="line2d_1">
    <path d="M 761.722012 643.060007 
L 437.010811 831.33048 
" style="fill: none; stroke: #000000; stroke-width: 0.8; stroke-linecap: square"/>
   </g>
   <g id="xtick_1">
    <g id="line2d_2">
     <path d="M 739.506933 652.917729 
L 747.79225 657.191232 
" style="fill: none; stroke: #000000; stroke-width: 0.8; stroke-linecap: square"/>
    </g>
    <g id="text_1">
     <!-- $\mathdefault{7.4}$ -->
     <g transform="translate(740.175505 686.760409) scale(0.2 -0.2)">
      <defs>
       <path id="CMR17-37" d="M 2886 3941 
L 2886 4081 
L 1382 4081 
C 634 4081 621 4165 595 4288 
L 480 4288 
L 294 3094 
L 410 3094 
C 429 3215 474 3540 550 3661 
C 589 3712 1062 3712 1171 3712 
L 2579 3712 
L 1869 2661 
C 1395 1954 1069 999 1069 165 
C 1069 89 1069 -128 1299 -128 
C 1530 -128 1530 89 1530 171 
L 1530 465 
C 1530 1508 1709 2196 2003 2636 
L 2886 3941 
z
" transform="scale(0.015625)"/>
       <path id="CMMI12-3a" d="M 1178 307 
C 1178 492 1024 619 870 619 
C 685 619 557 466 557 313 
C 557 128 710 0 864 0 
C 1050 0 1178 153 1178 307 
z
" transform="scale(0.015625)"/>
       <path id="CMR17-34" d="M 2150 4122 
C 2150 4256 2144 4256 2029 4256 
L 128 1254 
L 128 1088 
L 1779 1088 
L 1779 457 
C 1779 224 1766 160 1318 160 
L 1197 160 
L 1197 0 
C 1402 0 1747 0 1965 0 
C 2182 0 2528 0 2733 0 
L 2733 160 
L 2611 160 
C 2163 160 2150 224 2150 457 
L 2150 1088 
L 2803 1088 
L 2803 1254 
L 2150 1254 
L 2150 4122 
z
M 1798 3703 
L 1798 1254 
L 256 1254 
L 1798 3703 
z
" transform="scale(0.015625)"/>
      </defs>
      <use xlink:href="#CMR17-37" transform="scale(0.996264)"/>
      <use xlink:href="#CMMI12-3a" transform="translate(45.690477 0) scale(0.996264)"/>
      <use xlink:href="#CMR17-34" transform="translate(72.787654 0) scale(0.996264)"/>
     </g>
    </g>
   </g>
   <g id="xtick_2">
    <g id="line2d_3">
     <path d="M 679.244189 687.821598 
L 687.539657 692.200474 
" style="fill: none; stroke: #000000; stroke-width: 0.8; stroke-linecap: square"/>
    </g>
    <g id="text_2">
     <!-- $\mathdefault{7.6}$ -->
     <g transform="translate(680.028725 721.931036) scale(0.2 -0.2)">
      <defs>
       <path id="CMR17-36" d="M 678 2176 
C 678 3690 1395 4032 1811 4032 
C 1946 4032 2272 4009 2400 3776 
C 2298 3776 2106 3776 2106 3553 
C 2106 3381 2246 3323 2336 3323 
C 2394 3323 2566 3348 2566 3560 
C 2566 3954 2246 4179 1805 4179 
C 1043 4179 243 3390 243 1984 
C 243 253 966 -128 1478 -128 
C 2099 -128 2688 427 2688 1283 
C 2688 2081 2170 2662 1517 2662 
C 1126 2662 838 2407 678 1960 
L 678 2176 
z
M 1478 25 
C 691 25 691 1200 691 1436 
C 691 1896 909 2560 1504 2560 
C 1613 2560 1926 2560 2138 2120 
C 2253 1870 2253 1609 2253 1289 
C 2253 944 2253 690 2118 434 
C 1978 171 1773 25 1478 25 
z
" transform="scale(0.015625)"/>
      </defs>
      <use xlink:href="#CMR17-37" transform="scale(0.996264)"/>
      <use xlink:href="#CMMI12-3a" transform="translate(45.690477 0) scale(0.996264)"/>
      <use xlink:href="#CMR17-36" transform="translate(72.787654 0) scale(0.996264)"/>
     </g>
    </g>
   </g>
   <g id="xtick_3">
    <g id="line2d_4">
     <path d="M 617.487415 723.590801 
L 625.790991 728.078995 
" style="fill: none; stroke: #000000; stroke-width: 0.8; stroke-linecap: square"/>
    </g>
    <g id="text_3">
     <!-- $\mathdefault{7.8}$ -->
     <g transform="translate(618.389853 757.974159) scale(0.2 -0.2)">
      <defs>
       <path id="CMR17-38" d="M 1741 2264 
C 2144 2467 2554 2773 2554 3263 
C 2554 3841 1990 4179 1472 4179 
C 890 4179 378 3759 378 3180 
C 378 3021 416 2747 666 2505 
C 730 2442 998 2251 1171 2130 
C 883 1983 211 1634 211 934 
C 211 279 838 -128 1459 -128 
C 2144 -128 2720 362 2720 1010 
C 2720 1590 2330 1857 2074 2029 
L 1741 2264 
z
M 902 2822 
C 851 2854 595 3051 595 3351 
C 595 3739 998 4032 1459 4032 
C 1965 4032 2336 3676 2336 3262 
C 2336 2669 1670 2331 1638 2331 
C 1632 2331 1626 2331 1574 2370 
L 902 2822 
z
M 2080 1519 
C 2176 1449 2483 1240 2483 851 
C 2483 381 2010 25 1472 25 
C 890 25 448 438 448 940 
C 448 1443 838 1862 1280 2060 
L 2080 1519 
z
" transform="scale(0.015625)"/>
      </defs>
      <use xlink:href="#CMR17-37" transform="scale(0.996264)"/>
      <use xlink:href="#CMMI12-3a" transform="translate(45.690477 0) scale(0.996264)"/>
      <use xlink:href="#CMR17-38" transform="translate(72.787654 0) scale(0.996264)"/>
     </g>
    </g>
   </g>
   <g id="xtick_4">
    <g id="line2d_5">
     <path d="M 554.180354 760.257923 
L 562.48983 764.85958 
" style="fill: none; stroke: #000000; stroke-width: 0.8; stroke-linecap: square"/>
    </g>
    <g id="text_4">
     <!-- $\mathdefault{8.0}$ -->
     <g transform="translate(555.20267 794.922651) scale(0.2 -0.2)">
      <defs>
       <path id="CMR17-30" d="M 2688 2025 
C 2688 2416 2682 3080 2413 3591 
C 2176 4039 1798 4198 1466 4198 
C 1158 4198 768 4058 525 3597 
C 269 3118 243 2524 243 2025 
C 243 1661 250 1106 448 619 
C 723 -39 1216 -128 1466 -128 
C 1760 -128 2208 -7 2470 600 
C 2662 1042 2688 1559 2688 2025 
z
M 1466 -26 
C 1056 -26 813 325 723 812 
C 653 1188 653 1738 653 2096 
C 653 2588 653 2997 736 3387 
C 858 3929 1216 4096 1466 4096 
C 1728 4096 2067 3923 2189 3400 
C 2272 3036 2278 2607 2278 2096 
C 2278 1680 2278 1169 2202 792 
C 2067 95 1690 -26 1466 -26 
z
" transform="scale(0.015625)"/>
      </defs>
      <use xlink:href="#CMR17-38" transform="scale(0.996264)"/>
      <use xlink:href="#CMMI12-3a" transform="translate(45.690477 0) scale(0.996264)"/>
      <use xlink:href="#CMR17-30" transform="translate(72.787654 0) scale(0.996264)"/>
     </g>
    </g>
   </g>
   <g id="xtick_5">
    <g id="line2d_6">
     <path d="M 489.263889 797.857203 
L 497.57688 802.576682 
" style="fill: none; stroke: #000000; stroke-width: 0.8; stroke-linecap: square"/>
    </g>
    <g id="text_5">
     <!-- $\mathdefault{8.2}$ -->
     <g transform="translate(490.408096 832.811061) scale(0.2 -0.2)">
      <defs>
       <path id="CMR17-32" d="M 2669 989 
L 2554 989 
C 2490 536 2438 459 2413 420 
C 2381 369 1920 369 1830 369 
L 602 369 
C 832 619 1280 1072 1824 1597 
C 2214 1967 2669 2402 2669 3035 
C 2669 3790 2067 4224 1395 4224 
C 691 4224 262 3604 262 3030 
C 262 2780 448 2748 525 2748 
C 589 2748 781 2787 781 3010 
C 781 3207 614 3264 525 3264 
C 486 3264 448 3258 422 3245 
C 544 3790 915 4058 1306 4058 
C 1862 4058 2227 3617 2227 3035 
C 2227 2479 1901 2000 1536 1584 
L 262 146 
L 262 0 
L 2515 0 
L 2669 989 
z
" transform="scale(0.015625)"/>
      </defs>
      <use xlink:href="#CMR17-38" transform="scale(0.996264)"/>
      <use xlink:href="#CMMI12-3a" transform="translate(45.690477 0) scale(0.996264)"/>
      <use xlink:href="#CMR17-32" transform="translate(72.787654 0) scale(0.996264)"/>
     </g>
    </g>
   </g>
   <g id="text_6">
    <!-- $\lambda$ -->
    <g transform="translate(633.135195 803.421735) rotate(-30.105543) scale(0.25 -0.25)">
     <defs>
      <path id="CMMI12-15" d="M 1978 3965 
C 1818 4416 1312 4416 1229 4416 
C 1190 4416 1120 4416 1120 4352 
C 1120 4302 1158 4295 1190 4289 
C 1286 4276 1363 4263 1466 4080 
C 1530 3959 2189 2059 2189 2046 
C 2189 2040 2182 2033 2131 1982 
L 467 311 
C 390 234 339 183 339 102 
C 339 12 416 -64 518 -64 
C 544 -64 614 -51 653 -13 
C 755 82 1670 1194 2253 1881 
C 2419 1383 2624 797 2822 261 
C 2854 166 2886 76 2976 -6 
C 3040 -64 3053 -64 3232 -64 
L 3354 -64 
C 3379 -64 3424 -64 3424 -13 
C 3424 13 3418 19 3392 45 
C 3334 115 3290 229 3264 306 
L 1978 3965 
z
" transform="scale(0.015625)"/>
     </defs>
     <use xlink:href="#CMMI12-15" transform="scale(0.996264)"/>
    </g>
   </g>
  </g>
  <g id="axis3d_2">
   <g id="line2d_7">
    <path d="M 112.29961 643.060007 
L 437.010811 831.33048 
" style="fill: none; stroke: #000000; stroke-width: 0.8; stroke-linecap: square"/>
   </g>
   <g id="xtick_6">
    <g id="line2d_8">
     <path d="M 161.451523 668.519403 
L 153.161395 672.839848 
" style="fill: none; stroke: #000000; stroke-width: 0.8; stroke-linecap: square"/>
    </g>
    <g id="text_7">
     <!-- $\mathdefault{−0.4}$ -->
     <g transform="translate(129.286634 702.481257) scale(0.2 -0.2)">
      <defs>
       <path id="CMSY10-0" d="M 4218 1472 
C 4326 1472 4442 1472 4442 1600 
C 4442 1728 4326 1728 4218 1728 
L 755 1728 
C 646 1728 531 1728 531 1600 
C 531 1472 646 1472 755 1472 
L 4218 1472 
z
" transform="scale(0.015625)"/>
      </defs>
      <use xlink:href="#CMSY10-0" transform="scale(0.996264)"/>
      <use xlink:href="#CMR17-30" transform="translate(77.487468 0) scale(0.996264)"/>
      <use xlink:href="#CMMI12-3a" transform="translate(123.177945 0) scale(0.996264)"/>
      <use xlink:href="#CMR17-34" transform="translate(150.275122 0) scale(0.996264)"/>
     </g>
    </g>
   </g>
   <g id="xtick_7">
    <g id="line2d_9">
     <path d="M 216.219537 700.240753 
L 207.92099 704.657432 
" style="fill: none; stroke: #000000; stroke-width: 0.8; stroke-linecap: square"/>
    </g>
    <g id="text_8">
     <!-- $\mathdefault{−0.2}$ -->
     <g transform="translate(183.949587 734.445234) scale(0.2 -0.2)">
      <use xlink:href="#CMSY10-0" transform="scale(0.996264)"/>
      <use xlink:href="#CMR17-30" transform="translate(77.487468 0) scale(0.996264)"/>
      <use xlink:href="#CMMI12-3a" transform="translate(123.177945 0) scale(0.996264)"/>
      <use xlink:href="#CMR17-32" transform="translate(150.275122 0) scale(0.996264)"/>
     </g>
    </g>
   </g>
   <g id="xtick_8">
    <g id="line2d_10">
     <path d="M 272.213373 732.672093 
L 263.908109 737.188256 
" style="fill: none; stroke: #000000; stroke-width: 0.8; stroke-linecap: square"/>
    </g>
    <g id="text_9">
     <!-- $\mathdefault{0.0}$ -->
     <g transform="translate(247.585526 767.125084) scale(0.2 -0.2)">
      <use xlink:href="#CMR17-30" transform="scale(0.996264)"/>
      <use xlink:href="#CMMI12-3a" transform="translate(45.690477 0) scale(0.996264)"/>
      <use xlink:href="#CMR17-30" transform="translate(72.787654 0) scale(0.996264)"/>
     </g>
    </g>
   </g>
   <g id="xtick_9">
    <g id="line2d_11">
     <path d="M 329.474654 765.83753 
L 321.164494 770.456578 
" style="fill: none; stroke: #000000; stroke-width: 0.8; stroke-linecap: square"/>
    </g>
    <g id="text_10">
     <!-- $\mathdefault{0.2}$ -->
     <g transform="translate(304.738557 800.545126) scale(0.2 -0.2)">
      <use xlink:href="#CMR17-30" transform="scale(0.996264)"/>
      <use xlink:href="#CMMI12-3a" transform="translate(45.690477 0) scale(0.996264)"/>
      <use xlink:href="#CMR17-32" transform="translate(72.787654 0) scale(0.996264)"/>
     </g>
    </g>
   </g>
   <g id="xtick_10">
    <g id="line2d_12">
     <path d="M 388.046904 799.762274 
L 379.733804 804.487762 
" style="fill: none; stroke: #000000; stroke-width: 0.8; stroke-linecap: square"/>
    </g>
    <g id="text_11">
     <!-- $\mathdefault{0.4}$ -->
     <g transform="translate(363.200923 834.730798) scale(0.2 -0.2)">
      <use xlink:href="#CMR17-30" transform="scale(0.996264)"/>
      <use xlink:href="#CMMI12-3a" transform="translate(45.690477 0) scale(0.996264)"/>
      <use xlink:href="#CMR17-34" transform="translate(72.787654 0) scale(0.996264)"/>
     </g>
    </g>
   </g>
   <g id="text_12">
    <!-- $\theta_p\:\unit{[\degree]}$ -->
    <g transform="translate(214.367063 787.513729) rotate(-329.894457) scale(0.25 -0.25)">
     <defs>
      <path id="CMMI12-12" d="M 2835 3200 
C 2835 3850 2630 4480 2106 4480 
C 1210 4480 256 2615 256 1216 
C 256 923 320 -64 992 -64 
C 1862 -64 2835 1756 2835 3200 
z
M 896 2304 
C 992 2679 1126 3214 1382 3665 
C 1594 4047 1818 4352 2099 4352 
C 2310 4352 2451 4174 2451 3564 
C 2451 3334 2432 3017 2246 2304 
L 896 2304 
z
M 2202 2113 
C 2042 1490 1907 1088 1677 687 
C 1491 363 1267 64 998 64 
C 800 64 640 217 640 846 
C 640 1260 742 1693 845 2113 
L 2202 2113 
z
" transform="scale(0.015625)"/>
      <path id="CMMI12-70" d="M 275 -789 
C 230 -980 205 -1031 -58 -1031 
C -134 -1031 -198 -1031 -198 -1152 
C -198 -1165 -192 -1216 -122 -1216 
C -38 -1216 51 -1216 134 -1216 
L 410 -1216 
C 544 -1216 870 -1216 1005 -1216 
C 1043 -1216 1120 -1216 1120 -1101 
C 1120 -1031 1075 -1031 966 -1031 
C 672 -1031 653 -987 653 -937 
C 653 -861 941 219 979 364 
C 1050 185 1222 -64 1555 -64 
C 2278 -64 3059 875 3059 1814 
C 3059 2401 2726 2816 2246 2816 
C 1837 2816 1491 2420 1421 2331 
C 1370 2650 1120 2816 864 2816 
C 678 2816 531 2727 410 2484 
C 294 2254 205 1865 205 1839 
C 205 1814 230 1782 275 1782 
C 326 1782 333 1788 371 1935 
C 467 2312 589 2689 845 2689 
C 992 2689 1043 2587 1043 2397 
C 1043 2245 1024 2181 998 2067 
L 275 -789 
z
M 1382 1993 
C 1427 2171 1606 2357 1709 2446 
C 1779 2510 1990 2689 2234 2689 
C 2515 2689 2643 2408 2643 2076 
C 2643 1769 2464 1047 2304 715 
C 2144 370 1850 64 1555 64 
C 1120 64 1050 613 1050 639 
C 1050 658 1062 709 1069 741 
L 1382 1993 
z
" transform="scale(0.015625)"/>
      <path id="CMR17-5b" d="M 1504 -1600 
L 1504 -1377 
L 902 -1377 
L 902 4544 
L 1504 4544 
L 1504 4767 
L 678 4767 
L 678 -1600 
L 1504 -1600 
z
" transform="scale(0.015625)"/>
      <path id="CMSY10-e" d="M 2842 1600 
C 2842 2277 2272 2828 1600 2828 
C 909 2828 352 2264 352 1600 
C 352 930 909 372 1600 372 
C 2272 372 2842 923 2842 1600 
z
M 1600 628 
C 1043 628 608 1070 608 1600 
C 608 2130 1050 2572 1600 2572 
C 2131 2572 2586 2142 2586 1600 
C 2586 1058 2131 628 1600 628 
z
" transform="scale(0.015625)"/>
      <path id="CMR17-5d" d="M 915 4767 
L 90 4767 
L 90 4544 
L 691 4544 
L 691 -1377 
L 90 -1377 
L 90 -1600 
L 915 -1600 
L 915 4767 
z
" transform="scale(0.015625)"/>
     </defs>
     <use xlink:href="#CMMI12-12" transform="scale(0.996264)"/>
     <use xlink:href="#CMMI12-70" transform="translate(45.45979 -14.943915) scale(0.697382)"/>
     <use xlink:href="#CMR17-5b" transform="translate(102.368635 0) scale(0.996264)"/>
     <use xlink:href="#CMSY10-e" transform="translate(127.239694 36.153639) scale(0.697382)"/>
     <use xlink:href="#CMR17-5d" transform="translate(162.607036 0) scale(0.996264)"/>
    </g>
   </g>
  </g>
  <g id="axis3d_3">
   <g id="line2d_13">
    <path d="M 112.29961 643.060007 
L 92.174445 171.545661 
" style="fill: none; stroke: #000000; stroke-width: 0.8; stroke-linecap: square"/>
   </g>
   <g id="xtick_11">
    <g id="line2d_14">
     <path d="M 114.265043 622.921778 
L 105.961878 627.143953 
" style="fill: none; stroke: #000000; stroke-width: 0.8; stroke-linecap: square"/>
    </g>
    <g id="text_13">
     <!-- $\mathdefault{7.2}$ -->
     <g transform="translate(65.304469 638.164764) scale(0.2 -0.2)">
      <use xlink:href="#CMR17-37" transform="scale(0.996264)"/>
      <use xlink:href="#CMMI12-3a" transform="translate(45.690477 0) scale(0.996264)"/>
      <use xlink:href="#CMR17-32" transform="translate(72.787654 0) scale(0.996264)"/>
     </g>
    </g>
   </g>
   <g id="xtick_12">
    <g id="line2d_15">
     <path d="M 111.225751 551.090635 
L 102.839685 555.244094 
" style="fill: none; stroke: #000000; stroke-width: 0.8; stroke-linecap: square"/>
    </g>
    <g id="text_14">
     <!-- $\mathdefault{7.4}$ -->
     <g transform="translate(61.913981 566.310725) scale(0.2 -0.2)">
      <use xlink:href="#CMR17-37" transform="scale(0.996264)"/>
      <use xlink:href="#CMMI12-3a" transform="translate(45.690477 0) scale(0.996264)"/>
      <use xlink:href="#CMR17-34" transform="translate(72.787654 0) scale(0.996264)"/>
     </g>
    </g>
   </g>
   <g id="xtick_13">
    <g id="line2d_16">
     <path d="M 108.128672 477.893765 
L 99.658038 481.975116 
" style="fill: none; stroke: #000000; stroke-width: 0.8; stroke-linecap: square"/>
    </g>
    <g id="text_15">
     <!-- $\mathdefault{7.6}$ -->
     <g transform="translate(58.458997 493.08983) scale(0.2 -0.2)">
      <use xlink:href="#CMR17-37" transform="scale(0.996264)"/>
      <use xlink:href="#CMMI12-3a" transform="translate(45.690477 0) scale(0.996264)"/>
      <use xlink:href="#CMR17-36" transform="translate(72.787654 0) scale(0.996264)"/>
     </g>
    </g>
   </g>
   <g id="xtick_14">
    <g id="line2d_17">
     <path d="M 104.972143 403.291845 
L 96.415224 407.297537 
" style="fill: none; stroke: #000000; stroke-width: 0.8; stroke-linecap: square"/>
    </g>
    <g id="text_16">
     <!-- $\mathdefault{7.8}$ -->
     <g transform="translate(54.937658 418.462703) scale(0.2 -0.2)">
      <use xlink:href="#CMR17-37" transform="scale(0.996264)"/>
      <use xlink:href="#CMMI12-3a" transform="translate(45.690477 0) scale(0.996264)"/>
      <use xlink:href="#CMR17-38" transform="translate(72.787654 0) scale(0.996264)"/>
     </g>
    </g>
   </g>
   <g id="xtick_15">
    <g id="line2d_18">
     <path d="M 101.754437 327.244026 
L 93.109461 331.170343 
" style="fill: none; stroke: #000000; stroke-width: 0.8; stroke-linecap: square"/>
    </g>
    <g id="text_17">
     <!-- $\mathdefault{8.0}$ -->
     <g transform="translate(51.348036 342.38844) scale(0.2 -0.2)">
      <use xlink:href="#CMR17-38" transform="scale(0.996264)"/>
      <use xlink:href="#CMMI12-3a" transform="translate(45.690477 0) scale(0.996264)"/>
      <use xlink:href="#CMR17-30" transform="translate(72.787654 0) scale(0.996264)"/>
     </g>
    </g>
   </g>
   <g id="xtick_16">
    <g id="line2d_19">
     <path d="M 98.473755 249.707862 
L 89.7389 253.55091 
" style="fill: none; stroke: #000000; stroke-width: 0.8; stroke-linecap: square"/>
    </g>
    <g id="text_18">
     <!-- $\mathdefault{8.2}$ -->
     <g transform="translate(47.688123 264.824535) scale(0.2 -0.2)">
      <use xlink:href="#CMR17-38" transform="scale(0.996264)"/>
      <use xlink:href="#CMMI12-3a" transform="translate(45.690477 0) scale(0.996264)"/>
      <use xlink:href="#CMR17-32" transform="translate(72.787654 0) scale(0.996264)"/>
     </g>
    </g>
   </g>
   <g id="text_19">
    <!-- $\times\mathdefault{10^{12}}\mathdefault{}$ -->
    <g transform="translate(-1.479652 171.761614) rotate(-272.444014) scale(0.2 -0.2)">
     <defs>
      <path id="CMSY10-2" d="M 2490 1785 
L 1210 3059 
C 1133 3136 1120 3148 1069 3148 
C 1005 3148 941 3091 941 3020 
C 941 2976 954 2963 1024 2892 
L 2304 1606 
L 1024 320 
C 954 249 941 236 941 192 
C 941 121 1005 64 1069 64 
C 1120 64 1133 76 1210 153 
L 2483 1427 
L 3808 102 
C 3821 96 3866 64 3904 64 
C 3981 64 4032 121 4032 192 
C 4032 204 4032 230 4013 262 
C 4006 275 2989 1280 2669 1606 
L 3840 2777 
C 3872 2816 3968 2899 4000 2937 
C 4006 2950 4032 2976 4032 3020 
C 4032 3091 3981 3148 3904 3148 
C 3853 3148 3827 3123 3757 3052 
L 2490 1785 
z
" transform="scale(0.015625)"/>
      <path id="CMR17-31" d="M 1702 4058 
C 1702 4192 1696 4192 1606 4192 
C 1357 3916 979 3827 621 3827 
C 602 3827 570 3827 563 3808 
C 557 3795 557 3782 557 3648 
C 755 3648 1088 3686 1344 3839 
L 1344 461 
C 1344 236 1331 160 781 160 
L 589 160 
L 589 0 
C 896 0 1216 0 1523 0 
C 1830 0 2150 0 2458 0 
L 2458 160 
L 2266 160 
C 1715 160 1702 230 1702 458 
L 1702 4058 
z
" transform="scale(0.015625)"/>
     </defs>
     <use xlink:href="#CMSY10-2" transform="scale(0.996264)"/>
     <use xlink:href="#CMR17-31" transform="translate(77.487468 0) scale(0.996264)"/>
     <use xlink:href="#CMR17-30" transform="translate(123.177945 0) scale(0.996264)"/>
     <use xlink:href="#CMR17-31" transform="translate(168.868422 36.153639) scale(0.697382)"/>
     <use xlink:href="#CMR17-32" transform="translate(200.851604 36.153639) scale(0.697382)"/>
    </g>
   </g>
   <g id="text_20">
    <!-- $C_T$ -->
    <g transform="translate(9.80238 400.940374) rotate(-272.444014) scale(0.25 -0.25)">
     <defs>
      <path id="CMMI12-43" d="M 4781 4423 
C 4781 4480 4736 4480 4723 4480 
C 4710 4480 4685 4480 4634 4416 
L 4192 3882 
C 3968 4264 3616 4480 3136 4480 
C 1754 4480 320 3088 320 1595 
C 320 533 1069 -128 2003 -128 
C 2515 -128 2963 88 3334 400 
C 3891 863 4058 1481 4058 1531 
C 4058 1588 4006 1588 3987 1588 
C 3930 1588 3923 1550 3910 1524 
C 3616 534 2752 57 2112 57 
C 1434 57 845 489 845 1391 
C 845 1595 909 2700 1632 3532 
C 1984 3939 2586 4295 3194 4295 
C 3898 4295 4211 3717 4211 3068 
C 4211 2903 4192 2764 4192 2738 
C 4192 2681 4256 2681 4275 2681 
C 4346 2681 4352 2687 4378 2801 
L 4781 4423 
z
" transform="scale(0.015625)"/>
      <path id="CMMI12-54" d="M 2669 3910 
C 2707 4064 2720 4121 2816 4147 
C 2867 4160 3078 4160 3213 4160 
C 3853 4160 4154 4134 4154 3634 
C 4154 3537 4128 3295 4090 3057 
L 4083 2980 
C 4083 2954 4109 2916 4147 2916 
C 4211 2916 4211 2948 4230 3050 
L 4416 4184 
C 4429 4243 4429 4256 4429 4275 
C 4429 4345 4390 4345 4262 4345 
L 762 4345 
C 614 4345 608 4339 570 4224 
L 179 3070 
C 173 3056 154 2986 154 2980 
C 154 2948 179 2916 218 2916 
C 269 2916 282 2941 307 3024 
C 576 3801 710 4160 1562 4160 
L 1990 4160 
C 2144 4160 2208 4160 2208 4089 
C 2208 4069 2208 4057 2176 3941 
L 1318 499 
C 1254 249 1242 185 563 185 
C 403 185 358 185 358 64 
C 358 0 429 0 461 0 
C 621 0 787 0 947 0 
L 1946 0 
C 2106 0 2278 0 2438 0 
C 2509 0 2573 0 2573 121 
C 2573 185 2528 185 2362 185 
C 1786 185 1786 243 1786 339 
C 1786 346 1786 391 1811 494 
L 2669 3910 
z
" transform="scale(0.015625)"/>
     </defs>
     <use xlink:href="#CMMI12-43" transform="scale(0.996264)"/>
     <use xlink:href="#CMMI12-54" transform="translate(69.792037 -14.943915) scale(0.697382)"/>
    </g>
   </g>
  </g>
  <g id="axes_1">
   <g id="Poly3DCollection_1">
    <path d="M 437.010811 350.682083 
L 406.268855 331.236103 
L 433.925949 359.285205 
L 464.492142 378.492026 
z
" clip-path="url(#p469b2048cf)" style="fill: #9c179e"/>
    <path d="M 464.492142 378.492026 
L 433.925949 359.285205 
L 461.776112 387.37807 
L 492.163747 406.392081 
z
" clip-path="url(#p469b2048cf)" style="fill: #8e0ca4"/>
    <path d="M 492.163747 406.392081 
L 461.776112 387.37807 
L 489.820923 415.824447 
L 520.02909 434.34668 
z
" clip-path="url(#p469b2048cf)" style="fill: #8104a7"/>
    <path d="M 406.268855 331.236103 
L 374.883595 310.501744 
L 402.72226 339.054716 
L 433.925949 359.285205 
z
" clip-path="url(#p469b2048cf)" style="fill: #b7318a"/>
    <path d="M 520.02909 434.34668 
L 489.820923 415.824447 
L 518.061157 444.586749 
L 548.092133 462.327609 
z
" clip-path="url(#p469b2048cf)" style="fill: #7201a8"/>
    <path d="M 433.925949 359.285205 
L 402.72226 339.054716 
L 430.754883 367.888598 
L 461.776112 387.37807 
z
" clip-path="url(#p469b2048cf)" style="fill: #ac2694"/>
    <path d="M 548.092133 462.327609 
L 518.061157 444.586749 
L 546.501451 473.393437 
L 576.350522 490.687535 
z
" clip-path="url(#p469b2048cf)" style="fill: #6400a7"/>
    <path d="M 461.776112 387.37807 
L 430.754883 367.888598 
L 458.98311 396.828469 
L 489.820923 415.824447 
z
" clip-path="url(#p469b2048cf)" style="fill: #a11b9b"/>
    <path d="M 576.350522 490.687535 
L 546.501451 473.393437 
L 575.140999 502.508019 
L 604.811845 519.082537 
z
" clip-path="url(#p469b2048cf)" style="fill: #5502a4"/>
    <path d="M 489.820923 415.824447 
L 458.98311 396.828469 
L 487.408793 426.067724 
L 518.061157 444.586749 
z
" clip-path="url(#p469b2048cf)" style="fill: #9410a2"/>
    <path d="M 374.883595 310.501744 
L 342.832089 289.114533 
L 370.861001 318.677283 
L 402.72226 339.054716 
z
" clip-path="url(#p469b2048cf)" style="fill: #ce4b75"/>
    <path d="M 604.811845 519.082537 
L 575.140999 502.508019 
L 603.982 531.874961 
L 633.484533 547.341054 
z
" clip-path="url(#p469b2048cf)" style="fill: #46039f"/>
    <path d="M 402.72226 339.054716 
L 370.861001 318.677283 
L 399.084496 349.0375 
L 430.754883 367.888598 
z
" clip-path="url(#p469b2048cf)" style="fill: #c5407e"/>
    <path d="M 518.061157 444.586749 
L 487.408793 426.067724 
L 516.0313 455.772124 
L 546.501451 473.393437 
z
" clip-path="url(#p469b2048cf)" style="fill: #8606a6"/>
    <path d="M 633.484533 547.341054 
L 603.982 531.874961 
L 633.037953 561.03031 
L 662.358915 576.00214 
z
" clip-path="url(#p469b2048cf)" style="fill: #350498"/>
    <path d="M 430.754883 367.888598 
L 399.084496 349.0375 
L 427.497462 379.641368 
L 458.98311 396.828469 
z
" clip-path="url(#p469b2048cf)" style="fill: #bb3488"/>
    <path d="M 546.501451 473.393437 
L 516.0313 455.772124 
L 544.845509 486.253498 
L 575.140999 502.508019 
z
" clip-path="url(#p469b2048cf)" style="fill: #7701a8"/>
    <path d="M 662.358915 576.00214 
L 633.037953 561.03031 
L 662.305779 590.322676 
L 691.439466 604.931573 
z
" clip-path="url(#p469b2048cf)" style="fill: #240691"/>
    <path d="M 458.98311 396.828469 
L 427.497462 379.641368 
L 456.101963 410.250874 
L 487.408793 426.067724 
z
" clip-path="url(#p469b2048cf)" style="fill: #b02991"/>
    <path d="M 342.832089 289.114533 
L 310.152449 270.960871 
L 338.367483 301.607537 
L 370.861001 318.677283 
z
" clip-path="url(#p469b2048cf)" style="fill: #e26561"/>
    <path d="M 575.140999 502.508019 
L 544.845509 486.253498 
L 573.85645 516.980594 
L 603.982 531.874961 
z
" clip-path="url(#p469b2048cf)" style="fill: #6700a8"/>
    <path d="M 691.439466 604.931573 
L 662.305779 590.322676 
L 691.752804 620.827516 
L 720.726293 634.169708 
z
" clip-path="url(#p469b2048cf)" style="fill: #0d0887"/>
    <path d="M 487.408793 426.067724 
L 456.101963 410.250874 
L 484.900214 441.183861 
L 516.0313 455.772124 
z
" clip-path="url(#p469b2048cf)" style="fill: #a21d9a"/>
    <path d="M 370.861001 318.677283 
L 338.367483 301.607537 
L 366.771848 332.502441 
L 399.084496 349.0375 
z
" clip-path="url(#p469b2048cf)" style="fill: #d9586a"/>
    <path d="M 603.982 531.874961 
L 573.85645 516.980594 
L 603.06526 547.977301 
L 633.037953 561.03031 
z
" clip-path="url(#p469b2048cf)" style="fill: #5801a4"/>
    <path d="M 399.084496 349.0375 
L 366.771848 332.502441 
L 395.366975 363.646022 
L 427.497462 379.641368 
z
" clip-path="url(#p469b2048cf)" style="fill: #cf4c74"/>
    <path d="M 516.0313 455.772124 
L 484.900214 441.183861 
L 513.893486 472.383875 
L 544.845509 486.253498 
z
" clip-path="url(#p469b2048cf)" style="fill: #9511a1"/>
    <path d="M 633.037953 561.03031 
L 603.06526 547.977301 
L 632.472402 579.281344 
L 662.305779 590.322676 
z
" clip-path="url(#p469b2048cf)" style="fill: #48039f"/>
    <path d="M 427.497462 379.641368 
L 395.366975 363.646022 
L 424.154397 395.077784 
L 456.101963 410.250874 
z
" clip-path="url(#p469b2048cf)" style="fill: #c5407e"/>
    <path d="M 544.845509 486.253498 
L 513.893486 472.383875 
L 543.082523 503.897174 
L 573.85645 516.980594 
z
" clip-path="url(#p469b2048cf)" style="fill: #8606a6"/>
    <path d="M 310.152449 270.960871 
L 276.809959 253.121199 
L 305.208017 284.314144 
L 338.367483 301.607537 
z
" clip-path="url(#p469b2048cf)" style="fill: #ef7e50"/>
    <path d="M 662.305779 590.322676 
L 632.472402 579.281344 
L 662.097627 610.256652 
L 691.752804 620.827516 
z
" clip-path="url(#p469b2048cf)" style="fill: #370499"/>
    <path d="M 456.101963 410.250874 
L 424.154397 395.077784 
L 453.135766 426.516996 
L 484.900214 441.183861 
z
" clip-path="url(#p469b2048cf)" style="fill: #ba3388"/>
    <path d="M 338.367483 301.607537 
L 305.208017 284.314144 
L 333.797379 315.812483 
L 366.771848 332.502441 
z
" clip-path="url(#p469b2048cf)" style="fill: #e87059"/>
    <path d="M 573.85645 516.980594 
L 543.082523 503.897174 
L 572.475352 535.316943 
L 603.06526 547.977301 
z
" clip-path="url(#p469b2048cf)" style="fill: #7701a8"/>
    <path d="M 484.900214 441.183861 
L 453.135766 426.516996 
L 482.313318 458.31252 
L 513.893486 472.383875 
z
" clip-path="url(#p469b2048cf)" style="fill: #ae2892"/>
    <path d="M 366.771848 332.502441 
L 333.797379 315.812483 
L 362.578413 347.564802 
L 395.366975 363.646022 
z
" clip-path="url(#p469b2048cf)" style="fill: #e06363"/>
    <path d="M 603.06526 547.977301 
L 572.475352 535.316943 
L 602.066145 567.179707 
L 632.472402 579.281344 
z
" clip-path="url(#p469b2048cf)" style="fill: #6600a7"/>
    <path d="M 513.893486 472.383875 
L 482.313318 458.31252 
L 511.688291 490.378176 
L 543.082523 503.897174 
z
" clip-path="url(#p469b2048cf)" style="fill: #a11b9b"/>
    <path d="M 395.366975 363.646022 
L 362.578413 347.564802 
L 391.552746 379.603175 
L 424.154397 395.077784 
z
" clip-path="url(#p469b2048cf)" style="fill: #d7566c"/>
    <path d="M 632.472402 579.281344 
L 602.066145 567.179707 
L 631.858506 599.322813 
L 662.097627 610.256652 
z
" clip-path="url(#p469b2048cf)" style="fill: #5601a4"/>
    <path d="M 276.809959 253.121199 
L 242.7819 235.16389 
L 271.367994 267.008036 
L 305.208017 284.314144 
z
" clip-path="url(#p469b2048cf)" style="fill: #f99a3e"/>
    <path d="M 424.154397 395.077784 
L 391.552746 379.603175 
L 420.721504 411.926414 
L 453.135766 426.516996 
z
" clip-path="url(#p469b2048cf)" style="fill: #cd4a76"/>
    <path d="M 543.082523 503.897174 
L 511.688291 490.378176 
L 541.261803 522.736239 
L 572.475352 535.316943 
z
" clip-path="url(#p469b2048cf)" style="fill: #920fa3"/>
    <path d="M 305.208017 284.314144 
L 271.367994 267.008036 
L 300.145398 299.112138 
L 333.797379 315.812483 
z
" clip-path="url(#p469b2048cf)" style="fill: #f58b47"/>
    <path d="M 453.135766 426.516996 
L 420.721504 411.926414 
L 450.086416 444.203427 
L 482.313318 458.31252 
z
" clip-path="url(#p469b2048cf)" style="fill: #c33d80"/>
    <path d="M 572.475352 535.316943 
L 541.261803 522.736239 
L 571.041153 555.036519 
L 602.066145 567.179707 
z
" clip-path="url(#p469b2048cf)" style="fill: #8305a7"/>
    <path d="M 333.797379 315.812483 
L 300.145398 299.112138 
L 329.115518 331.478963 
L 362.578413 347.564802 
z
" clip-path="url(#p469b2048cf)" style="fill: #ef7c51"/>
    <path d="M 482.313318 458.31252 
L 450.086416 444.203427 
L 479.650021 476.882311 
L 511.688291 490.378176 
z
" clip-path="url(#p469b2048cf)" style="fill: #b7318a"/>
    <path d="M 602.066145 567.179707 
L 571.041153 555.036519 
L 601.020972 587.783473 
L 631.858506 599.322813 
z
" clip-path="url(#p469b2048cf)" style="fill: #7201a8"/>
    <path d="M 362.578413 347.564802 
L 329.115518 331.478963 
L 358.279753 364.110526 
L 391.552746 379.603175 
z
" clip-path="url(#p469b2048cf)" style="fill: #e76e5b"/>
    <path d="M 242.7819 235.16389 
L 208.052685 217.179983 
L 236.827943 249.586681 
L 271.367994 267.008036 
z
" clip-path="url(#p469b2048cf)" style="fill: #feb72d"/>
    <path d="M 511.688291 490.378176 
L 479.650021 476.882311 
L 509.413427 509.839012 
L 541.261803 522.736239 
z
" clip-path="url(#p469b2048cf)" style="fill: #ab2494"/>
    <path d="M 391.552746 379.603175 
L 358.279753 364.110526 
L 387.639516 397.00955 
L 420.721504 411.926414 
z
" clip-path="url(#p469b2048cf)" style="fill: #de6164"/>
    <path d="M 271.367994 267.008036 
L 236.827943 249.586681 
L 265.795918 282.258966 
L 300.145398 299.112138 
z
" clip-path="url(#p469b2048cf)" style="fill: #fca636"/>
    <path d="M 541.261803 522.736239 
L 509.413427 509.839012 
L 539.377984 543.077948 
L 571.041153 555.036519 
z
" clip-path="url(#p469b2048cf)" style="fill: #9d189d"/>
    <path d="M 420.721504 411.926414 
L 387.639516 397.00955 
L 417.196223 430.178081 
L 450.086416 444.203427 
z
" clip-path="url(#p469b2048cf)" style="fill: #d5546e"/>
    <path d="M 300.145398 299.112138 
L 265.795918 282.258966 
L 294.960726 315.351485 
L 329.115518 331.478963 
z
" clip-path="url(#p469b2048cf)" style="fill: #f9973f"/>
    <path d="M 450.086416 444.203427 
L 417.196223 430.178081 
L 446.951626 463.362139 
L 479.650021 476.882311 
z
" clip-path="url(#p469b2048cf)" style="fill: #cc4778"/>
    <path d="M 571.041153 555.036519 
L 539.377984 543.077948 
L 569.55121 576.244954 
L 601.020972 587.783473 
z
" clip-path="url(#p469b2048cf)" style="fill: #8e0ca4"/>
    <path d="M 329.115518 331.478963 
L 294.960726 315.351485 
L 324.320021 348.720905 
L 358.279753 364.110526 
z
" clip-path="url(#p469b2048cf)" style="fill: #f3874a"/>
    <path d="M 208.052685 217.179983 
L 172.609266 199.308069 
L 201.58087 232.452086 
L 236.827943 249.586681 
z
" clip-path="url(#p469b2048cf)" style="fill: #fad824"/>
    <path d="M 479.650021 476.882311 
L 446.951626 463.362139 
L 476.907495 497.077041 
L 509.413427 509.839012 
z
" clip-path="url(#p469b2048cf)" style="fill: #c03a83"/>
    <path d="M 358.279753 364.110526 
L 324.320021 348.720905 
L 353.875041 382.36331 
L 387.639516 397.00955 
z
" clip-path="url(#p469b2048cf)" style="fill: #ed7953"/>
    <path d="M 236.827943 249.586681 
L 201.58087 232.452086 
L 230.745475 265.867756 
L 265.795918 282.258966 
z
" clip-path="url(#p469b2048cf)" style="fill: #fdc527"/>
    <path d="M 509.413427 509.839012 
L 476.907495 497.077041 
L 507.064163 531.119051 
L 539.377984 543.077948 
z
" clip-path="url(#p469b2048cf)" style="fill: #b42e8d"/>
    <path d="M 387.639516 397.00955 
L 353.875041 382.36331 
L 383.62741 416.317078 
L 417.196223 430.178081 
z
" clip-path="url(#p469b2048cf)" style="fill: #e56a5d"/>
    <path d="M 265.795918 282.258966 
L 230.745475 265.867756 
L 260.104442 299.557962 
L 294.960726 315.351485 
z
" clip-path="url(#p469b2048cf)" style="fill: #fdb22f"/>
    <path d="M 539.377984 543.077948 
L 507.064163 531.119051 
L 537.422984 565.451496 
L 569.55121 576.244954 
z
" clip-path="url(#p469b2048cf)" style="fill: #a62098"/>
    <path d="M 417.196223 430.178081 
L 383.62741 416.317078 
L 413.577404 450.352944 
L 446.951626 463.362139 
z
" clip-path="url(#p469b2048cf)" style="fill: #db5c68"/>
    <path d="M 294.960726 315.351485 
L 260.104442 299.557962 
L 289.659958 333.570172 
L 324.320021 348.720905 
z
" clip-path="url(#p469b2048cf)" style="fill: #fba238"/>
    <path d="M 172.609266 199.308069 
L 136.435295 181.548026 
L 165.601856 215.284011 
L 201.58087 232.452086 
z
" clip-path="url(#p469b2048cf)" style="fill: #f0f921"/>
    <path d="M 446.951626 463.362139 
L 413.577404 450.352944 
L 443.728479 484.70421 
L 476.907495 497.077041 
z
" clip-path="url(#p469b2048cf)" style="fill: #d24f71"/>
    <path d="M 324.320021 348.720905 
L 289.659958 333.570172 
L 319.412512 367.882245 
L 353.875041 382.36331 
z
" clip-path="url(#p469b2048cf)" style="fill: #f79143"/>
    <path d="M 201.58087 232.452086 
L 165.601856 215.284011 
L 194.964498 249.352668 
L 230.745475 265.867756 
z
" clip-path="url(#p469b2048cf)" style="fill: #f6e626"/>
    <path d="M 476.907495 497.077041 
L 443.728479 484.70421 
L 474.081701 519.361405 
L 507.064163 531.119051 
z
" clip-path="url(#p469b2048cf)" style="fill: #c7427c"/>
    <path d="M 353.875041 382.36331 
L 319.412512 367.882245 
L 349.363382 402.510942 
L 383.62741 416.317078 
z
" clip-path="url(#p469b2048cf)" style="fill: #f1814d"/>
    <path d="M 230.745475 265.867756 
L 194.964498 249.352668 
L 224.524253 283.767084 
L 260.104442 299.557962 
z
" clip-path="url(#p469b2048cf)" style="fill: #fcd225"/>
    <path d="M 507.064163 531.119051 
L 474.081701 519.361405 
L 504.637943 554.357892 
L 537.422984 565.451496 
z
" clip-path="url(#p469b2048cf)" style="fill: #bc3587"/>
    <path d="M 383.62741 416.317078 
L 349.363382 402.510942 
L 379.513413 437.443761 
L 413.577404 450.352944 
z
" clip-path="url(#p469b2048cf)" style="fill: #e97257"/>
    <path d="M 260.104442 299.557962 
L 224.524253 283.767084 
L 254.280247 318.465186 
L 289.659958 333.570172 
z
" clip-path="url(#p469b2048cf)" style="fill: #febe2a"/>
    <path d="M 413.577404 450.352944 
L 379.513413 437.443761 
L 409.862637 472.372161 
L 443.728479 484.70421 
z
" clip-path="url(#p469b2048cf)" style="fill: #e16462"/>
    <path d="M 289.659958 333.570172 
L 254.280247 318.465186 
L 284.233814 353.450616 
L 319.412512 367.882245 
z
" clip-path="url(#p469b2048cf)" style="fill: #fdac33"/>
    <path d="M 443.728479 484.70421 
L 409.862637 472.372161 
L 440.415663 507.687841 
L 474.081701 519.361405 
z
" clip-path="url(#p469b2048cf)" style="fill: #d7566c"/>
    <path d="M 319.412512 367.882245 
L 284.233814 353.450616 
L 314.386218 388.723529 
L 349.363382 402.510942 
z
" clip-path="url(#p469b2048cf)" style="fill: #fa9b3d"/>
    <path d="M 474.081701 519.361405 
L 440.415663 507.687841 
L 471.173096 543.309645 
L 504.637943 554.357892 
z
" clip-path="url(#p469b2048cf)" style="fill: #cd4a76"/>
    <path d="M 349.363382 402.510942 
L 314.386218 388.723529 
L 344.738815 424.288793 
L 379.513413 437.443761 
z
" clip-path="url(#p469b2048cf)" style="fill: #f58b47"/>
    <path d="M 379.513413 437.443761 
L 344.738815 424.288793 
L 375.292901 460.147905 
L 409.862637 472.372161 
z
" clip-path="url(#p469b2048cf)" style="fill: #ee7b51"/>
    <path d="M 409.862637 472.372161 
L 375.292901 460.147905 
L 406.048319 495.934038 
L 440.415663 507.687841 
z
" clip-path="url(#p469b2048cf)" style="fill: #e66c5c"/>
    <path d="M 440.415663 507.687841 
L 406.048319 495.934038 
L 437.010811 532.231672 
L 471.173096 543.309645 
z
" clip-path="url(#p469b2048cf)" style="fill: #dc5d67"/>
   </g>
  </g>
 </g>
 <defs>
  <clipPath id="p469b2048cf">
   <rect x="7.2" y="7.2" width="837" height="837"/>
  </clipPath>
 </defs>
</svg>
