<?xml version="1.0" encoding="utf-8" standalone="no"?>
<!DOCTYPE svg PUBLIC "-//W3C//DTD SVG 1.1//EN"
  "http://www.w3.org/Graphics/SVG/1.1/DTD/svg11.dtd">
<svg xmlns:xlink="http://www.w3.org/1999/xlink" width="720pt" height="720pt" viewBox="0 0 720 720" xmlns="http://www.w3.org/2000/svg" version="1.1">
 <metadata>
  <rdf:RDF xmlns:dc="http://purl.org/dc/elements/1.1/" xmlns:cc="http://creativecommons.org/ns#" xmlns:rdf="http://www.w3.org/1999/02/22-rdf-syntax-ns#">
   <cc:Work>
    <dc:type rdf:resource="http://purl.org/dc/dcmitype/StillImage"/>
    <dc:date>2024-09-19T17:19:38.341323</dc:date>
    <dc:format>image/svg+xml</dc:format>
    <dc:creator>
     <cc:Agent>
      <dc:title>Matplotlib v3.8.4, https://matplotlib.org/</dc:title>
     </cc:Agent>
    </dc:creator>
   </cc:Work>
  </rdf:RDF>
 </metadata>
 <defs>
  <style type="text/css">*{stroke-linejoin: round; stroke-linecap: butt}</style>
 </defs>
 <g id="figure_1">
  <g id="patch_1">
   <path d="M 0 720 
L 720 720 
L 720 0 
L 0 0 
z
" style="fill: #ffffff"/>
  </g>
  <g id="patch_2">
   <path d="M 90 621 
L 648 621 
L 648 63 
L 90 63 
z
" style="fill: #ffffff"/>
  </g>
  <g id="pane3d_1">
   <g id="patch_3">
    <path d="M 132.132848 483.415082 
L 316.402672 328.956463 
L 313.841145 106.199521 
L 120.75306 247.10641 
" style="fill: #f2f2f2; opacity: 0.5; stroke: #f2f2f2; stroke-linejoin: miter"/>
   </g>
  </g>
  <g id="pane3d_2">
   <g id="patch_4">
    <path d="M 316.402672 328.956463 
L 612.08999 414.901093 
L 622.642028 184.471543 
L 313.841145 106.199521 
" style="fill: #e6e6e6; opacity: 0.5; stroke: #e6e6e6; stroke-linejoin: miter"/>
   </g>
  </g>
  <g id="pane3d_3">
   <g id="patch_5">
    <path d="M 132.132848 483.415082 
L 445.575848 585.785566 
L 612.08999 414.901093 
L 316.402672 328.956463 
" style="fill: #ececec; opacity: 0.5; stroke: #ececec; stroke-linejoin: miter"/>
   </g>
  </g>
  <g id="grid3d_1">
   <g id="Line3DCollection_1">
    <path d="M 151.116601 489.615176 
L 334.385469 334.183352 
L 332.584268 110.950356 
" style="fill: none; stroke: #b0b0b0; stroke-width: 0.8"/>
    <path d="M 203.831331 506.831807 
L 384.270221 348.68288 
L 384.603364 124.135681 
" style="fill: none; stroke: #b0b0b0; stroke-width: 0.8"/>
    <path d="M 257.511893 524.363878 
L 434.992793 363.425929 
L 437.534109 137.552082 
" style="fill: none; stroke: #b0b0b0; stroke-width: 0.8"/>
    <path d="M 312.185078 542.22014 
L 486.574469 378.418686 
L 491.400682 151.205688 
" style="fill: none; stroke: #b0b0b0; stroke-width: 0.8"/>
    <path d="M 367.878674 560.409669 
L 539.037264 393.667549 
L 546.228123 165.102846 
" style="fill: none; stroke: #b0b0b0; stroke-width: 0.8"/>
    <path d="M 424.621517 578.941881 
L 592.403948 409.179137 
L 602.042372 179.250131 
" style="fill: none; stroke: #b0b0b0; stroke-width: 0.8"/>
   </g>
  </g>
  <g id="grid3d_2">
   <g id="Line3DCollection_2">
    <path d="M 134.105579 237.36235 
L 144.830596 472.771578 
L 457.097338 573.961683 
" style="fill: none; stroke: #b0b0b0; stroke-width: 0.8"/>
    <path d="M 159.814785 218.600943 
L 169.297852 452.26264 
L 479.27827 551.19859 
" style="fill: none; stroke: #b0b0b0; stroke-width: 0.8"/>
    <path d="M 184.943932 200.262836 
L 193.236964 432.196401 
L 500.955222 528.952705 
" style="fill: none; stroke: #b0b0b0; stroke-width: 0.8"/>
    <path d="M 209.512433 182.333863 
L 216.664852 412.558681 
L 522.145178 507.206597 
" style="fill: none; stroke: #b0b0b0; stroke-width: 0.8"/>
    <path d="M 233.538844 164.800482 
L 239.597718 393.335898 
L 542.864367 485.943612 
" style="fill: none; stroke: #b0b0b0; stroke-width: 0.8"/>
    <path d="M 257.04091 147.649745 
L 262.051087 374.515038 
L 563.128305 465.147827 
" style="fill: none; stroke: #b0b0b0; stroke-width: 0.8"/>
    <path d="M 280.03561 130.86926 
L 284.039843 356.083627 
L 582.951833 444.80401 
" style="fill: none; stroke: #b0b0b0; stroke-width: 0.8"/>
    <path d="M 302.539199 114.447166 
L 305.578259 338.0297 
L 602.349155 424.897586 
" style="fill: none; stroke: #b0b0b0; stroke-width: 0.8"/>
   </g>
  </g>
  <g id="grid3d_3">
   <g id="Line3DCollection_3">
    <path d="M 613.379321 386.745399 
L 316.089104 301.687789 
L 130.744433 454.58374 
" style="fill: none; stroke: #b0b0b0; stroke-width: 0.8"/>
    <path d="M 615.523148 339.92971 
L 315.568079 256.378142 
L 128.434589 406.618331 
" style="fill: none; stroke: #b0b0b0; stroke-width: 0.8"/>
    <path d="M 617.70614 292.258744 
L 315.037995 210.280667 
L 126.08092 357.742869 
" style="fill: none; stroke: #b0b0b0; stroke-width: 0.8"/>
    <path d="M 619.92938 243.708846 
L 314.498613 163.374634 
L 123.682167 307.931207 
" style="fill: none; stroke: #b0b0b0; stroke-width: 0.8"/>
    <path d="M 622.193993 194.255483 
L 313.949686 115.638584 
L 121.237022 257.156186 
" style="fill: none; stroke: #b0b0b0; stroke-width: 0.8"/>
   </g>
  </g>
  <g id="axis3d_1">
   <g id="line2d_1">
    <path d="M 132.132848 483.415082 
L 445.575848 585.785566 
" style="fill: none; stroke: #000000; stroke-width: 0.8; stroke-linecap: square"/>
   </g>
   <g id="xtick_1">
    <g id="line2d_2">
     <path d="M 152.712496 488.261685 
L 147.917963 492.327967 
" style="fill: none; stroke: #000000; stroke-width: 0.8; stroke-linecap: square"/>
    </g>
    <g id="text_1">
     <!-- $\mathdefault{5}$ -->
     <g transform="translate(138.507915 519.798036) scale(0.18 -0.18)">
      <defs>
       <path id="CMR17-35" d="M 730 3692 
C 794 3666 1056 3584 1325 3584 
C 1920 3584 2246 3911 2432 4100 
C 2432 4157 2432 4192 2394 4192 
C 2387 4192 2374 4192 2323 4163 
C 2099 4058 1837 3973 1517 3973 
C 1325 3973 1037 3999 723 4139 
C 653 4171 640 4171 634 4171 
C 602 4171 595 4164 595 4037 
L 595 2203 
C 595 2089 595 2057 659 2057 
C 691 2057 704 2070 736 2114 
C 941 2401 1222 2522 1542 2522 
C 1766 2522 2246 2382 2246 1289 
C 2246 1085 2246 715 2054 421 
C 1894 159 1645 25 1370 25 
C 947 25 518 320 403 814 
C 429 807 480 795 506 795 
C 589 795 749 840 749 1038 
C 749 1210 627 1280 506 1280 
C 358 1280 262 1190 262 1011 
C 262 454 704 -128 1382 -128 
C 2042 -128 2669 440 2669 1264 
C 2669 2030 2170 2624 1549 2624 
C 1222 2624 947 2503 730 2274 
L 730 3692 
z
" transform="scale(0.015625)"/>
      </defs>
      <use xlink:href="#CMR17-35" transform="scale(0.996264)"/>
     </g>
    </g>
   </g>
   <g id="xtick_2">
    <g id="line2d_3">
     <path d="M 205.403741 505.453639 
L 200.679701 509.594109 
" style="fill: none; stroke: #000000; stroke-width: 0.8; stroke-linecap: square"/>
    </g>
    <g id="text_2">
     <!-- $\mathdefault{6}$ -->
     <g transform="translate(191.251779 537.210693) scale(0.18 -0.18)">
      <defs>
       <path id="CMR17-36" d="M 678 2176 
C 678 3690 1395 4032 1811 4032 
C 1946 4032 2272 4009 2400 3776 
C 2298 3776 2106 3776 2106 3553 
C 2106 3381 2246 3323 2336 3323 
C 2394 3323 2566 3348 2566 3560 
C 2566 3954 2246 4179 1805 4179 
C 1043 4179 243 3390 243 1984 
C 243 253 966 -128 1478 -128 
C 2099 -128 2688 427 2688 1283 
C 2688 2081 2170 2662 1517 2662 
C 1126 2662 838 2407 678 1960 
L 678 2176 
z
M 1478 25 
C 691 25 691 1200 691 1436 
C 691 1896 909 2560 1504 2560 
C 1613 2560 1926 2560 2138 2120 
C 2253 1870 2253 1609 2253 1289 
C 2253 944 2253 690 2118 434 
C 1978 171 1773 25 1478 25 
z
" transform="scale(0.015625)"/>
      </defs>
      <use xlink:href="#CMR17-36" transform="scale(0.996264)"/>
     </g>
    </g>
   </g>
   <g id="xtick_3">
    <g id="line2d_4">
     <path d="M 259.059687 522.960354 
L 254.409542 527.177061 
" style="fill: none; stroke: #000000; stroke-width: 0.8; stroke-linecap: square"/>
    </g>
    <g id="text_3">
     <!-- $\mathdefault{7}$ -->
     <g transform="translate(244.963978 554.943032) scale(0.18 -0.18)">
      <defs>
       <path id="CMR17-37" d="M 2886 3941 
L 2886 4081 
L 1382 4081 
C 634 4081 621 4165 595 4288 
L 480 4288 
L 294 3094 
L 410 3094 
C 429 3215 474 3540 550 3661 
C 589 3712 1062 3712 1171 3712 
L 2579 3712 
L 1869 2661 
C 1395 1954 1069 999 1069 165 
C 1069 89 1069 -128 1299 -128 
C 1530 -128 1530 89 1530 171 
L 1530 465 
C 1530 1508 1709 2196 2003 2636 
L 2886 3941 
z
" transform="scale(0.015625)"/>
      </defs>
      <use xlink:href="#CMR17-37" transform="scale(0.996264)"/>
     </g>
    </g>
   </g>
   <g id="xtick_4">
    <g id="line2d_5">
     <path d="M 313.707073 540.790553 
L 309.134376 545.085621 
" style="fill: none; stroke: #000000; stroke-width: 0.8; stroke-linecap: square"/>
    </g>
    <g id="text_4">
     <!-- $\mathdefault{8}$ -->
     <g transform="translate(299.671426 573.00394) scale(0.18 -0.18)">
      <defs>
       <path id="CMR17-38" d="M 1741 2264 
C 2144 2467 2554 2773 2554 3263 
C 2554 3841 1990 4179 1472 4179 
C 890 4179 378 3759 378 3180 
C 378 3021 416 2747 666 2505 
C 730 2442 998 2251 1171 2130 
C 883 1983 211 1634 211 934 
C 211 279 838 -128 1459 -128 
C 2144 -128 2720 362 2720 1010 
C 2720 1590 2330 1857 2074 2029 
L 1741 2264 
z
M 902 2822 
C 851 2854 595 3051 595 3351 
C 595 3739 998 4032 1459 4032 
C 1965 4032 2336 3676 2336 3262 
C 2336 2669 1670 2331 1638 2331 
C 1632 2331 1626 2331 1574 2370 
L 902 2822 
z
M 2080 1519 
C 2176 1449 2483 1240 2483 851 
C 2483 381 2010 25 1472 25 
C 890 25 448 438 448 940 
C 448 1443 838 1862 1280 2060 
L 2080 1519 
z
" transform="scale(0.015625)"/>
      </defs>
      <use xlink:href="#CMR17-38" transform="scale(0.996264)"/>
     </g>
    </g>
   </g>
   <g id="xtick_5">
    <g id="line2d_6">
     <path d="M 369.373633 558.953285 
L 364.882101 563.32892 
" style="fill: none; stroke: #000000; stroke-width: 0.8; stroke-linecap: square"/>
    </g>
    <g id="text_5">
     <!-- $\mathdefault{9}$ -->
     <g transform="translate(355.402044 591.402632) scale(0.18 -0.18)">
      <defs>
       <path id="CMR17-39" d="M 2253 1864 
C 2253 464 1670 31 1190 31 
C 1043 31 685 31 538 294 
C 704 268 826 357 826 518 
C 826 692 685 749 595 749 
C 538 749 365 723 365 506 
C 365 71 742 -128 1203 -128 
C 1939 -128 2688 674 2688 2073 
C 2688 3817 1971 4179 1485 4179 
C 851 4179 243 3628 243 2778 
C 243 1991 762 1408 1414 1408 
C 1952 1408 2189 1903 2253 2112 
L 2253 1864 
z
M 1427 1510 
C 1254 1510 1011 1542 813 1922 
C 678 2169 678 2461 678 2771 
C 678 3146 678 3405 858 3684 
C 947 3817 1114 4032 1485 4032 
C 2240 4032 2240 2885 2240 2632 
C 2240 2182 2035 1510 1427 1510 
z
" transform="scale(0.015625)"/>
      </defs>
      <use xlink:href="#CMR17-39" transform="scale(0.996264)"/>
     </g>
    </g>
   </g>
   <g id="xtick_6">
    <g id="line2d_7">
     <path d="M 426.088147 577.45794 
L 421.681666 581.91643 
" style="fill: none; stroke: #000000; stroke-width: 0.8; stroke-linecap: square"/>
    </g>
    <g id="text_6">
     <!-- $\mathdefault{10}$ -->
     <g transform="translate(408.072663 610.148676) scale(0.18 -0.18)">
      <defs>
       <path id="CMR17-31" d="M 1702 4058 
C 1702 4192 1696 4192 1606 4192 
C 1357 3916 979 3827 621 3827 
C 602 3827 570 3827 563 3808 
C 557 3795 557 3782 557 3648 
C 755 3648 1088 3686 1344 3839 
L 1344 461 
C 1344 236 1331 160 781 160 
L 589 160 
L 589 0 
C 896 0 1216 0 1523 0 
C 1830 0 2150 0 2458 0 
L 2458 160 
L 2266 160 
C 1715 160 1702 230 1702 458 
L 1702 4058 
z
" transform="scale(0.015625)"/>
       <path id="CMR17-30" d="M 2688 2025 
C 2688 2416 2682 3080 2413 3591 
C 2176 4039 1798 4198 1466 4198 
C 1158 4198 768 4058 525 3597 
C 269 3118 243 2524 243 2025 
C 243 1661 250 1106 448 619 
C 723 -39 1216 -128 1466 -128 
C 1760 -128 2208 -7 2470 600 
C 2662 1042 2688 1559 2688 2025 
z
M 1466 -26 
C 1056 -26 813 325 723 812 
C 653 1188 653 1738 653 2096 
C 653 2588 653 2997 736 3387 
C 858 3929 1216 4096 1466 4096 
C 1728 4096 2067 3923 2189 3400 
C 2272 3036 2278 2607 2278 2096 
C 2278 1680 2278 1169 2202 792 
C 2067 95 1690 -26 1466 -26 
z
" transform="scale(0.015625)"/>
      </defs>
      <use xlink:href="#CMR17-31" transform="scale(0.996264)"/>
      <use xlink:href="#CMR17-30" transform="translate(45.690477 0) scale(0.996264)"/>
     </g>
    </g>
   </g>
   <g id="text_7">
    <!-- $\lambda$ -->
    <g transform="translate(251.097438 593.960493) rotate(-341.912962) scale(0.2 -0.2)">
     <defs>
      <path id="CMMI12-15" d="M 1978 3965 
C 1818 4416 1312 4416 1229 4416 
C 1190 4416 1120 4416 1120 4352 
C 1120 4302 1158 4295 1190 4289 
C 1286 4276 1363 4263 1466 4080 
C 1530 3959 2189 2059 2189 2046 
C 2189 2040 2182 2033 2131 1982 
L 467 311 
C 390 234 339 183 339 102 
C 339 12 416 -64 518 -64 
C 544 -64 614 -51 653 -13 
C 755 82 1670 1194 2253 1881 
C 2419 1383 2624 797 2822 261 
C 2854 166 2886 76 2976 -6 
C 3040 -64 3053 -64 3232 -64 
L 3354 -64 
C 3379 -64 3424 -64 3424 -13 
C 3424 13 3418 19 3392 45 
C 3334 115 3290 229 3264 306 
L 1978 3965 
z
" transform="scale(0.015625)"/>
     </defs>
     <use xlink:href="#CMMI12-15" transform="scale(0.996264)"/>
    </g>
   </g>
  </g>
  <g id="axis3d_2">
   <g id="line2d_8">
    <path d="M 612.08999 414.901093 
L 445.575848 585.785566 
" style="fill: none; stroke: #000000; stroke-width: 0.8; stroke-linecap: square"/>
   </g>
   <g id="xtick_7">
    <g id="line2d_9">
     <path d="M 454.465857 573.108951 
L 462.367106 575.669352 
" style="fill: none; stroke: #000000; stroke-width: 0.8; stroke-linecap: square"/>
    </g>
    <g id="text_8">
     <!-- $\mathdefault{−3}$ -->
     <g transform="translate(460.568024 601.584953) scale(0.18 -0.18)">
      <defs>
       <path id="CMSY10-0" d="M 4218 1472 
C 4326 1472 4442 1472 4442 1600 
C 4442 1728 4326 1728 4218 1728 
L 755 1728 
C 646 1728 531 1728 531 1600 
C 531 1472 646 1472 755 1472 
L 4218 1472 
z
" transform="scale(0.015625)"/>
       <path id="CMR17-33" d="M 1414 2157 
C 1984 2157 2234 1662 2234 1090 
C 2234 320 1824 25 1453 25 
C 1114 25 563 194 390 693 
C 422 680 454 680 486 680 
C 640 680 755 782 755 948 
C 755 1133 614 1216 486 1216 
C 378 1216 211 1165 211 926 
C 211 335 787 -128 1466 -128 
C 2176 -128 2720 430 2720 1085 
C 2720 1707 2208 2157 1600 2227 
C 2086 2328 2554 2756 2554 3329 
C 2554 3820 2048 4179 1472 4179 
C 890 4179 378 3829 378 3329 
C 378 3110 544 3072 627 3072 
C 762 3072 877 3155 877 3321 
C 877 3486 762 3569 627 3569 
C 602 3569 570 3569 544 3557 
C 730 3959 1235 4032 1459 4032 
C 1683 4032 2106 3925 2106 3320 
C 2106 3143 2080 2828 1862 2550 
C 1670 2304 1453 2304 1242 2284 
C 1210 2284 1062 2269 1037 2269 
C 992 2263 966 2257 966 2208 
C 966 2163 973 2157 1101 2157 
L 1414 2157 
z
" transform="scale(0.015625)"/>
      </defs>
      <use xlink:href="#CMSY10-0" transform="scale(0.996264)"/>
      <use xlink:href="#CMR17-33" transform="translate(77.487468 0) scale(0.996264)"/>
     </g>
    </g>
   </g>
   <g id="xtick_8">
    <g id="line2d_10">
     <path d="M 476.667576 550.365339 
L 484.506331 552.867222 
" style="fill: none; stroke: #000000; stroke-width: 0.8; stroke-linecap: square"/>
    </g>
    <g id="text_9">
     <!-- $\mathdefault{−2}$ -->
     <g transform="translate(482.588704 578.640222) scale(0.18 -0.18)">
      <defs>
       <path id="CMR17-32" d="M 2669 989 
L 2554 989 
C 2490 536 2438 459 2413 420 
C 2381 369 1920 369 1830 369 
L 602 369 
C 832 619 1280 1072 1824 1597 
C 2214 1967 2669 2402 2669 3035 
C 2669 3790 2067 4224 1395 4224 
C 691 4224 262 3604 262 3030 
C 262 2780 448 2748 525 2748 
C 589 2748 781 2787 781 3010 
C 781 3207 614 3264 525 3264 
C 486 3264 448 3258 422 3245 
C 544 3790 915 4058 1306 4058 
C 1862 4058 2227 3617 2227 3035 
C 2227 2479 1901 2000 1536 1584 
L 262 146 
L 262 0 
L 2515 0 
L 2669 989 
z
" transform="scale(0.015625)"/>
      </defs>
      <use xlink:href="#CMSY10-0" transform="scale(0.996264)"/>
      <use xlink:href="#CMR17-32" transform="translate(77.487468 0) scale(0.996264)"/>
     </g>
    </g>
   </g>
   <g id="xtick_9">
    <g id="line2d_11">
     <path d="M 498.365055 528.138275 
L 506.142101 530.583623 
" style="fill: none; stroke: #000000; stroke-width: 0.8; stroke-linecap: square"/>
    </g>
    <g id="text_10">
     <!-- $\mathdefault{−1}$ -->
     <g transform="translate(504.108888 556.21699) scale(0.18 -0.18)">
      <use xlink:href="#CMSY10-0" transform="scale(0.996264)"/>
      <use xlink:href="#CMR17-31" transform="translate(77.487468 0) scale(0.996264)"/>
     </g>
    </g>
   </g>
   <g id="xtick_10">
    <g id="line2d_12">
     <path d="M 519.57528 506.410358 
L 527.291395 508.801066 
" style="fill: none; stroke: #000000; stroke-width: 0.8; stroke-linecap: square"/>
    </g>
    <g id="text_11">
     <!-- $\mathdefault{0}$ -->
     <g transform="translate(532.119318 534.297677) scale(0.18 -0.18)">
      <use xlink:href="#CMR17-30" transform="scale(0.996264)"/>
     </g>
    </g>
   </g>
   <g id="xtick_11">
    <g id="line2d_13">
     <path d="M 540.314481 485.164961 
L 547.970438 487.50284 
" style="fill: none; stroke: #000000; stroke-width: 0.8; stroke-linecap: square"/>
    </g>
    <g id="text_12">
     <!-- $\mathdefault{1}$ -->
     <g transform="translate(552.688373 512.865485) scale(0.18 -0.18)">
      <use xlink:href="#CMR17-31" transform="scale(0.996264)"/>
     </g>
    </g>
   </g>
   <g id="xtick_12">
    <g id="line2d_14">
     <path d="M 560.598177 464.386187 
L 568.194743 466.672969 
" style="fill: none; stroke: #000000; stroke-width: 0.8; stroke-linecap: square"/>
    </g>
    <g id="text_13">
     <!-- $\mathdefault{2}$ -->
     <g transform="translate(572.805339 491.904354) scale(0.18 -0.18)">
      <use xlink:href="#CMR17-32" transform="scale(0.996264)"/>
     </g>
    </g>
   </g>
   <g id="xtick_13">
    <g id="line2d_15">
     <path d="M 580.441212 444.05883 
L 587.979144 446.296172 
" style="fill: none; stroke: #000000; stroke-width: 0.8; stroke-linecap: square"/>
    </g>
    <g id="text_14">
     <!-- $\mathdefault{3}$ -->
     <g transform="translate(592.484958 471.398923) scale(0.18 -0.18)">
      <use xlink:href="#CMR17-33" transform="scale(0.996264)"/>
     </g>
    </g>
   </g>
   <g id="xtick_14">
    <g id="line2d_16">
     <path d="M 599.85779 424.168338 
L 607.337842 426.357826 
" style="fill: none; stroke: #000000; stroke-width: 0.8; stroke-linecap: square"/>
    </g>
    <g id="text_15">
     <!-- $\mathdefault{4}$ -->
     <g transform="translate(611.741338 451.33449) scale(0.18 -0.18)">
      <defs>
       <path id="CMR17-34" d="M 2150 4122 
C 2150 4256 2144 4256 2029 4256 
L 128 1254 
L 128 1088 
L 1779 1088 
L 1779 457 
C 1779 224 1766 160 1318 160 
L 1197 160 
L 1197 0 
C 1402 0 1747 0 1965 0 
C 2182 0 2528 0 2733 0 
L 2733 160 
L 2611 160 
C 2163 160 2150 224 2150 457 
L 2150 1088 
L 2803 1088 
L 2803 1254 
L 2150 1254 
L 2150 4122 
z
M 1798 3703 
L 1798 1254 
L 256 1254 
L 1798 3703 
z
" transform="scale(0.015625)"/>
      </defs>
      <use xlink:href="#CMR17-34" transform="scale(0.996264)"/>
     </g>
    </g>
   </g>
   <g id="text_16">
    <!-- $\theta_p$ -->
    <g transform="translate(574.129348 550.992807) rotate(-45.742112) scale(0.2 -0.2)">
     <defs>
      <path id="CMMI12-12" d="M 2835 3200 
C 2835 3850 2630 4480 2106 4480 
C 1210 4480 256 2615 256 1216 
C 256 923 320 -64 992 -64 
C 1862 -64 2835 1756 2835 3200 
z
M 896 2304 
C 992 2679 1126 3214 1382 3665 
C 1594 4047 1818 4352 2099 4352 
C 2310 4352 2451 4174 2451 3564 
C 2451 3334 2432 3017 2246 2304 
L 896 2304 
z
M 2202 2113 
C 2042 1490 1907 1088 1677 687 
C 1491 363 1267 64 998 64 
C 800 64 640 217 640 846 
C 640 1260 742 1693 845 2113 
L 2202 2113 
z
" transform="scale(0.015625)"/>
      <path id="CMMI12-70" d="M 275 -789 
C 230 -980 205 -1031 -58 -1031 
C -134 -1031 -198 -1031 -198 -1152 
C -198 -1165 -192 -1216 -122 -1216 
C -38 -1216 51 -1216 134 -1216 
L 410 -1216 
C 544 -1216 870 -1216 1005 -1216 
C 1043 -1216 1120 -1216 1120 -1101 
C 1120 -1031 1075 -1031 966 -1031 
C 672 -1031 653 -987 653 -937 
C 653 -861 941 219 979 364 
C 1050 185 1222 -64 1555 -64 
C 2278 -64 3059 875 3059 1814 
C 3059 2401 2726 2816 2246 2816 
C 1837 2816 1491 2420 1421 2331 
C 1370 2650 1120 2816 864 2816 
C 678 2816 531 2727 410 2484 
C 294 2254 205 1865 205 1839 
C 205 1814 230 1782 275 1782 
C 326 1782 333 1788 371 1935 
C 467 2312 589 2689 845 2689 
C 992 2689 1043 2587 1043 2397 
C 1043 2245 1024 2181 998 2067 
L 275 -789 
z
M 1382 1993 
C 1427 2171 1606 2357 1709 2446 
C 1779 2510 1990 2689 2234 2689 
C 2515 2689 2643 2408 2643 2076 
C 2643 1769 2464 1047 2304 715 
C 2144 370 1850 64 1555 64 
C 1120 64 1050 613 1050 639 
C 1050 658 1062 709 1069 741 
L 1382 1993 
z
" transform="scale(0.015625)"/>
     </defs>
     <use xlink:href="#CMMI12-12" transform="scale(0.996264)"/>
     <use xlink:href="#CMMI12-70" transform="translate(45.45979 -14.943915) scale(0.697382)"/>
    </g>
   </g>
  </g>
  <g id="axis3d_3">
   <g id="line2d_17">
    <path d="M 612.08999 414.901093 
L 622.642028 184.471543 
" style="fill: none; stroke: #000000; stroke-width: 0.8; stroke-linecap: square"/>
   </g>
   <g id="xtick_15">
    <g id="line2d_18">
     <path d="M 610.883599 386.031348 
L 618.376735 388.175207 
" style="fill: none; stroke: #000000; stroke-width: 0.8; stroke-linecap: square"/>
    </g>
    <g id="text_17">
     <!-- $\mathdefault{0.5}$ -->
     <g transform="translate(623.484522 396.279551) scale(0.18 -0.18)">
      <defs>
       <path id="CMMI12-3a" d="M 1178 307 
C 1178 492 1024 619 870 619 
C 685 619 557 466 557 313 
C 557 128 710 0 864 0 
C 1050 0 1178 153 1178 307 
z
" transform="scale(0.015625)"/>
      </defs>
      <use xlink:href="#CMR17-30" transform="scale(0.996264)"/>
      <use xlink:href="#CMMI12-3a" transform="translate(45.690477 0) scale(0.996264)"/>
      <use xlink:href="#CMR17-35" transform="translate(72.787654 0) scale(0.996264)"/>
     </g>
    </g>
   </g>
   <g id="xtick_16">
    <g id="line2d_19">
     <path d="M 613.003982 339.228004 
L 620.567558 341.334815 
" style="fill: none; stroke: #000000; stroke-width: 0.8; stroke-linecap: square"/>
    </g>
    <g id="text_18">
     <!-- $\mathdefault{0.6}$ -->
     <g transform="translate(625.81251 349.514361) scale(0.18 -0.18)">
      <use xlink:href="#CMR17-30" transform="scale(0.996264)"/>
      <use xlink:href="#CMMI12-3a" transform="translate(45.690477 0) scale(0.996264)"/>
      <use xlink:href="#CMR17-36" transform="translate(72.787654 0) scale(0.996264)"/>
     </g>
    </g>
   </g>
   <g id="xtick_17">
    <g id="line2d_20">
     <path d="M 615.163087 291.569955 
L 622.798437 293.638 
" style="fill: none; stroke: #000000; stroke-width: 0.8; stroke-linecap: square"/>
    </g>
    <g id="text_19">
     <!-- $\mathdefault{0.7}$ -->
     <g transform="translate(628.182958 301.896231) scale(0.18 -0.18)">
      <use xlink:href="#CMR17-30" transform="scale(0.996264)"/>
      <use xlink:href="#CMMI12-3a" transform="translate(45.690477 0) scale(0.996264)"/>
      <use xlink:href="#CMR17-37" transform="translate(72.787654 0) scale(0.996264)"/>
     </g>
    </g>
   </g>
   <g id="xtick_18">
    <g id="line2d_21">
     <path d="M 617.361984 243.033571 
L 625.070482 245.061056 
" style="fill: none; stroke: #000000; stroke-width: 0.8; stroke-linecap: square"/>
    </g>
    <g id="text_20">
     <!-- $\mathdefault{0.8}$ -->
     <g transform="translate(630.597037 253.401613) scale(0.18 -0.18)">
      <use xlink:href="#CMR17-30" transform="scale(0.996264)"/>
      <use xlink:href="#CMMI12-3a" transform="translate(45.690477 0) scale(0.996264)"/>
      <use xlink:href="#CMR17-38" transform="translate(72.787654 0) scale(0.996264)"/>
     </g>
    </g>
   </g>
   <g id="xtick_19">
    <g id="line2d_22">
     <path d="M 619.601784 193.594346 
L 627.384843 195.579395 
" style="fill: none; stroke: #000000; stroke-width: 0.8; stroke-linecap: square"/>
    </g>
    <g id="text_21">
     <!-- $\mathdefault{0.9}$ -->
     <g transform="translate(633.055964 204.00608) scale(0.18 -0.18)">
      <use xlink:href="#CMR17-30" transform="scale(0.996264)"/>
      <use xlink:href="#CMMI12-3a" transform="translate(45.690477 0) scale(0.996264)"/>
      <use xlink:href="#CMR17-39" transform="translate(72.787654 0) scale(0.996264)"/>
     </g>
    </g>
   </g>
   <g id="text_22">
    <!-- $C_T$ -->
    <g transform="translate(688.035743 304.524079) rotate(-87.378092) scale(0.2 -0.2)">
     <defs>
      <path id="CMMI12-43" d="M 4781 4423 
C 4781 4480 4736 4480 4723 4480 
C 4710 4480 4685 4480 4634 4416 
L 4192 3882 
C 3968 4264 3616 4480 3136 4480 
C 1754 4480 320 3088 320 1595 
C 320 533 1069 -128 2003 -128 
C 2515 -128 2963 88 3334 400 
C 3891 863 4058 1481 4058 1531 
C 4058 1588 4006 1588 3987 1588 
C 3930 1588 3923 1550 3910 1524 
C 3616 534 2752 57 2112 57 
C 1434 57 845 489 845 1391 
C 845 1595 909 2700 1632 3532 
C 1984 3939 2586 4295 3194 4295 
C 3898 4295 4211 3717 4211 3068 
C 4211 2903 4192 2764 4192 2738 
C 4192 2681 4256 2681 4275 2681 
C 4346 2681 4352 2687 4378 2801 
L 4781 4423 
z
" transform="scale(0.015625)"/>
      <path id="CMMI12-54" d="M 2669 3910 
C 2707 4064 2720 4121 2816 4147 
C 2867 4160 3078 4160 3213 4160 
C 3853 4160 4154 4134 4154 3634 
C 4154 3537 4128 3295 4090 3057 
L 4083 2980 
C 4083 2954 4109 2916 4147 2916 
C 4211 2916 4211 2948 4230 3050 
L 4416 4184 
C 4429 4243 4429 4256 4429 4275 
C 4429 4345 4390 4345 4262 4345 
L 762 4345 
C 614 4345 608 4339 570 4224 
L 179 3070 
C 173 3056 154 2986 154 2980 
C 154 2948 179 2916 218 2916 
C 269 2916 282 2941 307 3024 
C 576 3801 710 4160 1562 4160 
L 1990 4160 
C 2144 4160 2208 4160 2208 4089 
C 2208 4069 2208 4057 2176 3941 
L 1318 499 
C 1254 249 1242 185 563 185 
C 403 185 358 185 358 64 
C 358 0 429 0 461 0 
C 621 0 787 0 947 0 
L 1946 0 
C 2106 0 2278 0 2438 0 
C 2509 0 2573 0 2573 121 
C 2573 185 2528 185 2362 185 
C 1786 185 1786 243 1786 339 
C 1786 346 1786 391 1811 494 
L 2669 3910 
z
" transform="scale(0.015625)"/>
     </defs>
     <use xlink:href="#CMMI12-43" transform="scale(0.996264)"/>
     <use xlink:href="#CMMI12-54" transform="translate(69.792037 -14.943915) scale(0.697382)"/>
    </g>
   </g>
  </g>
  <g id="axes_1">
   <g id="Poly3DCollection_1">
    <path d="M 312.85653 343.10799 
L 337.767735 331.267805 
L 348.431062 328.95868 
L 323.578938 339.011274 
z
" clip-path="url(#pb213d2a911)" style="fill: #0d0887"/>
    <path d="M 302.005807 347.510472 
L 326.967471 333.881939 
L 337.767735 331.267805 
L 312.85653 343.10799 
z
" clip-path="url(#pb213d2a911)" style="fill: #20068f"/>
    <path d="M 337.767735 331.267805 
L 363.084748 322.836795 
L 373.6611 321.892663 
L 348.431062 328.95868 
z
" clip-path="url(#pb213d2a911)" style="fill: #3a049a"/>
    <path d="M 291.025987 352.222403 
L 316.026303 336.547851 
L 326.967471 333.881939 
L 302.005807 347.510472 
z
" clip-path="url(#pb213d2a911)" style="fill: #2e0595"/>
    <path d="M 326.967471 333.881939 
L 352.363764 323.848768 
L 363.084748 322.836795 
L 337.767735 331.267805 
z
" clip-path="url(#pb213d2a911)" style="fill: #4b03a1"/>
    <path d="M 363.084748 322.836795 
L 388.770473 315.123338 
L 399.243119 315.175687 
L 373.6611 321.892663 
z
" clip-path="url(#pb213d2a911)" style="fill: #5901a5"/>
    <path d="M 279.915316 357.194643 
L 304.942901 339.364048 
L 316.026303 336.547851 
L 291.025987 352.222403 
z
" clip-path="url(#pb213d2a911)" style="fill: #3a049a"/>
    <path d="M 316.026303 336.547851 
L 341.49573 324.964556 
L 352.363764 323.848768 
L 326.967471 333.881939 
z
" clip-path="url(#pb213d2a911)" style="fill: #5901a5"/>
    <path d="M 352.363764 323.848768 
L 378.149465 315.018151 
L 388.770473 315.123338 
L 363.084748 322.836795 
z
" clip-path="url(#pb213d2a911)" style="fill: #6a00a8"/>
    <path d="M 388.770473 315.123338 
L 414.824042 307.652483 
L 425.172375 309.410959 
L 399.243119 315.175687 
z
" clip-path="url(#pb213d2a911)" style="fill: #7701a8"/>
    <path d="M 268.673227 362.457073 
L 293.723786 342.87464 
L 304.942901 339.364048 
L 279.915316 357.194643 
z
" clip-path="url(#pb213d2a911)" style="fill: #46039f"/>
    <path d="M 304.942901 339.364048 
L 330.479575 326.346802 
L 341.49573 324.964556 
L 316.026303 336.547851 
z
" clip-path="url(#pb213d2a911)" style="fill: #6700a8"/>
    <path d="M 414.824042 307.652483 
L 441.226951 302.148893 
L 451.429915 305.35505 
L 425.172375 309.410959 
z
" clip-path="url(#pb213d2a911)" style="fill: #8e0ca4"/>
    <path d="M 341.49573 324.964556 
L 367.376954 315.062284 
L 378.149465 315.018151 
L 352.363764 323.848768 
z
" clip-path="url(#pb213d2a911)" style="fill: #7b02a8"/>
    <path d="M 378.149465 315.018151 
L 404.32038 306.056635 
L 414.824042 307.652483 
L 388.770473 315.123338 
z
" clip-path="url(#pb213d2a911)" style="fill: #8808a6"/>
    <path d="M 257.294663 367.834031 
L 282.361128 346.568847 
L 293.723786 342.87464 
L 268.673227 362.457073 
z
" clip-path="url(#pb213d2a911)" style="fill: #5002a2"/>
    <path d="M 293.723786 342.87464 
L 319.314278 328.042677 
L 330.479575 326.346802 
L 304.942901 339.364048 
z
" clip-path="url(#pb213d2a911)" style="fill: #7501a8"/>
    <path d="M 441.226951 302.148893 
L 467.970809 297.744926 
L 478.007242 302.42177 
L 451.429915 305.35505 
z
" clip-path="url(#pb213d2a911)" style="fill: #a21d9a"/>
    <path d="M 330.479575 326.346802 
L 356.450572 315.247108 
L 367.376954 315.062284 
L 341.49573 324.964556 
z
" clip-path="url(#pb213d2a911)" style="fill: #8b0aa5"/>
    <path d="M 404.32038 306.056635 
L 430.862697 299.138916 
L 441.226951 302.148893 
L 414.824042 307.652483 
z
" clip-path="url(#pb213d2a911)" style="fill: #a21d9a"/>
    <path d="M 367.376954 315.062284 
L 393.658684 304.738354 
L 404.32038 306.056635 
L 378.149465 315.018151 
z
" clip-path="url(#pb213d2a911)" style="fill: #9a169f"/>
    <path d="M 245.777156 373.31633 
L 270.857303 350.660905 
L 282.361128 346.568847 
L 257.294663 367.834031 
z
" clip-path="url(#pb213d2a911)" style="fill: #5901a5"/>
    <path d="M 282.361128 346.568847 
L 307.997271 329.953292 
L 319.314278 328.042677 
L 293.723786 342.87464 
z
" clip-path="url(#pb213d2a911)" style="fill: #8104a7"/>
    <path d="M 467.970809 297.744926 
L 495.034101 294.923109 
L 504.875886 301.314912 
L 478.007242 302.42177 
z
" clip-path="url(#pb213d2a911)" style="fill: #b22b8f"/>
    <path d="M 319.314278 328.042677 
L 345.367283 315.474926 
L 356.450572 315.247108 
L 330.479575 326.346802 
z
" clip-path="url(#pb213d2a911)" style="fill: #9a169f"/>
    <path d="M 430.862697 299.138916 
L 457.766239 293.342548 
L 467.970809 297.744926 
L 441.226951 302.148893 
z
" clip-path="url(#pb213d2a911)" style="fill: #b52f8c"/>
    <path d="M 356.450572 315.247108 
L 382.836902 304.002558 
L 393.658684 304.738354 
L 367.376954 315.062284 
z
" clip-path="url(#pb213d2a911)" style="fill: #aa2395"/>
    <path d="M 393.658684 304.738354 
L 420.334948 296.318336 
L 430.862697 299.138916 
L 404.32038 306.056635 
z
" clip-path="url(#pb213d2a911)" style="fill: #b32c8e"/>
    <path d="M 234.132268 379.410411 
L 259.214072 355.254391 
L 270.857303 350.660905 
L 245.777156 373.31633 
z
" clip-path="url(#pb213d2a911)" style="fill: #6300a7"/>
    <path d="M 495.034101 294.923109 
L 522.403027 293.516594 
L 532.034714 301.313471 
L 504.875886 301.314912 
z
" clip-path="url(#pb213d2a911)" style="fill: #bd3786"/>
    <path d="M 270.857303 350.660905 
L 296.524693 331.954633 
L 307.997271 329.953292 
L 282.361128 346.568847 
z
" clip-path="url(#pb213d2a911)" style="fill: #8e0ca4"/>
    <path d="M 457.766239 293.342548 
L 485.015195 288.915453 
L 495.034101 294.923109 
L 467.970809 297.744926 
z
" clip-path="url(#pb213d2a911)" style="fill: #c5407e"/>
    <path d="M 307.997271 329.953292 
L 334.125544 315.945114 
L 345.367283 315.474926 
L 319.314278 328.042677 
z
" clip-path="url(#pb213d2a911)" style="fill: #a72197"/>
    <path d="M 222.359699 386.069972 
L 247.421901 359.960709 
L 259.214072 355.254391 
L 234.132268 379.410411 
z
" clip-path="url(#pb213d2a911)" style="fill: #6a00a8"/>
    <path d="M 345.367283 315.474926 
L 371.854916 303.517984 
L 382.836902 304.002558 
L 356.450572 315.247108 
z
" clip-path="url(#pb213d2a911)" style="fill: #b7318a"/>
    <path d="M 420.334948 296.318336 
L 447.391126 289.249674 
L 457.766239 293.342548 
L 430.862697 299.138916 
z
" clip-path="url(#pb213d2a911)" style="fill: #c6417d"/>
    <path d="M 382.836902 304.002558 
L 409.640138 293.87719 
L 420.334948 296.318336 
L 393.658684 304.738354 
z
" clip-path="url(#pb213d2a911)" style="fill: #c23c81"/>
    <path d="M 522.403027 293.516594 
L 550.074388 293.130237 
L 559.471376 302.436719 
L 532.034714 301.313471 
z
" clip-path="url(#pb213d2a911)" style="fill: #c7427c"/>
    <path d="M 259.214072 355.254391 
L 284.893906 334.058772 
L 296.524693 331.954633 
L 270.857303 350.660905 
z
" clip-path="url(#pb213d2a911)" style="fill: #9814a0"/>
    <path d="M 485.015195 288.915453 
L 512.585122 286.22984 
L 522.403027 293.516594 
L 495.034101 294.923109 
z
" clip-path="url(#pb213d2a911)" style="fill: #d04d73"/>
    <path d="M 296.524693 331.954633 
L 322.723512 316.667612 
L 334.125544 315.945114 
L 307.997271 329.953292 
z
" clip-path="url(#pb213d2a911)" style="fill: #b32c8e"/>
    <path d="M 210.464552 393.429289 
L 235.480995 364.882637 
L 247.421901 359.960709 
L 222.359699 386.069972 
z
" clip-path="url(#pb213d2a911)" style="fill: #7201a8"/>
    <path d="M 447.391126 289.249674 
L 474.816662 283.348775 
L 485.015195 288.915453 
L 457.766239 293.342548 
z
" clip-path="url(#pb213d2a911)" style="fill: #d5536f"/>
    <path d="M 334.125544 315.945114 
L 360.710128 303.062492 
L 371.854916 303.517984 
L 345.367283 315.474926 
z
" clip-path="url(#pb213d2a911)" style="fill: #c33d80"/>
    <path d="M 409.640138 293.87719 
L 436.842459 285.574124 
L 447.391126 289.249674 
L 420.334948 296.318336 
z
" clip-path="url(#pb213d2a911)" style="fill: #d45270"/>
    <path d="M 371.854916 303.517984 
L 398.777095 291.794573 
L 409.640138 293.87719 
L 382.836902 304.002558 
z
" clip-path="url(#pb213d2a911)" style="fill: #ce4b75"/>
    <path d="M 550.074388 293.130237 
L 578.03301 293.891202 
L 587.181316 304.492491 
L 559.471376 302.436719 
z
" clip-path="url(#pb213d2a911)" style="fill: #ce4b75"/>
    <path d="M 247.421901 359.960709 
L 273.106767 336.503505 
L 284.893906 334.058772 
L 259.214072 355.254391 
z
" clip-path="url(#pb213d2a911)" style="fill: #a21d9a"/>
    <path d="M 512.585122 286.22984 
L 540.477268 284.567129 
L 550.074388 293.130237 
L 522.403027 293.516594 
z
" clip-path="url(#pb213d2a911)" style="fill: #da5a6a"/>
    <path d="M 198.423822 400.771012 
L 223.40426 370.523047 
L 235.480995 364.882637 
L 210.464552 393.429289 
z
" clip-path="url(#pb213d2a911)" style="fill: #7801a8"/>
    <path d="M 284.893906 334.058772 
L 311.159249 317.642612 
L 322.723512 316.667612 
L 296.524693 331.954633 
z
" clip-path="url(#pb213d2a911)" style="fill: #be3885"/>
    <path d="M 474.816662 283.348775 
L 502.576249 279.616232 
L 512.585122 286.22984 
L 485.015195 288.915453 
z
" clip-path="url(#pb213d2a911)" style="fill: #e06363"/>
    <path d="M 322.723512 316.667612 
L 349.399723 302.752302 
L 360.710128 303.062492 
L 334.125544 315.945114 
z
" clip-path="url(#pb213d2a911)" style="fill: #ce4b75"/>
    <path d="M 436.842459 285.574124 
L 464.432037 278.542169 
L 474.816662 283.348775 
L 447.391126 289.249674 
z
" clip-path="url(#pb213d2a911)" style="fill: #e26660"/>
    <path d="M 360.710128 303.062492 
L 387.744337 290.093665 
L 398.777095 291.794573 
L 371.854916 303.517984 
z
" clip-path="url(#pb213d2a911)" style="fill: #da5a6a"/>
    <path d="M 398.777095 291.794573 
L 426.118401 282.38672 
L 436.842459 285.574124 
L 409.640138 293.87719 
z
" clip-path="url(#pb213d2a911)" style="fill: #e06363"/>
    <path d="M 235.480995 364.882637 
L 261.166344 339.486333 
L 273.106767 336.503505 
L 247.421901 359.960709 
z
" clip-path="url(#pb213d2a911)" style="fill: #ab2494"/>
    <path d="M 540.477268 284.567129 
L 568.6663 284.346301 
L 578.03301 293.891202 
L 550.074388 293.130237 
z
" clip-path="url(#pb213d2a911)" style="fill: #e26561"/>
    <path d="M 186.25217 408.583368 
L 211.196225 376.973246 
L 223.40426 370.523047 
L 198.423822 400.771012 
z
" clip-path="url(#pb213d2a911)" style="fill: #7e03a8"/>
    <path d="M 273.106767 336.503505 
L 299.430357 318.842701 
L 311.159249 317.642612 
L 284.893906 334.058772 
z
" clip-path="url(#pb213d2a911)" style="fill: #c8437b"/>
    <path d="M 502.576249 279.616232 
L 530.667077 277.201723 
L 540.477268 284.567129 
L 512.585122 286.22984 
z
" clip-path="url(#pb213d2a911)" style="fill: #e97257"/>
    <path d="M 311.159249 317.642612 
L 337.922691 302.825268 
L 349.399723 302.752302 
L 322.723512 316.667612 
z
" clip-path="url(#pb213d2a911)" style="fill: #d8576b"/>
    <path d="M 464.432037 278.542169 
L 492.367329 274.093403 
L 502.576249 279.616232 
L 474.816662 283.348775 
z
" clip-path="url(#pb213d2a911)" style="fill: #ed7a52"/>
    <path d="M 349.399723 302.752302 
L 376.540541 288.832995 
L 387.744337 290.093665 
L 360.710128 303.062492 
z
" clip-path="url(#pb213d2a911)" style="fill: #e3685f"/>
    <path d="M 426.118401 282.38672 
L 453.858431 274.743685 
L 464.432037 278.542169 
L 436.842459 285.574124 
z
" clip-path="url(#pb213d2a911)" style="fill: #ed7a52"/>
    <path d="M 387.744337 290.093665 
L 415.217202 279.821874 
L 426.118401 282.38672 
L 398.777095 291.794573 
z
" clip-path="url(#pb213d2a911)" style="fill: #ea7457"/>
    <path d="M 223.40426 370.523047 
L 249.078745 343.255276 
L 261.166344 339.486333 
L 235.480995 364.882637 
z
" clip-path="url(#pb213d2a911)" style="fill: #b32c8e"/>
    <path d="M 174.031192 418.934446 
L 198.837864 383.611356 
L 211.196225 376.973246 
L 186.25217 408.583368 
z
" clip-path="url(#pb213d2a911)" style="fill: #8104a7"/>
    <path d="M 530.667077 277.201723 
L 559.058606 276.567 
L 568.6663 284.346301 
L 540.477268 284.567129 
z
" clip-path="url(#pb213d2a911)" style="fill: #f07f4f"/>
    <path d="M 261.166344 339.486333 
L 287.533893 320.226472 
L 299.430357 318.842701 
L 273.106767 336.503505 
z
" clip-path="url(#pb213d2a911)" style="fill: #d04d73"/>
    <path d="M 492.367329 274.093403 
L 520.632071 271.5735 
L 530.667077 277.201723 
L 502.576249 279.616232 
z
" clip-path="url(#pb213d2a911)" style="fill: #f58b47"/>
    <path d="M 299.430357 318.842701 
L 326.278256 303.331941 
L 337.922691 302.825268 
L 311.159249 317.642612 
z
" clip-path="url(#pb213d2a911)" style="fill: #e16462"/>
    <path d="M 211.196225 376.973246 
L 236.829259 347.194021 
L 249.078745 343.255276 
L 223.40426 370.523047 
z
" clip-path="url(#pb213d2a911)" style="fill: #ba3388"/>
    <path d="M 161.690454 429.771399 
L 186.317126 390.1697 
L 198.837864 383.611356 
L 174.031192 418.934446 
z
" clip-path="url(#pb213d2a911)" style="fill: #8405a7"/>
    <path d="M 453.858431 274.743685 
L 481.952124 270.10298 
L 492.367329 274.093403 
L 464.432037 278.542169 
z
" clip-path="url(#pb213d2a911)" style="fill: #f68f44"/>
    <path d="M 337.922691 302.825268 
L 365.166699 288.929919 
L 376.540541 288.832995 
L 349.399723 302.752302 
z
" clip-path="url(#pb213d2a911)" style="fill: #eb7655"/>
    <path d="M 415.217202 279.821874 
L 443.092396 272.408306 
L 453.858431 274.743685 
L 426.118401 282.38672 
z
" clip-path="url(#pb213d2a911)" style="fill: #f68d45"/>
    <path d="M 376.540541 288.832995 
L 404.134668 278.692696 
L 415.217202 279.821874 
L 387.744337 290.093665 
z
" clip-path="url(#pb213d2a911)" style="fill: #f3854b"/>
    <path d="M 249.078745 343.255276 
L 275.47503 322.196606 
L 287.533893 320.226472 
L 261.166344 339.486333 
z
" clip-path="url(#pb213d2a911)" style="fill: #d8576b"/>
    <path d="M 520.632071 271.5735 
L 549.210742 270.713034 
L 559.058606 276.567 
L 530.667077 277.201723 
z
" clip-path="url(#pb213d2a911)" style="fill: #f99a3e"/>
    <path d="M 287.533893 320.226472 
L 314.468038 304.4902 
L 326.278256 303.331941 
L 299.430357 318.842701 
z
" clip-path="url(#pb213d2a911)" style="fill: #e87059"/>
    <path d="M 198.837864 383.611356 
L 224.423106 351.569678 
L 236.829259 347.194021 
L 211.196225 376.973246 
z
" clip-path="url(#pb213d2a911)" style="fill: #bf3984"/>
    <path d="M 481.952124 270.10298 
L 510.380344 267.608269 
L 520.632071 271.5735 
L 492.367329 274.093403 
z
" clip-path="url(#pb213d2a911)" style="fill: #fba238"/>
    <path d="M 326.278256 303.331941 
L 353.627612 290.335378 
L 365.166699 288.929919 
L 337.922691 302.825268 
z
" clip-path="url(#pb213d2a911)" style="fill: #f2844b"/>
    <path d="M 443.092396 272.408306 
L 471.33706 267.58278 
L 481.952124 270.10298 
L 453.858431 274.743685 
z
" clip-path="url(#pb213d2a911)" style="fill: #fca338"/>
    <path d="M 365.166699 288.929919 
L 392.877051 278.678916 
L 404.134668 278.692696 
L 376.540541 288.832995 
z
" clip-path="url(#pb213d2a911)" style="fill: #f89540"/>
    <path d="M 404.134668 278.692696 
L 432.140517 271.402764 
L 443.092396 272.408306 
L 415.217202 279.821874 
z
" clip-path="url(#pb213d2a911)" style="fill: #fb9f3a"/>
    <path d="M 236.829259 347.194021 
L 263.250374 324.588942 
L 275.47503 322.196606 
L 249.078745 343.255276 
z
" clip-path="url(#pb213d2a911)" style="fill: #de6164"/>
    <path d="M 186.317126 390.1697 
L 211.8814 357.071446 
L 224.423106 351.569678 
L 198.837864 383.611356 
z
" clip-path="url(#pb213d2a911)" style="fill: #c5407e"/>
    <path d="M 510.380344 267.608269 
L 539.124666 266.952907 
L 549.210742 270.713034 
L 520.632071 271.5735 
z
" clip-path="url(#pb213d2a911)" style="fill: #fdb22f"/>
    <path d="M 275.47503 322.196606 
L 302.498484 306.721231 
L 314.468038 304.4902 
L 287.533893 320.226472 
z
" clip-path="url(#pb213d2a911)" style="fill: #ee7b51"/>
    <path d="M 471.33706 267.58278 
L 499.911419 265.58225 
L 510.380344 267.608269 
L 481.952124 270.10298 
z
" clip-path="url(#pb213d2a911)" style="fill: #feb72d"/>
    <path d="M 314.468038 304.4902 
L 341.92407 292.433319 
L 353.627612 290.335378 
L 326.278256 303.331941 
z
" clip-path="url(#pb213d2a911)" style="fill: #f79143"/>
    <path d="M 432.140517 271.402764 
L 460.52408 266.73129 
L 471.33706 267.58278 
L 443.092396 272.408306 
z
" clip-path="url(#pb213d2a911)" style="fill: #feb82c"/>
    <path d="M 353.627612 290.335378 
L 381.447677 279.796454 
L 392.877051 278.678916 
L 365.166699 288.929919 
z
" clip-path="url(#pb213d2a911)" style="fill: #fca338"/>
    <path d="M 392.877051 278.678916 
L 421.007245 271.732323 
L 432.140517 271.402764 
L 404.134668 278.692696 
z
" clip-path="url(#pb213d2a911)" style="fill: #fdb130"/>
    <path d="M 224.423106 351.569678 
L 250.869773 327.855516 
L 263.250374 324.588942 
L 236.829259 347.194021 
z
" clip-path="url(#pb213d2a911)" style="fill: #e4695e"/>
    <path d="M 263.250374 324.588942 
L 290.365485 309.564333 
L 302.498484 306.721231 
L 275.47503 322.196606 
z
" clip-path="url(#pb213d2a911)" style="fill: #f3874a"/>
    <path d="M 499.911419 265.58225 
L 528.796257 265.719813 
L 539.124666 266.952907 
L 510.380344 267.608269 
z
" clip-path="url(#pb213d2a911)" style="fill: #fdc827"/>
    <path d="M 302.498484 306.721231 
L 330.056096 295.13436 
L 341.92407 292.433319 
L 314.468038 304.4902 
z
" clip-path="url(#pb213d2a911)" style="fill: #fa9e3b"/>
    <path d="M 460.52408 266.73129 
L 489.229848 265.648705 
L 499.911419 265.58225 
L 471.33706 267.58278 
z
" clip-path="url(#pb213d2a911)" style="fill: #fdcb26"/>
    <path d="M 341.92407 292.433319 
L 369.850017 281.985381 
L 381.447677 279.796454 
L 353.627612 290.335378 
z
" clip-path="url(#pb213d2a911)" style="fill: #fdb22f"/>
    <path d="M 421.007245 271.732323 
L 449.516451 267.781495 
L 460.52408 266.73129 
L 432.140517 271.402764 
z
" clip-path="url(#pb213d2a911)" style="fill: #fdca26"/>
    <path d="M 381.447677 279.796454 
L 409.696789 273.470266 
L 421.007245 271.732323 
L 392.877051 278.678916 
z
" clip-path="url(#pb213d2a911)" style="fill: #fec029"/>
    <path d="M 211.8814 357.071446 
L 238.32905 331.753757 
L 250.869773 327.855516 
L 224.423106 351.569678 
z
" clip-path="url(#pb213d2a911)" style="fill: #e97158"/>
    <path d="M 250.869773 327.855516 
L 278.070951 313.104993 
L 290.365485 309.564333 
L 263.250374 324.588942 
z
" clip-path="url(#pb213d2a911)" style="fill: #f79143"/>
    <path d="M 489.229848 265.648705 
L 518.232327 267.177021 
L 528.796257 265.719813 
L 499.911419 265.58225 
z
" clip-path="url(#pb213d2a911)" style="fill: #f9dc24"/>
    <path d="M 290.365485 309.564333 
L 318.026479 298.669085 
L 330.056096 295.13436 
L 302.498484 306.721231 
z
" clip-path="url(#pb213d2a911)" style="fill: #fca934"/>
    <path d="M 449.516451 267.781495 
L 478.341611 267.964408 
L 489.229848 265.648705 
L 460.52408 266.73129 
z
" clip-path="url(#pb213d2a911)" style="fill: #f9dd25"/>
    <path d="M 330.056096 295.13436 
L 358.087766 285.371288 
L 369.850017 281.985381 
L 341.92407 292.433319 
z
" clip-path="url(#pb213d2a911)" style="fill: #febe2a"/>
    <path d="M 409.696789 273.470266 
L 438.321348 270.817443 
L 449.516451 267.781495 
L 421.007245 271.732323 
z
" clip-path="url(#pb213d2a911)" style="fill: #fad824"/>
    <path d="M 369.850017 281.985381 
L 398.214261 276.658925 
L 409.696789 273.470266 
L 381.447677 279.796454 
z
" clip-path="url(#pb213d2a911)" style="fill: #fcce25"/>
    <path d="M 238.32905 331.753757 
L 265.614796 317.295103 
L 278.070951 313.104993 
L 250.869773 327.855516 
z
" clip-path="url(#pb213d2a911)" style="fill: #fa9c3c"/>
    <path d="M 478.341611 267.964408 
L 507.441954 271.463267 
L 518.232327 267.177021 
L 489.229848 265.648705 
z
" clip-path="url(#pb213d2a911)" style="fill: #f5eb27"/>
    <path d="M 278.070951 313.104993 
L 305.83725 303.051631 
L 318.026479 298.669085 
L 290.365485 309.564333 
z
" clip-path="url(#pb213d2a911)" style="fill: #fdb52e"/>
    <path d="M 438.321348 270.817443 
L 467.254348 272.681627 
L 478.341611 267.964408 
L 449.516451 267.781495 
z
" clip-path="url(#pb213d2a911)" style="fill: #f5eb27"/>
    <path d="M 318.026479 298.669085 
L 346.168295 290.502571 
L 358.087766 285.371288 
L 330.056096 295.13436 
z
" clip-path="url(#pb213d2a911)" style="fill: #fdca26"/>
    <path d="M 398.214261 276.658925 
L 426.94804 275.805724 
L 438.321348 270.817443 
L 409.696789 273.470266 
z
" clip-path="url(#pb213d2a911)" style="fill: #f6e626"/>
    <path d="M 358.087766 285.371288 
L 386.565092 281.457423 
L 398.214261 276.658925 
L 369.850017 281.985381 
z
" clip-path="url(#pb213d2a911)" style="fill: #f9dc24"/>
    <path d="M 467.254348 272.681627 
L 496.435094 278.745964 
L 507.441954 271.463267 
L 478.341611 267.964408 
z
" clip-path="url(#pb213d2a911)" style="fill: #f1f426"/>
    <path d="M 265.614796 317.295103 
L 293.490735 308.302583 
L 305.83725 303.051631 
L 278.070951 313.104993 
z
" clip-path="url(#pb213d2a911)" style="fill: #febe2a"/>
    <path d="M 426.94804 275.805724 
L 455.97743 279.944304 
L 467.254348 272.681627 
L 438.321348 270.817443 
z
" clip-path="url(#pb213d2a911)" style="fill: #f1f426"/>
    <path d="M 305.83725 303.051631 
L 334.098499 297.226316 
L 346.168295 290.502571 
L 318.026479 298.669085 
z
" clip-path="url(#pb213d2a911)" style="fill: #fbd324"/>
    <path d="M 386.565092 281.457423 
L 415.404629 282.869364 
L 426.94804 275.805724 
L 398.214261 276.658925 
z
" clip-path="url(#pb213d2a911)" style="fill: #f3ee27"/>
    <path d="M 346.168295 290.502571 
L 374.756291 287.958248 
L 386.565092 281.457423 
L 358.087766 285.371288 
z
" clip-path="url(#pb213d2a911)" style="fill: #f7e425"/>
    <path d="M 455.97743 279.944304 
L 485.224083 289.165684 
L 496.435094 278.745964 
L 467.254348 272.681627 
z
" clip-path="url(#pb213d2a911)" style="fill: #f0f921"/>
    <path d="M 415.404629 282.869364 
L 444.522192 289.86791 
L 455.97743 279.944304 
L 426.94804 275.805724 
z
" clip-path="url(#pb213d2a911)" style="fill: #f0f921"/>
    <path d="M 293.490735 308.302583 
L 321.87948 304.945773 
L 334.098499 297.226316 
L 305.83725 303.051631 
z
" clip-path="url(#pb213d2a911)" style="fill: #f9dc24"/>
    <path d="M 374.756291 287.958248 
L 403.700653 292.118852 
L 415.404629 282.869364 
L 386.565092 281.457423 
z
" clip-path="url(#pb213d2a911)" style="fill: #f1f525"/>
    <path d="M 334.098499 297.226316 
L 362.796185 296.351021 
L 374.756291 287.958248 
L 346.168295 290.502571 
z
" clip-path="url(#pb213d2a911)" style="fill: #f5eb27"/>
    <path d="M 444.522192 289.86791 
L 473.824773 302.763205 
L 485.224083 289.165684 
L 455.97743 279.944304 
z
" clip-path="url(#pb213d2a911)" style="fill: #f0f921"/>
    <path d="M 403.700653 292.118852 
L 432.901404 302.565892 
L 444.522192 289.86791 
L 415.404629 282.869364 
z
" clip-path="url(#pb213d2a911)" style="fill: #f0f921"/>
    <path d="M 362.796185 296.351021 
L 391.847002 303.651183 
L 403.700653 292.118852 
L 374.756291 287.958248 
z
" clip-path="url(#pb213d2a911)" style="fill: #f0f724"/>
    <path d="M 321.87948 304.945773 
L 350.693895 306.581416 
L 362.796185 296.351021 
L 334.098499 297.226316 
z
" clip-path="url(#pb213d2a911)" style="fill: #f3ee27"/>
    <path d="M 432.901404 302.565892 
L 462.255248 319.496651 
L 473.824773 302.763205 
L 444.522192 289.86791 
z
" clip-path="url(#pb213d2a911)" style="fill: #f2f227"/>
    <path d="M 391.847002 303.651183 
L 421.130088 318.057517 
L 432.901404 302.565892 
L 403.700653 292.118852 
z
" clip-path="url(#pb213d2a911)" style="fill: #f1f525"/>
    <path d="M 350.693895 306.581416 
L 379.855848 317.497604 
L 391.847002 303.651183 
L 362.796185 296.351021 
z
" clip-path="url(#pb213d2a911)" style="fill: #f1f525"/>
    <path d="M 421.130088 318.057517 
L 450.534137 339.299212 
L 462.255248 319.496651 
L 432.901404 302.565892 
z
" clip-path="url(#pb213d2a911)" style="fill: #f6e826"/>
    <path d="M 379.855848 317.497604 
L 409.225065 336.180045 
L 421.130088 318.057517 
L 391.847002 303.651183 
z
" clip-path="url(#pb213d2a911)" style="fill: #f4ed27"/>
    <path d="M 409.225065 336.180045 
L 438.681718 361.964519 
L 450.534137 339.299212 
L 421.130088 318.057517 
z
" clip-path="url(#pb213d2a911)" style="fill: #fbd724"/>
   </g>
  </g>
 </g>
 <defs>
  <clipPath id="pb213d2a911">
   <rect x="90" y="63" width="558" height="558"/>
  </clipPath>
 </defs>
</svg>
