<?xml version="1.0" encoding="utf-8" standalone="no"?>
<!DOCTYPE svg PUBLIC "-//W3C//DTD SVG 1.1//EN"
  "http://www.w3.org/Graphics/SVG/1.1/DTD/svg11.dtd">
<svg xmlns:xlink="http://www.w3.org/1999/xlink" width="851.4pt" height="863.194647pt" viewBox="0 0 851.4 863.194647" xmlns="http://www.w3.org/2000/svg" version="1.1">
 <metadata>
  <rdf:RDF xmlns:dc="http://purl.org/dc/elements/1.1/" xmlns:cc="http://creativecommons.org/ns#" xmlns:rdf="http://www.w3.org/1999/02/22-rdf-syntax-ns#">
   <cc:Work>
    <dc:type rdf:resource="http://purl.org/dc/dcmitype/StillImage"/>
    <dc:date>2024-10-03T16:59:16.490795</dc:date>
    <dc:format>image/svg+xml</dc:format>
    <dc:creator>
     <cc:Agent>
      <dc:title>Matplotlib v3.8.4, https://matplotlib.org/</dc:title>
     </cc:Agent>
    </dc:creator>
   </cc:Work>
  </rdf:RDF>
 </metadata>
 <defs>
  <style type="text/css">*{stroke-linejoin: round; stroke-linecap: butt}</style>
 </defs>
 <g id="figure_1">
  <g id="patch_1">
   <path d="M 0 863.194647 
L 851.4 863.194647 
L 851.4 0 
L 0 0 
z
" style="fill: #ffffff"/>
  </g>
  <g id="patch_2">
   <path d="M 7.2 844.2 
L 844.2 844.2 
L 844.2 7.2 
L 7.2 7.2 
z
" style="fill: #ffffff"/>
  </g>
  <g id="pane3d_1">
   <g id="patch_3">
    <path d="M 437.010811 476.8238 
L 761.722012 643.060007 
L 781.847176 171.545661 
L 437.010811 24.840422 
" style="fill: #f2f2f2; opacity: 0.5; stroke: #f2f2f2; stroke-linejoin: miter"/>
   </g>
  </g>
  <g id="pane3d_2">
   <g id="patch_4">
    <path d="M 437.010811 476.8238 
L 112.29961 643.060007 
L 92.174445 171.545661 
L 437.010811 24.840422 
" style="fill: #e6e6e6; opacity: 0.5; stroke: #e6e6e6; stroke-linejoin: miter"/>
   </g>
  </g>
  <g id="pane3d_3">
   <g id="patch_5">
    <path d="M 437.010811 476.8238 
L 112.29961 643.060007 
L 437.010811 831.33048 
L 761.722012 643.060007 
" style="fill: #ececec; opacity: 0.5; stroke: #ececec; stroke-linejoin: miter"/>
   </g>
  </g>
  <g id="grid3d_1">
   <g id="Line3DCollection_1">
    <path d="M 742.265948 654.340808 
L 417.48383 486.820656 
L 416.344021 33.632784 
" style="fill: none; stroke: #b0b0b0; stroke-width: 0.8"/>
    <path d="M 688.098847 685.74738 
L 363.167053 514.628182 
L 358.80944 58.109972 
" style="fill: none; stroke: #b0b0b0; stroke-width: 0.8"/>
    <path d="M 632.725503 717.853342 
L 307.713234 543.017817 
L 299.998594 83.130127 
" style="fill: none; stroke: #b0b0b0; stroke-width: 0.8"/>
    <path d="M 576.105171 750.68232 
L 251.086291 572.008034 
L 239.868542 108.711517 
" style="fill: none; stroke: #b0b0b0; stroke-width: 0.8"/>
    <path d="M 518.195247 784.259014 
L 193.248601 601.618094 
L 178.374393 134.873241 
" style="fill: none; stroke: #b0b0b0; stroke-width: 0.8"/>
    <path d="M 458.951167 818.609264 
L 134.160912 631.868092 
L 115.469195 161.635274 
" style="fill: none; stroke: #b0b0b0; stroke-width: 0.8"/>
   </g>
  </g>
  <g id="grid3d_2">
   <g id="Line3DCollection_2">
    <path d="M 457.6776 33.632784 
L 456.537792 486.820656 
L 131.755674 654.340808 
" style="fill: none; stroke: #b0b0b0; stroke-width: 0.8"/>
    <path d="M 509.929658 55.862605 
L 505.870225 512.076442 
L 180.949247 682.863683 
" style="fill: none; stroke: #b0b0b0; stroke-width: 0.8"/>
    <path d="M 563.233307 78.539809 
L 556.139696 537.811945 
L 231.136705 711.962823 
" style="fill: none; stroke: #b0b0b0; stroke-width: 0.8"/>
    <path d="M 617.620617 101.67804 
L 607.373157 564.040964 
L 282.348476 741.655868 
" style="fill: none; stroke: #b0b0b0; stroke-width: 0.8"/>
    <path d="M 673.124973 125.2915 
L 659.598606 590.777832 
L 334.616243 771.961189 
" style="fill: none; stroke: #b0b0b0; stroke-width: 0.8"/>
    <path d="M 729.781146 149.394983 
L 712.845136 618.037444 
L 387.973007 802.89792 
" style="fill: none; stroke: #b0b0b0; stroke-width: 0.8"/>
   </g>
  </g>
  <g id="grid3d_3">
   <g id="Line3DCollection_3">
    <path d="M 111.42252 622.510579 
L 437.010811 457.057248 
L 762.599102 622.510579 
" style="fill: none; stroke: #b0b0b0; stroke-width: 0.8"/>
    <path d="M 109.218211 570.865639 
L 437.010811 407.407408 
L 764.80341 570.865639 
" style="fill: none; stroke: #b0b0b0; stroke-width: 0.8"/>
    <path d="M 106.983852 518.516636 
L 437.010811 357.120922 
L 767.037769 518.516636 
" style="fill: none; stroke: #b0b0b0; stroke-width: 0.8"/>
    <path d="M 104.718824 465.449074 
L 437.010811 306.185465 
L 769.302798 465.449074 
" style="fill: none; stroke: #b0b0b0; stroke-width: 0.8"/>
    <path d="M 102.42249 411.648055 
L 437.010811 254.588394 
L 771.599132 411.648055 
" style="fill: none; stroke: #b0b0b0; stroke-width: 0.8"/>
    <path d="M 100.094197 357.098268 
L 437.010811 202.316733 
L 773.927424 357.098268 
" style="fill: none; stroke: #b0b0b0; stroke-width: 0.8"/>
    <path d="M 97.733274 301.783972 
L 437.010811 149.357165 
L 776.288348 301.783972 
" style="fill: none; stroke: #b0b0b0; stroke-width: 0.8"/>
    <path d="M 95.339029 245.688982 
L 437.010811 95.696021 
L 778.682593 245.688982 
" style="fill: none; stroke: #b0b0b0; stroke-width: 0.8"/>
    <path d="M 92.910752 188.796653 
L 437.010811 41.319267 
L 781.11087 188.796653 
" style="fill: none; stroke: #b0b0b0; stroke-width: 0.8"/>
   </g>
  </g>
  <g id="axis3d_1">
   <g id="line2d_1">
    <path d="M 761.722012 643.060007 
L 437.010811 831.33048 
" style="fill: none; stroke: #000000; stroke-width: 0.8; stroke-linecap: square"/>
   </g>
   <g id="xtick_1">
    <g id="line2d_2">
     <path d="M 739.506933 652.917729 
L 747.79225 657.191232 
" style="fill: none; stroke: #000000; stroke-width: 0.8; stroke-linecap: square"/>
    </g>
    <g id="text_1">
     <!-- $\mathdefault{7.2}$ -->
     <g transform="translate(740.175505 686.760409) scale(0.2 -0.2)">
      <defs>
       <path id="CMR17-37" d="M 2886 3941 
L 2886 4081 
L 1382 4081 
C 634 4081 621 4165 595 4288 
L 480 4288 
L 294 3094 
L 410 3094 
C 429 3215 474 3540 550 3661 
C 589 3712 1062 3712 1171 3712 
L 2579 3712 
L 1869 2661 
C 1395 1954 1069 999 1069 165 
C 1069 89 1069 -128 1299 -128 
C 1530 -128 1530 89 1530 171 
L 1530 465 
C 1530 1508 1709 2196 2003 2636 
L 2886 3941 
z
" transform="scale(0.015625)"/>
       <path id="CMMI12-3a" d="M 1178 307 
C 1178 492 1024 619 870 619 
C 685 619 557 466 557 313 
C 557 128 710 0 864 0 
C 1050 0 1178 153 1178 307 
z
" transform="scale(0.015625)"/>
       <path id="CMR17-32" d="M 2669 989 
L 2554 989 
C 2490 536 2438 459 2413 420 
C 2381 369 1920 369 1830 369 
L 602 369 
C 832 619 1280 1072 1824 1597 
C 2214 1967 2669 2402 2669 3035 
C 2669 3790 2067 4224 1395 4224 
C 691 4224 262 3604 262 3030 
C 262 2780 448 2748 525 2748 
C 589 2748 781 2787 781 3010 
C 781 3207 614 3264 525 3264 
C 486 3264 448 3258 422 3245 
C 544 3790 915 4058 1306 4058 
C 1862 4058 2227 3617 2227 3035 
C 2227 2479 1901 2000 1536 1584 
L 262 146 
L 262 0 
L 2515 0 
L 2669 989 
z
" transform="scale(0.015625)"/>
      </defs>
      <use xlink:href="#CMR17-37" transform="scale(0.996264)"/>
      <use xlink:href="#CMMI12-3a" transform="translate(45.690477 0) scale(0.996264)"/>
      <use xlink:href="#CMR17-32" transform="translate(72.787654 0) scale(0.996264)"/>
     </g>
    </g>
   </g>
   <g id="xtick_2">
    <g id="line2d_3">
     <path d="M 685.33679 684.292795 
L 693.631332 688.660959 
" style="fill: none; stroke: #000000; stroke-width: 0.8; stroke-linecap: square"/>
    </g>
    <g id="text_2">
     <!-- $\mathdefault{7.3}$ -->
     <g transform="translate(686.109643 718.37524) scale(0.2 -0.2)">
      <defs>
       <path id="CMR17-33" d="M 1414 2157 
C 1984 2157 2234 1662 2234 1090 
C 2234 320 1824 25 1453 25 
C 1114 25 563 194 390 693 
C 422 680 454 680 486 680 
C 640 680 755 782 755 948 
C 755 1133 614 1216 486 1216 
C 378 1216 211 1165 211 926 
C 211 335 787 -128 1466 -128 
C 2176 -128 2720 430 2720 1085 
C 2720 1707 2208 2157 1600 2227 
C 2086 2328 2554 2756 2554 3329 
C 2554 3820 2048 4179 1472 4179 
C 890 4179 378 3829 378 3329 
C 378 3110 544 3072 627 3072 
C 762 3072 877 3155 877 3321 
C 877 3486 762 3569 627 3569 
C 602 3569 570 3569 544 3557 
C 730 3959 1235 4032 1459 4032 
C 1683 4032 2106 3925 2106 3320 
C 2106 3143 2080 2828 1862 2550 
C 1670 2304 1453 2304 1242 2284 
C 1210 2284 1062 2269 1037 2269 
C 992 2263 966 2257 966 2208 
C 966 2163 973 2157 1101 2157 
L 1414 2157 
z
" transform="scale(0.015625)"/>
      </defs>
      <use xlink:href="#CMR17-37" transform="scale(0.996264)"/>
      <use xlink:href="#CMMI12-3a" transform="translate(45.690477 0) scale(0.996264)"/>
      <use xlink:href="#CMR17-33" transform="translate(72.787654 0) scale(0.996264)"/>
     </g>
    </g>
   </g>
   <g id="xtick_3">
    <g id="line2d_4">
     <path d="M 629.960952 716.366193 
L 638.263078 720.832198 
" style="fill: none; stroke: #000000; stroke-width: 0.8; stroke-linecap: square"/>
    </g>
    <g id="text_3">
     <!-- $\mathdefault{7.4}$ -->
     <g transform="translate(630.839653 750.69418) scale(0.2 -0.2)">
      <defs>
       <path id="CMR17-34" d="M 2150 4122 
C 2150 4256 2144 4256 2029 4256 
L 128 1254 
L 128 1088 
L 1779 1088 
L 1779 457 
C 1779 224 1766 160 1318 160 
L 1197 160 
L 1197 0 
C 1402 0 1747 0 1965 0 
C 2182 0 2528 0 2733 0 
L 2733 160 
L 2611 160 
C 2163 160 2150 224 2150 457 
L 2150 1088 
L 2803 1088 
L 2803 1254 
L 2150 1254 
L 2150 4122 
z
M 1798 3703 
L 1798 1254 
L 256 1254 
L 1798 3703 
z
" transform="scale(0.015625)"/>
      </defs>
      <use xlink:href="#CMR17-37" transform="scale(0.996264)"/>
      <use xlink:href="#CMMI12-3a" transform="translate(45.690477 0) scale(0.996264)"/>
      <use xlink:href="#CMR17-34" transform="translate(72.787654 0) scale(0.996264)"/>
     </g>
    </g>
   </g>
   <g id="xtick_4">
    <g id="line2d_5">
     <path d="M 573.338713 749.161501 
L 581.646661 753.728671 
" style="fill: none; stroke: #000000; stroke-width: 0.8; stroke-linecap: square"/>
    </g>
    <g id="text_4">
     <!-- $\mathdefault{7.5}$ -->
     <g transform="translate(574.324856 783.741018) scale(0.2 -0.2)">
      <defs>
       <path id="CMR17-35" d="M 730 3692 
C 794 3666 1056 3584 1325 3584 
C 1920 3584 2246 3911 2432 4100 
C 2432 4157 2432 4192 2394 4192 
C 2387 4192 2374 4192 2323 4163 
C 2099 4058 1837 3973 1517 3973 
C 1325 3973 1037 3999 723 4139 
C 653 4171 640 4171 634 4171 
C 602 4171 595 4164 595 4037 
L 595 2203 
C 595 2089 595 2057 659 2057 
C 691 2057 704 2070 736 2114 
C 941 2401 1222 2522 1542 2522 
C 1766 2522 2246 2382 2246 1289 
C 2246 1085 2246 715 2054 421 
C 1894 159 1645 25 1370 25 
C 947 25 518 320 403 814 
C 429 807 480 795 506 795 
C 589 795 749 840 749 1038 
C 749 1210 627 1280 506 1280 
C 358 1280 262 1190 262 1011 
C 262 454 704 -128 1382 -128 
C 2042 -128 2669 440 2669 1264 
C 2669 2030 2170 2624 1549 2624 
C 1222 2624 947 2503 730 2274 
L 730 3692 
z
" transform="scale(0.015625)"/>
      </defs>
      <use xlink:href="#CMR17-37" transform="scale(0.996264)"/>
      <use xlink:href="#CMMI12-3a" transform="translate(45.690477 0) scale(0.996264)"/>
      <use xlink:href="#CMR17-35" transform="translate(72.787654 0) scale(0.996264)"/>
     </g>
    </g>
   </g>
   <g id="xtick_5">
    <g id="line2d_6">
     <path d="M 515.427512 782.703369 
L 523.739394 787.375181 
" style="fill: none; stroke: #000000; stroke-width: 0.8; stroke-linecap: square"/>
    </g>
    <g id="text_5">
     <!-- $\mathdefault{7.6}$ -->
     <g transform="translate(516.522718 817.540623) scale(0.2 -0.2)">
      <defs>
       <path id="CMR17-36" d="M 678 2176 
C 678 3690 1395 4032 1811 4032 
C 1946 4032 2272 4009 2400 3776 
C 2298 3776 2106 3776 2106 3553 
C 2106 3381 2246 3323 2336 3323 
C 2394 3323 2566 3348 2566 3560 
C 2566 3954 2246 4179 1805 4179 
C 1043 4179 243 3390 243 1984 
C 243 253 966 -128 1478 -128 
C 2099 -128 2688 427 2688 1283 
C 2688 2081 2170 2662 1517 2662 
C 1126 2662 838 2407 678 1960 
L 678 2176 
z
M 1478 25 
C 691 25 691 1200 691 1436 
C 691 1896 909 2560 1504 2560 
C 1613 2560 1926 2560 2138 2120 
C 2253 1870 2253 1609 2253 1289 
C 2253 944 2253 690 2118 434 
C 1978 171 1773 25 1478 25 
z
" transform="scale(0.015625)"/>
      </defs>
      <use xlink:href="#CMR17-37" transform="scale(0.996264)"/>
      <use xlink:href="#CMMI12-3a" transform="translate(45.690477 0) scale(0.996264)"/>
      <use xlink:href="#CMR17-36" transform="translate(72.787654 0) scale(0.996264)"/>
     </g>
    </g>
   </g>
   <g id="xtick_6">
    <g id="line2d_7">
     <path d="M 456.182829 817.017582 
L 464.496623 821.797675 
" style="fill: none; stroke: #000000; stroke-width: 0.8; stroke-linecap: square"/>
    </g>
    <g id="text_6">
     <!-- $\mathdefault{7.7}$ -->
     <g transform="translate(457.388747 852.119014) scale(0.2 -0.2)">
      <use xlink:href="#CMR17-37" transform="scale(0.996264)"/>
      <use xlink:href="#CMMI12-3a" transform="translate(45.690477 0) scale(0.996264)"/>
      <use xlink:href="#CMR17-37" transform="translate(72.787654 0) scale(0.996264)"/>
     </g>
    </g>
   </g>
   <g id="text_7">
    <!-- $\lambda$ -->
    <g transform="translate(633.135195 803.421735) rotate(-30.105543) scale(0.25 -0.25)">
     <defs>
      <path id="CMMI12-15" d="M 1978 3965 
C 1818 4416 1312 4416 1229 4416 
C 1190 4416 1120 4416 1120 4352 
C 1120 4302 1158 4295 1190 4289 
C 1286 4276 1363 4263 1466 4080 
C 1530 3959 2189 2059 2189 2046 
C 2189 2040 2182 2033 2131 1982 
L 467 311 
C 390 234 339 183 339 102 
C 339 12 416 -64 518 -64 
C 544 -64 614 -51 653 -13 
C 755 82 1670 1194 2253 1881 
C 2419 1383 2624 797 2822 261 
C 2854 166 2886 76 2976 -6 
C 3040 -64 3053 -64 3232 -64 
L 3354 -64 
C 3379 -64 3424 -64 3424 -13 
C 3424 13 3418 19 3392 45 
C 3334 115 3290 229 3264 306 
L 1978 3965 
z
" transform="scale(0.015625)"/>
     </defs>
     <use xlink:href="#CMMI12-15" transform="scale(0.996264)"/>
    </g>
   </g>
  </g>
  <g id="axis3d_2">
   <g id="line2d_8">
    <path d="M 112.29961 643.060007 
L 437.010811 831.33048 
" style="fill: none; stroke: #000000; stroke-width: 0.8; stroke-linecap: square"/>
   </g>
   <g id="xtick_7">
    <g id="line2d_9">
     <path d="M 134.514689 652.917729 
L 126.229372 657.191232 
" style="fill: none; stroke: #000000; stroke-width: 0.8; stroke-linecap: square"/>
    </g>
    <g id="text_8">
     <!-- $\mathdefault{−0.4}$ -->
     <g transform="translate(102.401746 686.760409) scale(0.2 -0.2)">
      <defs>
       <path id="CMSY10-0" d="M 4218 1472 
C 4326 1472 4442 1472 4442 1600 
C 4442 1728 4326 1728 4218 1728 
L 755 1728 
C 646 1728 531 1728 531 1600 
C 531 1472 646 1472 755 1472 
L 4218 1472 
z
" transform="scale(0.015625)"/>
       <path id="CMR17-30" d="M 2688 2025 
C 2688 2416 2682 3080 2413 3591 
C 2176 4039 1798 4198 1466 4198 
C 1158 4198 768 4058 525 3597 
C 269 3118 243 2524 243 2025 
C 243 1661 250 1106 448 619 
C 723 -39 1216 -128 1466 -128 
C 1760 -128 2208 -7 2470 600 
C 2662 1042 2688 1559 2688 2025 
z
M 1466 -26 
C 1056 -26 813 325 723 812 
C 653 1188 653 1738 653 2096 
C 653 2588 653 2997 736 3387 
C 858 3929 1216 4096 1466 4096 
C 1728 4096 2067 3923 2189 3400 
C 2272 3036 2278 2607 2278 2096 
C 2278 1680 2278 1169 2202 792 
C 2067 95 1690 -26 1466 -26 
z
" transform="scale(0.015625)"/>
      </defs>
      <use xlink:href="#CMSY10-0" transform="scale(0.996264)"/>
      <use xlink:href="#CMR17-30" transform="translate(77.487468 0) scale(0.996264)"/>
      <use xlink:href="#CMMI12-3a" transform="translate(123.177945 0) scale(0.996264)"/>
      <use xlink:href="#CMR17-34" transform="translate(150.275122 0) scale(0.996264)"/>
     </g>
    </g>
   </g>
   <g id="xtick_8">
    <g id="line2d_10">
     <path d="M 183.711049 681.412005 
L 175.417279 685.771435 
" style="fill: none; stroke: #000000; stroke-width: 0.8; stroke-linecap: square"/>
    </g>
    <g id="text_9">
     <!-- $\mathdefault{−0.2}$ -->
     <g transform="translate(151.50337 715.472418) scale(0.2 -0.2)">
      <use xlink:href="#CMSY10-0" transform="scale(0.996264)"/>
      <use xlink:href="#CMR17-30" transform="translate(77.487468 0) scale(0.996264)"/>
      <use xlink:href="#CMMI12-3a" transform="translate(123.177945 0) scale(0.996264)"/>
      <use xlink:href="#CMR17-32" transform="translate(150.275122 0) scale(0.996264)"/>
     </g>
    </g>
   </g>
   <g id="xtick_9">
    <g id="line2d_11">
     <path d="M 233.900844 710.481675 
L 225.59997 714.929648 
" style="fill: none; stroke: #000000; stroke-width: 0.8; stroke-linecap: square"/>
    </g>
    <g id="text_10">
     <!-- $\mathdefault{0.0}$ -->
     <g transform="translate(209.34588 744.764579) scale(0.2 -0.2)">
      <use xlink:href="#CMR17-30" transform="scale(0.996264)"/>
      <use xlink:href="#CMMI12-3a" transform="translate(45.690477 0) scale(0.996264)"/>
      <use xlink:href="#CMR17-30" transform="translate(72.787654 0) scale(0.996264)"/>
     </g>
    </g>
   </g>
   <g id="xtick_10">
    <g id="line2d_12">
     <path d="M 285.114474 740.144344 
L 276.807933 744.683586 
" style="fill: none; stroke: #000000; stroke-width: 0.8; stroke-linecap: square"/>
    </g>
    <g id="text_11">
     <!-- $\mathdefault{0.2}$ -->
     <g transform="translate(260.462167 774.654656) scale(0.2 -0.2)">
      <use xlink:href="#CMR17-30" transform="scale(0.996264)"/>
      <use xlink:href="#CMMI12-3a" transform="translate(45.690477 0) scale(0.996264)"/>
      <use xlink:href="#CMR17-32" transform="translate(72.787654 0) scale(0.996264)"/>
     </g>
    </g>
   </g>
   <g id="xtick_11">
    <g id="line2d_13">
     <path d="M 337.383589 770.418345 
L 329.07291 775.051694 
" style="fill: none; stroke: #000000; stroke-width: 0.8; stroke-linecap: square"/>
    </g>
    <g id="text_12">
     <!-- $\mathdefault{0.4}$ -->
     <g transform="translate(312.632605 805.161144) scale(0.2 -0.2)">
      <use xlink:href="#CMR17-30" transform="scale(0.996264)"/>
      <use xlink:href="#CMMI12-3a" transform="translate(45.690477 0) scale(0.996264)"/>
      <use xlink:href="#CMR17-34" transform="translate(72.787654 0) scale(0.996264)"/>
     </g>
    </g>
   </g>
   <g id="xtick_12">
    <g id="line2d_14">
     <path d="M 390.741158 801.322772 
L 382.427973 806.053185 
" style="fill: none; stroke: #000000; stroke-width: 0.8; stroke-linecap: square"/>
    </g>
    <g id="text_13">
     <!-- $\mathdefault{0.6}$ -->
     <g transform="translate(365.890143 836.30331) scale(0.2 -0.2)">
      <use xlink:href="#CMR17-30" transform="scale(0.996264)"/>
      <use xlink:href="#CMMI12-3a" transform="translate(45.690477 0) scale(0.996264)"/>
      <use xlink:href="#CMR17-36" transform="translate(72.787654 0) scale(0.996264)"/>
     </g>
    </g>
   </g>
   <g id="text_14">
    <!-- $\theta_p\:\unit{[\degree]}$ -->
    <g transform="translate(214.367063 787.513729) rotate(-329.894457) scale(0.25 -0.25)">
     <defs>
      <path id="CMMI12-12" d="M 2835 3200 
C 2835 3850 2630 4480 2106 4480 
C 1210 4480 256 2615 256 1216 
C 256 923 320 -64 992 -64 
C 1862 -64 2835 1756 2835 3200 
z
M 896 2304 
C 992 2679 1126 3214 1382 3665 
C 1594 4047 1818 4352 2099 4352 
C 2310 4352 2451 4174 2451 3564 
C 2451 3334 2432 3017 2246 2304 
L 896 2304 
z
M 2202 2113 
C 2042 1490 1907 1088 1677 687 
C 1491 363 1267 64 998 64 
C 800 64 640 217 640 846 
C 640 1260 742 1693 845 2113 
L 2202 2113 
z
" transform="scale(0.015625)"/>
      <path id="CMMI12-70" d="M 275 -789 
C 230 -980 205 -1031 -58 -1031 
C -134 -1031 -198 -1031 -198 -1152 
C -198 -1165 -192 -1216 -122 -1216 
C -38 -1216 51 -1216 134 -1216 
L 410 -1216 
C 544 -1216 870 -1216 1005 -1216 
C 1043 -1216 1120 -1216 1120 -1101 
C 1120 -1031 1075 -1031 966 -1031 
C 672 -1031 653 -987 653 -937 
C 653 -861 941 219 979 364 
C 1050 185 1222 -64 1555 -64 
C 2278 -64 3059 875 3059 1814 
C 3059 2401 2726 2816 2246 2816 
C 1837 2816 1491 2420 1421 2331 
C 1370 2650 1120 2816 864 2816 
C 678 2816 531 2727 410 2484 
C 294 2254 205 1865 205 1839 
C 205 1814 230 1782 275 1782 
C 326 1782 333 1788 371 1935 
C 467 2312 589 2689 845 2689 
C 992 2689 1043 2587 1043 2397 
C 1043 2245 1024 2181 998 2067 
L 275 -789 
z
M 1382 1993 
C 1427 2171 1606 2357 1709 2446 
C 1779 2510 1990 2689 2234 2689 
C 2515 2689 2643 2408 2643 2076 
C 2643 1769 2464 1047 2304 715 
C 2144 370 1850 64 1555 64 
C 1120 64 1050 613 1050 639 
C 1050 658 1062 709 1069 741 
L 1382 1993 
z
" transform="scale(0.015625)"/>
      <path id="CMR17-5b" d="M 1504 -1600 
L 1504 -1377 
L 902 -1377 
L 902 4544 
L 1504 4544 
L 1504 4767 
L 678 4767 
L 678 -1600 
L 1504 -1600 
z
" transform="scale(0.015625)"/>
      <path id="CMSY10-e" d="M 2842 1600 
C 2842 2277 2272 2828 1600 2828 
C 909 2828 352 2264 352 1600 
C 352 930 909 372 1600 372 
C 2272 372 2842 923 2842 1600 
z
M 1600 628 
C 1043 628 608 1070 608 1600 
C 608 2130 1050 2572 1600 2572 
C 2131 2572 2586 2142 2586 1600 
C 2586 1058 2131 628 1600 628 
z
" transform="scale(0.015625)"/>
      <path id="CMR17-5d" d="M 915 4767 
L 90 4767 
L 90 4544 
L 691 4544 
L 691 -1377 
L 90 -1377 
L 90 -1600 
L 915 -1600 
L 915 4767 
z
" transform="scale(0.015625)"/>
     </defs>
     <use xlink:href="#CMMI12-12" transform="scale(0.996264)"/>
     <use xlink:href="#CMMI12-70" transform="translate(45.45979 -14.943915) scale(0.697382)"/>
     <use xlink:href="#CMR17-5b" transform="translate(102.368635 0) scale(0.996264)"/>
     <use xlink:href="#CMSY10-e" transform="translate(127.239694 36.153639) scale(0.697382)"/>
     <use xlink:href="#CMR17-5d" transform="translate(162.607036 0) scale(0.996264)"/>
    </g>
   </g>
  </g>
  <g id="axis3d_3">
   <g id="line2d_15">
    <path d="M 112.29961 643.060007 
L 92.174445 171.545661 
" style="fill: none; stroke: #000000; stroke-width: 0.8; stroke-linecap: square"/>
   </g>
   <g id="xtick_13">
    <g id="line2d_16">
     <path d="M 114.188179 621.105161 
L 105.882919 625.325623 
" style="fill: none; stroke: #000000; stroke-width: 0.8; stroke-linecap: square"/>
    </g>
    <g id="text_15">
     <!-- $\mathdefault{0.74}$ -->
     <g transform="translate(60.649676 636.347576) scale(0.2 -0.2)">
      <use xlink:href="#CMR17-30" transform="scale(0.996264)"/>
      <use xlink:href="#CMMI12-3a" transform="translate(45.690477 0) scale(0.996264)"/>
      <use xlink:href="#CMR17-37" transform="translate(72.787654 0) scale(0.996264)"/>
      <use xlink:href="#CMR17-34" transform="translate(118.478131 0) scale(0.996264)"/>
     </g>
    </g>
   </g>
   <g id="xtick_14">
    <g id="line2d_17">
     <path d="M 112.003692 569.476622 
L 103.638853 573.647862 
" style="fill: none; stroke: #000000; stroke-width: 0.8; stroke-linecap: square"/>
    </g>
    <g id="text_16">
     <!-- $\mathdefault{0.75}$ -->
     <g transform="translate(58.212769 584.702636) scale(0.2 -0.2)">
      <use xlink:href="#CMR17-30" transform="scale(0.996264)"/>
      <use xlink:href="#CMMI12-3a" transform="translate(45.690477 0) scale(0.996264)"/>
      <use xlink:href="#CMR17-37" transform="translate(72.787654 0) scale(0.996264)"/>
      <use xlink:href="#CMR17-35" transform="translate(118.478131 0) scale(0.996264)"/>
     </g>
    </g>
   </g>
   <g id="xtick_15">
    <g id="line2d_18">
     <path d="M 109.789439 517.144598 
L 101.364164 521.264877 
" style="fill: none; stroke: #000000; stroke-width: 0.8; stroke-linecap: square"/>
    </g>
    <g id="text_17">
     <!-- $\mathdefault{0.76}$ -->
     <g transform="translate(55.742642 532.353633) scale(0.2 -0.2)">
      <use xlink:href="#CMR17-30" transform="scale(0.996264)"/>
      <use xlink:href="#CMMI12-3a" transform="translate(45.690477 0) scale(0.996264)"/>
      <use xlink:href="#CMR17-37" transform="translate(72.787654 0) scale(0.996264)"/>
      <use xlink:href="#CMR17-36" transform="translate(118.478131 0) scale(0.996264)"/>
     </g>
    </g>
   </g>
   <g id="xtick_16">
    <g id="line2d_19">
     <path d="M 107.544807 464.094613 
L 99.05822 468.162134 
" style="fill: none; stroke: #000000; stroke-width: 0.8; stroke-linecap: square"/>
    </g>
    <g id="text_18">
     <!-- $\mathdefault{0.77}$ -->
     <g transform="translate(53.238608 479.28607) scale(0.2 -0.2)">
      <use xlink:href="#CMR17-30" transform="scale(0.996264)"/>
      <use xlink:href="#CMMI12-3a" transform="translate(45.690477 0) scale(0.996264)"/>
      <use xlink:href="#CMR17-37" transform="translate(72.787654 0) scale(0.996264)"/>
      <use xlink:href="#CMR17-37" transform="translate(118.478131 0) scale(0.996264)"/>
     </g>
    </g>
   </g>
   <g id="xtick_17">
    <g id="line2d_20">
     <path d="M 105.269169 410.311791 
L 96.720373 414.324695 
" style="fill: none; stroke: #000000; stroke-width: 0.8; stroke-linecap: square"/>
    </g>
    <g id="text_19">
     <!-- $\mathdefault{0.78}$ -->
     <g transform="translate(50.699966 425.485052) scale(0.2 -0.2)">
      <defs>
       <path id="CMR17-38" d="M 1741 2264 
C 2144 2467 2554 2773 2554 3263 
C 2554 3841 1990 4179 1472 4179 
C 890 4179 378 3759 378 3180 
C 378 3021 416 2747 666 2505 
C 730 2442 998 2251 1171 2130 
C 883 1983 211 1634 211 934 
C 211 279 838 -128 1459 -128 
C 2144 -128 2720 362 2720 1010 
C 2720 1590 2330 1857 2074 2029 
L 1741 2264 
z
M 902 2822 
C 851 2854 595 3051 595 3351 
C 595 3739 998 4032 1459 4032 
C 1965 4032 2336 3676 2336 3262 
C 2336 2669 1670 2331 1638 2331 
C 1632 2331 1626 2331 1574 2370 
L 902 2822 
z
M 2080 1519 
C 2176 1449 2483 1240 2483 851 
C 2483 381 2010 25 1472 25 
C 890 25 448 438 448 940 
C 448 1443 838 1862 1280 2060 
L 2080 1519 
z
" transform="scale(0.015625)"/>
      </defs>
      <use xlink:href="#CMR17-30" transform="scale(0.996264)"/>
      <use xlink:href="#CMMI12-3a" transform="translate(45.690477 0) scale(0.996264)"/>
      <use xlink:href="#CMR17-37" transform="translate(72.787654 0) scale(0.996264)"/>
      <use xlink:href="#CMR17-38" transform="translate(118.478131 0) scale(0.996264)"/>
     </g>
    </g>
   </g>
   <g id="xtick_18">
    <g id="line2d_21">
     <path d="M 102.961875 355.780839 
L 94.349955 359.737208 
" style="fill: none; stroke: #000000; stroke-width: 0.8; stroke-linecap: square"/>
    </g>
    <g id="text_20">
     <!-- $\mathdefault{0.79}$ -->
     <g transform="translate(48.125992 370.935265) scale(0.2 -0.2)">
      <defs>
       <path id="CMR17-39" d="M 2253 1864 
C 2253 464 1670 31 1190 31 
C 1043 31 685 31 538 294 
C 704 268 826 357 826 518 
C 826 692 685 749 595 749 
C 538 749 365 723 365 506 
C 365 71 742 -128 1203 -128 
C 1939 -128 2688 674 2688 2073 
C 2688 3817 1971 4179 1485 4179 
C 851 4179 243 3628 243 2778 
C 243 1991 762 1408 1414 1408 
C 1952 1408 2189 1903 2253 2112 
L 2253 1864 
z
M 1427 1510 
C 1254 1510 1011 1542 813 1922 
C 678 2169 678 2461 678 2771 
C 678 3146 678 3405 858 3684 
C 947 3817 1114 4032 1485 4032 
C 2240 4032 2240 2885 2240 2632 
C 2240 2182 2035 1510 1427 1510 
z
" transform="scale(0.015625)"/>
      </defs>
      <use xlink:href="#CMR17-30" transform="scale(0.996264)"/>
      <use xlink:href="#CMMI12-3a" transform="translate(45.690477 0) scale(0.996264)"/>
      <use xlink:href="#CMR17-37" transform="translate(72.787654 0) scale(0.996264)"/>
      <use xlink:href="#CMR17-39" transform="translate(118.478131 0) scale(0.996264)"/>
     </g>
    </g>
   </g>
   <g id="xtick_19">
    <g id="line2d_22">
     <path d="M 100.622263 300.48604 
L 91.946281 304.383887 
" style="fill: none; stroke: #000000; stroke-width: 0.8; stroke-linecap: square"/>
    </g>
    <g id="text_21">
     <!-- $\mathdefault{0.80}$ -->
     <g transform="translate(45.515945 315.620969) scale(0.2 -0.2)">
      <use xlink:href="#CMR17-30" transform="scale(0.996264)"/>
      <use xlink:href="#CMMI12-3a" transform="translate(45.690477 0) scale(0.996264)"/>
      <use xlink:href="#CMR17-38" transform="translate(72.787654 0) scale(0.996264)"/>
      <use xlink:href="#CMR17-30" transform="translate(118.478131 0) scale(0.996264)"/>
     </g>
    </g>
   </g>
   <g id="xtick_20">
    <g id="line2d_23">
     <path d="M 98.249646 244.411229 
L 89.508647 248.248504 
" style="fill: none; stroke: #000000; stroke-width: 0.8; stroke-linecap: square"/>
    </g>
    <g id="text_22">
     <!-- $\mathdefault{0.81}$ -->
     <g transform="translate(42.869059 259.525979) scale(0.2 -0.2)">
      <defs>
       <path id="CMR17-31" d="M 1702 4058 
C 1702 4192 1696 4192 1606 4192 
C 1357 3916 979 3827 621 3827 
C 602 3827 570 3827 563 3808 
C 557 3795 557 3782 557 3648 
C 755 3648 1088 3686 1344 3839 
L 1344 461 
C 1344 236 1331 160 781 160 
L 589 160 
L 589 0 
C 896 0 1216 0 1523 0 
C 1830 0 2150 0 2458 0 
L 2458 160 
L 2266 160 
C 1715 160 1702 230 1702 458 
L 1702 4058 
z
" transform="scale(0.015625)"/>
      </defs>
      <use xlink:href="#CMR17-30" transform="scale(0.996264)"/>
      <use xlink:href="#CMMI12-3a" transform="translate(45.690477 0) scale(0.996264)"/>
      <use xlink:href="#CMR17-38" transform="translate(72.787654 0) scale(0.996264)"/>
      <use xlink:href="#CMR17-31" transform="translate(118.478131 0) scale(0.996264)"/>
     </g>
    </g>
   </g>
   <g id="xtick_21">
    <g id="line2d_24">
     <path d="M 95.843323 187.539786 
L 87.036328 191.314365 
" style="fill: none; stroke: #000000; stroke-width: 0.8; stroke-linecap: square"/>
    </g>
    <g id="text_23">
     <!-- $\mathdefault{0.82}$ -->
     <g transform="translate(40.184551 202.63365) scale(0.2 -0.2)">
      <use xlink:href="#CMR17-30" transform="scale(0.996264)"/>
      <use xlink:href="#CMMI12-3a" transform="translate(45.690477 0) scale(0.996264)"/>
      <use xlink:href="#CMR17-38" transform="translate(72.787654 0) scale(0.996264)"/>
      <use xlink:href="#CMR17-32" transform="translate(118.478131 0) scale(0.996264)"/>
     </g>
    </g>
   </g>
   <g id="text_24">
    <!-- $C_T$ -->
    <g transform="translate(9.80238 400.940374) rotate(-272.444014) scale(0.25 -0.25)">
     <defs>
      <path id="CMMI12-43" d="M 4781 4423 
C 4781 4480 4736 4480 4723 4480 
C 4710 4480 4685 4480 4634 4416 
L 4192 3882 
C 3968 4264 3616 4480 3136 4480 
C 1754 4480 320 3088 320 1595 
C 320 533 1069 -128 2003 -128 
C 2515 -128 2963 88 3334 400 
C 3891 863 4058 1481 4058 1531 
C 4058 1588 4006 1588 3987 1588 
C 3930 1588 3923 1550 3910 1524 
C 3616 534 2752 57 2112 57 
C 1434 57 845 489 845 1391 
C 845 1595 909 2700 1632 3532 
C 1984 3939 2586 4295 3194 4295 
C 3898 4295 4211 3717 4211 3068 
C 4211 2903 4192 2764 4192 2738 
C 4192 2681 4256 2681 4275 2681 
C 4346 2681 4352 2687 4378 2801 
L 4781 4423 
z
" transform="scale(0.015625)"/>
      <path id="CMMI12-54" d="M 2669 3910 
C 2707 4064 2720 4121 2816 4147 
C 2867 4160 3078 4160 3213 4160 
C 3853 4160 4154 4134 4154 3634 
C 4154 3537 4128 3295 4090 3057 
L 4083 2980 
C 4083 2954 4109 2916 4147 2916 
C 4211 2916 4211 2948 4230 3050 
L 4416 4184 
C 4429 4243 4429 4256 4429 4275 
C 4429 4345 4390 4345 4262 4345 
L 762 4345 
C 614 4345 608 4339 570 4224 
L 179 3070 
C 173 3056 154 2986 154 2980 
C 154 2948 179 2916 218 2916 
C 269 2916 282 2941 307 3024 
C 576 3801 710 4160 1562 4160 
L 1990 4160 
C 2144 4160 2208 4160 2208 4089 
C 2208 4069 2208 4057 2176 3941 
L 1318 499 
C 1254 249 1242 185 563 185 
C 403 185 358 185 358 64 
C 358 0 429 0 461 0 
C 621 0 787 0 947 0 
L 1946 0 
C 2106 0 2278 0 2438 0 
C 2509 0 2573 0 2573 121 
C 2573 185 2528 185 2362 185 
C 1786 185 1786 243 1786 339 
C 1786 346 1786 391 1811 494 
L 2669 3910 
z
" transform="scale(0.015625)"/>
     </defs>
     <use xlink:href="#CMMI12-43" transform="scale(0.996264)"/>
     <use xlink:href="#CMMI12-54" transform="translate(69.792037 -14.943915) scale(0.697382)"/>
    </g>
   </g>
  </g>
  <g id="axes_1">
   <g id="Poly3DCollection_1">
    <path d="M 437.010811 271.38282 
L 380.790061 254.517806 
L 406.264003 284.656037 
L 462.220036 302.174613 
z
" clip-path="url(#p5e8e5191bd)" style="fill: #d5536f"/>
    <path d="M 462.220036 302.174613 
L 406.264003 284.656037 
L 431.87328 315.724163 
L 487.553213 333.17564 
z
" clip-path="url(#p5e8e5191bd)" style="fill: #c9447a"/>
    <path d="M 487.553213 333.17564 
L 431.87328 315.724163 
L 457.61141 347.735949 
L 512.997327 365.77527 
z
" clip-path="url(#p5e8e5191bd)" style="fill: #bc3587"/>
    <path d="M 512.997327 365.77527 
L 457.61141 347.735949 
L 483.470722 380.848019 
L 538.561541 398.232231 
z
" clip-path="url(#p5e8e5191bd)" style="fill: #ac2694"/>
    <path d="M 538.561541 398.232231 
L 483.470722 380.848019 
L 509.452807 413.96884 
L 564.24273 430.96846 
z
" clip-path="url(#p5e8e5191bd)" style="fill: #9a169f"/>
    <path d="M 564.24273 430.96846 
L 509.452807 413.96884 
L 535.558394 447.227623 
L 590.038415 464.087412 
z
" clip-path="url(#p5e8e5191bd)" style="fill: #8707a6"/>
    <path d="M 590.038415 464.087412 
L 535.558394 447.227623 
L 561.785982 480.786056 
L 615.94712 497.587115 
z
" clip-path="url(#p5e8e5191bd)" style="fill: #7201a8"/>
    <path d="M 380.790061 254.517806 
L 322.735048 238.350761 
L 348.464897 268.486074 
L 406.264003 284.656037 
z
" clip-path="url(#p5e8e5191bd)" style="fill: #eb7556"/>
    <path d="M 615.94712 497.587115 
L 561.785982 480.786056 
L 588.134862 514.65162 
L 641.962188 531.660276 
z
" clip-path="url(#p5e8e5191bd)" style="fill: #5c01a6"/>
    <path d="M 406.264003 284.656037 
L 348.464897 268.486074 
L 374.33554 298.714424 
L 431.87328 315.724163 
z
" clip-path="url(#p5e8e5191bd)" style="fill: #e26660"/>
    <path d="M 641.962188 531.660276 
L 588.134862 514.65162 
L 614.604461 548.820667 
L 668.096717 565.751069 
z
" clip-path="url(#p5e8e5191bd)" style="fill: #46039f"/>
    <path d="M 668.096717 565.751069 
L 614.604461 548.820667 
L 641.186086 583.595834 
L 694.351964 599.888534 
z
" clip-path="url(#p5e8e5191bd)" style="fill: #2e0595"/>
    <path d="M 431.87328 315.724163 
L 374.33554 298.714424 
L 400.352593 329.845714 
L 457.61141 347.735949 
z
" clip-path="url(#p5e8e5191bd)" style="fill: #d8576b"/>
    <path d="M 694.351964 599.888534 
L 641.186086 583.595834 
L 667.884352 618.694247 
L 720.726293 634.169708 
z
" clip-path="url(#p5e8e5191bd)" style="fill: #0d0887"/>
    <path d="M 457.61141 347.735949 
L 400.352593 329.845714 
L 426.509229 361.325561 
L 483.470722 380.848019 
z
" clip-path="url(#p5e8e5191bd)" style="fill: #cc4977"/>
    <path d="M 483.470722 380.848019 
L 426.509229 361.325561 
L 452.802889 394.079767 
L 509.452807 413.96884 
z
" clip-path="url(#p5e8e5191bd)" style="fill: #c03a83"/>
    <path d="M 509.452807 413.96884 
L 452.802889 394.079767 
L 479.223619 428.07736 
L 535.558394 447.227623 
z
" clip-path="url(#p5e8e5191bd)" style="fill: #b12a90"/>
    <path d="M 535.558394 447.227623 
L 479.223619 428.07736 
L 505.771677 462.147652 
L 561.785982 480.786056 
z
" clip-path="url(#p5e8e5191bd)" style="fill: #a01a9c"/>
    <path d="M 322.735048 238.350761 
L 262.704471 219.341525 
L 288.696044 249.585928 
L 348.464897 268.486074 
z
" clip-path="url(#p5e8e5191bd)" style="fill: #fa9b3d"/>
    <path d="M 561.785982 480.786056 
L 505.771677 462.147652 
L 532.442901 496.78049 
L 588.134862 514.65162 
z
" clip-path="url(#p5e8e5191bd)" style="fill: #8e0ca4"/>
    <path d="M 348.464897 268.486074 
L 288.696044 249.585928 
L 314.838334 280.211416 
L 374.33554 298.714424 
z
" clip-path="url(#p5e8e5191bd)" style="fill: #f58c46"/>
    <path d="M 588.134862 514.65162 
L 532.442901 496.78049 
L 559.238212 531.711404 
L 614.604461 548.820667 
z
" clip-path="url(#p5e8e5191bd)" style="fill: #7801a8"/>
    <path d="M 374.33554 298.714424 
L 314.838334 280.211416 
L 341.132393 311.3716 
L 400.352593 329.845714 
z
" clip-path="url(#p5e8e5191bd)" style="fill: #ef7c51"/>
    <path d="M 614.604461 548.820667 
L 559.238212 531.711404 
L 586.156664 566.962513 
L 641.186086 583.595834 
z
" clip-path="url(#p5e8e5191bd)" style="fill: #6300a7"/>
    <path d="M 641.186086 583.595834 
L 586.156664 566.962513 
L 613.190617 602.831796 
L 667.884352 618.694247 
z
" clip-path="url(#p5e8e5191bd)" style="fill: #4c02a1"/>
    <path d="M 400.352593 329.845714 
L 341.132393 311.3716 
L 367.578124 343.322124 
L 426.509229 361.325561 
z
" clip-path="url(#p5e8e5191bd)" style="fill: #e66c5c"/>
    <path d="M 426.509229 361.325561 
L 367.578124 343.322124 
L 394.168803 375.740175 
L 452.802889 394.079767 
z
" clip-path="url(#p5e8e5191bd)" style="fill: #dd5e66"/>
    <path d="M 452.802889 394.079767 
L 394.168803 375.740175 
L 420.902513 408.580013 
L 479.223619 428.07736 
z
" clip-path="url(#p5e8e5191bd)" style="fill: #d14e72"/>
    <path d="M 479.223619 428.07736 
L 420.902513 408.580013 
L 447.776103 443.108026 
L 505.771677 462.147652 
z
" clip-path="url(#p5e8e5191bd)" style="fill: #c5407e"/>
    <path d="M 262.704471 219.341525 
L 200.627803 200.183195 
L 226.873278 230.386815 
L 288.696044 249.585928 
z
" clip-path="url(#p5e8e5191bd)" style="fill: #fdc827"/>
    <path d="M 505.771677 462.147652 
L 447.776103 443.108026 
L 474.779256 478.429294 
L 532.442901 496.78049 
z
" clip-path="url(#p5e8e5191bd)" style="fill: #b6308b"/>
    <path d="M 288.696044 249.585928 
L 226.873278 230.386815 
L 253.291009 261.526039 
L 314.838334 280.211416 
z
" clip-path="url(#p5e8e5191bd)" style="fill: #feb72d"/>
    <path d="M 532.442901 496.78049 
L 474.779256 478.429294 
L 501.900106 515.290812 
L 559.238212 531.711404 
z
" clip-path="url(#p5e8e5191bd)" style="fill: #a51f99"/>
    <path d="M 314.838334 280.211416 
L 253.291009 261.526039 
L 279.864042 293.048116 
L 341.132393 311.3716 
z
" clip-path="url(#p5e8e5191bd)" style="fill: #fca537"/>
    <path d="M 559.238212 531.711404 
L 501.900106 515.290812 
L 529.136452 552.725138 
L 586.156664 566.962513 
z
" clip-path="url(#p5e8e5191bd)" style="fill: #920fa3"/>
    <path d="M 586.156664 566.962513 
L 529.136452 552.725138 
L 556.48821 590.504538 
L 613.190617 602.831796 
z
" clip-path="url(#p5e8e5191bd)" style="fill: #7d03a8"/>
    <path d="M 341.132393 311.3716 
L 279.864042 293.048116 
L 306.599077 325.405301 
L 367.578124 343.322124 
z
" clip-path="url(#p5e8e5191bd)" style="fill: #f89441"/>
    <path d="M 367.578124 343.322124 
L 306.599077 325.405301 
L 333.505143 359.689485 
L 394.168803 375.740175 
z
" clip-path="url(#p5e8e5191bd)" style="fill: #f1834c"/>
    <path d="M 394.168803 375.740175 
L 333.505143 359.689485 
L 360.551818 394.472978 
L 420.902513 408.580013 
z
" clip-path="url(#p5e8e5191bd)" style="fill: #e97257"/>
    <path d="M 420.902513 408.580013 
L 360.551818 394.472978 
L 387.736542 429.712776 
L 447.776103 443.108026 
z
" clip-path="url(#p5e8e5191bd)" style="fill: #df6263"/>
    <path d="M 200.627803 200.183195 
L 136.435295 181.548026 
L 162.992493 213.676784 
L 226.873278 230.386815 
z
" clip-path="url(#p5e8e5191bd)" style="fill: #f0f921"/>
    <path d="M 447.776103 443.108026 
L 387.736542 429.712776 
L 415.057519 465.447911 
L 474.779256 478.429294 
z
" clip-path="url(#p5e8e5191bd)" style="fill: #d45270"/>
    <path d="M 226.873278 230.386815 
L 162.992493 213.676784 
L 189.710274 246.339688 
L 253.291009 261.526039 
z
" clip-path="url(#p5e8e5191bd)" style="fill: #f6e626"/>
    <path d="M 474.779256 478.429294 
L 415.057519 465.447911 
L 442.511237 503.28403 
L 501.900106 515.290812 
z
" clip-path="url(#p5e8e5191bd)" style="fill: #c7427c"/>
    <path d="M 253.291009 261.526039 
L 189.710274 246.339688 
L 216.595767 279.874396 
L 279.864042 293.048116 
z
" clip-path="url(#p5e8e5191bd)" style="fill: #fcd025"/>
    <path d="M 501.900106 515.290812 
L 442.511237 503.28403 
L 470.084312 541.751532 
L 529.136452 552.725138 
z
" clip-path="url(#p5e8e5191bd)" style="fill: #b6308b"/>
    <path d="M 529.136452 552.725138 
L 470.084312 541.751532 
L 497.777218 580.255292 
L 556.48821 590.504538 
z
" clip-path="url(#p5e8e5191bd)" style="fill: #a51f99"/>
    <path d="M 279.864042 293.048116 
L 216.595767 279.874396 
L 243.632547 313.836653 
L 306.599077 325.405301 
z
" clip-path="url(#p5e8e5191bd)" style="fill: #febd2a"/>
    <path d="M 306.599077 325.405301 
L 243.632547 313.836653 
L 270.821231 348.318276 
L 333.505143 359.689485 
z
" clip-path="url(#p5e8e5191bd)" style="fill: #fca934"/>
    <path d="M 333.505143 359.689485 
L 270.821231 348.318276 
L 298.160504 383.374124 
L 360.551818 394.472978 
z
" clip-path="url(#p5e8e5191bd)" style="fill: #f89540"/>
    <path d="M 360.551818 394.472978 
L 298.160504 383.374124 
L 325.654979 419.533336 
L 387.736542 429.712776 
z
" clip-path="url(#p5e8e5191bd)" style="fill: #f1834c"/>
    <path d="M 387.736542 429.712776 
L 325.654979 419.533336 
L 353.286602 455.908072 
L 415.057519 465.447911 
z
" clip-path="url(#p5e8e5191bd)" style="fill: #e97158"/>
    <path d="M 415.057519 465.447911 
L 353.286602 455.908072 
L 381.057913 492.762323 
L 442.511237 503.28403 
z
" clip-path="url(#p5e8e5191bd)" style="fill: #de6164"/>
    <path d="M 442.511237 503.28403 
L 381.057913 492.762323 
L 408.969941 530.979866 
L 470.084312 541.751532 
z
" clip-path="url(#p5e8e5191bd)" style="fill: #d24f71"/>
    <path d="M 470.084312 541.751532 
L 408.969941 530.979866 
L 437.010811 570.458878 
L 497.777218 580.255292 
z
" clip-path="url(#p5e8e5191bd)" style="fill: #c33d80"/>
   </g>
  </g>
 </g>
 <defs>
  <clipPath id="p5e8e5191bd">
   <rect x="7.2" y="7.2" width="837" height="837"/>
  </clipPath>
 </defs>
</svg>
