<?xml version="1.0" encoding="utf-8" standalone="no"?>
<!DOCTYPE svg PUBLIC "-//W3C//DTD SVG 1.1//EN"
  "http://www.w3.org/Graphics/SVG/1.1/DTD/svg11.dtd">
<svg xmlns:xlink="http://www.w3.org/1999/xlink" width="720pt" height="720pt" viewBox="0 0 720 720" xmlns="http://www.w3.org/2000/svg" version="1.1">
 <metadata>
  <rdf:RDF xmlns:dc="http://purl.org/dc/elements/1.1/" xmlns:cc="http://creativecommons.org/ns#" xmlns:rdf="http://www.w3.org/1999/02/22-rdf-syntax-ns#">
   <cc:Work>
    <dc:type rdf:resource="http://purl.org/dc/dcmitype/StillImage"/>
    <dc:date>2024-09-19T08:53:20.079715</dc:date>
    <dc:format>image/svg+xml</dc:format>
    <dc:creator>
     <cc:Agent>
      <dc:title>Matplotlib v3.8.4, https://matplotlib.org/</dc:title>
     </cc:Agent>
    </dc:creator>
   </cc:Work>
  </rdf:RDF>
 </metadata>
 <defs>
  <style type="text/css">*{stroke-linejoin: round; stroke-linecap: butt}</style>
 </defs>
 <g id="figure_1">
  <g id="patch_1">
   <path d="M 0 720 
L 720 720 
L 720 0 
L 0 0 
z
" style="fill: #ffffff"/>
  </g>
  <g id="patch_2">
   <path d="M 90 621 
L 648 621 
L 648 63 
L 90 63 
z
" style="fill: #ffffff"/>
  </g>
  <g id="pane3d_1">
   <g id="patch_3">
    <path d="M 132.132848 483.415082 
L 316.402672 328.956463 
L 313.841145 106.199521 
L 120.75306 247.10641 
" style="fill: #f2f2f2; opacity: 0.5; stroke: #f2f2f2; stroke-linejoin: miter"/>
   </g>
  </g>
  <g id="pane3d_2">
   <g id="patch_4">
    <path d="M 316.402672 328.956463 
L 612.08999 414.901093 
L 622.642028 184.471543 
L 313.841145 106.199521 
" style="fill: #e6e6e6; opacity: 0.5; stroke: #e6e6e6; stroke-linejoin: miter"/>
   </g>
  </g>
  <g id="pane3d_3">
   <g id="patch_5">
    <path d="M 132.132848 483.415082 
L 445.575848 585.785566 
L 612.08999 414.901093 
L 316.402672 328.956463 
" style="fill: #ececec; opacity: 0.5; stroke: #ececec; stroke-linejoin: miter"/>
   </g>
  </g>
  <g id="grid3d_1">
   <g id="Line3DCollection_1">
    <path d="M 151.116601 489.615176 
L 334.385469 334.183352 
L 332.584268 110.950356 
" style="fill: none; stroke: #b0b0b0; stroke-width: 0.8"/>
    <path d="M 203.831331 506.831807 
L 384.270221 348.68288 
L 384.603364 124.135681 
" style="fill: none; stroke: #b0b0b0; stroke-width: 0.8"/>
    <path d="M 257.511893 524.363878 
L 434.992793 363.425929 
L 437.534109 137.552082 
" style="fill: none; stroke: #b0b0b0; stroke-width: 0.8"/>
    <path d="M 312.185078 542.22014 
L 486.574469 378.418686 
L 491.400682 151.205688 
" style="fill: none; stroke: #b0b0b0; stroke-width: 0.8"/>
    <path d="M 367.878674 560.409669 
L 539.037264 393.667549 
L 546.228123 165.102846 
" style="fill: none; stroke: #b0b0b0; stroke-width: 0.8"/>
    <path d="M 424.621517 578.941881 
L 592.403948 409.179137 
L 602.042372 179.250131 
" style="fill: none; stroke: #b0b0b0; stroke-width: 0.8"/>
   </g>
  </g>
  <g id="grid3d_2">
   <g id="Line3DCollection_2">
    <path d="M 134.105579 237.36235 
L 144.830596 472.771578 
L 457.097338 573.961683 
" style="fill: none; stroke: #b0b0b0; stroke-width: 0.8"/>
    <path d="M 159.814785 218.600943 
L 169.297852 452.26264 
L 479.27827 551.19859 
" style="fill: none; stroke: #b0b0b0; stroke-width: 0.8"/>
    <path d="M 184.943932 200.262836 
L 193.236964 432.196401 
L 500.955222 528.952705 
" style="fill: none; stroke: #b0b0b0; stroke-width: 0.8"/>
    <path d="M 209.512433 182.333863 
L 216.664852 412.558681 
L 522.145178 507.206597 
" style="fill: none; stroke: #b0b0b0; stroke-width: 0.8"/>
    <path d="M 233.538844 164.800482 
L 239.597718 393.335898 
L 542.864367 485.943612 
" style="fill: none; stroke: #b0b0b0; stroke-width: 0.8"/>
    <path d="M 257.04091 147.649745 
L 262.051087 374.515038 
L 563.128305 465.147827 
" style="fill: none; stroke: #b0b0b0; stroke-width: 0.8"/>
    <path d="M 280.03561 130.86926 
L 284.039843 356.083627 
L 582.951833 444.80401 
" style="fill: none; stroke: #b0b0b0; stroke-width: 0.8"/>
    <path d="M 302.539199 114.447166 
L 305.578259 338.0297 
L 602.349155 424.897586 
" style="fill: none; stroke: #b0b0b0; stroke-width: 0.8"/>
   </g>
  </g>
  <g id="grid3d_3">
   <g id="Line3DCollection_3">
    <path d="M 613.50593 383.980579 
L 316.058321 299.010832 
L 130.608063 451.751933 
" style="fill: none; stroke: #b0b0b0; stroke-width: 0.8"/>
    <path d="M 615.682339 336.45338 
L 315.529408 253.015195 
L 128.263007 403.055317 
" style="fill: none; stroke: #b0b0b0; stroke-width: 0.8"/>
    <path d="M 617.899096 288.045062 
L 314.991162 206.208004 
L 125.872798 353.42108 
" style="fill: none; stroke: #b0b0b0; stroke-width: 0.8"/>
    <path d="M 620.157335 238.730892 
L 314.443336 158.567587 
L 123.43612 302.82188 
" style="fill: none; stroke: #b0b0b0; stroke-width: 0.8"/>
   </g>
  </g>
  <g id="axis3d_1">
   <g id="line2d_1">
    <path d="M 132.132848 483.415082 
L 445.575848 585.785566 
" style="fill: none; stroke: #000000; stroke-width: 0.8; stroke-linecap: square"/>
   </g>
   <g id="xtick_1">
    <g id="line2d_2">
     <path d="M 152.712496 488.261685 
L 147.917963 492.327967 
" style="fill: none; stroke: #000000; stroke-width: 0.8; stroke-linecap: square"/>
    </g>
    <g id="text_1">
     <!-- $\mathdefault{5}$ -->
     <g transform="translate(138.507915 519.798036) scale(0.18 -0.18)">
      <defs>
       <path id="CMR17-35" d="M 730 3692 
C 794 3666 1056 3584 1325 3584 
C 1920 3584 2246 3911 2432 4100 
C 2432 4157 2432 4192 2394 4192 
C 2387 4192 2374 4192 2323 4163 
C 2099 4058 1837 3973 1517 3973 
C 1325 3973 1037 3999 723 4139 
C 653 4171 640 4171 634 4171 
C 602 4171 595 4164 595 4037 
L 595 2203 
C 595 2089 595 2057 659 2057 
C 691 2057 704 2070 736 2114 
C 941 2401 1222 2522 1542 2522 
C 1766 2522 2246 2382 2246 1289 
C 2246 1085 2246 715 2054 421 
C 1894 159 1645 25 1370 25 
C 947 25 518 320 403 814 
C 429 807 480 795 506 795 
C 589 795 749 840 749 1038 
C 749 1210 627 1280 506 1280 
C 358 1280 262 1190 262 1011 
C 262 454 704 -128 1382 -128 
C 2042 -128 2669 440 2669 1264 
C 2669 2030 2170 2624 1549 2624 
C 1222 2624 947 2503 730 2274 
L 730 3692 
z
" transform="scale(0.015625)"/>
      </defs>
      <use xlink:href="#CMR17-35" transform="scale(0.996264)"/>
     </g>
    </g>
   </g>
   <g id="xtick_2">
    <g id="line2d_3">
     <path d="M 205.403741 505.453639 
L 200.679701 509.594109 
" style="fill: none; stroke: #000000; stroke-width: 0.8; stroke-linecap: square"/>
    </g>
    <g id="text_2">
     <!-- $\mathdefault{6}$ -->
     <g transform="translate(191.251779 537.210693) scale(0.18 -0.18)">
      <defs>
       <path id="CMR17-36" d="M 678 2176 
C 678 3690 1395 4032 1811 4032 
C 1946 4032 2272 4009 2400 3776 
C 2298 3776 2106 3776 2106 3553 
C 2106 3381 2246 3323 2336 3323 
C 2394 3323 2566 3348 2566 3560 
C 2566 3954 2246 4179 1805 4179 
C 1043 4179 243 3390 243 1984 
C 243 253 966 -128 1478 -128 
C 2099 -128 2688 427 2688 1283 
C 2688 2081 2170 2662 1517 2662 
C 1126 2662 838 2407 678 1960 
L 678 2176 
z
M 1478 25 
C 691 25 691 1200 691 1436 
C 691 1896 909 2560 1504 2560 
C 1613 2560 1926 2560 2138 2120 
C 2253 1870 2253 1609 2253 1289 
C 2253 944 2253 690 2118 434 
C 1978 171 1773 25 1478 25 
z
" transform="scale(0.015625)"/>
      </defs>
      <use xlink:href="#CMR17-36" transform="scale(0.996264)"/>
     </g>
    </g>
   </g>
   <g id="xtick_3">
    <g id="line2d_4">
     <path d="M 259.059687 522.960354 
L 254.409542 527.177061 
" style="fill: none; stroke: #000000; stroke-width: 0.8; stroke-linecap: square"/>
    </g>
    <g id="text_3">
     <!-- $\mathdefault{7}$ -->
     <g transform="translate(244.963978 554.943032) scale(0.18 -0.18)">
      <defs>
       <path id="CMR17-37" d="M 2886 3941 
L 2886 4081 
L 1382 4081 
C 634 4081 621 4165 595 4288 
L 480 4288 
L 294 3094 
L 410 3094 
C 429 3215 474 3540 550 3661 
C 589 3712 1062 3712 1171 3712 
L 2579 3712 
L 1869 2661 
C 1395 1954 1069 999 1069 165 
C 1069 89 1069 -128 1299 -128 
C 1530 -128 1530 89 1530 171 
L 1530 465 
C 1530 1508 1709 2196 2003 2636 
L 2886 3941 
z
" transform="scale(0.015625)"/>
      </defs>
      <use xlink:href="#CMR17-37" transform="scale(0.996264)"/>
     </g>
    </g>
   </g>
   <g id="xtick_4">
    <g id="line2d_5">
     <path d="M 313.707073 540.790553 
L 309.134376 545.085621 
" style="fill: none; stroke: #000000; stroke-width: 0.8; stroke-linecap: square"/>
    </g>
    <g id="text_4">
     <!-- $\mathdefault{8}$ -->
     <g transform="translate(299.671426 573.00394) scale(0.18 -0.18)">
      <defs>
       <path id="CMR17-38" d="M 1741 2264 
C 2144 2467 2554 2773 2554 3263 
C 2554 3841 1990 4179 1472 4179 
C 890 4179 378 3759 378 3180 
C 378 3021 416 2747 666 2505 
C 730 2442 998 2251 1171 2130 
C 883 1983 211 1634 211 934 
C 211 279 838 -128 1459 -128 
C 2144 -128 2720 362 2720 1010 
C 2720 1590 2330 1857 2074 2029 
L 1741 2264 
z
M 902 2822 
C 851 2854 595 3051 595 3351 
C 595 3739 998 4032 1459 4032 
C 1965 4032 2336 3676 2336 3262 
C 2336 2669 1670 2331 1638 2331 
C 1632 2331 1626 2331 1574 2370 
L 902 2822 
z
M 2080 1519 
C 2176 1449 2483 1240 2483 851 
C 2483 381 2010 25 1472 25 
C 890 25 448 438 448 940 
C 448 1443 838 1862 1280 2060 
L 2080 1519 
z
" transform="scale(0.015625)"/>
      </defs>
      <use xlink:href="#CMR17-38" transform="scale(0.996264)"/>
     </g>
    </g>
   </g>
   <g id="xtick_5">
    <g id="line2d_6">
     <path d="M 369.373633 558.953285 
L 364.882101 563.32892 
" style="fill: none; stroke: #000000; stroke-width: 0.8; stroke-linecap: square"/>
    </g>
    <g id="text_5">
     <!-- $\mathdefault{9}$ -->
     <g transform="translate(355.402044 591.402632) scale(0.18 -0.18)">
      <defs>
       <path id="CMR17-39" d="M 2253 1864 
C 2253 464 1670 31 1190 31 
C 1043 31 685 31 538 294 
C 704 268 826 357 826 518 
C 826 692 685 749 595 749 
C 538 749 365 723 365 506 
C 365 71 742 -128 1203 -128 
C 1939 -128 2688 674 2688 2073 
C 2688 3817 1971 4179 1485 4179 
C 851 4179 243 3628 243 2778 
C 243 1991 762 1408 1414 1408 
C 1952 1408 2189 1903 2253 2112 
L 2253 1864 
z
M 1427 1510 
C 1254 1510 1011 1542 813 1922 
C 678 2169 678 2461 678 2771 
C 678 3146 678 3405 858 3684 
C 947 3817 1114 4032 1485 4032 
C 2240 4032 2240 2885 2240 2632 
C 2240 2182 2035 1510 1427 1510 
z
" transform="scale(0.015625)"/>
      </defs>
      <use xlink:href="#CMR17-39" transform="scale(0.996264)"/>
     </g>
    </g>
   </g>
   <g id="xtick_6">
    <g id="line2d_7">
     <path d="M 426.088147 577.45794 
L 421.681666 581.91643 
" style="fill: none; stroke: #000000; stroke-width: 0.8; stroke-linecap: square"/>
    </g>
    <g id="text_6">
     <!-- $\mathdefault{10}$ -->
     <g transform="translate(408.072663 610.148676) scale(0.18 -0.18)">
      <defs>
       <path id="CMR17-31" d="M 1702 4058 
C 1702 4192 1696 4192 1606 4192 
C 1357 3916 979 3827 621 3827 
C 602 3827 570 3827 563 3808 
C 557 3795 557 3782 557 3648 
C 755 3648 1088 3686 1344 3839 
L 1344 461 
C 1344 236 1331 160 781 160 
L 589 160 
L 589 0 
C 896 0 1216 0 1523 0 
C 1830 0 2150 0 2458 0 
L 2458 160 
L 2266 160 
C 1715 160 1702 230 1702 458 
L 1702 4058 
z
" transform="scale(0.015625)"/>
       <path id="CMR17-30" d="M 2688 2025 
C 2688 2416 2682 3080 2413 3591 
C 2176 4039 1798 4198 1466 4198 
C 1158 4198 768 4058 525 3597 
C 269 3118 243 2524 243 2025 
C 243 1661 250 1106 448 619 
C 723 -39 1216 -128 1466 -128 
C 1760 -128 2208 -7 2470 600 
C 2662 1042 2688 1559 2688 2025 
z
M 1466 -26 
C 1056 -26 813 325 723 812 
C 653 1188 653 1738 653 2096 
C 653 2588 653 2997 736 3387 
C 858 3929 1216 4096 1466 4096 
C 1728 4096 2067 3923 2189 3400 
C 2272 3036 2278 2607 2278 2096 
C 2278 1680 2278 1169 2202 792 
C 2067 95 1690 -26 1466 -26 
z
" transform="scale(0.015625)"/>
      </defs>
      <use xlink:href="#CMR17-31" transform="scale(0.996264)"/>
      <use xlink:href="#CMR17-30" transform="translate(45.690477 0) scale(0.996264)"/>
     </g>
    </g>
   </g>
   <g id="text_7">
    <!-- $\lambda$ -->
    <g transform="translate(251.097438 593.960493) rotate(-341.912962) scale(0.2 -0.2)">
     <defs>
      <path id="CMMI12-15" d="M 1978 3965 
C 1818 4416 1312 4416 1229 4416 
C 1190 4416 1120 4416 1120 4352 
C 1120 4302 1158 4295 1190 4289 
C 1286 4276 1363 4263 1466 4080 
C 1530 3959 2189 2059 2189 2046 
C 2189 2040 2182 2033 2131 1982 
L 467 311 
C 390 234 339 183 339 102 
C 339 12 416 -64 518 -64 
C 544 -64 614 -51 653 -13 
C 755 82 1670 1194 2253 1881 
C 2419 1383 2624 797 2822 261 
C 2854 166 2886 76 2976 -6 
C 3040 -64 3053 -64 3232 -64 
L 3354 -64 
C 3379 -64 3424 -64 3424 -13 
C 3424 13 3418 19 3392 45 
C 3334 115 3290 229 3264 306 
L 1978 3965 
z
" transform="scale(0.015625)"/>
     </defs>
     <use xlink:href="#CMMI12-15" transform="scale(0.996264)"/>
    </g>
   </g>
  </g>
  <g id="axis3d_2">
   <g id="line2d_8">
    <path d="M 612.08999 414.901093 
L 445.575848 585.785566 
" style="fill: none; stroke: #000000; stroke-width: 0.8; stroke-linecap: square"/>
   </g>
   <g id="xtick_7">
    <g id="line2d_9">
     <path d="M 454.465857 573.108951 
L 462.367106 575.669352 
" style="fill: none; stroke: #000000; stroke-width: 0.8; stroke-linecap: square"/>
    </g>
    <g id="text_8">
     <!-- $\mathdefault{−3}$ -->
     <g transform="translate(460.568024 601.584953) scale(0.18 -0.18)">
      <defs>
       <path id="CMSY10-0" d="M 4218 1472 
C 4326 1472 4442 1472 4442 1600 
C 4442 1728 4326 1728 4218 1728 
L 755 1728 
C 646 1728 531 1728 531 1600 
C 531 1472 646 1472 755 1472 
L 4218 1472 
z
" transform="scale(0.015625)"/>
       <path id="CMR17-33" d="M 1414 2157 
C 1984 2157 2234 1662 2234 1090 
C 2234 320 1824 25 1453 25 
C 1114 25 563 194 390 693 
C 422 680 454 680 486 680 
C 640 680 755 782 755 948 
C 755 1133 614 1216 486 1216 
C 378 1216 211 1165 211 926 
C 211 335 787 -128 1466 -128 
C 2176 -128 2720 430 2720 1085 
C 2720 1707 2208 2157 1600 2227 
C 2086 2328 2554 2756 2554 3329 
C 2554 3820 2048 4179 1472 4179 
C 890 4179 378 3829 378 3329 
C 378 3110 544 3072 627 3072 
C 762 3072 877 3155 877 3321 
C 877 3486 762 3569 627 3569 
C 602 3569 570 3569 544 3557 
C 730 3959 1235 4032 1459 4032 
C 1683 4032 2106 3925 2106 3320 
C 2106 3143 2080 2828 1862 2550 
C 1670 2304 1453 2304 1242 2284 
C 1210 2284 1062 2269 1037 2269 
C 992 2263 966 2257 966 2208 
C 966 2163 973 2157 1101 2157 
L 1414 2157 
z
" transform="scale(0.015625)"/>
      </defs>
      <use xlink:href="#CMSY10-0" transform="scale(0.996264)"/>
      <use xlink:href="#CMR17-33" transform="translate(77.487468 0) scale(0.996264)"/>
     </g>
    </g>
   </g>
   <g id="xtick_8">
    <g id="line2d_10">
     <path d="M 476.667576 550.365339 
L 484.506331 552.867222 
" style="fill: none; stroke: #000000; stroke-width: 0.8; stroke-linecap: square"/>
    </g>
    <g id="text_9">
     <!-- $\mathdefault{−2}$ -->
     <g transform="translate(482.588704 578.640222) scale(0.18 -0.18)">
      <defs>
       <path id="CMR17-32" d="M 2669 989 
L 2554 989 
C 2490 536 2438 459 2413 420 
C 2381 369 1920 369 1830 369 
L 602 369 
C 832 619 1280 1072 1824 1597 
C 2214 1967 2669 2402 2669 3035 
C 2669 3790 2067 4224 1395 4224 
C 691 4224 262 3604 262 3030 
C 262 2780 448 2748 525 2748 
C 589 2748 781 2787 781 3010 
C 781 3207 614 3264 525 3264 
C 486 3264 448 3258 422 3245 
C 544 3790 915 4058 1306 4058 
C 1862 4058 2227 3617 2227 3035 
C 2227 2479 1901 2000 1536 1584 
L 262 146 
L 262 0 
L 2515 0 
L 2669 989 
z
" transform="scale(0.015625)"/>
      </defs>
      <use xlink:href="#CMSY10-0" transform="scale(0.996264)"/>
      <use xlink:href="#CMR17-32" transform="translate(77.487468 0) scale(0.996264)"/>
     </g>
    </g>
   </g>
   <g id="xtick_9">
    <g id="line2d_11">
     <path d="M 498.365055 528.138275 
L 506.142101 530.583623 
" style="fill: none; stroke: #000000; stroke-width: 0.8; stroke-linecap: square"/>
    </g>
    <g id="text_10">
     <!-- $\mathdefault{−1}$ -->
     <g transform="translate(504.108888 556.21699) scale(0.18 -0.18)">
      <use xlink:href="#CMSY10-0" transform="scale(0.996264)"/>
      <use xlink:href="#CMR17-31" transform="translate(77.487468 0) scale(0.996264)"/>
     </g>
    </g>
   </g>
   <g id="xtick_10">
    <g id="line2d_12">
     <path d="M 519.57528 506.410358 
L 527.291395 508.801066 
" style="fill: none; stroke: #000000; stroke-width: 0.8; stroke-linecap: square"/>
    </g>
    <g id="text_11">
     <!-- $\mathdefault{0}$ -->
     <g transform="translate(532.119318 534.297677) scale(0.18 -0.18)">
      <use xlink:href="#CMR17-30" transform="scale(0.996264)"/>
     </g>
    </g>
   </g>
   <g id="xtick_11">
    <g id="line2d_13">
     <path d="M 540.314481 485.164961 
L 547.970438 487.50284 
" style="fill: none; stroke: #000000; stroke-width: 0.8; stroke-linecap: square"/>
    </g>
    <g id="text_12">
     <!-- $\mathdefault{1}$ -->
     <g transform="translate(552.688373 512.865485) scale(0.18 -0.18)">
      <use xlink:href="#CMR17-31" transform="scale(0.996264)"/>
     </g>
    </g>
   </g>
   <g id="xtick_12">
    <g id="line2d_14">
     <path d="M 560.598177 464.386187 
L 568.194743 466.672969 
" style="fill: none; stroke: #000000; stroke-width: 0.8; stroke-linecap: square"/>
    </g>
    <g id="text_13">
     <!-- $\mathdefault{2}$ -->
     <g transform="translate(572.805339 491.904354) scale(0.18 -0.18)">
      <use xlink:href="#CMR17-32" transform="scale(0.996264)"/>
     </g>
    </g>
   </g>
   <g id="xtick_13">
    <g id="line2d_15">
     <path d="M 580.441212 444.05883 
L 587.979144 446.296172 
" style="fill: none; stroke: #000000; stroke-width: 0.8; stroke-linecap: square"/>
    </g>
    <g id="text_14">
     <!-- $\mathdefault{3}$ -->
     <g transform="translate(592.484958 471.398923) scale(0.18 -0.18)">
      <use xlink:href="#CMR17-33" transform="scale(0.996264)"/>
     </g>
    </g>
   </g>
   <g id="xtick_14">
    <g id="line2d_16">
     <path d="M 599.85779 424.168338 
L 607.337842 426.357826 
" style="fill: none; stroke: #000000; stroke-width: 0.8; stroke-linecap: square"/>
    </g>
    <g id="text_15">
     <!-- $\mathdefault{4}$ -->
     <g transform="translate(611.741338 451.33449) scale(0.18 -0.18)">
      <defs>
       <path id="CMR17-34" d="M 2150 4122 
C 2150 4256 2144 4256 2029 4256 
L 128 1254 
L 128 1088 
L 1779 1088 
L 1779 457 
C 1779 224 1766 160 1318 160 
L 1197 160 
L 1197 0 
C 1402 0 1747 0 1965 0 
C 2182 0 2528 0 2733 0 
L 2733 160 
L 2611 160 
C 2163 160 2150 224 2150 457 
L 2150 1088 
L 2803 1088 
L 2803 1254 
L 2150 1254 
L 2150 4122 
z
M 1798 3703 
L 1798 1254 
L 256 1254 
L 1798 3703 
z
" transform="scale(0.015625)"/>
      </defs>
      <use xlink:href="#CMR17-34" transform="scale(0.996264)"/>
     </g>
    </g>
   </g>
   <g id="text_16">
    <!-- $\theta_p$ -->
    <g transform="translate(574.129348 550.992807) rotate(-45.742112) scale(0.2 -0.2)">
     <defs>
      <path id="CMMI12-12" d="M 2835 3200 
C 2835 3850 2630 4480 2106 4480 
C 1210 4480 256 2615 256 1216 
C 256 923 320 -64 992 -64 
C 1862 -64 2835 1756 2835 3200 
z
M 896 2304 
C 992 2679 1126 3214 1382 3665 
C 1594 4047 1818 4352 2099 4352 
C 2310 4352 2451 4174 2451 3564 
C 2451 3334 2432 3017 2246 2304 
L 896 2304 
z
M 2202 2113 
C 2042 1490 1907 1088 1677 687 
C 1491 363 1267 64 998 64 
C 800 64 640 217 640 846 
C 640 1260 742 1693 845 2113 
L 2202 2113 
z
" transform="scale(0.015625)"/>
      <path id="CMMI12-70" d="M 275 -789 
C 230 -980 205 -1031 -58 -1031 
C -134 -1031 -198 -1031 -198 -1152 
C -198 -1165 -192 -1216 -122 -1216 
C -38 -1216 51 -1216 134 -1216 
L 410 -1216 
C 544 -1216 870 -1216 1005 -1216 
C 1043 -1216 1120 -1216 1120 -1101 
C 1120 -1031 1075 -1031 966 -1031 
C 672 -1031 653 -987 653 -937 
C 653 -861 941 219 979 364 
C 1050 185 1222 -64 1555 -64 
C 2278 -64 3059 875 3059 1814 
C 3059 2401 2726 2816 2246 2816 
C 1837 2816 1491 2420 1421 2331 
C 1370 2650 1120 2816 864 2816 
C 678 2816 531 2727 410 2484 
C 294 2254 205 1865 205 1839 
C 205 1814 230 1782 275 1782 
C 326 1782 333 1788 371 1935 
C 467 2312 589 2689 845 2689 
C 992 2689 1043 2587 1043 2397 
C 1043 2245 1024 2181 998 2067 
L 275 -789 
z
M 1382 1993 
C 1427 2171 1606 2357 1709 2446 
C 1779 2510 1990 2689 2234 2689 
C 2515 2689 2643 2408 2643 2076 
C 2643 1769 2464 1047 2304 715 
C 2144 370 1850 64 1555 64 
C 1120 64 1050 613 1050 639 
C 1050 658 1062 709 1069 741 
L 1382 1993 
z
" transform="scale(0.015625)"/>
     </defs>
     <use xlink:href="#CMMI12-12" transform="scale(0.996264)"/>
     <use xlink:href="#CMMI12-70" transform="translate(45.45979 -14.943915) scale(0.697382)"/>
    </g>
   </g>
  </g>
  <g id="axis3d_3">
   <g id="line2d_17">
    <path d="M 612.08999 414.901093 
L 622.642028 184.471543 
" style="fill: none; stroke: #000000; stroke-width: 0.8; stroke-linecap: square"/>
   </g>
   <g id="xtick_15">
    <g id="line2d_18">
     <path d="M 611.008824 383.267248 
L 618.506119 385.408947 
" style="fill: none; stroke: #000000; stroke-width: 0.8; stroke-linecap: square"/>
    </g>
    <g id="text_17">
     <!-- $\mathdefault{0.5}$ -->
     <g transform="translate(623.622009 393.517675) scale(0.18 -0.18)">
      <defs>
       <path id="CMMI12-3a" d="M 1178 307 
C 1178 492 1024 619 870 619 
C 685 619 557 466 557 313 
C 557 128 710 0 864 0 
C 1050 0 1178 153 1178 307 
z
" transform="scale(0.015625)"/>
      </defs>
      <use xlink:href="#CMR17-30" transform="scale(0.996264)"/>
      <use xlink:href="#CMMI12-3a" transform="translate(45.690477 0) scale(0.996264)"/>
      <use xlink:href="#CMR17-35" transform="translate(72.787654 0) scale(0.996264)"/>
     </g>
    </g>
   </g>
   <g id="xtick_16">
    <g id="line2d_19">
     <path d="M 613.161432 335.752605 
L 620.73024 337.856624 
" style="fill: none; stroke: #000000; stroke-width: 0.8; stroke-linecap: square"/>
    </g>
    <g id="text_18">
     <!-- $\mathdefault{0.6}$ -->
     <g transform="translate(625.985374 346.041836) scale(0.18 -0.18)">
      <use xlink:href="#CMR17-30" transform="scale(0.996264)"/>
      <use xlink:href="#CMMI12-3a" transform="translate(45.690477 0) scale(0.996264)"/>
      <use xlink:href="#CMR17-36" transform="translate(72.787654 0) scale(0.996264)"/>
     </g>
    </g>
   </g>
   <g id="xtick_17">
    <g id="line2d_20">
     <path d="M 615.353932 287.357431 
L 622.995628 289.421999 
" style="fill: none; stroke: #000000; stroke-width: 0.8; stroke-linecap: square"/>
    </g>
    <g id="text_19">
     <!-- $\mathdefault{0.7}$ -->
     <g transform="translate(628.39248 297.687288) scale(0.18 -0.18)">
      <use xlink:href="#CMR17-30" transform="scale(0.996264)"/>
      <use xlink:href="#CMMI12-3a" transform="translate(45.690477 0) scale(0.996264)"/>
      <use xlink:href="#CMR17-37" transform="translate(72.787654 0) scale(0.996264)"/>
     </g>
    </g>
   </g>
   <g id="xtick_18">
    <g id="line2d_21">
     <path d="M 617.587442 238.057023 
L 625.303443 240.080287 
" style="fill: none; stroke: #000000; stroke-width: 0.8; stroke-linecap: square"/>
    </g>
    <g id="text_20">
     <!-- $\mathdefault{0.8}$ -->
     <g transform="translate(630.844555 248.42941) scale(0.18 -0.18)">
      <use xlink:href="#CMR17-30" transform="scale(0.996264)"/>
      <use xlink:href="#CMMI12-3a" transform="translate(45.690477 0) scale(0.996264)"/>
      <use xlink:href="#CMR17-38" transform="translate(72.787654 0) scale(0.996264)"/>
     </g>
    </g>
   </g>
   <g id="text_21">
    <!-- $C_T$ -->
    <g transform="translate(688.035743 304.524079) rotate(-87.378092) scale(0.2 -0.2)">
     <defs>
      <path id="CMMI12-43" d="M 4781 4423 
C 4781 4480 4736 4480 4723 4480 
C 4710 4480 4685 4480 4634 4416 
L 4192 3882 
C 3968 4264 3616 4480 3136 4480 
C 1754 4480 320 3088 320 1595 
C 320 533 1069 -128 2003 -128 
C 2515 -128 2963 88 3334 400 
C 3891 863 4058 1481 4058 1531 
C 4058 1588 4006 1588 3987 1588 
C 3930 1588 3923 1550 3910 1524 
C 3616 534 2752 57 2112 57 
C 1434 57 845 489 845 1391 
C 845 1595 909 2700 1632 3532 
C 1984 3939 2586 4295 3194 4295 
C 3898 4295 4211 3717 4211 3068 
C 4211 2903 4192 2764 4192 2738 
C 4192 2681 4256 2681 4275 2681 
C 4346 2681 4352 2687 4378 2801 
L 4781 4423 
z
" transform="scale(0.015625)"/>
      <path id="CMMI12-54" d="M 2669 3910 
C 2707 4064 2720 4121 2816 4147 
C 2867 4160 3078 4160 3213 4160 
C 3853 4160 4154 4134 4154 3634 
C 4154 3537 4128 3295 4090 3057 
L 4083 2980 
C 4083 2954 4109 2916 4147 2916 
C 4211 2916 4211 2948 4230 3050 
L 4416 4184 
C 4429 4243 4429 4256 4429 4275 
C 4429 4345 4390 4345 4262 4345 
L 762 4345 
C 614 4345 608 4339 570 4224 
L 179 3070 
C 173 3056 154 2986 154 2980 
C 154 2948 179 2916 218 2916 
C 269 2916 282 2941 307 3024 
C 576 3801 710 4160 1562 4160 
L 1990 4160 
C 2144 4160 2208 4160 2208 4089 
C 2208 4069 2208 4057 2176 3941 
L 1318 499 
C 1254 249 1242 185 563 185 
C 403 185 358 185 358 64 
C 358 0 429 0 461 0 
C 621 0 787 0 947 0 
L 1946 0 
C 2106 0 2278 0 2438 0 
C 2509 0 2573 0 2573 121 
C 2573 185 2528 185 2362 185 
C 1786 185 1786 243 1786 339 
C 1786 346 1786 391 1811 494 
L 2669 3910 
z
" transform="scale(0.015625)"/>
     </defs>
     <use xlink:href="#CMMI12-43" transform="scale(0.996264)"/>
     <use xlink:href="#CMMI12-54" transform="translate(69.792037 -14.943915) scale(0.697382)"/>
    </g>
   </g>
  </g>
  <g id="axes_1">
   <g id="Poly3DCollection_1">
    <path d="M 312.856657 343.118325 
L 337.767942 331.295706 
L 348.431217 328.987607 
L 323.578938 339.011274 
z
" clip-path="url(#p90d795a5de)" style="fill: #0d0887"/>
    <path d="M 302.006052 347.527618 
L 326.967773 333.913813 
L 337.767942 331.295706 
L 312.856657 343.118325 
z
" clip-path="url(#p90d795a5de)" style="fill: #20068f"/>
    <path d="M 337.767942 331.295706 
L 363.084952 322.916178 
L 373.661145 321.973673 
L 348.431217 328.987607 
z
" clip-path="url(#p90d795a5de)" style="fill: #3a049a"/>
    <path d="M 291.026449 352.250498 
L 316.026724 336.584189 
L 326.967773 333.913813 
L 302.006052 347.527618 
z
" clip-path="url(#p90d795a5de)" style="fill: #2e0595"/>
    <path d="M 326.967773 333.913813 
L 352.364104 323.922558 
L 363.084952 322.916178 
L 337.767942 331.295706 
z
" clip-path="url(#p90d795a5de)" style="fill: #4b03a1"/>
    <path d="M 363.084952 322.916178 
L 388.770162 315.256314 
L 399.242544 315.308607 
L 373.661145 321.973673 
z
" clip-path="url(#p90d795a5de)" style="fill: #5901a5"/>
    <path d="M 279.916138 357.238912 
L 304.943269 339.390897 
L 316.026724 336.584189 
L 291.026449 352.250498 
z
" clip-path="url(#p90d795a5de)" style="fill: #3a049a"/>
    <path d="M 316.026724 336.584189 
L 341.496141 325.025797 
L 352.364104 323.922558 
L 326.967773 333.913813 
z
" clip-path="url(#p90d795a5de)" style="fill: #5901a5"/>
    <path d="M 352.364104 323.922558 
L 378.149431 315.131618 
L 388.770162 315.256314 
L 363.084952 322.916178 
z
" clip-path="url(#p90d795a5de)" style="fill: #6a00a8"/>
    <path d="M 388.770162 315.256314 
L 414.822746 307.830243 
L 425.17055 309.607976 
L 399.242544 315.308607 
z
" clip-path="url(#p90d795a5de)" style="fill: #7501a8"/>
    <path d="M 268.674485 362.517674 
L 293.723893 342.881377 
L 304.943269 339.390897 
L 279.916138 357.238912 
z
" clip-path="url(#p90d795a5de)" style="fill: #46039f"/>
    <path d="M 304.943269 339.390897 
L 330.479983 326.393153 
L 341.496141 325.025797 
L 316.026724 336.584189 
z
" clip-path="url(#p90d795a5de)" style="fill: #6700a8"/>
    <path d="M 414.822746 307.830243 
L 441.223719 302.411492 
L 451.425766 305.646075 
L 425.17055 309.607976 
z
" clip-path="url(#p90d795a5de)" style="fill: #8e0ca4"/>
    <path d="M 341.496141 325.025797 
L 367.377119 315.156855 
L 378.149431 315.131618 
L 352.364104 323.922558 
z
" clip-path="url(#p90d795a5de)" style="fill: #7b02a8"/>
    <path d="M 378.149431 315.131618 
L 404.319561 306.211524 
L 414.822746 307.830243 
L 388.770162 315.256314 
z
" clip-path="url(#p90d795a5de)" style="fill: #8808a6"/>
    <path d="M 257.296447 367.911725 
L 282.361151 346.570128 
L 293.723893 342.881377 
L 268.674485 362.517674 
z
" clip-path="url(#p90d795a5de)" style="fill: #5002a2"/>
    <path d="M 293.723893 342.881377 
L 319.31465 328.076746 
L 330.479983 326.393153 
L 304.943269 339.390897 
z
" clip-path="url(#p90d795a5de)" style="fill: #7501a8"/>
    <path d="M 441.223719 302.411492 
L 467.964661 298.098701 
L 477.999745 302.810157 
L 451.425766 305.646075 
z
" clip-path="url(#p90d795a5de)" style="fill: #a11b9b"/>
    <path d="M 330.479983 326.393153 
L 356.450876 315.326414 
L 367.377119 315.156855 
L 341.496141 325.025797 
z
" clip-path="url(#p90d795a5de)" style="fill: #8b0aa5"/>
    <path d="M 404.319561 306.211524 
L 430.860356 299.36558 
L 441.223719 302.411492 
L 414.822746 307.830243 
z
" clip-path="url(#p90d795a5de)" style="fill: #a11b9b"/>
    <path d="M 367.377119 315.156855 
L 393.658288 304.859969 
L 404.319561 306.211524 
L 378.149431 315.131618 
z
" clip-path="url(#p90d795a5de)" style="fill: #9a169f"/>
    <path d="M 245.779285 373.400773 
L 270.857256 350.658573 
L 282.361151 346.570128 
L 257.296447 367.911725 
z
" clip-path="url(#p90d795a5de)" style="fill: #5901a5"/>
    <path d="M 282.361151 346.570128 
L 307.997495 329.97044 
L 319.31465 328.076746 
L 293.723893 342.881377 
z
" clip-path="url(#p90d795a5de)" style="fill: #8104a7"/>
    <path d="M 467.964661 298.098701 
L 495.023859 295.378074 
L 504.863693 301.814437 
L 477.999745 302.810157 
z
" clip-path="url(#p90d795a5de)" style="fill: #b12a90"/>
    <path d="M 319.31465 328.076746 
L 345.367603 315.528721 
L 356.450876 315.326414 
L 330.479983 326.393153 
z
" clip-path="url(#p90d795a5de)" style="fill: #9a169f"/>
    <path d="M 430.860356 299.36558 
L 457.761441 293.653533 
L 467.964661 298.098701 
L 441.223719 302.411492 
z
" clip-path="url(#p90d795a5de)" style="fill: #b52f8c"/>
    <path d="M 356.450876 315.326414 
L 382.836782 304.103159 
L 393.658288 304.859969 
L 367.377119 315.156855 
z
" clip-path="url(#p90d795a5de)" style="fill: #aa2395"/>
    <path d="M 393.658288 304.859969 
L 420.333384 296.506255 
L 430.860356 299.36558 
L 404.319561 306.211524 
z
" clip-path="url(#p90d795a5de)" style="fill: #b32c8e"/>
    <path d="M 234.134515 379.492132 
L 259.213991 355.250809 
L 270.857256 350.658573 
L 245.779285 373.400773 
z
" clip-path="url(#p90d795a5de)" style="fill: #6300a7"/>
    <path d="M 495.023859 295.378074 
L 522.387236 294.086624 
L 532.016128 301.941886 
L 504.863693 301.814437 
z
" clip-path="url(#p90d795a5de)" style="fill: #bd3786"/>
    <path d="M 270.857256 350.658573 
L 296.524644 331.951414 
L 307.997495 329.97044 
L 282.361151 346.570128 
z
" clip-path="url(#p90d795a5de)" style="fill: #8e0ca4"/>
    <path d="M 457.761441 293.653533 
L 485.006946 289.316207 
L 495.023859 295.378074 
L 467.964661 298.098701 
z
" clip-path="url(#p90d795a5de)" style="fill: #c43e7f"/>
    <path d="M 307.997495 329.97044 
L 334.125735 315.968697 
L 345.367603 315.528721 
L 319.31465 328.076746 
z
" clip-path="url(#p90d795a5de)" style="fill: #a72197"/>
    <path d="M 222.361997 386.147083 
L 247.421882 359.959951 
L 259.213991 355.250809 
L 234.134515 379.492132 
z
" clip-path="url(#p90d795a5de)" style="fill: #6a00a8"/>
    <path d="M 345.367603 315.528721 
L 371.854981 303.591595 
L 382.836782 304.103159 
L 356.450876 315.326414 
z
" clip-path="url(#p90d795a5de)" style="fill: #b7318a"/>
    <path d="M 420.333384 296.506255 
L 447.387576 289.513666 
L 457.761441 293.653533 
L 430.860356 299.36558 
z
" clip-path="url(#p90d795a5de)" style="fill: #c6417d"/>
    <path d="M 382.836782 304.103159 
L 409.639235 294.020847 
L 420.333384 296.506255 
L 393.658288 304.859969 
z
" clip-path="url(#p90d795a5de)" style="fill: #c13b82"/>
    <path d="M 522.387236 294.086624 
L 550.051037 293.838775 
L 559.444134 303.21947 
L 532.016128 301.941886 
z
" clip-path="url(#p90d795a5de)" style="fill: #c6417d"/>
    <path d="M 259.213991 355.250809 
L 284.893409 334.030454 
L 296.524644 331.951414 
L 270.857256 350.658573 
z
" clip-path="url(#p90d795a5de)" style="fill: #9814a0"/>
    <path d="M 485.006946 289.316207 
L 512.572153 286.732464 
L 522.387236 294.086624 
L 495.023859 295.378074 
z
" clip-path="url(#p90d795a5de)" style="fill: #d04d73"/>
    <path d="M 296.524644 331.951414 
L 322.723458 316.662388 
L 334.125735 315.968697 
L 307.997495 329.97044 
z
" clip-path="url(#p90d795a5de)" style="fill: #b32c8e"/>
    <path d="M 210.467781 393.529741 
L 235.480868 364.877987 
L 247.421882 359.959951 
L 222.361997 386.147083 
z
" clip-path="url(#p90d795a5de)" style="fill: #7100a8"/>
    <path d="M 447.387576 289.513666 
L 474.81041 283.684381 
L 485.006946 289.316207 
L 457.761441 293.653533 
z
" clip-path="url(#p90d795a5de)" style="fill: #d5536f"/>
    <path d="M 334.125735 315.968697 
L 360.710235 303.098037 
L 371.854981 303.591595 
L 345.367603 315.528721 
z
" clip-path="url(#p90d795a5de)" style="fill: #c33d80"/>
    <path d="M 409.639235 294.020847 
L 436.840067 285.78327 
L 447.387576 289.513666 
L 420.333384 296.506255 
z
" clip-path="url(#p90d795a5de)" style="fill: #d45270"/>
    <path d="M 371.854981 303.591595 
L 398.776687 291.891263 
L 409.639235 294.020847 
L 382.836782 304.103159 
z
" clip-path="url(#p90d795a5de)" style="fill: #ce4b75"/>
    <path d="M 550.051037 293.838775 
L 578.000417 294.742825 
L 587.143668 305.431579 
L 559.444134 303.21947 
z
" clip-path="url(#p90d795a5de)" style="fill: #cd4a76"/>
    <path d="M 247.421882 359.959951 
L 273.105744 336.451874 
L 284.893409 334.030454 
L 259.213991 355.250809 
z
" clip-path="url(#p90d795a5de)" style="fill: #a21d9a"/>
    <path d="M 512.572153 286.732464 
L 540.457828 285.192558 
L 550.051037 293.838775 
L 522.387236 294.086624 
z
" clip-path="url(#p90d795a5de)" style="fill: #da5a6a"/>
    <path d="M 198.428137 400.895969 
L 223.40402 370.514919 
L 235.480868 364.877987 
L 210.467781 393.529741 
z
" clip-path="url(#p90d795a5de)" style="fill: #7801a8"/>
    <path d="M 284.893409 334.030454 
L 311.158846 317.610382 
L 322.723458 316.662388 
L 296.524644 331.951414 
z
" clip-path="url(#p90d795a5de)" style="fill: #be3885"/>
    <path d="M 474.81041 283.684381 
L 502.565924 280.048696 
L 512.572153 286.732464 
L 485.006946 289.316207 
z
" clip-path="url(#p90d795a5de)" style="fill: #e06363"/>
    <path d="M 322.723458 316.662388 
L 349.399686 302.745122 
L 360.710235 303.098037 
L 334.125735 315.968697 
z
" clip-path="url(#p90d795a5de)" style="fill: #ce4b75"/>
    <path d="M 436.840067 285.78327 
L 464.427199 278.832854 
L 474.81041 283.684381 
L 447.387576 289.513666 
z
" clip-path="url(#p90d795a5de)" style="fill: #e26660"/>
    <path d="M 360.710235 303.098037 
L 387.744233 290.142788 
L 398.776687 291.891263 
L 371.854981 303.591595 
z
" clip-path="url(#p90d795a5de)" style="fill: #da5a6a"/>
    <path d="M 398.776687 291.891263 
L 426.116927 282.54367 
L 436.840067 285.78327 
L 409.639235 294.020847 
z
" clip-path="url(#p90d795a5de)" style="fill: #e06363"/>
    <path d="M 235.480868 364.877987 
L 261.165356 339.441663 
L 273.105744 336.451874 
L 247.421882 359.959951 
z
" clip-path="url(#p90d795a5de)" style="fill: #ab2494"/>
    <path d="M 540.457828 285.192558 
L 568.638387 285.112568 
L 578.000417 294.742825 
L 550.051037 293.838775 
z
" clip-path="url(#p90d795a5de)" style="fill: #e16462"/>
    <path d="M 186.255266 408.667146 
L 211.196296 376.975498 
L 223.40402 370.514919 
L 198.428137 400.895969 
z
" clip-path="url(#p90d795a5de)" style="fill: #7e03a8"/>
    <path d="M 502.565924 280.048696 
L 530.651219 277.74514 
L 540.457828 285.192558 
L 512.572153 286.732464 
z
" clip-path="url(#p90d795a5de)" style="fill: #e97158"/>
    <path d="M 273.105744 336.451874 
L 299.429395 318.777304 
L 311.158846 317.610382 
L 284.893409 334.030454 
z
" clip-path="url(#p90d795a5de)" style="fill: #c8437b"/>
    <path d="M 311.158846 317.610382 
L 337.922447 302.792052 
L 349.399686 302.745122 
L 322.723458 316.662388 
z
" clip-path="url(#p90d795a5de)" style="fill: #d8576b"/>
    <path d="M 464.427199 278.832854 
L 492.359463 274.452298 
L 502.565924 280.048696 
L 474.81041 283.684381 
z
" clip-path="url(#p90d795a5de)" style="fill: #ed7953"/>
    <path d="M 349.399686 302.745122 
L 376.540541 288.842136 
L 387.744233 290.142788 
L 360.710235 303.098037 
z
" clip-path="url(#p90d795a5de)" style="fill: #e3685f"/>
    <path d="M 426.116927 282.54367 
L 453.855193 274.964939 
L 464.427199 278.832854 
L 436.840067 285.78327 
z
" clip-path="url(#p90d795a5de)" style="fill: #ed7a52"/>
    <path d="M 387.744233 290.142788 
L 415.216469 279.921848 
L 426.116927 282.54367 
L 398.776687 291.891263 
z
" clip-path="url(#p90d795a5de)" style="fill: #ea7457"/>
    <path d="M 223.40402 370.514919 
L 249.077416 343.200878 
L 261.165356 339.441663 
L 235.480868 364.877987 
z
" clip-path="url(#p90d795a5de)" style="fill: #b32c8e"/>
    <path d="M 174.034371 419.015128 
L 198.838583 383.632294 
L 211.196296 376.975498 
L 186.255266 408.667146 
z
" clip-path="url(#p90d795a5de)" style="fill: #8104a7"/>
    <path d="M 530.651219 277.74514 
L 559.035153 277.245747 
L 568.638387 285.112568 
L 540.457828 285.192558 
z
" clip-path="url(#p90d795a5de)" style="fill: #f07f4f"/>
    <path d="M 261.165356 339.441663 
L 287.532303 320.132884 
L 299.429395 318.777304 
L 273.105744 336.451874 
z
" clip-path="url(#p90d795a5de)" style="fill: #d04d73"/>
    <path d="M 492.359463 274.452298 
L 520.619354 272.04011 
L 530.651219 277.74514 
L 502.565924 280.048696 
z
" clip-path="url(#p90d795a5de)" style="fill: #f48948"/>
    <path d="M 299.429395 318.777304 
L 326.27788 303.292666 
L 337.922447 302.792052 
L 311.158846 317.610382 
z
" clip-path="url(#p90d795a5de)" style="fill: #e16462"/>
    <path d="M 211.196296 376.975498 
L 236.827104 347.113648 
L 249.077416 343.200878 
L 223.40402 370.514919 
z
" clip-path="url(#p90d795a5de)" style="fill: #ba3388"/>
    <path d="M 161.69572 429.897112 
L 186.318244 390.200089 
L 198.838583 383.632294 
L 174.034371 419.015128 
z
" clip-path="url(#p90d795a5de)" style="fill: #8405a7"/>
    <path d="M 453.855193 274.964939 
L 481.946235 270.398457 
L 492.359463 274.452298 
L 464.427199 278.832854 
z
" clip-path="url(#p90d795a5de)" style="fill: #f68f44"/>
    <path d="M 337.922447 302.792052 
L 365.1666 288.884358 
L 376.540541 288.842136 
L 349.399686 302.745122 
z
" clip-path="url(#p90d795a5de)" style="fill: #eb7655"/>
    <path d="M 415.216469 279.921848 
L 443.090288 272.57575 
L 453.855193 274.964939 
L 426.116927 282.54367 
z
" clip-path="url(#p90d795a5de)" style="fill: #f68d45"/>
    <path d="M 376.540541 288.842136 
L 404.134394 278.744956 
L 415.216469 279.921848 
L 387.744233 290.142788 
z
" clip-path="url(#p90d795a5de)" style="fill: #f3854b"/>
    <path d="M 249.077416 343.200878 
L 275.472937 322.088157 
L 287.532303 320.132884 
L 261.165356 339.441663 
z
" clip-path="url(#p90d795a5de)" style="fill: #d8576b"/>
    <path d="M 520.619354 272.04011 
L 549.191431 271.304429 
L 559.035153 277.245747 
L 530.651219 277.74514 
z
" clip-path="url(#p90d795a5de)" style="fill: #f9983e"/>
    <path d="M 287.532303 320.132884 
L 314.466819 304.386986 
L 326.27788 303.292666 
L 299.429395 318.777304 
z
" clip-path="url(#p90d795a5de)" style="fill: #e87059"/>
    <path d="M 198.838583 383.632294 
L 224.420094 351.46658 
L 236.827104 347.113648 
L 211.196296 376.975498 
z
" clip-path="url(#p90d795a5de)" style="fill: #bf3984"/>
    <path d="M 481.946235 270.398457 
L 510.370294 268.005569 
L 520.619354 272.04011 
L 492.359463 274.452298 
z
" clip-path="url(#p90d795a5de)" style="fill: #fba139"/>
    <path d="M 326.27788 303.292666 
L 353.627304 290.264569 
L 365.1666 288.884358 
L 337.922447 302.792052 
z
" clip-path="url(#p90d795a5de)" style="fill: #f2844b"/>
    <path d="M 443.090288 272.57575 
L 471.332792 267.821034 
L 481.946235 270.398457 
L 453.855193 274.964939 
z
" clip-path="url(#p90d795a5de)" style="fill: #fca338"/>
    <path d="M 365.1666 288.884358 
L 392.877031 278.685467 
L 404.134394 278.744956 
L 376.540541 288.842136 
z
" clip-path="url(#p90d795a5de)" style="fill: #f89540"/>
    <path d="M 404.134394 278.744956 
L 432.13922 271.526097 
L 443.090288 272.57575 
L 415.216469 279.921848 
z
" clip-path="url(#p90d795a5de)" style="fill: #fb9f3a"/>
    <path d="M 236.827104 347.113648 
L 263.247944 324.476658 
L 275.472937 322.088157 
L 249.077416 343.200878 
z
" clip-path="url(#p90d795a5de)" style="fill: #de6164"/>
    <path d="M 186.318244 390.200089 
L 211.877124 356.936374 
L 224.420094 351.46658 
L 198.838583 383.632294 
z
" clip-path="url(#p90d795a5de)" style="fill: #c5407e"/>
    <path d="M 510.370294 268.005569 
L 539.109552 267.444822 
L 549.191431 271.304429 
L 520.619354 272.04011 
z
" clip-path="url(#p90d795a5de)" style="fill: #fdb130"/>
    <path d="M 275.472937 322.088157 
L 302.49645 306.576987 
L 314.466819 304.386986 
L 287.532303 320.132884 
z
" clip-path="url(#p90d795a5de)" style="fill: #ef7c51"/>
    <path d="M 471.332792 267.821034 
L 499.904215 265.891297 
L 510.370294 268.005569 
L 481.946235 270.398457 
z
" clip-path="url(#p90d795a5de)" style="fill: #feb72d"/>
    <path d="M 314.466819 304.386986 
L 341.923444 292.338124 
L 353.627304 290.264569 
L 326.27788 303.292666 
z
" clip-path="url(#p90d795a5de)" style="fill: #f79143"/>
    <path d="M 432.13922 271.526097 
L 460.521384 266.901138 
L 471.332792 267.821034 
L 443.090288 272.57575 
z
" clip-path="url(#p90d795a5de)" style="fill: #feb72d"/>
    <path d="M 353.627304 290.264569 
L 381.447702 279.769436 
L 392.877031 278.685467 
L 365.1666 288.884358 
z
" clip-path="url(#p90d795a5de)" style="fill: #fca338"/>
    <path d="M 392.877031 278.685467 
L 421.006628 271.805761 
L 432.13922 271.526097 
L 404.134394 278.744956 
z
" clip-path="url(#p90d795a5de)" style="fill: #fdb130"/>
    <path d="M 224.420094 351.46658 
L 250.865486 327.677044 
L 263.247944 324.476658 
L 236.827104 347.113648 
z
" clip-path="url(#p90d795a5de)" style="fill: #e56a5d"/>
    <path d="M 263.247944 324.476658 
L 290.36286 309.404486 
L 302.49645 306.576987 
L 275.472937 322.088157 
z
" clip-path="url(#p90d795a5de)" style="fill: #f3874a"/>
    <path d="M 499.904215 265.891297 
L 528.78519 266.104565 
L 539.109552 267.444822 
L 510.370294 268.005569 
z
" clip-path="url(#p90d795a5de)" style="fill: #fdc627"/>
    <path d="M 302.49645 306.576987 
L 330.055004 295.010686 
L 341.923444 292.338124 
L 314.466819 304.386986 
z
" clip-path="url(#p90d795a5de)" style="fill: #fa9e3b"/>
    <path d="M 460.521384 266.901138 
L 489.225158 265.868977 
L 499.904215 265.891297 
L 471.332792 267.821034 
z
" clip-path="url(#p90d795a5de)" style="fill: #fdcb26"/>
    <path d="M 341.923444 292.338124 
L 369.849914 281.903917 
L 381.447702 279.769436 
L 353.627304 290.264569 
z
" clip-path="url(#p90d795a5de)" style="fill: #fdb22f"/>
    <path d="M 421.006628 271.805761 
L 449.51504 267.883799 
L 460.521384 266.901138 
L 432.13922 271.526097 
z
" clip-path="url(#p90d795a5de)" style="fill: #fdca26"/>
    <path d="M 381.447702 279.769436 
L 409.696767 273.473637 
L 421.006628 271.805761 
L 392.877031 278.685467 
z
" clip-path="url(#p90d795a5de)" style="fill: #fec029"/>
    <path d="M 211.877124 356.936374 
L 238.323697 331.551294 
L 250.865486 327.677044 
L 224.420094 351.46658 
z
" clip-path="url(#p90d795a5de)" style="fill: #e97158"/>
    <path d="M 250.865486 327.677044 
L 278.067637 312.928458 
L 290.36286 309.404486 
L 263.247944 324.476658 
z
" clip-path="url(#p90d795a5de)" style="fill: #f79342"/>
    <path d="M 489.225158 265.868977 
L 518.224752 267.459898 
L 528.78519 266.104565 
L 499.904215 265.891297 
z
" clip-path="url(#p90d795a5de)" style="fill: #fada24"/>
    <path d="M 290.36286 309.404486 
L 318.024619 298.501881 
L 330.055004 295.010686 
L 302.49645 306.576987 
z
" clip-path="url(#p90d795a5de)" style="fill: #fca934"/>
    <path d="M 449.51504 267.883799 
L 478.339082 268.095819 
L 489.225158 265.868977 
L 460.521384 266.901138 
z
" clip-path="url(#p90d795a5de)" style="fill: #f9dc24"/>
    <path d="M 330.055004 295.010686 
L 358.087281 285.232655 
L 369.849914 281.903917 
L 341.923444 292.338124 
z
" clip-path="url(#p90d795a5de)" style="fill: #febe2a"/>
    <path d="M 409.696767 273.473637 
L 438.321044 270.843476 
L 449.51504 267.883799 
L 421.006628 271.805761 
z
" clip-path="url(#p90d795a5de)" style="fill: #fad824"/>
    <path d="M 369.849914 281.903917 
L 398.214547 276.58906 
L 409.696767 273.473637 
L 381.447702 279.769436 
z
" clip-path="url(#p90d795a5de)" style="fill: #fcce25"/>
    <path d="M 238.323697 331.551294 
L 265.610201 317.078015 
L 278.067637 312.928458 
L 250.865486 327.677044 
z
" clip-path="url(#p90d795a5de)" style="fill: #fa9c3c"/>
    <path d="M 478.339082 268.095819 
L 507.436875 271.668412 
L 518.224752 267.459898 
L 489.225158 265.868977 
z
" clip-path="url(#p90d795a5de)" style="fill: #f5e926"/>
    <path d="M 278.067637 312.928458 
L 305.834379 302.838226 
L 318.024619 298.501881 
L 290.36286 309.404486 
z
" clip-path="url(#p90d795a5de)" style="fill: #fdb52e"/>
    <path d="M 438.321044 270.843476 
L 467.25329 272.743305 
L 478.339082 268.095819 
L 449.51504 267.883799 
z
" clip-path="url(#p90d795a5de)" style="fill: #f5eb27"/>
    <path d="M 318.024619 298.501881 
L 346.167056 290.287552 
L 358.087281 285.232655 
L 330.055004 295.010686 
z
" clip-path="url(#p90d795a5de)" style="fill: #fdca26"/>
    <path d="M 398.214547 276.58906 
L 426.948476 275.760061 
L 438.321044 270.843476 
L 409.696767 273.473637 
z
" clip-path="url(#p90d795a5de)" style="fill: #f6e626"/>
    <path d="M 358.087281 285.232655 
L 386.565339 281.327174 
L 398.214547 276.58906 
L 369.849914 281.903917 
z
" clip-path="url(#p90d795a5de)" style="fill: #f9dc24"/>
    <path d="M 467.25329 272.743305 
L 496.431545 278.902277 
L 507.436875 271.668412 
L 478.339082 268.095819 
z
" clip-path="url(#p90d795a5de)" style="fill: #f1f426"/>
    <path d="M 265.610201 317.078015 
L 293.486523 308.036294 
L 305.834379 302.838226 
L 278.067637 312.928458 
z
" clip-path="url(#p90d795a5de)" style="fill: #febe2a"/>
    <path d="M 426.948476 275.760061 
L 455.977148 279.963026 
L 467.25329 272.743305 
L 438.321044 270.843476 
z
" clip-path="url(#p90d795a5de)" style="fill: #f1f426"/>
    <path d="M 305.834379 302.838226 
L 334.096453 296.972611 
L 346.167056 290.287552 
L 318.024619 298.501881 
z
" clip-path="url(#p90d795a5de)" style="fill: #fbd324"/>
    <path d="M 386.565339 281.327174 
L 415.40533 282.774174 
L 426.948476 275.760061 
L 398.214547 276.58906 
z
" clip-path="url(#p90d795a5de)" style="fill: #f3ee27"/>
    <path d="M 346.167056 290.287552 
L 374.756228 287.769577 
L 386.565339 281.327174 
L 358.087281 285.232655 
z
" clip-path="url(#p90d795a5de)" style="fill: #f6e626"/>
    <path d="M 455.977148 279.963026 
L 485.221184 289.306266 
L 496.431545 278.902277 
L 467.25329 272.743305 
z
" clip-path="url(#p90d795a5de)" style="fill: #f0f921"/>
    <path d="M 415.40533 282.774174 
L 444.522192 289.86791 
L 455.977148 279.963026 
L 426.948476 275.760061 
z
" clip-path="url(#p90d795a5de)" style="fill: #f0f921"/>
    <path d="M 293.486523 308.036294 
L 321.876385 304.648255 
L 334.096453 296.972611 
L 305.834379 302.838226 
z
" clip-path="url(#p90d795a5de)" style="fill: #f9dc24"/>
    <path d="M 374.756228 287.769577 
L 403.701297 291.993884 
L 415.40533 282.774174 
L 386.565339 281.327174 
z
" clip-path="url(#p90d795a5de)" style="fill: #f1f525"/>
    <path d="M 334.096453 296.972611 
L 362.795595 296.125433 
L 374.756228 287.769577 
L 346.167056 290.287552 
z
" clip-path="url(#p90d795a5de)" style="fill: #f5eb27"/>
    <path d="M 444.522192 289.86791 
L 473.821919 302.917401 
L 485.221184 289.306266 
L 455.977148 279.963026 
z
" clip-path="url(#p90d795a5de)" style="fill: #f0f921"/>
    <path d="M 403.701297 291.993884 
L 432.901302 302.575481 
L 444.522192 289.86791 
L 415.40533 282.774174 
z
" clip-path="url(#p90d795a5de)" style="fill: #f0f921"/>
    <path d="M 362.795595 296.125433 
L 391.847391 303.517482 
L 403.701297 291.993884 
L 374.756228 287.769577 
z
" clip-path="url(#p90d795a5de)" style="fill: #f0f724"/>
    <path d="M 321.876385 304.648255 
L 350.692703 306.339208 
L 362.795595 296.125433 
L 334.096453 296.972611 
z
" clip-path="url(#p90d795a5de)" style="fill: #f3ee27"/>
    <path d="M 432.901302 302.575481 
L 462.251975 319.696709 
L 473.821919 302.917401 
L 444.522192 289.86791 
z
" clip-path="url(#p90d795a5de)" style="fill: #f2f227"/>
    <path d="M 391.847391 303.517482 
L 421.129698 318.10339 
L 432.901302 302.575481 
L 403.701297 291.993884 
z
" clip-path="url(#p90d795a5de)" style="fill: #f1f525"/>
    <path d="M 350.692703 306.339208 
L 379.85592 317.384346 
L 391.847391 303.517482 
L 362.795595 296.125433 
z
" clip-path="url(#p90d795a5de)" style="fill: #f1f525"/>
    <path d="M 421.129698 318.10339 
L 450.530254 339.573152 
L 462.251975 319.696709 
L 432.901302 302.575481 
z
" clip-path="url(#p90d795a5de)" style="fill: #f6e826"/>
    <path d="M 379.85592 317.384346 
L 409.224402 336.286079 
L 421.129698 318.10339 
L 391.847391 303.517482 
z
" clip-path="url(#p90d795a5de)" style="fill: #f4ed27"/>
    <path d="M 409.224402 336.286079 
L 438.677255 362.337717 
L 450.530254 339.573152 
L 421.129698 318.10339 
z
" clip-path="url(#p90d795a5de)" style="fill: #fbd724"/>
   </g>
  </g>
 </g>
 <defs>
  <clipPath id="p90d795a5de">
   <rect x="90" y="63" width="558" height="558"/>
  </clipPath>
 </defs>
</svg>
