<?xml version="1.0" encoding="utf-8" standalone="no"?>
<!DOCTYPE svg PUBLIC "-//W3C//DTD SVG 1.1//EN"
  "http://www.w3.org/Graphics/SVG/1.1/DTD/svg11.dtd">
<svg xmlns:xlink="http://www.w3.org/1999/xlink" width="1057.877548pt" height="570.517729pt" viewBox="0 0 1057.877548 570.517729" xmlns="http://www.w3.org/2000/svg" version="1.1">
 <metadata>
  <rdf:RDF xmlns:dc="http://purl.org/dc/elements/1.1/" xmlns:cc="http://creativecommons.org/ns#" xmlns:rdf="http://www.w3.org/1999/02/22-rdf-syntax-ns#">
   <cc:Work>
    <dc:type rdf:resource="http://purl.org/dc/dcmitype/StillImage"/>
    <dc:date>2024-11-14T10:57:03.264155</dc:date>
    <dc:format>image/svg+xml</dc:format>
    <dc:creator>
     <cc:Agent>
      <dc:title>Matplotlib v3.9.2, https://matplotlib.org/</dc:title>
     </cc:Agent>
    </dc:creator>
   </cc:Work>
  </rdf:RDF>
 </metadata>
 <defs>
  <style type="text/css">*{stroke-linejoin: round; stroke-linecap: butt}</style>
 </defs>
 <g id="figure_1">
  <g id="patch_1">
   <path d="M 0 570.517729 
L 1057.877548 570.517729 
L 1057.877548 0 
L 0 0 
z
" style="fill: #ffffff"/>
  </g>
  <g id="axes_1">
   <g id="patch_2">
    <path d="M 83.541134 492.198498 
L 976.341134 492.198498 
L 976.341134 14.118498 
L 83.541134 14.118498 
z
" style="fill: #ffffff"/>
   </g>
   <g id="matplotlib.axis_1">
    <g id="xtick_1">
     <g id="line2d_1">
      <path d="M 124.122952 492.198498 
L 124.122952 14.118498 
" clip-path="url(#p58332904f0)" style="fill: none; stroke: #b0b0b0; stroke-width: 0.8; stroke-linecap: square"/>
     </g>
     <g id="line2d_2">
      <defs>
       <path id="m0bc18536c5" d="M 0 0 
L 0 3.5 
" style="stroke: #000000; stroke-width: 0.8"/>
      </defs>
      <g>
       <use xlink:href="#m0bc18536c5" x="124.122952" y="492.198498" style="stroke: #000000; stroke-width: 0.8"/>
      </g>
     </g>
     <g id="text_1">
      <!-- $\mathdefault{0}$ -->
      <g transform="translate(119.553905 514.535495) scale(0.2 -0.2)">
       <defs>
        <path id="CMR17-30" d="M 2688 2025 
C 2688 2416 2682 3080 2413 3591 
C 2176 4039 1798 4198 1466 4198 
C 1158 4198 768 4058 525 3597 
C 269 3118 243 2524 243 2025 
C 243 1661 250 1106 448 619 
C 723 -39 1216 -128 1466 -128 
C 1760 -128 2208 -7 2470 600 
C 2662 1042 2688 1559 2688 2025 
z
M 1466 -26 
C 1056 -26 813 325 723 812 
C 653 1188 653 1738 653 2096 
C 653 2588 653 2997 736 3387 
C 858 3929 1216 4096 1466 4096 
C 1728 4096 2067 3923 2189 3400 
C 2272 3036 2278 2607 2278 2096 
C 2278 1680 2278 1169 2202 792 
C 2067 95 1690 -26 1466 -26 
z
" transform="scale(0.015625)"/>
       </defs>
       <use xlink:href="#CMR17-30" transform="scale(0.996264)"/>
      </g>
     </g>
    </g>
    <g id="xtick_2">
     <g id="line2d_3">
      <path d="M 155.339735 492.198498 
L 155.339735 14.118498 
" clip-path="url(#p58332904f0)" style="fill: none; stroke: #b0b0b0; stroke-width: 0.8; stroke-linecap: square"/>
     </g>
     <g id="line2d_4">
      <g>
       <use xlink:href="#m0bc18536c5" x="155.339735" y="492.198498" style="stroke: #000000; stroke-width: 0.8"/>
      </g>
     </g>
     <g id="text_2">
      <!-- $\mathdefault{1}$ -->
      <g transform="translate(150.770688 514.535495) scale(0.2 -0.2)">
       <defs>
        <path id="CMR17-31" d="M 1702 4058 
C 1702 4192 1696 4192 1606 4192 
C 1357 3916 979 3827 621 3827 
C 602 3827 570 3827 563 3808 
C 557 3795 557 3782 557 3648 
C 755 3648 1088 3686 1344 3839 
L 1344 461 
C 1344 236 1331 160 781 160 
L 589 160 
L 589 0 
C 896 0 1216 0 1523 0 
C 1830 0 2150 0 2458 0 
L 2458 160 
L 2266 160 
C 1715 160 1702 230 1702 458 
L 1702 4058 
z
" transform="scale(0.015625)"/>
       </defs>
       <use xlink:href="#CMR17-31" transform="scale(0.996264)"/>
      </g>
     </g>
    </g>
    <g id="xtick_3">
     <g id="line2d_5">
      <path d="M 186.556519 492.198498 
L 186.556519 14.118498 
" clip-path="url(#p58332904f0)" style="fill: none; stroke: #b0b0b0; stroke-width: 0.8; stroke-linecap: square"/>
     </g>
     <g id="line2d_6">
      <g>
       <use xlink:href="#m0bc18536c5" x="186.556519" y="492.198498" style="stroke: #000000; stroke-width: 0.8"/>
      </g>
     </g>
     <g id="text_3">
      <!-- $\mathdefault{2}$ -->
      <g transform="translate(181.987471 514.535495) scale(0.2 -0.2)">
       <defs>
        <path id="CMR17-32" d="M 2669 989 
L 2554 989 
C 2490 536 2438 459 2413 420 
C 2381 369 1920 369 1830 369 
L 602 369 
C 832 619 1280 1072 1824 1597 
C 2214 1967 2669 2402 2669 3035 
C 2669 3790 2067 4224 1395 4224 
C 691 4224 262 3604 262 3030 
C 262 2780 448 2748 525 2748 
C 589 2748 781 2787 781 3010 
C 781 3207 614 3264 525 3264 
C 486 3264 448 3258 422 3245 
C 544 3790 915 4058 1306 4058 
C 1862 4058 2227 3617 2227 3035 
C 2227 2479 1901 2000 1536 1584 
L 262 146 
L 262 0 
L 2515 0 
L 2669 989 
z
" transform="scale(0.015625)"/>
       </defs>
       <use xlink:href="#CMR17-32" transform="scale(0.996264)"/>
      </g>
     </g>
    </g>
    <g id="xtick_4">
     <g id="line2d_7">
      <path d="M 217.773302 492.198498 
L 217.773302 14.118498 
" clip-path="url(#p58332904f0)" style="fill: none; stroke: #b0b0b0; stroke-width: 0.8; stroke-linecap: square"/>
     </g>
     <g id="line2d_8">
      <g>
       <use xlink:href="#m0bc18536c5" x="217.773302" y="492.198498" style="stroke: #000000; stroke-width: 0.8"/>
      </g>
     </g>
     <g id="text_4">
      <!-- $\mathdefault{3}$ -->
      <g transform="translate(213.204254 514.535495) scale(0.2 -0.2)">
       <defs>
        <path id="CMR17-33" d="M 1414 2157 
C 1984 2157 2234 1662 2234 1090 
C 2234 320 1824 25 1453 25 
C 1114 25 563 194 390 693 
C 422 680 454 680 486 680 
C 640 680 755 782 755 948 
C 755 1133 614 1216 486 1216 
C 378 1216 211 1165 211 926 
C 211 335 787 -128 1466 -128 
C 2176 -128 2720 430 2720 1085 
C 2720 1707 2208 2157 1600 2227 
C 2086 2328 2554 2756 2554 3329 
C 2554 3820 2048 4179 1472 4179 
C 890 4179 378 3829 378 3329 
C 378 3110 544 3072 627 3072 
C 762 3072 877 3155 877 3321 
C 877 3486 762 3569 627 3569 
C 602 3569 570 3569 544 3557 
C 730 3959 1235 4032 1459 4032 
C 1683 4032 2106 3925 2106 3320 
C 2106 3143 2080 2828 1862 2550 
C 1670 2304 1453 2304 1242 2284 
C 1210 2284 1062 2269 1037 2269 
C 992 2263 966 2257 966 2208 
C 966 2163 973 2157 1101 2157 
L 1414 2157 
z
" transform="scale(0.015625)"/>
       </defs>
       <use xlink:href="#CMR17-33" transform="scale(0.996264)"/>
      </g>
     </g>
    </g>
    <g id="xtick_5">
     <g id="line2d_9">
      <path d="M 248.990085 492.198498 
L 248.990085 14.118498 
" clip-path="url(#p58332904f0)" style="fill: none; stroke: #b0b0b0; stroke-width: 0.8; stroke-linecap: square"/>
     </g>
     <g id="line2d_10">
      <g>
       <use xlink:href="#m0bc18536c5" x="248.990085" y="492.198498" style="stroke: #000000; stroke-width: 0.8"/>
      </g>
     </g>
     <g id="text_5">
      <!-- $\mathdefault{4}$ -->
      <g transform="translate(244.421037 514.535495) scale(0.2 -0.2)">
       <defs>
        <path id="CMR17-34" d="M 2150 4122 
C 2150 4256 2144 4256 2029 4256 
L 128 1254 
L 128 1088 
L 1779 1088 
L 1779 457 
C 1779 224 1766 160 1318 160 
L 1197 160 
L 1197 0 
C 1402 0 1747 0 1965 0 
C 2182 0 2528 0 2733 0 
L 2733 160 
L 2611 160 
C 2163 160 2150 224 2150 457 
L 2150 1088 
L 2803 1088 
L 2803 1254 
L 2150 1254 
L 2150 4122 
z
M 1798 3703 
L 1798 1254 
L 256 1254 
L 1798 3703 
z
" transform="scale(0.015625)"/>
       </defs>
       <use xlink:href="#CMR17-34" transform="scale(0.996264)"/>
      </g>
     </g>
    </g>
    <g id="xtick_6">
     <g id="line2d_11">
      <path d="M 280.206868 492.198498 
L 280.206868 14.118498 
" clip-path="url(#p58332904f0)" style="fill: none; stroke: #b0b0b0; stroke-width: 0.8; stroke-linecap: square"/>
     </g>
     <g id="line2d_12">
      <g>
       <use xlink:href="#m0bc18536c5" x="280.206868" y="492.198498" style="stroke: #000000; stroke-width: 0.8"/>
      </g>
     </g>
     <g id="text_6">
      <!-- $\mathdefault{5}$ -->
      <g transform="translate(275.637821 514.535495) scale(0.2 -0.2)">
       <defs>
        <path id="CMR17-35" d="M 730 3692 
C 794 3666 1056 3584 1325 3584 
C 1920 3584 2246 3911 2432 4100 
C 2432 4157 2432 4192 2394 4192 
C 2387 4192 2374 4192 2323 4163 
C 2099 4058 1837 3973 1517 3973 
C 1325 3973 1037 3999 723 4139 
C 653 4171 640 4171 634 4171 
C 602 4171 595 4164 595 4037 
L 595 2203 
C 595 2089 595 2057 659 2057 
C 691 2057 704 2070 736 2114 
C 941 2401 1222 2522 1542 2522 
C 1766 2522 2246 2382 2246 1289 
C 2246 1085 2246 715 2054 421 
C 1894 159 1645 25 1370 25 
C 947 25 518 320 403 814 
C 429 807 480 795 506 795 
C 589 795 749 840 749 1038 
C 749 1210 627 1280 506 1280 
C 358 1280 262 1190 262 1011 
C 262 454 704 -128 1382 -128 
C 2042 -128 2669 440 2669 1264 
C 2669 2030 2170 2624 1549 2624 
C 1222 2624 947 2503 730 2274 
L 730 3692 
z
" transform="scale(0.015625)"/>
       </defs>
       <use xlink:href="#CMR17-35" transform="scale(0.996264)"/>
      </g>
     </g>
    </g>
    <g id="xtick_7">
     <g id="line2d_13">
      <path d="M 311.423652 492.198498 
L 311.423652 14.118498 
" clip-path="url(#p58332904f0)" style="fill: none; stroke: #b0b0b0; stroke-width: 0.8; stroke-linecap: square"/>
     </g>
     <g id="line2d_14">
      <g>
       <use xlink:href="#m0bc18536c5" x="311.423652" y="492.198498" style="stroke: #000000; stroke-width: 0.8"/>
      </g>
     </g>
     <g id="text_7">
      <!-- $\mathdefault{6}$ -->
      <g transform="translate(306.854604 514.535495) scale(0.2 -0.2)">
       <defs>
        <path id="CMR17-36" d="M 678 2176 
C 678 3690 1395 4032 1811 4032 
C 1946 4032 2272 4009 2400 3776 
C 2298 3776 2106 3776 2106 3553 
C 2106 3381 2246 3323 2336 3323 
C 2394 3323 2566 3348 2566 3560 
C 2566 3954 2246 4179 1805 4179 
C 1043 4179 243 3390 243 1984 
C 243 253 966 -128 1478 -128 
C 2099 -128 2688 427 2688 1283 
C 2688 2081 2170 2662 1517 2662 
C 1126 2662 838 2407 678 1960 
L 678 2176 
z
M 1478 25 
C 691 25 691 1200 691 1436 
C 691 1896 909 2560 1504 2560 
C 1613 2560 1926 2560 2138 2120 
C 2253 1870 2253 1609 2253 1289 
C 2253 944 2253 690 2118 434 
C 1978 171 1773 25 1478 25 
z
" transform="scale(0.015625)"/>
       </defs>
       <use xlink:href="#CMR17-36" transform="scale(0.996264)"/>
      </g>
     </g>
    </g>
    <g id="xtick_8">
     <g id="line2d_15">
      <path d="M 342.640435 492.198498 
L 342.640435 14.118498 
" clip-path="url(#p58332904f0)" style="fill: none; stroke: #b0b0b0; stroke-width: 0.8; stroke-linecap: square"/>
     </g>
     <g id="line2d_16">
      <g>
       <use xlink:href="#m0bc18536c5" x="342.640435" y="492.198498" style="stroke: #000000; stroke-width: 0.8"/>
      </g>
     </g>
     <g id="text_8">
      <!-- $\mathdefault{7}$ -->
      <g transform="translate(338.071387 514.535495) scale(0.2 -0.2)">
       <defs>
        <path id="CMR17-37" d="M 2886 3941 
L 2886 4081 
L 1382 4081 
C 634 4081 621 4165 595 4288 
L 480 4288 
L 294 3094 
L 410 3094 
C 429 3215 474 3540 550 3661 
C 589 3712 1062 3712 1171 3712 
L 2579 3712 
L 1869 2661 
C 1395 1954 1069 999 1069 165 
C 1069 89 1069 -128 1299 -128 
C 1530 -128 1530 89 1530 171 
L 1530 465 
C 1530 1508 1709 2196 2003 2636 
L 2886 3941 
z
" transform="scale(0.015625)"/>
       </defs>
       <use xlink:href="#CMR17-37" transform="scale(0.996264)"/>
      </g>
     </g>
    </g>
    <g id="xtick_9">
     <g id="line2d_17">
      <path d="M 373.857218 492.198498 
L 373.857218 14.118498 
" clip-path="url(#p58332904f0)" style="fill: none; stroke: #b0b0b0; stroke-width: 0.8; stroke-linecap: square"/>
     </g>
     <g id="line2d_18">
      <g>
       <use xlink:href="#m0bc18536c5" x="373.857218" y="492.198498" style="stroke: #000000; stroke-width: 0.8"/>
      </g>
     </g>
     <g id="text_9">
      <!-- $\mathdefault{8}$ -->
      <g transform="translate(369.28817 514.535495) scale(0.2 -0.2)">
       <defs>
        <path id="CMR17-38" d="M 1741 2264 
C 2144 2467 2554 2773 2554 3263 
C 2554 3841 1990 4179 1472 4179 
C 890 4179 378 3759 378 3180 
C 378 3021 416 2747 666 2505 
C 730 2442 998 2251 1171 2130 
C 883 1983 211 1634 211 934 
C 211 279 838 -128 1459 -128 
C 2144 -128 2720 362 2720 1010 
C 2720 1590 2330 1857 2074 2029 
L 1741 2264 
z
M 902 2822 
C 851 2854 595 3051 595 3351 
C 595 3739 998 4032 1459 4032 
C 1965 4032 2336 3676 2336 3262 
C 2336 2669 1670 2331 1638 2331 
C 1632 2331 1626 2331 1574 2370 
L 902 2822 
z
M 2080 1519 
C 2176 1449 2483 1240 2483 851 
C 2483 381 2010 25 1472 25 
C 890 25 448 438 448 940 
C 448 1443 838 1862 1280 2060 
L 2080 1519 
z
" transform="scale(0.015625)"/>
       </defs>
       <use xlink:href="#CMR17-38" transform="scale(0.996264)"/>
      </g>
     </g>
    </g>
    <g id="xtick_10">
     <g id="line2d_19">
      <path d="M 405.074001 492.198498 
L 405.074001 14.118498 
" clip-path="url(#p58332904f0)" style="fill: none; stroke: #b0b0b0; stroke-width: 0.8; stroke-linecap: square"/>
     </g>
     <g id="line2d_20">
      <g>
       <use xlink:href="#m0bc18536c5" x="405.074001" y="492.198498" style="stroke: #000000; stroke-width: 0.8"/>
      </g>
     </g>
     <g id="text_10">
      <!-- $\mathdefault{9}$ -->
      <g transform="translate(400.504953 514.535495) scale(0.2 -0.2)">
       <defs>
        <path id="CMR17-39" d="M 2253 1864 
C 2253 464 1670 31 1190 31 
C 1043 31 685 31 538 294 
C 704 268 826 357 826 518 
C 826 692 685 749 595 749 
C 538 749 365 723 365 506 
C 365 71 742 -128 1203 -128 
C 1939 -128 2688 674 2688 2073 
C 2688 3817 1971 4179 1485 4179 
C 851 4179 243 3628 243 2778 
C 243 1991 762 1408 1414 1408 
C 1952 1408 2189 1903 2253 2112 
L 2253 1864 
z
M 1427 1510 
C 1254 1510 1011 1542 813 1922 
C 678 2169 678 2461 678 2771 
C 678 3146 678 3405 858 3684 
C 947 3817 1114 4032 1485 4032 
C 2240 4032 2240 2885 2240 2632 
C 2240 2182 2035 1510 1427 1510 
z
" transform="scale(0.015625)"/>
       </defs>
       <use xlink:href="#CMR17-39" transform="scale(0.996264)"/>
      </g>
     </g>
    </g>
    <g id="xtick_11">
     <g id="line2d_21">
      <path d="M 436.290784 492.198498 
L 436.290784 14.118498 
" clip-path="url(#p58332904f0)" style="fill: none; stroke: #b0b0b0; stroke-width: 0.8; stroke-linecap: square"/>
     </g>
     <g id="line2d_22">
      <g>
       <use xlink:href="#m0bc18536c5" x="436.290784" y="492.198498" style="stroke: #000000; stroke-width: 0.8"/>
      </g>
     </g>
     <g id="text_11">
      <!-- $\mathdefault{10}$ -->
      <g transform="translate(427.152689 514.535495) scale(0.2 -0.2)">
       <use xlink:href="#CMR17-31" transform="scale(0.996264)"/>
       <use xlink:href="#CMR17-30" transform="translate(45.690477 0) scale(0.996264)"/>
      </g>
     </g>
    </g>
    <g id="xtick_12">
     <g id="line2d_23">
      <path d="M 467.507568 492.198498 
L 467.507568 14.118498 
" clip-path="url(#p58332904f0)" style="fill: none; stroke: #b0b0b0; stroke-width: 0.8; stroke-linecap: square"/>
     </g>
     <g id="line2d_24">
      <g>
       <use xlink:href="#m0bc18536c5" x="467.507568" y="492.198498" style="stroke: #000000; stroke-width: 0.8"/>
      </g>
     </g>
     <g id="text_12">
      <!-- $\mathdefault{11}$ -->
      <g transform="translate(458.369472 514.535495) scale(0.2 -0.2)">
       <use xlink:href="#CMR17-31" transform="scale(0.996264)"/>
       <use xlink:href="#CMR17-31" transform="translate(45.690477 0) scale(0.996264)"/>
      </g>
     </g>
    </g>
    <g id="xtick_13">
     <g id="line2d_25">
      <path d="M 498.724351 492.198498 
L 498.724351 14.118498 
" clip-path="url(#p58332904f0)" style="fill: none; stroke: #b0b0b0; stroke-width: 0.8; stroke-linecap: square"/>
     </g>
     <g id="line2d_26">
      <g>
       <use xlink:href="#m0bc18536c5" x="498.724351" y="492.198498" style="stroke: #000000; stroke-width: 0.8"/>
      </g>
     </g>
     <g id="text_13">
      <!-- $\mathdefault{12}$ -->
      <g transform="translate(489.586255 514.535495) scale(0.2 -0.2)">
       <use xlink:href="#CMR17-31" transform="scale(0.996264)"/>
       <use xlink:href="#CMR17-32" transform="translate(45.690477 0) scale(0.996264)"/>
      </g>
     </g>
    </g>
    <g id="xtick_14">
     <g id="line2d_27">
      <path d="M 529.941134 492.198498 
L 529.941134 14.118498 
" clip-path="url(#p58332904f0)" style="fill: none; stroke: #b0b0b0; stroke-width: 0.8; stroke-linecap: square"/>
     </g>
     <g id="line2d_28">
      <g>
       <use xlink:href="#m0bc18536c5" x="529.941134" y="492.198498" style="stroke: #000000; stroke-width: 0.8"/>
      </g>
     </g>
     <g id="text_14">
      <!-- $\mathdefault{13}$ -->
      <g transform="translate(520.803039 514.535495) scale(0.2 -0.2)">
       <use xlink:href="#CMR17-31" transform="scale(0.996264)"/>
       <use xlink:href="#CMR17-33" transform="translate(45.690477 0) scale(0.996264)"/>
      </g>
     </g>
    </g>
    <g id="xtick_15">
     <g id="line2d_29">
      <path d="M 561.157917 492.198498 
L 561.157917 14.118498 
" clip-path="url(#p58332904f0)" style="fill: none; stroke: #b0b0b0; stroke-width: 0.8; stroke-linecap: square"/>
     </g>
     <g id="line2d_30">
      <g>
       <use xlink:href="#m0bc18536c5" x="561.157917" y="492.198498" style="stroke: #000000; stroke-width: 0.8"/>
      </g>
     </g>
     <g id="text_15">
      <!-- $\mathdefault{14}$ -->
      <g transform="translate(552.019822 514.535495) scale(0.2 -0.2)">
       <use xlink:href="#CMR17-31" transform="scale(0.996264)"/>
       <use xlink:href="#CMR17-34" transform="translate(45.690477 0) scale(0.996264)"/>
      </g>
     </g>
    </g>
    <g id="xtick_16">
     <g id="line2d_31">
      <path d="M 592.374701 492.198498 
L 592.374701 14.118498 
" clip-path="url(#p58332904f0)" style="fill: none; stroke: #b0b0b0; stroke-width: 0.8; stroke-linecap: square"/>
     </g>
     <g id="line2d_32">
      <g>
       <use xlink:href="#m0bc18536c5" x="592.374701" y="492.198498" style="stroke: #000000; stroke-width: 0.8"/>
      </g>
     </g>
     <g id="text_16">
      <!-- $\mathdefault{15}$ -->
      <g transform="translate(583.236605 514.535495) scale(0.2 -0.2)">
       <use xlink:href="#CMR17-31" transform="scale(0.996264)"/>
       <use xlink:href="#CMR17-35" transform="translate(45.690477 0) scale(0.996264)"/>
      </g>
     </g>
    </g>
    <g id="xtick_17">
     <g id="line2d_33">
      <path d="M 623.591484 492.198498 
L 623.591484 14.118498 
" clip-path="url(#p58332904f0)" style="fill: none; stroke: #b0b0b0; stroke-width: 0.8; stroke-linecap: square"/>
     </g>
     <g id="line2d_34">
      <g>
       <use xlink:href="#m0bc18536c5" x="623.591484" y="492.198498" style="stroke: #000000; stroke-width: 0.8"/>
      </g>
     </g>
     <g id="text_17">
      <!-- $\mathdefault{16}$ -->
      <g transform="translate(614.453388 514.535495) scale(0.2 -0.2)">
       <use xlink:href="#CMR17-31" transform="scale(0.996264)"/>
       <use xlink:href="#CMR17-36" transform="translate(45.690477 0) scale(0.996264)"/>
      </g>
     </g>
    </g>
    <g id="xtick_18">
     <g id="line2d_35">
      <path d="M 654.808267 492.198498 
L 654.808267 14.118498 
" clip-path="url(#p58332904f0)" style="fill: none; stroke: #b0b0b0; stroke-width: 0.8; stroke-linecap: square"/>
     </g>
     <g id="line2d_36">
      <g>
       <use xlink:href="#m0bc18536c5" x="654.808267" y="492.198498" style="stroke: #000000; stroke-width: 0.8"/>
      </g>
     </g>
     <g id="text_18">
      <!-- $\mathdefault{17}$ -->
      <g transform="translate(645.670172 514.535495) scale(0.2 -0.2)">
       <use xlink:href="#CMR17-31" transform="scale(0.996264)"/>
       <use xlink:href="#CMR17-37" transform="translate(45.690477 0) scale(0.996264)"/>
      </g>
     </g>
    </g>
    <g id="xtick_19">
     <g id="line2d_37">
      <path d="M 686.02505 492.198498 
L 686.02505 14.118498 
" clip-path="url(#p58332904f0)" style="fill: none; stroke: #b0b0b0; stroke-width: 0.8; stroke-linecap: square"/>
     </g>
     <g id="line2d_38">
      <g>
       <use xlink:href="#m0bc18536c5" x="686.02505" y="492.198498" style="stroke: #000000; stroke-width: 0.8"/>
      </g>
     </g>
     <g id="text_19">
      <!-- $\mathdefault{18}$ -->
      <g transform="translate(676.886955 514.535495) scale(0.2 -0.2)">
       <use xlink:href="#CMR17-31" transform="scale(0.996264)"/>
       <use xlink:href="#CMR17-38" transform="translate(45.690477 0) scale(0.996264)"/>
      </g>
     </g>
    </g>
    <g id="xtick_20">
     <g id="line2d_39">
      <path d="M 717.241833 492.198498 
L 717.241833 14.118498 
" clip-path="url(#p58332904f0)" style="fill: none; stroke: #b0b0b0; stroke-width: 0.8; stroke-linecap: square"/>
     </g>
     <g id="line2d_40">
      <g>
       <use xlink:href="#m0bc18536c5" x="717.241833" y="492.198498" style="stroke: #000000; stroke-width: 0.8"/>
      </g>
     </g>
     <g id="text_20">
      <!-- $\mathdefault{19}$ -->
      <g transform="translate(708.103738 514.535495) scale(0.2 -0.2)">
       <use xlink:href="#CMR17-31" transform="scale(0.996264)"/>
       <use xlink:href="#CMR17-39" transform="translate(45.690477 0) scale(0.996264)"/>
      </g>
     </g>
    </g>
    <g id="xtick_21">
     <g id="line2d_41">
      <path d="M 748.458617 492.198498 
L 748.458617 14.118498 
" clip-path="url(#p58332904f0)" style="fill: none; stroke: #b0b0b0; stroke-width: 0.8; stroke-linecap: square"/>
     </g>
     <g id="line2d_42">
      <g>
       <use xlink:href="#m0bc18536c5" x="748.458617" y="492.198498" style="stroke: #000000; stroke-width: 0.8"/>
      </g>
     </g>
     <g id="text_21">
      <!-- $\mathdefault{20}$ -->
      <g transform="translate(739.320521 514.535495) scale(0.2 -0.2)">
       <use xlink:href="#CMR17-32" transform="scale(0.996264)"/>
       <use xlink:href="#CMR17-30" transform="translate(45.690477 0) scale(0.996264)"/>
      </g>
     </g>
    </g>
    <g id="xtick_22">
     <g id="line2d_43">
      <path d="M 779.6754 492.198498 
L 779.6754 14.118498 
" clip-path="url(#p58332904f0)" style="fill: none; stroke: #b0b0b0; stroke-width: 0.8; stroke-linecap: square"/>
     </g>
     <g id="line2d_44">
      <g>
       <use xlink:href="#m0bc18536c5" x="779.6754" y="492.198498" style="stroke: #000000; stroke-width: 0.8"/>
      </g>
     </g>
     <g id="text_22">
      <!-- $\mathdefault{21}$ -->
      <g transform="translate(770.537304 514.535495) scale(0.2 -0.2)">
       <use xlink:href="#CMR17-32" transform="scale(0.996264)"/>
       <use xlink:href="#CMR17-31" transform="translate(45.690477 0) scale(0.996264)"/>
      </g>
     </g>
    </g>
    <g id="xtick_23">
     <g id="line2d_45">
      <path d="M 810.892183 492.198498 
L 810.892183 14.118498 
" clip-path="url(#p58332904f0)" style="fill: none; stroke: #b0b0b0; stroke-width: 0.8; stroke-linecap: square"/>
     </g>
     <g id="line2d_46">
      <g>
       <use xlink:href="#m0bc18536c5" x="810.892183" y="492.198498" style="stroke: #000000; stroke-width: 0.8"/>
      </g>
     </g>
     <g id="text_23">
      <!-- $\mathdefault{22}$ -->
      <g transform="translate(801.754088 514.535495) scale(0.2 -0.2)">
       <use xlink:href="#CMR17-32" transform="scale(0.996264)"/>
       <use xlink:href="#CMR17-32" transform="translate(45.690477 0) scale(0.996264)"/>
      </g>
     </g>
    </g>
    <g id="xtick_24">
     <g id="line2d_47">
      <path d="M 842.108966 492.198498 
L 842.108966 14.118498 
" clip-path="url(#p58332904f0)" style="fill: none; stroke: #b0b0b0; stroke-width: 0.8; stroke-linecap: square"/>
     </g>
     <g id="line2d_48">
      <g>
       <use xlink:href="#m0bc18536c5" x="842.108966" y="492.198498" style="stroke: #000000; stroke-width: 0.8"/>
      </g>
     </g>
     <g id="text_24">
      <!-- $\mathdefault{23}$ -->
      <g transform="translate(832.970871 514.535495) scale(0.2 -0.2)">
       <use xlink:href="#CMR17-32" transform="scale(0.996264)"/>
       <use xlink:href="#CMR17-33" transform="translate(45.690477 0) scale(0.996264)"/>
      </g>
     </g>
    </g>
    <g id="xtick_25">
     <g id="line2d_49">
      <path d="M 873.325749 492.198498 
L 873.325749 14.118498 
" clip-path="url(#p58332904f0)" style="fill: none; stroke: #b0b0b0; stroke-width: 0.8; stroke-linecap: square"/>
     </g>
     <g id="line2d_50">
      <g>
       <use xlink:href="#m0bc18536c5" x="873.325749" y="492.198498" style="stroke: #000000; stroke-width: 0.8"/>
      </g>
     </g>
     <g id="text_25">
      <!-- $\mathdefault{24}$ -->
      <g transform="translate(864.187654 514.535495) scale(0.2 -0.2)">
       <use xlink:href="#CMR17-32" transform="scale(0.996264)"/>
       <use xlink:href="#CMR17-34" transform="translate(45.690477 0) scale(0.996264)"/>
      </g>
     </g>
    </g>
    <g id="xtick_26">
     <g id="line2d_51">
      <path d="M 904.542533 492.198498 
L 904.542533 14.118498 
" clip-path="url(#p58332904f0)" style="fill: none; stroke: #b0b0b0; stroke-width: 0.8; stroke-linecap: square"/>
     </g>
     <g id="line2d_52">
      <g>
       <use xlink:href="#m0bc18536c5" x="904.542533" y="492.198498" style="stroke: #000000; stroke-width: 0.8"/>
      </g>
     </g>
     <g id="text_26">
      <!-- $\mathdefault{25}$ -->
      <g transform="translate(895.404437 514.535495) scale(0.2 -0.2)">
       <use xlink:href="#CMR17-32" transform="scale(0.996264)"/>
       <use xlink:href="#CMR17-35" transform="translate(45.690477 0) scale(0.996264)"/>
      </g>
     </g>
    </g>
    <g id="xtick_27">
     <g id="line2d_53">
      <path d="M 935.759316 492.198498 
L 935.759316 14.118498 
" clip-path="url(#p58332904f0)" style="fill: none; stroke: #b0b0b0; stroke-width: 0.8; stroke-linecap: square"/>
     </g>
     <g id="line2d_54">
      <g>
       <use xlink:href="#m0bc18536c5" x="935.759316" y="492.198498" style="stroke: #000000; stroke-width: 0.8"/>
      </g>
     </g>
     <g id="text_27">
      <!-- $\mathdefault{26}$ -->
      <g transform="translate(926.62122 514.535495) scale(0.2 -0.2)">
       <use xlink:href="#CMR17-32" transform="scale(0.996264)"/>
       <use xlink:href="#CMR17-36" transform="translate(45.690477 0) scale(0.996264)"/>
      </g>
     </g>
    </g>
    <g id="text_28">
     <!-- $V_0\:\unit{[\m/\s]}$ -->
     <g transform="translate(489.413357 557.091079) scale(0.25 -0.25)">
      <defs>
       <path id="CMMI12-56" d="M 3962 3640 
C 4179 3984 4378 4136 4704 4162 
C 4768 4168 4819 4168 4819 4282 
C 4819 4308 4806 4346 4749 4346 
C 4634 4346 4358 4346 4243 4346 
C 4058 4346 3866 4346 3686 4346 
C 3635 4346 3571 4346 3571 4226 
C 3571 4168 3629 4162 3654 4162 
C 3891 4143 3917 4029 3917 3952 
C 3917 3857 3827 3710 3821 3704 
L 1811 540 
L 1363 3969 
C 1363 4160 1696 4160 1766 4160 
C 1862 4160 1920 4160 1920 4282 
C 1920 4346 1850 4346 1830 4346 
C 1722 4346 1594 4346 1485 4346 
L 1126 4346 
C 659 4346 467 4346 461 4346 
C 422 4346 346 4346 346 4230 
C 346 4160 390 4160 493 4160 
C 819 4160 838 4102 858 3944 
L 1370 24 
C 1389 -109 1389 -128 1478 -128 
C 1555 -128 1587 -109 1651 -8 
L 3962 3640 
z
" transform="scale(0.015625)"/>
       <path id="CMR17-5b" d="M 1504 -1600 
L 1504 -1377 
L 902 -1377 
L 902 4544 
L 1504 4544 
L 1504 4767 
L 678 4767 
L 678 -1600 
L 1504 -1600 
z
" transform="scale(0.015625)"/>
       <path id="CMR17-6d" d="M 4326 1933 
C 4326 2252 4269 2790 3507 2790 
C 3072 2790 2771 2496 2656 2151 
L 2650 2151 
C 2573 2676 2195 2790 1837 2790 
C 1331 2790 1069 2400 973 2144 
L 966 2144 
L 966 2790 
L 211 2720 
L 211 2554 
C 589 2554 646 2515 646 2208 
L 646 428 
C 646 184 621 153 211 153 
L 211 -13 
C 365 0 646 0 813 0 
C 979 0 1267 0 1421 -13 
L 1421 153 
C 1011 153 986 178 986 428 
L 986 1658 
C 986 2247 1344 2688 1792 2688 
C 2266 2688 2317 2266 2317 1958 
L 2317 428 
C 2317 184 2291 153 1882 153 
L 1882 -13 
C 2035 0 2317 0 2483 0 
C 2650 0 2938 0 3091 -13 
L 3091 153 
C 2682 153 2656 178 2656 428 
L 2656 1658 
C 2656 2247 3014 2688 3462 2688 
C 3936 2688 3987 2266 3987 1958 
L 3987 428 
C 3987 184 3962 153 3552 153 
L 3552 -13 
C 3706 0 3987 0 4154 0 
C 4320 0 4608 0 4762 -13 
L 4762 153 
C 4352 153 4326 178 4326 428 
L 4326 1933 
z
" transform="scale(0.015625)"/>
       <path id="CMMI12-3d" d="M 2746 4562 
C 2746 4569 2784 4666 2784 4678 
C 2784 4755 2720 4800 2669 4800 
C 2637 4800 2579 4800 2528 4659 
L 384 -1363 
C 384 -1370 346 -1465 346 -1478 
C 346 -1555 410 -1600 461 -1600 
C 499 -1600 557 -1593 602 -1459 
L 2746 4562 
z
" transform="scale(0.015625)"/>
       <path id="CMR17-73" d="M 1978 2697 
C 1978 2813 1971 2819 1933 2819 
C 1907 2819 1901 2813 1824 2717 
C 1805 2691 1747 2626 1728 2601 
C 1523 2819 1235 2819 1126 2819 
C 416 2819 160 2447 160 2076 
C 160 1498 813 1365 998 1325 
C 1402 1243 1542 1217 1677 1101 
C 1760 1025 1901 884 1901 654 
C 1901 384 1747 38 1158 38 
C 602 38 403 460 288 1021 
C 269 1110 269 1117 218 1117 
C 166 1117 160 1110 160 983 
L 160 63 
C 160 -51 166 -58 205 -58 
C 237 -58 243 -51 275 0 
C 314 57 410 211 448 276 
C 576 103 800 -64 1158 -64 
C 1792 -64 2131 283 2131 784 
C 2131 1112 1958 1285 1875 1362 
C 1683 1561 1459 1606 1190 1657 
C 838 1735 390 1825 390 2217 
C 390 2383 480 2737 1126 2737 
C 1811 2737 1850 2094 1862 1888 
C 1869 1856 1901 1849 1920 1849 
C 1978 1849 1978 1869 1978 1978 
L 1978 2697 
z
" transform="scale(0.015625)"/>
       <path id="CMR17-5d" d="M 915 4767 
L 90 4767 
L 90 4544 
L 691 4544 
L 691 -1377 
L 90 -1377 
L 90 -1600 
L 915 -1600 
L 915 4767 
z
" transform="scale(0.015625)"/>
      </defs>
      <use xlink:href="#CMMI12-56" transform="scale(0.996264)"/>
      <use xlink:href="#CMR17-30" transform="translate(56.869579 -14.943915) scale(0.697382)"/>
      <use xlink:href="#CMR17-5b" transform="translate(111.4901 0) scale(0.996264)"/>
      <use xlink:href="#CMR17-6d" transform="translate(136.361158 0) scale(0.996264)"/>
      <use xlink:href="#CMMI12-3d" transform="translate(213.280748 0) scale(0.996264)"/>
      <use xlink:href="#CMR17-73" transform="translate(262.055667 0) scale(0.996264)"/>
      <use xlink:href="#CMR17-5d" transform="translate(297.857005 0) scale(0.996264)"/>
     </g>
    </g>
   </g>
   <g id="matplotlib.axis_2">
    <g id="ytick_1">
     <g id="line2d_55">
      <path d="M 83.541134 469.432784 
L 976.341134 469.432784 
" clip-path="url(#p58332904f0)" style="fill: none; stroke: #b0b0b0; stroke-width: 0.8; stroke-linecap: square"/>
     </g>
     <g id="line2d_56">
      <defs>
       <path id="m451de0dd8e" d="M 0 0 
L -3.5 0 
" style="stroke: #000000; stroke-width: 0.8"/>
      </defs>
      <g>
       <use xlink:href="#m451de0dd8e" x="83.541134" y="469.432784" style="stroke: #000000; stroke-width: 0.8"/>
      </g>
     </g>
     <g id="text_29">
      <!-- $\mathdefault{0.0}$ -->
      <g transform="translate(51.345508 476.351282) scale(0.2 -0.2)">
       <defs>
        <path id="CMMI12-3a" d="M 1178 307 
C 1178 492 1024 619 870 619 
C 685 619 557 466 557 313 
C 557 128 710 0 864 0 
C 1050 0 1178 153 1178 307 
z
" transform="scale(0.015625)"/>
       </defs>
       <use xlink:href="#CMR17-30" transform="scale(0.996264)"/>
       <use xlink:href="#CMMI12-3a" transform="translate(45.690477 0) scale(0.996264)"/>
       <use xlink:href="#CMR17-30" transform="translate(72.787654 0) scale(0.996264)"/>
      </g>
     </g>
    </g>
    <g id="ytick_2">
     <g id="line2d_57">
      <path d="M 83.541134 423.901356 
L 976.341134 423.901356 
" clip-path="url(#p58332904f0)" style="fill: none; stroke: #b0b0b0; stroke-width: 0.8; stroke-linecap: square"/>
     </g>
     <g id="line2d_58">
      <g>
       <use xlink:href="#m451de0dd8e" x="83.541134" y="423.901356" style="stroke: #000000; stroke-width: 0.8"/>
      </g>
     </g>
     <g id="text_30">
      <!-- $\mathdefault{0.1}$ -->
      <g transform="translate(51.345508 430.819854) scale(0.2 -0.2)">
       <use xlink:href="#CMR17-30" transform="scale(0.996264)"/>
       <use xlink:href="#CMMI12-3a" transform="translate(45.690477 0) scale(0.996264)"/>
       <use xlink:href="#CMR17-31" transform="translate(72.787654 0) scale(0.996264)"/>
      </g>
     </g>
    </g>
    <g id="ytick_3">
     <g id="line2d_59">
      <path d="M 83.541134 378.369927 
L 976.341134 378.369927 
" clip-path="url(#p58332904f0)" style="fill: none; stroke: #b0b0b0; stroke-width: 0.8; stroke-linecap: square"/>
     </g>
     <g id="line2d_60">
      <g>
       <use xlink:href="#m451de0dd8e" x="83.541134" y="378.369927" style="stroke: #000000; stroke-width: 0.8"/>
      </g>
     </g>
     <g id="text_31">
      <!-- $\mathdefault{0.2}$ -->
      <g transform="translate(51.345508 385.288425) scale(0.2 -0.2)">
       <use xlink:href="#CMR17-30" transform="scale(0.996264)"/>
       <use xlink:href="#CMMI12-3a" transform="translate(45.690477 0) scale(0.996264)"/>
       <use xlink:href="#CMR17-32" transform="translate(72.787654 0) scale(0.996264)"/>
      </g>
     </g>
    </g>
    <g id="ytick_4">
     <g id="line2d_61">
      <path d="M 83.541134 332.838498 
L 976.341134 332.838498 
" clip-path="url(#p58332904f0)" style="fill: none; stroke: #b0b0b0; stroke-width: 0.8; stroke-linecap: square"/>
     </g>
     <g id="line2d_62">
      <g>
       <use xlink:href="#m451de0dd8e" x="83.541134" y="332.838498" style="stroke: #000000; stroke-width: 0.8"/>
      </g>
     </g>
     <g id="text_32">
      <!-- $\mathdefault{0.3}$ -->
      <g transform="translate(51.345508 339.756997) scale(0.2 -0.2)">
       <use xlink:href="#CMR17-30" transform="scale(0.996264)"/>
       <use xlink:href="#CMMI12-3a" transform="translate(45.690477 0) scale(0.996264)"/>
       <use xlink:href="#CMR17-33" transform="translate(72.787654 0) scale(0.996264)"/>
      </g>
     </g>
    </g>
    <g id="ytick_5">
     <g id="line2d_63">
      <path d="M 83.541134 287.30707 
L 976.341134 287.30707 
" clip-path="url(#p58332904f0)" style="fill: none; stroke: #b0b0b0; stroke-width: 0.8; stroke-linecap: square"/>
     </g>
     <g id="line2d_64">
      <g>
       <use xlink:href="#m451de0dd8e" x="83.541134" y="287.30707" style="stroke: #000000; stroke-width: 0.8"/>
      </g>
     </g>
     <g id="text_33">
      <!-- $\mathdefault{0.4}$ -->
      <g transform="translate(51.345508 294.225568) scale(0.2 -0.2)">
       <use xlink:href="#CMR17-30" transform="scale(0.996264)"/>
       <use xlink:href="#CMMI12-3a" transform="translate(45.690477 0) scale(0.996264)"/>
       <use xlink:href="#CMR17-34" transform="translate(72.787654 0) scale(0.996264)"/>
      </g>
     </g>
    </g>
    <g id="ytick_6">
     <g id="line2d_65">
      <path d="M 83.541134 241.775641 
L 976.341134 241.775641 
" clip-path="url(#p58332904f0)" style="fill: none; stroke: #b0b0b0; stroke-width: 0.8; stroke-linecap: square"/>
     </g>
     <g id="line2d_66">
      <g>
       <use xlink:href="#m451de0dd8e" x="83.541134" y="241.775641" style="stroke: #000000; stroke-width: 0.8"/>
      </g>
     </g>
     <g id="text_34">
      <!-- $\mathdefault{0.5}$ -->
      <g transform="translate(51.345508 248.69414) scale(0.2 -0.2)">
       <use xlink:href="#CMR17-30" transform="scale(0.996264)"/>
       <use xlink:href="#CMMI12-3a" transform="translate(45.690477 0) scale(0.996264)"/>
       <use xlink:href="#CMR17-35" transform="translate(72.787654 0) scale(0.996264)"/>
      </g>
     </g>
    </g>
    <g id="ytick_7">
     <g id="line2d_67">
      <path d="M 83.541134 196.244213 
L 976.341134 196.244213 
" clip-path="url(#p58332904f0)" style="fill: none; stroke: #b0b0b0; stroke-width: 0.8; stroke-linecap: square"/>
     </g>
     <g id="line2d_68">
      <g>
       <use xlink:href="#m451de0dd8e" x="83.541134" y="196.244213" style="stroke: #000000; stroke-width: 0.8"/>
      </g>
     </g>
     <g id="text_35">
      <!-- $\mathdefault{0.6}$ -->
      <g transform="translate(51.345508 203.162711) scale(0.2 -0.2)">
       <use xlink:href="#CMR17-30" transform="scale(0.996264)"/>
       <use xlink:href="#CMMI12-3a" transform="translate(45.690477 0) scale(0.996264)"/>
       <use xlink:href="#CMR17-36" transform="translate(72.787654 0) scale(0.996264)"/>
      </g>
     </g>
    </g>
    <g id="ytick_8">
     <g id="line2d_69">
      <path d="M 83.541134 150.712784 
L 976.341134 150.712784 
" clip-path="url(#p58332904f0)" style="fill: none; stroke: #b0b0b0; stroke-width: 0.8; stroke-linecap: square"/>
     </g>
     <g id="line2d_70">
      <g>
       <use xlink:href="#m451de0dd8e" x="83.541134" y="150.712784" style="stroke: #000000; stroke-width: 0.8"/>
      </g>
     </g>
     <g id="text_36">
      <!-- $\mathdefault{0.7}$ -->
      <g transform="translate(51.345508 157.631282) scale(0.2 -0.2)">
       <use xlink:href="#CMR17-30" transform="scale(0.996264)"/>
       <use xlink:href="#CMMI12-3a" transform="translate(45.690477 0) scale(0.996264)"/>
       <use xlink:href="#CMR17-37" transform="translate(72.787654 0) scale(0.996264)"/>
      </g>
     </g>
    </g>
    <g id="ytick_9">
     <g id="line2d_71">
      <path d="M 83.541134 105.181356 
L 976.341134 105.181356 
" clip-path="url(#p58332904f0)" style="fill: none; stroke: #b0b0b0; stroke-width: 0.8; stroke-linecap: square"/>
     </g>
     <g id="line2d_72">
      <g>
       <use xlink:href="#m451de0dd8e" x="83.541134" y="105.181356" style="stroke: #000000; stroke-width: 0.8"/>
      </g>
     </g>
     <g id="text_37">
      <!-- $\mathdefault{0.8}$ -->
      <g transform="translate(51.345508 112.099854) scale(0.2 -0.2)">
       <use xlink:href="#CMR17-30" transform="scale(0.996264)"/>
       <use xlink:href="#CMMI12-3a" transform="translate(45.690477 0) scale(0.996264)"/>
       <use xlink:href="#CMR17-38" transform="translate(72.787654 0) scale(0.996264)"/>
      </g>
     </g>
    </g>
    <g id="ytick_10">
     <g id="line2d_73">
      <path d="M 83.541134 59.649927 
L 976.341134 59.649927 
" clip-path="url(#p58332904f0)" style="fill: none; stroke: #b0b0b0; stroke-width: 0.8; stroke-linecap: square"/>
     </g>
     <g id="line2d_74">
      <g>
       <use xlink:href="#m451de0dd8e" x="83.541134" y="59.649927" style="stroke: #000000; stroke-width: 0.8"/>
      </g>
     </g>
     <g id="text_38">
      <!-- $\mathdefault{0.9}$ -->
      <g transform="translate(51.345508 66.568425) scale(0.2 -0.2)">
       <use xlink:href="#CMR17-30" transform="scale(0.996264)"/>
       <use xlink:href="#CMMI12-3a" transform="translate(45.690477 0) scale(0.996264)"/>
       <use xlink:href="#CMR17-39" transform="translate(72.787654 0) scale(0.996264)"/>
      </g>
     </g>
    </g>
    <g id="ytick_11">
     <g id="line2d_75">
      <path d="M 83.541134 14.118498 
L 976.341134 14.118498 
" clip-path="url(#p58332904f0)" style="fill: none; stroke: #b0b0b0; stroke-width: 0.8; stroke-linecap: square"/>
     </g>
     <g id="line2d_76">
      <g>
       <use xlink:href="#m451de0dd8e" x="83.541134" y="14.118498" style="stroke: #000000; stroke-width: 0.8"/>
      </g>
     </g>
     <g id="text_39">
      <!-- $\mathdefault{1.0}$ -->
      <g transform="translate(51.345508 21.036997) scale(0.2 -0.2)">
       <use xlink:href="#CMR17-31" transform="scale(0.996264)"/>
       <use xlink:href="#CMMI12-3a" transform="translate(45.690477 0) scale(0.996264)"/>
       <use xlink:href="#CMR17-30" transform="translate(72.787654 0) scale(0.996264)"/>
      </g>
     </g>
    </g>
    <g id="text_40">
     <!-- $C_p$ -->
     <g transform="translate(24.219505 266.166436) rotate(-90) scale(0.25 -0.25)">
      <defs>
       <path id="CMMI12-43" d="M 4781 4423 
C 4781 4480 4736 4480 4723 4480 
C 4710 4480 4685 4480 4634 4416 
L 4192 3882 
C 3968 4264 3616 4480 3136 4480 
C 1754 4480 320 3088 320 1595 
C 320 533 1069 -128 2003 -128 
C 2515 -128 2963 88 3334 400 
C 3891 863 4058 1481 4058 1531 
C 4058 1588 4006 1588 3987 1588 
C 3930 1588 3923 1550 3910 1524 
C 3616 534 2752 57 2112 57 
C 1434 57 845 489 845 1391 
C 845 1595 909 2700 1632 3532 
C 1984 3939 2586 4295 3194 4295 
C 3898 4295 4211 3717 4211 3068 
C 4211 2903 4192 2764 4192 2738 
C 4192 2681 4256 2681 4275 2681 
C 4346 2681 4352 2687 4378 2801 
L 4781 4423 
z
" transform="scale(0.015625)"/>
       <path id="CMMI12-70" d="M 275 -789 
C 230 -980 205 -1031 -58 -1031 
C -134 -1031 -198 -1031 -198 -1152 
C -198 -1165 -192 -1216 -122 -1216 
C -38 -1216 51 -1216 134 -1216 
L 410 -1216 
C 544 -1216 870 -1216 1005 -1216 
C 1043 -1216 1120 -1216 1120 -1101 
C 1120 -1031 1075 -1031 966 -1031 
C 672 -1031 653 -987 653 -937 
C 653 -861 941 219 979 364 
C 1050 185 1222 -64 1555 -64 
C 2278 -64 3059 875 3059 1814 
C 3059 2401 2726 2816 2246 2816 
C 1837 2816 1491 2420 1421 2331 
C 1370 2650 1120 2816 864 2816 
C 678 2816 531 2727 410 2484 
C 294 2254 205 1865 205 1839 
C 205 1814 230 1782 275 1782 
C 326 1782 333 1788 371 1935 
C 467 2312 589 2689 845 2689 
C 992 2689 1043 2587 1043 2397 
C 1043 2245 1024 2181 998 2067 
L 275 -789 
z
M 1382 1993 
C 1427 2171 1606 2357 1709 2446 
C 1779 2510 1990 2689 2234 2689 
C 2515 2689 2643 2408 2643 2076 
C 2643 1769 2464 1047 2304 715 
C 2144 370 1850 64 1555 64 
C 1120 64 1050 613 1050 639 
C 1050 658 1062 709 1069 741 
L 1382 1993 
z
" transform="scale(0.015625)"/>
      </defs>
      <use xlink:href="#CMMI12-43" transform="scale(0.996264)"/>
      <use xlink:href="#CMMI12-70" transform="translate(69.792037 -14.943915) scale(0.697382)"/>
     </g>
    </g>
   </g>
   <g id="line2d_77">
    <path d="M 124.122952 469.432784 
L 155.339735 469.432784 
L 186.556519 469.432784 
L 217.773302 469.432784 
L 248.865218 469.432784 
L 248.990085 257.159455 
L 280.206868 257.159455 
L 311.423652 257.159455 
L 342.640435 257.159455 
L 373.857218 257.159455 
L 405.074001 257.159455 
L 436.290784 257.159455 
L 467.507568 257.159455 
L 498.724351 286.195897 
L 529.941134 325.316462 
L 561.157917 354.037374 
L 592.374701 375.607153 
L 623.591484 392.133395 
L 654.808267 404.982436 
L 686.02505 415.143058 
L 717.241833 423.271804 
L 748.458617 429.858477 
L 779.6754 435.240299 
L 810.892183 439.69201 
L 842.108966 443.412139 
L 873.325749 446.524734 
L 904.542533 449.129642 
L 905.322952 469.432784 
L 935.759316 469.432784 
" clip-path="url(#p58332904f0)" style="fill: none; stroke: #000000; stroke-width: 1.2; stroke-linecap: square"/>
    <defs>
     <path id="m7d1ad080f3" d="M 0 4.949747 
L 2.969848 0 
L 0 -4.949747 
L -2.969848 0 
z
" style="stroke: #000000; stroke-linejoin: miter"/>
    </defs>
    <g clip-path="url(#p58332904f0)">
     <use xlink:href="#m7d1ad080f3" x="124.122952" y="469.432784" style="stroke: #000000; stroke-linejoin: miter"/>
     <use xlink:href="#m7d1ad080f3" x="155.339735" y="469.432784" style="stroke: #000000; stroke-linejoin: miter"/>
     <use xlink:href="#m7d1ad080f3" x="186.556519" y="469.432784" style="stroke: #000000; stroke-linejoin: miter"/>
     <use xlink:href="#m7d1ad080f3" x="217.773302" y="469.432784" style="stroke: #000000; stroke-linejoin: miter"/>
     <use xlink:href="#m7d1ad080f3" x="248.865218" y="469.432784" style="stroke: #000000; stroke-linejoin: miter"/>
     <use xlink:href="#m7d1ad080f3" x="248.990085" y="257.159455" style="stroke: #000000; stroke-linejoin: miter"/>
     <use xlink:href="#m7d1ad080f3" x="280.206868" y="257.159455" style="stroke: #000000; stroke-linejoin: miter"/>
     <use xlink:href="#m7d1ad080f3" x="311.423652" y="257.159455" style="stroke: #000000; stroke-linejoin: miter"/>
     <use xlink:href="#m7d1ad080f3" x="342.640435" y="257.159455" style="stroke: #000000; stroke-linejoin: miter"/>
     <use xlink:href="#m7d1ad080f3" x="373.857218" y="257.159455" style="stroke: #000000; stroke-linejoin: miter"/>
     <use xlink:href="#m7d1ad080f3" x="405.074001" y="257.159455" style="stroke: #000000; stroke-linejoin: miter"/>
     <use xlink:href="#m7d1ad080f3" x="436.290784" y="257.159455" style="stroke: #000000; stroke-linejoin: miter"/>
     <use xlink:href="#m7d1ad080f3" x="467.507568" y="257.159455" style="stroke: #000000; stroke-linejoin: miter"/>
     <use xlink:href="#m7d1ad080f3" x="498.724351" y="286.195897" style="stroke: #000000; stroke-linejoin: miter"/>
     <use xlink:href="#m7d1ad080f3" x="529.941134" y="325.316462" style="stroke: #000000; stroke-linejoin: miter"/>
     <use xlink:href="#m7d1ad080f3" x="561.157917" y="354.037374" style="stroke: #000000; stroke-linejoin: miter"/>
     <use xlink:href="#m7d1ad080f3" x="592.374701" y="375.607153" style="stroke: #000000; stroke-linejoin: miter"/>
     <use xlink:href="#m7d1ad080f3" x="623.591484" y="392.133395" style="stroke: #000000; stroke-linejoin: miter"/>
     <use xlink:href="#m7d1ad080f3" x="654.808267" y="404.982436" style="stroke: #000000; stroke-linejoin: miter"/>
     <use xlink:href="#m7d1ad080f3" x="686.02505" y="415.143058" style="stroke: #000000; stroke-linejoin: miter"/>
     <use xlink:href="#m7d1ad080f3" x="717.241833" y="423.271804" style="stroke: #000000; stroke-linejoin: miter"/>
     <use xlink:href="#m7d1ad080f3" x="748.458617" y="429.858477" style="stroke: #000000; stroke-linejoin: miter"/>
     <use xlink:href="#m7d1ad080f3" x="779.6754" y="435.240299" style="stroke: #000000; stroke-linejoin: miter"/>
     <use xlink:href="#m7d1ad080f3" x="810.892183" y="439.69201" style="stroke: #000000; stroke-linejoin: miter"/>
     <use xlink:href="#m7d1ad080f3" x="842.108966" y="443.412139" style="stroke: #000000; stroke-linejoin: miter"/>
     <use xlink:href="#m7d1ad080f3" x="873.325749" y="446.524734" style="stroke: #000000; stroke-linejoin: miter"/>
     <use xlink:href="#m7d1ad080f3" x="904.542533" y="449.129642" style="stroke: #000000; stroke-linejoin: miter"/>
     <use xlink:href="#m7d1ad080f3" x="905.322952" y="469.432784" style="stroke: #000000; stroke-linejoin: miter"/>
     <use xlink:href="#m7d1ad080f3" x="935.759316" y="469.432784" style="stroke: #000000; stroke-linejoin: miter"/>
    </g>
   </g>
   <g id="patch_3">
    <path d="M 83.541134 492.198498 
L 83.541134 14.118498 
" style="fill: none; stroke: #000000; stroke-width: 0.8; stroke-linejoin: miter; stroke-linecap: square"/>
   </g>
   <g id="patch_4">
    <path d="M 976.341134 492.198498 
L 976.341134 14.118498 
" style="fill: none; stroke: #000000; stroke-width: 0.8; stroke-linejoin: miter; stroke-linecap: square"/>
   </g>
   <g id="patch_5">
    <path d="M 83.541134 492.198498 
L 976.341134 492.198498 
" style="fill: none; stroke: #000000; stroke-width: 0.8; stroke-linejoin: miter; stroke-linecap: square"/>
   </g>
   <g id="patch_6">
    <path d="M 83.541134 14.118498 
L 976.341134 14.118498 
" style="fill: none; stroke: #000000; stroke-width: 0.8; stroke-linejoin: miter; stroke-linecap: square"/>
   </g>
   <g id="line2d_78">
    <path d="M 248.990085 339.212898 
L 280.206868 279.111413 
L 311.423652 258.166956 
L 342.640435 251.792556 
L 373.857218 252.703184 
L 405.074001 252.703184 
L 436.290784 252.703184 
L 467.507568 252.703184 
L 498.724351 286.396441 
L 529.941134 325.098156 
L 561.157917 354.23827 
L 592.374701 375.182727 
L 623.591484 392.029356 
L 654.808267 404.778156 
L 686.02505 415.250384 
L 717.241833 422.990727 
L 748.458617 429.820441 
L 779.6754 435.284213 
L 810.892183 439.837356 
L 842.108966 443.47987 
L 873.325749 446.66707 
L 904.542533 449.398956 
" clip-path="url(#p58332904f0)" style="fill: none; stroke: #000000; stroke-width: 1.3; stroke-linecap: square"/>
    <defs>
     <path id="md8a4ffdfde" d="M -3.5 0 
L 3.5 0 
M 0 3.5 
L 0 -3.5 
" style="stroke: #000000"/>
    </defs>
    <g clip-path="url(#p58332904f0)">
     <use xlink:href="#md8a4ffdfde" x="248.990085" y="339.212898" style="stroke: #000000"/>
     <use xlink:href="#md8a4ffdfde" x="280.206868" y="279.111413" style="stroke: #000000"/>
     <use xlink:href="#md8a4ffdfde" x="311.423652" y="258.166956" style="stroke: #000000"/>
     <use xlink:href="#md8a4ffdfde" x="342.640435" y="251.792556" style="stroke: #000000"/>
     <use xlink:href="#md8a4ffdfde" x="373.857218" y="252.703184" style="stroke: #000000"/>
     <use xlink:href="#md8a4ffdfde" x="405.074001" y="252.703184" style="stroke: #000000"/>
     <use xlink:href="#md8a4ffdfde" x="436.290784" y="252.703184" style="stroke: #000000"/>
     <use xlink:href="#md8a4ffdfde" x="467.507568" y="252.703184" style="stroke: #000000"/>
     <use xlink:href="#md8a4ffdfde" x="498.724351" y="286.396441" style="stroke: #000000"/>
     <use xlink:href="#md8a4ffdfde" x="529.941134" y="325.098156" style="stroke: #000000"/>
     <use xlink:href="#md8a4ffdfde" x="561.157917" y="354.23827" style="stroke: #000000"/>
     <use xlink:href="#md8a4ffdfde" x="592.374701" y="375.182727" style="stroke: #000000"/>
     <use xlink:href="#md8a4ffdfde" x="623.591484" y="392.029356" style="stroke: #000000"/>
     <use xlink:href="#md8a4ffdfde" x="654.808267" y="404.778156" style="stroke: #000000"/>
     <use xlink:href="#md8a4ffdfde" x="686.02505" y="415.250384" style="stroke: #000000"/>
     <use xlink:href="#md8a4ffdfde" x="717.241833" y="422.990727" style="stroke: #000000"/>
     <use xlink:href="#md8a4ffdfde" x="748.458617" y="429.820441" style="stroke: #000000"/>
     <use xlink:href="#md8a4ffdfde" x="779.6754" y="435.284213" style="stroke: #000000"/>
     <use xlink:href="#md8a4ffdfde" x="810.892183" y="439.837356" style="stroke: #000000"/>
     <use xlink:href="#md8a4ffdfde" x="842.108966" y="443.47987" style="stroke: #000000"/>
     <use xlink:href="#md8a4ffdfde" x="873.325749" y="446.66707" style="stroke: #000000"/>
     <use xlink:href="#md8a4ffdfde" x="904.542533" y="449.398956" style="stroke: #000000"/>
    </g>
   </g>
   <g id="legend_1">
    <g id="patch_7">
     <path d="M 467.020507 87.694937 
L 962.341134 87.694937 
Q 966.341134 87.694937 966.341134 83.694937 
L 966.341134 28.118498 
Q 966.341134 24.118498 962.341134 24.118498 
L 467.020507 24.118498 
Q 463.020507 24.118498 463.020507 28.118498 
L 463.020507 83.694937 
Q 463.020507 87.694937 467.020507 87.694937 
z
" style="fill: #ffffff; opacity: 0.8; stroke: #cccccc; stroke-linejoin: miter"/>
    </g>
    <g id="line2d_79">
     <path d="M 471.020507 39.118498 
L 491.020507 39.118498 
L 511.020507 39.118498 
" style="fill: none; stroke: #000000; stroke-width: 1.2; stroke-linecap: square"/>
     <g>
      <use xlink:href="#m7d1ad080f3" x="491.020507" y="39.118498" style="stroke: #000000; stroke-linejoin: miter"/>
     </g>
    </g>
    <g id="text_41">
     <!-- $C_p$ -->
     <g transform="translate(527.020507 46.118498) scale(0.2 -0.2)">
      <use xlink:href="#CMMI12-43" transform="scale(0.996264)"/>
      <use xlink:href="#CMMI12-70" transform="translate(69.792037 -14.943915) scale(0.697382)"/>
     </g>
    </g>
    <g id="line2d_80">
     <path d="M 471.020507 68.819304 
L 491.020507 68.819304 
L 511.020507 68.819304 
" style="fill: none; stroke-dasharray: 4.44,1.92; stroke-dashoffset: 0; stroke: #000000; stroke-width: 1.2"/>
     <g>
      <use xlink:href="#m7d1ad080f3" x="491.020507" y="68.819304" style="stroke: #000000; stroke-linejoin: miter"/>
     </g>
    </g>
    <g id="text_42">
     <!-- $C_T$ -->
     <g transform="translate(527.020507 75.819304) scale(0.2 -0.2)">
      <defs>
       <path id="CMMI12-54" d="M 2669 3910 
C 2707 4064 2720 4121 2816 4147 
C 2867 4160 3078 4160 3213 4160 
C 3853 4160 4154 4134 4154 3634 
C 4154 3537 4128 3295 4090 3057 
L 4083 2980 
C 4083 2954 4109 2916 4147 2916 
C 4211 2916 4211 2948 4230 3050 
L 4416 4184 
C 4429 4243 4429 4256 4429 4275 
C 4429 4345 4390 4345 4262 4345 
L 762 4345 
C 614 4345 608 4339 570 4224 
L 179 3070 
C 173 3056 154 2986 154 2980 
C 154 2948 179 2916 218 2916 
C 269 2916 282 2941 307 3024 
C 576 3801 710 4160 1562 4160 
L 1990 4160 
C 2144 4160 2208 4160 2208 4089 
C 2208 4069 2208 4057 2176 3941 
L 1318 499 
C 1254 249 1242 185 563 185 
C 403 185 358 185 358 64 
C 358 0 429 0 461 0 
C 621 0 787 0 947 0 
L 1946 0 
C 2106 0 2278 0 2438 0 
C 2509 0 2573 0 2573 121 
C 2573 185 2528 185 2362 185 
C 1786 185 1786 243 1786 339 
C 1786 346 1786 391 1811 494 
L 2669 3910 
z
" transform="scale(0.015625)"/>
      </defs>
      <use xlink:href="#CMMI12-43" transform="scale(0.996264)"/>
      <use xlink:href="#CMMI12-54" transform="translate(69.792037 -14.943915) scale(0.697382)"/>
     </g>
    </g>
    <g id="line2d_81">
     <path d="M 588.983374 39.118498 
L 608.983374 39.118498 
L 628.983374 39.118498 
" style="fill: none; stroke-dasharray: 4.81,2.08; stroke-dashoffset: 0; stroke: #000000; stroke-width: 1.3"/>
     <g>
      <use xlink:href="#md8a4ffdfde" x="608.983374" y="39.118498" style="stroke: #000000"/>
     </g>
    </g>
    <g id="text_43">
     <!-- $C_T$ - DTU Wind Energy Report-I-0092 -->
     <g transform="translate(644.983374 46.118498) scale(0.2 -0.2)">
      <defs>
       <path id="CMR17-2d" d="M 1632 1216 
L 1632 1496 
L 26 1496 
L 26 1216 
L 1632 1216 
z
" transform="scale(0.015625)"/>
       <path id="CMR17-44" d="M 333 4352 
L 333 4186 
C 774 4186 845 4186 845 3900 
L 845 452 
C 845 166 774 166 333 166 
L 333 0 
L 2368 0 
C 3398 0 4224 943 4224 2141 
C 4224 3346 3411 4352 2368 4352 
L 333 4352 
z
M 1523 166 
C 1267 166 1254 197 1254 414 
L 1254 3938 
C 1254 4155 1267 4186 1523 4186 
L 2240 4186 
C 2771 4186 3750 3874 3750 2141 
C 3750 1242 3488 879 3366 707 
C 3213 510 2848 166 2240 166 
L 1523 166 
z
" transform="scale(0.015625)"/>
       <path id="CMR17-54" d="M 3981 4326 
L 288 4326 
L 179 2918 
L 294 2918 
C 378 3976 467 4160 1453 4160 
C 1568 4160 1754 4160 1805 4154 
C 1926 4135 1926 4058 1926 3912 
L 1926 459 
C 1926 230 1907 160 1376 160 
L 1197 160 
L 1197 0 
C 1504 0 1824 0 2138 0 
C 2451 0 2771 0 3078 0 
L 3078 160 
L 2899 160 
C 2368 160 2349 230 2349 459 
L 2349 3912 
C 2349 4052 2349 4129 2464 4154 
C 2515 4160 2701 4160 2816 4160 
C 3795 4160 3891 3976 3974 2918 
L 4090 2918 
L 3981 4326 
z
" transform="scale(0.015625)"/>
       <path id="CMR17-55" d="M 3456 1433 
C 3456 579 2899 38 2291 38 
C 1965 38 1670 210 1491 477 
C 1286 783 1261 1178 1261 1401 
L 1261 3874 
C 1261 4160 1331 4160 1773 4160 
L 1773 4320 
C 1587 4320 1248 4320 1050 4320 
C 851 4320 512 4320 326 4320 
L 326 4160 
C 768 4160 838 4160 838 3874 
L 838 1433 
C 838 516 1536 -128 2278 -128 
C 3110 -128 3590 719 3590 1344 
L 3590 3766 
C 3590 4122 3917 4160 4102 4160 
L 4102 4326 
C 3955 4320 3686 4320 3526 4320 
C 3366 4320 3091 4320 2944 4326 
L 2944 4160 
C 3456 4160 3456 3861 3456 3702 
L 3456 1433 
z
" transform="scale(0.015625)"/>
       <path id="CMR17-57" d="M 5523 3764 
C 5581 3936 5677 4160 6048 4160 
L 6048 4326 
C 5939 4326 5715 4326 5600 4326 
C 5440 4326 5158 4326 5005 4332 
L 5005 4160 
C 5293 4160 5414 4000 5414 3847 
C 5414 3802 5408 3777 5382 3707 
L 4390 555 
L 3347 3873 
C 3328 3937 3322 3963 3322 3988 
C 3322 4160 3603 4160 3725 4160 
L 3725 4326 
C 3539 4326 3219 4326 3021 4326 
C 2861 4326 2573 4326 2426 4332 
L 2426 4160 
C 2720 4160 2797 4141 2861 4027 
C 2886 3969 2989 3638 2989 3619 
C 2989 3593 2976 3555 2970 3536 
L 2029 561 
L 986 3867 
C 954 3957 954 3969 954 3982 
C 954 4160 1235 4160 1363 4160 
L 1363 4326 
C 1178 4326 858 4326 659 4326 
C 493 4326 211 4326 58 4332 
L 58 4160 
C 442 4160 467 4122 531 3918 
L 1779 -20 
C 1811 -115 1811 -128 1869 -128 
C 1920 -128 1939 -115 1965 -26 
L 3053 3433 
L 4141 -26 
C 4166 -115 4186 -128 4237 -128 
C 4294 -128 4294 -115 4326 -20 
L 5523 3764 
z
" transform="scale(0.015625)"/>
       <path id="CMR17-69" d="M 992 3909 
C 992 4049 877 4170 730 4170 
C 589 4170 467 4056 467 3909 
C 467 3769 582 3648 730 3648 
C 870 3648 992 3763 992 3909 
z
M 243 2706 
L 243 2541 
C 602 2541 653 2502 653 2197 
L 653 427 
C 653 184 627 153 218 153 
L 218 -13 
C 371 0 646 0 806 0 
C 960 0 1222 0 1370 -13 
L 1370 153 
C 992 153 979 191 979 420 
L 979 2776 
L 243 2706 
z
" transform="scale(0.015625)"/>
       <path id="CMR17-6e" d="M 2656 1933 
C 2656 2259 2592 2790 1837 2790 
C 1331 2790 1069 2400 973 2144 
L 966 2144 
L 966 2790 
L 211 2720 
L 211 2554 
C 589 2554 646 2515 646 2208 
L 646 428 
C 646 184 621 153 211 153 
L 211 -13 
C 365 0 646 0 813 0 
C 979 0 1267 0 1421 -13 
L 1421 153 
C 1011 153 986 178 986 428 
L 986 1658 
C 986 2247 1344 2688 1792 2688 
C 2266 2688 2317 2266 2317 1958 
L 2317 428 
C 2317 184 2291 153 1882 153 
L 1882 -13 
C 2035 0 2317 0 2483 0 
C 2650 0 2938 0 3091 -13 
L 3091 153 
C 2682 153 2656 178 2656 428 
L 2656 1933 
z
" transform="scale(0.015625)"/>
       <path id="CMR17-64" d="M 1869 4326 
L 1869 4160 
C 2246 4160 2304 4122 2304 3820 
L 2304 2345 
C 2278 2377 2016 2790 1498 2790 
C 845 2790 211 2208 211 1364 
C 211 525 806 -64 1434 -64 
C 1978 -64 2259 337 2291 380 
L 2291 -63 
L 3066 -63 
L 3066 128 
C 2688 128 2630 166 2630 473 
L 2630 4396 
L 1869 4326 
z
M 2291 755 
C 2291 563 2176 390 2029 262 
C 1811 70 1594 38 1472 38 
C 1286 38 621 134 621 1356 
C 621 2612 1363 2688 1530 2688 
C 1824 2688 2061 2522 2208 2291 
C 2291 2157 2291 2138 2291 2023 
L 2291 755 
z
" transform="scale(0.015625)"/>
       <path id="CMR17-45" d="M 3885 1615 
L 3770 1615 
C 3629 676 3546 166 2419 166 
L 1530 166 
C 1274 166 1261 197 1261 414 
L 1261 2176 
L 1862 2176 
C 2464 2176 2522 1960 2522 1430 
L 2637 1430 
L 2637 3081 
L 2522 3081 
C 2522 2557 2464 2342 1862 2342 
L 1261 2342 
L 1261 3913 
C 1261 4128 1274 4160 1530 4160 
L 2406 4160 
C 3398 4160 3514 3769 3603 2929 
L 3718 2929 
L 3565 4325 
L 326 4325 
L 326 4160 
C 768 4160 838 4160 838 3874 
L 838 451 
C 838 166 768 166 326 166 
L 326 0 
L 3654 0 
L 3885 1615 
z
" transform="scale(0.015625)"/>
       <path id="CMR17-65" d="M 2438 1472 
C 2464 1498 2464 1511 2464 1576 
C 2464 2238 2118 2816 1389 2816 
C 710 2816 173 2169 173 1383 
C 173 551 781 -64 1459 -64 
C 2176 -64 2458 607 2458 740 
C 2458 784 2419 784 2406 784 
C 2362 784 2355 771 2330 696 
C 2189 265 1837 51 1504 51 
C 1229 51 954 203 781 480 
C 582 803 582 1176 582 1472 
L 2438 1472 
z
M 589 1568 
C 634 2505 1126 2714 1382 2714 
C 1818 2714 2112 2297 2118 1568 
L 589 1568 
z
" transform="scale(0.015625)"/>
       <path id="CMR17-72" d="M 960 1497 
C 960 2112 1222 2688 1702 2688 
C 1747 2688 1792 2682 1837 2662 
C 1837 2662 1696 2617 1696 2452 
C 1696 2298 1818 2234 1914 2234 
C 1990 2234 2131 2279 2131 2458 
C 2131 2663 1926 2790 1709 2790 
C 1222 2790 1011 2317 947 2093 
L 941 2093 
L 941 2790 
L 198 2720 
L 198 2554 
C 576 2554 634 2515 634 2208 
L 634 428 
C 634 184 608 153 198 153 
L 198 -13 
C 352 0 646 0 813 0 
C 998 0 1325 0 1498 -13 
L 1498 153 
C 1037 153 960 153 960 440 
L 960 1497 
z
" transform="scale(0.015625)"/>
       <path id="CMR17-67" d="M 710 1164 
C 832 1068 1043 960 1299 960 
C 1805 960 2240 1357 2240 1888 
C 2240 2054 2189 2310 1997 2509 
C 2176 2692 2438 2752 2586 2752 
C 2611 2752 2650 2752 2682 2734 
C 2656 2728 2598 2703 2598 2605 
C 2598 2527 2656 2471 2739 2471 
C 2835 2471 2886 2533 2886 2614 
C 2886 2731 2790 2854 2586 2854 
C 2330 2854 2106 2738 1926 2580 
C 1734 2753 1504 2816 1299 2816 
C 794 2816 358 2419 358 1888 
C 358 1522 570 1292 634 1228 
C 442 1004 442 743 442 711 
C 442 545 506 302 723 168 
C 390 85 128 -169 128 -486 
C 128 -943 736 -1280 1466 -1280 
C 2170 -1280 2803 -956 2803 -479 
C 2803 384 1856 384 1363 384 
C 1216 384 954 384 922 391 
C 723 423 589 602 589 826 
C 589 883 589 1024 710 1164 
z
M 1299 1068 
C 736 1068 736 1760 736 1889 
C 736 2016 736 2708 1299 2708 
C 1862 2708 1862 2016 1862 1889 
C 1862 1760 1862 1068 1299 1068 
z
M 1466 -1171 
C 826 -1171 384 -835 384 -486 
C 384 -289 493 -105 634 -4 
C 794 104 858 104 1293 104 
C 1818 104 2547 104 2547 -486 
C 2547 -835 2106 -1171 1466 -1171 
z
" transform="scale(0.015625)"/>
       <path id="CMR17-79" d="M 2496 2197 
C 2656 2586 2944 2586 3034 2586 
L 3034 2752 
C 2912 2752 2752 2752 2630 2752 
C 2496 2752 2285 2752 2157 2758 
L 2157 2592 
C 2400 2573 2406 2394 2406 2343 
C 2406 2280 2394 2248 2362 2171 
L 1664 449 
L 902 2306 
C 870 2382 870 2426 870 2433 
C 870 2573 1018 2586 1171 2586 
L 1171 2758 
C 1018 2752 742 2752 582 2752 
C 410 2752 205 2752 64 2758 
L 64 2586 
C 410 2586 448 2554 531 2350 
L 1485 15 
C 1197 -738 1030 -1178 627 -1178 
C 557 -1178 397 -1159 282 -1044 
C 429 -1031 493 -942 493 -833 
C 493 -725 416 -629 288 -629 
C 147 -629 77 -725 77 -840 
C 77 -1095 339 -1280 627 -1280 
C 998 -1280 1229 -922 1357 -604 
L 2496 2197 
z
" transform="scale(0.015625)"/>
       <path id="CMR17-52" d="M 2509 2146 
C 3117 2268 3629 2676 3629 3186 
C 3629 3785 2950 4326 2054 4326 
L 333 4326 
L 333 4160 
C 774 4160 845 4160 845 3873 
L 845 415 
C 845 128 774 128 333 128 
L 333 -26 
C 518 -26 851 -26 1050 -26 
C 1248 -26 1581 -26 1766 -26 
L 1766 128 
C 1325 128 1254 128 1254 417 
L 1254 2112 
L 2003 2112 
C 2368 2112 2573 1964 2662 1881 
C 2918 1632 2918 1459 2918 1024 
C 2918 595 2918 377 3110 160 
C 3354 -102 3680 -128 3821 -128 
C 4294 -128 4365 396 4365 503 
C 4365 540 4365 585 4307 585 
C 4256 585 4250 547 4250 522 
C 4218 112 4032 -26 3834 -26 
C 3482 -26 3443 375 3405 764 
C 3386 898 3373 993 3360 1133 
C 3322 1452 3270 1917 2509 2146 
z
M 1984 2214 
L 1254 2214 
L 1254 3913 
C 1254 4129 1267 4160 1523 4160 
L 1990 4160 
C 2522 4160 3142 3977 3142 3190 
C 3142 2372 2464 2214 1984 2214 
z
" transform="scale(0.015625)"/>
       <path id="CMR17-70" d="M 1408 -1063 
C 998 -1063 973 -1037 973 -789 
L 973 402 
C 1158 134 1427 -38 1766 -38 
C 2406 -38 3053 523 3053 1388 
C 3053 2191 2496 2802 1837 2802 
C 1453 2802 1139 2592 960 2338 
L 960 2802 
L 198 2732 
L 198 2567 
C 576 2567 634 2528 634 2223 
L 634 -789 
C 634 -1031 608 -1063 198 -1063 
L 198 -1228 
C 352 -1216 634 -1216 800 -1216 
C 966 -1216 1254 -1216 1408 -1228 
L 1408 -1063 
z
M 973 2012 
C 973 2102 973 2235 1222 2471 
C 1254 2497 1472 2688 1792 2688 
C 2259 2688 2643 2108 2643 1382 
C 2643 656 2234 64 1728 64 
C 1498 64 1248 172 1056 472 
C 973 612 973 650 973 752 
L 973 2012 
z
" transform="scale(0.015625)"/>
       <path id="CMR17-6f" d="M 2758 1356 
C 2758 2176 2163 2816 1466 2816 
C 768 2816 173 2176 173 1356 
C 173 551 768 -64 1466 -64 
C 2163 -64 2758 551 2758 1356 
z
M 1466 51 
C 1165 51 909 230 762 480 
C 602 767 582 1126 582 1408 
C 582 1677 595 2010 762 2298 
C 890 2509 1139 2714 1466 2714 
C 1754 2714 1997 2554 2150 2330 
C 2349 2029 2349 1607 2349 1408 
C 2349 1158 2336 775 2163 467 
C 1984 173 1709 51 1466 51 
z
" transform="scale(0.015625)"/>
       <path id="CMR17-74" d="M 966 2560 
L 1862 2560 
L 1862 2725 
L 966 2725 
L 966 3904 
L 851 3904 
C 838 3245 614 2668 70 2668 
L 70 2560 
L 627 2560 
L 627 771 
C 627 650 627 -64 1370 -64 
C 1747 -64 1965 306 1965 777 
L 1965 1140 
L 1850 1140 
L 1850 783 
C 1850 344 1677 51 1408 51 
C 1222 51 966 178 966 758 
L 966 2560 
z
" transform="scale(0.015625)"/>
       <path id="CMR17-49" d="M 1261 3905 
C 1261 4192 1338 4192 1798 4192 
L 1798 4352 
C 1594 4352 1267 4352 1050 4352 
C 832 4352 506 4352 301 4352 
L 301 4192 
C 762 4192 838 4192 838 3905 
L 838 447 
C 838 160 762 160 301 160 
L 301 0 
C 506 0 832 0 1050 0 
C 1267 0 1594 0 1798 0 
L 1798 160 
C 1338 160 1261 160 1261 447 
L 1261 3905 
z
" transform="scale(0.015625)"/>
      </defs>
      <use xlink:href="#CMMI12-43" transform="scale(0.996264)"/>
      <use xlink:href="#CMMI12-54" transform="translate(69.792037 -14.943915) scale(0.697382)"/>
      <use xlink:href="#CMR17-2d" transform="translate(149.872457 0) scale(0.996264)"/>
      <use xlink:href="#CMR17-44" transform="translate(210.02439 0) scale(0.996264)"/>
      <use xlink:href="#CMR17-54" transform="translate(280.417946 0) scale(0.996264)"/>
      <use xlink:href="#CMR17-55" transform="translate(346.927826 0) scale(0.996264)"/>
      <use xlink:href="#CMR17-57" transform="translate(446.076222 0) scale(0.996264)"/>
      <use xlink:href="#CMR17-69" transform="translate(541.172872 0) scale(0.996264)"/>
      <use xlink:href="#CMR17-6e" transform="translate(566.043931 0) scale(0.996264)"/>
      <use xlink:href="#CMR17-64" transform="translate(616.9393 0) scale(0.996264)"/>
      <use xlink:href="#CMR17-45" transform="translate(697.910637 0) scale(0.996264)"/>
      <use xlink:href="#CMR17-6e" transform="translate(760.496937 0) scale(0.996264)"/>
      <use xlink:href="#CMR17-65" transform="translate(811.392307 0) scale(0.996264)"/>
      <use xlink:href="#CMR17-72" transform="translate(851.877967 0) scale(0.996264)"/>
      <use xlink:href="#CMR17-67" transform="translate(887.158735 0) scale(0.996264)"/>
      <use xlink:href="#CMR17-79" transform="translate(932.849212 0) scale(0.996264)"/>
      <use xlink:href="#CMR17-52" transform="translate(1011.218094 0) scale(0.996264)"/>
      <use xlink:href="#CMR17-65" transform="translate(1079.009196 0) scale(0.996264)"/>
      <use xlink:href="#CMR17-70" transform="translate(1119.494857 0) scale(0.996264)"/>
      <use xlink:href="#CMR17-6f" transform="translate(1172.992665 0) scale(0.996264)"/>
      <use xlink:href="#CMR17-72" transform="translate(1218.683143 0) scale(0.996264)"/>
      <use xlink:href="#CMR17-74" transform="translate(1253.96391 0) scale(0.996264)"/>
      <use xlink:href="#CMR17-2d" transform="translate(1289.244678 0) scale(0.996264)"/>
      <use xlink:href="#CMR17-49" transform="translate(1319.320645 0) scale(0.996264)"/>
      <use xlink:href="#CMR17-2d" transform="translate(1351.959054 0) scale(0.996264)"/>
      <use xlink:href="#CMR17-30" transform="translate(1382.03502 0) scale(0.996264)"/>
      <use xlink:href="#CMR17-30" transform="translate(1427.725497 0) scale(0.996264)"/>
      <use xlink:href="#CMR17-39" transform="translate(1473.415974 0) scale(0.996264)"/>
      <use xlink:href="#CMR17-32" transform="translate(1519.106451 0) scale(0.996264)"/>
     </g>
    </g>
    <g id="line2d_82">
     <path d="M 588.983374 66.994132 
L 608.983374 66.994132 
L 628.983374 66.994132 
" style="fill: none; stroke-dasharray: 4.81,2.08; stroke-dashoffset: 0; stroke: #000000; stroke-width: 1.3"/>
     <g>
      <use xlink:href="#md8a4ffdfde" x="608.983374" y="66.994132" style="stroke: #000000"/>
     </g>
    </g>
    <g id="text_44">
     <!-- $C_T$ - DTU Wind Energy Report-I-0092 -->
     <g transform="translate(644.983374 73.994132) scale(0.2 -0.2)">
      <use xlink:href="#CMMI12-43" transform="scale(0.996264)"/>
      <use xlink:href="#CMMI12-54" transform="translate(69.792037 -14.943915) scale(0.697382)"/>
      <use xlink:href="#CMR17-2d" transform="translate(149.872457 0) scale(0.996264)"/>
      <use xlink:href="#CMR17-44" transform="translate(210.02439 0) scale(0.996264)"/>
      <use xlink:href="#CMR17-54" transform="translate(280.417946 0) scale(0.996264)"/>
      <use xlink:href="#CMR17-55" transform="translate(346.927826 0) scale(0.996264)"/>
      <use xlink:href="#CMR17-57" transform="translate(446.076222 0) scale(0.996264)"/>
      <use xlink:href="#CMR17-69" transform="translate(541.172872 0) scale(0.996264)"/>
      <use xlink:href="#CMR17-6e" transform="translate(566.043931 0) scale(0.996264)"/>
      <use xlink:href="#CMR17-64" transform="translate(616.9393 0) scale(0.996264)"/>
      <use xlink:href="#CMR17-45" transform="translate(697.910637 0) scale(0.996264)"/>
      <use xlink:href="#CMR17-6e" transform="translate(760.496937 0) scale(0.996264)"/>
      <use xlink:href="#CMR17-65" transform="translate(811.392307 0) scale(0.996264)"/>
      <use xlink:href="#CMR17-72" transform="translate(851.877967 0) scale(0.996264)"/>
      <use xlink:href="#CMR17-67" transform="translate(887.158735 0) scale(0.996264)"/>
      <use xlink:href="#CMR17-79" transform="translate(932.849212 0) scale(0.996264)"/>
      <use xlink:href="#CMR17-52" transform="translate(1011.218094 0) scale(0.996264)"/>
      <use xlink:href="#CMR17-65" transform="translate(1079.009196 0) scale(0.996264)"/>
      <use xlink:href="#CMR17-70" transform="translate(1119.494857 0) scale(0.996264)"/>
      <use xlink:href="#CMR17-6f" transform="translate(1172.992665 0) scale(0.996264)"/>
      <use xlink:href="#CMR17-72" transform="translate(1218.683143 0) scale(0.996264)"/>
      <use xlink:href="#CMR17-74" transform="translate(1253.96391 0) scale(0.996264)"/>
      <use xlink:href="#CMR17-2d" transform="translate(1289.244678 0) scale(0.996264)"/>
      <use xlink:href="#CMR17-49" transform="translate(1319.320645 0) scale(0.996264)"/>
      <use xlink:href="#CMR17-2d" transform="translate(1351.959054 0) scale(0.996264)"/>
      <use xlink:href="#CMR17-30" transform="translate(1382.03502 0) scale(0.996264)"/>
      <use xlink:href="#CMR17-30" transform="translate(1427.725497 0) scale(0.996264)"/>
      <use xlink:href="#CMR17-39" transform="translate(1473.415974 0) scale(0.996264)"/>
      <use xlink:href="#CMR17-32" transform="translate(1519.106451 0) scale(0.996264)"/>
     </g>
    </g>
   </g>
  </g>
  <g id="axes_2">
   <g id="matplotlib.axis_3">
    <g id="ytick_12">
     <g id="line2d_83">
      <defs>
       <path id="md33357ef32" d="M 0 0 
L 3.5 0 
" style="stroke: #000000; stroke-width: 0.8"/>
      </defs>
      <g>
       <use xlink:href="#md33357ef32" x="976.341134" y="469.432784" style="stroke: #000000; stroke-width: 0.8"/>
      </g>
     </g>
     <g id="text_45">
      <!-- $\mathdefault{0.0}$ -->
      <g transform="translate(984.841134 476.351282) scale(0.2 -0.2)">
       <use xlink:href="#CMR17-30" transform="scale(0.996264)"/>
       <use xlink:href="#CMMI12-3a" transform="translate(45.690477 0) scale(0.996264)"/>
       <use xlink:href="#CMR17-30" transform="translate(72.787654 0) scale(0.996264)"/>
      </g>
     </g>
    </g>
    <g id="ytick_13">
     <g id="line2d_84">
      <g>
       <use xlink:href="#md33357ef32" x="976.341134" y="423.901356" style="stroke: #000000; stroke-width: 0.8"/>
      </g>
     </g>
     <g id="text_46">
      <!-- $\mathdefault{0.1}$ -->
      <g transform="translate(984.841134 430.819854) scale(0.2 -0.2)">
       <use xlink:href="#CMR17-30" transform="scale(0.996264)"/>
       <use xlink:href="#CMMI12-3a" transform="translate(45.690477 0) scale(0.996264)"/>
       <use xlink:href="#CMR17-31" transform="translate(72.787654 0) scale(0.996264)"/>
      </g>
     </g>
    </g>
    <g id="ytick_14">
     <g id="line2d_85">
      <g>
       <use xlink:href="#md33357ef32" x="976.341134" y="378.369927" style="stroke: #000000; stroke-width: 0.8"/>
      </g>
     </g>
     <g id="text_47">
      <!-- $\mathdefault{0.2}$ -->
      <g transform="translate(984.841134 385.288425) scale(0.2 -0.2)">
       <use xlink:href="#CMR17-30" transform="scale(0.996264)"/>
       <use xlink:href="#CMMI12-3a" transform="translate(45.690477 0) scale(0.996264)"/>
       <use xlink:href="#CMR17-32" transform="translate(72.787654 0) scale(0.996264)"/>
      </g>
     </g>
    </g>
    <g id="ytick_15">
     <g id="line2d_86">
      <g>
       <use xlink:href="#md33357ef32" x="976.341134" y="332.838498" style="stroke: #000000; stroke-width: 0.8"/>
      </g>
     </g>
     <g id="text_48">
      <!-- $\mathdefault{0.3}$ -->
      <g transform="translate(984.841134 339.756997) scale(0.2 -0.2)">
       <use xlink:href="#CMR17-30" transform="scale(0.996264)"/>
       <use xlink:href="#CMMI12-3a" transform="translate(45.690477 0) scale(0.996264)"/>
       <use xlink:href="#CMR17-33" transform="translate(72.787654 0) scale(0.996264)"/>
      </g>
     </g>
    </g>
    <g id="ytick_16">
     <g id="line2d_87">
      <g>
       <use xlink:href="#md33357ef32" x="976.341134" y="287.30707" style="stroke: #000000; stroke-width: 0.8"/>
      </g>
     </g>
     <g id="text_49">
      <!-- $\mathdefault{0.4}$ -->
      <g transform="translate(984.841134 294.225568) scale(0.2 -0.2)">
       <use xlink:href="#CMR17-30" transform="scale(0.996264)"/>
       <use xlink:href="#CMMI12-3a" transform="translate(45.690477 0) scale(0.996264)"/>
       <use xlink:href="#CMR17-34" transform="translate(72.787654 0) scale(0.996264)"/>
      </g>
     </g>
    </g>
    <g id="ytick_17">
     <g id="line2d_88">
      <g>
       <use xlink:href="#md33357ef32" x="976.341134" y="241.775641" style="stroke: #000000; stroke-width: 0.8"/>
      </g>
     </g>
     <g id="text_50">
      <!-- $\mathdefault{0.5}$ -->
      <g transform="translate(984.841134 248.69414) scale(0.2 -0.2)">
       <use xlink:href="#CMR17-30" transform="scale(0.996264)"/>
       <use xlink:href="#CMMI12-3a" transform="translate(45.690477 0) scale(0.996264)"/>
       <use xlink:href="#CMR17-35" transform="translate(72.787654 0) scale(0.996264)"/>
      </g>
     </g>
    </g>
    <g id="ytick_18">
     <g id="line2d_89">
      <g>
       <use xlink:href="#md33357ef32" x="976.341134" y="196.244213" style="stroke: #000000; stroke-width: 0.8"/>
      </g>
     </g>
     <g id="text_51">
      <!-- $\mathdefault{0.6}$ -->
      <g transform="translate(984.841134 203.162711) scale(0.2 -0.2)">
       <use xlink:href="#CMR17-30" transform="scale(0.996264)"/>
       <use xlink:href="#CMMI12-3a" transform="translate(45.690477 0) scale(0.996264)"/>
       <use xlink:href="#CMR17-36" transform="translate(72.787654 0) scale(0.996264)"/>
      </g>
     </g>
    </g>
    <g id="ytick_19">
     <g id="line2d_90">
      <g>
       <use xlink:href="#md33357ef32" x="976.341134" y="150.712784" style="stroke: #000000; stroke-width: 0.8"/>
      </g>
     </g>
     <g id="text_52">
      <!-- $\mathdefault{0.7}$ -->
      <g transform="translate(984.841134 157.631282) scale(0.2 -0.2)">
       <use xlink:href="#CMR17-30" transform="scale(0.996264)"/>
       <use xlink:href="#CMMI12-3a" transform="translate(45.690477 0) scale(0.996264)"/>
       <use xlink:href="#CMR17-37" transform="translate(72.787654 0) scale(0.996264)"/>
      </g>
     </g>
    </g>
    <g id="ytick_20">
     <g id="line2d_91">
      <g>
       <use xlink:href="#md33357ef32" x="976.341134" y="105.181356" style="stroke: #000000; stroke-width: 0.8"/>
      </g>
     </g>
     <g id="text_53">
      <!-- $\mathdefault{0.8}$ -->
      <g transform="translate(984.841134 112.099854) scale(0.2 -0.2)">
       <use xlink:href="#CMR17-30" transform="scale(0.996264)"/>
       <use xlink:href="#CMMI12-3a" transform="translate(45.690477 0) scale(0.996264)"/>
       <use xlink:href="#CMR17-38" transform="translate(72.787654 0) scale(0.996264)"/>
      </g>
     </g>
    </g>
    <g id="ytick_21">
     <g id="line2d_92">
      <g>
       <use xlink:href="#md33357ef32" x="976.341134" y="59.649927" style="stroke: #000000; stroke-width: 0.8"/>
      </g>
     </g>
     <g id="text_54">
      <!-- $\mathdefault{0.9}$ -->
      <g transform="translate(984.841134 66.568425) scale(0.2 -0.2)">
       <use xlink:href="#CMR17-30" transform="scale(0.996264)"/>
       <use xlink:href="#CMMI12-3a" transform="translate(45.690477 0) scale(0.996264)"/>
       <use xlink:href="#CMR17-39" transform="translate(72.787654 0) scale(0.996264)"/>
      </g>
     </g>
    </g>
    <g id="ytick_22">
     <g id="line2d_93">
      <g>
       <use xlink:href="#md33357ef32" x="976.341134" y="14.118498" style="stroke: #000000; stroke-width: 0.8"/>
      </g>
     </g>
     <g id="text_55">
      <!-- $\mathdefault{1.0}$ -->
      <g transform="translate(984.841134 21.036997) scale(0.2 -0.2)">
       <use xlink:href="#CMR17-31" transform="scale(0.996264)"/>
       <use xlink:href="#CMMI12-3a" transform="translate(45.690477 0) scale(0.996264)"/>
       <use xlink:href="#CMR17-30" transform="translate(72.787654 0) scale(0.996264)"/>
      </g>
     </g>
    </g>
    <g id="text_56">
     <!-- $C_T$ -->
     <g transform="translate(1045.833014 266.88529) rotate(-90) scale(0.25 -0.25)">
      <use xlink:href="#CMMI12-43" transform="scale(0.996264)"/>
      <use xlink:href="#CMMI12-54" transform="translate(69.792037 -14.943915) scale(0.697382)"/>
     </g>
    </g>
   </g>
   <g id="line2d_94">
    <path d="M 124.122952 469.432784 
L 155.339735 469.432784 
L 186.556519 469.432784 
L 217.773302 469.432784 
L 248.865218 469.432784 
L 248.990085 86.051554 
L 280.206868 86.051554 
L 311.423652 86.051554 
L 342.640435 86.051554 
L 373.857218 86.051554 
L 405.074001 86.051554 
L 436.290784 86.051554 
L 467.507568 86.051554 
L 498.724351 207.498092 
L 529.941134 278.490384 
L 561.157917 321.57296 
L 592.374701 351.16977 
L 623.591484 372.707401 
L 654.808267 388.904951 
L 686.02505 401.388863 
L 717.241833 411.215169 
L 748.458617 419.085877 
L 779.6754 425.466667 
L 810.892183 430.717449 
L 842.108966 435.090864 
L 873.325749 438.742666 
L 904.542533 441.793205 
L 905.322952 469.432784 
L 935.759316 469.432784 
" clip-path="url(#p58332904f0)" style="fill: none; stroke-dasharray: 4.44,1.92; stroke-dashoffset: 0; stroke: #000000; stroke-width: 1.2"/>
    <g clip-path="url(#p58332904f0)">
     <use xlink:href="#m7d1ad080f3" x="124.122952" y="469.432784" style="stroke: #000000; stroke-linejoin: miter"/>
     <use xlink:href="#m7d1ad080f3" x="155.339735" y="469.432784" style="stroke: #000000; stroke-linejoin: miter"/>
     <use xlink:href="#m7d1ad080f3" x="186.556519" y="469.432784" style="stroke: #000000; stroke-linejoin: miter"/>
     <use xlink:href="#m7d1ad080f3" x="217.773302" y="469.432784" style="stroke: #000000; stroke-linejoin: miter"/>
     <use xlink:href="#m7d1ad080f3" x="248.865218" y="469.432784" style="stroke: #000000; stroke-linejoin: miter"/>
     <use xlink:href="#m7d1ad080f3" x="248.990085" y="86.051554" style="stroke: #000000; stroke-linejoin: miter"/>
     <use xlink:href="#m7d1ad080f3" x="280.206868" y="86.051554" style="stroke: #000000; stroke-linejoin: miter"/>
     <use xlink:href="#m7d1ad080f3" x="311.423652" y="86.051554" style="stroke: #000000; stroke-linejoin: miter"/>
     <use xlink:href="#m7d1ad080f3" x="342.640435" y="86.051554" style="stroke: #000000; stroke-linejoin: miter"/>
     <use xlink:href="#m7d1ad080f3" x="373.857218" y="86.051554" style="stroke: #000000; stroke-linejoin: miter"/>
     <use xlink:href="#m7d1ad080f3" x="405.074001" y="86.051554" style="stroke: #000000; stroke-linejoin: miter"/>
     <use xlink:href="#m7d1ad080f3" x="436.290784" y="86.051554" style="stroke: #000000; stroke-linejoin: miter"/>
     <use xlink:href="#m7d1ad080f3" x="467.507568" y="86.051554" style="stroke: #000000; stroke-linejoin: miter"/>
     <use xlink:href="#m7d1ad080f3" x="498.724351" y="207.498092" style="stroke: #000000; stroke-linejoin: miter"/>
     <use xlink:href="#m7d1ad080f3" x="529.941134" y="278.490384" style="stroke: #000000; stroke-linejoin: miter"/>
     <use xlink:href="#m7d1ad080f3" x="561.157917" y="321.57296" style="stroke: #000000; stroke-linejoin: miter"/>
     <use xlink:href="#m7d1ad080f3" x="592.374701" y="351.16977" style="stroke: #000000; stroke-linejoin: miter"/>
     <use xlink:href="#m7d1ad080f3" x="623.591484" y="372.707401" style="stroke: #000000; stroke-linejoin: miter"/>
     <use xlink:href="#m7d1ad080f3" x="654.808267" y="388.904951" style="stroke: #000000; stroke-linejoin: miter"/>
     <use xlink:href="#m7d1ad080f3" x="686.02505" y="401.388863" style="stroke: #000000; stroke-linejoin: miter"/>
     <use xlink:href="#m7d1ad080f3" x="717.241833" y="411.215169" style="stroke: #000000; stroke-linejoin: miter"/>
     <use xlink:href="#m7d1ad080f3" x="748.458617" y="419.085877" style="stroke: #000000; stroke-linejoin: miter"/>
     <use xlink:href="#m7d1ad080f3" x="779.6754" y="425.466667" style="stroke: #000000; stroke-linejoin: miter"/>
     <use xlink:href="#m7d1ad080f3" x="810.892183" y="430.717449" style="stroke: #000000; stroke-linejoin: miter"/>
     <use xlink:href="#m7d1ad080f3" x="842.108966" y="435.090864" style="stroke: #000000; stroke-linejoin: miter"/>
     <use xlink:href="#m7d1ad080f3" x="873.325749" y="438.742666" style="stroke: #000000; stroke-linejoin: miter"/>
     <use xlink:href="#m7d1ad080f3" x="904.542533" y="441.793205" style="stroke: #000000; stroke-linejoin: miter"/>
     <use xlink:href="#m7d1ad080f3" x="905.322952" y="469.432784" style="stroke: #000000; stroke-linejoin: miter"/>
     <use xlink:href="#m7d1ad080f3" x="935.759316" y="469.432784" style="stroke: #000000; stroke-linejoin: miter"/>
    </g>
   </g>
   <g id="patch_8">
    <path d="M 83.541134 492.198498 
L 83.541134 14.118498 
" style="fill: none; stroke: #000000; stroke-width: 0.8; stroke-linejoin: miter; stroke-linecap: square"/>
   </g>
   <g id="patch_9">
    <path d="M 976.341134 492.198498 
L 976.341134 14.118498 
" style="fill: none; stroke: #000000; stroke-width: 0.8; stroke-linejoin: miter; stroke-linecap: square"/>
   </g>
   <g id="patch_10">
    <path d="M 83.541134 492.198498 
L 976.341134 492.198498 
" style="fill: none; stroke: #000000; stroke-width: 0.8; stroke-linejoin: miter; stroke-linecap: square"/>
   </g>
   <g id="patch_11">
    <path d="M 83.541134 14.118498 
L 976.341134 14.118498 
" style="fill: none; stroke: #000000; stroke-width: 0.8; stroke-linejoin: miter; stroke-linecap: square"/>
   </g>
   <g id="line2d_95">
    <path d="M 248.990085 49.177698 
L 280.206868 50.998956 
L 311.423652 57.82867 
L 342.640435 78.773127 
L 373.857218 98.806956 
L 405.074001 98.806956 
L 436.290784 98.806956 
L 467.507568 98.806956 
L 498.724351 206.716441 
L 529.941134 278.656098 
L 561.157917 322.36627 
L 592.374701 351.506384 
L 623.591484 373.36147 
L 654.808267 389.752784 
L 686.02505 402.04627 
L 717.241833 412.063184 
L 748.458617 419.803527 
L 779.6754 426.177927 
L 810.892183 431.186384 
L 842.108966 435.739527 
L 873.325749 439.382041 
L 904.542533 442.569241 
" clip-path="url(#p58332904f0)" style="fill: none; stroke-dasharray: 4.81,2.08; stroke-dashoffset: 0; stroke: #000000; stroke-width: 1.3"/>
    <g clip-path="url(#p58332904f0)">
     <use xlink:href="#md8a4ffdfde" x="248.990085" y="49.177698" style="stroke: #000000"/>
     <use xlink:href="#md8a4ffdfde" x="280.206868" y="50.998956" style="stroke: #000000"/>
     <use xlink:href="#md8a4ffdfde" x="311.423652" y="57.82867" style="stroke: #000000"/>
     <use xlink:href="#md8a4ffdfde" x="342.640435" y="78.773127" style="stroke: #000000"/>
     <use xlink:href="#md8a4ffdfde" x="373.857218" y="98.806956" style="stroke: #000000"/>
     <use xlink:href="#md8a4ffdfde" x="405.074001" y="98.806956" style="stroke: #000000"/>
     <use xlink:href="#md8a4ffdfde" x="436.290784" y="98.806956" style="stroke: #000000"/>
     <use xlink:href="#md8a4ffdfde" x="467.507568" y="98.806956" style="stroke: #000000"/>
     <use xlink:href="#md8a4ffdfde" x="498.724351" y="206.716441" style="stroke: #000000"/>
     <use xlink:href="#md8a4ffdfde" x="529.941134" y="278.656098" style="stroke: #000000"/>
     <use xlink:href="#md8a4ffdfde" x="561.157917" y="322.36627" style="stroke: #000000"/>
     <use xlink:href="#md8a4ffdfde" x="592.374701" y="351.506384" style="stroke: #000000"/>
     <use xlink:href="#md8a4ffdfde" x="623.591484" y="373.36147" style="stroke: #000000"/>
     <use xlink:href="#md8a4ffdfde" x="654.808267" y="389.752784" style="stroke: #000000"/>
     <use xlink:href="#md8a4ffdfde" x="686.02505" y="402.04627" style="stroke: #000000"/>
     <use xlink:href="#md8a4ffdfde" x="717.241833" y="412.063184" style="stroke: #000000"/>
     <use xlink:href="#md8a4ffdfde" x="748.458617" y="419.803527" style="stroke: #000000"/>
     <use xlink:href="#md8a4ffdfde" x="779.6754" y="426.177927" style="stroke: #000000"/>
     <use xlink:href="#md8a4ffdfde" x="810.892183" y="431.186384" style="stroke: #000000"/>
     <use xlink:href="#md8a4ffdfde" x="842.108966" y="435.739527" style="stroke: #000000"/>
     <use xlink:href="#md8a4ffdfde" x="873.325749" y="439.382041" style="stroke: #000000"/>
     <use xlink:href="#md8a4ffdfde" x="904.542533" y="442.569241" style="stroke: #000000"/>
    </g>
   </g>
  </g>
 </g>
 <defs>
  <clipPath id="p58332904f0">
   <rect x="83.541134" y="14.118498" width="892.8" height="478.08"/>
  </clipPath>
 </defs>
</svg>
